<svg id="Group_1661" data-name="Group 1661" xmlns="http://www.w3.org/2000/svg" xmlns:xlink="http://www.w3.org/1999/xlink" width="300" height="318.574" viewBox="0 0 300 318.574">
  <defs>
    <clipPath id="clip-path">
      <rect id="Rectangle_746" data-name="Rectangle 746" width="300" height="318.574" fill="none"/>
    </clipPath>
    <clipPath id="clip-path-3">
      <rect id="Rectangle_736" data-name="Rectangle 736" width="119.144" height="102.272" transform="translate(22.44 194.942)" fill="none"/>
    </clipPath>
    <clipPath id="clip-path-4">
      <rect id="Rectangle_737" data-name="Rectangle 737" width="62.983" height="47.695" transform="translate(117.359 157.24)" fill="none"/>
    </clipPath>
    <clipPath id="clip-path-5">
      <rect id="Rectangle_738" data-name="Rectangle 738" width="83.081" height="47.673" transform="translate(108.372 189.641)" fill="none"/>
    </clipPath>
    <clipPath id="clip-path-6">
      <rect id="Rectangle_739" data-name="Rectangle 739" width="120.919" height="104.183" transform="translate(89.166 3.41)" fill="none"/>
    </clipPath>
    <clipPath id="clip-path-7">
      <rect id="Rectangle_740" data-name="Rectangle 740" width="114.774" height="174.425" transform="translate(87.632 13.085)" fill="none"/>
    </clipPath>
    <clipPath id="clip-path-8">
      <rect id="Rectangle_741" data-name="Rectangle 741" width="1.535" height="1.046" transform="translate(200.871 156.217)" fill="none"/>
    </clipPath>
    <clipPath id="clip-path-9">
      <rect id="Rectangle_742" data-name="Rectangle 742" width="95.49" height="174.425" transform="translate(87.632 13.085)" fill="none"/>
    </clipPath>
    <clipPath id="clip-path-10">
      <rect id="Rectangle_743" data-name="Rectangle 743" width="141.607" height="96.971" transform="translate(81.497)" fill="none"/>
    </clipPath>
    <clipPath id="clip-path-11">
      <rect id="Rectangle_744" data-name="Rectangle 744" width="127.616" height="73.891" transform="translate(75.33 45.695)" fill="none"/>
    </clipPath>
  </defs>
  <g id="Group_1660" data-name="Group 1660" clip-path="url(#clip-path)">
    <g id="Group_1659" data-name="Group 1659">
      <g id="Group_1658" data-name="Group 1658" clip-path="url(#clip-path)">
        <path id="Path_13367" data-name="Path 13367" d="M0,301.126c0,9.637,67.157,17.448,150,17.448s150-7.811,150-17.448-67.157-17.448-150-17.448S0,291.489,0,301.126" fill="#fd9f00"/>
        <path id="Path_13368" data-name="Path 13368" d="M97.754,105.208c-1.246-6.277-7.222-12.121-15.422-10.329s-8.221,9.438-6.974,15.722c.07.324,4.1,17.3,6.471,20.87S87.634,141.837,93.4,139.9c3.811-1.279,6.055-8.068,6.958-12.968s-2.6-21.727-2.6-21.727" fill="#f9ab78"/>
        <path id="Path_13369" data-name="Path 13369" d="M202.079,104.953c1.247-6.278,7.221-12.121,15.421-10.328s9,9.66,7.76,15.935c-.07.333-4.427,16.044-6.471,20.882-1.682,3.983-6.261,11-12.212,8.544-3.72-1.535-6.2-8.407-7.1-13.307s2.6-21.726,2.6-21.726" fill="#f9ab78"/>
        <path id="Path_13370" data-name="Path 13370" d="M22.44,297.214H276.716S271.7,234.8,263.363,225.446s-71.91-30.262-71.91-30.262l-83.081-.241s-66.884,19.574-71.452,30.5-14.48,71.768-14.48,71.768" fill="#1d8d9c"/>
        <g id="Group_1633" data-name="Group 1633" style="mix-blend-mode: multiply;isolation: isolate">
          <g id="Group_1632" data-name="Group 1632">
            <g id="Group_1631" data-name="Group 1631" clip-path="url(#clip-path-3)">
              <path id="Path_13371" data-name="Path 13371" d="M141.584,195.037l-33.212-.1s-66.884,19.575-71.452,30.5-14.48,71.768-14.48,71.768H55.983s9.911-60.839,14.478-71.768c4.393-10.505,66.309-28.986,71.123-30.409" fill="#b7c9d3"/>
            </g>
          </g>
        </g>
        <path id="Path_13372" data-name="Path 13372" d="M117.359,190.857s20.945,17.175,32.693,17.175,32.685-17.175,32.685-17.175a23.166,23.166,0,0,1-2.753-23.867c6.108-13.549-68.125-12.44-59.495,0s-3.13,23.867-3.13,23.867" fill="#d1845c"/>
        <g id="Group_1636" data-name="Group 1636" style="mix-blend-mode: multiply;isolation: isolate">
          <g id="Group_1635" data-name="Group 1635">
            <g id="Group_1634" data-name="Group 1634" clip-path="url(#clip-path-4)">
              <path id="Path_13373" data-name="Path 13373" d="M139.121,204.935a26.694,26.694,0,0,1,9.73-12.261c5.027-3.665,8-.374,29.268-12.578a22.768,22.768,0,0,1,1.865-13.106c6.109-13.549-68.125-12.44-59.495,0s-3.13,23.867-3.13,23.867,11.164,9.135,21.762,14.078" fill="#dececf"/>
            </g>
          </g>
        </g>
        <g id="Group_1639" data-name="Group 1639" style="mix-blend-mode: multiply;isolation: isolate">
          <g id="Group_1638" data-name="Group 1638">
            <g id="Group_1637" data-name="Group 1637" clip-path="url(#clip-path-5)">
              <path id="Path_13374" data-name="Path 13374" d="M113.227,189.641l-4.855,5.3s14.473,35.747,27.041,40.277c3.837,1.385,11.834-16.331,14.623-16.331,1.344,0,12.14,18.793,13.781,18.42,12.874-2.936,27.636-42.125,27.636-42.125l-5.442-4.128L150.036,213.7Z" fill="#b7c9d3"/>
            </g>
          </g>
        </g>
        <path id="Path_13375" data-name="Path 13375" d="M210.084,57.979c0-27.239-16.875-54.569-61.553-54.569s-60.9,29.907-60.9,57.149c0,1.43-.138,75.5,8.538,92.508s32.553,34.363,53.879,34.443c23.321.092,44.278-14.889,54.07-34.443s5.965-95.088,5.965-95.088" fill="#f9ab78"/>
        <g id="Group_1642" data-name="Group 1642" style="mix-blend-mode: multiply;isolation: isolate">
          <g id="Group_1641" data-name="Group 1641">
            <g id="Group_1640" data-name="Group 1640" clip-path="url(#clip-path-6)">
              <path id="Path_13376" data-name="Path 13376" d="M104.823,64.113c.382.272.728.509,1.178.838,1.222,1.15-4.913,14.826-3.127,14.9,8.849,1.862,19.468-17.307,28.115-14.621,15.224,4.739,43.857,43.108,71.957,42.358,7.385-7.121,7.138-49.6,7.138-49.6,0-27.239-16.875-54.569-61.553-54.569-37.017,0-54.458,20.535-59.365,43.069,6.91,2.952,12.695,8.664,15.657,17.634" fill="#ece2de"/>
            </g>
          </g>
        </g>
        <g id="Group_1645" data-name="Group 1645" style="mix-blend-mode: multiply;isolation: isolate">
          <g id="Group_1644" data-name="Group 1644">
            <g id="Group_1643" data-name="Group 1643" clip-path="url(#clip-path-7)">
              <path id="Path_13377" data-name="Path 13377" d="M167.542,168.019c-21.327-.081-45.2-17.439-53.88-34.445s-8.535-91.077-8.535-92.508a62.113,62.113,0,0,1,6.453-27.982C94.543,24.1,87.632,42.863,87.632,60.559c0,1.429-.138,75.5,8.538,92.508s32.553,34.362,53.879,34.442c22.049.086,41.97-13.305,52.357-31.293a58.559,58.559,0,0,1-34.864,11.8" fill="#ece2de"/>
            </g>
          </g>
        </g>
        <g id="Group_1648" data-name="Group 1648" style="mix-blend-mode: multiply;isolation: isolate">
          <g id="Group_1647" data-name="Group 1647">
            <g id="Group_1646" data-name="Group 1646" clip-path="url(#clip-path-8)">
              <path id="Path_13378" data-name="Path 13378" d="M202.1,156.666c.092-.155.211-.294.3-.449-.5.365-1.026.693-1.534,1.047.418-.187.823-.4,1.233-.6" fill="#ece2de"/>
            </g>
          </g>
        </g>
        <g id="Group_1651" data-name="Group 1651" style="mix-blend-mode: multiply;isolation: isolate">
          <g id="Group_1650" data-name="Group 1650">
            <g id="Group_1649" data-name="Group 1649" clip-path="url(#clip-path-9)">
              <path id="Path_13379" data-name="Path 13379" d="M160.172,181.764c-21.324-.08-45.2-17.437-53.878-34.445s-8.538-91.074-8.538-92.508c0-12.206,3.4-24.859,11.025-35.187a56.859,56.859,0,0,1,2.8-6.539C94.543,24.1,87.632,42.863,87.632,60.559c0,1.429-.138,75.5,8.538,92.509s32.553,34.362,53.879,34.442a58.051,58.051,0,0,0,33.073-10.653,56.351,56.351,0,0,1-22.95,4.907" fill="#ece2de"/>
            </g>
          </g>
        </g>
        <path id="Path_13380" data-name="Path 13380" d="M220.078,51.482C214.58,21.5,190.091-.247,150.049,0,110.123.252,83.881,24.723,78.635,52.48c-2.249,11.888-3.987,34.487-3.062,47.957,6.759-5.559,9.546-6.281,12.82-4.978,2.239,24.494,7.568,24.126,7.568,24.126s.491-16.634,1.578-27.626,19.082-12.987,28.078-31.992c28.49-1.239,46.481,35.247,77.718,37.245-3.09,18.058,3.751,25.243,3.751,25.243s.724-14.918,3.245-21.994a7.54,7.54,0,0,1,11.988-3.49c1.555-11.219.8-28.922-2.241-45.489" fill="#2f1912"/>
        <g id="Group_1654" data-name="Group 1654" opacity="0.5" style="mix-blend-mode: soft-light;isolation: isolate">
          <g id="Group_1653" data-name="Group 1653">
            <g id="Group_1652" data-name="Group 1652" clip-path="url(#clip-path-10)">
              <path id="Path_13381" data-name="Path 13381" d="M220.078,51.482C214.58,21.5,190.091-.247,150.049,0,115,.22,90.512,19.1,81.5,42.489c11.23-19.23,33.751-33.676,64.356-33.865C185.9,8.377,210.386,30.116,215.885,60.1a180.96,180.96,0,0,1,2.978,35.339,7.694,7.694,0,0,1,3.456,1.527c1.555-11.219.8-28.922-2.241-45.489" fill="#fff"/>
            </g>
          </g>
        </g>
        <g id="Group_1657" data-name="Group 1657" style="mix-blend-mode: multiply;isolation: isolate">
          <g id="Group_1656" data-name="Group 1656">
            <g id="Group_1655" data-name="Group 1655" clip-path="url(#clip-path-11)">
              <path id="Path_13382" data-name="Path 13382" d="M125.617,45.721c-9,19.007-37.985,36.916-50.044,40.469-.042-.616-.052-1.339-.083-1.993a161.449,161.449,0,0,0,.083,16.24c6.759-5.558,9.546-6.281,12.819-4.977,2.24,24.493,7.569,24.126,7.569,24.126s.491-16.634,1.578-27.627,19.082-12.986,28.078-31.991c28.366-1.235,46.339,34.911,77.329,37.193-22.857-7.934-48.839-52.677-77.329-51.44" fill="#a09a97"/>
            </g>
          </g>
        </g>
        <path id="Path_13383" data-name="Path 13383" d="M113.227,181.145l-4.855,13.8s14.473,27.251,27.041,31.781c3.837,1.385,11.834-16.329,14.623-16.329,1.344,0,12.14,18.794,13.781,18.418,12.874-2.936,27.636-33.629,27.636-33.629l-5.442-12.624L150.036,205.2Z" fill="#fff"/>
      </g>
    </g>
  </g>
</svg>
