<svg xmlns="http://www.w3.org/2000/svg" width="316.711" height="162.884" viewBox="0 0 316.711 162.884">
  <g id="Group_379" data-name="Group 379" transform="translate(-1884.218 -705.769)">
    <g id="Group_366" data-name="Group 366" transform="translate(1896.299 718.161)">
      <path id="Path_1564" data-name="Path 1564" d="M2142.518,755.567c-26.385-24.293-62.568-39.278-102.483-39.278a152.873,152.873,0,0,0-76.462,20.2,145.362,145.362,0,0,0-29.8,22.69c-24.765,24.536-39.948,57.647-39.948,94.078h95.032a46.147,46.147,0,0,1,13.261-32.206,51.08,51.08,0,0,1,13.85-10.121,53.714,53.714,0,0,1,24.072-5.622h0a52.383,52.383,0,0,1,40.388,18.492,45.858,45.858,0,0,1,10.8,29.458h95.031C2186.252,815.006,2169.512,780.414,2142.518,755.567Z" transform="translate(-1893.82 -716.289)" fill="#00b300"/>
    </g>
    <g id="Group_367" data-name="Group 367" transform="translate(1896.299 760.227)">
      <path id="Path_1565" data-name="Path 1565" d="M1933.636,735.53l68.115,62.418a46.831,46.831,0,0,0-13.217,32.488H1893.82C1893.82,793.685,1908.954,760.284,1933.636,735.53Z" transform="translate(-1893.82 -735.53)" fill="#e7001b"/>
    </g>
    <g id="Group_368" data-name="Group 368" transform="translate(1936.096 718.159)">
      <path id="Path_1566" data-name="Path 1566" d="M2017.426,716.288v89.806a52.158,52.158,0,0,0-37.8,15.882l-68.115-62.419C1938.081,732.912,1975.707,716.288,2017.426,716.288Z" transform="translate(-1911.516 -716.288)" fill="#ffcf00"/>
    </g>
    <g id="Group_369" data-name="Group 369" transform="translate(2042.769 718.161)">
      <path id="Path_1567" data-name="Path 1567" d="M2060.757,755.913l-61.883,68.837a51.953,51.953,0,0,0-40.253-18.655l0-89.806C1998.4,716.289,2034.46,731.406,2060.757,755.913Z" transform="translate(-1958.618 -716.289)" fill="#f29100"/>
    </g>
    <path id="Path_1568" data-name="Path 1568" d="M2039.259,716.821c-75.689,0-137.848,59.584-144.769,135.708h27.828c5.589-61.811,55.8-110.189,116.941-110.189s111.349,48.378,116.939,110.189h27.828C2177.107,776.405,2114.946,716.821,2039.259,716.821Z" transform="translate(3.316 2.537)" fill="#1d1d1b" opacity="0.3"/>
    <path id="Path_1569" data-name="Path 1569" d="M2042.2,714.79c-78.617,0-143.182,61.588-150.369,140.275h28.905c5.805-63.891,57.959-113.9,121.463-113.9s115.656,50.006,121.461,113.9h28.905C2185.385,776.378,2120.819,714.79,2042.2,714.79Z" transform="translate(0 0)" fill="#e5e5e5"/>
    <path id="Path_1570" data-name="Path 1570" d="M2051.527,809a59.932,59.932,0,0,0-119.649,0Z" transform="translate(50.5 46.07)" fill="#fff"/>
    <path id="Path_1571" data-name="Path 1571" d="M2038.531,805.359a50.8,50.8,0,0,0-101.427,0Z" transform="translate(54.384 49.715)" fill="#e5e5e5"/>
    <path id="Path_13075" data-name="Path 13075" d="M2012.073,792.887a37.549,37.549,0,0,0-74.969,0Z" transform="translate(67.614 62.205)"/>
    <path id="Path_13076" data-name="Path 13076" d="M1983.674,779.5a23.325,23.325,0,0,0-46.569,0Z" transform="translate(81.814 75.632)" fill="#8a9b8e"/>
    <line id="Line_18" data-name="Line 18" y1="63.525" x2="57.516" transform="translate(2087.385 756.088)" fill="none" stroke="#fff" stroke-width="0.5"/>
    <line id="Line_19" data-name="Line 19" y1="86.703" transform="translate(2042.88 715.531)" fill="none" stroke="#fff" stroke-width="0.5"/>
    <line id="Line_20" data-name="Line 20" x1="62.237" y1="58.374" transform="translate(1936.37 759.935)" fill="none" stroke="#fff" stroke-width="0.5"/>
    <g id="Group_372" data-name="Group 372" transform="translate(1971.896 726.187)">
      <g id="Group_371" data-name="Group 371">
        <path id="Path_1579" data-name="Path 1579" d="M1930.9,732.437l.889-.767a1.66,1.66,0,0,0,.667-1.133,1.551,1.551,0,0,0-.423-1.109,1.372,1.372,0,0,0-.99-.529,1.561,1.561,0,0,0-1.079.438,1.637,1.637,0,0,0-.574.958,1.109,1.109,0,0,0,.268.965l-1.668,1.444a2.69,2.69,0,0,1-.666-1.489,3.105,3.105,0,0,1,.285-1.676,4.393,4.393,0,0,1,1.151-1.513,4.173,4.173,0,0,1,2.643-1.172,2.889,2.889,0,0,1,2.278,1.107,2.343,2.343,0,0,1,.566,1.367,3.019,3.019,0,0,1-.279,1.545,2.589,2.589,0,0,1,3.108.744,2.918,2.918,0,0,1,.738,2.5,4.341,4.341,0,0,1-1.579,2.548,4.12,4.12,0,0,1-2.633,1.118,2.869,2.869,0,0,1-2.319-1.062l1.669-1.446a1.268,1.268,0,0,0,1.026.466,1.708,1.708,0,0,0,1.134-.457,1.737,1.737,0,0,0,.661-1.122,1.445,1.445,0,0,0-.385-1.127,1.552,1.552,0,0,0-2.475-.058l-.884.762Z" transform="translate(-1927.302 -711.119)" fill="#6f6f6e"/>
        <path id="Path_1580" data-name="Path 1580" d="M1936.3,727.934l-3.558,2.409-1-1.473,3.56-2.411Z" transform="translate(-1921.756 -711.614)" fill="#6f6f6e"/>
        <path id="Path_1581" data-name="Path 1581" d="M1940.37,728.557l1.123-.58.813,1.583-1.12.578,1.107,2.136-1.964,1.014-1.1-2.139-4.052,2.094-.727-1.19.756-8.633,1.983-1.026Zm-4.147,2.141,2.186-1.129-1.8-3.486-.014.29Z" transform="translate(-1918.376 -716.689)" fill="#6f6f6e"/>
        <path id="Path_1582" data-name="Path 1582" d="M1942.745,724.99l-4.026,1.5-.625-1.664,4.027-1.509Z" transform="translate(-1913.824 -715.533)" fill="#6f6f6e"/>
        <path id="Path_1583" data-name="Path 1583" d="M1941.41,726.98l-.72-5.642,6.056-1.48.436,1.79-4.295,1.048.3,2.388a3.474,3.474,0,0,1,1.527-.8,3.2,3.2,0,0,1,2.651.367,3.934,3.934,0,0,1,1.528,2.465,4,4,0,0,1,.018,1.981,3.207,3.207,0,0,1-.953,1.592,4.076,4.076,0,0,1-1.831.931,4.314,4.314,0,0,1-1.916.047,3.348,3.348,0,0,1-1.6-.794,3.128,3.128,0,0,1-.916-1.514l2.123-.517a1.635,1.635,0,0,0,.727.935,1.528,1.528,0,0,0,1.149.115,1.355,1.355,0,0,0,.992-.8,2.5,2.5,0,0,0,.033-1.577,2.073,2.073,0,0,0-.8-1.3,1.712,1.712,0,0,0-1.4-.175,1.91,1.91,0,0,0-1.14.7l-.162.245Z" transform="translate(-1910.582 -719.858)" fill="#6f6f6e"/>
      </g>
    </g>
    <g id="Group_374" data-name="Group 374" transform="translate(2075.271 729.882)">
      <g id="Group_373" data-name="Group 373">
        <path id="Path_1584" data-name="Path 1584" d="M1980.532,721.724l-.379,1.777-.21-.045a3.747,3.747,0,0,0-2.519.259,3.169,3.169,0,0,0-1.509,1.826,3.018,3.018,0,0,1,2.377-.416,2.841,2.841,0,0,1,2.04,1.5,4.162,4.162,0,0,1,.266,2.854,4.067,4.067,0,0,1-.868,1.819,3.362,3.362,0,0,1-1.585,1.061,3.824,3.824,0,0,1-2,.072,3.6,3.6,0,0,1-2.521-1.786,4.748,4.748,0,0,1-.378-3.414l.166-.778a7.12,7.12,0,0,1,1.336-2.984,5.029,5.029,0,0,1,2.366-1.689,5.764,5.764,0,0,1,3.063-.133Zm-3.27,5a1.774,1.774,0,0,0-1.005.07,1.679,1.679,0,0,0-.78.587l-.142.657a2.975,2.975,0,0,0,.067,1.779,1.4,1.4,0,0,0,1.066.861,1.384,1.384,0,0,0,1.239-.308,2.632,2.632,0,0,0,.607-2.852A1.451,1.451,0,0,0,1977.262,726.725Z" transform="translate(-1973.097 -721.501)" fill="#6f6f6e"/>
        <path id="Path_1585" data-name="Path 1585" d="M1981.311,727.544l-4.071-1.385.573-1.687,4.071,1.385Z" transform="translate(-1967.923 -717.791)" fill="#6f6f6e"/>
        <path id="Path_1586" data-name="Path 1586" d="M1989.827,727.7l-8.148,7.061-2.1-1.005,7.919-6.565-4.99-2.388.77-1.606,7.084,3.391Z" transform="translate(-1965.003 -719.385)" fill="#6f6f6e"/>
        <path id="Path_1587" data-name="Path 1587" d="M1987.355,731.21l-3.63-2.305.953-1.5,3.632,2.3Z" transform="translate(-1959.824 -714.13)" fill="#6f6f6e"/>
        <path id="Path_1588" data-name="Path 1588" d="M1995.161,733.276a2.6,2.6,0,0,1-1.221.857,2.919,2.919,0,0,1-1.5.072,3.206,3.206,0,0,1,.317,1.642,2.754,2.754,0,0,1-.65,1.545,2.912,2.912,0,0,1-2.258,1.178,4.814,4.814,0,0,1-4.255-3.472,2.9,2.9,0,0,1,.69-2.453,2.751,2.751,0,0,1,1.383-.951,3.194,3.194,0,0,1,1.667-.022,2.867,2.867,0,0,1-.231-1.478,2.606,2.606,0,0,1,.6-1.367,2.888,2.888,0,0,1,2.164-1.156,4.356,4.356,0,0,1,3.992,3.245A2.868,2.868,0,0,1,1995.161,733.276Zm-4.664,2.591a1.61,1.61,0,0,0,.407-1.163,1.685,1.685,0,0,0-1.745-1.428,1.8,1.8,0,0,0-1.464,1.786,1.716,1.716,0,0,0,1.75,1.448A1.6,1.6,0,0,0,1990.5,735.867Zm2.885-3.9a1.545,1.545,0,0,0,.394-1.025,1.4,1.4,0,0,0-1.491-1.23,1.511,1.511,0,0,0-.933.6,1.586,1.586,0,0,0-.41,1.046,1.362,1.362,0,0,0,1.5,1.223A1.623,1.623,0,0,0,1993.382,731.965Z" transform="translate(-1957.55 -713.8)" fill="#6f6f6e"/>
      </g>
    </g>
    <g id="Group_376" data-name="Group 376" transform="translate(2158.562 799.08)">
      <g id="Group_375" data-name="Group 375">
        <path id="Path_1589" data-name="Path 1589" d="M2015.712,759.21a2.785,2.785,0,0,1-1.689-1.39,2.971,2.971,0,0,1-.2-2.559,4,4,0,0,1,2-2.056,4.254,4.254,0,0,1,2-.513,3.5,3.5,0,0,1,1.876.52,3.7,3.7,0,0,1,1.347,1.466,3.51,3.51,0,0,1,.422,1.986,3.6,3.6,0,0,1-.778,1.914,5.73,5.73,0,0,1-1.867,1.525l-.722.38a6.431,6.431,0,0,1-4.509.812,5.239,5.239,0,0,1-3.326-2.678l-.261-.477,1.63-.857.236.429Q2013.322,760.2,2015.712,759.21Zm.056-1.7a1.546,1.546,0,0,0,.672.688,1.857,1.857,0,0,0,.859.207l.805-.425a3.05,3.05,0,0,0,1.343-1.19,1.331,1.331,0,0,0,.013-1.3,1.294,1.294,0,0,0-1.045-.684,2.593,2.593,0,0,0-1.55.333,2.5,2.5,0,0,0-1.126,1.064A1.355,1.355,0,0,0,2015.768,757.515Z" transform="translate(-2010.002 -752.693)" fill="#6f6f6e"/>
        <path id="Path_1590" data-name="Path 1590" d="M2014.677,761.841l-1.541-4.014,1.662-.641,1.541,4.016Z" transform="translate(-2006.088 -747.082)" fill="#6f6f6e"/>
        <path id="Path_1591" data-name="Path 1591" d="M2013.365,766.784l-.54-2.139,8.247-2.092-1.439-2.352,1.741-.441,2.728,4.059.061.23Z" transform="translate(-2006.476 -743.866)" fill="#6f6f6e"/>
        <path id="Path_1592" data-name="Path 1592" d="M2018.66,771.826a5.61,5.61,0,0,1-3.609-.576,3.328,3.328,0,0,1-1.514-2.647,3.365,3.365,0,0,1,.9-2.892,5.48,5.48,0,0,1,3.315-1.347l2.033-.218a5.552,5.552,0,0,1,3.621.585,3.823,3.823,0,0,1,.6,5.53,5.45,5.45,0,0,1-3.308,1.347Zm2-2.435a4.1,4.1,0,0,0,1.964-.589,1.286,1.286,0,0,0,.5-1.241,1.259,1.259,0,0,0-.722-1.08,3.775,3.775,0,0,0-1.907-.191l-2.691.29a4.248,4.248,0,0,0-1.971.582,1.259,1.259,0,0,0-.531,1.25,1.237,1.237,0,0,0,.756,1.1,4.187,4.187,0,0,0,1.97.164Z" transform="translate(-2005.623 -738.461)" fill="#6f6f6e"/>
      </g>
    </g>
    <g id="Group_378" data-name="Group 378" transform="translate(1912.026 797.581)">
      <g id="Group_377" data-name="Group 377">
        <path id="Path_1593" data-name="Path 1593" d="M1911.824,761.739l-.378,2.172-8.382-1.455.353,2.737-1.767-.306-.837-4.822.041-.234Z" transform="translate(-1900.813 -742.178)" fill="#6f6f6e"/>
        <path id="Path_1594" data-name="Path 1594" d="M1906.6,757.029l-1.23,4.12-1.7-.508,1.228-4.122Z" transform="translate(-1897.252 -746.317)" fill="#6f6f6e"/>
        <path id="Path_1595" data-name="Path 1595" d="M1915.012,755.189l-3.027,6.994-1.388-.6-2.089-4.826a8.984,8.984,0,0,0-.864-1.565,2.271,2.271,0,0,0-.908-.783,1.715,1.715,0,0,0-1.219-.117,1.352,1.352,0,0,0-.814.814,1.45,1.45,0,0,0,.007,1.286,2.029,2.029,0,0,0,1.071.933l-.877,2.035a3.653,3.653,0,0,1-1.511-1.183,3.4,3.4,0,0,1-.666-1.781,4.187,4.187,0,0,1,.358-2.035,3.953,3.953,0,0,1,1.82-2.121,2.917,2.917,0,0,1,2.516.052,3.751,3.751,0,0,1,1.372,1.059,9.442,9.442,0,0,1,1.246,2.136l1.441,3.38,1.9-4.387Z" transform="translate(-1898.442 -751.982)" fill="#6f6f6e"/>
      </g>
    </g>
  </g>
</svg>
