<svg id="Group_25428" data-name="Group 25428" xmlns="http://www.w3.org/2000/svg" width="16" height="16" viewBox="0 0 16 16">
  <path id="Path_31428" data-name="Path 31428" d="M77.432,0l-.141.031a8.15,8.15,0,0,1,5.9,3.2,7.56,7.56,0,0,1,1.458,6.44,7.686,7.686,0,0,1-3.421,4.953,8.245,8.245,0,0,1-6.012,1.256l.227-1.217a7,7,0,0,0,7.2-3.307,6.525,6.525,0,0,0,.442-5.769,6.516,6.516,0,0,0-3.04-3.433,7.093,7.093,0,0,0-4.6-.769L75.208.134,76.049.06l0-.02L75.941,0Z" transform="translate(-68.837)" fill="#5bb8e9"/>
  <path id="Path_31429" data-name="Path 31429" d="M49.187,51.352c.026-.035.045-.056.061-.08.234-.367.466-.736.7-1.1.087-.136.187-.263.271-.4.071-.114.125-.239.192-.356.023-.041.065-.07.09-.111.092-.149.178-.3.271-.45.117-.185.241-.365.359-.549.276-.429.548-.86.825-1.289.147-.227.315-.442.441-.68.054-.1.125-.179.185-.27.073-.112.111-.248.19-.354A.506.506,0,0,1,53,45.571a.359.359,0,0,1,.342.057c.189.133.374.273.558.415a1.461,1.461,0,0,1,.21.2.353.353,0,0,1,.043.455c-.207.336-.425.664-.636,1q-.715,1.127-1.428,2.256-.7,1.108-1.408,2.215c-.253.4-.5.8-.759,1.2a.542.542,0,0,1-.526.311.757.757,0,0,1-.354-.157c-.215-.173-.415-.366-.613-.559-.628-.611-1.249-1.231-1.881-1.838a.467.467,0,0,1-.014-.781c.2-.2.388-.407.585-.609a.311.311,0,0,1,.406-.009q.78.764,1.556,1.533c.031.031.064.059.108.1" transform="translate(-42.312 -41.595)" fill="#5bb8e9"/>
  <path id="Path_31430" data-name="Path 31430" d="M3.016,47.763l1.029.6c.088.051.1.108.044.2-.1.177-.172.365-.253.55-.044.1-.084.2-.119.3a4.49,4.49,0,0,0-.236.949c-.027.25-.044.272-.293.258-.093,0-.185-.029-.279-.04-.2-.023-.4-.048-.6-.062-.11-.008-.149-.061-.132-.161.039-.233.076-.467.126-.7.042-.193.094-.385.155-.573.055-.169.124-.334.194-.5.119-.278.244-.554.368-.835" transform="translate(-2.165 -43.541)" fill="#5bb8e9"/>
  <path id="Path_31431" data-name="Path 31431" d="M4.121,103.111l-1.142.581c-.025-.053-.047-.107-.075-.158a6.445,6.445,0,0,1-.551-1.387c-.092-.33-.149-.67-.218-1.006-.02-.1,0-.154.129-.161.258-.014.516-.049.773-.08.107-.013.212-.036.343-.059a7.312,7.312,0,0,0,.742,2.27" transform="translate(-2.127 -91.928)" fill="#5bb8e9"/>
  <path id="Path_31432" data-name="Path 31432" d="M28.284,145.532a8.9,8.9,0,0,1-2.3-1.652l.961-.871c.029.025.057.048.082.074a6.906,6.906,0,0,0,1.706,1.245c.149.079.146.1.062.247-.168.3-.327.609-.49.913l-.024.043" transform="translate(-23.819 -130.383)" fill="#5bb8e9"/>
  <path id="Path_31433" data-name="Path 31433" d="M27.167,12.2l-.929-.882c.261-.233.521-.471.788-.7a8.9,8.9,0,0,1,1.449-.945.1.1,0,0,1,.09.033c.142.294.277.592.415.888.034.073.076.142.115.215A7.116,7.116,0,0,0,27.167,12.2" transform="translate(-24.048 -8.792)" fill="#5bb8e9"/>
</svg>
