<svg xmlns="http://www.w3.org/2000/svg" width="16" height="16" viewBox="0 0 16 16">
  <g id="Group_25300" data-name="Group 25300" transform="translate(0 -3)">
    <path id="Path_1" data-name="Path 1" d="M10.667,3.5a7.176,7.176,0,0,1,5.068,12.248A7.171,7.171,0,0,1,5.6,5.6,7.117,7.117,0,0,1,10.667,3.5Zm0,7.936c3.427,0,4.271,3.515,4.271,3.515s1.769-2.66,1.769-4.276a6.04,6.04,0,1,0-12.081,0C4.627,12.29,6.4,14.95,6.4,14.95S7.24,11.436,10.667,11.436Z" transform="translate(-3.5 -0.5)" fill="#fff"/>
    <path id="Path_2" data-name="Path 2" d="M28.129,28.693a.562.562,0,0,1-.4-.165L24.14,24.937a.563.563,0,0,1,.8-.8l3.591,3.591a.563.563,0,0,1-.4.962Z" transform="translate(-12.693 -9.693)" fill="#fff"/>
    <path id="Path_31442" data-name="Path 31442" d="M42.216,36.95a1.641,1.641,0,1,0,1.639,1.639A1.643,1.643,0,0,0,42.216,36.95Z" transform="translate(-34.944 -29.95)" fill="#fff"/>
  </g>
</svg>
