<svg xmlns="http://www.w3.org/2000/svg" xmlns:xlink="http://www.w3.org/1999/xlink" width="100" height="100.314" viewBox="0 0 100 100.314">
  <defs>
    <clipPath id="clip-path">
      <rect id="Rectangle_712" data-name="Rectangle 712" width="100" height="100.314" fill="none"/>
    </clipPath>
    <clipPath id="clip-path-3">
      <path id="Path_13281" data-name="Path 13281" d="M952.488,154.445l.028.03c-.022-.014-.034-.026-.028-.03m3.438-.92a5.423,5.423,0,1,1,2.248.536,4.942,4.942,0,0,1-2.248-.536m.944-13.42v.132a8.37,8.37,0,0,0-1.2.448q-.027-.057-.06-.114a1.4,1.4,0,0,0-2.04-.386,1.654,1.654,0,0,0-.5,2.168c.022.036.046.07.07.1a9.134,9.134,0,0,0-.87,1.01,1.128,1.128,0,0,0-.106-.062,1.586,1.586,0,0,0-1.432,2.818c.038.018.076.034.114.05a9.094,9.094,0,0,0-.3,1.3h-.124a1.654,1.654,0,0,0-1.454,1.684,1.4,1.4,0,0,0,1.516,1.418.683.683,0,0,0,.126-.018,8.342,8.342,0,0,0,.352,1.24,1.317,1.317,0,0,0-.112.07,1.654,1.654,0,0,0-.5,2.168,2.084,2.084,0,0,0,2.43.6,7.506,7.506,0,0,0,.624.55c-.022.038-.046.076-.066.116a1.464,1.464,0,1,0,2.6,1.322c.02-.04.038-.082.056-.122a7.41,7.41,0,0,0,1.222.234v.13a1.4,1.4,0,0,0,1.516,1.418,1.654,1.654,0,0,0,1.454-1.684v-.132a8.344,8.344,0,0,0,1.2-.448q.027.057.06.114a1.4,1.4,0,0,0,2.04.386,1.654,1.654,0,0,0,.5-2.168c-.022-.036-.046-.07-.07-.1a9.1,9.1,0,0,0,.87-1.01.954.954,0,0,0,.108.062,1.586,1.586,0,0,0,1.432-2.818c-.038-.018-.076-.034-.114-.05a9.15,9.15,0,0,0,.3-1.3h.124a1.654,1.654,0,0,0,1.454-1.684,1.4,1.4,0,0,0-1.516-1.418.681.681,0,0,0-.126.018,8.343,8.343,0,0,0-.352-1.24c.038-.022.076-.044.112-.07a1.654,1.654,0,0,0,.5-2.168,1.4,1.4,0,0,0-2.04-.386c-.036.026-.07.052-.1.08a7.411,7.411,0,0,0-.91-.85c.022-.038.046-.076.066-.116.4-.778.912-1.628.188-1.982-1.676-.818-2.4-.118-2.8.66-.02.04-.038.082-.054.122a7.421,7.421,0,0,0-1.222-.234c0-.044,0-.086,0-.13-.018-.856.236-1.32-.586-1.336h-.114c-1.706,0-2.286.764-2.268,1.6" transform="translate(-948.966 -138.497)" fill="none"/>
    </clipPath>
    <linearGradient id="linear-gradient" x1="-1.204" y1="3.866" x2="-1.202" y2="3.866" gradientUnits="objectBoundingBox">
      <stop offset="0" stop-color="#311944"/>
      <stop offset="0.1" stop-color="#311944"/>
      <stop offset="0.267" stop-color="#361b47"/>
      <stop offset="0.48" stop-color="#462050"/>
      <stop offset="0.718" stop-color="#602a5f"/>
      <stop offset="0.973" stop-color="#843773"/>
      <stop offset="1" stop-color="#893976"/>
    </linearGradient>
    <clipPath id="clip-path-4">
      <path id="Path_13282" data-name="Path 13282" d="M1165.419,186.624a5.618,5.618,0,0,1,1.444,7.1,5.749,5.749,0,0,1-5.436,3.24c-.1.248-.188.5-.292.742-.278.666-.6,1.318-.908,1.968.2.038.4.066.6.088v.13c.018.856.538,1.584,2.024,1.506.822-.044.964-.914.946-1.77v-.132a8.359,8.359,0,0,0,1.2-.448,1.22,1.22,0,0,0,.06.112,2.138,2.138,0,0,0,2.6.514c.7-.492.364-1.588-.06-2.294-.022-.036-.046-.07-.07-.1a9.029,9.029,0,0,0,.87-1.01,1.164,1.164,0,0,0,.108.062,1.586,1.586,0,0,0,1.432-2.818c-.038-.018-.076-.034-.114-.05a9.13,9.13,0,0,0,.3-1.3h.124a1.654,1.654,0,0,0,1.454-1.684,1.4,1.4,0,0,0-1.516-1.418.658.658,0,0,0-.126.018,8.466,8.466,0,0,0-.352-1.24c.038-.022.076-.044.112-.07.7-.492,1.57-1.68,1.074-2.338-.94-1.248-1.912-.708-2.614-.216-.036.026-.07.052-.1.08a7.425,7.425,0,0,0-.91-.85c.024-.038.046-.076.066-.116a1.634,1.634,0,0,0,.092-1.288q-1.016,1.79-2,3.6" transform="translate(-1160.227 -183.036)" fill="none"/>
    </clipPath>
    <linearGradient id="linear-gradient-2" x1="-1.728" y1="5.277" x2="-1.726" y2="5.277" xlink:href="#linear-gradient"/>
    <clipPath id="clip-path-5">
      <path id="Path_13283" data-name="Path 13283" d="M977.275,153.631a5.423,5.423,0,1,1,2.248.536,4.944,4.944,0,0,1-2.248-.536m2.4-15.1a1.654,1.654,0,0,0-1.454,1.684q0,.066,0,.132a8.359,8.359,0,0,0-1.2.448q-.027-.057-.06-.114a1.4,1.4,0,0,0-2.04-.386,1.654,1.654,0,0,0-.5,2.168c.022.036.046.07.07.1a9.123,9.123,0,0,0-.87,1.01.954.954,0,0,0-.108-.062,1.586,1.586,0,0,0-1.432,2.818c.038.018.076.034.114.05a9.113,9.113,0,0,0-.3,1.3h-.124a1.654,1.654,0,0,0-1.454,1.684,1.4,1.4,0,0,0,1.516,1.418.683.683,0,0,0,.126-.018,8.37,8.37,0,0,0,.35,1.24,1.282,1.282,0,0,0-.112.07,1.654,1.654,0,0,0-.5,2.168,1.4,1.4,0,0,0,2.04.386c.036-.026.07-.052.1-.08a7.4,7.4,0,0,0,.91.85,1.326,1.326,0,0,0-.066.116,1.464,1.464,0,1,0,2.6,1.322c.02-.04.038-.082.056-.122a7.4,7.4,0,0,0,1.222.234c0,.044,0,.086,0,.13a1.4,1.4,0,0,0,1.516,1.418,1.654,1.654,0,0,0,1.454-1.684v-.132a8.351,8.351,0,0,0,1.2-.448q.027.057.06.114a1.4,1.4,0,0,0,2.04.386,1.654,1.654,0,0,0,.5-2.168c-.022-.036-.046-.07-.07-.1a9.1,9.1,0,0,0,.87-1.01.95.95,0,0,0,.108.062,1.586,1.586,0,0,0,1.43-2.818c-.038-.018-.076-.034-.114-.05a9.112,9.112,0,0,0,.3-1.3h.124a1.654,1.654,0,0,0,1.454-1.684,1.4,1.4,0,0,0-1.516-1.418.681.681,0,0,0-.126.018,8.387,8.387,0,0,0-.352-1.24,1.316,1.316,0,0,0,.112-.07,1.654,1.654,0,0,0,.5-2.168,1.4,1.4,0,0,0-2.04-.386c-.036.026-.07.052-.1.08a7.414,7.414,0,0,0-.91-.85,1.316,1.316,0,0,0,.066-.116,1.464,1.464,0,1,0-2.6-1.322c-.02.04-.038.082-.054.122a7.4,7.4,0,0,0-1.222-.234v-.13a1.4,1.4,0,0,0-1.388-1.424h-.128" transform="translate(-970.315 -138.523)" fill="none"/>
    </clipPath>
    <linearGradient id="linear-gradient-3" x1="-1.146" y1="3.673" x2="-1.145" y2="3.673" gradientUnits="objectBoundingBox">
      <stop offset="0" stop-color="#ff9085"/>
      <stop offset="1" stop-color="#fb6fbb"/>
    </linearGradient>
    <clipPath id="clip-path-6">
      <path id="Path_13284" data-name="Path 13284" d="M889.489,809.085s3.85,15.556,11.478,14.064l1.012-2.046s-5.894-13.066-6.412-15.658-4.02-4.48-4.02-4.48Z" transform="translate(-889.489 -800.965)" fill="none"/>
    </clipPath>
    <linearGradient id="linear-gradient-4" x1="-0.937" y1="3.146" x2="-0.936" y2="3.146" gradientUnits="objectBoundingBox">
      <stop offset="0" stop-color="#ffc444"/>
      <stop offset="0.996" stop-color="#f36f56"/>
      <stop offset="1" stop-color="#f36f56"/>
    </linearGradient>
    <clipPath id="clip-path-7">
      <path id="Path_13285" data-name="Path 13285" d="M752.311,2663.942a11.181,11.181,0,0,0,5.064.751c.078-.333-.758-.941-1.362-1.184s-2.376-.892-2.376-.892l-1-.384a13.128,13.128,0,0,0-.32,1.708" transform="translate(-752.311 -2662.234)" fill="none"/>
    </clipPath>
    <linearGradient id="linear-gradient-5" x1="-4.613" y1="1.047" x2="-4.607" y2="1.047" gradientUnits="objectBoundingBox">
      <stop offset="0" stop-color="#311944"/>
      <stop offset="1" stop-color="#893976"/>
    </linearGradient>
    <clipPath id="clip-path-8">
      <path id="Path_13286" data-name="Path 13286" d="M756,2626.937a1.145,1.145,0,0,0,1.1,0l.286-1.566-1.508-.174Z" transform="translate(-755.879 -2625.197)" fill="none"/>
    </clipPath>
    <linearGradient id="linear-gradient-6" x1="-12.324" y1="2.18" x2="-12.308" y2="2.18" xlink:href="#linear-gradient-4"/>
    <clipPath id="clip-path-9">
      <path id="Path_13287" data-name="Path 13287" d="M500.72,2700.979a11.407,11.407,0,0,0,4.522.847h.014c.314,0,.514-.028.528-.094.078-.334-.758-.944-1.362-1.184s-2.374-.892-2.374-.892l-1-.384a13.141,13.141,0,0,0-.32,1.708" transform="translate(-500.72 -2699.271)" fill="none"/>
    </clipPath>
    <linearGradient id="linear-gradient-7" x1="-3.109" y1="0.794" x2="-3.103" y2="0.794" xlink:href="#linear-gradient-5"/>
    <clipPath id="clip-path-10">
      <path id="Path_13288" data-name="Path 13288" d="M504.413,2663.97a1.146,1.146,0,0,0,1.1,0l.286-1.565-1.508-.174Z" transform="translate(-504.293 -2662.23)" fill="none"/>
    </clipPath>
    <linearGradient id="linear-gradient-8" x1="-8.17" y1="1.643" x2="-8.154" y2="1.643" xlink:href="#linear-gradient-4"/>
    <clipPath id="clip-path-11">
      <path id="Path_13289" data-name="Path 13289" d="M671.968,1466.914c.694,6.666,2.866,8.306,2.538,13.774-.254,4.22-1.634,4.7-1.858,9.106a23.6,23.6,0,0,0,1.8,10.1l2.348.3c.858-5.124,1.6-10.6,2.184-16.388.774-7.786,1.126-15.1,1.2-21.842l-1.456-3.664-6.39-1.188a35.27,35.27,0,0,0-.376,9.8" transform="translate(-671.778 -1457.108)" fill="none"/>
    </clipPath>
    <linearGradient id="linear-gradient-9" x1="-0.661" y1="1.104" x2="-0.66" y2="1.104" gradientUnits="objectBoundingBox">
      <stop offset="0" stop-color="#444b8c"/>
      <stop offset="0.996" stop-color="#26264f"/>
      <stop offset="1" stop-color="#26264f"/>
    </linearGradient>
    <clipPath id="clip-path-13">
      <rect id="Rectangle_667" data-name="Rectangle 667" width="5.806" height="43.082" fill="none"/>
    </clipPath>
    <clipPath id="clip-path-14">
      <path id="Path_13290" data-name="Path 13290" d="M672.331,1457.11l3.45.642a15.258,15.258,0,0,1,1.576,9.272c-.708,2.326-2.14,2.974-2.256,5.356s1.222,3.078,1.88,5.92a17.182,17.182,0,0,1-.47,7.142c-1.254,6.894-3.1,8.884-1.88,11.274a5.144,5.144,0,0,0,2.368,2.2c-.068.424-.136.848-.2,1.266l-2.348-.3a23.6,23.6,0,0,1-1.8-10.1c.224-4.41,1.6-4.888,1.858-9.106.328-5.468-1.846-7.108-2.538-13.774a35.272,35.272,0,0,1,.376-9.8" transform="translate(-671.791 -1457.106)" fill="none"/>
    </clipPath>
    <linearGradient id="linear-gradient-10" x1="-0.72" y1="1.117" x2="-0.719" y2="1.117" xlink:href="#linear-gradient-9"/>
    <clipPath id="clip-path-15">
      <path id="Path_13291" data-name="Path 13291" d="M423.8,1481.377c-1.04.916-1.162,2.62-1.366,5.99-.216,3.6.2,4.654.23,9.372a47.536,47.536,0,0,1-.248,6.272,43.03,43.03,0,0,1-1.358,6.672c-.728,2.928-.886,7.5,1.974,14.5l2.6.134c.76-7.1,1.858-14.73,3.414-22.788,1.29-6.674,2.76-12.948,4.322-18.8a17.123,17.123,0,0,0-6.938-2.2,3.869,3.869,0,0,0-2.628.844" transform="translate(-420.604 -1480.525)" fill="none"/>
    </clipPath>
    <linearGradient id="linear-gradient-11" x1="-0.236" y1="1.045" x2="-0.235" y2="1.045" xlink:href="#linear-gradient-9"/>
    <clipPath id="clip-path-16">
      <path id="Path_13292" data-name="Path 13292" d="M391.618,771.99c-.24.1-5.226,2.318-5.894,6.528-.68,4.284,3.968,5.24,4.134,11.04a46.291,46.291,0,0,1-1.276,9.082c-.51,2.448-.776,3.062-.348,3.85,1.032,1.9,4.672,1.672,11.954,1.222,2.856-.178,4.1-.4,4.8-1.374.936-1.306,0-2.71-.024-5.328-.032-2.966,1.142-3.366,2.654-8.156a21.02,21.02,0,0,0,1.4-9.96,9.06,9.06,0,0,0-3.066-6.43c-1.2-.84-2.942-.906-6.362-1-1.412-.04-2.588-.072-3.59-.072a11.077,11.077,0,0,0-4.4.6" transform="translate(-385.656 -771.368)" fill="none"/>
    </clipPath>
    <linearGradient id="linear-gradient-12" x1="-0.142" y1="2.079" x2="-0.141" y2="2.079" xlink:href="#linear-gradient-4"/>
    <clipPath id="clip-path-17">
      <path id="Path_13293" data-name="Path 13293" d="M659.627,658.292c-.526,1.026-2.894,1.51-3.384,1.708s.8,1,2.148,1.246a16.528,16.528,0,0,0,5.976-.21c.738-.458-.522-.52-1.46-.952s-1.346-2.368-1.106-3.212-1.4-1.278-1.4-1.278a9.637,9.637,0,0,1-.778,2.7" transform="translate(-656.137 -655.594)" fill="none"/>
    </clipPath>
    <linearGradient id="linear-gradient-13" x1="-2.599" y1="7.251" x2="-2.595" y2="7.251" gradientUnits="objectBoundingBox">
      <stop offset="0" stop-color="#311944"/>
      <stop offset="1" stop-color="#a03976"/>
    </linearGradient>
    <clipPath id="clip-path-18">
      <path id="Path_13294" data-name="Path 13294" d="M732.613,540.328c-.232.224.054.582-.132,1.034s-.552.426-1.3.94c-.612.424-1,.686-1.108,1.09a2,2,0,0,0,1.6,2.18c.326.014.428-.146,2.142-1.578.758-.634.862-.708.958-.94a2.308,2.308,0,0,0-1.2-2.706,1.791,1.791,0,0,0-.6-.136.5.5,0,0,0-.356.116" transform="translate(-730.065 -540.21)" fill="none"/>
    </clipPath>
    <linearGradient id="linear-gradient-14" x1="-3.639" y1="11.633" x2="-3.634" y2="11.633" gradientUnits="objectBoundingBox">
      <stop offset="0" stop-color="#444b8c"/>
      <stop offset="0.996" stop-color="#3e4177"/>
      <stop offset="1" stop-color="#3e4177"/>
    </linearGradient>
    <clipPath id="clip-path-19">
      <path id="Path_13295" data-name="Path 13295" d="M758.157,626.72c-.2.08-.272.176-.616.3s-.412.088-.5.18-.178.376.092,1.042a.572.572,0,0,0-.628-.14.359.359,0,0,0-.126.15c-.12.282.158.6.734.746a2,2,0,0,0,1.84.718c1.04-.168.966-2.528.25-2.962a1.082,1.082,0,0,0-.54-.124,1.429,1.429,0,0,0-.506.09" transform="translate(-756.349 -626.632)" fill="none"/>
    </clipPath>
    <linearGradient id="linear-gradient-15" x1="-5.601" y1="15.961" x2="-5.594" y2="15.961" xlink:href="#linear-gradient-13"/>
    <clipPath id="clip-path-20">
      <path id="Path_13296" data-name="Path 13296" d="M1742.479,663.011a5.638,5.638,0,0,0-3.332,5.26c-.086,2.422,1.36,3.814,2.365,5.61,3.562,6.35-1.944,11.354.526,17.446,1.924,4.746,8.148,8.822,13.588,7.54,6.254-1.474,9.216-9.5,8.5-15.342-.458-3.756-2.714-8.872-6.926-10.958-2.912-1.442-5.884-1-7.54-3.6-.924-1.448-.468-2.324-1.666-3.77a6.274,6.274,0,0,0-4.416-2.356,3.756,3.756,0,0,0-1.106.164" transform="translate(-1739.143 -662.841)" fill="none"/>
    </clipPath>
    <linearGradient id="linear-gradient-16" x1="-1.187" y1="1.804" x2="-1.186" y2="1.804" gradientUnits="objectBoundingBox">
      <stop offset="0" stop-color="#26264f"/>
      <stop offset="0.004" stop-color="#26264f"/>
      <stop offset="1" stop-color="#444b8c"/>
    </linearGradient>
    <clipPath id="clip-path-21">
      <path id="Path_13297" data-name="Path 13297" d="M1647.554,2654.5a31.93,31.93,0,0,0-4.232,2.2c-.042.184.972.106,2.02.026.664-.05,1.344-.1,1.778-.084,1.12.044,2.042-.288,1.942-.762s-.494-1.668-.494-1.668Z" transform="translate(-1643.32 -2654.211)" fill="none"/>
    </clipPath>
    <linearGradient id="linear-gradient-17" x1="-9.777" y1="1.411" x2="-9.771" y2="1.411" xlink:href="#linear-gradient-16"/>
    <clipPath id="clip-path-22">
      <path id="Path_13298" data-name="Path 13298" d="M1755.976,2613.978l.254,1.874a1.47,1.47,0,0,0,1.1-.042l.188-2.056Z" transform="translate(-1755.976 -2613.754)" fill="none"/>
    </clipPath>
    <linearGradient id="linear-gradient-18" x1="-40.344" y1="2.405" x2="-40.321" y2="2.405" gradientUnits="objectBoundingBox">
      <stop offset="0" stop-color="#893976"/>
      <stop offset="1" stop-color="#311944"/>
    </linearGradient>
    <clipPath id="clip-path-23">
      <path id="Path_13299" data-name="Path 13299" d="M2035.826,2614.683a15.782,15.782,0,0,1-.624,2.245c-.274.571-.638.589-1.246.921s-.412.7-.412.7,2.706.084,2.962-.332c.188-.306.688-1.512.938-2.132a.927.927,0,0,0-.016-.734l-.38-.833Z" transform="translate(-2033.514 -2614.517)" fill="none"/>
    </clipPath>
    <linearGradient id="linear-gradient-19" x1="-16.964" y1="1.31" x2="-16.956" y2="1.31" xlink:href="#linear-gradient-16"/>
    <clipPath id="clip-path-24">
      <path id="Path_13300" data-name="Path 13300" d="M2084.8,2555.832h0l.09-.068-.088.068m-1.1.27s.232.4.828-.064l.27-.2.236-2.572-2-.038a25.163,25.163,0,0,1,.674,2.878" transform="translate(-2083.042 -2553.228)" fill="none"/>
    </clipPath>
    <linearGradient id="linear-gradient-20" x1="-21.462" y1="3.116" x2="-21.451" y2="3.116" xlink:href="#linear-gradient-18"/>
    <clipPath id="clip-path-25">
      <path id="Path_13301" data-name="Path 13301" d="M1688.535,1510.857c-.22,5.6-.228,11.666.094,18.156.362,7.308,1.09,14.062,2,20.186.342.01.7.012,1.074,0q.38-.01.734-.036a46.492,46.492,0,0,0,1.542-4.934,47.478,47.478,0,0,0,1.076-5.776c.8-6.334-.138-6.886.512-11.578.576-4.156,1.4-4.318,2.358-10.22,1.044-6.4.266-7.364-.112-7.71a3.083,3.083,0,0,0-2.146-.692,15.245,15.245,0,0,0-7.142,2.6" transform="translate(-1688.377 -1508.247)" fill="none"/>
    </clipPath>
    <linearGradient id="linear-gradient-21" x1="-5.724" y1="1.116" x2="-5.72" y2="1.116" xlink:href="#linear-gradient-16"/>
    <clipPath id="clip-path-27">
      <rect id="Rectangle_681" data-name="Rectangle 681" width="9.382" height="40.954" fill="none"/>
    </clipPath>
    <clipPath id="clip-path-28">
      <path id="Path_13302" data-name="Path 13302" d="M1716.374,1508.962c-1.534-1.4-5.042-.556-8.748,1.6,4.264,4.6,4.728,7.6,4.216,9.532-.578,2.2-2.334,2.822-2.328,5.218,0,2.944,2.666,3.724,2.6,6.84-.038,2.06-1.2,2.04-1.48,4.584-.326,3.01,1.2,4.048.706,6.276a6.029,6.029,0,0,1-2.548,3.5c.126.914.252,1.82.386,2.708.342.01.7.012,1.074,0q.38-.01.734-.036a46.424,46.424,0,0,0,1.542-4.934,47.517,47.517,0,0,0,1.078-5.776c.8-6.334-.138-6.886.512-11.578.576-4.156,1.4-4.32,2.358-10.22,1.044-6.4.268-7.364-.112-7.71" transform="translate(-1707.626 -1508.276)" fill="none"/>
    </clipPath>
    <linearGradient id="linear-gradient-22" x1="-6.245" y1="1.114" x2="-6.241" y2="1.114" xlink:href="#linear-gradient-16"/>
    <clipPath id="clip-path-29">
      <path id="Path_13303" data-name="Path 13303" d="M1739.143,1465.42a125.55,125.55,0,0,1,12.294,38.758,2.241,2.241,0,0,0,1.2.348,2.286,2.286,0,0,0,1.478-.566,36.16,36.16,0,0,0,1.472-8.8,30.747,30.747,0,0,0-.376-6.8c-.582-3.372-1.248-3.646-2.112-7.246-.9-3.736-.45-4.582-1.172-9.2a59.256,59.256,0,0,0-1.89-8.19l-10.89,1.706" transform="translate(-1739.143 -1463.724)" fill="none"/>
    </clipPath>
    <linearGradient id="linear-gradient-23" x1="-1.173" y1="1.738" x2="-1.172" y2="1.738" xlink:href="#linear-gradient-16"/>
    <clipPath id="clip-path-30">
      <path id="Path_13304" data-name="Path 13304" d="M1005.622,1096.279c-.124,0-.2.038-.222.092-.066.132.44.382,1.4.886,1.564.82,1.686.916,2.08.956a10.133,10.133,0,0,0,1.3,0,11.419,11.419,0,0,0-1.28-2.086,1.1,1.1,0,0,0-.89-.34,21.476,21.476,0,0,0-2.39.492" transform="translate(-1005.394 -1095.783)" fill="none"/>
    </clipPath>
    <linearGradient id="linear-gradient-24" x1="-6.72" y1="15.99" x2="-6.713" y2="15.99" xlink:href="#linear-gradient-4"/>
    <clipPath id="clip-path-31">
      <path id="Path_13305" data-name="Path 13305" d="M1116.113,884.243c-3.26,2.626-2.93,4.578-6.238,6.574a6.959,6.959,0,0,1-5.956,1.236,5.469,5.469,0,0,1-2.754-2.754l-1.012,1.348a10.7,10.7,0,0,0,3.372,5.562,11.132,11.132,0,0,0,7.3,2.528c6.23-.23,9.5-6.1,9.666-6.4.976-1.97,4.5-9.31,2.628-10.776a1.505,1.505,0,0,0-.946-.274,12.748,12.748,0,0,0-6.066,2.958" transform="translate(-1100.153 -881.285)" fill="none"/>
    </clipPath>
    <linearGradient id="linear-gradient-25" x1="-1.604" y1="3.885" x2="-1.602" y2="3.885" gradientUnits="objectBoundingBox">
      <stop offset="0" stop-color="#aa80f9"/>
      <stop offset="0.996" stop-color="#6165d7"/>
      <stop offset="1" stop-color="#6165d7"/>
    </linearGradient>
    <clipPath id="clip-path-33">
      <rect id="Rectangle_687" data-name="Rectangle 687" width="23.51" height="17.462" fill="none"/>
    </clipPath>
    <clipPath id="clip-path-34">
      <path id="Path_13306" data-name="Path 13306" d="M1101.166,889.3l-1.012,1.348a10.7,10.7,0,0,0,3.372,5.562,11.133,11.133,0,0,0,7.3,2.528c6.23-.23,9.5-6.1,9.666-6.4.976-1.97,4.5-9.31,2.628-10.776-1.3-1.02-4.946,1.02-7.012,2.686-3.26,2.624-2.93,4.576-6.238,6.574a6.958,6.958,0,0,1-5.956,1.236,5.473,5.473,0,0,1-2.753-2.754" transform="translate(-1100.154 -881.287)" fill="none"/>
    </clipPath>
    <linearGradient id="linear-gradient-26" x1="-1.604" y1="3.767" x2="-1.602" y2="3.767" xlink:href="#linear-gradient-25"/>
    <clipPath id="clip-path-35">
      <path id="Path_13307" data-name="Path 13307" d="M1547.85,869.857a7.483,7.483,0,0,0-5.4,1.686c-.672.674-1.46,1.858-1.8,8.372-.164,3.17-.014,3.6-.112,5.62-.322,6.67-2.4,11.274-1.916,16.8a4.139,4.139,0,0,0,1.41,3.2,3.6,3.6,0,0,0,2.584.282c3.748-.522,4.4-1.622,6.18-1.686,3.25-.116,3.51,3.458,7.136,3.822a5.91,5.91,0,0,0,3.512-.852,5.047,5.047,0,0,1,3.948-.724c1.64.422,2.15,1.35,4.058,1.4,1.286.038,3.25-.318,3.484-1.236.3-1.2-2.7-1.814-4.5-5.114-.976-1.8-.484-2.344-1.518-4.5a16.632,16.632,0,0,0-3.6-4.552,22.483,22.483,0,0,1-5.676-11.014c-.632-4.508,1.432-5.9-.1-8.332-1.918-3.04-6.628-3.188-7.588-3.188h-.124" transform="translate(-1538.55 -869.831)" fill="none"/>
    </clipPath>
    <linearGradient id="linear-gradient-27" x1="-1.67" y1="1.799" x2="-1.669" y2="1.799" xlink:href="#linear-gradient-25"/>
    <clipPath id="clip-path-37">
      <rect id="Rectangle_691" data-name="Rectangle 691" width="32.412" height="37.462" fill="none"/>
    </clipPath>
    <clipPath id="clip-path-38">
      <path id="Path_13308" data-name="Path 13308" d="M1540.042,923.182a4.141,4.141,0,0,1-1.41-3.2c-.49-5.532,1.6-10.136,1.916-16.8.1-2.018-.052-2.448.112-5.62.27-5.182.374-7.112,1.8-8.372.656-.582,1.91-1.322,2.642-.9,1.352.782-.916,4.48.618,7.362,1.306,2.456,3.776,1.32,7.53,3.822,4.1,2.728,2.512,4.984,8.092,10.564a15.4,15.4,0,0,1,3.6,4.552c1.034,2.15.54,2.7,1.518,4.5,1.8,3.3,4.8,3.92,4.494,5.114-.234.918-2.2,1.274-3.484,1.236-1.908-.058-2.418-.986-4.058-1.4-3.174-.816-4.228,1.9-7.462,1.576-3.626-.364-3.888-3.936-7.136-3.82-1.782.064-2.432,1.164-6.18,1.686a3.6,3.6,0,0,1-2.584-.28" transform="translate(-1538.558 -888.166)" fill="none"/>
    </clipPath>
    <linearGradient id="linear-gradient-28" x1="-1.67" y1="1.798" x2="-1.669" y2="1.798" xlink:href="#linear-gradient-25"/>
    <clipPath id="clip-path-39">
      <rect id="Rectangle_693" data-name="Rectangle 693" width="32.27" height="31.094" fill="none"/>
    </clipPath>
    <clipPath id="clip-path-40">
      <path id="Path_13309" data-name="Path 13309" d="M1568.587,1093.766c-2.182-.664-2.56-2.538-5.114-3.034-2.412-.468-3.154,1-5.114.338-2.342-.788-1.9-3.09-4.158-4.1-2.924-1.312-5.744,1.616-7.474.168-1.1-.92-.084-2.2-1.292-4.326-1.324-2.322-3.238-2-4.214-3.934-.932-1.846.144-3.468.618-6.124a16.742,16.742,0,0,0-.956-8.76c-.086.856-.162,1.854-.224,3.028-.164,3.17-.014,3.6-.112,5.62-.322,6.67-2.4,11.274-1.916,16.8a4.141,4.141,0,0,0,1.41,3.2,3.6,3.6,0,0,0,2.584.28c3.748-.522,4.4-1.622,6.18-1.686,3.25-.116,3.51,3.458,7.136,3.822,3.234.324,4.286-2.4,7.462-1.576,1.64.422,2.15,1.35,4.058,1.4,1.16.034,2.868-.252,3.364-.984a5.062,5.062,0,0,1-2.24-.14" transform="translate(-1538.557 -1063.992)" fill="none"/>
    </clipPath>
    <linearGradient id="linear-gradient-29" x1="-1.692" y1="1.968" x2="-1.691" y2="1.968" xlink:href="#linear-gradient-25"/>
    <clipPath id="clip-path-41">
      <path id="Path_13310" data-name="Path 13310" d="M1752.064,785.089l-.334,1.656a1.346,1.346,0,0,1-1.042,1.05l-1.172.068a.136.136,0,0,0-.08.24l1.378,1.156a.551.551,0,0,0,.486.112l3.584-.8a.142.142,0,0,0,.026-.268,7.972,7.972,0,0,1-1.446-.78c-.618-.468-.468-2.964-.468-2.964Z" transform="translate(-1749.387 -784.559)" fill="none"/>
    </clipPath>
    <linearGradient id="linear-gradient-30" x1="-8.832" y1="9.915" x2="-8.827" y2="9.915" xlink:href="#linear-gradient-4"/>
    <clipPath id="clip-path-42">
      <path id="Path_13311" data-name="Path 13311" d="M1790.225,741.018c-.71.264-1.244,2.578-.35,2.9a1.466,1.466,0,0,0,1.638-.51.758.758,0,0,0,.416-.2c.044-.044.236-.238.172-.38-.05-.112-.25-.172-.476-.106a1.4,1.4,0,0,0-.438-1.566,1.319,1.319,0,0,0-.666-.178.875.875,0,0,0-.3.046" transform="translate(-1789.405 -740.982)" fill="none"/>
    </clipPath>
    <linearGradient id="linear-gradient-31" x1="-14.368" y1="16.526" x2="-14.36" y2="16.526" xlink:href="#linear-gradient-4"/>
    <clipPath id="clip-path-43">
      <path id="Path_13312" data-name="Path 13312" d="M986.826,725.635l.038.042c-.032-.02-.048-.034-.038-.042m4.8-1.286a7.583,7.583,0,1,1,3.142.746,6.909,6.909,0,0,1-3.142-.748m1.318-18.748a.941.941,0,0,0,.012.184,11.674,11.674,0,0,0-1.688.626,1.692,1.692,0,0,0-.084-.158,1.956,1.956,0,0,0-2.85-.54,2.31,2.31,0,0,0-.7,3.028c.03.05.064.1.1.144a12.716,12.716,0,0,0-1.216,1.412c-.048-.03-.1-.06-.15-.086a2.216,2.216,0,0,0-2,3.938c.052.026.1.048.158.07a12.7,12.7,0,0,0-.422,1.814h-.174a2.31,2.31,0,0,0-2.032,2.352,1.956,1.956,0,0,0,2.118,1.982.921.921,0,0,0,.178-.026,11.7,11.7,0,0,0,.49,1.734c-.052.03-.106.062-.156.1a2.31,2.31,0,0,0-.7,3.028,2.912,2.912,0,0,0,3.4.846,10.379,10.379,0,0,0,.872.77c-.032.052-.064.106-.092.162a2.046,2.046,0,1,0,3.636,1.846c.028-.056.054-.114.076-.17a10.377,10.377,0,0,0,1.708.326v.182a1.956,1.956,0,0,0,2.118,1.982,2.31,2.31,0,0,0,2.032-2.352.921.921,0,0,0-.012-.184,11.657,11.657,0,0,0,1.688-.626c.026.054.054.106.084.158a1.958,1.958,0,0,0,2.85.54,2.31,2.31,0,0,0,.7-3.028c-.03-.05-.064-.1-.1-.144a12.761,12.761,0,0,0,1.216-1.412c.048.03.1.06.15.086a2.216,2.216,0,0,0,2-3.938c-.052-.026-.106-.048-.158-.07a12.706,12.706,0,0,0,.422-1.814h.174a2.31,2.31,0,0,0,2.032-2.352,1.956,1.956,0,0,0-2.118-1.982.9.9,0,0,0-.178.026,11.707,11.707,0,0,0-.49-1.734,1.82,1.82,0,0,0,.156-.1,2.31,2.31,0,0,0,.7-3.028,1.956,1.956,0,0,0-2.85-.54c-.05.036-.1.074-.144.112a10.367,10.367,0,0,0-1.272-1.186c.032-.054.064-.106.092-.162.552-1.088,1.274-2.276.262-2.77-2.342-1.142-3.346-.164-3.9.924-.028.056-.054.114-.076.17a10.364,10.364,0,0,0-1.708-.326v-.182c-.024-1.2.332-1.844-.82-1.866h-.16c-2.384,0-3.2,1.068-3.17,2.238" transform="translate(-981.896 -703.365)" fill="none"/>
    </clipPath>
    <linearGradient id="linear-gradient-32" x1="-0.858" y1="2.22" x2="-0.857" y2="2.22" xlink:href="#linear-gradient"/>
    <clipPath id="clip-path-44">
      <path id="Path_13313" data-name="Path 13313" d="M1284.307,770.6a7.848,7.848,0,0,1,2.016,9.914,8.03,8.03,0,0,1-7.6,4.526c-.134.346-.264.694-.4,1.036-.388.93-.828,1.84-1.27,2.75q.416.078.836.122v.182c.024,1.2.75,2.214,2.828,2.1,1.148-.06,1.346-1.276,1.322-2.474a.941.941,0,0,0-.012-.184,11.659,11.659,0,0,0,1.688-.626c.026.054.054.106.084.158a2.986,2.986,0,0,0,3.634.718c.98-.686.51-2.218-.084-3.2-.03-.05-.064-.1-.1-.144a12.719,12.719,0,0,0,1.216-1.412c.048.03.1.06.15.086a2.216,2.216,0,0,0,2-3.938c-.052-.026-.1-.048-.158-.07a12.724,12.724,0,0,0,.422-1.814h.174a2.312,2.312,0,0,0,2.032-2.352,1.956,1.956,0,0,0-2.118-1.982.913.913,0,0,0-.178.026,11.673,11.673,0,0,0-.49-1.734c.052-.03.106-.062.156-.1.98-.686,2.2-2.346,1.5-3.266-1.312-1.744-2.67-.99-3.652-.3-.05.036-.1.074-.144.112a10.384,10.384,0,0,0-1.272-1.186c.032-.052.064-.106.092-.162a2.281,2.281,0,0,0,.128-1.8q-1.42,2.5-2.8,5.022" transform="translate(-1277.053 -765.587)" fill="none"/>
    </clipPath>
    <linearGradient id="linear-gradient-33" x1="-1.312" y1="2.917" x2="-1.311" y2="2.917" xlink:href="#linear-gradient"/>
    <clipPath id="clip-path-45">
      <path id="Path_13314" data-name="Path 13314" d="M1021.452,724.506a7.584,7.584,0,1,1,3.142.746,6.909,6.909,0,0,1-3.142-.748m3.35-21.1a2.31,2.31,0,0,0-2.032,2.352.941.941,0,0,0,.012.184,11.671,11.671,0,0,0-1.688.626c-.026-.054-.054-.106-.084-.158a1.956,1.956,0,0,0-2.85-.54,2.31,2.31,0,0,0-.7,3.028c.03.05.064.1.1.144a12.727,12.727,0,0,0-1.216,1.412c-.048-.03-.1-.06-.15-.086a2.216,2.216,0,0,0-2,3.938c.052.026.106.048.158.07a12.707,12.707,0,0,0-.422,1.814h-.174a2.31,2.31,0,0,0-2.032,2.352,1.956,1.956,0,0,0,2.118,1.982.922.922,0,0,0,.178-.026,11.668,11.668,0,0,0,.49,1.734c-.052.03-.106.062-.156.1a2.31,2.31,0,0,0-.7,3.028,1.956,1.956,0,0,0,2.85.54c.05-.036.1-.074.144-.112a10.358,10.358,0,0,0,1.272,1.186,1.861,1.861,0,0,0-.092.164,2.046,2.046,0,1,0,3.636,1.846c.028-.056.054-.114.078-.17a10.338,10.338,0,0,0,1.708.326c0,.06,0,.122,0,.182a1.956,1.956,0,0,0,2.118,1.982,2.31,2.31,0,0,0,2.032-2.352.931.931,0,0,0-.012-.184,11.656,11.656,0,0,0,1.688-.626c.026.054.054.106.084.158a1.956,1.956,0,0,0,2.85.54,2.31,2.31,0,0,0,.7-3.028c-.03-.05-.064-.1-.1-.144a12.741,12.741,0,0,0,1.216-1.412c.048.03.1.06.15.086a2.216,2.216,0,0,0,2-3.938c-.052-.026-.106-.048-.158-.07a12.779,12.779,0,0,0,.422-1.814h.174a2.31,2.31,0,0,0,2.032-2.352,1.956,1.956,0,0,0-2.117-1.982.912.912,0,0,0-.178.026,11.676,11.676,0,0,0-.49-1.734c.052-.03.1-.062.156-.1a2.312,2.312,0,0,0,.7-3.028,1.958,1.958,0,0,0-2.85-.54c-.05.036-.1.074-.144.112a10.359,10.359,0,0,0-1.272-1.186c.032-.052.064-.106.092-.162a2.046,2.046,0,1,0-3.636-1.846c-.028.056-.054.114-.078.17a10.359,10.359,0,0,0-1.708-.326v-.182a1.962,1.962,0,0,0-1.94-1.99h-.178" transform="translate(-1011.722 -703.398)" fill="none"/>
    </clipPath>
    <linearGradient id="linear-gradient-34" x1="-0.818" y1="2.12" x2="-0.817" y2="2.12" xlink:href="#linear-gradient-3"/>
    <clipPath id="clip-path-46">
      <path id="Path_13315" data-name="Path 13315" d="M1597.475,1043.139a1,1,0,0,1,.652,1.288,1.2,1.2,0,0,0,.844,1.514l.416-1.7a.686.686,0,0,0-.3-.72c-.6-.446-.756-.8-1.116-.888a1.038,1.038,0,0,0-.272-.038c-.464,0-.634.374-.226.544" transform="translate(-1597.245 -1042.595)" fill="none"/>
    </clipPath>
    <linearGradient id="linear-gradient-35" x1="-24.187" y1="18.687" x2="-24.171" y2="18.687" xlink:href="#linear-gradient-4"/>
    <clipPath id="clip-path-47">
      <path id="Path_13316" data-name="Path 13316" d="M1625.935,898.26c-.566.376-.12,1.6.112,3.728.312,2.87.524,5.4-.75,6.78-1.238,1.346-4,1.022-5.732.188a6.68,6.68,0,0,1-3.11-3.26l-1.724,1.086a10.47,10.47,0,0,0,9.218,10.18,9.4,9.4,0,0,0,8.238-4.522,9.57,9.57,0,0,0-.4-10.6,12.843,12.843,0,0,0-2.85-2.364,6.645,6.645,0,0,0-2.632-1.318.643.643,0,0,0-.366.1" transform="translate(-1614.731 -898.158)" fill="none"/>
    </clipPath>
    <linearGradient id="linear-gradient-36" x1="-2.013" y1="2.654" x2="-2.011" y2="2.654" xlink:href="#linear-gradient-25"/>
    <clipPath id="clip-path-48">
      <path id="Path_13317" data-name="Path 13317" d="M993.049,1039.778c-.8,1.516,1.658,1.728,2.536,1.612a2.472,2.472,0,0,1,1.678.562,7.655,7.655,0,0,0-1.012-2.174,2.769,2.769,0,0,0-1-.106c-.948,0-2.2.106-2.2.106" transform="translate(-992.891 -1039.664)" fill="none"/>
    </clipPath>
    <linearGradient id="linear-gradient-37" x1="-8.022" y1="11.72" x2="-8.014" y2="11.72" xlink:href="#linear-gradient-13"/>
    <clipPath id="clip-path-49">
      <path id="Path_13318" data-name="Path 13318" d="M361.084,822.655c-4.678,2.642-6.41,16.25,2.092,18.178s17.486-9.678,17.486-9.678l.23-1.542c-12.66,6.4-15.83,2.646-15.216-2.63.178-1.534.128-5.076-2.3-5.076a4.832,4.832,0,0,0-2.294.748" transform="translate(-357.186 -821.907)" fill="none"/>
    </clipPath>
    <linearGradient id="linear-gradient-38" x1="-0.212" y1="2.443" x2="-0.211" y2="2.443" xlink:href="#linear-gradient-4"/>
    <clipPath id="clip-path-50">
      <path id="Path_13319" data-name="Path 13319" d="M176.417,520.541l7.6,2.278-2.086,7.94,4.11-2.4.972-.8,1.112-7.138-10.734-.678Z" transform="translate(-176.417 -519.743)" fill="none"/>
    </clipPath>
    <linearGradient id="linear-gradient-39" x1="-0.287" y1="5.469" x2="-0.284" y2="5.469" gradientUnits="objectBoundingBox">
      <stop offset="0" stop-color="#311944"/>
      <stop offset="1" stop-color="#6b3976"/>
    </linearGradient>
    <clipPath id="clip-path-51">
      <path id="Path_13320" data-name="Path 13320" d="M62.042,543.218a27.757,27.757,0,0,0-11.648,18.3c-2.718,15.324,6.99,30.26,21.638,33.3a26.012,26.012,0,0,0,27.54-11.984,1.766,1.766,0,0,0,.258-1.132l-10.168,6.556-.01-.02a22.64,22.64,0,0,1-17.02,3.2,25.214,25.214,0,0,1-19-29.248,24.382,24.382,0,0,1,10.232-16.08,1.764,1.764,0,0,0,.462-2.38,1.646,1.646,0,0,0-1.4-.788,1.563,1.563,0,0,0-.886.276" transform="translate(-49.938 -542.942)" fill="none"/>
    </clipPath>
    <linearGradient id="linear-gradient-40" x1="0.139" y1="1.266" x2="0.139" y2="1.266" xlink:href="#linear-gradient-39"/>
    <clipPath id="clip-path-52">
      <path id="Path_13321" data-name="Path 13321" d="M203.26,455.83l7.6,2.278-2.086,7.94,4.11-2.4,2.084-7.938-7.6-2.28Z" transform="translate(-203.26 -453.43)" fill="none"/>
    </clipPath>
    <linearGradient id="linear-gradient-41" x1="-0.309" y1="5.147" x2="-0.307" y2="5.147" gradientUnits="objectBoundingBox">
      <stop offset="0" stop-color="#6165d7"/>
      <stop offset="0.004" stop-color="#6165d7"/>
      <stop offset="1" stop-color="#aa80f9"/>
    </linearGradient>
    <clipPath id="clip-path-53">
      <path id="Path_13322" data-name="Path 13322" d="M88.884,521.173a27.756,27.756,0,0,0-11.648,18.306c-2.718,15.324,6.99,30.26,21.638,33.3a26.012,26.012,0,0,0,27.54-11.984,1.766,1.766,0,0,0,.258-1.132l-10.17,6.548-.01-.02a22.64,22.64,0,0,1-17.02,3.2,25.214,25.214,0,0,1-19-29.248A24.382,24.382,0,0,1,90.7,524.059a1.764,1.764,0,0,0,.462-2.382,1.646,1.646,0,0,0-1.4-.788,1.567,1.567,0,0,0-.886.276" transform="translate(-76.78 -520.889)" fill="none"/>
    </clipPath>
    <linearGradient id="linear-gradient-42" x1="0.125" y1="1.277" x2="0.126" y2="1.277" xlink:href="#linear-gradient-41"/>
    <clipPath id="clip-path-54">
      <path id="Path_13323" data-name="Path 13323" d="M2123.271,1589.53l-1.548,1.276-2.944,6.158,7.8,3,4.226-1.5-7.138-2.74,3.332-6.98Z" transform="translate(-2118.779 -1588.746)" fill="none"/>
    </clipPath>
    <linearGradient id="linear-gradient-43" x1="-5.056" y1="3.084" x2="-5.053" y2="3.084" xlink:href="#linear-gradient-39"/>
    <clipPath id="clip-path-55">
      <path id="Path_13324" data-name="Path 13324" d="M1468.019,421.273a1.665,1.665,0,0,0-.438,1l10.568-4.268v.02a21.33,21.33,0,0,1,16.318.032,23.758,23.758,0,0,1,12.436,30.422,22.971,22.971,0,0,1-12.306,13.078,1.662,1.662,0,0,0-.847,2.122,1.514,1.514,0,0,0,2.016.876,26.152,26.152,0,0,0,14-14.888c5.218-13.7-1.132-29.24-14.156-34.632a24.565,24.565,0,0,0-4.932-1.462,24.176,24.176,0,0,0-4.4-.4,24.976,24.976,0,0,0-18.274,8.1" transform="translate(-1467.581 -413.173)" fill="none"/>
    </clipPath>
    <linearGradient id="linear-gradient-44" x1="-0.759" y1="1.432" x2="-0.758" y2="1.432" xlink:href="#linear-gradient-39"/>
    <clipPath id="clip-path-56">
      <path id="Path_13325" data-name="Path 13325" d="M2154.244,1570.673l-3.328,6.978,6.628,3.45,4.228-1.5-6.632-3.45,3.332-6.98Z" transform="translate(-2150.916 -1569.173)" fill="none"/>
    </clipPath>
    <linearGradient id="linear-gradient-45" x1="-5.45" y1="3.053" x2="-5.447" y2="3.053" xlink:href="#linear-gradient-3"/>
    <clipPath id="clip-path-57">
      <path id="Path_13326" data-name="Path 13326" d="M1482.019,401.7a1.669,1.669,0,0,0-.438,1l10.568-4.268v.02a21.331,21.331,0,0,1,16.318.032A23.758,23.758,0,0,1,1520.9,428.91a22.974,22.974,0,0,1-12.306,13.078,1.662,1.662,0,0,0-.847,2.122,1.514,1.514,0,0,0,2.016.876,26.151,26.151,0,0,0,14-14.888c5.218-13.7-1.132-29.24-14.156-34.632a24.565,24.565,0,0,0-4.932-1.462,24.176,24.176,0,0,0-4.4-.4A24.978,24.978,0,0,0,1482,401.7" transform="translate(-1481.581 -393.604)" fill="none"/>
    </clipPath>
    <linearGradient id="linear-gradient-46" x1="-0.767" y1="1.443" x2="-0.766" y2="1.443" xlink:href="#linear-gradient-3"/>
  </defs>
  <g id="Group_1566" data-name="Group 1566" clip-path="url(#clip-path)">
    <g id="Group_1450" data-name="Group 1450">
      <g id="Group_1449" data-name="Group 1449" clip-path="url(#clip-path)">
        <path id="Path_13280" data-name="Path 13280" d="M75.955,5.985c3.358,4.8-.58,12.6,4.4,16.218,4.852,3.52,10.81-2.25,15.382.78,6.782,4.494,5.544,25.062-4.372,37.84-2.982,3.842-5.474,5.338-6.578,9.684C82.423,79.841,90.751,85.4,89.165,90,85.6,100.4,30.717,109.113,8.7,77.879A49.334,49.334,0,0,1,6.063,26.237C22.667-2.673,68.419-4.8,75.955,5.985" transform="translate(0.007 0.001)" fill="#f4f7fa"/>
      </g>
    </g>
    <g id="Group_1452" data-name="Group 1452" transform="translate(34.369 5.01)">
      <g id="Group_1451" data-name="Group 1451" clip-path="url(#clip-path-3)">
        <rect id="Rectangle_657" data-name="Rectangle 657" width="25.784" height="25.348" transform="translate(-7.089 17.034) rotate(-67.449)" fill="url(#linear-gradient)"/>
      </g>
    </g>
    <g id="Group_1454" data-name="Group 1454" transform="translate(42.02 6.636)">
      <g id="Group_1453" data-name="Group 1453" clip-path="url(#clip-path-4)">
        <rect id="Rectangle_658" data-name="Rectangle 658" width="21.438" height="17.682" transform="translate(-6.532 15.722) rotate(-67.449)" fill="url(#linear-gradient-2)"/>
      </g>
    </g>
    <g id="Group_1456" data-name="Group 1456" transform="translate(35.145 5.016)">
      <g id="Group_1455" data-name="Group 1455" clip-path="url(#clip-path-5)">
        <rect id="Rectangle_659" data-name="Rectangle 659" width="27.16" height="26.876" transform="matrix(0.531, -0.848, 0.848, 0.531, -9.039, 14.404)" fill="url(#linear-gradient-3)"/>
      </g>
    </g>
    <g id="Group_1458" data-name="Group 1458" transform="translate(32.214 29.008)">
      <g id="Group_1457" data-name="Group 1457" clip-path="url(#clip-path-6)">
        <rect id="Rectangle_660" data-name="Rectangle 660" width="26.76" height="22.476" transform="matrix(0.489, -0.872, 0.872, 0.489, -10.102, 18.01)" fill="url(#linear-gradient-4)"/>
      </g>
    </g>
    <g id="Group_1460" data-name="Group 1460" transform="translate(27.246 96.418)">
      <g id="Group_1459" data-name="Group 1459" clip-path="url(#clip-path-7)">
        <rect id="Rectangle_661" data-name="Rectangle 661" width="5.83" height="4.566" transform="translate(-1.006 0.416) rotate(-22.714)" fill="url(#linear-gradient-5)"/>
      </g>
    </g>
    <g id="Group_1462" data-name="Group 1462" transform="translate(27.376 95.078)">
      <g id="Group_1461" data-name="Group 1461" clip-path="url(#clip-path-8)">
        <rect id="Rectangle_662" data-name="Rectangle 662" width="2.194" height="2.498" transform="translate(-0.74 0.31) rotate(-22.714)" fill="url(#linear-gradient-6)"/>
      </g>
    </g>
    <g id="Group_1464" data-name="Group 1464" transform="translate(18.134 97.758)">
      <g id="Group_1463" data-name="Group 1463" clip-path="url(#clip-path-9)">
        <rect id="Rectangle_663" data-name="Rectangle 663" width="5.736" height="4.344" transform="translate(-0.918 0.382) rotate(-22.714)" fill="url(#linear-gradient-7)"/>
      </g>
    </g>
    <g id="Group_1466" data-name="Group 1466" transform="translate(18.264 96.411)">
      <g id="Group_1465" data-name="Group 1465" clip-path="url(#clip-path-10)">
        <rect id="Rectangle_664" data-name="Rectangle 664" width="2.194" height="2.498" transform="translate(-0.74 0.317) rotate(-22.717)" fill="url(#linear-gradient-8)"/>
      </g>
    </g>
    <g id="Group_1468" data-name="Group 1468" transform="translate(24.322 52.772)">
      <g id="Group_1467" data-name="Group 1467" clip-path="url(#clip-path-11)">
        <rect id="Rectangle_665" data-name="Rectangle 665" width="24.512" height="43.038" transform="translate(-15.472 6.424) rotate(-22.714)" fill="url(#linear-gradient-9)"/>
      </g>
    </g>
    <g id="Group_1475" data-name="Group 1475">
      <g id="Group_1474" data-name="Group 1474" clip-path="url(#clip-path)">
        <g id="Group_1473" data-name="Group 1473" transform="translate(24.33 52.772)" opacity="0.3" style="mix-blend-mode: multiply;isolation: isolate">
          <g id="Group_1472" data-name="Group 1472">
            <g id="Group_1471" data-name="Group 1471" clip-path="url(#clip-path-13)">
              <g id="Group_1470" data-name="Group 1470" transform="translate(0.018 -0.004)">
                <g id="Group_1469" data-name="Group 1469" clip-path="url(#clip-path-14)">
                  <rect id="Rectangle_666" data-name="Rectangle 666" width="22.372" height="42.142" transform="translate(-15.498 6.428) rotate(-22.714)" fill="url(#linear-gradient-10)"/>
                </g>
              </g>
            </g>
          </g>
        </g>
      </g>
    </g>
    <g id="Group_1477" data-name="Group 1477" transform="translate(15.242 53.612)">
      <g id="Group_1476" data-name="Group 1476" clip-path="url(#clip-path-15)">
        <rect id="Rectangle_669" data-name="Rectangle 669" width="29.076" height="45.486" transform="translate(-16.042 6.536) rotate(-22.714)" fill="url(#linear-gradient-11)"/>
      </g>
    </g>
    <g id="Group_1479" data-name="Group 1479" transform="translate(13.968 27.914)">
      <g id="Group_1478" data-name="Group 1478" clip-path="url(#clip-path-16)">
        <rect id="Rectangle_670" data-name="Rectangle 670" width="39.916" height="35.382" transform="translate(-12.366 28.1) rotate(-67.286)" fill="url(#linear-gradient-12)"/>
      </g>
    </g>
    <g id="Group_1481" data-name="Group 1481" transform="translate(23.762 23.746)">
      <g id="Group_1480" data-name="Group 1480" clip-path="url(#clip-path-17)">
        <rect id="Rectangle_671" data-name="Rectangle 671" width="9.054" height="10.904" transform="translate(-2.484 5.02) rotate(-67.286)" fill="url(#linear-gradient-13)"/>
      </g>
    </g>
    <g id="Group_1483" data-name="Group 1483" transform="translate(26.466 19.563)">
      <g id="Group_1482" data-name="Group 1482" clip-path="url(#clip-path-18)">
        <rect id="Rectangle_672" data-name="Rectangle 672" width="6.982" height="7.012" transform="translate(-2.14 0.803) rotate(-22.714)" fill="url(#linear-gradient-14)"/>
      </g>
    </g>
    <g id="Group_1485" data-name="Group 1485" transform="translate(27.393 22.695)">
      <g id="Group_1484" data-name="Group 1484" clip-path="url(#clip-path-19)">
        <rect id="Rectangle_673" data-name="Rectangle 673" width="4.78" height="4.914" transform="translate(-1.591 2.297) rotate(-56.914)" fill="url(#linear-gradient-15)"/>
      </g>
    </g>
    <g id="Group_1487" data-name="Group 1487" transform="translate(62.989 24)">
      <g id="Group_1486" data-name="Group 1486" clip-path="url(#clip-path-20)">
        <rect id="Rectangle_674" data-name="Rectangle 674" width="44.924" height="44.204" transform="matrix(0.675, -0.738, 0.738, 0.675, -18.661, 20.304)" fill="url(#linear-gradient-16)"/>
      </g>
    </g>
    <g id="Group_1489" data-name="Group 1489" transform="translate(59.515 96.134)">
      <g id="Group_1488" data-name="Group 1488" clip-path="url(#clip-path-21)">
        <rect id="Rectangle_675" data-name="Rectangle 675" width="6.074" height="3.126" transform="translate(-0.249 0.01) rotate(-4.493)" fill="url(#linear-gradient-17)"/>
      </g>
    </g>
    <g id="Group_1491" data-name="Group 1491" transform="translate(63.596 94.664)">
      <g id="Group_1490" data-name="Group 1490" clip-path="url(#clip-path-22)">
        <rect id="Rectangle_676" data-name="Rectangle 676" width="1.576" height="2.354" transform="translate(-0.032 0) rotate(-0.79)" fill="url(#linear-gradient-18)"/>
      </g>
    </g>
    <g id="Group_1493" data-name="Group 1493" transform="translate(73.65 94.685)">
      <g id="Group_1492" data-name="Group 1492" clip-path="url(#clip-path-23)">
        <rect id="Rectangle_677" data-name="Rectangle 677" width="4.328" height="4.4" transform="translate(-0.378 4.111) rotate(-87.078)" fill="url(#linear-gradient-19)"/>
      </g>
    </g>
    <g id="Group_1495" data-name="Group 1495" transform="translate(75.452 92.476)">
      <g id="Group_1494" data-name="Group 1494" clip-path="url(#clip-path-24)">
        <rect id="Rectangle_678" data-name="Rectangle 678" width="3.48" height="2.372" transform="translate(-0.386 3.22) rotate(-83.337)" fill="url(#linear-gradient-20)"/>
      </g>
    </g>
    <g id="Group_1497" data-name="Group 1497" transform="translate(61.149 54.619)">
      <g id="Group_1496" data-name="Group 1496" clip-path="url(#clip-path-25)">
        <rect id="Rectangle_679" data-name="Rectangle 679" width="10.67" height="40.958" transform="translate(-0.071 0.005)" fill="url(#linear-gradient-21)"/>
      </g>
    </g>
    <g id="Group_1504" data-name="Group 1504">
      <g id="Group_1503" data-name="Group 1503" clip-path="url(#clip-path)">
        <g id="Group_1502" data-name="Group 1502" transform="translate(61.846 54.626)" opacity="0.3" style="mix-blend-mode: multiply;isolation: isolate">
          <g id="Group_1501" data-name="Group 1501">
            <g id="Group_1500" data-name="Group 1500" clip-path="url(#clip-path-27)">
              <g id="Group_1499" data-name="Group 1499" transform="translate(0.01 0.006)">
                <g id="Group_1498" data-name="Group 1498" clip-path="url(#clip-path-28)">
                  <rect id="Rectangle_680" data-name="Rectangle 680" width="9.904" height="41.676" transform="translate(-0.01 -0.724)" fill="url(#linear-gradient-22)"/>
                </g>
              </g>
            </g>
          </g>
        </g>
      </g>
    </g>
    <g id="Group_1506" data-name="Group 1506" transform="translate(62.988 53.022)">
      <g id="Group_1505" data-name="Group 1505" clip-path="url(#clip-path-29)">
        <rect id="Rectangle_683" data-name="Rectangle 683" width="42.616" height="21.728" transform="matrix(0.13, -0.992, 0.992, 0.13, -5.24, 40.118)" fill="url(#linear-gradient-23)"/>
      </g>
    </g>
    <g id="Group_1508" data-name="Group 1508" transform="translate(36.412 39.682)">
      <g id="Group_1507" data-name="Group 1507" clip-path="url(#clip-path-30)">
        <rect id="Rectangle_684" data-name="Rectangle 684" width="5.37" height="3.834" transform="matrix(0.953, -0.304, 0.304, 0.953, -0.778, 0.232)" fill="url(#linear-gradient-24)"/>
      </g>
    </g>
    <g id="Group_1510" data-name="Group 1510" transform="translate(39.842 31.918)">
      <g id="Group_1509" data-name="Group 1509" clip-path="url(#clip-path-31)">
        <rect id="Rectangle_685" data-name="Rectangle 685" width="24.846" height="17.608" transform="translate(0.002)" fill="url(#linear-gradient-25)"/>
      </g>
    </g>
    <g id="Group_1517" data-name="Group 1517">
      <g id="Group_1516" data-name="Group 1516" clip-path="url(#clip-path)">
        <g id="Group_1515" data-name="Group 1515" transform="translate(39.844 31.918)" opacity="0.33" style="mix-blend-mode: multiply;isolation: isolate">
          <g id="Group_1514" data-name="Group 1514">
            <g id="Group_1513" data-name="Group 1513" clip-path="url(#clip-path-33)">
              <g id="Group_1512" data-name="Group 1512" transform="translate(0 0.004)">
                <g id="Group_1511" data-name="Group 1511" clip-path="url(#clip-path-34)">
                  <rect id="Rectangle_686" data-name="Rectangle 686" width="24.846" height="18.354" transform="translate(0 -0.75)" fill="url(#linear-gradient-26)"/>
                </g>
              </g>
            </g>
          </g>
        </g>
      </g>
    </g>
    <g id="Group_1519" data-name="Group 1519" transform="translate(55.707 31.479)">
      <g id="Group_1518" data-name="Group 1518" clip-path="url(#clip-path-35)">
        <rect id="Rectangle_689" data-name="Rectangle 689" width="33.11" height="38.248" transform="translate(-0.401 0.025)" fill="url(#linear-gradient-27)"/>
      </g>
    </g>
    <g id="Group_1531" data-name="Group 1531">
      <g id="Group_1530" data-name="Group 1530" clip-path="url(#clip-path)">
        <g id="Group_1524" data-name="Group 1524" transform="translate(55.722 32.166)" opacity="0.3" style="mix-blend-mode: multiply;isolation: isolate">
          <g id="Group_1523" data-name="Group 1523">
            <g id="Group_1522" data-name="Group 1522" clip-path="url(#clip-path-37)">
              <g id="Group_1521" data-name="Group 1521" transform="translate(0.002 0.004)">
                <g id="Group_1520" data-name="Group 1520" clip-path="url(#clip-path-38)">
                  <rect id="Rectangle_690" data-name="Rectangle 690" width="33.11" height="38.058" transform="translate(-0.418 -0.302)" fill="url(#linear-gradient-28)"/>
                </g>
              </g>
            </g>
          </g>
        </g>
        <g id="Group_1529" data-name="Group 1529" transform="translate(55.722 38.534)" opacity="0.3" style="mix-blend-mode: multiply;isolation: isolate">
          <g id="Group_1528" data-name="Group 1528">
            <g id="Group_1527" data-name="Group 1527" clip-path="url(#clip-path-39)">
              <g id="Group_1526" data-name="Group 1526" transform="translate(0.001 0.002)">
                <g id="Group_1525" data-name="Group 1525" clip-path="url(#clip-path-40)">
                  <rect id="Rectangle_692" data-name="Rectangle 692" width="32.686" height="31.392" transform="translate(-0.417 -0.002)" fill="url(#linear-gradient-29)"/>
                </g>
              </g>
            </g>
          </g>
        </g>
      </g>
    </g>
    <g id="Group_1533" data-name="Group 1533" transform="translate(63.357 28.424)">
      <g id="Group_1532" data-name="Group 1532" clip-path="url(#clip-path-41)">
        <rect id="Rectangle_695" data-name="Rectangle 695" width="7.09" height="7.378" transform="matrix(0.511, -0.86, 0.86, 0.511, -2.179, 3.584)" fill="url(#linear-gradient-30)"/>
      </g>
    </g>
    <g id="Group_1535" data-name="Group 1535" transform="translate(64.808 26.852)">
      <g id="Group_1534" data-name="Group 1534" clip-path="url(#clip-path-42)">
        <rect id="Rectangle_696" data-name="Rectangle 696" width="4.438" height="4.482" transform="matrix(0.857, -0.516, 0.516, 0.857, -1.89, 0.866)" fill="url(#linear-gradient-31)"/>
      </g>
    </g>
    <g id="Group_1537" data-name="Group 1537" transform="translate(35.556 25.472)">
      <g id="Group_1536" data-name="Group 1536" clip-path="url(#clip-path-43)">
        <rect id="Rectangle_697" data-name="Rectangle 697" width="36.022" height="35.414" transform="translate(-9.896 23.79) rotate(-67.433)" fill="url(#linear-gradient-32)"/>
      </g>
    </g>
    <g id="Group_1539" data-name="Group 1539" transform="translate(46.252 27.74)">
      <g id="Group_1538" data-name="Group 1538" clip-path="url(#clip-path-44)">
        <rect id="Rectangle_698" data-name="Rectangle 698" width="29.952" height="24.704" transform="translate(-9.126 21.966) rotate(-67.433)" fill="url(#linear-gradient-33)"/>
      </g>
    </g>
    <g id="Group_1541" data-name="Group 1541" transform="translate(36.64 25.476)">
      <g id="Group_1540" data-name="Group 1540" clip-path="url(#clip-path-45)">
        <rect id="Rectangle_699" data-name="Rectangle 699" width="37.946" height="37.55" transform="matrix(0.531, -0.848, 0.848, 0.531, -12.622, 20.122)" fill="url(#linear-gradient-34)"/>
      </g>
    </g>
    <g id="Group_1543" data-name="Group 1543" transform="translate(57.848 37.76)">
      <g id="Group_1542" data-name="Group 1542" clip-path="url(#clip-path-46)">
        <rect id="Rectangle_700" data-name="Rectangle 700" width="2.384" height="3.348" transform="translate(-0.178)" fill="url(#linear-gradient-35)"/>
      </g>
    </g>
    <g id="Group_1545" data-name="Group 1545" transform="translate(58.48 32.526)">
      <g id="Group_1544" data-name="Group 1544" clip-path="url(#clip-path-47)">
        <rect id="Rectangle_701" data-name="Rectangle 701" width="27.194" height="27.064" transform="matrix(0.791, -0.612, 0.612, 0.791, -9.184, 7.116)" fill="url(#linear-gradient-36)"/>
      </g>
    </g>
    <g id="Group_1547" data-name="Group 1547" transform="translate(35.958 37.646)">
      <g id="Group_1546" data-name="Group 1546" clip-path="url(#clip-path-48)">
        <rect id="Rectangle_702" data-name="Rectangle 702" width="4.438" height="5.484" transform="matrix(0.489, -0.872, 0.872, 0.489, -1.608, 1.742)" fill="url(#linear-gradient-37)"/>
      </g>
    </g>
    <g id="Group_1549" data-name="Group 1549" transform="translate(12.937 29.768)">
      <g id="Group_1548" data-name="Group 1548" clip-path="url(#clip-path-49)">
        <rect id="Rectangle_703" data-name="Rectangle 703" width="33.04" height="30.946" transform="translate(-11.353 4.896) rotate(-28.98)" fill="url(#linear-gradient-38)"/>
      </g>
    </g>
    <g id="Group_1551" data-name="Group 1551" transform="translate(6.39 18.824)">
      <g id="Group_1550" data-name="Group 1550" clip-path="url(#clip-path-50)">
        <rect id="Rectangle_704" data-name="Rectangle 704" width="15.562" height="15.29" transform="translate(-4.646 2.55) rotate(-28.756)" fill="url(#linear-gradient-39)"/>
      </g>
    </g>
    <g id="Group_1553" data-name="Group 1553" transform="translate(1.808 19.664)">
      <g id="Group_1552" data-name="Group 1552" clip-path="url(#clip-path-51)">
        <rect id="Rectangle_705" data-name="Rectangle 705" width="70.982" height="71.076" transform="translate(-24.374 12.134) rotate(-28.756)" fill="url(#linear-gradient-40)"/>
      </g>
    </g>
    <g id="Group_1555" data-name="Group 1555" transform="translate(7.362 16.424)">
      <g id="Group_1554" data-name="Group 1554" clip-path="url(#clip-path-52)">
        <rect id="Rectangle_706" data-name="Rectangle 706" width="16.332" height="16.694" transform="translate(-5.322 2.918) rotate(-28.743)" fill="url(#linear-gradient-41)"/>
      </g>
    </g>
    <g id="Group_1557" data-name="Group 1557" transform="translate(2.78 18.858)">
      <g id="Group_1556" data-name="Group 1556" clip-path="url(#clip-path-53)">
        <rect id="Rectangle_707" data-name="Rectangle 707" width="70.982" height="71.076" transform="translate(-24.374 12.142) rotate(-28.756)" fill="url(#linear-gradient-42)"/>
      </g>
    </g>
    <g id="Group_1559" data-name="Group 1559" transform="translate(76.736 57.546)">
      <g id="Group_1558" data-name="Group 1558" clip-path="url(#clip-path-54)">
        <rect id="Rectangle_708" data-name="Rectangle 708" width="14.894" height="14.38" transform="matrix(0.951, -0.308, 0.308, 0.951, -3.292, 1.062)" fill="url(#linear-gradient-43)"/>
      </g>
    </g>
    <g id="Group_1561" data-name="Group 1561" transform="translate(53.16 14.964)">
      <g id="Group_1560" data-name="Group 1560" clip-path="url(#clip-path-55)">
        <rect id="Rectangle_709" data-name="Rectangle 709" width="61.062" height="63.834" transform="matrix(0.951, -0.308, 0.308, 0.951, -15.188, 4.924)" fill="url(#linear-gradient-44)"/>
      </g>
    </g>
    <g id="Group_1563" data-name="Group 1563" transform="translate(77.9 56.83)">
      <g id="Group_1562" data-name="Group 1562" clip-path="url(#clip-path-56)">
        <rect id="Rectangle_710" data-name="Rectangle 710" width="14.006" height="14.694" transform="translate(-3.5 1.138) rotate(-18)" fill="url(#linear-gradient-45)"/>
      </g>
    </g>
    <g id="Group_1565" data-name="Group 1565" transform="translate(53.66 14.256)">
      <g id="Group_1564" data-name="Group 1564" clip-path="url(#clip-path-57)">
        <rect id="Rectangle_711" data-name="Rectangle 711" width="61.062" height="63.834" transform="matrix(0.951, -0.308, 0.308, 0.951, -15.182, 4.924)" fill="url(#linear-gradient-46)"/>
      </g>
    </g>
  </g>
</svg>
