<svg xmlns="http://www.w3.org/2000/svg" xmlns:xlink="http://www.w3.org/1999/xlink" width="40" height="42.307" viewBox="0 0 40 42.307">
  <defs>
    <clipPath id="clip-path">
      <rect id="Rectangle_634" data-name="Rectangle 634" width="40" height="42.307" fill="none"/>
    </clipPath>
  </defs>
  <g id="Group_1401" data-name="Group 1401" clip-path="url(#clip-path)">
    <path id="Path_13137" data-name="Path 13137" d="M271.634,354.353h-5a3.043,3.043,0,0,0,.335-2.8,3.074,3.074,0,0,1-1.029.176,2.969,2.969,0,0,1-2.4-1.186,2.837,2.837,0,0,1-2.978-2.964,2.244,2.244,0,0,1-1.189-2.221,2.385,2.385,0,0,1-.039-3.413,3.918,3.918,0,0,1-.176-4.159,1.465,1.465,0,0,1,.23-.254,1.862,1.862,0,0,1,.016-.191,1.79,1.79,0,0,1,.352-2.754,4.533,4.533,0,0,1,.565-2.192,4.179,4.179,0,0,1,3.008-2.3,1.936,1.936,0,0,1,2.485-1.617,1.9,1.9,0,0,1,1.863-1.374,2.015,2.015,0,0,1,.748.142,1.787,1.787,0,0,1,1.608-.96,1.541,1.541,0,0,1,1.607,1.168Z" transform="translate(-251.863 -317.737)" fill="#89dbdf"/>
    <path id="Path_13138" data-name="Path 13138" d="M803.548,342.635h0a11.972,11.972,0,0,1,12.2,11.732,11.445,11.445,0,0,1-4.518,9.117,7.884,7.884,0,0,0-3.226,5.8h-4.45Z" transform="translate(-782.514 -333.666)" fill="#fec104"/>
    <path id="Path_13139" data-name="Path 13139" d="M806.616,699.369l2.149-15.247a1.766,1.766,0,0,0,.019-.243,1.615,1.615,0,0,0-.416-1.089,1.718,1.718,0,0,0-1.065-.547,1.921,1.921,0,0,0-.248-.018.573.573,0,1,0,0,1.144.758.758,0,0,1,.09,0,.523.523,0,0,1,.326.163.509.509,0,0,1,.124.343.714.714,0,0,1-.005.091l-2.17,15.4h1.2Zm-1.764-17.757h0a.669.669,0,0,1,.813.452l.508,1.826a.638.638,0,0,1-.469.782.669.669,0,0,1-.813-.452l-.508-1.826a.638.638,0,0,1,.469-.782m-1.3.028a.648.648,0,0,1,.387.424l.508,1.826a.638.638,0,0,1-.469.782.683.683,0,0,1-.426-.028Z" transform="translate(-782.514 -663.748)" fill="#fee593"/>
    <path id="Path_13140" data-name="Path 13140" d="M803.548,1426.3h4.49a.893.893,0,0,1,0,1.75H803.55Z" transform="translate(-782.514 -1388.965)" fill="#6594e7"/>
    <path id="Path_13141" data-name="Path 13141" d="M808.639,1463.309a.7.7,0,0,1-.6.4h-4.488v-.794h4.49a.7.7,0,0,1,.6.4" transform="translate(-782.514 -1424.618)" fill="#94c2f5"/>
    <path id="Path_13142" data-name="Path 13142" d="M803.548,1493.231h4.076a.893.893,0,0,1,0,1.75h-4.076Z" transform="translate(-782.514 -1454.144)" fill="#6594e7"/>
    <path id="Path_13143" data-name="Path 13143" d="M808.228,1530.233a.7.7,0,0,1-.6.4h-4.076v-.794h4.076a.7.7,0,0,1,.6.4" transform="translate(-782.515 -1489.79)" fill="#94c2f5"/>
    <path id="Path_13144" data-name="Path 13144" d="M803.548,1359.377h4.734a.876.876,0,1,1,0,1.751h-4.734Z" transform="translate(-782.514 -1323.793)" fill="#6594e7"/>
    <path id="Path_13145" data-name="Path 13145" d="M809.051,1396.385a.7.7,0,0,1-.6.4h-4.9v-.793h4.9a.7.7,0,0,1,.6.4" transform="translate(-782.514 -1359.446)" fill="#94c2f5"/>
    <path id="Path_13146" data-name="Path 13146" d="M807.587,1560.154a1.968,1.968,0,0,1-1.779,1.468h-2.259v-1.468Z" transform="translate(-782.514 -1519.315)" fill="#6594e7"/>
    <path id="Path_13147" data-name="Path 13147" d="M561.5,1423.862h-4.488a.906.906,0,0,0,0,1.774H561.5Z" transform="translate(-541.731 -1386.591)" fill="#b0bec5"/>
    <path id="Path_13148" data-name="Path 13148" d="M560.81,1461.346a.7.7,0,0,0,.6.4H565.9v-.8h-4.488a.7.7,0,0,0-.6.4" transform="translate(-546.13 -1422.702)" fill="#9aa6ae"/>
    <path id="Path_13149" data-name="Path 13149" d="M576.82,1491.65h-4.076a.9.9,0,0,0,0,1.774h4.076Z" transform="translate(-557.049 -1452.604)" fill="#b0bec5"/>
    <path id="Path_13150" data-name="Path 13150" d="M576.549,1529.129a.7.7,0,0,0,.6.4h4.076v-.8h-4.076a.7.7,0,0,0-.6.4" transform="translate(-561.457 -1488.711)" fill="#9aa6ae"/>
    <path id="Path_13151" data-name="Path 13151" d="M546.18,1356.078h-4.734a.887.887,0,0,0,0,1.774h4.734Z" transform="translate(-526.409 -1320.581)" fill="#b0bec5"/>
    <path id="Path_13152" data-name="Path 13152" d="M545.557,1393.54a.889.889,0,0,0,.756.425h4.734v-.8h-4.9a.7.7,0,0,0-.59.379" transform="translate(-531.276 -1356.693)" fill="#9aa6ae"/>
    <path id="Path_13153" data-name="Path 13153" d="M601,1559.434a1.976,1.976,0,0,0,1.779,1.487h2.259v-1.487Z" transform="translate(-585.269 -1518.614)" fill="#b0bec5"/>
    <path id="Path_13154" data-name="Path 13154" d="M374.672,774.241a.161.161,0,0,0,.215-.048.144.144,0,0,0-.017-.179,2.242,2.242,0,0,0-1.457-.818,2.3,2.3,0,0,0-1.65.4h0a2.1,2.1,0,0,0-.866,1.4,2.048,2.048,0,0,0,.423,1.576.16.16,0,0,0,.218.029.144.144,0,0,0,.031-.208,1.761,1.761,0,0,1-.364-1.355,1.807,1.807,0,0,1,.734-1.2l.019-.014a1.977,1.977,0,0,1,1.412-.339,1.929,1.929,0,0,1,1.254.7.155.155,0,0,0,.049.046Z" transform="translate(-361.163 -752.936)" fill="#467cdd"/>
    <path id="Path_13155" data-name="Path 13155" d="M404.288,1080.6a.145.145,0,0,0-.056-.2.16.16,0,0,0-.213.056,1.3,1.3,0,0,1-.8.581,1.362,1.362,0,0,1-.994-.127h0a1.254,1.254,0,0,1-.608-.76,1.2,1.2,0,0,1,.133-.95l.006-.01h0a.146.146,0,0,0-.074-.2.159.159,0,0,0-.206.066,1.481,1.481,0,0,0-.16,1.168,1.554,1.554,0,0,0,.746.938l.014.008a1.684,1.684,0,0,0,1.223.153,1.611,1.611,0,0,0,.987-.72M402.229,1080.913Z" transform="translate(-390.76 -1050.734)" fill="#467cdd"/>
    <path id="Path_13156" data-name="Path 13156" d="M508.491,1133.094a.149.149,0,0,0-.119-.177.156.156,0,0,0-.185.113,1.815,1.815,0,0,1-.831,1.141,1.973,1.973,0,0,1-1.433.245,1.9,1.9,0,0,1-1.194-.794,1.744,1.744,0,0,1-.257-1.368.149.149,0,0,0-.119-.177.156.156,0,0,0-.185.113,2.027,2.027,0,0,0,.3,1.592,2.208,2.208,0,0,0,1.39.924,2.3,2.3,0,0,0,1.667-.285,2.112,2.112,0,0,0,.968-1.328" transform="translate(-490.921 -1102.44)" fill="#467cdd"/>
    <path id="Path_13157" data-name="Path 13157" d="M353.1,983.886a.151.151,0,0,0,.137-.165.154.154,0,0,0-.172-.131,1.5,1.5,0,0,0-1,.526,1.372,1.372,0,0,0-.315,1.045,1.4,1.4,0,0,0,.551.952,1.533,1.533,0,0,0,1.094.3.151.151,0,0,0,.137-.164.154.154,0,0,0-.172-.131,1.212,1.212,0,0,1-.865-.238,1.109,1.109,0,0,1-.436-.752,1.085,1.085,0,0,1,.249-.826,1.186,1.186,0,0,1,.791-.416" transform="translate(-342.532 -957.843)" fill="#467cdd"/>
    <path id="Path_13158" data-name="Path 13158" d="M569.234,807.652a.16.16,0,0,0-.216.039.145.145,0,0,0,.041.207.7.7,0,0,1,.308.452.678.678,0,0,1-.113.526.144.144,0,0,0,.041.207.161.161,0,0,0,.216-.039.96.96,0,0,0,.164-.748.993.993,0,0,0-.438-.64" transform="translate(-554.097 -786.485)" fill="#467cdd"/>
    <path id="Path_13159" data-name="Path 13159" d="M629.523,868.525a.145.145,0,0,0-.05-.206.162.162,0,0,0-.162,0,.64.64,0,0,1-.461.035.607.607,0,0,1-.36-.29h0a.556.556,0,0,1-.048-.422.148.148,0,0,0-.109-.183.157.157,0,0,0-.192.1.85.85,0,0,0,.067.63.147.147,0,0,0,.01.018.914.914,0,0,0,.538.426.964.964,0,0,0,.7-.053.154.154,0,0,0,.07-.057" transform="translate(-611.668 -844.746)" fill="#467cdd"/>
    <path id="Path_13160" data-name="Path 13160" d="M436.878,873.035a.159.159,0,0,0,.207.071.146.146,0,0,0,.074-.2,2.045,2.045,0,0,1-.145-1.33,1.892,1.892,0,0,1,.671-1.108.144.144,0,0,0,.024-.209.161.161,0,0,0-.219-.023,2.186,2.186,0,0,0-.782,1.279,2.337,2.337,0,0,0,.169,1.518" transform="translate(-425.223 -847.426)" fill="#467cdd"/>
    <path id="Path_13161" data-name="Path 13161" d="M446.17,971.183a.147.147,0,0,0,.1-.186.157.157,0,0,0-.194-.1,1.114,1.114,0,0,1-.668-.023.942.942,0,0,1-.5-.372.16.16,0,0,0-.213-.051.145.145,0,0,0-.057.2,1.249,1.249,0,0,0,.663.5,1.443,1.443,0,0,0,.866.026" transform="translate(-432.981 -945.029)" fill="#467cdd"/>
    <path id="Path_13162" data-name="Path 13162" d="M437.48,972.557a.144.144,0,0,0,0,.21.161.161,0,0,0,.22,0,1.3,1.3,0,0,0,.377-.744,1.156,1.156,0,0,0-.156-.794.16.16,0,0,0-.215-.048.144.144,0,0,0-.05.2.868.868,0,0,1,.113.6,1,1,0,0,1-.29.576" transform="translate(-425.984 -945.737)" fill="#467cdd"/>
    <path id="Path_13163" data-name="Path 13163" d="M523.46,1078.314a.145.145,0,0,0-.06-.2.16.16,0,0,0-.212.056.881.881,0,0,0-.113.349h0a.867.867,0,0,0,.038.363.919.919,0,0,0,.466.535.987.987,0,0,0,.725.063.147.147,0,0,0,.1-.186.157.157,0,0,0-.195-.1.667.667,0,0,1-.488-.042.617.617,0,0,1-.314-.359.582.582,0,0,1-.025-.244h0a.6.6,0,0,1,.078-.235" transform="translate(-509.375 -1049.873)" fill="#467cdd"/>
    <path id="Path_13164" data-name="Path 13164" d="M485.47,1025a.146.146,0,0,0,.076-.2.158.158,0,0,0-.206-.073l-.009,0h0a.63.63,0,0,1-.468.011.641.641,0,0,1-.354-.318l0-.006v0h0a.621.621,0,0,1-.023-.48.608.608,0,0,1,.323-.346.146.146,0,0,0,.075-.2.159.159,0,0,0-.207-.072.9.9,0,0,0-.452,1.217h0v0l0,.008a.956.956,0,0,0,1.232.452h0Z" transform="translate(-471.46 -996.527)" fill="#467cdd"/>
    <path id="Path_13165" data-name="Path 13165" d="M544.615,805.176a.144.144,0,0,0-.045.2.16.16,0,0,0,.215.044,1.342,1.342,0,0,1,.974-.174,1.293,1.293,0,0,1,.817.534h0l0,0h0l.005.006a1.185,1.185,0,0,1,.175.919,1.232,1.232,0,0,1-.559.78l-.005,0h0a.144.144,0,0,0-.037.208.161.161,0,0,0,.217.036h0a1.529,1.529,0,0,0,.686-.966,1.468,1.468,0,0,0-.217-1.139l-.011-.018h0a1.605,1.605,0,0,0-1.011-.658,1.661,1.661,0,0,0-1.207.216" transform="translate(-530.29 -783.857)" fill="#467cdd"/>
    <path id="Path_13166" data-name="Path 13166" d="M496.8,875.818a.148.148,0,0,0,.106-.184.157.157,0,0,0-.193-.1,1.084,1.084,0,0,1-.793-.081,1,1,0,0,1-.5-.594.157.157,0,0,0-.193-.1.148.148,0,0,0-.106.184,1.3,1.3,0,0,0,.65.771,1.406,1.406,0,0,0,1.029.106" transform="translate(-482.153 -851.853)" fill="#467cdd"/>
    <path id="Path_13167" data-name="Path 13167" d="M537.877,906.422a.145.145,0,0,0,.062-.2.159.159,0,0,0-.211-.057l-.008,0h0a.628.628,0,0,1-.466.043.649.649,0,0,1-.377-.294l0-.006h0a.621.621,0,0,1-.057-.477.6.6,0,0,1,.3-.366.145.145,0,0,0,.06-.2.159.159,0,0,0-.212-.056.9.9,0,0,0-.361,1.242h0v0l0,.007a.96.96,0,0,0,1.262.369h0Z" transform="translate(-522.436 -881.1)" fill="#467cdd"/>
    <path id="Path_13168" data-name="Path 13168" d="M333.328,568.274a.152.152,0,0,0,.181-.039.136.136,0,0,0-.024-.2.142.142,0,0,0-.042-.022,1.581,1.581,0,0,0-1.154-.015,1.486,1.486,0,0,0-.832.764.139.139,0,0,0-.007.016,1.386,1.386,0,0,0-.015,1.1,1.477,1.477,0,0,0,.8.794.152.152,0,0,0,.182-.038.137.137,0,0,0-.024-.2h0a.152.152,0,0,0-.033-.019,1.193,1.193,0,0,1-.654-.642,1.118,1.118,0,0,1,.015-.894h0a1.2,1.2,0,0,1,.673-.621,1.274,1.274,0,0,1,.931.012" transform="translate(-322.655 -553.034)" fill="#467cdd"/>
    <path id="Path_13169" data-name="Path 13169" d="M324.493,662.564a.15.15,0,0,0,.194-.073.138.138,0,0,0-.076-.185.91.91,0,0,0-.669-.01.855.855,0,0,0-.481.444.8.8,0,0,0-.011.639.851.851,0,0,0,.465.46.15.15,0,0,0,.194-.073.138.138,0,0,0-.076-.185.565.565,0,0,1-.309-.3.53.53,0,0,1,.007-.424.568.568,0,0,1,.319-.3.6.6,0,0,1,.444.007" transform="translate(-314.922 -644.903)" fill="#467cdd"/>
    <path id="Path_13170" data-name="Path 13170" d="M307.655,906.1a.141.141,0,1,1,.005.282.841.841,0,0,1-.7-.421,1.9,1.9,0,0,1-.03-1.907.838.838,0,0,1,.685-.441.141.141,0,0,1,.005.282.557.557,0,0,0-.438.3,1.633,1.633,0,0,0,.026,1.613.558.558,0,0,0,.446.291" transform="translate(-298.662 -879.955)" fill="#467cdd"/>
    <path id="Path_13171" data-name="Path 13171" d="M306.106,808.527a.141.141,0,1,1,.005.282.558.558,0,0,0-.438.3,1.633,1.633,0,0,0,.026,1.613.557.557,0,0,0,.446.291.141.141,0,0,1,.005.282.841.841,0,0,1-.7-.421,1.9,1.9,0,0,1-.03-1.907.838.838,0,0,1,.685-.441" transform="translate(-297.191 -787.363)" fill="#467cdd"/>
    <path id="Path_13172" data-name="Path 13172" d="M463.023,473a.161.161,0,0,0,.22,0,.144.144,0,0,0,0-.21,1.744,1.744,0,0,1,.029-2.537l.018-.016a1.949,1.949,0,0,1,2.647.036.161.161,0,0,0,.214.024.145.145,0,0,0,.03-.209h0l-.012-.014a2.268,2.268,0,0,0-3.1-.043h0a2.029,2.029,0,0,0-.044,2.965" transform="translate(-450.299 -457.152)" fill="#467cdd"/>
    <path id="Path_13173" data-name="Path 13173" d="M405.452,601a.154.154,0,0,0,.165-.14.151.151,0,0,0-.146-.158,1.915,1.915,0,0,1-1.3-.6,1.745,1.745,0,0,1-.476-1.3,1.765,1.765,0,0,1,.626-1.242,1.932,1.932,0,0,1,1.36-.452.154.154,0,0,0,.165-.14.151.151,0,0,0-.146-.158,2.253,2.253,0,0,0-1.587.53,2.055,2.055,0,0,0-.729,1.445,2.033,2.033,0,0,0,.555,1.516,2.229,2.229,0,0,0,1.513.7" transform="translate(-392.82 -581.185)" fill="#467cdd"/>
    <path id="Path_13174" data-name="Path 13174" d="M598.614,480.711a.144.144,0,0,0-.012.21.161.161,0,0,0,.22.011,1.375,1.375,0,0,0,.113-2.006,1.536,1.536,0,0,0-2.1-.107.144.144,0,0,0-.012.21.161.161,0,0,0,.22.011,1.216,1.216,0,0,1,1.661.085,1.089,1.089,0,0,1,.3.81,1.1,1.1,0,0,1-.388.776" transform="translate(-581.16 -465.93)" fill="#467cdd"/>
    <path id="Path_13175" data-name="Path 13175" d="M578.549,425.528a.148.148,0,0,0,.107.184.157.157,0,0,0,.192-.1.682.682,0,0,0-.141-.621,1.158,1.158,0,0,0-.612-.386,1.205,1.205,0,0,0-.734.024.72.72,0,0,0-.459.457.148.148,0,0,0,.107.184.157.157,0,0,0,.192-.1.425.425,0,0,1,.274-.262.879.879,0,0,1,.533-.015.847.847,0,0,1,.447.278.4.4,0,0,1,.09.36" transform="translate(-561.798 -413.445)" fill="#467cdd"/>
    <path id="Path_13176" data-name="Path 13176" d="M633.515,424.22a.161.161,0,0,0,.22.017.144.144,0,0,0,.019-.209.757.757,0,0,0-.614-.237,1.186,1.186,0,0,0-.678.266.144.144,0,0,0-.018.21.161.161,0,0,0,.22.018.862.862,0,0,1,.492-.2.447.447,0,0,1,.363.132" transform="translate(-615.851 -412.697)" fill="#467cdd"/>
    <path id="Path_13177" data-name="Path 13177" d="M600.405,590.5a.16.16,0,0,0-.217.036.144.144,0,0,0,.038.207,1.472,1.472,0,0,0,.268.144,1.412,1.412,0,0,0,1.033.008,1.959,1.959,0,0,0,.885-.692,2.6,2.6,0,0,0,.282-.485,2.887,2.887,0,0,0,.2-1.7,2.006,2.006,0,0,0-.8-1.311.16.16,0,0,0-.217.036.145.145,0,0,0,.038.207,1.714,1.714,0,0,1,.672,1.121,2.6,2.6,0,0,1-.18,1.53,2.3,2.3,0,0,1-.248.43,1.651,1.651,0,0,1-.741.587,1.094,1.094,0,0,1-.8-.005,1.149,1.149,0,0,1-.21-.113" transform="translate(-584.45 -571.323)" fill="#467cdd"/>
    <path id="Path_13178" data-name="Path 13178" d="M597.478,740.194a.152.152,0,0,0,.147-.157.154.154,0,0,0-.164-.141.934.934,0,0,0-.678.387,1.422,1.422,0,0,0-.282.812.156.156,0,0,0,.311.01,1.129,1.129,0,0,1,.226-.645.625.625,0,0,1,.445-.266" transform="translate(-580.885 -720.529)" fill="#467cdd"/>
    <path id="Path_13179" data-name="Path 13179" d="M524.286,573.3a.145.145,0,0,0-.03.208.161.161,0,0,0,.219.029h0l.011-.009a1.511,1.511,0,0,0,.588-1.016,1.479,1.479,0,0,0-.334-1.126h0l-.01-.011a1.622,1.622,0,0,0-1.066-.565,1.655,1.655,0,0,0-1.182.321.144.144,0,0,0-.026.209.161.161,0,0,0,.219.025,1.335,1.335,0,0,1,.953-.259,1.308,1.308,0,0,1,.859.452l0,.005h0a1.193,1.193,0,0,1,.272.91,1.219,1.219,0,0,1-.474.82l-.005,0Z" transform="translate(-508.749 -555.856)" fill="#467cdd"/>
    <path id="Path_13180" data-name="Path 13180" d="M605.327,646.014a.146.146,0,0,0-.083-.195.159.159,0,0,0-.2.08.776.776,0,0,0-.006.621.831.831,0,0,0,.457.444.159.159,0,0,0,.2-.08.147.147,0,0,0-.083-.195.524.524,0,0,1-.289-.282.493.493,0,0,1,0-.4" transform="translate(-589.138 -628.903)" fill="#467cdd"/>
    <path id="Path_13181" data-name="Path 13181" d="M497.881,699.705a.149.149,0,0,0-.116-.178.156.156,0,0,0-.187.113,1.463,1.463,0,0,1-.516.778,1.4,1.4,0,0,1-.854.324.149.149,0,1,0,0,.3,1.726,1.726,0,0,0,1.053-.4,1.761,1.761,0,0,0,.621-.938" transform="translate(-483.067 -681.212)" fill="#467cdd"/>
    <path id="Path_13182" data-name="Path 13182" d="M696.711,796.938a.141.141,0,1,0,0,.282.71.71,0,0,0,.586-.365,1.574,1.574,0,0,0,0-1.581.712.712,0,0,0-.589-.363.141.141,0,0,0,0,.282.428.428,0,0,1,.339.229,1.306,1.306,0,0,1,0,1.288.429.429,0,0,1-.339.232" transform="translate(-678.326 -774.101)" fill="#467cdd"/>
    <path id="Path_13183" data-name="Path 13183" d="M696.478,717.39a.141.141,0,1,0,0,.282.428.428,0,0,1,.339.229,1.207,1.207,0,0,1,.169.644h0a1.2,1.2,0,0,1-.169.644.429.429,0,0,1-.339.231.141.141,0,0,0,0,.282.71.71,0,0,0,.586-.365,1.475,1.475,0,0,0,.211-.781.113.113,0,0,0,0-.021,1.472,1.472,0,0,0-.215-.78.711.711,0,0,0-.589-.362" transform="translate(-678.104 -698.612)" fill="#467cdd"/>
    <path id="Path_13184" data-name="Path 13184" d="M378.436,740.761a.151.151,0,0,0,.2-.038.137.137,0,0,0-.04-.195.517.517,0,0,0-.444-.047.747.747,0,0,0-.376.282.137.137,0,0,0,.04.195.151.151,0,0,0,.2-.037.452.452,0,0,1,.226-.169.22.22,0,0,1,.187.014" transform="translate(-367.867 -721.07)" fill="#467cdd"/>
    <path id="Path_13185" data-name="Path 13185" d="M331.336,744.482a.151.151,0,0,1-.2.042.137.137,0,0,1-.043-.194.881.881,0,0,1,.255-.246h0a.919.919,0,0,1,.334-.129.928.928,0,0,1,.673.135.854.854,0,0,1,.374.55.141.141,0,0,1-.117.164.146.146,0,0,1-.169-.113.574.574,0,0,0-.252-.37.626.626,0,0,0-.678,0h0a.59.59,0,0,0-.169.165" transform="translate(-322.4 -724.468)" fill="#467cdd"/>
    <path id="Path_13186" data-name="Path 13186" d="M463.612,649.8a.147.147,0,0,0-.294.008.974.974,0,0,0,.458.764,1.71,1.71,0,0,0,1.009.278.141.141,0,1,0-.008-.282,1.4,1.4,0,0,1-.828-.226.7.7,0,0,1-.335-.545" transform="translate(-451.19 -632.656)" fill="#467cdd"/>
    <path id="Path_13187" data-name="Path 13187" d="M619.208,953.874a.144.144,0,0,0-.012.21.161.161,0,0,0,.22.011,1.376,1.376,0,0,0,.113-2.006,1.537,1.537,0,0,0-2.1-.107.144.144,0,0,0-.012.21.161.161,0,0,0,.22.011,1.216,1.216,0,0,1,1.661.085,1.089,1.089,0,0,1,.3.81,1.1,1.1,0,0,1-.388.776" transform="translate(-601.215 -926.708)" fill="#467cdd"/>
    <path id="Path_13188" data-name="Path 13188" d="M705.974,904.458a.169.169,0,0,0-.041.222.135.135,0,0,0,.2.041.8.8,0,0,0,.294-.6,1.268,1.268,0,0,0-.185-.723.136.136,0,0,0-.2-.041.172.172,0,0,0-.041.222.921.921,0,0,1,.138.524.472.472,0,0,1-.165.357" transform="translate(-687.431 -879.68)" fill="#467cdd"/>
    <path id="Path_13189" data-name="Path 13189" d="M650.724,1109.018a.164.164,0,0,0-.178.132.142.142,0,0,0,.123.17,1.479,1.479,0,0,0,.3.006,1.436,1.436,0,0,0,.929-.466,2.028,2.028,0,0,0,.494-1.025,2.652,2.652,0,0,0,.041-.565,2.866,2.866,0,0,0-.556-1.613,1.937,1.937,0,0,0-1.282-.808.164.164,0,0,0-.178.132.141.141,0,0,0,.123.17,1.652,1.652,0,0,1,1.087.7,2.581,2.581,0,0,1,.5,1.453,2.347,2.347,0,0,1-.036.5,1.709,1.709,0,0,1-.411.864,1.112,1.112,0,0,1-.72.362,1.128,1.128,0,0,1-.237,0" transform="translate(-633.39 -1075.926)" fill="#467cdd"/>
    <path id="Path_13190" data-name="Path 13190" d="M545.736,1018.211a.145.145,0,0,0-.03.208.161.161,0,0,0,.219.029h0l.011-.009a1.511,1.511,0,0,0,.588-1.016,1.479,1.479,0,0,0-.334-1.126h0l-.01-.011a1.622,1.622,0,0,0-1.066-.565,1.654,1.654,0,0,0-1.182.321.144.144,0,0,0-.026.209.16.16,0,0,0,.219.025,1.334,1.334,0,0,1,.953-.259,1.308,1.308,0,0,1,.859.452l0,.005h0a1.193,1.193,0,0,1,.272.91,1.219,1.219,0,0,1-.474.82l-.005,0Z" transform="translate(-529.638 -989.124)" fill="#467cdd"/>
    <path id="Path_13191" data-name="Path 13191" d="M625.927,1119.179a.146.146,0,0,0-.083-.195.158.158,0,0,0-.2.079.776.776,0,0,0-.006.621.83.83,0,0,0,.457.444.159.159,0,0,0,.2-.08.147.147,0,0,0-.083-.195.525.525,0,0,1-.289-.282.493.493,0,0,1,0-.4" transform="translate(-609.196 -1089.682)" fill="#467cdd"/>
    <path id="Path_13192" data-name="Path 13192" d="M679.465,1053a.142.142,0,0,0-.158.137.164.164,0,0,0,.132.179.72.72,0,0,0,.581-.17.85.85,0,0,0,.285-.576.165.165,0,0,0-.132-.179.142.142,0,0,0-.159.137.538.538,0,0,1-.181.364.458.458,0,0,1-.369.107" transform="translate(-661.525 -1024.84)" fill="#467cdd"/>
    <path id="Path_13193" data-name="Path 13193" d="M1070.43,5.014l.133,3.372L1077.541,0l-6.23,5.463.409-3.755L1065.43,9.7Z" transform="translate(-1037.542)" fill="#fec104"/>
    <path id="Path_13194" data-name="Path 13194" d="M1014.987,11.454l.928,1.837,1.747-6.42-2.072,4.61-.723-2.186-1.468,6.027Z" transform="translate(-986.874 -6.691)" fill="#fec104"/>
    <path id="Path_13195" data-name="Path 13195" d="M1122.685,351.006l-.366,1.3,3.692-2.33-3.049,1.31.621-1.378-3.382,2.265Z" transform="translate(-1090.881 -340.749)" fill="#fec104"/>
    <path id="Path_13196" data-name="Path 13196" d="M7.112,5.014,6.978,8.386,0,0,6.23,5.463,5.821,1.709,12.111,9.7Z" fill="#fec104"/>
    <path id="Path_13197" data-name="Path 13197" d="M354.593,11.454l-.928,1.837-1.746-6.42,2.072,4.61.725-2.186,1.464,6.027Z" transform="translate(-342.706 -6.691)" fill="#fec104"/>
    <path id="Path_13198" data-name="Path 13198" d="M189.332,351.007l.366,1.3-3.7-2.329,3.046,1.31-.621-1.378,3.381,2.265Z" transform="translate(-181.134 -340.75)" fill="#fec104"/>
  </g>
</svg>
