<svg xmlns="http://www.w3.org/2000/svg" xmlns:xlink="http://www.w3.org/1999/xlink" width="100" height="105.768" viewBox="0 0 100 105.768">
  <defs>
    <clipPath id="clip-path">
      <rect id="Rectangle_634" data-name="Rectangle 634" width="100" height="105.768" fill="none"/>
    </clipPath>
  </defs>
  <g id="Group_1401" data-name="Group 1401" clip-path="url(#clip-path)">
    <path id="Path_13137" data-name="Path 13137" d="M291.137,396.462h-12.5a7.608,7.608,0,0,0,.837-7,7.683,7.683,0,0,1-2.574.441,7.421,7.421,0,0,1-6-2.965,7.094,7.094,0,0,1-7.445-7.41,5.61,5.61,0,0,1-2.973-5.552,5.963,5.963,0,0,1-.1-8.532c-2.14-2.2-2.28-7.849-.441-10.4a3.651,3.651,0,0,1,.576-.635,4.653,4.653,0,0,1,.04-.479,4.475,4.475,0,0,1,.879-6.886,11.331,11.331,0,0,1,1.412-5.48,10.447,10.447,0,0,1,7.519-5.757,4.841,4.841,0,0,1,6.211-4.042,4.755,4.755,0,0,1,4.659-3.436,5.041,5.041,0,0,1,1.869.356,4.468,4.468,0,0,1,4.019-2.4c1.828,0,3.833,1.129,4.018,2.921Z" transform="translate(-241.71 -304.922)" fill="#89dbdf"/>
    <path id="Path_13138" data-name="Path 13138" d="M803.548,342.635h0c16.837,0,30.493,13.129,30.493,29.331a28.612,28.612,0,0,1-11.294,22.794,19.71,19.71,0,0,0-8.065,14.5H803.556Z" transform="translate(-750.963 -320.213)" fill="#fec104"/>
    <path id="Path_13139" data-name="Path 13139" d="M811.218,726.039l5.372-38.116a4.444,4.444,0,0,0,.047-.609,4.036,4.036,0,0,0-1.04-2.723,4.3,4.3,0,0,0-2.661-1.368,4.812,4.812,0,0,0-.621-.044,1.431,1.431,0,1,0,0,2.86,1.889,1.889,0,0,1,.226.011,1.308,1.308,0,0,1,.815.406,1.273,1.273,0,0,1,.309.857,1.767,1.767,0,0,1-.013.229l-5.425,38.495h2.991Zm-4.409-44.393h0a1.672,1.672,0,0,1,2.033,1.129l1.271,4.564a1.6,1.6,0,0,1-1.173,1.955,1.672,1.672,0,0,1-2.033-1.13l-1.271-4.565a1.6,1.6,0,0,1,1.173-1.955m-3.261.069a1.618,1.618,0,0,1,.967,1.059l1.271,4.564a1.595,1.595,0,0,1-1.173,1.955,1.707,1.707,0,0,1-1.066-.069Z" transform="translate(-750.964 -636.987)" fill="#fee593"/>
    <path id="Path_13140" data-name="Path 13140" d="M803.548,1426.3h11.226a2.232,2.232,0,0,1,0,4.376h-11.22Z" transform="translate(-750.963 -1332.964)" fill="#6594e7"/>
    <path id="Path_13141" data-name="Path 13141" d="M816.276,1463.907a1.754,1.754,0,0,1-1.508.988h-11.22v-1.984h11.226a1.753,1.753,0,0,1,1.508.988" transform="translate(-750.963 -1367.179)" fill="#94c2f5"/>
    <path id="Path_13142" data-name="Path 13142" d="M803.548,1493.231h10.191a2.232,2.232,0,0,1,0,4.376H803.548Z" transform="translate(-750.963 -1395.512)" fill="#6594e7"/>
    <path id="Path_13143" data-name="Path 13143" d="M815.247,1530.831a1.754,1.754,0,0,1-1.506.988H803.549v-1.985H813.74a1.753,1.753,0,0,1,1.507.988" transform="translate(-750.964 -1429.724)" fill="#94c2f5"/>
    <path id="Path_13144" data-name="Path 13144" d="M803.548,1359.377h11.836a2.19,2.19,0,1,1,0,4.376H803.548Z" transform="translate(-750.963 -1270.419)" fill="#6594e7"/>
    <path id="Path_13145" data-name="Path 13145" d="M817.306,1396.982a1.752,1.752,0,0,1-1.508.988H803.547v-1.984H815.8a1.75,1.75,0,0,1,1.508.988" transform="translate(-750.964 -1304.635)" fill="#94c2f5"/>
    <path id="Path_13146" data-name="Path 13146" d="M813.644,1560.154a4.92,4.92,0,0,1-4.448,3.67h-5.647v-3.67Z" transform="translate(-750.963 -1458.056)" fill="#6594e7"/>
    <path id="Path_13147" data-name="Path 13147" d="M569.315,1423.862h-11.22a2.266,2.266,0,0,0,0,4.435h11.22Z" transform="translate(-519.888 -1330.683)" fill="#b0bec5"/>
    <path id="Path_13148" data-name="Path 13148" d="M560.81,1461.948a1.754,1.754,0,0,0,1.508,1.005h11.22v-2.009h-11.22a1.753,1.753,0,0,0-1.508,1.005" transform="translate(-524.11 -1365.338)" fill="#9aa6ae"/>
    <path id="Path_13149" data-name="Path 13149" d="M584.033,1491.65H573.842a2.259,2.259,0,0,0,0,4.436h10.191Z" transform="translate(-534.605 -1394.035)" fill="#b0bec5"/>
    <path id="Path_13150" data-name="Path 13150" d="M576.549,1529.732a1.754,1.754,0,0,0,1.508,1h10.191v-2.01H578.057a1.752,1.752,0,0,0-1.508,1.005" transform="translate(-538.82 -1428.686)" fill="#9aa6ae"/>
    <path id="Path_13151" data-name="Path 13151" d="M554.612,1356.078H542.777a2.218,2.218,0,0,0,0,4.436h11.836Z" transform="translate(-505.184 -1267.335)" fill="#b0bec5"/>
    <path id="Path_13152" data-name="Path 13152" d="M545.561,1394.108a2.222,2.222,0,0,0,1.89,1.061h11.836v-2.009H547.03a1.735,1.735,0,0,0-1.475.948" transform="translate(-509.858 -1301.991)" fill="#9aa6ae"/>
    <path id="Path_13153" data-name="Path 13153" d="M601,1559.434a4.941,4.941,0,0,0,4.448,3.717H611.1v-3.717Z" transform="translate(-561.673 -1457.383)" fill="#b0bec5"/>
    <path id="Path_13154" data-name="Path 13154" d="M380.369,775.841a.4.4,0,0,0,.536-.12.36.36,0,0,0-.042-.448,5.6,5.6,0,0,0-3.642-2.044,5.745,5.745,0,0,0-4.126,1.011h0a5.255,5.255,0,0,0-2.164,3.5,5.12,5.12,0,0,0,1.059,3.94.4.4,0,0,0,.545.073.36.36,0,0,0,.078-.519,4.4,4.4,0,0,1-.909-3.388,4.517,4.517,0,0,1,1.835-2.994.412.412,0,0,0,.048-.035,4.941,4.941,0,0,1,3.529-.847,4.822,4.822,0,0,1,3.135,1.759.385.385,0,0,0,.123.116Z" transform="translate(-346.597 -722.578)" fill="#467cdd"/>
    <path id="Path_13155" data-name="Path 13155" d="M408.823,1083.044a.363.363,0,0,0-.141-.508.4.4,0,0,0-.532.141,3.248,3.248,0,0,1-1.989,1.453,3.4,3.4,0,0,1-2.486-.318h0a3.136,3.136,0,0,1-1.52-1.9,3,3,0,0,1,.333-2.375l.014-.025h0a.364.364,0,0,0-.185-.5.4.4,0,0,0-.514.165,3.705,3.705,0,0,0-.4,2.921,3.886,3.886,0,0,0,1.866,2.345l.035.02a4.206,4.206,0,0,0,3.058.382,4.025,4.025,0,0,0,2.466-1.8M403.676,1083.813Z" transform="translate(-375.002 -1008.365)" fill="#467cdd"/>
    <path id="Path_13156" data-name="Path 13156" d="M515.054,1134.627a.373.373,0,0,0-.3-.444.39.39,0,0,0-.463.282,4.537,4.537,0,0,1-2.078,2.852,4.932,4.932,0,0,1-3.582.613,4.742,4.742,0,0,1-2.986-1.985,4.358,4.358,0,0,1-.642-3.421.372.372,0,0,0-.3-.443.39.39,0,0,0-.463.282,5.07,5.07,0,0,0,.747,3.98,5.519,5.519,0,0,0,3.476,2.31,5.739,5.739,0,0,0,4.167-.713,5.278,5.278,0,0,0,2.42-3.319" transform="translate(-471.127 -1057.992)" fill="#467cdd"/>
    <path id="Path_13157" data-name="Path 13157" d="M355.13,984.332a.377.377,0,0,0,.343-.412.386.386,0,0,0-.431-.328,3.752,3.752,0,0,0-2.492,1.316,3.43,3.43,0,0,0-.788,2.613,3.505,3.505,0,0,0,1.378,2.379,3.832,3.832,0,0,0,2.736.752.377.377,0,0,0,.343-.411.385.385,0,0,0-.431-.327,3.031,3.031,0,0,1-2.163-.594,2.772,2.772,0,0,1-1.09-1.88,2.713,2.713,0,0,1,.623-2.065,2.965,2.965,0,0,1,1.976-1.04" transform="translate(-328.721 -919.223)" fill="#467cdd"/>
    <path id="Path_13158" data-name="Path 13158" d="M569.6,807.691a.4.4,0,0,0-.541.1.362.362,0,0,0,.1.517,1.747,1.747,0,0,1,.771,1.129,1.694,1.694,0,0,1-.282,1.316.361.361,0,0,0,.1.517.4.4,0,0,0,.541-.1,2.4,2.4,0,0,0,.411-1.871,2.484,2.484,0,0,0-1.094-1.6" transform="translate(-531.756 -754.774)" fill="#467cdd"/>
    <path id="Path_13159" data-name="Path 13159" d="M631.643,870.132a.363.363,0,0,0-.124-.514.406.406,0,0,0-.406,0,1.6,1.6,0,0,1-1.152.088,1.519,1.519,0,0,1-.9-.724h0a1.389,1.389,0,0,1-.119-1.056.37.37,0,0,0-.272-.457.393.393,0,0,0-.479.26,2.126,2.126,0,0,0,.168,1.576.4.4,0,0,0,.026.045,2.284,2.284,0,0,0,1.344,1.066,2.41,2.41,0,0,0,1.742-.133.385.385,0,0,0,.175-.141" transform="translate(-587.004 -810.683)" fill="#467cdd"/>
    <path id="Path_13160" data-name="Path 13160" d="M437.218,877.28a.4.4,0,0,0,.518.176.364.364,0,0,0,.185-.5,5.115,5.115,0,0,1-.363-3.324,4.73,4.73,0,0,1,1.679-2.77.36.36,0,0,0,.061-.523.4.4,0,0,0-.548-.058,5.468,5.468,0,0,0-1.955,3.2,5.841,5.841,0,0,0,.424,3.8" transform="translate(-408.079 -813.258)" fill="#467cdd"/>
    <path id="Path_13161" data-name="Path 13161" d="M448.5,972.31a.368.368,0,0,0,.257-.464.393.393,0,0,0-.486-.246,2.784,2.784,0,0,1-1.67-.057,2.353,2.353,0,0,1-1.252-.93.4.4,0,0,0-.534-.128.363.363,0,0,0-.141.51,3.121,3.121,0,0,0,1.657,1.249,3.607,3.607,0,0,0,2.164.066" transform="translate(-415.524 -906.926)" fill="#467cdd"/>
    <path id="Path_13162" data-name="Path 13162" d="M437.548,974.655a.36.36,0,0,0,0,.525.4.4,0,0,0,.551,0,3.238,3.238,0,0,0,.941-1.859,2.891,2.891,0,0,0-.39-1.985.4.4,0,0,0-.536-.12.361.361,0,0,0-.126.511,2.17,2.17,0,0,1,.283,1.488,2.507,2.507,0,0,1-.724,1.44" transform="translate(-408.809 -907.604)" fill="#467cdd"/>
    <path id="Path_13163" data-name="Path 13163" d="M524.044,1078.646a.362.362,0,0,0-.15-.505.4.4,0,0,0-.529.141,2.2,2.2,0,0,0-.282.872h0a2.166,2.166,0,0,0,.1.908,2.3,2.3,0,0,0,1.166,1.337,2.469,2.469,0,0,0,1.812.157.368.368,0,0,0,.257-.464.392.392,0,0,0-.487-.244,1.665,1.665,0,0,1-1.221-.106,1.544,1.544,0,0,1-.785-.9,1.457,1.457,0,0,1-.063-.611h0a1.485,1.485,0,0,1,.195-.588" transform="translate(-488.833 -1007.543)" fill="#467cdd"/>
    <path id="Path_13164" data-name="Path 13164" d="M487.474,1027.54a.365.365,0,0,0,.191-.493.4.4,0,0,0-.515-.182l-.023.01h0a1.575,1.575,0,0,1-1.17.028,1.6,1.6,0,0,1-.885-.8l-.007-.014v-.007h0a1.552,1.552,0,0,1-.058-1.2,1.519,1.519,0,0,1,.807-.864.364.364,0,0,0,.188-.493.4.4,0,0,0-.517-.179,2.259,2.259,0,0,0-1.129,3.042h0v.01l.008.018a2.389,2.389,0,0,0,3.079,1.13h0Z" transform="translate(-452.449 -956.347)" fill="#467cdd"/>
    <path id="Path_13165" data-name="Path 13165" d="M544.72,805.551a.36.36,0,0,0-.113.513.4.4,0,0,0,.538.109,3.354,3.354,0,0,1,2.435-.435,3.231,3.231,0,0,1,2.043,1.336h0l.008.011h0l.013.015a2.964,2.964,0,0,1,.436,2.3,3.08,3.08,0,0,1-1.4,1.95l-.013.009h0a.361.361,0,0,0-.093.519.4.4,0,0,0,.544.089h0a3.821,3.821,0,0,0,1.714-2.415,3.671,3.671,0,0,0-.543-2.849.373.373,0,0,0-.028-.045h0a4.013,4.013,0,0,0-2.527-1.645,4.155,4.155,0,0,0-3.017.541" transform="translate(-508.908 -752.253)" fill="#467cdd"/>
    <path id="Path_13166" data-name="Path 13166" d="M499.329,877.419a.37.37,0,0,0,.264-.46.392.392,0,0,0-.483-.253,2.71,2.71,0,0,1-1.984-.2,2.507,2.507,0,0,1-1.251-1.484.392.392,0,0,0-.483-.253.37.37,0,0,0-.264.46,3.256,3.256,0,0,0,1.625,1.927,3.514,3.514,0,0,0,2.573.265" transform="translate(-462.709 -817.506)" fill="#467cdd"/>
    <path id="Path_13167" data-name="Path 13167" d="M539.968,908.87a.363.363,0,0,0,.154-.5.4.4,0,0,0-.527-.141l-.021.011h0a1.57,1.57,0,0,1-1.165.107,1.62,1.62,0,0,1-.942-.736l-.008-.014h0a1.553,1.553,0,0,1-.141-1.193,1.5,1.5,0,0,1,.743-.916.363.363,0,0,0,.151-.506.4.4,0,0,0-.529-.141,2.251,2.251,0,0,0-.9,3.106h0v.01l.01.017a2.4,2.4,0,0,0,3.154.922h0Z" transform="translate(-501.365 -845.566)" fill="#467cdd"/>
    <path id="Path_13168" data-name="Path 13168" d="M336.327,568.836a.379.379,0,0,0,.452-.1.34.34,0,0,0-.059-.494.353.353,0,0,0-.1-.055,3.952,3.952,0,0,0-2.884-.037,3.716,3.716,0,0,0-2.079,1.91.33.33,0,0,0-.018.041,3.464,3.464,0,0,0-.037,2.754,3.691,3.691,0,0,0,2,1.985.379.379,0,0,0,.456-.095.342.342,0,0,0-.059-.494h0a.39.39,0,0,0-.082-.046,2.981,2.981,0,0,1-1.635-1.605,2.8,2.8,0,0,1,.037-2.236h0A2.994,2.994,0,0,1,334,568.814a3.183,3.183,0,0,1,2.327.03" transform="translate(-309.645 -530.736)" fill="#467cdd"/>
    <path id="Path_13169" data-name="Path 13169" d="M326.151,663.054a.374.374,0,0,0,.484-.182.345.345,0,0,0-.191-.462,2.275,2.275,0,0,0-1.673-.025,2.138,2.138,0,0,0-1.2,1.111,1.994,1.994,0,0,0-.027,1.6,2.128,2.128,0,0,0,1.163,1.149.374.374,0,0,0,.484-.182A.346.346,0,0,0,325,665.6a1.412,1.412,0,0,1-.772-.761,1.323,1.323,0,0,1,.018-1.06,1.42,1.42,0,0,1,.8-.738,1.511,1.511,0,0,1,1.111.017" transform="translate(-302.224 -618.9)" fill="#467cdd"/>
    <path id="Path_13170" data-name="Path 13170" d="M309.1,909.827a.353.353,0,1,1,.013.706,2.1,2.1,0,0,1-1.749-1.053,4.749,4.749,0,0,1-.075-4.767,2.094,2.094,0,0,1,1.712-1.1.353.353,0,0,1,.013.706,1.392,1.392,0,0,0-1.094.761,4.083,4.083,0,0,0,.065,4.032,1.394,1.394,0,0,0,1.115.727" transform="translate(-286.622 -844.472)" fill="#467cdd"/>
    <path id="Path_13171" data-name="Path 13171" d="M307.5,808.527a.353.353,0,1,1,.013.706,1.393,1.393,0,0,0-1.094.761,4.083,4.083,0,0,0,.065,4.032,1.393,1.393,0,0,0,1.115.727.353.353,0,0,1,.013.706,2.1,2.1,0,0,1-1.749-1.053,4.749,4.749,0,0,1-.075-4.767,2.094,2.094,0,0,1,1.712-1.1" transform="translate(-285.209 -755.616)" fill="#467cdd"/>
    <path id="Path_13172" data-name="Path 13172" d="M463.952,478.336a.4.4,0,0,0,.549.008.36.36,0,0,0,.008-.525,4.359,4.359,0,0,1,.072-6.341.37.37,0,0,0,.044-.041,4.873,4.873,0,0,1,6.618.089.4.4,0,0,0,.535.059.361.361,0,0,0,.076-.522h0a.345.345,0,0,0-.031-.034,5.669,5.669,0,0,0-7.756-.109h0a5.074,5.074,0,0,0-.11,7.412" transform="translate(-432.141 -438.719)" fill="#467cdd"/>
    <path id="Path_13173" data-name="Path 13173" d="M408.558,607.281a.384.384,0,0,0,.412-.35.379.379,0,0,0-.366-.394,4.788,4.788,0,0,1-3.247-1.493,4.362,4.362,0,0,1-1.19-3.247,4.413,4.413,0,0,1,1.564-3.106,4.828,4.828,0,0,1,3.4-1.129.384.384,0,0,0,.412-.35.378.378,0,0,0-.366-.394,5.634,5.634,0,0,0-3.967,1.326,5.138,5.138,0,0,0-1.822,3.613,5.082,5.082,0,0,0,1.388,3.789,5.574,5.574,0,0,0,3.783,1.74" transform="translate(-376.979 -557.75)" fill="#467cdd"/>
    <path id="Path_13174" data-name="Path 13174" d="M601.362,484.1a.36.36,0,0,0-.03.525.4.4,0,0,0,.549.028,3.439,3.439,0,0,0,.282-5.016,3.841,3.841,0,0,0-5.251-.268.36.36,0,0,0-.03.525.4.4,0,0,0,.549.028,3.041,3.041,0,0,1,4.153.212,2.723,2.723,0,0,1,.75,2.026,2.754,2.754,0,0,1-.97,1.94" transform="translate(-557.727 -447.144)" fill="#467cdd"/>
    <path id="Path_13175" data-name="Path 13175" d="M581.026,426.987a.37.37,0,0,0,.268.459.392.392,0,0,0,.48-.257,1.7,1.7,0,0,0-.353-1.553,2.9,2.9,0,0,0-1.529-.966,3.015,3.015,0,0,0-1.835.061,1.8,1.8,0,0,0-1.147,1.143.37.37,0,0,0,.268.459.392.392,0,0,0,.48-.257,1.064,1.064,0,0,1,.685-.655,2.2,2.2,0,0,1,1.333-.037,2.118,2.118,0,0,1,1.118.7,1,1,0,0,1,.224.9" transform="translate(-539.149 -396.779)" fill="#467cdd"/>
    <path id="Path_13176" data-name="Path 13176" d="M635.178,424.866a.4.4,0,0,0,.549.044.36.36,0,0,0,.047-.524,1.891,1.891,0,0,0-1.536-.591,2.965,2.965,0,0,0-1.694.665.361.361,0,0,0-.046.524.4.4,0,0,0,.549.044,2.154,2.154,0,0,1,1.229-.491,1.117,1.117,0,0,1,.906.329" transform="translate(-591.017 -396.06)" fill="#467cdd"/>
    <path id="Path_13177" data-name="Path 13177" d="M600.773,596.23a.4.4,0,0,0-.542.09.361.361,0,0,0,.095.518,3.69,3.69,0,0,0,.67.359,3.53,3.53,0,0,0,2.583.02,4.9,4.9,0,0,0,2.212-1.731,6.494,6.494,0,0,0,.706-1.213,7.218,7.218,0,0,0,.5-4.248,5.015,5.015,0,0,0-2-3.277.4.4,0,0,0-.542.09.361.361,0,0,0,.094.518,4.285,4.285,0,0,1,1.679,2.8,6.5,6.5,0,0,1-.451,3.824,5.754,5.754,0,0,1-.62,1.074,4.126,4.126,0,0,1-1.854,1.467,2.737,2.737,0,0,1-2-.013,2.861,2.861,0,0,1-.525-.282" transform="translate(-560.885 -548.287)" fill="#467cdd"/>
    <path id="Path_13178" data-name="Path 13178" d="M598.944,740.641a.38.38,0,0,0,.367-.392.384.384,0,0,0-.411-.352,2.334,2.334,0,0,0-1.694.967,3.554,3.554,0,0,0-.706,2.029.39.39,0,0,0,.778.025,2.823,2.823,0,0,1,.565-1.614,1.562,1.562,0,0,1,1.112-.665" transform="translate(-557.46 -691.478)" fill="#467cdd"/>
    <path id="Path_13179" data-name="Path 13179" d="M527.078,577.047a.361.361,0,0,0-.075.521.4.4,0,0,0,.546.072h0l.028-.023a3.777,3.777,0,0,0,1.471-2.541,3.7,3.7,0,0,0-.834-2.815h0l-.024-.028a4.055,4.055,0,0,0-2.664-1.412,4.138,4.138,0,0,0-2.955.8.36.36,0,0,0-.065.523.4.4,0,0,0,.546.062,3.337,3.337,0,0,1,2.382-.648,3.27,3.27,0,0,1,2.149,1.129l.01.013h0a2.982,2.982,0,0,1,.679,2.274,3.046,3.046,0,0,1-1.186,2.051l-.012.009Z" transform="translate(-488.238 -533.447)" fill="#467cdd"/>
    <path id="Path_13180" data-name="Path 13180" d="M605.859,646.324a.366.366,0,0,0-.207-.487.4.4,0,0,0-.51.2,1.94,1.94,0,0,0-.014,1.553,2.075,2.075,0,0,0,1.142,1.11.4.4,0,0,0,.511-.2.367.367,0,0,0-.208-.487,1.31,1.31,0,0,1-.721-.706,1.232,1.232,0,0,1,.008-.988" transform="translate(-565.388 -603.546)" fill="#467cdd"/>
    <path id="Path_13181" data-name="Path 13181" d="M500.629,699.979a.371.371,0,0,0-.291-.446.389.389,0,0,0-.467.282,3.657,3.657,0,0,1-1.29,1.945,3.513,3.513,0,0,1-2.136.809.373.373,0,1,0,0,.744,4.317,4.317,0,0,0,2.631-.988,4.4,4.4,0,0,0,1.553-2.345" transform="translate(-463.595 -653.746)" fill="#467cdd"/>
    <path id="Path_13182" data-name="Path 13182" d="M696.933,799.978a.353.353,0,1,0,0,.706,1.774,1.774,0,0,0,1.466-.913,3.937,3.937,0,0,0-.01-3.953,1.779,1.779,0,0,0-1.473-.906.353.353,0,0,0,0,.706,1.07,1.07,0,0,1,.847.573,3.266,3.266,0,0,1,.01,3.22,1.072,1.072,0,0,1-.847.579" transform="translate(-650.971 -742.885)" fill="#467cdd"/>
    <path id="Path_13183" data-name="Path 13183" d="M696.69,717.39a.353.353,0,1,0,0,.706,1.07,1.07,0,0,1,.847.573,3.016,3.016,0,0,1,.424,1.611h0a3.008,3.008,0,0,1-.424,1.609,1.071,1.071,0,0,1-.847.577.353.353,0,0,0,0,.706,1.774,1.774,0,0,0,1.466-.914,3.688,3.688,0,0,0,.528-1.952.287.287,0,0,0,0-.052,3.681,3.681,0,0,0-.538-1.95,1.777,1.777,0,0,0-1.472-.906" transform="translate(-650.756 -670.444)" fill="#467cdd"/>
    <path id="Path_13184" data-name="Path 13184" d="M379.456,741.226a.378.378,0,0,0,.511-.095.342.342,0,0,0-.1-.487,1.294,1.294,0,0,0-1.11-.118,1.868,1.868,0,0,0-.94.706.341.341,0,0,0,.1.487.378.378,0,0,0,.511-.093,1.129,1.129,0,0,1,.565-.424.549.549,0,0,1,.467.034" transform="translate(-353.034 -691.996)" fill="#467cdd"/>
    <path id="Path_13185" data-name="Path 13185" d="M331.741,745.3a.377.377,0,0,1-.508.1.342.342,0,0,1-.109-.484,2.2,2.2,0,0,1,.637-.616h0a2.3,2.3,0,0,1,.836-.323,2.322,2.322,0,0,1,1.683.339,2.134,2.134,0,0,1,.936,1.375.353.353,0,0,1-.294.41.366.366,0,0,1-.423-.282,1.435,1.435,0,0,0-.631-.926,1.565,1.565,0,0,0-1.694-.012h0a1.48,1.48,0,0,0-.423.414" transform="translate(-309.4 -695.26)" fill="#467cdd"/>
    <path id="Path_13186" data-name="Path 13186" d="M464.053,650a.368.368,0,0,0-.735.021,2.434,2.434,0,0,0,1.145,1.91,4.274,4.274,0,0,0,2.521.694.353.353,0,1,0-.021-.706,3.5,3.5,0,0,1-2.07-.565,1.756,1.756,0,0,1-.839-1.364" transform="translate(-432.997 -607.149)" fill="#467cdd"/>
    <path id="Path_13187" data-name="Path 13187" d="M621.957,957.259a.36.36,0,0,0-.03.525.4.4,0,0,0,.549.028,3.44,3.44,0,0,0,.282-5.016,3.841,3.841,0,0,0-5.253-.268.36.36,0,0,0-.03.525.4.4,0,0,0,.549.028,3.041,3.041,0,0,1,4.153.212,2.723,2.723,0,0,1,.75,2.026,2.752,2.752,0,0,1-.97,1.94" transform="translate(-576.974 -889.343)" fill="#467cdd"/>
    <path id="Path_13188" data-name="Path 13188" d="M706.073,906.155a.424.424,0,0,0-.1.556.339.339,0,0,0,.5.1,2,2,0,0,0,.734-1.509,3.168,3.168,0,0,0-.463-1.807.339.339,0,0,0-.5-.1.43.43,0,0,0-.1.556,2.3,2.3,0,0,1,.344,1.31,1.18,1.18,0,0,1-.414.894" transform="translate(-659.715 -844.211)" fill="#467cdd"/>
    <path id="Path_13189" data-name="Path 13189" d="M651.187,1115.276a.41.41,0,0,0-.446.329.354.354,0,0,0,.307.423,3.635,3.635,0,0,0,.755.014,3.589,3.589,0,0,0,2.322-1.166,5.074,5.074,0,0,0,1.234-2.562,6.628,6.628,0,0,0,.1-1.411,7.162,7.162,0,0,0-1.389-4.034,4.84,4.84,0,0,0-3.206-2.021.41.41,0,0,0-.446.329.353.353,0,0,0,.308.424,4.134,4.134,0,0,1,2.716,1.742,6.45,6.45,0,0,1,1.251,3.632,5.858,5.858,0,0,1-.09,1.247,4.274,4.274,0,0,1-1.026,2.161,2.783,2.783,0,0,1-1.8.9,2.82,2.82,0,0,1-.592-.01" transform="translate(-607.852 -1032.545)" fill="#467cdd"/>
    <path id="Path_13190" data-name="Path 13190" d="M548.529,1021.962a.361.361,0,0,0-.075.521.4.4,0,0,0,.546.072h0l.028-.023a3.777,3.777,0,0,0,1.471-2.541,3.7,3.7,0,0,0-.834-2.815h0l-.024-.028a4.055,4.055,0,0,0-2.664-1.412,4.136,4.136,0,0,0-2.955.8.36.36,0,0,0-.065.522.4.4,0,0,0,.547.062,3.335,3.335,0,0,1,2.382-.648,3.269,3.269,0,0,1,2.148,1.129l.01.013h0a2.983,2.983,0,0,1,.679,2.274,3.049,3.049,0,0,1-1.186,2.051l-.013.009Z" transform="translate(-508.285 -949.245)" fill="#467cdd"/>
    <path id="Path_13191" data-name="Path 13191" d="M626.458,1119.49a.366.366,0,0,0-.207-.487.4.4,0,0,0-.51.2,1.941,1.941,0,0,0-.014,1.553,2.076,2.076,0,0,0,1.142,1.11.4.4,0,0,0,.511-.2.367.367,0,0,0-.207-.487,1.314,1.314,0,0,1-.721-.706,1.233,1.233,0,0,1,.01-.988" transform="translate(-584.633 -1045.746)" fill="#467cdd"/>
    <path id="Path_13192" data-name="Path 13192" d="M679.7,1053.912a.356.356,0,0,0-.4.342.411.411,0,0,0,.329.448,1.8,1.8,0,0,0,1.453-.424,2.127,2.127,0,0,0,.713-1.44.411.411,0,0,0-.329-.448.356.356,0,0,0-.4.341,1.344,1.344,0,0,1-.452.911,1.145,1.145,0,0,1-.923.268" transform="translate(-634.853 -983.518)" fill="#467cdd"/>
    <path id="Path_13193" data-name="Path 13193" d="M1077.931,12.535l.333,8.429L1095.709,0l-15.576,13.658,1.022-9.386-15.725,19.98Z" transform="translate(-995.708)" fill="#fec104"/>
    <path id="Path_13194" data-name="Path 13194" d="M1017.368,18.328l2.321,4.592,4.368-16.05-5.18,11.524-1.807-5.466L1013.4,28Z" transform="translate(-947.085 -6.422)" fill="#fec104"/>
    <path id="Path_13195" data-name="Path 13195" d="M1126.411,352.656l-.915,3.247,9.23-5.825-7.623,3.275,1.553-3.446-8.454,5.662Z" transform="translate(-1046.899 -327.012)" fill="#fec104"/>
    <path id="Path_13196" data-name="Path 13196" d="M17.779,12.535l-.333,8.429L0,0,15.575,13.658,14.553,4.272l15.724,19.98Z" fill="#fec104"/>
    <path id="Path_13197" data-name="Path 13197" d="M358.605,18.328l-2.321,4.592-4.366-16.05,5.18,11.524,1.811-5.466L362.569,28Z" transform="translate(-328.889 -6.422)" fill="#fec104"/>
    <path id="Path_13198" data-name="Path 13198" d="M194.329,352.655l.915,3.247L186,350.08l7.616,3.275-1.553-3.446,8.453,5.662Z" transform="translate(-173.835 -327.011)" fill="#fec104"/>
  </g>
</svg>
