<svg id="Group_1483" data-name="Group 1483" xmlns="http://www.w3.org/2000/svg" xmlns:xlink="http://www.w3.org/1999/xlink" width="100" height="99.862" viewBox="0 0 100 99.862">
  <defs>
    <clipPath id="clip-path">
      <rect id="Rectangle_633" data-name="Rectangle 633" width="100" height="99.862" fill="none"/>
    </clipPath>
  </defs>
  <g id="Group_1398" data-name="Group 1398" clip-path="url(#clip-path)">
    <path id="Path_13127" data-name="Path 13127" d="M12.815,94.887A47.438,47.438,0,0,1,8.043,74.452c0-19.4,16.172-34.314,35.546-34.314,18.909,0,34.4,15.825,34.4,34.922l6.6,21.475H74.125v10.014a10.21,10.21,0,0,1-10.218,10.2H51.937l-2,11.458H12.438l2.88-11.925a31.445,31.445,0,0,0-2.5-21.4" transform="translate(-6.09 -30.299)" fill="#ffcbbe"/>
    <path id="Path_13128" data-name="Path 13128" d="M57.546,108.13a20.324,20.324,0,0,0,2.7,6.509l-2.752,2.748,6.319,6.311,2.752-2.748a20.4,20.4,0,0,0,6.518,2.7v3.885h8.936v-3.885a20.411,20.411,0,0,0,6.518-2.7l2.752,2.748,6.32-6.312-2.753-2.748a20.342,20.342,0,0,0,2.7-6.509h3.892V99.205H97.554a20.338,20.338,0,0,0-2.7-6.505l2.755-2.751-6.32-6.31L88.533,86.39a20.4,20.4,0,0,0-6.514-2.7v-3.89H73.082v3.89a20.417,20.417,0,0,0-6.515,2.7l-2.755-2.751-6.319,6.31L60.248,92.7a20.311,20.311,0,0,0-2.7,6.505H53.654v8.924Zm10.43-4.459a9.575,9.575,0,1,1,9.574,9.561,9.567,9.567,0,0,1-9.574-9.561" transform="translate(-40.625 -60.242)" fill="#91def5"/>
    <path id="Path_13129" data-name="Path 13129" d="M359.917,14.977a7.031,7.031,0,1,1-7.031-7.021,7.027,7.027,0,0,1,7.031,7.021" transform="translate(-261.87 -6.006)" fill="#f6838d"/>
    <path id="Path_13130" data-name="Path 13130" d="M359.917,182.063a7.031,7.031,0,1,1-7.031-7.021,7.027,7.027,0,0,1,7.031,7.021" transform="translate(-261.87 -132.132)" fill="#d8ec84"/>
    <path id="Path_13131" data-name="Path 13131" d="M359.917,349.148a7.031,7.031,0,1,1-7.031-7.021,7.027,7.027,0,0,1,7.031,7.021" transform="translate(-261.87 -258.258)" fill="#ffcb7c"/>
    <path id="Path_13132" data-name="Path 13132" d="M116.117,130.2a11.512,11.512,0,1,0,11.528,11.512A11.532,11.532,0,0,0,116.117,130.2m0,19.122a7.611,7.611,0,1,1,7.621-7.611,7.625,7.625,0,0,1-7.621,7.611" transform="translate(-79.191 -98.285)"/>
    <path id="Path_13133" data-name="Path 13133" d="M77.881,121.525v-2.377a22.275,22.275,0,0,0,4.251-1.759l1.685,1.681a1.955,1.955,0,0,0,2.762,0l6.319-6.311a1.947,1.947,0,0,0,0-2.758l-1.684-1.683a22.132,22.132,0,0,0,1.761-4.244h2.382a1.952,1.952,0,0,0,1.953-1.951V93.2a1.952,1.952,0,0,0-1.953-1.951H92.972a22.112,22.112,0,0,0-1.761-4.242L92.9,85.322a1.949,1.949,0,0,0,0-2.759l-6.319-6.311a1.954,1.954,0,0,0-2.762,0l-1.687,1.686a22.314,22.314,0,0,0-4.248-1.758V73.8a1.951,1.951,0,0,0-1.953-1.951H66.992A1.952,1.952,0,0,0,65.039,73.8v2.382a22.28,22.28,0,0,0-4.247,1.758L59.1,76.253a1.956,1.956,0,0,0-2.763,0l-6.319,6.311a1.95,1.95,0,0,0,0,2.759l1.686,1.684a22.263,22.263,0,0,0-1.761,4.242H47.564A1.951,1.951,0,0,0,45.611,93.2v8.924a1.951,1.951,0,0,0,1.953,1.951h2.383a22.19,22.19,0,0,0,1.76,4.244L50.022,110a1.95,1.95,0,0,0,0,2.759l6.319,6.311a1.956,1.956,0,0,0,2.763,0l1.684-1.682a22.148,22.148,0,0,0,4.251,1.759v2.378a1.952,1.952,0,0,0,1.953,1.95h8.936a1.951,1.951,0,0,0,1.953-1.95m-2.376-5.788a1.95,1.95,0,0,0-1.53,1.9v1.934h-5.03V117.64a1.953,1.953,0,0,0-1.529-1.9,18.368,18.368,0,0,1-5.893-2.439,1.955,1.955,0,0,0-2.43.267l-1.37,1.368-3.557-3.553,1.371-1.369a1.95,1.95,0,0,0,.268-2.426,18.328,18.328,0,0,1-2.441-5.884,1.953,1.953,0,0,0-1.907-1.528H49.516V95.149h1.941a1.954,1.954,0,0,0,1.906-1.527,18.341,18.341,0,0,1,2.441-5.882,1.948,1.948,0,0,0-.267-2.427l-1.373-1.372,3.557-3.553L59.1,81.763a1.957,1.957,0,0,0,2.43.267,18.391,18.391,0,0,1,5.89-2.437,1.953,1.953,0,0,0,1.529-1.9V75.749h5.03v1.939a1.953,1.953,0,0,0,1.529,1.9,18.4,18.4,0,0,1,5.89,2.437,1.956,1.956,0,0,0,2.429-.267L85.2,80.39l3.557,3.553-1.373,1.372a1.949,1.949,0,0,0-.267,2.427,18.336,18.336,0,0,1,2.441,5.882,1.954,1.954,0,0,0,1.906,1.527H93.4v5.024H91.465a1.954,1.954,0,0,0-1.907,1.528,18.334,18.334,0,0,1-2.441,5.884,1.949,1.949,0,0,0,.268,2.426l1.371,1.369L85.2,114.932l-1.37-1.368A1.953,1.953,0,0,0,81.4,113.3a18.4,18.4,0,0,1-5.893,2.44" transform="translate(-34.535 -54.235)"/>
    <path id="Path_13134" data-name="Path 13134" d="M3.906,121.571A31.6,31.6,0,0,1,8.271,105.5a1.952,1.952,0,0,0-3.364-1.982A35.494,35.494,0,0,0,0,121.571a49.407,49.407,0,0,0,4.976,21.3,29.567,29.567,0,0,1,2.353,20.072L4.45,174.872a1.953,1.953,0,0,0,3.8.914l2.88-11.926a33.473,33.473,0,0,0-2.653-22.722,45.38,45.38,0,0,1-4.568-19.566" transform="translate(0 -77.418)"/>
    <path id="Path_13135" data-name="Path 13135" d="M144.065,58.9A8.972,8.972,0,1,0,135.3,47.98h-7.318L126.9,44.465a36.835,36.835,0,0,0-9.775-24.749l8.805-8.793H135.3a8.972,8.972,0,1,0,0-3.9H125.12a1.956,1.956,0,0,0-1.381.571l-9.4,9.386a35.68,35.68,0,0,0-23.792-9.09,38.619,38.619,0,0,0-19.519,5.257A1.951,1.951,0,1,0,73,16.51a34.709,34.709,0,0,1,17.542-4.72c17.89,0,32.445,14.791,32.445,32.971a1.91,1.91,0,0,0,.086.572l5.829,18.953h-7.825a1.954,1.954,0,0,0-1.953,1.95V76.25a8.268,8.268,0,0,1-8.264,8.253H98.9a1.954,1.954,0,0,0-1.925,1.615l-2,11.457a1.95,1.95,0,0,0,1.588,2.257,1.921,1.921,0,0,0,.338.029,1.951,1.951,0,0,0,1.922-1.615l1.721-9.843h10.328a12.117,12.117,0,0,0,6.871-2.128l6,5.992a1.956,1.956,0,0,0,1.381.572H135.3a8.972,8.972,0,1,0,0-3.9h-9.369l-5.364-5.356a12.079,12.079,0,0,0,2.473-7.332V68.187h8.513a1.952,1.952,0,0,0,1.868-2.523l-4.24-13.782H135.3a9,9,0,0,0,8.768,7.021m0-55a5.071,5.071,0,1,1-5.078,5.071A5.08,5.08,0,0,1,144.065,3.9m0,81.918a5.071,5.071,0,1,1-5.078,5.071,5.08,5.08,0,0,1,5.078-5.071m0-40.959a5.071,5.071,0,1,1-5.078,5.071,5.08,5.08,0,0,1,5.078-5.071" transform="translate(-53.049)"/>
    <path id="Path_13136" data-name="Path 13136" d="M43.312,78.235a1.951,1.951,0,1,0-1.381-.571,1.964,1.964,0,0,0,1.381.571" transform="translate(-31.316 -56.112)"/>
  </g>
</svg>
