<svg xmlns="http://www.w3.org/2000/svg" xmlns:xlink="http://www.w3.org/1999/xlink" width="40" height="40" viewBox="0 0 40 40">
  <defs>
    <linearGradient id="linear-gradient" x1="0.5" x2="0.5" y2="1" gradientUnits="objectBoundingBox">
      <stop offset="0" stop-color="#e7001b"/>
      <stop offset="1" stop-color="#ba0016"/>
    </linearGradient>
  </defs>
  <g id="Group_1500" data-name="Group 1500" transform="translate(0.237 -1004.125)">
    <circle id="Ellipse_102" data-name="Ellipse 102" cx="20" cy="20" r="20" transform="translate(-0.237 1004.125)" fill="url(#linear-gradient)"/>
    <g id="Group_1499" data-name="Group 1499" transform="translate(9.024 1014.212)">
      <rect id="Rectangle_636" data-name="Rectangle 636" width="7.434" height="6.608" rx="1.51" transform="translate(10.325 3.716)" fill="#fcd062"/>
      <path id="Path_13137" data-name="Path 13137" d="M21.356,1034.777H12.3a2.322,2.322,0,0,0-.28.029,1.28,1.28,0,0,0-.26.082,1.4,1.4,0,0,0-.44.3,1.455,1.455,0,0,0-.169.21,1.432,1.432,0,0,0-.127.24l-.109.212H6.948v8.245h4.32" transform="translate(-2.861 -1033.701)" fill="#fcd062" stroke="#f8b84e" stroke-linecap="round" stroke-linejoin="round" stroke-width="1"/>
      <path id="Path_13138" data-name="Path 13138" d="M12.178,1024.361H16.1a3.6,3.6,0,0,1,3.184,2.572,5.9,5.9,0,0,1-.323,4.884l-.011.058v2.1a2.673,2.673,0,0,1-2.773,2.573H16.1v-2.8c0-1.864-3.919-4.015-3.919-6.166" transform="translate(-3.77 -1017.55)" fill="#fcd062" stroke="#f8b84e" stroke-linecap="round" stroke-linejoin="round" stroke-width="1"/>
      <rect id="Rectangle_637" data-name="Rectangle 637" width="6.413" height="2.832" rx="1.416" transform="translate(15.89 9.715)" fill="#fcd062" stroke="#f8b84e" stroke-linejoin="round" stroke-width="1"/>
      <rect id="Rectangle_638" data-name="Rectangle 638" width="7.126" height="2.832" rx="1.416" transform="translate(15.177 6.847)" fill="#fcd062" stroke="#f8b84e" stroke-linejoin="round" stroke-width="1"/>
      <rect id="Rectangle_639" data-name="Rectangle 639" width="6.413" height="2.832" rx="1.416" transform="translate(21.59 6.775) rotate(180)" fill="#fcd062" stroke="#f8b84e" stroke-linejoin="round" stroke-width="1"/>
      <rect id="Rectangle_640" data-name="Rectangle 640" width="5.7" height="2.832" rx="1.342" transform="translate(20.878 3.907) rotate(180)" fill="#fcd062" stroke="#f8b84e" stroke-linejoin="round" stroke-width="1"/>
      <rect id="Rectangle_641" data-name="Rectangle 641" width="5.389" height="14.043" transform="translate(0 0)" fill="#0c5286"/>
      <ellipse id="Ellipse_103" data-name="Ellipse 103" cx="0.9" cy="0.905" rx="0.9" ry="0.905" transform="translate(1.795 2.714)" fill="#f0f4f7"/>
    </g>
  </g>
</svg>
