<svg xmlns="http://www.w3.org/2000/svg" width="41" height="41" viewBox="0 0 41 41">
  <g id="Group_1500" data-name="Group 1500" transform="translate(0.737 -1003.625)">
    <path id="Path_15616" data-name="Path 15616" d="M20,0A20,20,0,1,1,0,20,20,20,0,0,1,20,0Z" transform="translate(-0.237 1004.125)" fill="none" stroke="#ba0016" stroke-width="1"/>
    <g id="target_market" data-name="target market" transform="translate(-16.729 991.321)">
      <path id="Path_15609" data-name="Path 15609" d="M81.315,95.763l-1.991.057a.3.3,0,0,1-.284-.175l-1.831-3.906a11.839,11.839,0,0,0,2.174-1.1l2.2,4.69a.3.3,0,0,1-.267.434Z" transform="translate(-37.358 -49.96)" fill="#29adad"/>
      <path id="Path_15610" data-name="Path 15610" d="M40.687,92.073l-1.78,3.8a.3.3,0,0,1-.284.175L36.631,96a.3.3,0,0,1-.267-.434l2.149-4.588a11.839,11.839,0,0,0,2.174,1.1Z" transform="translate(-8.932 -50.192)" fill="#29adad"/>
      <path id="Path_15611" data-name="Path 15611" d="M48.744,32.2a11.877,11.877,0,0,1-.195,2.147l-.929-.341-2.963,1.346L46.049,38.3l.828.3a11.882,11.882,0,1,1,1.867-6.4Z" transform="translate(-1.039 -1.058)" fill="#4ac2c1"/>
      <path id="Path_15612" data-name="Path 15612" d="M47.309,49.947a7.309,7.309,0,1,1,7.309-7.309,7.309,7.309,0,0,1-7.309,7.309Z" transform="translate(-11.481 -11.494)" fill="#ffd98c"/>
      <path id="Path_15613" data-name="Path 15613" d="M52.264,52.728A5.139,5.139,0,1,1,57.4,47.589,5.139,5.139,0,0,1,52.264,52.728Z" transform="translate(-16.436 -16.445)" fill="#febd3b"/>
      <path id="Path_15614" data-name="Path 15614" d="M98.648,67.255,94.128,65.6,93.2,65.26l-2.388,1.085-.288.869,1.1,2.334.828.3,4.617,1.693L95.681,68.6Z" transform="translate(-46.619 -32.309)" fill="#f16062"/>
      <path id="Path_15615" data-name="Path 15615" d="M52.186,34.516,48.02,32.991A12.333,12.333,0,1,0,28.839,41.3L26.821,45.6a.457.457,0,0,0,.4.651l2.655.076h.013a.457.457,0,0,0,.413-.263l1.526-3.246a12.371,12.371,0,0,0,8,0l1.526,3.246a.457.457,0,0,0,.413.263h.013l2.655-.076a.457.457,0,0,0,.4-.651L42.817,41.3a12.523,12.523,0,0,0,3.2-3.209L50.3,39.665a.457.457,0,0,0,.57-.624l-1.193-2.525,2.544-1.154a.457.457,0,0,0-.03-.845ZM29.6,45.4l-1.659-.048L29.615,41.8l.047.026c.2.118.411.232.621.338l.033.015q.3.15.606.283l.052.024Zm12.449,0-1.37-2.913.052-.024q.3-.132.6-.282l.035-.017c.21-.106.416-.219.62-.337l.048-.026,1.67,3.552Zm3.08-7.631a11.61,11.61,0,0,1-3.141,2.991,11.4,11.4,0,0,1-2.09,1.057h0a11.485,11.485,0,0,1-8.144,0h0a11.42,11.42,0,1,1,15.391-9.147l-.407-.149a.461.461,0,0,0-.347.013L43.608,33.8l-.425-.172a7.747,7.747,0,0,0-.589-6.288.457.457,0,1,0-.8.449,6.837,6.837,0,0,1,.536,5.5l-1.166-.472a5.6,5.6,0,1,0-9.513,2.057.457.457,0,1,0,.681-.609,4.684,4.684,0,1,1,7.98-1.793l-2.1-.848.129-.287a.457.457,0,0,0-.392-.643l-2.293-.127a.457.457,0,0,0-.337.79l1.656,1.55a.457.457,0,0,0,.312.122.462.462,0,0,0,.091-.009.457.457,0,0,0,.327-.261l.135-.3,2.128.861a4.676,4.676,0,0,1-6.317,1.978.457.457,0,0,0-.426.809,5.586,5.586,0,0,0,7.591-2.443l1.173.474a6.855,6.855,0,1,1-1.553-8.049.457.457,0,1,0,.615-.675,7.764,7.764,0,1,0,1.786,9.068l.439.177L44.6,37.434a.457.457,0,0,0,.255.233Zm3.742-1.895a.457.457,0,0,0-.224.611l.915,1.937-4.223-1.549-1.113-2.353,2.37-1.077.753.277.008,0,3.464,1.268Z" fill="#7751a1"/>
    </g>
  </g>
</svg>
