<svg xmlns="http://www.w3.org/2000/svg" width="17" height="17" viewBox="0 0 17 17">
  <path id="Path_13388" data-name="Path 13388" d="M18.15,12.2a.85.85,0,0,0-.85.85v3.4a.85.85,0,0,1-.85.85H4.55a.85.85,0,0,1-.85-.85v-3.4a.85.85,0,1,0-1.7,0v3.4A2.55,2.55,0,0,0,4.55,19h11.9A2.55,2.55,0,0,0,19,16.45v-3.4A.85.85,0,0,0,18.15,12.2ZM9.9,13.653a.85.85,0,0,0,.281.179.8.8,0,0,0,.646,0,.85.85,0,0,0,.281-.179l3.4-3.4A.853.853,0,0,0,13.3,9.046L11.35,11V2.85a.85.85,0,1,0-1.7,0V11L7.7,9.046A.853.853,0,1,0,6.5,10.253Z" transform="translate(-2 -2)"/>
</svg>
