<svg xmlns="http://www.w3.org/2000/svg" width="14" height="10" viewBox="0 0 14 10">
  <g id="Group_2029" data-name="Group 2029" transform="translate(-8.1 -13.8)">
    <g id="Icon-Envelope" transform="translate(8.1 13.8)">
      <path id="Fill-3" d="M-55.74-214.54l-.559-.559-5.179,5.183a1.7,1.7,0,0,1-2.384,0l-5.179-5.153-.559.559,3.855,3.857L-69.6-206.8l.559.559,3.855-3.858.765.766a2.452,2.452,0,0,0,1.736.736,2.452,2.452,0,0,0,1.736-.736l.765-.766,3.855,3.858.559-.559-3.855-3.858,3.884-3.887" transform="translate(69.652 215.642)" fill="#134563"/>
      <path id="Fill-4" d="M-57.128-208.2H-68.672a1.2,1.2,0,0,1-1.228-1.148v-7.7a1.2,1.2,0,0,1,1.228-1.148h11.545a1.2,1.2,0,0,1,1.228,1.148v7.7a1.2,1.2,0,0,1-1.228,1.148ZM-68.7-217.462a.387.387,0,0,0-.409.382v7.7a.387.387,0,0,0,.409.382h11.545a.387.387,0,0,0,.409-.382v-7.7a.387.387,0,0,0-.409-.382Z" transform="translate(69.9 218.2)" fill="#134563"/>
    </g>
  </g>
</svg>
