<svg xmlns="http://www.w3.org/2000/svg" width="101.007" height="101.001" viewBox="0 0 101.007 101.001">
  <g id="Group_487" data-name="Group 487" transform="translate(-1098.082 -686.725)">
    <path id="Path_2066" data-name="Path 2066" d="M1135.383,734.128q-15.907-.388-24.974-13.58c-.787-1.148-.755-1.174.4-1.875,1.242-.755,2.513-1.465,3.716-2.276.787-.533,1.193-.4,1.722.391a22.6,22.6,0,0,0,14.429,9.889,22.924,22.924,0,0,0,23.861-9.738c.764-1.146.764-1.146,1.915-.447,1.3.787,2.589,1.605,3.912,2.354.689.388.723.764.3,1.4a29.917,29.917,0,0,1-19.8,13.41A23.958,23.958,0,0,1,1135.383,734.128Z" transform="translate(13.066 33.097)" fill="#f9d71c"/>
    <path id="Path_2067" data-name="Path 2067" d="M1131.175,716.225c-.729,0-1.465-.056-2.187.013-.91.086-1.2-.343-1.325-1.167a6.471,6.471,0,0,0-12.795.041c-.138.863-.5,1.165-1.366,1.126-1.458-.062-2.919-.011-4.379-.019-1.279,0-1.383-.065-1.266-1.379a12.751,12.751,0,0,1,4.1-8.426,12.908,12.908,0,0,1,13.716-2.981c5.11,1.734,8.008,5.54,8.968,10.827.06.339.024.692.052,1.04.052.667-.241.947-.913.926-.867-.028-1.736-.009-2.606-.009Z" transform="translate(10.61 17.7)" fill="#f9d71c"/>
    <path id="Path_2068" data-name="Path 2068" d="M1146.659,716.223c-.729,0-1.465-.054-2.187.013-.9.084-1.206-.321-1.338-1.154a6.476,6.476,0,0,0-6.2-5.479,6.634,6.634,0,0,0-6.383,4.481c-.056.164-.112.328-.153.5-.393,1.635-.39,1.637-2.041,1.64-1.286,0-2.576-.056-3.857.02-1.01.058-1.277-.373-1.2-1.284a13.475,13.475,0,0,1,17.724-11.559c5.169,1.711,8.1,5.52,9.078,10.849a10.382,10.382,0,0,1,.054,1.04c.052.654-.216.96-.9.936-.867-.028-1.737-.006-2.606-.006Z" transform="translate(28.38 17.702)" fill="#f9d71c"/>
    <path id="Path_2069" data-name="Path 2069" d="M1144.129,687.225h8.737c1.505.211,3.024.351,4.512.645,15.576,3.085,27.347,11.519,35.068,25.383a49.994,49.994,0,0,1-9.8,60.464,48.929,48.929,0,0,1-30.715,13.373,47.544,47.544,0,0,1-22.547-3.693q-22.009-9.531-29.016-32.518a54.351,54.351,0,0,1-1.783-9.366v-8.735a5.935,5.935,0,0,0,.118-.609,47.369,47.369,0,0,1,5.435-18.189,49.6,49.6,0,0,1,30.831-25.03A56.315,56.315,0,0,1,1144.129,687.225Zm4.53,93.087a43.143,43.143,0,1,0-43.1-39.481A43.179,43.179,0,0,0,1148.659,780.312Z" transform="translate(0 0)" fill="none" stroke="#676767" stroke-width="1"/>
    <path id="Path_2070" data-name="Path 2070" d="M1135.383,734.128q-15.907-.388-24.974-13.58c-.787-1.148-.755-1.174.4-1.875,1.242-.755,2.513-1.465,3.716-2.276.787-.533,1.193-.4,1.722.391a22.6,22.6,0,0,0,14.429,9.889,22.924,22.924,0,0,0,23.861-9.738c.764-1.146.764-1.146,1.915-.447,1.3.787,2.589,1.605,3.912,2.354.689.388.723.764.3,1.4a29.917,29.917,0,0,1-19.8,13.41A23.958,23.958,0,0,1,1135.383,734.128Z" transform="translate(13.066 33.097)" fill="none" stroke="#676767" stroke-width="1"/>
    <path id="Path_2071" data-name="Path 2071" d="M1131.175,716.225c-.729,0-1.465-.056-2.187.013-.91.086-1.2-.343-1.325-1.167a6.471,6.471,0,0,0-12.795.041c-.138.863-.5,1.165-1.366,1.126-1.458-.062-2.919-.011-4.379-.019-1.279,0-1.383-.065-1.266-1.379a12.751,12.751,0,0,1,4.1-8.426,12.908,12.908,0,0,1,13.716-2.981c5.11,1.734,8.008,5.54,8.968,10.827.06.339.024.692.052,1.04.052.667-.241.947-.913.926-.867-.028-1.736-.009-2.606-.009Z" transform="translate(10.61 17.7)" fill="none" stroke="#676767" stroke-width="1"/>
    <path id="Path_2072" data-name="Path 2072" d="M1146.659,716.223c-.729,0-1.465-.054-2.187.013-.9.084-1.206-.321-1.338-1.154a6.476,6.476,0,0,0-6.2-5.479,6.634,6.634,0,0,0-6.383,4.481c-.056.164-.112.328-.153.5-.393,1.635-.39,1.637-2.041,1.64-1.286,0-2.576-.056-3.857.02-1.01.058-1.277-.373-1.2-1.284a13.475,13.475,0,0,1,17.724-11.559c5.169,1.711,8.1,5.52,9.078,10.849a10.382,10.382,0,0,1,.054,1.04c.052.654-.216.96-.9.936-.867-.028-1.737-.006-2.606-.006Z" transform="translate(28.38 17.702)" fill="none" stroke="#676767" stroke-width="1"/>
  </g>
</svg>
