<svg xmlns="http://www.w3.org/2000/svg" width="80.682" height="88.355" viewBox="0 0 80.682 88.355">
  <g id="Group_1614" data-name="Group 1614" transform="translate(-3225.775 -1925.775)">
    <path id="Path_13367" data-name="Path 13367" d="M80.682,40.341A40.341,40.341,0,1,1,40.341,0,40.341,40.341,0,0,1,80.682,40.341" transform="translate(3225.775 1925.775)" fill="#72bac0"/>
    <path id="Path_13368" data-name="Path 13368" d="M51.2,102.522a.42.42,0,0,1-.371-.608c1.186-2.253,3.87-13.072,4.56-15.874a25.11,25.11,0,0,1-5.482.629,16.719,16.719,0,0,1-8.4-1.914c-3.51-2.432-2.917-12.8-2.768-14.8l-5.715-2.128a.42.42,0,0,1-.236-.565l5.963-13.181-.2-1.62a25.8,25.8,0,1,1,50.774-7.721.42.42,0,0,1,.041.182c0,.164,0,.325-.008.488v.451c0,.114.008.23.008.345a26.135,26.135,0,0,1-.264,3.677A49.045,49.045,0,0,1,78.955,74.763c-1.962,9.323,2.319,27.055,2.364,27.241a.42.42,0,0,1-.407.518Z" transform="translate(3202.373 1911.186)" fill="#fff"/>
    <path id="Path_13369" data-name="Path 13369" d="M62.527,19.774A25.383,25.383,0,0,1,87.87,43.865H87.9c0,.252-.009.5-.014.751,0,.178.014.354.014.534a25.58,25.58,0,0,1-.261,3.618A47.988,47.988,0,0,1,77.517,73.514c-2.06,9.5,2.344,27.531,2.344,27.531h-29.7c1.4-2.655,4.753-16.636,4.753-16.636a24.906,24.906,0,0,1-6.051.777,16.429,16.429,0,0,1-8.177-1.85C37.048,80.82,38.135,68.61,38.135,68.61l-6.011-2.237,6.011-13.281-.217-1.763A25.383,25.383,0,0,1,62.532,19.774m0-.839A26.222,26.222,0,0,0,37.086,51.482l.182,1.479L31.355,66.032a.839.839,0,0,0,.471,1.132l5.42,2.017a51.737,51.737,0,0,0-.044,5.9c.257,4.741,1.265,7.752,3,8.951l.032.021a17.176,17.176,0,0,0,8.624,1.976,25.232,25.232,0,0,0,4.919-.5c-1.239,5.058-3.385,13.275-4.362,15.131a.839.839,0,0,0,.742,1.23H79.863a.839.839,0,0,0,.815-1.038c-.044-.178-4.271-17.7-2.382-26.95a41.554,41.554,0,0,0,4.419-6.688,50.137,50.137,0,0,0,5.759-18.335,26.5,26.5,0,0,0,.268-3.721c0-.12,0-.24-.008-.359v-.427c0-.166.008-.33.008-.5A.839.839,0,0,0,88.7,43.6,26.183,26.183,0,0,0,62.527,18.935" transform="translate(3203.421 1912.243)" fill="#171615"/>
    <path id="Path_13370" data-name="Path 13370" d="M125.925,58.006a17.685,17.685,0,1,1-17.685-17.685,17.685,17.685,0,0,1,17.685,17.685" transform="translate(3161.064 1896.962)" fill="#72bac0"/>
    <path id="Path_13371" data-name="Path 13371" d="M53.857,213.487a.42.42,0,0,1,0-.839h7.007a.42.42,0,0,1,0,.839h-7Z" transform="translate(3187.588 1773.82)" fill="#171615"/>
    <path id="Path_13372" data-name="Path 13372" d="M66.073,134.333h-.217a5.036,5.036,0,0,1-3.484-2.351.42.42,0,0,1,.716-.436h0a4.256,4.256,0,0,0,2.826,1.95,4.207,4.207,0,0,0,3.344-1.994.419.419,0,1,1,.654.526,5.122,5.122,0,0,1-3.838,2.306Z" transform="translate(3181.249 1831.92)" fill="#171615"/>
    <path id="Path_13373" data-name="Path 13373" d="M104.872,95.349l-3.683,5.4h2.064v6.287h2.921v-6.287h2.064Z" transform="translate(3153.464 1857.638)" fill="#d13738"/>
    <path id="Path_13374" data-name="Path 13374" d="M123.284,112.339l-3.684,5.4h2.064v6.287h2.921v-6.287h2.064Z" transform="translate(3140.307 1845.496)" fill="#d13738"/>
    <path id="Path_13375" data-name="Path 13375" d="M135.454,44.616,128.2,55.256h4.066V67.639h5.753V55.248h4.066Z" transform="translate(3134.163 1893.892)" fill="#d13738"/>
    <path id="Path_13376" data-name="Path 13376" d="M164.309,115.819l-3.683,5.4h2.064V127.5h2.921v-6.287h2.064Z" transform="translate(3110.99 1843.009)" fill="#d13738"/>
    <path id="Path_13377" data-name="Path 13377" d="M184.309,99.424l-3.683,5.4h2.064v6.287h2.921v-6.287h2.064Z" transform="translate(3096.698 1854.726)" fill="#d13738"/>
  </g>
</svg>
