<svg xmlns="http://www.w3.org/2000/svg" xmlns:xlink="http://www.w3.org/1999/xlink" width="32" height="32.001" viewBox="0 0 32 32.001">
  <defs>
    <clipPath id="clip-path">
      <path id="Path_16181" data-name="Path 16181" d="M-177.655-294.8a16,16,0,0,1-16,16,16,16,0,0,1-16-16,16,16,0,0,1,16-16A16,16,0,0,1-177.655-294.8Z" transform="translate(211.655 1329.167)" fill="#ef4c45" clip-rule="evenodd"/>
    </clipPath>
  </defs>
  <g id="Group_16099" data-name="Group 16099" transform="translate(13.241 -976.872)">
    <path id="Path_16179" data-name="Path 16179" d="M-177.655-294.8a16,16,0,0,1-16,16,16,16,0,0,1-16-16,16,16,0,0,1,16-16A16,16,0,0,1-177.655-294.8Z" transform="translate(196.414 1287.676)" fill="#f274ed" fill-rule="evenodd"/>
    <g id="Group_16098" data-name="Group 16098" transform="translate(-15.241 -41.49)" clip-path="url(#clip-path)">
      <path id="Path_16180" data-name="Path 16180" d="M15.056,1037.9c.171-.031-2.774,1.181-6.928,3.446a2.307,2.307,0,0,0-1.075,2.194v6.777H28.946v-7.135a2.593,2.593,0,0,0-1.478-1.97c-3.1-1.716-6.938-3.39-6.882-3.4Z" fill="#ccc"/>
    </g>
    <path id="Path_16182" data-name="Path 16182" d="M-73.219-401.785a2.864,2.864,0,0,1-2.864,2.864,2.864,2.864,0,0,1-2.864-2.864,2.864,2.864,0,0,1,2.864-2.864A2.864,2.864,0,0,1-73.219-401.785Z" transform="translate(78.81 1398.821)" fill="#fca"/>
    <rect id="Rectangle_4817" data-name="Rectangle 4817" width="12.668" height="16.018" rx="6.334" transform="translate(-3.172 979.93)" fill="#fca"/>
    <path id="Path_16183" data-name="Path 16183" d="M6.916,994.539c2.639-1.153,4-4.158,4-7.222a7.472,7.472,0,0,0-7.472-7.472A7.364,7.364,0,0,0-1.689,982c-2.836.458-3.525,3.667-3.525,5.736,0,3.291,2.1,6.169,3.6,6.169a7.821,7.821,0,0,1,1.422-8.418c1.844,1.414,3.535,2.994,6.761,2.911a10.831,10.831,0,0,1,.238,6.1Zm-7.6.206c3.213,5.147-.579,6.668.493,10.433,0,0-2.924-1.331-3.045-3.135-.724-2.741,1.588-5.356,1.7-7.315Zm7.058.044c-3.213,5.147.579,6.668-.493,10.433,0,0,2.924-1.331,3.045-3.135.724-2.741-1.588-5.309-1.7-7.267Z" fill="#2c3842"/>
    <path id="Path_16184" data-name="Path 16184" d="M-307.9-634.24c0,.341-.482.617-1.078.617s-1.078-.276-1.078-.617.482-.617,1.078-.617S-307.9-634.581-307.9-634.24Z" transform="translate(307.731 1628.56)" fill="#fec351"/>
    <path id="Path_16185" data-name="Path 16185" d="M-307.9-634.24c0,.341-.482.617-1.078.617s-1.078-.276-1.078-.617.482-.617,1.078-.617S-307.9-634.581-307.9-634.24Z" transform="translate(315.957 1628.56)" fill="#fec351"/>
  </g>
</svg>
