<svg xmlns="http://www.w3.org/2000/svg" width="15.461" height="14.166" viewBox="0 0 15.461 14.166">
  <g id="Group_2476" data-name="Group 2476" transform="translate(-1226.654 877.006)">
    <g id="Group_2475" data-name="Group 2475">
      <path id="Path_1037" data-name="Path 1037" d="M1241.51-875.71H1232.3a1.9,1.9,0,0,0-1.8-1.3,1.9,1.9,0,0,0-1.8,1.3h-1.438a.6.6,0,0,0-.6.6.605.605,0,0,0,.6.605h1.438a1.9,1.9,0,0,0,1.8,1.3,1.9,1.9,0,0,0,1.8-1.3h9.211a.605.605,0,0,0,.6-.605A.6.6,0,0,0,1241.51-875.71Zm-11.012,1.3a.692.692,0,0,1-.691-.691.691.691,0,0,1,.691-.69.691.691,0,0,1,.691.69A.692.692,0,0,1,1230.5-874.415Z" fill="#fff"/>
      <path id="Path_1038" data-name="Path 1038" d="M1241.51-870.528h-1.437a1.905,1.905,0,0,0-1.8-1.3,1.9,1.9,0,0,0-1.8,1.3h-9.211a.605.605,0,0,0-.6.605.605.605,0,0,0,.6.6h9.211a1.9,1.9,0,0,0,1.8,1.295,1.9,1.9,0,0,0,1.8-1.295h1.437a.605.605,0,0,0,.6-.6A.605.605,0,0,0,1241.51-870.528Zm-3.239,1.3a.692.692,0,0,1-.69-.691.692.692,0,0,1,.69-.691.692.692,0,0,1,.691.691A.692.692,0,0,1,1238.271-869.232Z" fill="#fff"/>
      <path id="Path_1039" data-name="Path 1039" d="M1241.51-865.346h-6.62a1.9,1.9,0,0,0-1.8-1.295,1.9,1.9,0,0,0-1.8,1.295h-4.029a.605.605,0,0,0-.6.6.605.605,0,0,0,.6.605h4.029a1.9,1.9,0,0,0,1.8,1.3,1.9,1.9,0,0,0,1.8-1.3h6.62a.605.605,0,0,0,.6-.605A.605.605,0,0,0,1241.51-865.346Zm-8.421,1.3a.692.692,0,0,1-.691-.691.692.692,0,0,1,.691-.691.692.692,0,0,1,.691.691A.692.692,0,0,1,1233.089-864.05Z" fill="#fff"/>
    </g>
  </g>
</svg>
