<svg xmlns="http://www.w3.org/2000/svg" width="17" height="22.333" viewBox="0 0 17 22.333">
  <g id="Group_25159" data-name="Group 25159" transform="translate(0.5 0.5)">
    <path id="Path_29980" data-name="Path 29980" d="M1075.324,1393.013h-.415a1.126,1.126,0,0,1-.77-.94,2.483,2.483,0,0,1-.019-.4c0-6.018.009-12.036-.01-18.056a1.937,1.937,0,0,1,1.92-1.942q6.114.005,12.23,0a1.806,1.806,0,0,1,1.847,1.856q.005,9.122,0,18.243a1.165,1.165,0,0,1-.75,1.232h-.414a10.39,10.39,0,0,1-.947-.645c-1.7-1.443-3.394-2.9-5.091-4.354a1.073,1.073,0,0,0-1.5,0q-2.539,2.168-5.076,4.338A3.084,3.084,0,0,1,1075.324,1393.013Z" transform="translate(-1074.11 -1371.68)" fill="#fff" stroke="#1b4e9b" stroke-width="1"/>
    <path id="Stroke_1" data-name="Stroke 1" d="M0,.5H3.71" transform="translate(5.916 6.665)" fill="#fff" stroke="#1b4e9b" stroke-linecap="round" stroke-linejoin="round" stroke-width="1"/>
  </g>
</svg>
