<svg xmlns="http://www.w3.org/2000/svg" width="13.649" height="17.595" viewBox="0 0 13.649 17.595">
  <g id="Group_23057" data-name="Group 23057" transform="translate(0.75 0.75)">
    <path id="Path_29980" data-name="Path 29980" d="M1075.032,1387.775h-.315a.85.85,0,0,1-.585-.709,1.869,1.869,0,0,1-.015-.3c0-4.541.007-9.082-.008-13.623a1.466,1.466,0,0,1,1.458-1.466q4.643,0,9.287,0a1.366,1.366,0,0,1,1.4,1.4q0,6.882,0,13.764a.879.879,0,0,1-.569.93h-.314a7.911,7.911,0,0,1-.719-.486c-1.293-1.089-2.577-2.19-3.865-3.285a.818.818,0,0,0-1.139,0q-1.928,1.635-3.854,3.273A2.338,2.338,0,0,1,1075.032,1387.775Z" transform="translate(-1074.11 -1371.679)" fill="none" stroke="#848484" stroke-width="1.5"/>
    <path id="Stroke_1" data-name="Stroke 1" d="M0,.5H5.5" transform="translate(3.211 4.491)" fill="none" stroke="#848484" stroke-linecap="round" stroke-linejoin="round" stroke-width="1.5"/>
  </g>
</svg>
