<svg id="Group_2314" data-name="Group 2314" xmlns="http://www.w3.org/2000/svg" xmlns:xlink="http://www.w3.org/1999/xlink" width="322.962" height="240.677" viewBox="0 0 322.962 240.677">
  <defs>
    <clipPath id="clip-path">
      <rect id="Rectangle_899" data-name="Rectangle 899" width="322.962" height="240.677" fill="none"/>
    </clipPath>
    <clipPath id="clip-path-5">
      <rect id="Rectangle_872" data-name="Rectangle 872" width="6.087" height="16.454" fill="none"/>
    </clipPath>
    <clipPath id="clip-path-6">
      <rect id="Rectangle_873" data-name="Rectangle 873" width="62.84" height="92.335" fill="none"/>
    </clipPath>
    <clipPath id="clip-path-7">
      <rect id="Rectangle_875" data-name="Rectangle 875" width="5.633" height="3.21" fill="none"/>
    </clipPath>
    <clipPath id="clip-path-8">
      <rect id="Rectangle_876" data-name="Rectangle 876" width="10.087" height="9.702" fill="none"/>
    </clipPath>
    <clipPath id="clip-path-9">
      <rect id="Rectangle_877" data-name="Rectangle 877" width="10.464" height="7.313" fill="none"/>
    </clipPath>
    <clipPath id="clip-path-10">
      <rect id="Rectangle_878" data-name="Rectangle 878" width="3.61" height="8.362" fill="none"/>
    </clipPath>
    <clipPath id="clip-path-11">
      <rect id="Rectangle_879" data-name="Rectangle 879" width="8.093" height="9.192" fill="none"/>
    </clipPath>
    <clipPath id="clip-path-12">
      <rect id="Rectangle_880" data-name="Rectangle 880" width="7.215" height="4.98" fill="none"/>
    </clipPath>
    <clipPath id="clip-path-13">
      <rect id="Rectangle_881" data-name="Rectangle 881" width="205.646" height="129.634" fill="none"/>
    </clipPath>
    <clipPath id="clip-path-14">
      <rect id="Rectangle_882" data-name="Rectangle 882" width="13.987" height="5.61" fill="none"/>
    </clipPath>
    <clipPath id="clip-path-16">
      <rect id="Rectangle_884" data-name="Rectangle 884" width="4.192" height="8.308" fill="none"/>
    </clipPath>
    <clipPath id="clip-path-17">
      <rect id="Rectangle_885" data-name="Rectangle 885" width="21.025" height="7.714" fill="none"/>
    </clipPath>
    <clipPath id="clip-path-18">
      <rect id="Rectangle_886" data-name="Rectangle 886" width="17.527" height="13.264" fill="none"/>
    </clipPath>
    <clipPath id="clip-path-19">
      <rect id="Rectangle_887" data-name="Rectangle 887" width="6.149" height="5.692" fill="none"/>
    </clipPath>
    <clipPath id="clip-path-20">
      <rect id="Rectangle_888" data-name="Rectangle 888" width="13.015" height="6.845" fill="none"/>
    </clipPath>
    <clipPath id="clip-path-22">
      <rect id="Rectangle_890" data-name="Rectangle 890" width="199.852" height="186.638" fill="none"/>
    </clipPath>
    <clipPath id="clip-path-23">
      <rect id="Rectangle_891" data-name="Rectangle 891" width="14.35" height="5.948" fill="none"/>
    </clipPath>
    <clipPath id="clip-path-25">
      <rect id="Rectangle_893" data-name="Rectangle 893" width="150.081" height="121.336" fill="none"/>
    </clipPath>
    <clipPath id="clip-path-26">
      <rect id="Rectangle_894" data-name="Rectangle 894" width="11.129" height="11.116" fill="none"/>
    </clipPath>
    <clipPath id="clip-path-27">
      <rect id="Rectangle_895" data-name="Rectangle 895" width="24.482" height="24.229" fill="none"/>
    </clipPath>
    <clipPath id="clip-path-28">
      <rect id="Rectangle_896" data-name="Rectangle 896" width="6.698" height="1.552" fill="none"/>
    </clipPath>
    <clipPath id="clip-path-29">
      <rect id="Rectangle_897" data-name="Rectangle 897" width="5.109" height="5.548" fill="none"/>
    </clipPath>
  </defs>
  <g id="Group_2313" data-name="Group 2313" clip-path="url(#clip-path)">
    <rect id="Rectangle_852" data-name="Rectangle 852" width="322.962" height="0.161" transform="translate(0 211.505)" fill="#ebebeb"/>
    <rect id="Rectangle_853" data-name="Rectangle 853" width="21.394" height="0.161" transform="translate(269.208 221.902)" fill="#ebebeb"/>
    <rect id="Rectangle_854" data-name="Rectangle 854" width="5.615" height="0.161" transform="translate(208.328 223.655)" fill="#ebebeb"/>
    <rect id="Rectangle_855" data-name="Rectangle 855" width="12.397" height="0.161" transform="translate(256.165 215.904)" fill="#ebebeb"/>
    <rect id="Rectangle_856" data-name="Rectangle 856" width="27.899" height="0.161" transform="translate(33.885 216.989)" fill="#ebebeb"/>
    <rect id="Rectangle_857" data-name="Rectangle 857" width="4.091" height="0.161" transform="translate(67.535 216.989)" fill="#ebebeb"/>
    <rect id="Rectangle_858" data-name="Rectangle 858" width="60.508" height="0.161" transform="translate(84.92 219.717)" fill="#ebebeb"/>
    <g id="Group_2236" data-name="Group 2236">
      <g id="Group_2235" data-name="Group 2235" clip-path="url(#clip-path)">
        <path id="Path_14848" data-name="Path 14848" d="M166.621,182.7H41.894a3.691,3.691,0,0,1-3.687-3.687V3.687A3.691,3.691,0,0,1,41.894,0H166.621a3.691,3.691,0,0,1,3.686,3.687V179.011a3.691,3.691,0,0,1-3.686,3.687M41.894.161a3.529,3.529,0,0,0-3.525,3.525V179.011a3.529,3.529,0,0,0,3.525,3.525H166.621a3.529,3.529,0,0,0,3.525-3.525V3.687A3.529,3.529,0,0,0,166.621.161Z" transform="translate(-13.528)" fill="#ebebeb"/>
        <path id="Path_14849" data-name="Path 14849" d="M382.919,182.7H258.191a3.69,3.69,0,0,1-3.686-3.687V3.687A3.691,3.691,0,0,1,258.191,0H382.919a3.691,3.691,0,0,1,3.687,3.687V179.011a3.691,3.691,0,0,1-3.687,3.687M258.191.161a3.529,3.529,0,0,0-3.525,3.525V179.011a3.529,3.529,0,0,0,3.525,3.525H382.919a3.529,3.529,0,0,0,3.525-3.525V3.687A3.529,3.529,0,0,0,382.919.161Z" transform="translate(-90.114)" fill="#ebebeb"/>
        <rect id="Rectangle_859" data-name="Rectangle 859" width="4.347" height="118.954" transform="translate(92.175 92.713)" fill="#f5f5f5"/>
        <rect id="Rectangle_860" data-name="Rectangle 860" width="4.347" height="103.851" transform="translate(109.36 107.816)" fill="#f5f5f5"/>
        <rect id="Rectangle_861" data-name="Rectangle 861" width="4.347" height="88.748" transform="translate(126.391 122.919)" fill="#f5f5f5"/>
        <rect id="Rectangle_862" data-name="Rectangle 862" width="4.347" height="98.817" transform="translate(143.421 112.85)" fill="#f5f5f5"/>
        <rect id="Rectangle_863" data-name="Rectangle 863" width="4.347" height="103.851" transform="translate(160.452 107.816)" fill="#f5f5f5"/>
        <rect id="Rectangle_864" data-name="Rectangle 864" width="4.347" height="113.92" transform="translate(177.483 97.747)" fill="#f5f5f5"/>
        <rect id="Rectangle_865" data-name="Rectangle 865" width="4.347" height="108.885" transform="translate(194.513 102.781)" fill="#f5f5f5"/>
        <rect id="Rectangle_866" data-name="Rectangle 866" width="4.347" height="113.92" transform="translate(211.543 97.747)" fill="#f5f5f5"/>
        <rect id="Rectangle_867" data-name="Rectangle 867" width="4.347" height="123.988" transform="translate(228.574 87.678)" fill="#f5f5f5"/>
        <rect id="Rectangle_868" data-name="Rectangle 868" width="4.347" height="134.057" transform="translate(245.604 77.61)" fill="#f5f5f5"/>
        <rect id="Rectangle_869" data-name="Rectangle 869" width="4.347" height="144.126" transform="translate(262.635 67.541)" fill="#f5f5f5"/>
        <path id="Path_14850" data-name="Path 14850" d="M178.561,146.737a.972.972,0,0,1-.677-.275l-36.39-35.483a.969.969,0,0,1,1.353-1.387l35.8,34.912,50.43-36.782a.967.967,0,0,1,1.3.141l16.508,18.669,68.339-39.15a.969.969,0,1,1,.963,1.681L247.164,128.6a.972.972,0,0,1-1.208-.2l-16.447-18.6-50.379,36.744a.965.965,0,0,1-.57.186" transform="translate(-49.996 -30.894)" fill="#f0f0f0"/>
        <path id="Path_14851" data-name="Path 14851" d="M155.422,234.851,123.662,109.6l1.587-6.257h-1.654V67.564h-4.262v35.775h-1.654l1.586,6.257L87.5,234.851h4.4l27.432-108.184V235.509h4.262V126.667l27.432,108.184Z" transform="translate(-30.983 -23.923)" fill="#e0e0e0"/>
        <path id="Path_14852" data-name="Path 14852" d="M151.19,108.492A24.593,24.593,0,1,1,126.6,83.9a24.593,24.593,0,0,1,24.593,24.593" transform="translate(-36.117 -29.707)" fill="#e6e6e6"/>
        <path id="Path_14853" data-name="Path 14853" d="M149.564,110.466a20.991,20.991,0,1,1-20.991-20.991,20.991,20.991,0,0,1,20.991,20.991" transform="translate(-38.092 -31.681)" fill="#f5f5f5"/>
        <path id="Path_14854" data-name="Path 14854" d="M147.5,112.965a16.433,16.433,0,1,1-16.433-16.434A16.433,16.433,0,0,1,147.5,112.965" transform="translate(-40.59 -34.179)" fill="#e6e6e6"/>
        <path id="Path_14855" data-name="Path 14855" d="M146.165,114.589A13.47,13.47,0,1,1,132.7,101.12a13.469,13.469,0,0,1,13.469,13.469" transform="translate(-42.215 -35.804)" fill="#f5f5f5"/>
        <path id="Path_14856" data-name="Path 14856" d="M144.3,116.85a9.347,9.347,0,1,1-9.347-9.347,9.347,9.347,0,0,1,9.347,9.347" transform="translate(-44.475 -38.064)" fill="#e6e6e6"/>
        <path id="Path_14857" data-name="Path 14857" d="M143.111,118.294a6.711,6.711,0,1,1-6.711-6.711,6.711,6.711,0,0,1,6.711,6.711" transform="translate(-45.92 -39.509)" fill="#f5f5f5"/>
        <path id="Path_14858" data-name="Path 14858" d="M141.455,120.3a3.045,3.045,0,1,1-3.045-3.045,3.044,3.044,0,0,1,3.045,3.045" transform="translate(-47.929 -41.519)" fill="#e6e6e6"/>
        <path id="Path_14859" data-name="Path 14859" d="M89.049,90.575l.663,4.448L85.088,96.58l4.624,2.427,4.612-1.621L93.52,93Z" transform="translate(-30.128 -32.07)" fill="#e6e6e6"/>
        <line id="Line_23" data-name="Line 23" x1="33.092" y1="16.959" transform="translate(57.388 61.827)" fill="none" stroke="#e0e0e0" stroke-linecap="round" stroke-linejoin="round" stroke-width="2"/>
        <path id="Path_14860" data-name="Path 14860" d="M210.583,65.986a5.692,5.692,0,0,1,7.331-5.454,12.053,12.053,0,0,1,14.153-13.6,10.54,10.54,0,0,1,19.546,5.329c.059,0,.116-.009.176-.009a9.715,9.715,0,0,1,0,19.43H216.111l.007-.008a5.691,5.691,0,0,1-5.535-5.687" transform="translate(-74.562 -14.824)" fill="#f0f0f0"/>
        <path id="Path_14861" data-name="Path 14861" d="M367.47,68A2.742,2.742,0,0,1,371,65.367a5.808,5.808,0,0,1,6.82-6.554,5.079,5.079,0,0,1,9.418,2.568c.028,0,.056,0,.085,0a4.681,4.681,0,0,1,0,9.363H370.133l0,0A2.742,2.742,0,0,1,367.47,68" transform="translate(-130.112 -19.96)" fill="#f0f0f0"/>
        <path id="Path_14862" data-name="Path 14862" d="M94.723,75.376A1.843,1.843,0,0,1,97.1,73.61a3.9,3.9,0,0,1,4.584-4.405,3.414,3.414,0,0,1,6.331,1.726c.019,0,.037,0,.057,0a3.147,3.147,0,0,1,0,6.294H96.514l0,0a1.844,1.844,0,0,1-1.792-1.842" transform="translate(-33.539 -23.923)" fill="#f0f0f0"/>
      </g>
    </g>
    <g id="Group_2238" data-name="Group 2238">
      <g id="Group_2237" data-name="Group 2237" clip-path="url(#clip-path)">
        <path id="Path_14863" data-name="Path 14863" d="M306.586,357.277c0,4.04-56.071,7.314-125.238,7.314s-125.238-3.274-125.238-7.314,56.071-7.314,125.238-7.314,125.238,3.275,125.238,7.314" transform="translate(-19.868 -123.913)" fill="#f5f5f5"/>
      </g>
    </g>
    <g id="Group_2270" data-name="Group 2270">
      <g id="Group_2269" data-name="Group 2269" clip-path="url(#clip-path)">
        <path id="Path_14864" data-name="Path 14864" d="M138.385,167.683l4.429-2.529s1.7-2.632,2.215-2.752,6.132,0,6.132,0-.851,3.638-.937,4.357-5.452,0-5.452,0l-4.344,2.593Z" transform="translate(-48.999 -57.484)" fill="#ebb376"/>
        <path id="Path_14865" data-name="Path 14865" d="M71.063,352.5l-4.64-.926a.365.365,0,0,0-.355.286L64.822,356.5a.615.615,0,0,0,.474.729.6.6,0,0,0,.136.014c1.639-.026,2.832-.127,4.89-.127,1.267,0,5.091.132,6.841.132s1.978-1.728,1.262-1.888c-3.214-.7-5.632-1.67-6.661-2.593a1.006,1.006,0,0,0-.7-.265" transform="translate(-22.947 -124.484)" fill="#263238"/>
        <path id="Path_14866" data-name="Path 14866" d="M158.928,352.8h-5.065a.367.367,0,0,0-.355.286l-.821,3.713a.614.614,0,0,0,.473.729.6.6,0,0,0,.136.014c1.638-.026,2.831-.127,4.889-.127,1.268,0,5.091.132,6.841.132s1.978-1.728,1.262-1.888c-3.214-.7-5.632-1.67-6.661-2.593a1.009,1.009,0,0,0-.7-.265" transform="translate(-54.058 -124.919)" fill="#263238"/>
        <path id="Path_14867" data-name="Path 14867" d="M80.456,217.735,101.9,212.3c4.863,10.619,22.713,54.22,27.036,90.494l-7.261,1.841s-12.849-53.5-23.63-69.1c0,0-.578,23.748-1.746,27.2-.962,2.843-23.035,40.872-23.035,40.872l-7.168-.813s17.986-38.818,19.082-43.652c.747-3.3-2.531-27.491-2.531-27.491-.581-2.162-1.44-11.093-1.44-11.093s-.647-2.372-.755-2.818" transform="translate(-23.405 -75.169)" fill="#407bff"/>
        <g id="Group_2241" data-name="Group 2241" transform="translate(73.309 152.578)" opacity="0.2" style="mix-blend-mode: normal;isolation: isolate">
          <g id="Group_2240" data-name="Group 2240">
            <g id="Group_2239" data-name="Group 2239" clip-path="url(#clip-path-5)">
              <path id="Path_14868" data-name="Path 14868" d="M114.832,244a59.315,59.315,0,0,1,4.748,8.671,59.612,59.612,0,0,0-6.087-16.454Z" transform="translate(-113.494 -236.216)"/>
            </g>
          </g>
        </g>
        <g id="Group_2244" data-name="Group 2244" transform="translate(42.696 137.128)" opacity="0.3" style="mix-blend-mode: normal;isolation: isolate">
          <g id="Group_2243" data-name="Group 2243">
            <g id="Group_2242" data-name="Group 2242" clip-path="url(#clip-path-6)">
              <path id="Path_14869" data-name="Path 14869" d="M80.456,217.735,101.9,212.3c4.863,10.619,22.713,54.22,27.036,90.494l-7.261,1.841s-12.849-53.5-23.63-69.1c0,0-.578,23.748-1.746,27.2-.962,2.843-23.035,40.872-23.035,40.872l-7.168-.813s17.986-38.818,19.082-43.652c.747-3.3-2.531-27.491-2.531-27.491-.581-2.162-1.44-11.093-1.44-11.093s-.647-2.372-.755-2.818" transform="translate(-66.101 -212.297)"/>
            </g>
          </g>
        </g>
        <path id="Path_14870" data-name="Path 14870" d="M132.145,169.588s-9.779,6.6-12.357,6.95a20.554,20.554,0,0,1-5.335-.672c-3.32-.711-6.782-1.705-6.782-1.705l-.433-3.275-.459-3.5c.775-.258,10.89,3.9,12.4,4.5s11.284-5.193,11.284-5.193Z" transform="translate(-37.808 -59.02)" fill="#263238"/>
        <path id="Path_14871" data-name="Path 14871" d="M95.427,218.378l.633,2.48-6.924,1.847-.646-2.571Z" transform="translate(-31.332 -77.322)"/>
        <path id="Path_14872" data-name="Path 14872" d="M110.574,214.088l.6,2.351-10.122,2.7-.633-2.474Z" transform="translate(-35.556 -75.803)"/>
        <path id="Path_14873" data-name="Path 14873" d="M121.147,214.863l-3.223.859-.594-2.345,2.958-.749Z" transform="translate(-41.544 -75.286)"/>
        <rect id="Rectangle_874" data-name="Rectangle 874" width="4.12" height="2.968" transform="translate(68.79 139.384) rotate(-14.232)" fill="#fff"/>
        <path id="Path_14874" data-name="Path 14874" d="M104.122,196.738l-21.587,5.477c-1.053-2.849-2.125-5.716-3.171-8.513-.769-2.048-1.524-4.056-2.261-6q-.281-.746-.562-1.473c-.22-.581-.439-1.156-.652-1.718q-.717-1.889-1.382-3.637c-.413-1.085-.814-2.125-1.189-3.107q-.291-.756-.562-1.473c-.381-.995-.736-1.925-1.066-2.777l22.665-5.749c7.48,13.041,9.766,28.97,9.766,28.97" transform="translate(-25.384 -59.403)" fill="#263238"/>
        <path id="Path_14875" data-name="Path 14875" d="M82.935,170.482c2.334,1.113,6.638-.857,6.638-.857s1.428-1.576.576-2.274c-1.732.225-1.621-.34-2.248-1.227a5.013,5.013,0,0,1-.736-1.834,10.412,10.412,0,0,1-.178-1.094L80.2,160.76c1.545,2.493,3.939,7.215,2.737,9.722" transform="translate(-28.396 -56.921)" fill="#ebb376"/>
        <g id="Group_2247" data-name="Group 2247" transform="translate(53.871 106.065)" opacity="0.2" style="mix-blend-mode: normal;isolation: isolate">
          <g id="Group_2246" data-name="Group 2246">
            <g id="Group_2245" data-name="Group 2245" clip-path="url(#clip-path-7)">
              <path id="Path_14876" data-name="Path 14876" d="M83.4,164.206a4.914,4.914,0,0,0,5.633,3.14,5.012,5.012,0,0,1-.736-1.834Z" transform="translate(-83.402 -164.206)"/>
            </g>
          </g>
        </g>
        <path id="Path_14877" data-name="Path 14877" d="M94.33,145.079s1.773,5.362-.789,7.976-4.3-7.633-4.3-7.633Z" transform="translate(-31.597 -51.369)" fill="#263238"/>
        <path id="Path_14878" data-name="Path 14878" d="M82.7,158.579a5.068,5.068,0,0,0,6.066.96,5.725,5.725,0,0,0,2.91-3.7c.866-3.608.323-9.57-3.609-11.17a5.5,5.5,0,0,0-7.579,5.486c.232,4.007.18,6.374,2.212,8.423" transform="translate(-28.494 -51.075)" fill="#ebb376"/>
        <path id="Path_14879" data-name="Path 14879" d="M89.926,154.813c-.023.324.17.59.387.59s.386-.267.388-.592-.175-.592-.387-.591-.386.262-.388.593" transform="translate(-31.84 -54.606)" fill="#263238"/>
        <path id="Path_14880" data-name="Path 14880" d="M95.645,154.817c-.023.324.175.591.387.59s.386-.267.388-.592-.175-.591-.387-.59-.387.282-.388.592" transform="translate(-33.865 -54.607)" fill="#263238"/>
        <path id="Path_14881" data-name="Path 14881" d="M93.823,155.389a11.609,11.609,0,0,0,1.559,2.8,1.892,1.892,0,0,1-1.571.292Z" transform="translate(-33.216 -55.019)" fill="#d58745"/>
        <path id="Path_14882" data-name="Path 14882" d="M96.739,152.4a.2.2,0,0,1-.2-.017,1.545,1.545,0,0,0-1.362-.259.191.191,0,1,1-.137-.357h0a1.9,1.9,0,0,1,1.721.3.19.19,0,0,1,.05.265l0,0a.3.3,0,0,1-.071.06" transform="translate(-33.608 -53.706)" fill="#263238"/>
        <path id="Path_14883" data-name="Path 14883" d="M88.717,152.421a.184.184,0,0,1-.107-.037.191.191,0,0,1,.014-.269l0,0a1.9,1.9,0,0,1,1.694-.452.191.191,0,0,1,.131.236h0a.2.2,0,0,1-.236.131,1.544,1.544,0,0,0-1.336.379.2.2,0,0,1-.163.014" transform="translate(-31.357 -53.683)" fill="#263238"/>
        <path id="Path_14884" data-name="Path 14884" d="M82.4,145.646l.385.744c-1.3.495-.97,2.019-.67,2.7a4.819,4.819,0,0,1-1.192,4.777s-.066-.642-.6-.464-.229,3.524.906,5.074a10.457,10.457,0,0,1-2.741-4.849c-.99-3.216-1.222-5.924-.612-7.216Z" transform="translate(-27.454 -51.57)" fill="#263238"/>
        <path id="Path_14885" data-name="Path 14885" d="M77.669,157.085a3.82,3.82,0,0,0,2.188,1.933c1.269.427,1.973-.693,1.681-1.929-.269-1.1-1.247-2.675-2.553-2.553a1.7,1.7,0,0,0-1.316,2.549" transform="translate(-27.429 -54.715)" fill="#ebb376"/>
        <path id="Path_14886" data-name="Path 14886" d="M84.257,164.207c1.9,1.333,5.6,1.763,7.416-.65s1.233-6.275,1.233-6.275a6.018,6.018,0,0,1-1.16,2.361,2.565,2.565,0,0,0-2.77-.541,2.513,2.513,0,0,0-1.486-.933c-.846-.084-3.208.057-3.208.057-.767-.481-.795-2.641-.795-2.641l-.465.386s-.668,6.9,1.234,8.235" transform="translate(-29.356 -55.09)" fill="#263238"/>
        <path id="Path_14887" data-name="Path 14887" d="M87.455,144.465s4.5-2.194,3.985-4.387-1.849.306-1.849.306.608-1.667-.581-1.9-.8.759-1.436,1.4-6.91-.29-8.934.96-.475,5.589-.475,5.589a8.687,8.687,0,0,1,9.29-1.966" transform="translate(-27.475 -49.021)" fill="#263238"/>
        <g id="Group_2250" data-name="Group 2250" transform="translate(53.553 100.497)" opacity="0.2">
          <g id="Group_2249" data-name="Group 2249">
            <g id="Group_2248" data-name="Group 2248" clip-path="url(#clip-path-8)">
              <path id="Path_14888" data-name="Path 14888" d="M84.257,164.207c1.9,1.333,5.6,1.763,7.416-.65s1.233-6.275,1.233-6.275a6.018,6.018,0,0,1-1.16,2.361,2.565,2.565,0,0,0-2.77-.541,2.513,2.513,0,0,0-1.486-.933c-.846-.084-3.208.057-3.208.057-.767-.481-.795-2.641-.795-2.641l-.465.386s-.668,6.9,1.234,8.235" transform="translate(-82.909 -155.587)" fill="#fff"/>
            </g>
          </g>
        </g>
        <path id="Path_14889" data-name="Path 14889" d="M90.9,162.061a11.991,11.991,0,0,0-.937,1.465c-.1-.032-.194-.065-.289-.1-1.306-.471-1.756-1.121-1.86-1.7a1.79,1.79,0,0,1,.07-.845,1.749,1.749,0,0,1,.2-.441,6.548,6.548,0,0,0,2.371,1.454c.269.11.443.167.443.167" transform="translate(-31.083 -56.808)" fill="#263238"/>
        <path id="Path_14890" data-name="Path 14890" d="M90.5,161.894l-.287.425a4.135,4.135,0,0,1-2.286-1.437,1.735,1.735,0,0,1,.2-.441,6.554,6.554,0,0,0,2.372,1.453" transform="translate(-31.134 -56.808)" fill="#fff"/>
        <path id="Path_14891" data-name="Path 14891" d="M89.682,164.129c-1.306-.471-1.757-1.121-1.86-1.7a4.475,4.475,0,0,1,1.347.81,1.676,1.676,0,0,1,.513.888" transform="translate(-31.096 -57.513)" fill="#de5753"/>
        <path id="Path_14892" data-name="Path 14892" d="M93.286,174.5l-.38,3.344,6.976,14.863-.7,1.971-2.281-1.057-4.968-15.153-3.659-2.479,2.661-1.457Z" transform="translate(-31.258 -61.787)" fill="#407bff"/>
        <path id="Path_14893" data-name="Path 14893" d="M83.6,170.287l4.618,1.908.192-3.128,3.4.842.289,4.761-3.276-1.34-1.365,3.05-5.822-3.892Z" transform="translate(-28.906 -59.863)" fill="#263238"/>
        <g id="Group_2253" data-name="Group 2253" transform="translate(52.731 109.205)" opacity="0.2">
          <g id="Group_2252" data-name="Group 2252">
            <g id="Group_2251" data-name="Group 2251" clip-path="url(#clip-path-9)">
              <path id="Path_14894" data-name="Path 14894" d="M83.6,170.287l4.618,1.908.192-3.128,3.4.842.289,4.761-3.276-1.34-1.365,3.05-5.822-3.892Z" transform="translate(-81.637 -169.067)" fill="#fff"/>
            </g>
          </g>
        </g>
        <g id="Group_2256" data-name="Group 2256" transform="translate(47.372 116.746)" opacity="0.2" style="mix-blend-mode: normal;isolation: isolate">
          <g id="Group_2255" data-name="Group 2255">
            <g id="Group_2254" data-name="Group 2254" clip-path="url(#clip-path-10)">
              <path id="Path_14895" data-name="Path 14895" d="M76.473,189.1q-.717-1.889-1.382-3.637c-.413-1.085-.814-2.125-1.188-3.107q-.291-.756-.562-1.473a2.573,2.573,0,0,1,2.75.665c1.68,2.915.383,7.551.383,7.551" transform="translate(-73.34 -180.742)"/>
            </g>
          </g>
        </g>
        <g id="Group_2259" data-name="Group 2259" transform="translate(50.505 125.108)" opacity="0.2" style="mix-blend-mode: normal;isolation: isolate">
          <g id="Group_2258" data-name="Group 2258">
            <g id="Group_2257" data-name="Group 2257" clip-path="url(#clip-path-11)">
              <path id="Path_14896" data-name="Path 14896" d="M86.283,196.969a8.636,8.636,0,0,1-4.618,5.91c-.769-2.048-1.524-4.056-2.261-6q-.281-.746-.562-1.473c-.22-.581-.439-1.156-.652-1.718l7.48.95Z" transform="translate(-78.19 -193.688)"/>
            </g>
          </g>
        </g>
        <g id="Group_2262" data-name="Group 2262" transform="translate(69.43 111.866)" opacity="0.2" style="mix-blend-mode: normal;isolation: isolate">
          <g id="Group_2261" data-name="Group 2261">
            <g id="Group_2260" data-name="Group 2260" clip-path="url(#clip-path-12)">
              <path id="Path_14897" data-name="Path 14897" d="M114.7,178.168c-3.32-.711-6.782-1.705-6.782-1.705l-.433-3.275s6.1.652,7.215,4.98" transform="translate(-107.49 -173.188)"/>
            </g>
          </g>
        </g>
        <path id="Path_14898" data-name="Path 14898" d="M71.16,227.979a.969.969,0,0,1-.616-1.718c10.779-8.849,10.572-22.722,10.373-36.138-.15-10.116-.293-19.672,4.464-26.172,6.68-9.13,33.545-23.618,38-24.031,3.18-.318,100.311-27.312,151.226-41.542a.969.969,0,0,1,.522,1.867c-6.024,1.683-147.578,41.234-151.569,41.6-3.832.356-30.424,14.787-36.613,23.246-4.374,5.977-4.236,15.217-4.091,25,.2,13.229.42,28.222-11.08,37.664a.962.962,0,0,1-.614.22" transform="translate(-24.853 -34.821)" fill="#263238"/>
        <g id="Group_2265" data-name="Group 2265" transform="translate(45.337 63.522)" opacity="0.4" style="mix-blend-mode: normal;isolation: isolate">
          <g id="Group_2264" data-name="Group 2264">
            <g id="Group_2263" data-name="Group 2263" clip-path="url(#clip-path-13)">
              <path id="Path_14899" data-name="Path 14899" d="M275.128,100.245c-1.014.284-5.878,1.641-13.28,3.708-36.527,10.193-134.972,37.593-138.292,37.9-3.83.355-30.423,14.785-36.611,23.247-4.373,5.975-4.237,15.218-4.089,25,.194,13.229.42,28.227-11.084,37.664a.954.954,0,0,1-.614.22.967.967,0,0,1-.614-1.718c10.78-8.849,10.574-22.717,10.374-36.133-.155-10.115-.3-19.675,4.463-26.173,6.679-9.133,33.543-23.621,37.993-24.035,3-.3,89.047-24.183,141.638-38.859q5.019-1.4,9.592-2.681a.969.969,0,0,1,.523,1.867" transform="translate(-70.189 -98.343)" fill="#fff"/>
            </g>
          </g>
        </g>
        <g id="Group_2268" data-name="Group 2268" transform="translate(236.996 63.522)" opacity="0.2" style="mix-blend-mode: normal;isolation: isolate">
          <g id="Group_2267" data-name="Group 2267">
            <g id="Group_2266" data-name="Group 2266" clip-path="url(#clip-path-14)">
              <path id="Path_14900" data-name="Path 14900" d="M380.19,100.245c-1.014.284-5.878,1.641-13.28,3.708a17.308,17.308,0,0,1,3.165-2.894q5.019-1.4,9.592-2.681a.969.969,0,1,1,.523,1.867" transform="translate(-366.91 -98.343)"/>
            </g>
          </g>
        </g>
        <path id="Path_14901" data-name="Path 14901" d="M81.908,194.736l5.081-.442s2.649-1.677,3.164-1.572,5.569,2.568,5.569,2.568-2.3,2.947-2.675,3.565-4.951-2.282-4.951-2.282l-5.03.536Z" transform="translate(-29.002 -68.236)" fill="#ebb376"/>
        <path id="Path_14902" data-name="Path 14902" d="M67.46,176.663c-2.308,1.651-8.317,15.077-7.679,17.153S79.113,191.8,79.113,191.8l-.825-3.5H68.229l2.392-3.766s1.473-1.435.566-4.77c-.653-2.4-3.728-3.1-3.728-3.1" transform="translate(-21.15 -62.552)" fill="#263238"/>
      </g>
    </g>
    <g id="Group_2287" data-name="Group 2287">
      <g id="Group_2286" data-name="Group 2286" clip-path="url(#clip-path)">
        <path id="Path_14903" data-name="Path 14903" d="M367.921,175.35l-3.829-1.812a38.269,38.269,0,0,0-2.5-4.3c-.589-.589-3.314,1.71-3.314,2.107s1.988,4.152,2.5,4.373a7.938,7.938,0,0,0,2.32,0l3.645,1.765Z" transform="translate(-126.856 -59.889)" fill="#9f5b53"/>
        <path id="Path_14904" data-name="Path 14904" d="M385.724,137.694l.767-2.747s1.214-3.577,1.086-4.408a22,22,0,0,0-.922-2.872s-3.358,4.086-3.358,4.6a9.668,9.668,0,0,0,1.335,2.364L384,137.694Z" transform="translate(-135.716 -45.204)" fill="#9f5b53"/>
        <path id="Path_14905" data-name="Path 14905" d="M387.189,162.838a22.494,22.494,0,0,1-3.746-6.943c-.856-3.346,1.725-14.232,1.725-14.232l-2.721-.725s-3.2,11.116-3.336,15.174,5.92,15.958,5.92,15.958Z" transform="translate(-134.233 -49.903)" fill="#407bff"/>
        <g id="Group_2273" data-name="Group 2273" transform="translate(247.015 113.858)" opacity="0.2" style="mix-blend-mode: normal;isolation: isolate">
          <g id="Group_2272" data-name="Group 2272">
            <g id="Group_2271" data-name="Group 2271" clip-path="url(#clip-path-16)">
              <path id="Path_14906" data-name="Path 14906" d="M386.613,182.821l-.411,1.758s-2.081-4.1-3.781-8.308a10.575,10.575,0,0,1,3.816,5.109,8.5,8.5,0,0,1,.376,1.44" transform="translate(-382.421 -176.271)"/>
            </g>
          </g>
        </g>
        <path id="Path_14907" data-name="Path 14907" d="M400.915,182.709a15.6,15.6,0,0,1-.276,2.234c-.294,1.611-.8,3.516-1.376,5.615-.306,1.105-.617,2.287-.94,3.533a111.75,111.75,0,0,0-3.286,14.981l-20.443-4.85A98.422,98.422,0,0,1,379.62,186.3c.6-1.541,1.27-3.087,2-4.61a46.861,46.861,0,0,1,3.974-6.844s3.3,3.022,13.694,4.833c1.258.218,1.693,1.311,1.628,3.034" transform="translate(-132.634 -61.907)" fill="#407bff"/>
        <g id="Group_2276" data-name="Group 2276" transform="translate(246.986 118.313)" opacity="0.2" style="mix-blend-mode: normal;isolation: isolate">
          <g id="Group_2275" data-name="Group 2275">
            <g id="Group_2274" data-name="Group 2274" clip-path="url(#clip-path-17)">
              <path id="Path_14908" data-name="Path 14908" d="M401.1,183.342c-.023.658,2.451,3.72,2.3,4.549-.276.188-.605.394-.982.618-6.914,4.027-15.992,1.981-20.037.734.6-1.541,1.912-4.378,2.641-5.9l4.851,1.076s7.943-1.805,11.229-1.076" transform="translate(-382.376 -183.169)"/>
            </g>
          </g>
        </g>
        <path id="Path_14909" data-name="Path 14909" d="M397.42,176.739c.741-.282,6.842,1.236,6.389,1.366s-2.723,7.1-5.907,6.581-3.129-6.939-.482-7.947" transform="translate(-140.027 -62.567)" fill="#407bff"/>
        <path id="Path_14910" data-name="Path 14910" d="M352.421,348.873l-3.839.829-2.24-8.825,3.844-.831Z" transform="translate(-122.631 -120.402)" fill="#9f5b53"/>
        <path id="Path_14911" data-name="Path 14911" d="M344.33,352.518H349.1a.345.345,0,0,1,.335.27l.774,3.5a.58.58,0,0,1-.447.687.6.6,0,0,1-.127.012c-1.544-.025-2.668-.12-4.607-.12-1.194,0-4.8.125-6.446.125s-1.863-1.629-1.189-1.779c3.028-.659,5.307-1.574,6.276-2.444a.95.95,0,0,1,.66-.25" transform="translate(-119.336 -124.818)" fill="#263238"/>
        <path id="Path_14912" data-name="Path 14912" d="M345.794,353.038a1.173,1.173,0,0,1-.754-.2.549.549,0,0,1-.2-.5.28.28,0,0,1,.16-.26c.435-.225,1.7.554,1.843.645a.084.084,0,0,1,.045.09.1.1,0,0,1-.07.08,4.741,4.741,0,0,1-1.03.145m-.585-.815a.216.216,0,0,0-.12.025c-.025,0-.055.035-.06.11a.385.385,0,0,0,.125.335,1.909,1.909,0,0,0,1.4.07,3.823,3.823,0,0,0-1.344-.539" transform="translate(-122.099 -124.648)" fill="#407bff"/>
        <path id="Path_14913" data-name="Path 14913" d="M347.236,352.411h-.045c-.4-.22-1.19-1.085-1.11-1.5a.3.3,0,0,1,.3-.245.5.5,0,0,1,.4.119c.455.37.55,1.5.554,1.554a.1.1,0,0,1-.045.085.087.087,0,0,1-.05-.015m-.789-1.594H346.4c-.12,0-.13.07-.134.095-.05.254.45.909.854,1.214a2.2,2.2,0,0,0-.464-1.229.315.315,0,0,0-.21-.08" transform="translate(-122.537 -124.161)" fill="#407bff"/>
        <path id="Path_14914" data-name="Path 14914" d="M379.577,226.326s-3.31,15.8-11.065,20.043a8.264,8.264,0,0,1-2.869.97s-7.86,3.21-14.657,6.285a66.766,66.766,0,0,0-9.213,4.709c-3.54,2.7,5.133,44.743,5.133,44.743l-5.9.07s-12.393-37.234-10.3-47.006,24.306-24.735,24.306-24.735l3.428-9.412Z" transform="translate(-117.011 -78.602)" fill="#263238"/>
        <g id="Group_2279" data-name="Group 2279" transform="translate(233.975 161.758)" opacity="0.2" style="mix-blend-mode: normal;isolation: isolate">
          <g id="Group_2278" data-name="Group 2278">
            <g id="Group_2277" data-name="Group 2277" clip-path="url(#clip-path-18)">
              <path id="Path_14915" data-name="Path 14915" d="M379.759,256.437a8.254,8.254,0,0,1-2.869.97s-7.861,3.21-14.657,6.285c4.374-8.037,12.171-13.264,12.171-13.264Z" transform="translate(-362.232 -250.428)"/>
            </g>
          </g>
        </g>
        <path id="Path_14916" data-name="Path 14916" d="M428.881,348.873l-3.839.829-2.24-8.825,3.844-.831Z" transform="translate(-149.704 -120.402)" fill="#9f5b53"/>
        <path id="Path_14917" data-name="Path 14917" d="M420.79,352.518h4.772a.345.345,0,0,1,.335.27l.775,3.5a.58.58,0,0,1-.447.687.6.6,0,0,1-.127.012c-1.544-.025-2.668-.12-4.607-.12-1.194,0-4.8.125-6.446.125s-1.863-1.629-1.189-1.779c3.028-.659,5.307-1.574,6.276-2.444a.95.95,0,0,1,.659-.25" transform="translate(-146.409 -124.818)" fill="#263238"/>
        <path id="Path_14918" data-name="Path 14918" d="M422.254,353.038a1.173,1.173,0,0,1-.754-.2.55.55,0,0,1-.2-.5.28.28,0,0,1,.16-.26c.435-.225,1.7.554,1.844.645a.084.084,0,0,1,.045.09.1.1,0,0,1-.07.08,4.741,4.741,0,0,1-1.03.145m-.585-.815a.216.216,0,0,0-.12.025c-.025,0-.055.035-.06.11a.385.385,0,0,0,.125.335,1.909,1.909,0,0,0,1.4.07,3.823,3.823,0,0,0-1.344-.539" transform="translate(-149.172 -124.648)" fill="#407bff"/>
        <path id="Path_14919" data-name="Path 14919" d="M423.7,352.411h-.044c-.406-.22-1.19-1.085-1.11-1.5a.306.306,0,0,1,.3-.245.5.5,0,0,1,.4.119c.455.37.55,1.5.554,1.554a.1.1,0,0,1-.045.085.088.088,0,0,1-.05-.015m-.789-1.594h-.045c-.119,0-.129.07-.134.095-.05.254.45.909.855,1.214a2.207,2.207,0,0,0-.464-1.229.318.318,0,0,0-.211-.08" transform="translate(-149.609 -124.161)" fill="#407bff"/>
        <path id="Path_14920" data-name="Path 14920" d="M403.747,176.463c-.964.623-5.4.4-5.4.4l-2.09,2.249-.2-3.726s-1.391-.58-1.013-.981a3.639,3.639,0,0,0,2.675-.9,5.007,5.007,0,0,0,1.064-3.694c0-.016,0-.035,0-.05l.005,0,3.794-1.943,2.617-1.346c-1.21,2.672-2.974,7.663-1.458,9.994" transform="translate(-139.855 -58.943)" fill="#9f5b53"/>
        <g id="Group_2282" data-name="Group 2282" transform="translate(257.871 108.873)" opacity="0.2" style="mix-blend-mode: normal;isolation: isolate">
          <g id="Group_2281" data-name="Group 2281">
            <g id="Group_2280" data-name="Group 2280" clip-path="url(#clip-path-19)">
              <path id="Path_14921" data-name="Path 14921" d="M405.359,169.456a8.265,8.265,0,0,1-6.131,4.789,5.007,5.007,0,0,0,1.064-3.694.183.183,0,0,0,0-.055l3.794-1.943c-.005.521,1.46.418,1.269.9" transform="translate(-399.228 -168.554)"/>
            </g>
          </g>
        </g>
        <path id="Path_14922" data-name="Path 14922" d="M408.19,160.769s2.465,1.318,3.285-.251-.347-1.633.855-2.188,2.926-.946,2.532-2.115-1.612-1.312-.256-2.56,1.657-3.12-.373-3.472-1.255-1.915-1.36-2.606-1.241-1.1-2.475-.839-1.749-1.568-2.509-2.138-1.818.133-2.093.9-1.006-.258-2.1-.383-.829,1.013-1.169,2.079-1,.372-1.776,1.25-.845,6.875,7.435,12.32" transform="translate(-141.781 -51.126)" fill="#263238"/>
        <path id="Path_14923" data-name="Path 14923" d="M407.332,159.522c-1.849,2.909-2.9,4.826-4.981,5.767a6.186,6.186,0,0,1-.868.322c-4.045,1.189-7.374-2.705-6.307-6.559a12.777,12.777,0,0,1,.773-2.027c1.443-3.032,4.232-6.134,7.555-5.725a5.322,5.322,0,0,1,3.828,8.223" transform="translate(-139.85 -53.558)" fill="#9f5b53"/>
        <path id="Path_14924" data-name="Path 14924" d="M404.883,160.679c-.134.285-.423.42-.607.317s-.2-.408-.049-.685.428-.418.607-.318.2.4.049.685" transform="translate(-143.091 -56.638)" fill="#263238"/>
        <path id="Path_14925" data-name="Path 14925" d="M400.039,157.982c-.134.285-.428.418-.607.317s-.2-.408-.049-.685.428-.418.607-.318.194.422.048.685" transform="translate(-141.376 -55.683)" fill="#263238"/>
        <path id="Path_14926" data-name="Path 14926" d="M400.428,159.443a11.279,11.279,0,0,1-2.641,1.632,1.835,1.835,0,0,0,1.192.989Z" transform="translate(-140.847 -56.455)" fill="#892b29"/>
        <path id="Path_14927" data-name="Path 14927" d="M407.347,159.334a.2.2,0,0,1-.179-.076,1.5,1.5,0,0,0-1.179-.646.185.185,0,0,1-.02-.369h0a1.845,1.845,0,0,1,1.5.794.186.186,0,0,1-.034.26l0,0a.3.3,0,0,1-.083.034" transform="translate(-143.682 -56.03)" fill="#263238"/>
        <path id="Path_14928" data-name="Path 14928" d="M400.756,165.844h0a2.853,2.853,0,0,0,2.6-.431.1.1,0,0,0,.011-.139.1.1,0,0,0-.133-.016l-.006.005a2.734,2.734,0,0,1-2.415.389.1.1,0,0,0-.121.057l0,.01a.1.1,0,0,0,.057.121l.01,0" transform="translate(-141.872 -58.507)" fill="#263238"/>
        <path id="Path_14929" data-name="Path 14929" d="M400.015,154.109a.178.178,0,0,1-.008-.11.185.185,0,0,1,.245-.09h0a1.847,1.847,0,0,1,1.054,1.333.185.185,0,0,1-.16.207.19.19,0,0,1-.208-.16,1.5,1.5,0,0,0-.851-1.043.189.189,0,0,1-.076-.14" transform="translate(-141.631 -54.489)" fill="#263238"/>
        <path id="Path_14930" data-name="Path 14930" d="M404.12,150.4c.941.116,1.409,1.263,1.409,1.263a21.029,21.029,0,0,1,3.293,1.543,2.223,2.223,0,0,1,.764,2.214c-.037.31-.793.592-.793.592s-1.4,3.292-1.778,4.206l.191,3.039a16.1,16.1,0,0,0,5.925-6.668c2.2-4.589-6.988-8.623-6.988-8.623Z" transform="translate(-143.089 -52.393)" fill="#263238"/>
        <path id="Path_14931" data-name="Path 14931" d="M411.2,169.458a3.7,3.7,0,0,1-2.814.3c-1.243-.373-1.173-1.654-.251-2.469.827-.716,2.486-1.418,3.45-.59a1.653,1.653,0,0,1-.386,2.755" transform="translate(-144.266 -58.893)" fill="#9f5b53"/>
        <path id="Path_14932" data-name="Path 14932" d="M402.128,178.123l-5.137,1.478-2.214,3,.6-3.672s-.554-.847.357-2.171l-3.127.645-1.885,3.157,3.668-.865.257,3.666,2.135-2.518,1.752,2.761,5.2-3.3Z" transform="translate(-138.347 -62.585)" fill="#407bff"/>
        <g id="Group_2285" data-name="Group 2285" transform="translate(252.38 114.172)" opacity="0.2" style="mix-blend-mode: normal;isolation: isolate">
          <g id="Group_2284" data-name="Group 2284">
            <g id="Group_2283" data-name="Group 2283" clip-path="url(#clip-path-20)">
              <path id="Path_14933" data-name="Path 14933" d="M402.128,178.123l-5.137,1.478-2.214,3,.6-3.672s-.554-.847.357-2.171l-3.127.645-1.885,3.157,3.668-.865.257,3.666,2.135-2.518,1.752,2.761,5.2-3.3Z" transform="translate(-390.727 -176.757)"/>
            </g>
          </g>
        </g>
        <path id="Path_14934" data-name="Path 14934" d="M374.573,217.053l-.8,3.19,21.136,4.333.313-3.546Z" transform="translate(-132.343 -76.853)"/>
        <path id="Path_14935" data-name="Path 14935" d="M386.279,219.1c-.168-.237-4.87-1.248-5.313-.913a18.964,18.964,0,0,0-.759,3.475c.155.328,4.733.97,5.157,1.057s1.083-3.383.915-3.62m-1.29,3.2c-.349-.072-4.111-.6-4.239-.869a15.636,15.636,0,0,1,.624-2.856c.364-.275,4.228.555,4.366.751s-.4,3.046-.752,2.974" transform="translate(-134.616 -77.229)" fill="#fff"/>
        <path id="Path_14936" data-name="Path 14936" d="M387.153,221.189l-.931-.191a.347.347,0,0,0-.4.242l0,.014a.348.348,0,0,0,.269.441l.935.176a.348.348,0,0,0,.134-.683" transform="translate(-136.602 -78.247)" fill="#fff"/>
        <path id="Path_14937" data-name="Path 14937" d="M397.179,228.7s.4,23.91-.265,30.874,16.724,45.155,16.724,45.155H408s-17.082-27.954-21-36.561-6.807-29.127-6.807-29.127Z" transform="translate(-134.616 -80.977)" fill="#263238"/>
        <path id="Path_14938" data-name="Path 14938" d="M398.823,181.7c-.873-1.974-14.263.953-15.472.608s-13.779-5.609-13.779-5.609l-1.088,2.82s11.273,6.464,13.735,7.477,12.333.529,14.832-.559a3.487,3.487,0,0,0,1.772-4.736" transform="translate(-130.471 -62.566)" fill="#407bff"/>
      </g>
    </g>
    <g id="Group_2295" data-name="Group 2295">
      <g id="Group_2294" data-name="Group 2294" clip-path="url(#clip-path)">
        <path id="Path_14939" data-name="Path 14939" d="M300.106,90.8l-4.056-25.854L274.682,80.058l7.123,3.01c-6.862,15.722-29.114,61.782-67.4,95.744C165.491,222.2,97.063,243.544,96.378,243.754l3.788,12.351c2.905-.891,71.747-22.331,122.812-67.629,40.691-36.1,63.574-83.7,70.755-100.369Z" transform="translate(-34.125 -22.996)" fill="#407bff"/>
        <g id="Group_2290" data-name="Group 2290" transform="translate(62.253 41.95)" opacity="0.4" style="mix-blend-mode: normal;isolation: isolate">
          <g id="Group_2289" data-name="Group 2289">
            <g id="Group_2288" data-name="Group 2288" clip-path="url(#clip-path-22)">
              <path id="Path_14940" data-name="Path 14940" d="M296.23,86.279l-.181-21.333L274.682,80.058l7.123,3.01c-6.862,15.722-29.114,61.782-67.4,95.744C165.491,222.2,97.063,243.544,96.378,243.754l1.2,7.83c2.905-.891,71.747-20.393,122.812-65.691,40.691-36.1,62.283-84.35,69.463-101.015Z" transform="translate(-96.378 -64.945)" fill="#fff"/>
            </g>
          </g>
        </g>
        <path id="Path_14941" data-name="Path 14941" d="M392.667,103.409a.96.96,0,0,1-.3-.047l-12.411-4.01a.969.969,0,0,1,.6-1.843l12.411,4.009a.969.969,0,0,1-.3,1.891" transform="translate(-134.296 -34.509)" fill="#263238"/>
        <g id="Group_2293" data-name="Group 2293" transform="translate(244.99 62.952)" opacity="0.4" style="mix-blend-mode: normal;isolation: isolate">
          <g id="Group_2292" data-name="Group 2292">
            <g id="Group_2291" data-name="Group 2291" clip-path="url(#clip-path-23)">
              <path id="Path_14942" data-name="Path 14942" d="M392.667,103.409a.96.96,0,0,1-.3-.047l-12.411-4.01a.969.969,0,0,1,.6-1.843l12.411,4.009a.969.969,0,0,1-.3,1.891" transform="translate(-379.286 -97.461)" fill="#fff"/>
            </g>
          </g>
        </g>
      </g>
    </g>
    <g id="Group_2312" data-name="Group 2312">
      <g id="Group_2311" data-name="Group 2311" clip-path="url(#clip-path)">
        <path id="Path_14943" data-name="Path 14943" d="M169.4,227.356a.969.969,0,0,1-.969-.969c0-30.835,8.956-34.891,10.638-35.379l28.51-19.924c.02-.014.04-.027.061-.039l109.408-64.889a.969.969,0,0,1,.988,1.666L208.662,172.693l-28.627,20a.96.96,0,0,1-.4.162c-.073.016-9.263,2.266-9.263,33.527a.969.969,0,0,1-.969.969" transform="translate(-59.638 -37.539)" fill="#263238"/>
        <g id="Group_2298" data-name="Group 2298" transform="translate(108.795 68.481)" opacity="0.4" style="mix-blend-mode: normal;isolation: isolate">
          <g id="Group_2297" data-name="Group 2297">
            <g id="Group_2296" data-name="Group 2296" clip-path="url(#clip-path-25)">
              <path id="Path_14944" data-name="Path 14944" d="M169.4,227.356a.969.969,0,0,1-.969-.969c0-30.835,8.956-34.891,10.638-35.379l28.51-19.924c.02-.014.04-.027.061-.039l109.408-64.889a.969.969,0,0,1,.988,1.666L208.662,172.693l-28.627,20a.96.96,0,0,1-.4.162c-.073.016-9.263,2.266-9.263,33.527a.969.969,0,0,1-.969.969" transform="translate(-168.433 -106.02)" fill="#fff"/>
            </g>
          </g>
        </g>
        <path id="Path_14945" data-name="Path 14945" d="M174.226,240.539s-4.98,3.21-8.765,4.2a5.442,5.442,0,0,1-2.9.161c-2.816-.891-1.143-6.343.536-9.786.271-.562.543-1.066.794-1.492l4.922,3.042s-2.984,4.257-2.642,4.509,4.941-2.3,5.193-2.383a18.168,18.168,0,0,1,2.861,1.744" transform="translate(-57.023 -82.722)" fill="#407bff"/>
        <g id="Group_2301" data-name="Group 2301" transform="translate(106.074 150.906)" opacity="0.2" style="mix-blend-mode: normal;isolation: isolate">
          <g id="Group_2300" data-name="Group 2300">
            <g id="Group_2299" data-name="Group 2299" clip-path="url(#clip-path-26)">
              <path id="Path_14946" data-name="Path 14946" d="M175.349,240.539s-4.98,3.21-8.765,4.2a60.29,60.29,0,0,1-2.364-9.624c.271-.562.543-1.066.794-1.492l4.922,3.042s-2.984,4.257-2.642,4.509,4.941-2.3,5.193-2.383a18.167,18.167,0,0,1,2.861,1.744" transform="translate(-164.22 -233.628)"/>
            </g>
          </g>
        </g>
        <path id="Path_14947" data-name="Path 14947" d="M219.022,212.362l2.919-2.606a9.665,9.665,0,0,1,.938-2.085,48.4,48.4,0,0,1,5.629-.678s.1,2.814-.313,3.544-4.762,1.043-4.762,1.043l-2.326,2.241Z" transform="translate(-77.55 -73.292)" fill="#eec1bb"/>
        <path id="Path_14948" data-name="Path 14948" d="M226.2,294.7c-.833,11.988-3.062,29-3.062,29l-2.868.633a148.668,148.668,0,0,1-2.228-27.458,63.247,63.247,0,0,1,.814-8.6s-9.934-3.817-16.833-7.234c-3.294-1.628-5.9-3.171-6.395-4.166-1.537-3.068,5.452-10.277,5.452-10.277.22.174,4.438,2.861,9.347,6.046,6.517,4.224,14.249,9.327,15.515,10.6.736.743.672,5.471.258,11.452" transform="translate(-69.189 -94.396)" fill="#eec1bb"/>
        <g id="Group_2304" data-name="Group 2304" transform="translate(132.834 178.248)" opacity="0.2" style="mix-blend-mode: normal;isolation: isolate">
          <g id="Group_2303" data-name="Group 2303">
            <g id="Group_2302" data-name="Group 2302" clip-path="url(#clip-path-27)">
              <path id="Path_14949" data-name="Path 14949" d="M229.827,298.01a48.541,48.541,0,0,1-8.158,2.177,63.242,63.242,0,0,1,.814-8.6s-9.934-3.817-16.833-7.234l8.4-8.4c6.517,4.224,14.249,9.327,15.515,10.6.736.743.672,5.471.258,11.452" transform="translate(-205.65 -275.958)"/>
            </g>
          </g>
        </g>
        <path id="Path_14950" data-name="Path 14950" d="M208.461,263.52s27.562,15.843,31.31,19.42,25.371,37.021,25.371,37.021l-1.821,1.738s-17.961-15.417-25.119-30.072l-29.741-14.355Z" transform="translate(-73.811 -93.306)" fill="#eec1bb"/>
        <path id="Path_14951" data-name="Path 14951" d="M173.879,210.513a.783.783,0,0,0,.141.076,5.918,5.918,0,0,0,2.2.719c2.247.2,3.692-.307,4.524-1.428h.005c1.152-1.666,1.126-4.331.493-7.46a11.968,11.968,0,0,0-1.2-3.59c-.006-.01-.012-.046-.017-.055-.025-.037-.048-.09-.073-.126a4.35,4.35,0,0,0-3.533-2.187,8.819,8.819,0,0,0-1.9.051c-6.163.8-5.846,11.145-.638,14" transform="translate(-60.169 -69.551)" fill="#eec1bb"/>
        <g id="Group_2307" data-name="Group 2307" transform="translate(113.851 140.156)" opacity="0.2" style="mix-blend-mode: normal;isolation: isolate">
          <g id="Group_2306" data-name="Group 2306">
            <g id="Group_2305" data-name="Group 2305" clip-path="url(#clip-path-28)">
              <path id="Path_14952" data-name="Path 14952" d="M176.261,217.866a5.769,5.769,0,0,0,2.186.633c2.247.2,3.682-.379,4.512-1.514a6.192,6.192,0,0,1-3.949.225,3.233,3.233,0,0,0-2.75.656" transform="translate(-176.261 -216.985)"/>
            </g>
          </g>
        </g>
        <path id="Path_14953" data-name="Path 14953" d="M175.388,222.355c-.537,1.729,1.681,2.65,1.681,2.65,3.876-1.264,4.744-3.188,4.744-3.188-2.971-1.9-1.662-6.415-1.662-6.415l-.661.256-4.525.476s1.024,2.477,1.14,3.032c0,0,0,.01,0,.015.587,2.9-.721,3.175-.721,3.175" transform="translate(-61.951 -76.268)" fill="#ebb376"/>
        <path id="Path_14954" data-name="Path 14954" d="M178.194,198.018a6.534,6.534,0,0,1-2.888,6.694s-1.13,4.729-3.706,5.154c-3.513.579-7.32-4-6.813-9.281.658-6.846,10.618-8.787,13.407-2.566" transform="translate(-58.331 -68.782)" fill="#263238"/>
        <path id="Path_14955" data-name="Path 14955" d="M182.634,207.263c-.095-.673-.8-1.728-1.82-1.428-1.061.31-1.288,3.064,1.457,3.288.394.032.563-.456.362-1.86" transform="translate(-63.761 -72.863)" fill="#ebb376"/>
        <path id="Path_14956" data-name="Path 14956" d="M292.65,346.548l-2.973,2.291a.343.343,0,0,0-.1.416l1.514,3.226a.577.577,0,0,0,.769.27.587.587,0,0,0,.109-.068c1.2-.957,1.241-1.108,2.769-2.285.941-.725,3.856-2.815,5.155-3.816s.479-2.416-.143-2.124c-2.787,1.32-5.137,1.983-6.429,1.887a.941.941,0,0,0-.672.2" transform="translate(-102.521 -121.95)" fill="#263238"/>
        <path id="Path_14957" data-name="Path 14957" d="M295.282,346.669a.093.093,0,0,1-.1-.021.084.084,0,0,1-.019-.1c.056-.156.582-1.541,1.061-1.628a.277.277,0,0,1,.284.108.548.548,0,0,1,.151.512,1.17,1.17,0,0,1-.473.616,4.662,4.662,0,0,1-.9.511m.134-.266a1.9,1.9,0,0,0,1.06-.9.382.382,0,0,0-.1-.34c-.05-.056-.094-.065-.114-.05a.217.217,0,0,0-.11.054,3.8,3.8,0,0,0-.731,1.241" transform="translate(-104.506 -122.126)" fill="#407bff"/>
        <path id="Path_14958" data-name="Path 14958" d="M295.006,346.582a.1.1,0,0,1-.087-.039c-.03-.047-.641-.994-.507-1.561a.5.5,0,0,1,.238-.335.3.3,0,0,1,.385.011c.315.278.222,1.436.036,1.855l-.035.027a.086.086,0,0,1-.03.042M294.573,345a2.194,2.194,0,0,0,.38,1.251,2.151,2.151,0,0,0-.064-1.476c-.019-.017-.07-.066-.164.007l-.036.027a.319.319,0,0,0-.117.191" transform="translate(-104.237 -122.009)" fill="#407bff"/>
        <path id="Path_14959" data-name="Path 14959" d="M236.5,352l-3.752.075a.343.343,0,0,0-.327.275l-.7,3.494a.576.576,0,0,0,.459.674.556.556,0,0,0,.127.01c1.535-.056,1.657-.152,3.585-.191,1.188-.024,4.774.029,6.415,0s1.822-1.657,1.147-1.793c-3.025-.6-5.309-1.46-6.291-2.306A.943.943,0,0,0,236.5,352" transform="translate(-82.041 -124.636)" fill="#263238"/>
        <path id="Path_14960" data-name="Path 14960" d="M239.6,352.206a.1.1,0,0,1-.072-.078.085.085,0,0,1,.043-.09c.138-.092,1.384-.893,1.821-.678a.278.278,0,0,1,.165.255.548.548,0,0,1-.184.5,1.17,1.17,0,0,1-.747.214,4.657,4.657,0,0,1-1.026-.124m.265-.134a1.9,1.9,0,0,0,1.39-.1.382.382,0,0,0,.118-.335c-.006-.075-.037-.109-.062-.108a.214.214,0,0,0-.12-.022,3.8,3.8,0,0,0-1.326.563" transform="translate(-84.809 -124.395)" fill="#407bff"/>
        <path id="Path_14961" data-name="Path 14961" d="M239.572,351.752a.1.1,0,0,1-.046-.083c0-.055.076-1.18.521-1.557a.5.5,0,0,1,.39-.127.3.3,0,0,1,.3.238c.088.411-.675,1.286-1.074,1.513h-.045a.085.085,0,0,1-.05.016m.6-1.533a2.192,2.192,0,0,0-.438,1.232c.4-.311.88-.972.826-1.225-.006-.025-.017-.094-.136-.092h-.045a.318.318,0,0,0-.207.084" transform="translate(-84.81 -123.92)" fill="#407bff"/>
        <path id="Path_14962" data-name="Path 14962" d="M192.463,243.433l-13.674,5.742c-5.652-14.049-13.338-20.805-13.338-20.805,5.477-6.569,15.593-9.592,15.593-9.592a17.976,17.976,0,0,1,3.817,4.289,38.438,38.438,0,0,1,2.971,5.548,78.164,78.164,0,0,1,4.631,14.817" transform="translate(-58.582 -77.464)" fill="#407bff"/>
        <path id="Path_14963" data-name="Path 14963" d="M174.661,199.9s4.3-4.38.178-7.263-8.2.968-8.2.968-9.772,2.458-7.625,8.949,3.514,7.033.444,10.4-6.192,8.347-2.992,11.477,14.249-.226,17.567-5.031-2.723-14.991.624-19.5" transform="translate(-54.926 -67.828)" fill="#263238"/>
        <path id="Path_14964" data-name="Path 14964" d="M197.6,250.428l-14.843,5.1s3.282,16.179,5.667,18.883,18.32,15.237,20.574,14.252,17.2-14.252,17.2-14.252l-25.3-17.348Z" transform="translate(-64.709 -88.67)" fill="#263238"/>
        <path id="Path_14965" data-name="Path 14965" d="M202.047,253.708l3.155-1.046-.779-1.569-2.991,1.053Z" transform="translate(-71.322 -88.906)"/>
        <path id="Path_14966" data-name="Path 14966" d="M185.988,257.537l-3.234,1.139.427,1.378,3.166-1.05Z" transform="translate(-64.709 -91.188)"/>
        <path id="Path_14967" data-name="Path 14967" d="M189.14,257.188l7.765-2.576-.576-1.562-7.616,2.682Z" transform="translate(-66.819 -89.599)"/>
        <g id="Group_2310" data-name="Group 2310" transform="translate(124.14 145.603)" opacity="0.2" style="mix-blend-mode: normal;isolation: isolate">
          <g id="Group_2309" data-name="Group 2309">
            <g id="Group_2308" data-name="Group 2308" clip-path="url(#clip-path-29)">
              <path id="Path_14968" data-name="Path 14968" d="M197.3,230.966c-3.268-.381-5.109-5.3-5.109-5.3a17.877,17.877,0,0,1,2.138-.252,38.44,38.44,0,0,1,2.971,5.548" transform="translate(-192.19 -225.418)"/>
            </g>
          </g>
        </g>
        <path id="Path_14969" data-name="Path 14969" d="M189.49,216.709c3.551-.527,11.5,2.352,12.189,2.318s8.425-6.088,8.425-6.088l2,1.763s-8.075,8.33-9.737,8.419-10.349-.558-10.349-.558a4.155,4.155,0,0,1-2.529-2.674,6.657,6.657,0,0,1,0-3.179" transform="translate(-67.029 -75.396)" fill="#407bff"/>
      </g>
    </g>
  </g>
</svg>
