<svg xmlns="http://www.w3.org/2000/svg" xmlns:xlink="http://www.w3.org/1999/xlink" width="100" height="98.674" viewBox="0 0 100 98.674">
  <defs>
    <clipPath id="clip-path">
      <rect id="Rectangle_654" data-name="Rectangle 654" width="100" height="98.674" fill="none"/>
    </clipPath>
  </defs>
  <g id="Group_1446" data-name="Group 1446" transform="translate(0 -0.001)">
    <g id="Group_1445" data-name="Group 1445" transform="translate(0 0.001)" clip-path="url(#clip-path)">
      <path id="Path_13238" data-name="Path 13238" d="M6.632,591.71a.67.67,0,0,1-.594-.348,49.346,49.346,0,0,1-2.345-4.9.67.67,0,0,1,1.238-.511,48.018,48.018,0,0,0,2.281,4.765.67.67,0,0,1-.594.992Zm-4.078-9.886a.67.67,0,0,1-.643-.486A49.127,49.127,0,0,1,.7,576.045a.67.67,0,0,1,1.32-.226,47.785,47.785,0,0,0,1.176,5.15.671.671,0,0,1-.645.855Zm-1.8-10.544a.67.67,0,0,1-.668-.631C.03,569.677,0,568.691,0,567.717c0-.832.021-1.674.062-2.5a.67.67,0,0,1,1.337.067c-.039.8-.062,1.625-.062,2.434,0,.947.028,1.907.083,2.85a.67.67,0,0,1-.63.708Zm.541-10.692a.651.651,0,0,1-.107,0,.67.67,0,0,1-.554-.768A49.155,49.155,0,0,1,1.8,554.515a.67.67,0,1,1,1.29.359,47.8,47.8,0,0,0-1.13,5.16.67.67,0,0,1-.662.554ZM4.16,550.283a.67.67,0,0,1-.621-.921,49.349,49.349,0,0,1,2.3-4.918.67.67,0,1,1,1.181.634,47.96,47.96,0,0,0-2.239,4.789.67.67,0,0,1-.624.42Z" transform="translate(0 -518.38)" fill="#00608c"/>
      <path id="Path_13239" data-name="Path 13239" d="M720.166,1849.322a49.784,49.784,0,0,1-5.049-.255.672.672,0,1,1,.137-1.336,48.7,48.7,0,0,0,4.909.249h.37a.67.67,0,0,1,.011,1.337Zm5.72-.334a.67.67,0,0,1-.077-1.337,47.933,47.933,0,0,0,5.2-.906.67.67,0,1,1,.3,1.306,49.123,49.123,0,0,1-5.346.931C725.934,1848.985,725.91,1848.987,725.887,1848.988Zm-15.991-.756a.69.69,0,0,1-.148-.015,49.006,49.006,0,0,1-5.2-1.422.67.67,0,1,1,.425-1.271,47.8,47.8,0,0,0,5.049,1.384.67.67,0,0,1-.141,1.325Zm26.408-1.662a.669.669,0,0,1-.223-1.3,47.93,47.93,0,0,0,4.877-2.03.67.67,0,1,1,.582,1.207,49.275,49.275,0,0,1-5.013,2.087.671.671,0,0,1-.22.04Zm9.635-4.65a.67.67,0,0,1-.356-1.237,48.339,48.339,0,0,0,4.315-3.047.67.67,0,0,1,.832,1.05,49.776,49.776,0,0,1-4.436,3.132.667.667,0,0,1-.352.1Z" transform="translate(-670.829 -1750.648)" fill="#00608c"/>
      <path id="Path_13240" data-name="Path 13240" d="M1039.062,31.2a.67.67,0,0,1-.618-.411,47.5,47.5,0,0,0-2.309-4.752.67.67,0,0,1,1.17-.652,49.034,49.034,0,0,1,2.376,4.884.67.67,0,0,1-.618.93Zm-5.2-9.345a.67.67,0,0,1-.546-.281,48.6,48.6,0,0,0-3.3-4.128.67.67,0,0,1,1-.891,49.806,49.806,0,0,1,3.384,4.24.67.67,0,0,1-.545,1.059Zm-7.128-7.986a.667.667,0,0,1-.445-.172,48.642,48.642,0,0,0-4.106-3.323.67.67,0,0,1,.784-1.085,49.933,49.933,0,0,1,4.22,3.416.67.67,0,0,1-.445,1.167ZM1018.064,7.6a.668.668,0,0,1-.33-.088A47.555,47.555,0,0,0,1013,5.172a.67.67,0,0,1,.526-1.233,48.959,48.959,0,0,1,4.868,2.409.67.67,0,0,1-.331,1.253Zm-9.831-4.2a.671.671,0,0,1-.193-.028,47.835,47.835,0,0,0-5.135-1.239.67.67,0,1,1,.242-1.317,49.21,49.21,0,0,1,5.279,1.273.67.67,0,0,1-.193,1.311ZM997.711,1.47h-.049c-1.16-.085-2.342-.134-3.511-.134-.594,0-1.188.01-1.773.033A.67.67,0,0,1,992.33.033c.6-.018,1.216-.033,1.822-.033,1.2,0,2.415.043,3.607.129a.67.67,0,0,1-.047,1.337Z" transform="translate(-944.815 -0.003)" fill="#00608c"/>
      <path id="Path_13241" data-name="Path 13241" d="M220.349,259.277A38.922,38.922,0,1,1,259.271,298.2a38.923,38.923,0,0,1-38.922-38.922" transform="translate(-209.935 -209.94)" fill="#79eff7"/>
      <path id="Path_13242" data-name="Path 13242" d="M328.483,116.084a6.738,6.738,0,0,0-1.782.242v-.242a6.13,6.13,0,0,0-8.264-5.746,6.129,6.129,0,0,0-11.307-.743,6.129,6.129,0,0,0-10.334,3.1,6.665,6.665,0,0,0-7.189,10.772,6.651,6.651,0,0,0,4.909,12.188,6.34,6.34,0,1,0,12.633-.884,6.341,6.341,0,0,0,8.723-2.915,6.343,6.343,0,0,0,9.752-2.942,6.738,6.738,0,1,0,2.857-12.838" transform="translate(-272.841 -101.155)" fill="#fff"/>
      <path id="Path_13243" data-name="Path 13243" d="M300.846,93.8A6.709,6.709,0,0,1,307,97.824a6.717,6.717,0,0,1,8.485,5.988,7.321,7.321,0,1,1-1.326,14.087,6.947,6.947,0,0,1-6.285,4.01,6.865,6.865,0,0,1-3.573-.99,6.925,6.925,0,0,1-8.307,2.985,6.925,6.925,0,0,1-13.8.658,7.235,7.235,0,0,1-5.239-13,7.251,7.251,0,0,1,7.64-11.39,6.737,6.737,0,0,1,6.418-4.737,6.663,6.663,0,0,1,4.177,1.457A6.666,6.666,0,0,1,300.846,93.8Zm5.8,5.336a.585.585,0,0,1-.554-.4,5.544,5.544,0,0,0-10.229-.668.585.585,0,0,1-.937.148,5.545,5.545,0,0,0-9.356,2.807.585.585,0,0,1-.774.432,6.08,6.08,0,0,0-6.558,9.828.585.585,0,0,1-.129.891,6.074,6.074,0,0,0,4.477,11.123.585.585,0,0,1,.714.557,5.755,5.755,0,1,0,11.482-.8.585.585,0,0,1,.855-.584,5.757,5.757,0,0,0,7.918-2.648.585.585,0,0,1,.879-.221,5.708,5.708,0,0,0,3.435,1.138,5.771,5.771,0,0,0,5.417-3.808.585.585,0,0,1,.8-.331,6.153,6.153,0,1,0,.976-11.5.585.585,0,0,1-.742-.587v-.218a5.547,5.547,0,0,0-7.476-5.2.586.586,0,0,1-.2.042Z" transform="translate(-261.055 -89.369)" fill="#00608c"/>
      <path id="Path_13244" data-name="Path 13244" d="M456.613,604.051h-.059a.585.585,0,0,1-.523-.64,4.813,4.813,0,0,1,3.564-4.158.585.585,0,0,1,.3,1.132,3.638,3.638,0,0,0-2.7,3.143A.585.585,0,0,1,456.613,604.051Z" transform="translate(-434.474 -570.909)" fill="#00608c"/>
      <path id="Path_13245" data-name="Path 13245" d="M464.465,557.788a.583.583,0,0,1-.453-.215,4.763,4.763,0,0,1-1.054-3.514.585.585,0,1,1,1.163.118,3.6,3.6,0,0,0,.8,2.656.585.585,0,0,1-.445.955Z" transform="translate(-441.052 -527.371)" fill="#00608c"/>
      <path id="Path_13246" data-name="Path 13246" d="M525.506,262.674a.585.585,0,0,1-.572-.711,2.821,2.821,0,0,0-2.143-3.361.585.585,0,0,1,.253-1.142,3.987,3.987,0,0,1,3.032,4.752.585.585,0,0,1-.57.462Z" transform="translate(-497.645 -245.279)" fill="#00608c"/>
      <path id="Path_13247" data-name="Path 13247" d="M566.711,274.9a.585.585,0,0,1-.315-1.078,3.96,3.96,0,0,1,3.006-.532.585.585,0,0,1-.252,1.142,2.8,2.8,0,0,0-2.123.376A.582.582,0,0,1,566.711,274.9Z" transform="translate(-539.369 -260.28)" fill="#00608c"/>
      <path id="Path_13248" data-name="Path 13248" d="M1042.212,339.862a.585.585,0,0,1-.583-.551,4.813,4.813,0,0,1,2.868-4.669.585.585,0,1,1,.468,1.072,3.639,3.639,0,0,0-2.168,3.53.585.585,0,0,1-.55.618Z" transform="translate(-992.391 -318.779)" fill="#00608c"/>
      <path id="Path_13249" data-name="Path 13249" d="M1031.6,302.832a.584.584,0,0,1-.389-.148,4.76,4.76,0,0,1-1.6-3.3.585.585,0,0,1,1.167-.067,3.6,3.6,0,0,0,1.207,2.5.585.585,0,0,1-.388,1.022Z" transform="translate(-980.954 -284.642)" fill="#00608c"/>
      <path id="Path_13250" data-name="Path 13250" d="M865.077,751.659a3.11,3.11,0,1,1-3.11-3.11,3.11,3.11,0,0,1,3.11,3.11" transform="translate(-818.268 -713.172)" fill="#fff"/>
      <path id="Ellipse_102" data-name="Ellipse 102" d="M-8.677-12.371A3.7,3.7,0,0,1-4.989-8.676,3.7,3.7,0,0,1-8.677-4.989,3.7,3.7,0,0,1-12.37-8.682,3.7,3.7,0,0,1-8.677-12.371Zm0,6.218A2.525,2.525,0,0,0-6.152-8.678,2.525,2.525,0,0,0-8.677-11.2,2.525,2.525,0,0,0-11.2-8.678,2.525,2.525,0,0,0-8.677-6.152Z" transform="translate(52.378 47.164)" fill="#00608c"/>
      <path id="Path_13251" data-name="Path 13251" d="M992.162,956.533a1.755,1.755,0,1,1-1.755-1.755,1.755,1.755,0,0,1,1.755,1.755" transform="translate(-941.925 -909.652)" fill="#fff"/>
      <path id="Ellipse_103" data-name="Ellipse 103" d="M-10.031-12.37a2.343,2.343,0,0,1,2.34,2.34,2.343,2.343,0,0,1-2.34,2.34,2.343,2.343,0,0,1-2.34-2.34,2.343,2.343,0,0,1,2.34-2.34Zm0,3.511a1.172,1.172,0,0,0,1.17-1.17,1.172,1.172,0,0,0-1.17-1.17,1.172,1.172,0,0,0-1.17,1.17,1.172,1.172,0,0,0,1.17,1.17Z" transform="translate(58.512 56.912)" fill="#00608c"/>
      <path id="Path_13252" data-name="Path 13252" d="M592.983,314.879l-9.415,10.053a.211.211,0,0,1-.321.022l-7.186-5.985,2.127-2.505,4.8,3.956a.211.211,0,0,0,.32-.022l7.657-8.245Z" transform="translate(-548.833 -297.4)" fill="#bdfeff"/>
      <path id="Path_13253" data-name="Path 13253" d="M579.181,299.783h.033a.585.585,0,0,1,.438.236l2.015,2.725a.585.585,0,0,1-.043.742l-9.4,10.039a.8.8,0,0,1-1.151.073l-7.171-5.971a.585.585,0,0,1-.071-.827l2.126-2.505a.585.585,0,0,1,.817-.073l4.55,3.747,7.425-8A.585.585,0,0,1,579.181,299.783Zm1.255,3.267-1.307-1.767-7.164,7.722a.8.8,0,0,1-1.149.076l-4.344-3.577-1.372,1.616,6.475,5.388Z" transform="translate(-537.047 -285.614)" fill="#00608c"/>
      <path id="Path_13254" data-name="Path 13254" d="M1307.049,824.253V811.537l-.119-.136q-.661-.548-1.265-1.157l-3.751-5.6a18.029,18.029,0,0,1-.476-12.535,16.718,16.718,0,0,1,1.064-2.6l9.849-8.408.282-.089a17.8,17.8,0,0,1,19.571,5.989l2.945,5.716,3.22,11.357a1.125,1.125,0,0,1-1.09,1.405h-3.369l.014,6.791a3.581,3.581,0,0,1-3.584,3.585h-4.5l-.056.063v8.326" transform="translate(-1239.075 -743.292)" fill="#fff"/>
      <path id="Path_13255" data-name="Path 13255" d="M1313.921,813.387a.585.585,0,0,1-.585-.585v-8.325a.586.586,0,0,1,.148-.392l.056-.062a.585.585,0,0,1,.434-.192h4.5a3,3,0,0,0,3-3l-.012-6.791a.585.585,0,0,1,.585-.585h3.37a.539.539,0,0,0,.524-.674l-3.2-11.286-2.893-5.616a17.3,17.3,0,0,0-18.906-5.746l-.164.052-9.67,8.257a16.236,16.236,0,0,0-.974,2.4,17.418,17.418,0,0,0,.437,12.081l3.689,5.494c.377.377.776.742,1.188,1.08a.608.608,0,0,1,.068.067l.119.137a.583.583,0,0,1,.149.383v12.7a.585.585,0,0,1-1.169,0V800.318c-.42-.353-.827-.729-1.213-1.117a.578.578,0,0,1-.071-.086l-3.751-5.6a.574.574,0,0,1-.054-.1,18.562,18.562,0,0,1-.5-12.937,17.43,17.43,0,0,1,1.1-2.688.6.6,0,0,1,.141-.178l9.849-8.408a.579.579,0,0,1,.2-.111l.3-.092a18.46,18.46,0,0,1,20.205,6.19.561.561,0,0,1,.058.091l2.946,5.716a.558.558,0,0,1,.044.108l3.219,11.357a1.709,1.709,0,0,1-1.653,2.15h-2.783l.012,6.2a4.158,4.158,0,0,1-4.167,4.17h-3.974v7.8a.585.585,0,0,1-.6.594Z" transform="translate(-1227.213 -731.835)" fill="#00608c"/>
      <path id="Path_13256" data-name="Path 13256" d="M1529.229,994.306a7.964,7.964,0,1,1-7.964-7.951,7.964,7.964,0,0,1,7.964,7.951" transform="translate(-1441.779 -939.737)" fill="#bdfeff"/>
      <path id="Ellipse_104" data-name="Ellipse 104" d="M-3.822-12.37A8.551,8.551,0,0,1,4.726-3.836,8.551,8.551,0,0,1-3.822,4.7,8.551,8.551,0,0,1-12.37-3.836,8.551,8.551,0,0,1-3.822-12.37Zm0,15.9A7.38,7.38,0,0,0,3.557-3.833,7.381,7.381,0,0,0-3.822-11.2,7.38,7.38,0,0,0-11.2-3.836,7.381,7.381,0,0,0-3.822,3.53Z" transform="translate(83.31 58.404)" fill="#00608c"/>
      <path id="Path_13257" data-name="Path 13257" d="M1243.727,768.176a3.83,3.83,0,0,0-6.873-2.054,5.684,5.684,0,0,1-5.716,2.041,3.282,3.282,0,0,0,0,6.564,2.08,2.08,0,0,0,.274-.012v.012h12.052a3.28,3.28,0,0,0,.261-6.551" transform="translate(-1169.82 -728.469)" fill="#bdfeff"/>
      <path id="Path_13258" data-name="Path 13258" d="M1228.119,752.237a4.428,4.428,0,0,1,4.347,3.638,3.861,3.861,0,0,1-.786,7.649h-12.052a.611.611,0,0,1-.079,0h-.194a3.866,3.866,0,1,1,0-7.732,3.808,3.808,0,0,1,.49.032,3.87,3.87,0,0,1,5.071-2.209A4.382,4.382,0,0,1,1228.119,752.237Zm3.564,10.119a2.7,2.7,0,0,0,.215-5.383.585.585,0,0,1-.537-.543,3.245,3.245,0,0,0-5.823-1.739.585.585,0,0,1-.752.149,2.7,2.7,0,0,0-3.962,1.782.584.584,0,0,1-.73.446,2.7,2.7,0,1,0-.743,5.29,1.685,1.685,0,0,0,.226-.01.576.576,0,0,1,.166.01Z" transform="translate(-1158.033 -716.684)" fill="#00608c"/>
      <path id="Path_13259" data-name="Path 13259" d="M1860.341,912.15a2.425,2.425,0,0,0-4.349-1.3,3.6,3.6,0,0,1-3.618,1.292,2.079,2.079,0,1,0,0,4.158,1.356,1.356,0,0,0,.174-.007v.007h7.63a2.079,2.079,0,0,0,.165-4.146" transform="translate(-1762.841 -866.886)" fill="#bdfeff"/>
      <path id="Path_13260" data-name="Path 13260" d="M1846.155,897.521a3.019,3.019,0,0,1,2.934,2.34,2.661,2.661,0,0,1-.68,5.235h-7.8a2.663,2.663,0,1,1,0-5.324h.174a2.662,2.662,0,0,1,3.292-1.42A2.986,2.986,0,0,1,1846.155,897.521Zm2.254,6.4a1.491,1.491,0,1,0,.118-2.979.585.585,0,0,1-.538-.544,1.84,1.84,0,0,0-3.3-.985.585.585,0,0,1-.751.149,1.5,1.5,0,0,0-2.193.986.584.584,0,0,1-.731.445,1.492,1.492,0,1,0-.408,2.927h.125a.584.584,0,0,1,.148,0Z" transform="translate(-1751.075 -855.101)" fill="#00608c"/>
      <path id="Path_13261" data-name="Path 13261" d="M1598.578,1065.893H1595.5v-3.073h-2.533v3.073h-3.077v2.525h3.077v3.073h2.533v-3.073h3.077Z" transform="translate(-1514.746 -1012.589)" fill="#fff"/>
      <path id="Path_13262" data-name="Path 13262" d="M1581.181,1050.45h2.534a.585.585,0,0,1,.585.585v2.488h2.492a.585.585,0,0,1,.585.585v2.524a.585.585,0,0,1-.585.585H1584.3v2.487a.585.585,0,0,1-.585.585h-2.534a.585.585,0,0,1-.585-.585v-2.487H1578.1a.585.585,0,0,1-.585-.585v-2.524a.585.585,0,0,1,.585-.585h2.491v-2.488A.585.585,0,0,1,1581.181,1050.45Zm1.95,1.169h-1.365v2.487a.585.585,0,0,1-.585.585h-2.492v1.36h2.492a.585.585,0,0,1,.585.585v2.487h1.365v-2.487a.585.585,0,0,1,.585-.585h2.492v-1.36h-2.492a.585.585,0,0,1-.585-.585Z" transform="translate(-1502.963 -1000.803)" fill="#00608c"/>
      <path id="Line_73" data-name="Line 73" d="M-11.786-8.673a.585.585,0,0,1-.585-.585v-2.525a.585.585,0,0,1,.585-.585.585.585,0,0,1,.585.585v2.525A.585.585,0,0,1-11.786-8.673Z" transform="translate(79.326 60.212)" fill="#00608c"/>
      <path id="Line_74" data-name="Line 74" d="M-9.252-11.2h-2.533a.585.585,0,0,1-.585-.585.585.585,0,0,1,.585-.585h2.533a.585.585,0,0,1,.585.585.585.585,0,0,1-.585.585Z" transform="translate(78.06 61.475)" fill="#00608c"/>
      <path id="Line_75" data-name="Line 75" d="M-11.786-8.673a.585.585,0,0,1-.585-.585v-2.525a.585.585,0,0,1,.585-.585.585.585,0,0,1,.585.585v2.525A.585.585,0,0,1-11.786-8.673Z" transform="translate(95.255 53.346)" fill="#00608c"/>
      <path id="Line_76" data-name="Line 76" d="M-9.252-11.2h-2.533a.585.585,0,0,1-.585-.585.585.585,0,0,1,.585-.585h2.533a.585.585,0,0,1,.585.585.585.585,0,0,1-.585.585Z" transform="translate(93.986 54.61)" fill="#00608c"/>
      <path id="Line_77" data-name="Line 77" d="M-11.786-8.673a.585.585,0,0,1-.585-.585v-2.525a.585.585,0,0,1,.585-.585.585.585,0,0,1,.585.585v2.525A.585.585,0,0,1-11.786-8.673Z" transform="translate(77.878 67.078)" fill="#00608c"/>
      <path id="Line_78" data-name="Line 78" d="M-9.252-11.2h-2.533a.585.585,0,0,1-.585-.585.585.585,0,0,1,.585-.585h2.533a.585.585,0,0,1,.585.585.585.585,0,0,1-.585.585Z" transform="translate(76.612 68.342)" fill="#00608c"/>
      <path id="Line_79" data-name="Line 79" d="M-11.786-8.673a.585.585,0,0,1-.585-.585v-2.525a.585.585,0,0,1,.585-.585.585.585,0,0,1,.585.585v2.525A.585.585,0,0,1-11.786-8.673Z" transform="translate(102.855 66.356)" fill="#00608c"/>
      <path id="Line_80" data-name="Line 80" d="M-9.252-11.2h-2.533a.585.585,0,0,1-.585-.585.585.585,0,0,1,.585-.585h2.533a.585.585,0,0,1,.585.585.585.585,0,0,1-.585.585Z" transform="translate(101.588 67.62)" fill="#00608c"/>
      <path id="Path_13263" data-name="Path 13263" d="M1261.2,1281.286a2.425,2.425,0,0,0-4.349-1.3,3.6,3.6,0,0,1-3.617,1.292,2.079,2.079,0,1,0,0,4.158,1.377,1.377,0,0,0,.173-.007v.007h7.63a2.079,2.079,0,0,0,.165-4.146" transform="translate(-1192.022 -1218.577)" fill="#bdfeff"/>
      <path id="Path_13264" data-name="Path 13264" d="M1247.019,1266.657a3.019,3.019,0,0,1,2.934,2.34,2.661,2.661,0,0,1-.68,5.235h-7.8a2.663,2.663,0,1,1,0-5.324h.173a2.663,2.663,0,0,1,3.292-1.42,2.984,2.984,0,0,1,2.078-.832Zm2.254,6.4a1.491,1.491,0,1,0,.119-2.979.585.585,0,0,1-.538-.543,1.84,1.84,0,0,0-3.3-.984.585.585,0,0,1-.751.148,1.5,1.5,0,0,0-2.194.986.585.585,0,0,1-.73.445,1.492,1.492,0,1,0-.409,2.927h.125a.616.616,0,0,1,.148,0Z" transform="translate(-1180.255 -1206.792)" fill="#00608c"/>
      <path id="Path_13265" data-name="Path 13265" d="M1390.462,757.2a.585.585,0,0,1-.586-.585,4.387,4.387,0,0,1,4.386-4.379.585.585,0,1,1,0,1.169,3.217,3.217,0,0,0-3.217,3.21.585.585,0,0,1-.583.586Z" transform="translate(-1324.188 -716.685)" fill="#00608c"/>
      <path id="Path_13266" data-name="Path 13266" d="M237.5,1028.475c-1.975-.03-5.769-.316-9.05,1.515-4.853,2.707-8.032,2.525-12.146,2.525h-9.322a3.313,3.313,0,0,1-3.472-3.216c-.092-1.941,1.455-3.024,3.377-3.024H205.43a3.38,3.38,0,0,1-3.38-3.38,3.168,3.168,0,0,1,3.38-3.119H203.7a3.309,3.309,0,0,1-3.38-3.38,3.172,3.172,0,0,1,3.38-2.86h.781c-1.867,0-3.38-.993-3.38-2.86a3.416,3.416,0,0,1,3.38-3.38,112.289,112.289,0,0,1,13.6-.028.358.358,0,0,0,.327-.527c-1.552-3.267-3.8-5.828-4.84-11.463h0a3.661,3.661,0,0,1,1.8-4.03,2.8,2.8,0,0,1,3.993,1.969c2.505,5.838,4.433,7.214,7.035,10.275,2.683,3.159,4.265,5.53,5.128,5.94a16.538,16.538,0,0,0,5.964.86c1.2,2.822-2.07,6.127-2.07,6.127a64.129,64.129,0,0,0,2.07,12.076" transform="translate(-190.857 -944.131)" fill="#bdfeff"/>
      <path id="Path_13267" data-name="Path 13267" d="M205.975,1021.346H195.194a3.917,3.917,0,0,1-4.057-3.775,3.2,3.2,0,0,1,1.135-2.71,3.973,3.973,0,0,1-2.6-3.721,3.564,3.564,0,0,1,1.175-2.673,4.071,4.071,0,0,1-1.89-1.136,3.613,3.613,0,0,1-1-2.722,3.475,3.475,0,0,1,2.1-3,3.2,3.2,0,0,1-1.325-2.673,4.009,4.009,0,0,1,3.9-3.962,110.142,110.142,0,0,1,13.3-.046c-.368-.742-.771-1.452-1.188-2.2a26.631,26.631,0,0,1-3.534-9.084,4.231,4.231,0,0,1,2.141-4.676,3.659,3.659,0,0,1,2.979,0,3.423,3.423,0,0,1,1.8,2.306,25.755,25.755,0,0,0,5.443,8.413c.474.524.965,1.066,1.485,1.678.974,1.146,1.782,2.168,2.5,3.07A14.521,14.521,0,0,0,220,997.145a12.5,12.5,0,0,0,4.731.765c.377.011.723.021,1.022.04a.585.585,0,0,1-.076,1.167c-.287-.019-.618-.028-.979-.038a13.4,13.4,0,0,1-5.2-.875,12.065,12.065,0,0,1-2.845-3.046c-.711-.891-1.518-1.908-2.479-3.04-.508-.594-.992-1.133-1.46-1.651a26.765,26.765,0,0,1-5.665-8.772.592.592,0,0,1-.027-.079,2.311,2.311,0,0,0-1.188-1.6,2.476,2.476,0,0,0-2,.009,3.086,3.086,0,0,0-1.469,3.38v.016a25.293,25.293,0,0,0,3.4,8.719c.495.874.962,1.7,1.39,2.6a.958.958,0,0,1-.062.947.925.925,0,0,1-.817.416,113.333,113.333,0,0,0-13.514.025,2.822,2.822,0,0,0-2.851,2.8c0,1.678,1.445,2.275,2.8,2.275a.585.585,0,1,1,0,1.169h-.781a2.594,2.594,0,0,0-2.8,2.312,2.455,2.455,0,0,0,.685,1.846,2.905,2.905,0,0,0,2.112.912h1.717a.585.585,0,0,1,0,1.169,2.587,2.587,0,0,0-2.8,2.535,2.8,2.8,0,0,0,2.8,2.8h1.457a.585.585,0,1,1,0,1.169,3.088,3.088,0,0,0-2.244.812,2.079,2.079,0,0,0-.549,1.6,2.744,2.744,0,0,0,2.888,2.66h10.076a19.3,19.3,0,0,0,11.106-2.446,16.819,16.819,0,0,1,8.762-1.6l.581.013a.585.585,0,0,1-.018,1.169l-.594-.013a15.82,15.82,0,0,0-8.168,1.454A19.762,19.762,0,0,1,205.975,1021.346Z" transform="translate(-179.071 -932.386)" fill="#00608c"/>
      <line id="Line_81" data-name="Line 81" x2="6.634" transform="translate(12.854 69.397)" fill="#bdfeff"/>
      <path id="Line_82" data-name="Line 82" d="M-5.152-11.2h-6.634a.585.585,0,0,1-.585-.585.585.585,0,0,1,.585-.585h6.634a.585.585,0,0,1,.585.585.585.585,0,0,1-.585.585Z" transform="translate(24.64 81.183)" fill="#00608c"/>
      <line id="Line_83" data-name="Line 83" x2="6.634" transform="translate(12.854 75.637)" fill="#bdfeff"/>
      <path id="Line_84" data-name="Line 84" d="M-5.152-11.2h-6.634a.585.585,0,0,1-.585-.585.585.585,0,0,1,.585-.585h6.634a.585.585,0,0,1,.585.585.585.585,0,0,1-.585.585Z" transform="translate(24.64 87.423)" fill="#00608c"/>
      <line id="Line_85" data-name="Line 85" x2="4.917" transform="translate(14.571 82.138)" fill="#bdfeff"/>
      <path id="Line_86" data-name="Line 86" d="M-6.869-11.2h-4.917a.585.585,0,0,1-.585-.585.585.585,0,0,1,.585-.585h4.917a.585.585,0,0,1,.585.585.585.585,0,0,1-.585.585Z" transform="translate(26.357 93.923)" fill="#00608c"/>
      <path id="Path_13268" data-name="Path 13268" d="M601.079,1499.5a10.618,10.618,0,1,0,12.238,8.7,10.617,10.617,0,0,0-12.238-8.7" transform="translate(-564.225 -1428.482)" fill="#fff"/>
      <path id="Path_13269" data-name="Path 13269" d="M591.077,1486.978h0a11.209,11.209,0,1,1-11.093,13.076,11.027,11.027,0,0,1,1.905-8.333A11.3,11.3,0,0,1,591.077,1486.978Zm-.055,21.245a10.038,10.038,0,0,0,.056-20.076h0a10.13,10.13,0,0,0-8.235,4.252,9.866,9.866,0,0,0-1.706,7.454,10.039,10.039,0,0,0,9.89,8.369Z" transform="translate(-552.422 -1416.699)" fill="#00608c"/>
      <path id="Path_13270" data-name="Path 13270" d="M669.249,1570.4a7.266,7.266,0,1,0,8.375,5.957,7.266,7.266,0,0,0-8.375-5.957" transform="translate(-631.838 -1496.076)" fill="#bdfeff"/>
      <path id="Path_13271" data-name="Path 13271" d="M658.686,1557.927h0a7.853,7.853,0,1,1-7.774,9.16,7.731,7.731,0,0,1,1.337-5.842,7.917,7.917,0,0,1,6.439-3.325Zm-.039,14.542a6.769,6.769,0,0,0,1.119-.093,6.683,6.683,0,0,0-1.08-13.278h0a6.751,6.751,0,0,0-5.486,2.834,6.57,6.57,0,0,0-1.136,4.964,6.682,6.682,0,0,0,6.583,5.571Z" transform="translate(-620.038 -1484.296)" fill="#00608c"/>
      <path id="Path_13272" data-name="Path 13272" d="M743.828,1648.266a3.592,3.592,0,1,0,4.339,2.645,3.592,3.592,0,0,0-4.339-2.645" transform="translate(-706.055 -1570.266)" fill="#bdfeff"/>
      <path id="Path_13273" data-name="Path 13273" d="M732.9,1635.792h0a4.181,4.181,0,1,1-.988.119,4.182,4.182,0,0,1,.988-.119Zm0,7.187a2.881,2.881,0,1,0-.007,0Z" transform="translate(-694.276 -1558.48)" fill="#00608c"/>
      <path id="Path_13274" data-name="Path 13274" d="M943.477,1393.4l-.493-2.392-2.6,3.524.493,2.394Z" transform="translate(-895.937 -1325.268)" fill="#bdfeff"/>
      <path id="Path_13275" data-name="Path 13275" d="M931.2,1378.639a.567.567,0,0,1,.126.014.585.585,0,0,1,.446.445l.493,2.394a.581.581,0,0,1-.1.464l-2.6,3.524a.585.585,0,0,1-1.04-.23l-.493-2.392a.584.584,0,0,1,.1-.465l2.6-3.524a.584.584,0,0,1,.468-.231Zm-.132,2.841-.177-.854-1.669,2.26.177.854Z" transform="translate(-884.15 -1313.481)" fill="#00608c"/>
      <path id="Path_13276" data-name="Path 13276" d="M953.416,1430.087l2.684-.573-2.6,3.524-2.683.573Z" transform="translate(-905.876 -1361.956)" fill="#bdfeff"/>
      <path id="Path_13277" data-name="Path 13277" d="M944.317,1417.146a.585.585,0,0,1,.471.933l-2.6,3.524a.586.586,0,0,1-.348.225l-2.683.573a.585.585,0,0,1-.594-.92l2.6-3.524a.583.583,0,0,1,.348-.224l2.683-.573A.566.566,0,0,1,944.317,1417.146Zm-2.942,3.582,1.554-2.1-.958.2-1.553,2.1Z" transform="translate(-894.088 -1350.167)" fill="#00608c"/>
      <path id="Line_87" data-name="Line 87" d="M-11.788,4.2a.582.582,0,0,1-.319-.1.585.585,0,0,1-.169-.809L-2.2-12.108a.585.585,0,0,1,.809-.169.585.585,0,0,1,.169.809L-11.3,3.932A.584.584,0,0,1-11.788,4.2Z" transform="translate(50.58 77.821)" fill="#00608c"/>
      <path id="Path_13278" data-name="Path 13278" d="M791.321,1685.675a.584.584,0,0,1-.579-.666l.348-2.487a.585.585,0,0,1,.9-.4l1.846,1.238a.585.585,0,0,1-.036.993l-2.193,1.251A.6.6,0,0,1,791.321,1685.675Zm.8-2.067-.054.385.34-.193Z" transform="translate(-753.364 -1602.521)" fill="#00608c"/>
    </g>
  </g>
</svg>
