<svg xmlns="http://www.w3.org/2000/svg" xmlns:xlink="http://www.w3.org/1999/xlink" width="230" height="253" viewBox="0 0 230 253">
  <defs>
    <clipPath id="clip-path">
      <rect id="Rectangle_2003" data-name="Rectangle 2003" width="230" height="253" fill="#fff" stroke="#707070" stroke-width="1"/>
    </clipPath>
    <clipPath id="clip-path-2">
      <rect id="Rectangle_2002" data-name="Rectangle 2002" width="10.202" height="7.293" fill="none"/>
    </clipPath>
  </defs>
  <g id="Mask_Group_1344" data-name="Mask Group 1344" clip-path="url(#clip-path)">
    <g id="Group_8260" data-name="Group 8260" transform="translate(19.001 34.589)" opacity="0.204">
      <path id="Path_15397" data-name="Path 15397" d="M561.319,527.525s7.609,16.759,11.182,31.545a57.1,57.1,0,0,1,1.819,12.2c.059,5.528-1.483,9.431-5.791,9.86a5.844,5.844,0,0,1-1.958-.13s-.006-.006-.009,0a6.634,6.634,0,0,1-1.583-.606.223.223,0,0,1-.037-.02,10.381,10.381,0,0,1-2.731-2.248,31.14,31.14,0,0,1-5.177-9.175c-5.909-14.89-8.249-38.09-8.249-38.09,4.731-5.6,12.534-3.328,12.534-3.328" transform="translate(-513.101 -458.813)" fill="#ffaa40"/>
      <path id="Path_15398" data-name="Path 15398" d="M660.782,612.673s-17.256,16.691-32.04,23.346c-4.938,2.225-9.6,3.329-13.247,2.323,0,0-.006-.006-.009,0a8.853,8.853,0,0,1-1.582-.606.214.214,0,0,1-.037-.02,8.23,8.23,0,0,1-2.731-2.248,8.937,8.937,0,0,1-.644-.9c-1.733-2.742-.676-6.073,2.006-9.586a51.184,51.184,0,0,1,8.928-8.561c12.044-9.436,29-17.921,29-17.921,7.448-2.085,15.816,7.441,10.36,14.177" transform="translate(-562.024 -516.161)" fill="#ffaa40"/>
      <path id="Path_15399" data-name="Path 15399" d="M1123.028,677.2a.059.059,0,0,0-.026.009c-.422.124-.833.232-1.235.31a7.538,7.538,0,0,1-4.292-.244,5.963,5.963,0,0,1-1.3-.72c-2.741-2-2.9-4.992-1.417-8.477,1.33-3.147,3.993-6.693,7.286-10.28,10.689-11.645,28.009-23.7,28.009-23.7s7.878,1.981,9.058,9.185c0,0-14.811,19.874-27.865,29.42a29.172,29.172,0,0,1-8.219,4.5" transform="translate(-967.328 -545.101)" fill="#ffaa40"/>
      <path id="Path_15400" data-name="Path 15400" d="M991.047,660.912a.061.061,0,0,0-.026.009,8.472,8.472,0,0,1-1.235.31,10.353,10.353,0,0,1-4.292-.244,26.283,26.283,0,0,1-8.939-4.732c-12.866-9.7-26-29.825-26-29.825-3.977-7.683,5.947-15.161,12.822-11.641,0,0,17.245,14.01,26.682,26.721,3.191,4.3,5.491,8.448,5.927,11.859a6.111,6.111,0,0,1-1.5,5.294,8.624,8.624,0,0,1-3.438,2.25" transform="translate(-835.347 -528.809)" fill="#ffaa40"/>
      <path id="Path_15401" data-name="Path 15401" d="M747.873,1028.852h0a12.976,12.976,0,0,1-13.027-12.165c-1.617-28.912-2.328-58.529-1.642-80.252h28.552c-.9,24.745-1.124,53.538-.835,79.378a12.969,12.969,0,0,1-13.047,13.039" transform="translate(-661.142 -788.836)" fill="#494e6d"/>
      <path id="Path_15403" data-name="Path 15403" d="M903.022,979.371h0a13.054,13.054,0,0,1-15.382-9.091c-7.908-27.882-15.086-56.645-19.172-78l27.876-6.1c4.536,24.351,10.623,52.51,16.562,77.676a12.892,12.892,0,0,1-9.883,15.52" transform="translate(-770.088 -748.317)" fill="#494e6d"/>
      <path id="Path_15405" data-name="Path 15405" d="M734.27,652.652s.731-57.27,16.71-65.422c9.161-4.674,28.12-3.4,37.789,3.053,9.758,6.517,2.866,62.37,2.866,62.37Z" transform="translate(-662.208 -505.052)" fill="#ffaa40"/>
      <path id="Path_15406" data-name="Path 15406" d="M1292.237,590.128a11.132,11.132,0,0,1,1.561-5.374c1.511-2.16,2.8-3.428,3.057-6.494s3.62-2.25,3.275.4-1.508,6.767,1.869,6.126,7.572-8.286,10.443-3.671c0,0,2.732-2.946,3.914-1.611s-1.277,4.021-1.277,4.021,4.78.782-2.709,6.493c0,0,1.787,1.428.484,2.722-2.083,2.07-8.251,4.434-13.5,4.855-8.531.684-7.117-7.465-7.117-7.465" transform="translate(-1110.678 -498.496)" fill="#fd8b66"/>
      <path id="Path_15407" data-name="Path 15407" d="M1351.686,607.347l-.189-.322c7.269-4.176,8.476-6.285,8.487-6.306l.333.174c-.046.088-1.224,2.2-8.631,6.454" transform="translate(-1158.386 -518.188)" fill="#e56542"/>
      <path id="Path_15408" data-name="Path 15408" d="M1362.311,619.6l-.161-.337c4.056-1.885,9.024-6.323,9.074-6.367l.253.276c-.05.045-5.06,4.519-9.167,6.429" transform="translate(-1166.95 -528.003)" fill="#e56542"/>
      <path id="Path_15409" data-name="Path 15409" d="M1366.522,649.276l-.157-.339c2.467-1.119,5.548-2.673,5.579-2.689l.172.332c-.031.016-3.12,1.573-5.594,2.7" transform="translate(-1170.338 -554.894)" fill="#e56542"/>
      <path id="Path_15410" data-name="Path 15410" d="M526.038,462.719a11.609,11.609,0,0,0-.135-5.5c-.843-2.487-1.7-4.074-1.208-7.016s-2.7-3.23-3.016-.649-.239,6.788-3.1,5.135-4.818-10.1-8.461-6.685c0,0-1.749-3.6-3.116-2.725s.2,4.153.2,4.153-4.449-.761.9,6.907c0,0-1.929.775-1.07,2.39,1.374,2.582,6.326,6.713,10.912,8.744,7.455,3.3,8.1-4.749,8.1-4.749" transform="translate(-478.274 -392.762)" fill="#fd8b66"/>
      <path id="Path_15411" data-name="Path 15411" d="M534.439,468.491c-5.612-6.281-6.168-8.614-6.189-8.71l.368-.079c.005.023.587,2.369,6.1,8.543Z" transform="translate(-496.593 -404.503)" fill="#e56542"/>
      <path id="Path_15412" data-name="Path 15412" d="M520.16,475.835c-3.218-3.063-6.64-8.8-6.674-8.858l.325-.188c.034.057,3.431,5.751,6.61,8.778Z" transform="translate(-484.725 -410.217)" fill="#e56542"/>
      <path id="Path_15413" data-name="Path 15413" d="M522.565,506.757c-1.945-1.819-4.337-4.237-4.361-4.261l.269-.26c.024.024,2.411,2.436,4.351,4.251Z" transform="translate(-488.517 -438.793)" fill="#e56542"/>
      <path id="Path_15414" data-name="Path 15414" d="M746.553,734.685l-.769-.228c.1-.325,2.427-7.984,3.236-9.583l.718.355c-.778,1.538-3.161,9.377-3.185,9.456" transform="translate(-671.464 -618.279)" fill="#251138"/>
      <path id="Path_15606" data-name="Path 15606" d="M0,0,.8,0,.819,8.043l-.8,0Z" transform="translate(59.054 100.527) rotate(-10.534)" fill="#251138"/>
      <path id="Path_15607" data-name="Path 15607" d="M0,0H.8l.013,7.12h-.8Z" transform="translate(154.319 112.763) rotate(-8.97)" fill="#251138"/>
      <path id="Path_15415" data-name="Path 15415" d="M807.846,971.936l24.664-1.108-7.848-24.375-11.771-1.662Z" transform="translate(-721.354 -795.572)" fill="#494e6d"/>
      <path id="Path_15416" data-name="Path 15416" d="M855.571,954.181l-7.142-.588,2.013-16.2.8.1-1.911,15.379,6.311.52Z" transform="translate(-753.979 -789.61)" fill="#251138"/>
      <path id="Path_15417" data-name="Path 15417" d="M732.708,961.242l-.532-.594,3.013-2.637,1.1-21.814.8.039-1.116,22.148Z" transform="translate(-660.525 -788.643)" fill="#251138"/>
      <path id="Path_15418" data-name="Path 15418" d="M1001.232,961.346l-4.885-1.545-5.659-22.929.78-.188,5.552,22.5,4.457,1.409Z" transform="translate(-868.338 -789.037)" fill="#251138"/>
      <path id="Path_15419" data-name="Path 15419" d="M861.429,596.791q-.94,0-1.978-.1c-9.805-.95-8.966-13.957-8.956-14.088l.8.057c-.009.124-.793,12.367,8.234,13.241,9.408.913,12.051-4.767,14.527-12.285l.763.246c-2.327,7.064-4.985,12.928-13.391,12.928" transform="translate(-755.622 -503.583)" fill="#251138"/>
      <rect id="Rectangle_2001" data-name="Rectangle 2001" width="0.812" height="6.616" transform="translate(130.493 112.106) rotate(-6.591)" fill="#251138"/>
      <path id="Path_15420" data-name="Path 15420" d="M872.418,545.285c-5.86,0-8.531-6.765-6.957-8.321a5.476,5.476,0,0,0,1.106-1.692h0a11.287,11.287,0,0,0,.8-2.938l0,0L878.2,522.78c-.585,6.08,2.048,10.349,3,13.389s-2.125,9.116-8.789,9.116" transform="translate(-767.313 -455.355)" fill="#fd8b66"/>
      <g id="Group_8259" data-name="Group 8259" transform="translate(99.258 72.635)" opacity="0.19">
        <g id="Group_8258" data-name="Group 8258" transform="translate(0 0)">
          <g id="Group_8257" data-name="Group 8257" clip-path="url(#clip-path-2)">
            <path id="Path_15421" data-name="Path 15421" d="M882.677,551.638c-3.106,5.872-9.551,5.289-9.732,5.3a11.3,11.3,0,0,0,.8-2.938l0,0c.292-.166,11.843-7.864,8.931-2.36" transform="translate(-872.945 -549.659)"/>
          </g>
        </g>
      </g>
      <path id="Path_15422" data-name="Path 15422" d="M937.088,461.584s-.466,5.55-8.631,11.267c-8.56,5.994,1.184-12.429,1.184-12.429Z" transform="translate(-815.482 -405.084)" fill="#251138"/>
      <path id="Path_15423" data-name="Path 15423" d="M857.179,449.215s-1.156,4.782-2.654,10.15c-2.142,7.673-2.325,13.877,5.584,13.877,13.283,0,12.4-21.784,12.4-21.784Z" transform="translate(-757.861 -396.049)" fill="#fd8b66"/>
      <path id="Path_15424" data-name="Path 15424" d="M858.179,394.69s-19.918-.441-17.172-13.754,10.558,3.188,14.609,3.188c4.752,0,17.694.684,12.944,11.862-1.234,2.9-3.2-.842-10.381-1.3" transform="translate(-747.803 -336.82)" fill="#251138"/>
      <path id="Path_15425" data-name="Path 15425" d="M931.684,517.272a4.008,4.008,0,1,1-4.008-3.961,3.985,3.985,0,0,1,4.008,3.961" transform="translate(-814.462 -447.721)" fill="#fd8b66"/>
      <path id="Path_15426" data-name="Path 15426" d="M872.087,493.915s-2.174,5.236-4.891,6.847-7.2-2.685-13.722-1.477c0,0-.543,7.116,1.766,11.01,0,0,6.929,1.343,11-3.088a62.257,62.257,0,0,0,6.929-9.264Z" transform="translate(-757.99 -432.085)" fill="#251138"/>
      <path id="Path_15427" data-name="Path 15427" d="M864.907,533.4l4.211.537s-.408,3.692-2.717,3.356-1.494-3.894-1.494-3.894" transform="translate(-767.113 -463.918)" fill="#fff"/>
      <path id="Path_15428" data-name="Path 15428" d="M897.465,488.172a.765.765,0,1,1-.765-.756.761.761,0,0,1,.765.756" transform="translate(-792.168 -426.845)" fill="#8e3332"/>
      <path id="Path_15429" data-name="Path 15429" d="M873.146,482.8a.765.765,0,1,1-.765-.756.761.761,0,0,1,.765.756" transform="translate(-772.619 -422.517)" fill="#8e3332"/>
      <path id="Path_15430" data-name="Path 15430" d="M366.832,195.005a20.336,20.336,0,1,0,20.335-20.1,20.217,20.217,0,0,0-20.335,20.1" transform="translate(-366.832 -174.909)" fill="#ffaa40"/>
      <path id="Path_15431" data-name="Path 15431" d="M439.872,245.118a9.08,9.08,0,0,1,.175-1.206,4.5,4.5,0,0,1,.389-1.092,3.552,3.552,0,0,1,.719-.956,4.307,4.307,0,0,1,1.163-.768l.94-.439a9.2,9.2,0,0,0,1.153-.645,4.706,4.706,0,0,0,1-.878,2,2,0,0,0,.487-1.168,1.73,1.73,0,0,0-.512-1.467,2.209,2.209,0,0,0-1.393-.621,2.011,2.011,0,0,0-.942.134,3.482,3.482,0,0,0-.769.439,3.24,3.24,0,0,0-.612.6l-.468.6-2.526-2.193a5.446,5.446,0,0,1,2.359-2.449,6.09,6.09,0,0,1,3.4-.677,6.766,6.766,0,0,1,1.957.458,4.859,4.859,0,0,1,2.836,2.909,5.9,5.9,0,0,1,.293,2.573,5.213,5.213,0,0,1-.823,2.582,5.687,5.687,0,0,1-1.96,1.718,11.1,11.1,0,0,1-1.163.6,10.287,10.287,0,0,0-1.08.553,3.04,3.04,0,0,0-.815.685,1.7,1.7,0,0,0-.366.969Zm-.461,6.754.33-4.131,3.414.266-.33,4.131Z" transform="translate(-424.586 -221.189)" fill="#fff"/>
    </g>
  </g>
</svg>
