<svg xmlns="http://www.w3.org/2000/svg" xmlns:xlink="http://www.w3.org/1999/xlink" width="180.153" height="247.452" viewBox="0 0 180.153 247.452">
  <defs>
    <clipPath id="clip-path">
      <rect id="Rectangle_1998" data-name="Rectangle 1998" width="180.153" height="247.452" transform="translate(0 0)" fill="none"/>
    </clipPath>
  </defs>
  <g id="Group_8255" data-name="Group 8255" clip-path="url(#clip-path)">
    <path id="Path_15350" data-name="Path 15350" d="M151.926,193.435c.332-.657,1.329-7.552-3.545-14.776s-.886-11.711-3.988-14.667-5.317-1.532-5.317-1.532a6.607,6.607,0,0,0-3.656-3.94c-2.88-1.2-7.422-.438-10.081,3.831s-2.326,5.8-.886,14.229-4.32,9.632-4.21,14.995-6.868,11.6-9.305,25.5,1,20.686,11.743,19.263,29.245-42.9,29.245-42.9" transform="translate(-91.261 -131.186)" fill="#251138"/>
    <path id="Path_15351" data-name="Path 15351" d="M10.609,1344.669l15,10.022a2.415,2.415,0,0,1,.89,2.955,2.471,2.471,0,0,1-3.221,1.3L0,1349.289l3.693-7.394Z" transform="translate(0 -1114.123)" fill="#1c5276"/>
    <path id="Path_15352" data-name="Path 15352" d="M19.405,1319.971l3.1,1.287a2.06,2.06,0,0,0,2.684-1.083l2.986-7.026-6.882-2.855-2.986,7.025a2.017,2.017,0,0,0,1.1,2.652" transform="translate(-15.03 -1087.887)" fill="#fb855f"/>
    <path id="Path_15353" data-name="Path 15353" d="M258.066,1385.466l16.839,6.573a2.426,2.426,0,0,1,1.517,2.694,2.458,2.458,0,0,1-2.859,1.958l-24.841-4.445,1.984-8.009Z" transform="translate(-205.992 -1149.28)" fill="#1c5276"/>
    <path id="Path_15354" data-name="Path 15354" d="M261.526,1360l3.309.592a2.049,2.049,0,0,0,2.383-1.632l1.374-7.5-7.344-1.314-1.374,7.5a2.028,2.028,0,0,0,1.652,2.354" transform="translate(-215.201 -1120.974)" fill="#fb855f"/>
    <path id="Path_15355" data-name="Path 15355" d="M501.025,406.246s-14.464,2.55-25.827,6.825a46.416,46.416,0,0,0-8.87,4.255c-3.68,2.422-5.572,5.155-3.938,8.126a4.523,4.523,0,0,0,.958,1.206s.007,0,.006,0a5.211,5.211,0,0,0,1.105.751.165.165,0,0,0,.029.015,8.3,8.3,0,0,0,2.7.762,25.279,25.279,0,0,0,8.369-.743c12.472-2.815,28.848-11.631,28.848-11.631,1.593-5.545-3.381-9.57-3.381-9.57" transform="translate(-382.462 -337.29)" fill="#80c2c1"/>
    <path id="Path_15356" data-name="Path 15356" d="M293.574,367.354s14.3,12.486,26.248,17.148c3.989,1.559,7.712,2.245,10.553,1.3,0,0,0-.005.007,0a6.99,6.99,0,0,0,1.224-.541.149.149,0,0,0,.029-.017,6.5,6.5,0,0,0,2.064-1.883,7.026,7.026,0,0,0,.472-.736c1.256-2.233.286-4.821-1.975-7.486a40.529,40.529,0,0,0-7.4-6.4c-9.894-6.967-23.625-12.987-23.625-12.987-5.965-1.348-12.182,6.5-7.6,11.6" transform="translate(-241.826 -295.239)" fill="#80c2c1"/>
    <path id="Path_15602" data-name="Path 15602" d="M0,0,6.354.01V.828L0,.818Z" transform="matrix(0.132, -0.991, 0.991, 0.132, 87.192, 83.754)" fill="#50a5a0"/>
    <path id="Path_15357" data-name="Path 15357" d="M306.2,735.942h0a10.256,10.256,0,0,0,10.3-9.614c1.278-22.849,1.84-46.255,1.3-63.422H295.23c.713,19.555.889,42.311.661,62.732a10.251,10.251,0,0,0,10.313,10.3" transform="translate(-244.511 -550.385)" fill="#5f6386"/>
    <path id="Path_15358" data-name="Path 15358" d="M259.808,950.508h0a10.154,10.154,0,0,1,8.154,12.39c-4.725,19.168-11.588,47.189-14.735,59.458l-17.186-3.075c3.277-14.034,8.39-43.091,11.848-60.718a10.267,10.267,0,0,1,11.919-8.055" transform="translate(-195.489 -789.034)" fill="#5f6386"/>
    <path id="Path_15359" data-name="Path 15359" d="M173.826,700.679h0a10.259,10.259,0,0,0,10.382-9.525c1.479-22.837,2.247-46.237,1.856-63.408l-22.57-.194c.542,19.561.517,42.316.109,62.735a10.248,10.248,0,0,0,10.223,10.392" transform="translate(-135.406 -521.032)" fill="#5f6386"/>
    <path id="Path_15360" data-name="Path 15360" d="M56.479,943.711h0a10.1,10.1,0,0,1,4.845,13.982c-9.318,17.448-22.9,42.966-28.983,54.1l-15.906-7.128C23.082,991.85,35.22,964.9,42.93,948.646a10.327,10.327,0,0,1,13.549-4.936" transform="translate(-13.612 -782.771)" fill="#5f6386"/>
    <path id="Path_15361" data-name="Path 15361" d="M199,399.166s-.577-45.26-13.209-51.7c-7.242-3.694-22.229-2.691-29.872,2.412-7.714,5.15-2.266,49.291-2.266,49.291Z" transform="translate(-125.707 -286.645)" fill="#80c2c1"/>
    <path id="Path_15362" data-name="Path 15362" d="M676.371,385.187a9.4,9.4,0,0,1,3.7-2.363c2.019-.563,3.448-.719,5.175-2.344s3.339.308,1.772,1.658-4.38,3.176-2.013,4.288,8.819-1.385,8.186,2.485c0,0,3.16-.475,3.188.8s-2.833,1.72-2.833,1.72,2.484,2.532-4.964,2.495c0,0,.347,1.59-1.1,1.754-2.319.262-7.253-1.094-10.638-3.151-5.5-3.342-.467-7.341-.467-7.341" transform="translate(-558.43 -315.383)" fill="#fd8b66"/>
    <path id="Path_15363" data-name="Path 15363" d="M740.746,432.066a46.111,46.111,0,0,1-5.6-.408l.051-.4c6.507.808,8.318.146,8.336.139l.153.375a9.113,9.113,0,0,1-2.943.294" transform="translate(-608.853 -358.056)" fill="#e56542"/>
    <path id="Path_15364" data-name="Path 15364" d="M740.867,445.572a30.838,30.838,0,0,1-5.773-.452l.084-.4a41.048,41.048,0,0,0,8.73.357l.028.4c-.026,0-1.334.087-3.069.087" transform="translate(-608.807 -369.237)" fill="#e56542"/>
    <path id="Path_15365" data-name="Path 15365" d="M734.425,457.467c-.027,0-2.691-.472-4.761-.918l.087-.4c2.062.444,4.718.911,4.744.915Z" transform="translate(-604.31 -378.727)" fill="#e56542"/>
    <path id="Path_15366" data-name="Path 15366" d="M501.4,96.859a63.894,63.894,0,0,1,2.666-8.744,32.18,32.18,0,0,1,4.24-7.645,26.6,26.6,0,0,1,6.709-6.238,34.5,34.5,0,0,1,10.028-4.321q2.979-.811,7.912-2.144a74.554,74.554,0,0,0,9.818-3.413,36.687,36.687,0,0,0,8.863-5.327,14.39,14.39,0,0,0,5.094-8.089,12.59,12.59,0,0,0-2.5-11.5,18.414,18.414,0,0,0-10.374-6.27,17.068,17.068,0,0,0-7.6-.123,28.236,28.236,0,0,0-6.56,2.343c-2.032,1.028-13,5.842-17.4,11.912L495.2,27.488c5.438-7.408,14.3-22.611,23.455-23.645C531.441,2.4,541.431,5.219,551.1,7.4a57.506,57.506,0,0,1,15.014,5.725,40.578,40.578,0,0,1,12.259,10.2A37.6,37.6,0,0,1,585.5,38.1q2.1,8.549-.411,19.447-2.66,11.506-9.258,18.194a44.326,44.326,0,0,1-17.349,10.421,90.041,90.041,0,0,1-9.85,3.087,84.324,84.324,0,0,0-9.144,2.822,23.809,23.809,0,0,0-7.185,4.113,12.212,12.212,0,0,0-3.928,6.76Zm-10.82,49.594,7-30.279,26.764,6.04-7,30.279Z" transform="translate(-406.302 -2.863)" fill="#db8631"/>
    <path id="Path_15367" data-name="Path 15367" d="M421.025,90.878a63.844,63.844,0,0,1,2.666-8.744,32.186,32.186,0,0,1,4.24-7.645,26.59,26.59,0,0,1,6.709-6.238,34.492,34.492,0,0,1,10.028-4.321q2.979-.811,7.912-2.144a74.552,74.552,0,0,0,9.818-3.413,36.689,36.689,0,0,0,8.863-5.327,14.39,14.39,0,0,0,5.095-8.089,12.59,12.59,0,0,0-2.5-11.5,18.415,18.415,0,0,0-10.374-6.27,17.065,17.065,0,0,0-7.6-.123,28.238,28.238,0,0,0-6.561,2.342,25.005,25.005,0,0,0-5.489,3.753q-2.446,2.21-4.342,3.9L421.8,17.779A41.77,41.77,0,0,1,443.091,2.406a51.407,51.407,0,0,1,27.636-.984,57.51,57.51,0,0,1,15.014,5.725A40.589,40.589,0,0,1,498,17.346a37.6,37.6,0,0,1,7.118,14.775q2.1,8.549-.411,19.447-2.66,11.506-9.258,18.194A44.322,44.322,0,0,1,478.1,80.183a90.049,90.049,0,0,1-9.85,3.087,84.323,84.323,0,0,0-9.144,2.822,23.812,23.812,0,0,0-7.185,4.113,12.212,12.212,0,0,0-3.927,6.76Zm-10.82,49.594,7-30.279,26.764,6.04-7,30.279Z" transform="translate(-339.733 0.001)" fill="#ffaa40"/>
    <path id="Path_15368" data-name="Path 15368" d="M236.21,302.064c4.778,0,6.956-5.514,5.672-6.783a4.47,4.47,0,0,1-.9-1.38h0a9.206,9.206,0,0,1-.649-2.395l0,0-8.833-7.784c.477,4.956-1.67,8.436-2.449,10.914s1.733,7.431,7.167,7.431" transform="translate(-189.58 -235.561)" fill="#fb855f"/>
    <path id="Path_15369" data-name="Path 15369" d="M251.138,310.352c2.533,4.787,7.788,4.312,7.935,4.322a9.2,9.2,0,0,1-.649-2.395l0,0c-.239-.135-9.657-6.41-7.283-1.924" transform="translate(-207.676 -256.333)" fill="#e56542"/>
    <path id="Path_15370" data-name="Path 15370" d="M193.107,226.62s.38,4.524,7.037,9.185c6.98,4.886-.965-10.132-.965-10.132Z" transform="translate(-159.932 -187.367)" fill="#251138"/>
    <path id="Path_15371" data-name="Path 15371" d="M238.591,215.241s.943,3.9,2.164,8.274c1.747,6.255,1.9,11.312-4.553,11.312-10.831,0-10.11-17.757-10.11-17.757Z" transform="translate(-187.243 -178.706)" fill="#fb855f"/>
    <path id="Path_15603" data-name="Path 15603" d="M0,0,.818,0,.837,6.925l-.818,0Z" transform="translate(69.458 79.977) rotate(-13.796)" fill="#50a5a0"/>
    <path id="Path_15372" data-name="Path 15372" d="M266.222,691.9l-19.5-.876,6.2-19.263,9.305-1.313Z" transform="translate(-204.338 -556.646)" fill="#5f6386"/>
    <path id="Path_15373" data-name="Path 15373" d="M290.443,677.075l-.068-.806,4.893-.4-1.5-12.06.812-.1,1.6,12.9Z" transform="translate(-240.49 -551.051)" fill="#251138"/>
    <path id="Path_15374" data-name="Path 15374" d="M213.516,271.017a3.628,3.628,0,1,0,3.628-3.585,3.607,3.607,0,0,0-3.628,3.585" transform="translate(-176.835 -222.038)" fill="#fb855f"/>
    <path id="Path_15375" data-name="Path 15375" d="M408.657,681.756l-2.64-2.3-.895-17.682.817-.04.878,17.342,2.382,2.076Z" transform="translate(-335.524 -549.41)" fill="#251138"/>
    <path id="Path_15376" data-name="Path 15376" d="M165.269,689.862l-.406-.7,3.167-1.788.551-18.241.818.024-.564,18.695Z" transform="translate(-136.54 -555.553)" fill="#251138"/>
    <path id="Path_15377" data-name="Path 15377" d="M253.226,1330.37l1.557-5.352-16.886-3.689-1.857,5.966Z" transform="translate(-195.489 -1097.049)" fill="#494e6d"/>
    <path id="Path_15378" data-name="Path 15378" d="M35.51,1279.566l-3.169,5.913-15.906-7.128,3.233-5.915Z" transform="translate(-13.612 -1056.455)" fill="#494e6d"/>
    <path id="Path_15379" data-name="Path 15379" d="M221.437,357.418c-6.392,0-8.161-3.808-10.019-9.447l.778-.25c2.141,6.5,3.924,9.483,11.008,8.8,7.051-.683,6.63-9.488,6.609-9.863l.817-.046c.006.1.487,9.955-7.346,10.714q-.983.1-1.847.095" transform="translate(-175.097 -287.777)" fill="#50a5a0"/>
    <path id="Path_15380" data-name="Path 15380" d="M197.119,184.819a3.313,3.313,0,0,1,3.988-2.335c3.1.73,4.579,2.189,6.2,1.459s2.168-3.678,2.168-3.678-2.906-9.31-12.211-6.683-5.613,10.361-5.613,10.361l3.25,1.459Z" transform="translate(-158.13 -143.731)" fill="#251138"/>
    <path id="Path_15381" data-name="Path 15381" d="M213.782,590.364a.041.041,0,0,0-.013-.016c-.2-.282-.385-.559-.545-.838a5.77,5.77,0,0,1-.891-3.24,4.6,4.6,0,0,1,.22-1.144c.83-2.531,3.059-3.4,6.075-3.175a31.666,31.666,0,0,1,9.625,2.818c11.515,5,25,14.8,25,14.8s.474,6.332-4.694,9.013c0,0-18.79-5.985-29.306-13.26a22.877,22.877,0,0,1-5.473-4.959" transform="translate(-175.848 -483.143)" fill="#80c2c1"/>
    <path id="Path_15382" data-name="Path 15382" d="M174.053,438.771a.043.043,0,0,0-.021,0,6.71,6.71,0,0,1-.985-.209,8.115,8.115,0,0,1-2.954-1.66,20.459,20.459,0,0,1-4.654-6.449c-5.674-11.326-7.833-30.131-7.833-30.131-.091-6.82,9.593-8.678,13.215-3.8,0,0,7.246,15.9,9.421,28.171.736,4.15.892,7.886-.01,10.453a4.89,4.89,0,0,1-2.945,3.228,6.882,6.882,0,0,1-3.234.4" transform="translate(-130.529 -326.94)" fill="#80c2c1"/>
    <path id="Path_15383" data-name="Path 15383" d="M415.5,682.73a9.091,9.091,0,0,1,4.468-.192c2.018.577,3.3,1.214,5.693.635s2.615,2.117.519,2.526-5.511.581-4.178,2.921,8.185,3.53,5.4,6.814c0,0,2.92,1.285,2.2,2.494s-3.371.062-3.371.062.606,3.736-5.6-.378c0,0-.635,1.682-1.943,1.042-2.093-1.024-5.433-5-7.069-8.781-2.659-6.147,3.877-7.143,3.877-7.143" transform="translate(-340.378 -566.507)" fill="#fd8b66"/>
    <path id="Path_15384" data-name="Path 15384" d="M472.2,735.838c-.079-.012-1.991-.358-7.089-4.787l.27-.3c4.969,4.317,6.867,4.689,6.885,4.692Z" transform="translate(-385.207 -606.711)" fill="#e56542"/>
    <path id="Path_15385" data-name="Path 15385" d="M464.532,748.928a37.8,37.8,0,0,1-7.189-5.187l.3-.279a37.349,37.349,0,0,0,7.093,5.114Z" transform="translate(-378.773 -617.268)" fill="#e56542"/>
    <path id="Path_15386" data-name="Path 15386" d="M449.684,754.934c-.02-.019-1.977-1.917-3.45-3.469l.3-.276c1.467,1.546,3.418,3.438,3.438,3.456Z" transform="translate(-369.573 -623.683)" fill="#e56542"/>
    <path id="Path_15604" data-name="Path 15604" d="M0,0,3.594.02l0,.812L0,.812Z" transform="matrix(0.838, -0.546, 0.546, 0.838, 46.969, 102.108)" fill="#50a5a0"/>
    <path id="Path_15387" data-name="Path 15387" d="M260.051,261.732a.757.757,0,1,0,.757-.748.753.753,0,0,0-.757.748" transform="translate(-215.375 -216.685)" fill="#8e3332"/>
    <path id="Path_15388" data-name="Path 15388" d="M287.522,255.666a.757.757,0,1,0,.757-.748.753.753,0,0,0-.757.748" transform="translate(-238.127 -211.648)" fill="#8e3332"/>
    <path id="Path_15389" data-name="Path 15389" d="M278.444,269.423a2.433,2.433,0,0,1-.991-.219l.337-.737a1.15,1.15,0,0,0,1.485-.25c.176-.36-.376-.675-.549-.763a3.127,3.127,0,0,1-1.713-3.161l.81.115a2.319,2.319,0,0,0,1.277,2.327c1.069.543,1.159,1.327.912,1.833a1.712,1.712,0,0,1-1.568.856" transform="translate(-229.404 -219.432)" fill="#8e3332"/>
    <path id="Path_15390" data-name="Path 15390" d="M285.735,302.252l-2.875.43s.479,1.851,1.786,1.636,1.089-2.066,1.089-2.066" transform="translate(-234.266 -250.948)" fill="#fff"/>
    <path id="Path_15391" data-name="Path 15391" d="M248.093,247.81l-.746-.332a3,3,0,0,1,2.457-1.77l.042.807-.021-.4.023.4a2.182,2.182,0,0,0-1.755,1.294" transform="translate(-204.854 -204.002)" fill="#8e3332"/>
    <path id="Path_15392" data-name="Path 15392" d="M280,239.808l-.473-.659a4.136,4.136,0,0,1,3.027-.5l-.189.787a3.35,3.35,0,0,0-2.365.374" transform="translate(-231.502 -198.061)" fill="#8e3332"/>
    <path id="Path_15393" data-name="Path 15393" d="M221.322,285l-.809-.123a2.449,2.449,0,0,1,2.3-1.9l.064.806-.032-.4.033.4c-.057,0-1.385.129-1.554,1.212" transform="translate(-182.63 -234.952)" fill="#8e3332"/>
    <path id="Path_15394" data-name="Path 15394" d="M186.469,997.285a6.586,6.586,0,1,0,6.585-6.506,6.546,6.546,0,0,0-6.585,6.506" transform="translate(-154.434 -822.606)" fill="#494e6d"/>
    <path id="Path_15395" data-name="Path 15395" d="M327.444,1000.843a6.866,6.866,0,1,0,6.865-6.783,6.824,6.824,0,0,0-6.865,6.783" transform="translate(-271.19 -825.33)" fill="#494e6d"/>
    <path id="Path_15396" data-name="Path 15396" d="M168.165,490.83c-5.712-9.272-7.031-22.693-7.043-22.827l.815-.075c.013.133,1.315,13.372,6.928,22.482Z" transform="translate(-133.442 -388.502)" fill="#50a5a0"/>
    <path id="Path_15605" data-name="Path 15605" d="M0,0,.811,0,.865,10.078l-.811,0Z" transform="matrix(0.526, -0.85, 0.85, 0.526, 63.093, 107.313)" fill="#50a5a0"/>
  </g>
</svg>
