<svg xmlns="http://www.w3.org/2000/svg" width="99.995" height="100" viewBox="0 0 99.995 100">
  <g id="Group_486" data-name="Group 486" transform="translate(-683.342 -585.539)">
    <circle id="Ellipse_16" data-name="Ellipse 16" cx="5.823" cy="5.823" r="5.823" transform="translate(762.78 588.87)" fill="#f9d61b"/>
    <circle id="Ellipse_17" data-name="Ellipse 17" cx="6.14" cy="6.14" r="6.14" transform="translate(728.191 619.461)" fill="#f9d61b"/>
    <circle id="Ellipse_18" data-name="Ellipse 18" cx="6.14" cy="6.14" r="6.14" transform="translate(692.136 651.262)" fill="#f9d61b"/>
    <g id="Group_485" data-name="Group 485" transform="translate(683.342 585.539)">
      <g id="Group_484" data-name="Group 484">
        <path id="Path_2061" data-name="Path 2061" d="M714.38,639.837q-6.6,0-13.2,0c-1.265,0-1.9-.672-1.9-2,0-2.3-.011-4.606,0-6.91a15.975,15.975,0,0,1,6-12.734,12.846,12.846,0,0,1,2.877-1.8c.349-.159.425-.245.128-.584a9.138,9.138,0,0,1-.1-12.133,7.682,7.682,0,0,1,8.581-2.541A8.3,8.3,0,0,1,722.7,608.1a8.931,8.931,0,0,1-2.2,7.741c-.243.279-.217.363.1.524a15.755,15.755,0,0,1,8.778,12.13,10.984,10.984,0,0,1,.157,1.868c-.011,2.505,0,5.013-.007,7.518a1.711,1.711,0,0,1-1.844,1.948Q721.034,639.838,714.38,639.837Zm0-3.617h2.671q4.242,0,8.486,0c.281,0,.575.044.566-.422a50.143,50.143,0,0,0-.21-6.892c-1.024-6.468-6.673-11.016-13.013-10.162a11.111,11.111,0,0,0-7.2,4.033,12.349,12.349,0,0,0-2.905,7.237c-.133,1.842-.031,3.684-.091,5.523-.018.524.124.694.639.692C707.017,636.208,710.7,636.22,714.385,636.22Zm.086-31.743a5.241,5.241,0,0,0-.1,10.468,5,5,0,0,0,4.988-5.145A5.082,5.082,0,0,0,714.471,604.476Z" transform="translate(-664.404 -570.299)" fill="#686867"/>
        <path id="Path_2062" data-name="Path 2062" d="M730.328,624.61H717.074c-1.22,0-1.864-.683-1.864-1.979,0-2.47-.046-4.94.009-7.407A15.915,15.915,0,0,1,720,604.049a14.118,14.118,0,0,1,4.122-2.894c.354-.166.369-.261.108-.555a9.141,9.141,0,0,1-2.282-7.206,8.791,8.791,0,0,1,6.558-7.653,8.409,8.409,0,0,1,10.061,6.744,9.01,9.01,0,0,1-2.087,8.084c-.245.287-.307.389.091.593a15.74,15.74,0,0,1,8.807,12.643,30.839,30.839,0,0,1,.088,3.81c.018,1.694.007,3.39,0,5.086a1.708,1.708,0,0,1-1.828,1.91Q736.983,624.614,730.328,624.61Zm-.026-3.617h.367q5.4,0,10.79,0c.272,0,.59.077.579-.4a53.08,53.08,0,0,0-.2-6.839c-1.19-8.04-9.523-12.707-16.451-9.156a11.938,11.938,0,0,0-6.678,10.342c-.142,1.787-.022,3.573-.086,5.358-.02.566.144.716.674.712C722.967,620.984,726.635,620.995,730.3,620.993Zm.053-21.256a5.075,5.075,0,0,0,4.935-5.278,5.013,5.013,0,0,0-4.995-5.2,5.247,5.247,0,0,0,.06,10.476Z" transform="translate(-645.48 -585.539)" fill="#686867"/>
        <path id="Path_2063" data-name="Path 2063" d="M698.486,655.036H685.23a1.723,1.723,0,0,1-1.871-1.977c0-2.3-.042-4.608.007-6.91.139-6.717,3.155-11.52,8.8-14.518.416-.221.46-.305.137-.688a8.963,8.963,0,0,1-1.8-8.94,8.255,8.255,0,0,1,6.6-5.924c4.48-.9,9.008,2.532,9.7,7.31a9.148,9.148,0,0,1-2.18,7.6c-.241.281-.321.389.084.595a15.716,15.716,0,0,1,8.807,12.643,36.356,36.356,0,0,1,.091,4.416c.022,1.528.009,3.058,0,4.588a1.685,1.685,0,0,1-1.714,1.8Q705.193,655.037,698.486,655.036Zm-.033-3.617h.785q5.187,0,10.372,0c.274,0,.586.073.577-.4a51.515,51.515,0,0,0-.2-6.839c-1.221-8-9.283-12.6-16.256-9.238-4.21,2.028-6.492,5.59-6.872,10.483-.137,1.769-.018,3.538-.082,5.3-.022.566.148.712.677.71C691.119,651.407,694.787,651.418,698.453,651.418Zm.055-21.258a5.252,5.252,0,1,0-4.986-5.234A5.163,5.163,0,0,0,698.508,630.16Z" transform="translate(-683.342 -555.036)" fill="#686867"/>
        <path id="Path_2064" data-name="Path 2064" d="M723.769,595.974H749.7c.787,0,.787,0,.789.858,0,.681-.031,1.364.009,2.043.031.548-.13.732-.672.727-3.527-.022-7.056-.011-10.583-.011-13.43,0-26.861-.029-40.291.011a12.21,12.21,0,0,0-12.046,11.1,11.886,11.886,0,0,0,2.888,9.212,11.279,11.279,0,0,0,8.228,4.281c3.472.21,6.948.051,10.421.084,2.618.024,5.238.016,7.859-.007.491,0,.688.135.659.681-.037.754-.037,1.512,0,2.266.027.531-.139.692-.648.69-4.8-.018-9.605-.009-14.408-.009l-3.405,0c-7,0-13.413-5.656-14.861-12.873a16.358,16.358,0,0,1,9.517-17.948,14.25,14.25,0,0,1,5.462-1.11Q711.2,595.986,723.769,595.974Z" transform="translate(-683.329 -574.863)" fill="#686867"/>
        <path id="Path_2065" data-name="Path 2065" d="M725.237,645.522q-12.942,0-25.884,0c-.829,0-.829,0-.832-.865,0-.7.027-1.4-.009-2.1-.024-.509.141-.663.624-.661,3.387.018,6.777.009,10.165.009q20.225,0,40.448,0a11.693,11.693,0,0,0,11.341-7.934c2.7-7.549-1.891-15.359-9.024-16.557a15.127,15.127,0,0,0-2.448-.2q-7.546-.013-15.091,0c-.789,0-.792,0-.794-.849,0-.739.013-1.475,0-2.213-.009-.389.1-.559.5-.559,5.711.011,11.425-.091,17.132.053a13.211,13.211,0,0,1,8.736,3.812,16.138,16.138,0,0,1,5.229,13.28,15.816,15.816,0,0,1-11.421,14.335,14.535,14.535,0,0,1-3.626.46q-12.521-.02-25.043-.007Z" transform="translate(-665.683 -557.909)" fill="#686867"/>
      </g>
    </g>
  </g>
</svg>
