<svg xmlns="http://www.w3.org/2000/svg" xmlns:xlink="http://www.w3.org/1999/xlink" width="105" height="105" viewBox="0 0 105 105">
  <defs>
    <filter id="Ellipse_95" x="0" y="0" width="105" height="105" filterUnits="userSpaceOnUse">
      <feOffset input="SourceAlpha"/>
      <feGaussianBlur stdDeviation="12.5" result="blur"/>
      <feFlood flood-color="#f6a03f"/>
      <feComposite operator="in" in2="blur"/>
    </filter>
    <linearGradient id="linear-gradient" x1="0.023" y1="0.119" x2="1.045" y2="0.936" gradientUnits="objectBoundingBox">
      <stop offset="0" stop-color="#ffd334"/>
      <stop offset="1" stop-color="#ec6a4a"/>
    </linearGradient>
  </defs>
  <g id="Group_1680" data-name="Group 1680" transform="translate(-405.5 -1254.5)">
    <g transform="matrix(1, 0, 0, 1, 405.5, 1254.5)" filter="url(#Ellipse_95)" style="mix-blend-mode: multiply;isolation: isolate">
      <ellipse id="Ellipse_95-2" data-name="Ellipse 95" cx="15" cy="15" rx="15" ry="15" transform="translate(37.5 37.5)" fill="#fff"/>
    </g>
    <g id="Group_1493" data-name="Group 1493" transform="translate(433.148 1282.083)">
      <g id="Group_954" data-name="Group 954" transform="translate(-0.148 -0.083)">
        <circle id="Ellipse_24" data-name="Ellipse 24" cx="23.862" cy="23.862" r="23.862" transform="translate(1.138 1.138)" fill="url(#linear-gradient)"/>
        <g id="Group_953" data-name="Group 953">
          <path id="Path_2890" data-name="Path 2890" d="M191.381,732.42a25,25,0,1,1,25-25A25.028,25.028,0,0,1,191.381,732.42Zm0-47.717A22.717,22.717,0,1,0,214.1,707.42,22.743,22.743,0,0,0,191.381,684.7Z" transform="translate(-166.381 -682.42)" fill="#fff"/>
        </g>
      </g>
      <g id="Group_1671" data-name="Group 1671" transform="translate(11.852 11.918)">
        <g id="Group_941" data-name="Group 941">
          <path id="Path_2855" data-name="Path 2855" d="M310.985,711.677H307.7c-.316,0-.473-.168-.473-.5,0-.572,0-1.145,0-1.717a3.968,3.968,0,0,1,1.491-3.165,3.19,3.19,0,0,1,.715-.447c.087-.04.105-.061.033-.145a2.271,2.271,0,0,1-.026-3.016,1.91,1.91,0,0,1,2.133-.631,2.061,2.061,0,0,1,1.474,1.732,2.215,2.215,0,0,1-.547,1.924c-.06.069-.053.09.026.13a3.919,3.919,0,0,1,2.182,3.016,2.6,2.6,0,0,1,.039.464c0,.623,0,1.246,0,1.869a.426.426,0,0,1-.459.484Zm0-.9h2.773c.07,0,.143.011.141-.1a12.442,12.442,0,0,0-.052-1.713,2.92,2.92,0,0,0-3.234-2.527,2.764,2.764,0,0,0-1.788,1,3.059,3.059,0,0,0-.722,1.8c-.033.458-.008.915-.023,1.372,0,.131.032.173.159.173C309.155,710.775,310.071,710.778,310.987,710.778Zm.02-7.89a1.3,1.3,0,0,0-.026,2.6,1.243,1.243,0,0,0,1.24-1.279A1.262,1.262,0,0,0,311.007,702.888Z" transform="translate(-298.474 -693.608)" fill="#fff" stroke="#fff" stroke-width="0.5"/>
          <path id="Path_2856" data-name="Path 2856" d="M319.557,703.5h-3.295c-.3,0-.463-.17-.464-.491,0-.614-.011-1.228,0-1.842a3.954,3.954,0,0,1,1.187-2.777,3.5,3.5,0,0,1,1.025-.72c.088-.041.091-.064.027-.138a2.268,2.268,0,0,1-.567-1.791,2.184,2.184,0,0,1,1.63-1.9,2.09,2.09,0,0,1,2.5,1.676,2.241,2.241,0,0,1-.519,2.01c-.061.072-.077.1.023.147a3.91,3.91,0,0,1,2.189,3.142,7.514,7.514,0,0,1,.021.947c.005.421,0,.843,0,1.264a.424.424,0,0,1-.455.475Zm-.007-.9h2.774c.067,0,.146.019.144-.1a13.481,13.481,0,0,0-.049-1.7,2.876,2.876,0,0,0-4.09-2.276,2.968,2.968,0,0,0-1.659,2.571c-.036.443-.006.888-.021,1.331-.005.141.036.178.168.177C317.727,702.6,318.638,702.6,319.549,702.6Zm.013-5.284A1.261,1.261,0,0,0,320.79,696a1.247,1.247,0,0,0-1.242-1.292,1.3,1.3,0,0,0,.015,2.6Z" transform="translate(-298.289 -693.785)" fill="#fff" stroke="#fff" stroke-width="0.5"/>
          <path id="Path_2857" data-name="Path 2857" d="M302.424,719.857h-3.295a.428.428,0,0,1-.465-.491c0-.572-.01-1.145,0-1.717a3.907,3.907,0,0,1,2.188-3.609c.1-.054.114-.076.035-.171a2.227,2.227,0,0,1-.447-2.222,2.052,2.052,0,0,1,1.64-1.472,2.11,2.11,0,0,1,2.411,1.817,2.276,2.276,0,0,1-.543,1.889c-.059.07-.08.1.021.147a3.9,3.9,0,0,1,2.188,3.143,9.14,9.14,0,0,1,.023,1.1c.005.38,0,.761,0,1.141a.417.417,0,0,1-.425.448Zm-.008-.9h2.774c.068,0,.146.018.143-.1a12.933,12.933,0,0,0-.049-1.7,2.871,2.871,0,0,0-4.042-2.3,2.95,2.95,0,0,0-1.708,2.606c-.034.439,0,.879-.02,1.318-.005.141.037.178.169.177C300.593,718.954,301.5,718.958,302.415,718.958Zm.014-5.284a1.306,1.306,0,1,0-1.239-1.3A1.283,1.283,0,0,0,302.43,713.674Z" transform="translate(-298.66 -693.431)" fill="#fff" stroke="#fff" stroke-width="0.5"/>
          <path id="Path_2858" data-name="Path 2858" d="M308.712,699.4h6.446c.2,0,.2,0,.2.213,0,.169-.007.34,0,.509.007.136-.033.182-.168.181-.877-.006-1.753,0-2.631,0-3.338,0-6.676-.007-10.014,0a3.034,3.034,0,0,0-2.994,2.759,2.951,2.951,0,0,0,.718,2.289,2.8,2.8,0,0,0,2.044,1.064c.863.053,1.727.013,2.59.021.652.006,1.3,0,1.954,0,.122,0,.171.034.163.169-.009.187-.009.376,0,.563.006.132-.035.173-.161.172-1.193,0-2.387,0-3.581,0h-.847a3.947,3.947,0,0,1-3.693-3.2,4.065,4.065,0,0,1,2.365-4.461,3.53,3.53,0,0,1,1.358-.276Q305.586,699.4,308.712,699.4Z" transform="translate(-298.66 -693.663)" fill="#fff" stroke="#fff" stroke-width="0.5"/>
          <path id="Path_2859" data-name="Path 2859" d="M313.464,716.805h-6.434c-.205,0-.205,0-.206-.215,0-.175.006-.349,0-.522-.006-.127.035-.165.155-.164.842,0,1.684,0,2.526,0h10.054a2.908,2.908,0,0,0,2.819-1.973,3.066,3.066,0,0,0-2.242-4.115,3.72,3.72,0,0,0-.609-.049q-1.876,0-3.751,0c-.2,0-.2,0-.2-.212,0-.183,0-.367,0-.55,0-.1.025-.14.125-.139,1.419,0,2.839-.023,4.258.013a3.285,3.285,0,0,1,2.172.947,4.014,4.014,0,0,1,1.3,3.3,3.931,3.931,0,0,1-2.838,3.563,3.624,3.624,0,0,1-.9.114q-3.112-.006-6.225,0Z" transform="translate(-298.483 -693.459)" fill="#fff" stroke="#fff" stroke-width="0.5"/>
        </g>
      </g>
    </g>
  </g>
</svg>
