<svg xmlns="http://www.w3.org/2000/svg" xmlns:xlink="http://www.w3.org/1999/xlink" width="492.675" height="330.932" viewBox="0 0 492.675 330.932">
  <defs>
    <linearGradient id="linear-gradient" y1="0.5" x2="1" y2="0.5" gradientUnits="objectBoundingBox">
      <stop offset="0.206" stop-color="#ccc"/>
      <stop offset="1" stop-color="#999898"/>
    </linearGradient>
  </defs>
  <g id="Job_Interview_-_Vector_Illustration" data-name="Job Interview - Vector Illustration" transform="translate(-334.252 -141.047)">
    <g id="Background" transform="translate(334.293 141.047)">
      <path id="Path_15250" data-name="Path 15250" d="M423.665,470.635c-12.642-9.069-38.421-30.149-53.124-65.876-5.607-13.6-22.124-53.756-3.738-93.194,14.209-30.478,41.966-44.934,65.382-57.137,65.189-33.969,95.035-10.911,139.173-43.093,38.476-28.032,29.571-55.543,62.578-66.811,35.838-12.257,75.248,10.251,111.168,30.781,27.648,15.8,61.094,34.9,82.2,74.726,21.876,41.279,17.479,80.277,14.951,100.23-7.888,62.111-44.357,103.775-60.792,120.4" transform="translate(-351.77 -141.047)" fill="#f2f4f5" opacity="0.6"/>
      <g id="Group_8196" data-name="Group 8196" transform="translate(0 328.864)">
        <g id="Group_8195" data-name="Group 8195">
          <path id="Path_15251" data-name="Path 15251" d="M794.9,1337.7H353.72c-5.964,0-11.928-.082-17.891,0h-.77a.688.688,0,0,0,0,1.374H776.241c5.964,0,11.928.082,17.891,0h.77a.688.688,0,0,0,0-1.374Z" transform="translate(-334.4 -1337.667)" fill="#182f33"/>
        </g>
      </g>
      <path id="Path_15252" data-name="Path 15252" d="M480.3,511.327c2.309,1.759,9.289-10.306,29.352-19.21,16.16-7.173,26.686-6.046,27.263-10.2.66-4.892-12.972-13.8-25.641-12.34C488.159,472.246,476.589,508.469,480.3,511.327Z" transform="translate(-439.707 -379.175)" fill="#f2f4f5" opacity="0.6"/>
    </g>
    <g id="Character" transform="translate(334.252 176.308)">
      <g id="Group_8197" data-name="Group 8197" transform="translate(360.835 4.054)">
        <circle id="Ellipse_309" data-name="Ellipse 309" cx="18.496" cy="18.496" r="18.496" fill="none" stroke="#919191" stroke-width="9.739" opacity="0.8"/>
        <line id="Line_341" data-name="Line 341" x2="13.851" transform="translate(7.915 20.035)" fill="none" stroke="#919191" stroke-width="6.255" opacity="0.8"/>
        <line id="Line_342" data-name="Line 342" y2="15.116" transform="translate(20.31 6.046)" fill="none" stroke="#919191" stroke-width="6.255" opacity="0.8"/>
      </g>
      <g id="Group_8198" data-name="Group 8198" transform="translate(300.325 88.673)">
        <rect id="Rectangle_1978" data-name="Rectangle 1978" width="9.921" height="103.995" transform="translate(47.785 90.528)" fill="#868686"/>
        <path id="Path_15253" data-name="Path 15253" d="M1499.272,592c3.133,8.272,23.443,63.76-1.1,87.038a37.489,37.489,0,0,1-5.909,4.425c-11.131,7.063-22.289,7.53-29.132,7.75-11.653.357-19.293.577-26.191-4.782a29.347,29.347,0,0,1-9.592-15.858c-3.655-17.644,24.1-43.148,66.756-64.172Z" transform="translate(-1427.027 -592)" fill="#f4bf25"/>
        <path id="Path_15254" data-name="Path 15254" d="M1522,1301.268h59.2s-25.339-14.951-33.2-13.906S1522,1301.268,1522,1301.268Z" transform="translate(-1495.899 -1096.219)" fill="#828483"/>
        <path id="Path_15255" data-name="Path 15255" d="M1521.858,792.317c1.319,1.9,3.765,2.226,6.211,2.556,13,1.731,27.235-10.608,32.485-24.46,3.023-7.97,4.15-19.348,0-21.546-1.182-.632-3.738-.99-12.422,5.854C1534.39,765.549,1516.938,785.227,1521.858,792.317Z" transform="translate(-1495.179 -705.527)" fill="#f3a722"/>
      </g>
      <g id="Group_8216" data-name="Group 8216" transform="translate(252.57)">
        <path id="Path_15256" data-name="Path 15256" d="M1372.9,1303.2c0-1.594-7.805-1.7-17.452-1.7s-17.452,1.292-17.452,2.886,7.805,2.886,17.452,2.886S1372.9,1304.8,1372.9,1303.2Z" transform="translate(-1314.712 -1017.836)" fill="#a19e97" opacity="0.2"/>
        <path id="Path_15257" data-name="Path 15257" d="M1499.049,1301.507c0-.852-3.848-.907-8.575-.907s-8.575.687-8.575,1.539,3.848,1.539,8.575,1.539S1499.049,1302.359,1499.049,1301.507Z" transform="translate(-1419.064 -1017.184)" fill="#a19e97" opacity="0.2"/>
        <path id="Path_15258" data-name="Path 15258" d="M1523.989,427.074a20.683,20.683,0,0,1-1.484-10.388c.6-6.211-16.1,7.7-16.1,7.7v9.454l4.755,2.693,12.834-7.255Z" transform="translate(-1436.831 -375.035)" fill="#f9be8d"/>
        <path id="Path_15259" data-name="Path 15259" d="M1554.807,401.139c-.6-.44-.22-1.7.467-4.617,1.209-5.222.907-5.139,1.511-6.458.522-1.1,2.281-4.974,4.48-4.782,1.594.137,2.748,2.336,3.133,3.875,1.127,4.425-2.886,8.437-3.683,9.234a10.284,10.284,0,0,1-3.188,2.171C1556.373,401.084,1555.356,401.552,1554.807,401.139Z" transform="translate(-1471.716 -353.415)" fill="#26201c"/>
        <path id="Path_15260" data-name="Path 15260" d="M1443.651,369.846c-.715.247.247,2.281-1.017,6.376-.77,2.446-1.512,3.078-1.924,5.634a8.222,8.222,0,0,0,.192,4.507,6.091,6.091,0,0,0,2.5,3.216,5.736,5.736,0,0,0,5.249.467,5.9,5.9,0,0,0,1.842-1.374C1453.847,384.577,1445.6,369.186,1443.651,369.846Z" transform="translate(-1389.033 -342.212)" fill="#3a322b"/>
        <path id="Path_15261" data-name="Path 15261" d="M1483.829,332.391c-.577-.934-1.4-2.281-2.638-2.281a1.631,1.631,0,0,0-.632.137,13.752,13.752,0,0,0-1.209-3.188,18.467,18.467,0,0,0-8.107-7.833c-9.069-4.535-18.468.467-19.458,1.017L1450.3,322.3c.165,4.232.77,17.259,1.869,23.388a8.6,8.6,0,0,0,.66,2.144c1.869,4.067,6.458,5.579,8.767,6.321a13.593,13.593,0,0,0,11.35-.55c2.144-.934,4.617-2.061,6.321-4.177,1.759-2.2,1.979-4.645,1.979-8.6a3.606,3.606,0,0,0,.824-.385,5.468,5.468,0,0,0,2.116-2.2,5.108,5.108,0,0,0,.632-2.363A5.791,5.791,0,0,0,1483.829,332.391Z" transform="translate(-1396.148 -304.152)" fill="#f9be8d"/>
        <circle id="Ellipse_310" data-name="Ellipse 310" cx="2.034" cy="2.034" r="2.034" transform="translate(72.318 29.283)" fill="#231f20"/>
        <g id="Group_8200" data-name="Group 8200" transform="translate(71.469 25.539)">
          <g id="Group_8199" data-name="Group 8199">
            <path id="Path_15262" data-name="Path 15262" d="M1519.766,363.492a5.518,5.518,0,0,0-6.239-.467.444.444,0,0,0,.44.77,4.661,4.661,0,0,1,5.167.33c.44.357,1.072-.275.632-.632Z" transform="translate(-1513.311 -362.277)" fill="#231f20"/>
          </g>
        </g>
        <circle id="Ellipse_311" data-name="Ellipse 311" cx="2.034" cy="2.034" r="2.034" transform="translate(58.054 28.349)" fill="#231f20"/>
        <g id="Group_8202" data-name="Group 8202" transform="translate(57.205 24.989)">
          <g id="Group_8201" data-name="Group 8201">
            <path id="Path_15263" data-name="Path 15263" d="M1467.866,361.492a5.518,5.518,0,0,0-6.239-.467.444.444,0,0,0,.44.77,4.661,4.661,0,0,1,5.167.33c.467.33,1.1-.275.632-.632Z" transform="translate(-1461.411 -360.277)" fill="#231f20"/>
          </g>
        </g>
        <g id="Group_8204" data-name="Group 8204" transform="translate(65.33 32.309)">
          <g id="Group_8203" data-name="Group 8203">
            <path id="Path_15264" data-name="Path 15264" d="M1492.63,391.58a3.327,3.327,0,0,1-1.044,0c-.77-.275-.22-1.759-.028-2.309.165-.55.412-1.072.6-1.594a1.011,1.011,0,0,0,.137-.687c-.055-.137-.275-.082-.22.055.137.412-.495,1.429-.632,1.786a5.412,5.412,0,0,0-.467,2.171c.083.989.907.8,1.649.8a.111.111,0,1,0,0-.22Z" transform="translate(-1490.974 -386.91)" fill="#231f20"/>
          </g>
        </g>
        <circle id="Ellipse_312" data-name="Ellipse 312" cx="3.435" cy="3.435" r="3.435" transform="translate(75.231 33.653)" fill="#f27064" opacity="0.3"/>
        <g id="Group_8205" data-name="Group 8205" transform="translate(66.656 40.523)">
          <path id="Path_15265" data-name="Path 15265" d="M1495.8,418.147c.33,4.864,8.465,3.6,6.9-1.347" transform="translate(-1495.8 -416.8)" fill="#be1e2d" stroke="#be1e2d" stroke-width="1.656"/>
          <ellipse id="Ellipse_313" data-name="Ellipse 313" cx="2.968" cy="1.594" rx="2.968" ry="1.594" transform="matrix(0.982, -0.19, 0.19, 0.982, 0.647, 2.031)" fill="#f27064"/>
        </g>
        <path id="Path_15266" data-name="Path 15266" d="M1455.969,395.8a3.627,3.627,0,0,0-1.869.55c.22,2.309.467,4.452.742,6.129a3.723,3.723,0,0,0,1.127.192,3.435,3.435,0,1,0,0-6.871Z" transform="translate(-1398.904 -361.048)" fill="#f27064" opacity="0.3"/>
        <path id="Path_15267" data-name="Path 15267" d="M1437.464,326.746c-1.539-3.9-2.968-6.926-4.04-9.042-1.237-2.473-2.144-4.013-1.621-5.909.495-1.759,1.924-2.858,3.243-3.875a10.37,10.37,0,0,1,5.661-2.583c2.941-.22,6.761,1.1,6.871,2.941.082,1.374-1.869,2.831-4.452,3.683l-5.854,5.909Z" transform="translate(-1382.626 -295.429)" fill="#3a322b"/>
        <path id="Path_15268" data-name="Path 15268" d="M1458.841,276.152a9.248,9.248,0,0,0-1.841,5.359c-.027,3.353,2.006,5.661,3.518,7.365a15.012,15.012,0,0,0,7.75,5.167c5.112,1.209,7.448-1.869,13.274-.192a11.141,11.141,0,0,1,3.683,1.649c4.837,3.38,5.139,9.7,5.167,10.691.055,1.347.165,5.057-2.226,7.943a12.328,12.328,0,0,1-4.068,2.941c.11.22,5.112-.687,9.234-4.617a17.847,17.847,0,0,0,4.974-8.849c1.1-4.919-.33-8.794-2.226-13.824-1.484-3.985-3.106-8.327-7.365-12.367a27.178,27.178,0,0,0-9.784-5.716c-4.2-1.567-10.416-3.875-15.5-.934a11.172,11.172,0,0,0-3.518,3.325" transform="translate(-1401.007 -269.35)" fill="#3a322b"/>
        <path id="Path_15269" data-name="Path 15269" d="M1506.4,449.651a15.8,15.8,0,0,0,3.3-.852,16.457,16.457,0,0,0,2.391-1.1l-5.689,3.27Z" transform="translate(-1436.831 -398.684)" fill="#d99873"/>
        <path id="Path_15270" data-name="Path 15270" d="M1565.351,379.742a3.731,3.731,0,0,0-.137-2.418,3.86,3.86,0,0,0-1.814-1.924" transform="translate(-1478.166 -346.254)" fill="#d99873"/>
        <path id="Path_15271" data-name="Path 15271" d="M1499.666,463.2l-1.017.989L1497,467.982l2.583.742,3.573-1.484Z" transform="translate(-1430.014 -409.925)" fill="#f9be8d"/>
        <path id="Path_15272" data-name="Path 15272" d="M1472.4,309.8c.66,2.721,2.034,6.184,5.084,7.86,3.683,2.034,6.376-.412,12.944.77,2.116.385,7.338,1.292,10.911,5.579.989,1.182,3.9,4.672,3.051,9.124a10.46,10.46,0,0,1-4.315,6.349" transform="translate(-1412.175 -298.683)" fill="none" stroke="#fff" stroke-width="0.271"/>
        <path id="Path_15273" data-name="Path 15273" d="M1524.989,301.262c-3.408-6.046-7.173-8.492-9.894-9.646-4.892-2.034-9.1-.934-12.7-4.315a12.036,12.036,0,0,1-3.3-6.1" transform="translate(-1431.537 -277.943)" fill="none" stroke="#fff" stroke-width="0.271"/>
        <path id="Path_15274" data-name="Path 15274" d="M1448.882,319.5a5.435,5.435,0,0,0-3.023,3.188,5.508,5.508,0,0,0,.247,4.067" transform="translate(-1392.725 -305.717)" fill="none" stroke="#fff" stroke-width="0.271"/>
        <path id="Path_15275" data-name="Path 15275" d="M1446.975,397.1c-.3.44-2.721,4.012-1.319,8a8.088,8.088,0,0,0,2.391,3.435" transform="translate(-1392.466 -361.991)" fill="none" stroke="#fff" stroke-width="0.271"/>
        <g id="Group_8206" data-name="Group 8206" transform="translate(29.307 144.876)">
          <path id="Path_15276" data-name="Path 15276" d="M1417.421,901.786a1.339,1.339,0,0,0,.275-.357c-.055.137-.137.275-.22.467-2.611,5.744-15.583,33.8-17.946,30.451a5.363,5.363,0,0,1-1.017-3.353c.055-3.106,2.144-7.42,4.067-16.16,5.854-9.536-24.075-67.443-42.681-101.494l1.182.577-.66-2.721,17.287-12.7c3.3,10.224,7.338,23.278,10.333,34.711,6.046,22.921,23.058,61.974,23.058,61.974,1.237,2.144,2.336,4.287,3.3,5.936C1415.663,901.209,1416.652,902.5,1417.421,901.786Z" transform="translate(-1359.9 -796.5)" fill="#f9be8d"/>
          <path id="Path_15277" data-name="Path 15277" d="M1570.348,1176.4a5.355,5.355,0,0,1-.247.55A3.783,3.783,0,0,0,1570.348,1176.4Z" transform="translate(-1512.331 -1071.993)" fill="#f9be8d"/>
          <path id="Path_15278" data-name="Path 15278" d="M1497.617,1198.067c.385-.687,7.036-5.387,7.036-5.387s5.139-23.525,8.052-23c0,0,2.364-.275,4.48,6.376l7.833,11.13-2.693,2.061-3.49-4.974s-5.909-.687-7.118,4.837a63.284,63.284,0,0,0-1.4,9.344l-10.361,7.943C1499.953,1206.367,1491.571,1208.511,1497.617,1198.067Z" transform="translate(-1458.18 -1067.112)" fill="#231f20"/>
        </g>
        <g id="Group_8207" data-name="Group 8207" transform="translate(24.339 136.054)">
          <path id="Path_15279" data-name="Path 15279" d="M1389.089,766.544l-7.036,31.22s-.55,7.42-1.292,17.946c-1.621,23.58-4.122,62.743-3.188,69.119a53.406,53.406,0,0,1,.495,6.6,42.05,42.05,0,0,1-.989,9.756s-27.318,15.775-27.18,11.323c.082-2.144,1.237-3.49,3.353-5.3a89.362,89.362,0,0,0,9.866-9.042c7.723-6.623,2.583-61.974-.577-89.786-1.072-9.509-1.9-15.8-1.9-15.8a91.446,91.446,0,0,1-2.116-14.951c5.139-3.188,14.593-9.042,17.122-10.2a4.1,4.1,0,0,0,2.171-3.023Z" transform="translate(-1347.679 -764.4)" fill="#f9be8d"/>
          <path id="Path_15280" data-name="Path 15280" d="M1346.818,1242.655c.632-.357,8.3-.66,8.3-.66s15.335-17.149,17.479-15.061c0,0,2.061,1.072.632,7.888l1.127,13.824-3.188.247-.495-6.156s-4.507-3.848-8.107.165a59.731,59.731,0,0,0-5.579,7.146l-12.23.99C1344.784,1251.01,1336.924,1248.151,1346.818,1242.655Z" transform="translate(-1341.822 -1099.689)" fill="#231f20"/>
        </g>
        <path id="Path_15281" data-name="Path 15281" d="M1270.7,513.306s-2.831-7.31-3.078-9.4a30.115,30.115,0,0,1,0-4.974s-1.1-4.37-4.425.934c0,0-5.442-5.991-7.365-6.843-2.583-1.127-2.858,12.367-2.364,13.357,0,0,.77,7.255,3.71,8.245s14.868,2.116,14.868,2.116Z" transform="translate(-1253.262 -431.504)" fill="#f9be8d"/>
        <path id="Path_15282" data-name="Path 15282" d="M1441.818,559.163c1.841,11.433-1.484,19.375-10.883,26.933s-28.032,11.076-28.032,11.076-3.683,1.649-9.784,7.558a7.118,7.118,0,0,1-3.93,1.869c-6.981,1.127-17.094-5-17.094-5l-1.1-2.309L1365,586.728s.467-5.332-2.391-7.97.989-8.107.989-8.107,1.347-.852,3.353-2.116c5.139-3.188,14.593-9.042,17.122-10.2a4.1,4.1,0,0,0,2.171-3.023,14,14,0,0,0,.028-5.167s-14.566-60.847-11.433-66.563,6.816-4.837,6.816-4.837l10.2-2.336c8.217,10.773,20.2,8.492,34.051-.412l7.035,3.353,10.141,3.325-9.591,8.3,2.2,14.209,1.1,13.467C1436.844,518.571,1439.977,547.73,1441.818,559.163Z" transform="translate(-1331.794 -419.207)" fill="#33324d"/>
        <path id="Path_15283" data-name="Path 15283" d="M1478.5,463.9l-6.6,3.078s4.754,21.959,13.054,27.1c0,0,17.534-17.534,21.382-27.29l-6.678-3.683-13.521,6.211h-3.545c-1.429-.082-2.8-1.182-4.15-3.463Z" transform="translate(-1411.812 -409.852)" fill="#e6e7e8"/>
        <path id="Path_15284" data-name="Path 15284" d="M1519.4,465.823s13.082-6.074,14.209-7.365c1.1-1.292,1.1,2.281,1.1,2.281l-2.583,5.112-7.75,8.74C1524.375,474.562,1524.21,466.73,1519.4,465.823Z" transform="translate(-1446.258 -406.281)" fill="#a6a8ab"/>
        <path id="Path_15285" data-name="Path 15285" d="M1495.615,468.745l-4.974-1.841,1.484-4.425a2.191,2.191,0,0,0-2.941.8,37.954,37.954,0,0,0-2.583,4.37l2.583,7.558C1489.156,475.2,1491.19,468.745,1495.615,468.745Z" transform="translate(-1422.472 -409.203)" fill="#a6a8ab"/>
        <path id="Path_15286" data-name="Path 15286" d="M1380.414,488a15.24,15.24,0,0,0-4.232,4.425c-1.649,2.776-13.082,40.949-13.082,40.949v17.534h24.157l-1.484-51.283Z" transform="translate(-1332.913 -427.909)" fill="#33324d"/>
        <path id="Path_15287" data-name="Path 15287" d="M1285.543,574.3l-15.143,4.672,16.984,34.326h14.923v-3.875" transform="translate(-1265.69 -490.491)" fill="#33324d"/>
        <g id="Group_8208" data-name="Group 8208" transform="translate(102.274 80.373)">
          <path id="Path_15288" data-name="Path 15288" d="M1625.4,561.8c.137.715.247,1.457.385,2.171l.33,2.171c.22,1.457.44,2.913.632,4.37s.385,2.913.55,4.37l.248,2.2c.055.742.137,1.457.192,2.2-.137-.715-.247-1.457-.385-2.171l-.33-2.171c-.22-1.457-.44-2.913-.632-4.37s-.385-2.913-.55-4.37l-.247-2.2C1625.538,563.257,1625.455,562.515,1625.4,561.8Z" transform="translate(-1625.4 -561.8)" fill="#fff"/>
        </g>
        <g id="Group_8209" data-name="Group 8209" transform="translate(96.145 104.586)">
          <path id="Path_15289" data-name="Path 15289" d="M1603.1,650.23c.8-.055,1.566-.082,2.363-.11l2.364-.082c1.567-.055,3.161-.082,4.727-.11s3.161-.028,4.727-.028l2.364.028c.8.027,1.566.027,2.364.055-.8.055-1.567.082-2.364.11l-2.364.083c-1.566.055-3.161.082-4.727.11s-3.161.028-4.727.028l-2.364-.028C1604.667,650.257,1603.87,650.257,1603.1,650.23Z" transform="translate(-1603.1 -649.9)" fill="#fff"/>
        </g>
        <g id="Group_8210" data-name="Group 8210" transform="translate(48.682 63.417)">
          <path id="Path_15290" data-name="Path 15290" d="M1430.4,500.1a5.641,5.641,0,0,1,1.731,1.594,8.516,8.516,0,0,1,1.127,2.089,11.263,11.263,0,0,1,.632,2.281c.083.385.11.77.165,1.182,0,.385.027.8.027,1.182-.083-.385-.137-.769-.22-1.154s-.165-.77-.247-1.127c-.11-.357-.192-.742-.3-1.127l-.165-.55-.22-.55a12.108,12.108,0,0,0-1.044-2.061c-.22-.33-.44-.632-.687-.934A4.511,4.511,0,0,0,1430.4,500.1Z" transform="translate(-1430.4 -500.1)" fill="#fff"/>
        </g>
        <g id="Group_8211" data-name="Group 8211" transform="translate(29.499 103.679)">
          <path id="Path_15291" data-name="Path 15291" d="M1360.6,646.6c.8,1.374,1.484,2.8,2.144,4.232s1.264,2.886,1.786,4.37c-.8-1.374-1.484-2.8-2.144-4.232C1361.754,649.541,1361.122,648.084,1360.6,646.6Z" transform="translate(-1360.6 -646.6)" fill="#fff"/>
        </g>
        <path id="Path_15292" data-name="Path 15292" d="M1571.826,558.291c-8.492,0-43.973-1.429-43.973-1.429s-2.611-1.072-2.556-6.431a21.68,21.68,0,0,1,1.622-8.575s1.951-2.5,5.716-.357l22.948.357-.55-12.779-.934-7.063-1.457-9.454-.522-2.721a2.572,2.572,0,0,1,.495-2.034l1.044-1.347,3.957-4.974a3.856,3.856,0,0,1,2.831-1.429l1.4-.055s5.744,2.418,5.8,8.822c.055.33.082.687.11,1.044l8.657,39.658C1576.416,549.551,1580.291,558.291,1571.826,558.291Z" transform="translate(-1450.534 -436.611)" fill="#33324d"/>
        <path id="Path_15293" data-name="Path 15293" d="M1408.519,577.588l-7.5-31.688s-28.884,1.457-30.616,4.342l11.323,42.241,30.616-.495Z" transform="translate(-1338.207 -469.896)" fill="#e6e1e7"/>
        <path id="Path_15294" data-name="Path 15294" d="M1473.93,657.3s-8.245-.495-10.389-.989-8.3-2.446-8.657,1.594,1.594,6.019,1.594,6.019a12.261,12.261,0,0,0,7.915,2.831s8.822,1.1,11.763.715C1479.1,667.11,1473.93,657.3,1473.93,657.3Z" transform="translate(-1399.442 -549.305)" fill="#f9be8d"/>
        <g id="Group_8212" data-name="Group 8212" transform="translate(73.087 105.658)">
          <path id="Path_15295" data-name="Path 15295" d="M1519.2,653.8c.385.55.742,1.127,1.072,1.7s.66,1.154.989,1.759a36.732,36.732,0,0,1,1.7,3.655,13.767,13.767,0,0,1,.989,3.93,3.967,3.967,0,0,1-.3,2.034c-.055.082-.083.137-.137.22-.027.027-.055.082-.082.11l-.083.083a1.447,1.447,0,0,1-.385.33,2.078,2.078,0,0,1-.962.3,2.448,2.448,0,0,0,.907-.385,1.253,1.253,0,0,0,.33-.33l.083-.082c.027-.027.027-.082.055-.11.027-.083.083-.137.11-.22a4.126,4.126,0,0,0,.192-1.924,11.409,11.409,0,0,0-.412-1.924q-.288-.948-.66-1.9c-.467-1.237-1.044-2.473-1.621-3.683-.275-.6-.577-1.209-.907-1.786A17.855,17.855,0,0,0,1519.2,653.8Z" transform="translate(-1519.2 -653.8)" fill="#fff"/>
        </g>
        <path id="Path_15296" data-name="Path 15296" d="M1369.1,820.2" transform="translate(-1337.265 -668.811)" fill="#252960"/>
        <g id="Group_8213" data-name="Group 8213" transform="translate(79.271 64.736)">
          <path id="Path_15297" data-name="Path 15297" d="M1541.7,523.094c.385-.33.742-.66,1.127-.989s.742-.66,1.127-.989c.742-.66,1.484-1.347,2.171-2.061,1.429-1.4,2.8-2.831,4.095-4.37a55.85,55.85,0,0,0,3.683-4.727c.577-.824,1.127-1.649,1.649-2.5.55-.824,1.044-1.7,1.567-2.556-.44.907-.907,1.786-1.4,2.666s-1.044,1.7-1.594,2.556a51.191,51.191,0,0,1-3.628,4.81,56.586,56.586,0,0,1-4.177,4.342c-.742.687-1.484,1.347-2.254,1.979-.385.3-.769.632-1.182.934C1542.524,522.489,1542.112,522.791,1541.7,523.094Z" transform="translate(-1541.7 -504.9)" fill="#fff"/>
        </g>
        <g id="Group_8214" data-name="Group 8214" transform="translate(54.399 138.312)">
          <path id="Path_15298" data-name="Path 15298" d="M1451.2,772.777a6.594,6.594,0,0,1,3.106.055,6.011,6.011,0,0,1,2.721,1.484,10.471,10.471,0,0,0-1.4-.632,8.681,8.681,0,0,0-1.429-.467,9.374,9.374,0,0,0-1.484-.275A13.365,13.365,0,0,0,1451.2,772.777Z" transform="translate(-1451.2 -772.617)" fill="#fff"/>
        </g>
        <g id="Group_8215" data-name="Group 8215" transform="translate(56.02 190.497)">
          <path id="Path_15299" data-name="Path 15299" d="M1458.282,962.5c0,.769-.027,1.512-.055,2.281l-.11,2.281c-.055,1.512-.165,3.023-.247,4.562q-.165,2.267-.33,4.535l-.192,2.281c-.083.769-.137,1.512-.247,2.281,0-.77.027-1.512.055-2.281l.11-2.281c.055-1.512.165-3.023.247-4.562l.33-4.535.192-2.281C1458.117,964.012,1458.2,963.242,1458.282,962.5Z" transform="translate(-1457.1 -962.5)" fill="#d99873"/>
        </g>
        <path id="Path_15300" data-name="Path 15300" d="M1622.044,536.155l-.247-2.309-.8-1.347" transform="translate(-1519.935 -460.179)" fill="#46406c"/>
      </g>
      <g id="Group_8219" data-name="Group 8219" transform="translate(62.344 121.625)">
        <path id="Path_15301" data-name="Path 15301" d="M1902.842,898.235h-6.293L1893.8,730.7h11.79Z" transform="translate(-1527.537 -725.533)" fill="#b3b4b6"/>
        <path id="Path_15302" data-name="Path 15302" d="M586.648,900.135h6.294L595.69,732.6H583.9Z" transform="translate(-577.634 -726.911)" fill="#b3b4b6"/>
        <rect id="Rectangle_1979" data-name="Rectangle 1979" width="387.919" height="9.097" fill="#5b4e3d"/>
        <g id="Group_8217" data-name="Group 8217" transform="translate(14.868 41.581)">
          <path id="Path_15303" data-name="Path 15303" d="M615.365,863.2l.11,9.179.055,9.179.027,18.386L615.53,918.3l-.055,9.179-.11,9.179-.082-9.179-.055-9.179-.028-18.358.028-18.386.055-9.179Z" transform="translate(-615.2 -863.2)" fill="#fff"/>
        </g>
        <g id="Group_8218" data-name="Group 8218" transform="translate(370.385 56.34)">
          <path id="Path_15304" data-name="Path 15304" d="M1908.965,987.009l-.083-8.767-.055-8.767-.028-17.506.028-17.534.055-8.767.083-8.767.11,8.767.055,8.767.028,17.534-.028,17.506-.055,8.767Z" transform="translate(-1908.8 -916.9)" fill="#fff"/>
        </g>
      </g>
      <g id="Group_8220" data-name="Group 8220" transform="translate(211.534 81.528)">
        <path id="Path_15305" data-name="Path 15305" d="M1339.663,704.793h21.189a1.279,1.279,0,0,0,1.264-1.264v-.165a1.279,1.279,0,0,0-1.264-1.264h-21.3a1.262,1.262,0,0,0-1.044,1.979l.11.165A1.255,1.255,0,0,0,1339.663,704.793Z" transform="translate(-1273.882 -664.696)" fill="#8c8a8b"/>
        <path id="Path_15306" data-name="Path 15306" d="M1231.446,606.17l-6.458-36.744s-1.374-3.325-6.623-3.325c-7.42.028-28.665,1.237-28.665,1.237l13.961,38.861h27.785Z" transform="translate(-1166.133 -566.073)" fill="#8c8a8b"/>
        <path id="Path_15307" data-name="Path 15307" d="M1169.068,606.152l-7.091-37.212a3.619,3.619,0,0,0-3.545-2.941h-50.871a3.616,3.616,0,0,0-3.545,4.315l7.283,35.755Z" transform="translate(-1103.947 -566)" fill="#d9dbda"/>
        <ellipse id="Ellipse_314" data-name="Ellipse 314" cx="3.628" cy="3.215" rx="3.628" ry="3.215" transform="translate(25.326 16.215)" fill="#a8aaa9"/>
      </g>
      <g id="Group_8232" data-name="Group 8232" transform="translate(90.143 6.079)">
        <path id="Path_15308" data-name="Path 15308" d="M1105.39,842.6s9.4,3.408,11.076,8.025c1.649,4.617,1.539,12.5,1.539,12.5l-17.2-16.38Z" transform="translate(-980.275 -691.134)" fill="#f9be8d"/>
        <path id="Path_15309" data-name="Path 15309" d="M816.6,445.691s2.583,3.243,2.226,6.541-1.1,7.338-1.1,7.338l16.957,2.831a32.114,32.114,0,0,1,0-6.266,29.028,29.028,0,0,1,.989-6.9l-4.067-5.936Z" transform="translate(-774.181 -401.573)" fill="#f9be8d"/>
        <path id="Path_15310" data-name="Path 15310" d="M871.255,356.157a2.909,2.909,0,0,1-.192-.3V342.966c0-6.019-5.194-10.966-11.57-10.966h-.275c-6.348,0-11.57,4.947-11.57,10.966v6.843a2.591,2.591,0,0,0-1.374,0c-1.512.467-1.924,2.364-2.226,3.738a6.331,6.331,0,0,0,.33,4.4,4.255,4.255,0,0,0,2.913,2.611,1.454,1.454,0,0,0,.357.027c0,6.019,5.194,10.938,11.57,10.938h.275c6.349,0,11.57-4.947,11.57-10.966V358.8a.166.166,0,0,0,.11-.027c.082-.027.962-.3,1.127-.907C872.409,357.284,871.777,356.817,871.255,356.157Z" transform="translate(-793.905 -320.861)" fill="#f9be8d"/>
        <circle id="Ellipse_315" data-name="Ellipse 315" cx="4.26" cy="4.26" r="4.26" transform="translate(58.909 30.761)" fill="#f27064" opacity="0.3"/>
        <g id="Group_8222" data-name="Group 8222" transform="translate(70.772 41.177)">
          <g id="Group_8221" data-name="Group 8221">
            <path id="Path_15311" data-name="Path 15311" d="M923.979,441.767a5.08,5.08,0,0,1-3.848-.44c-.275-.137-.522.275-.247.412a5.545,5.545,0,0,0,4.232.495.244.244,0,0,0-.137-.467Z" transform="translate(-919.764 -441.299)" fill="#231f20"/>
          </g>
        </g>
        <circle id="Ellipse_316" data-name="Ellipse 316" cx="2.034" cy="2.034" r="2.034" transform="translate(70.543 28.393) rotate(-13.279)" fill="#231f20"/>
        <g id="Group_8224" data-name="Group 8224" transform="translate(68.639 24.241)">
          <g id="Group_8223" data-name="Group 8223">
            <path id="Path_15312" data-name="Path 15312" d="M917.994,379.929a5.467,5.467,0,0,0-5.881,1.786c-.357.44.247,1.072.632.632a4.648,4.648,0,0,1,5.029-1.567c.55.165.77-.687.22-.852Z" transform="translate(-912.004 -379.675)" fill="#231f20"/>
          </g>
        </g>
        <path id="Path_15313" data-name="Path 15313" d="M803.7,320.418c1.759.495,1.759.495,2.089,1.4.275.715-.082,1.457,0,1.484.165.055.715-4.232,3.326-5.661.989-.55,1.649-.3,3.435-.357a21.937,21.937,0,0,0,8.849-2.336,23.265,23.265,0,0,0,6.266-4.425,19.544,19.544,0,0,0,5.524-7.75c.824-2.281,1.841-5.194.357-7.86a6.555,6.555,0,0,0-5.661-3.435c-1.374.082-1.7.742-3.683,1.484-1.4.522-2.638.715-6.019.852-3.573.137-6.266.082-10.691,0-5.222-.11-5.936-.082-7.255.11a15.888,15.888,0,0,0-7.118,2.583,12.323,12.323,0,0,0-4.782,6.019c-.33.962-1.512,4.4-.6,6.513a1.716,1.716,0,0,1,.11,1.347c-.3.715-1.292.852-1.731.989-2.226.687-2.8,5.359-2.941,6.513-.879,7.118,3.188,12.944,4.068,14.126a21.209,21.209,0,0,0,6.019,5.524,13.866,13.866,0,0,0,6.019,2.226c1.292.082,2.941.22,4.177-.742.989-.77,1.7-2.144,1.731-6.019C805.215,325.612,803.621,321.325,803.7,320.418Z" transform="translate(-749.851 -291.47)" fill="#3a322b"/>
        <path id="Path_15314" data-name="Path 15314" d="M849.231,397.6a5.384,5.384,0,0,0-1.621.055c-2.281.467-2.913,2.336-3.353,3.738a4.379,4.379,0,0,0,.522,4.37,6.075,6.075,0,0,0,4.4,2.583h.055Z" transform="translate(-793.978 -368.41)" fill="#f9be8d"/>
        <path id="Path_15315" data-name="Path 15315" d="M852.951,401.4a3.736,3.736,0,0,0-2.116,1.182,3.775,3.775,0,0,0-.934,2.473" transform="translate(-798.329 -371.188)" fill="#d99873"/>
        <path id="Path_15316" data-name="Path 15316" d="M858.428,396.877a3.524,3.524,0,0,0-1.676-.137c-.495.22.247-.44.247-.44l1.512.192Z" transform="translate(-803.174 -367.49)" fill="#182f33"/>
        <path id="Path_15317" data-name="Path 15317" d="M861.8,432.237l.852.742V431Z" transform="translate(-806.959 -392.653)" fill="#f9be8d"/>
        <path id="Path_15318" data-name="Path 15318" d="M875.11,467.732s-.66.22-2.391-1.374,2.583,3.3,2.583,3.3l.247-1.759Z" transform="translate(-814.579 -418.062)" fill="#d99873"/>
        <path id="Path_15319" data-name="Path 15319" d="M850.886,297.8a15.654,15.654,0,0,1-5.084,4.562c-9.262,5.167-17.781-3.353-25.367,1.017-5.359,3.078-6.541,10.443-7.613,16.984-.769,4.837-1.676,10.416,1.786,14.978a14.576,14.576,0,0,0,8.382,5.084" transform="translate(-770.925 -296.06)" fill="none" stroke="#fff" stroke-width="0.271"/>
        <path id="Path_15320" data-name="Path 15320" d="M839.656,335.974c-.385-1.4-1.9-7.255,1.264-10.911,2.336-2.721,6.184-2.968,10.911-3.3,6.239-.44,7.833,1.044,11.405-.082,2.391-.742,5.469-2.528,8.382-7.283" transform="translate(-790.393 -308.098)" fill="none" stroke="#fff" stroke-width="0.271"/>
        <g id="Group_8225" data-name="Group 8225" transform="translate(86.49 257.391)">
          <rect id="Rectangle_1980" data-name="Rectangle 1980" width="16.352" height="21.189" transform="translate(2.981 0) rotate(0.146)" fill="#f9be8d"/>
          <path id="Path_15321" data-name="Path 15321" d="M978.014,1299.7l19.623.055a65.8,65.8,0,0,0,21,5.717s4.837,2.528,0,4.947-39.74,1.677-39.74,1.677C976.64,1308.934,976.365,1304.784,978.014,1299.7Z" transform="translate(-976.958 -1280.002)" fill="#182f33"/>
        </g>
        <g id="Group_8226" data-name="Group 8226" transform="translate(136.649 256.316)">
          <rect id="Rectangle_1981" data-name="Rectangle 1981" width="15.995" height="20.722" transform="translate(0 3.821) rotate(-13.822)" fill="#f9be8d"/>
          <path id="Path_15322" data-name="Path 15322" d="M1169.973,1292.4l19.183.275a65.531,65.531,0,0,0,20.475,5.854s4.7,2.528-.083,4.837c-4.754,2.281-38.888,1.182-38.888,1.182Q1167.445,1299.807,1169.973,1292.4Z" transform="translate(-1166.282 -1273.633)" fill="#182f33"/>
        </g>
        <path id="Path_15323" data-name="Path 15323" d="M849.674,849.7l46.281,3.71s11.79,3.655,13.769,19.155,16.242,89.264,16.242,89.264-8.355,5.414-17.2,4.425c0,0-23.113-56.56-27.043-71.812s-23.608-.989-23.608-.989L812.6,879.711l24.68-26.328Z" transform="translate(-771.28 -696.283)" fill="#345f8a"/>
        <path id="Path_15324" data-name="Path 15324" d="M788.631,604.153s-.495,4.672-4.177,4.919-21.382-1.484-21.382-1.484-11.79-10.746-18.3-17.616l.6,10.636s-.989,5.771-7.613,14.786A87.305,87.305,0,0,1,723.5,630.426l-3.848,1.7a37.832,37.832,0,0,1-34.6-1.924l-4.177-2.474a37.816,37.816,0,0,1-18.551-34.848l3.133-52.684,10.828-20.282s1.979-5,6.9-5.5,12.285-1.621,12.285-1.621l33.694,3.38,11.405,1.484.11-.083s3.738,2.2,7.173,14.264c3.435,12.037,16.71,50.4,16.71,50.4s-.742,1.484,10.581,10.581C786.432,601.954,788.631,604.153,788.631,604.153Z" transform="translate(-662.252 -451.972)" fill="#e5e6ea"/>
        <path id="Path_15325" data-name="Path 15325" d="M783,503.59l5.469-3.49,22.811,1.759,4.507,5.057Z" transform="translate(-749.815 -442.763)" fill="#e5e6ea"/>
        <g id="Group_8227" data-name="Group 8227" transform="translate(70.891 108.428)">
          <path id="Path_15326" data-name="Path 15326" d="M927.7,710.57c-.357-1.017-.687-2.034-1.017-3.051l-.989-3.051c-.66-2.034-1.264-4.095-1.924-6.129-.6-2.061-1.237-4.095-1.841-6.156l-.879-3.078c-.275-1.044-.577-2.061-.852-3.106.357,1.017.687,2.034,1.017,3.051l.989,3.051c.66,2.034,1.264,4.095,1.924,6.129.6,2.061,1.237,4.095,1.841,6.156l.879,3.078C927.126,708.508,927.428,709.553,927.7,710.57Z" transform="translate(-920.2 -686)" fill="#aeb4bb"/>
        </g>
        <g id="Group_8228" data-name="Group 8228" transform="translate(63.383 69.292)">
          <path id="Path_15327" data-name="Path 15327" d="M894.013,560.392a10.984,10.984,0,0,1-1.127-5.222A10.715,10.715,0,0,1,894.37,550a13.889,13.889,0,0,1,1.649-2.144c.33-.33.632-.632.989-.934.165-.137.33-.3.522-.44l.55-.412c.165-.137.357-.247.55-.385l.577-.357c.385-.22.769-.44,1.182-.66l1.209-.577,1.237-.495c-.412.192-.8.385-1.209.577l-1.182.632c-.385.22-.769.467-1.127.687l-.55.385c-.192.137-.357.247-.522.385-.357.275-.687.55-1.017.852-.33.275-.632.6-.962.907a12.747,12.747,0,0,0-1.594,2.089A10.975,10.975,0,0,0,893.6,552.5a11.82,11.82,0,0,0-.44,2.583,10.654,10.654,0,0,0,.165,2.638A9.048,9.048,0,0,0,894.013,560.392Z" transform="translate(-892.881 -543.6)" fill="#aeb4bb"/>
        </g>
        <g id="Group_8229" data-name="Group 8229" transform="translate(36.071 60.828)">
          <path id="Path_15328" data-name="Path 15328" d="M793.5,512.8c1.017.082,2.034.165,3.023.247l3.023.3c2.006.192,4.04.44,6.046.632,2.006.247,4.012.467,6.046.715l3.023.385c1.017.137,2.006.275,3.023.44-1.017-.082-2.034-.165-3.023-.247l-3.023-.3c-2.006-.192-4.04-.44-6.046-.632-2.006-.247-4.013-.467-6.046-.715l-3.023-.385C795.534,513.1,794.517,512.965,793.5,512.8Z" transform="translate(-793.5 -512.8)" fill="#aeb4bb"/>
        </g>
        <path id="Path_15329" data-name="Path 15329" d="M944.8,963.18l10.251,79.81s15.5,2.583,18.441,0,0-92.589,0-92.589Z" transform="translate(-867.148 -769.308)" fill="#345f8a"/>
        <g id="Group_8230" data-name="Group 8230" transform="translate(102.497 177.602)">
          <path id="Path_15330" data-name="Path 15330" d="M1041.109,954.052c-.275-.66-.55-1.347-.825-2.006l-.8-2.034c-.522-1.347-1.017-2.721-1.511-4.067-.495-1.374-.99-2.721-1.429-4.095l-.687-2.061c-.22-.687-.44-1.374-.66-2.089.275.66.55,1.347.824,2.006l.8,2.034c.522,1.347,1.017,2.721,1.512,4.068.495,1.374.989,2.721,1.429,4.095l.687,2.061C1040.669,952.651,1040.889,953.338,1041.109,954.052Z" transform="translate(-1035.2 -937.7)" fill="#fff"/>
        </g>
        <g id="Group_8231" data-name="Group 8231" transform="translate(19.569 66.572)">
          <path id="Path_15331" data-name="Path 15331" d="M734.127,533.7c.027.715,0,1.457,0,2.171l-.027,2.171c-.028,1.457-.083,2.913-.11,4.342-.055,1.457-.11,2.913-.22,4.342l-.137,2.171c-.055.715-.11,1.457-.165,2.171-.027-.714,0-1.457,0-2.171l.027-2.171c.027-1.457.082-2.913.137-4.342.055-1.457.11-2.913.22-4.342l.137-2.171C734.017,535.157,734.072,534.415,734.127,533.7Z" transform="translate(-733.456 -533.7)" fill="#aeb4bb"/>
        </g>
      </g>
      <g id="Group_8233" data-name="Group 8233" transform="translate(76.289 93.931)">
        <rect id="Rectangle_1982" data-name="Rectangle 1982" width="9.014" height="69.614" transform="translate(54.625 123.912)" fill="#7f7f81"/>
        <path id="Path_15332" data-name="Path 15332" d="M614.687,612.771s44.027-7.86,56.422,10.828c12.422,18.688,16.957,45.731,16.957,45.731v25.586s1.374,14.264,13.686,14.264c12.285,0,18.194-2.446,18.194-2.446s15.748-.989,19.183,16.71c0,0-2.254,9.344-54.718,13.274-39.685,7.118-50.4-10.2-52.987-16.242C634.008,723.554,602.4,679.169,614.687,612.771Z" transform="translate(-611.84 -611.13)" fill="#bdae9b"/>
        <path id="Path_15333" data-name="Path 15333" d="M691.2,1303.768H769s-33.309-14.951-43.615-13.906C715.083,1290.934,691.2,1303.768,691.2,1303.768Z" transform="translate(-669.39 -1103.29)" fill="#7f7f81"/>
      </g>
      <g id="Group_8253" data-name="Group 8253" transform="translate(383.48 242.11)">
        <g id="Group_8252" data-name="Group 8252" transform="translate(0 0)">
          <path id="Path_15334" data-name="Path 15334" d="M1771.594,1152.664h-40.812a1.173,1.173,0,0,1-1.182-1.182h0a1.173,1.173,0,0,1,1.182-1.182h40.812a1.173,1.173,0,0,1,1.182,1.182h0A1.19,1.19,0,0,1,1771.594,1152.664Z" transform="translate(-1729.6 -1150.3)" fill="#a19e97"/>
          <path id="Path_15335" data-name="Path 15335" d="M1779.4,1331.363h-31.22a1.173,1.173,0,0,1-1.182-1.182h0a1.173,1.173,0,0,1,1.182-1.182h31.22a1.173,1.173,0,0,1,1.182,1.182h0A1.173,1.173,0,0,1,1779.4,1331.363Z" transform="translate(-1742.218 -1279.888)" fill="#a19e97"/>
          <g id="Group_8251" data-name="Group 8251" transform="translate(1.429 1.512)">
            <g id="Group_8234" data-name="Group 8234" transform="translate(0 0.027)">
              <path id="Path_15336" data-name="Path 15336" d="M1770.858,1203.94h-31.8l-4.26-48.04h40.317Zm-31.22-.66h30.616l4.15-46.721h-38.888Z" transform="translate(-1734.8 -1155.9)" fill="#a19e97"/>
            </g>
            <g id="Group_8242" data-name="Group 8242" transform="translate(0.841)">
              <g id="Group_8235" data-name="Group 8235" transform="translate(3.62 9.755)">
                <rect id="Rectangle_1983" data-name="Rectangle 1983" width="51.063" height="0.66" transform="translate(0 37.736) rotate(-47.647)" fill="#a19e97"/>
              </g>
              <g id="Group_8236" data-name="Group 8236" transform="translate(2.541 0.132)">
                <rect id="Rectangle_1984" data-name="Rectangle 1984" width="50.156" height="0.66" transform="translate(0 37.065) rotate(-47.647)" fill="#a19e97"/>
              </g>
              <g id="Group_8237" data-name="Group 8237" transform="translate(14.219 22.673)">
                <path id="Path_15337" data-name="Path 15337" d="M1790.067,1263.584l-.467-.44,22.646-24.844.247.22h.33v.11l-.083.11Z" transform="translate(-1789.6 -1238.3)" fill="#a19e97"/>
              </g>
              <g id="Group_8238" data-name="Group 8238" transform="translate(0.701 0.149)">
                <rect id="Rectangle_1985" data-name="Rectangle 1985" width="22.041" height="0.66" transform="matrix(0.685, -0.728, 0.728, 0.685, 0, 16.05)" fill="#a19e97"/>
              </g>
              <g id="Group_8239" data-name="Group 8239" transform="translate(1.632)">
                <path id="Path_15338" data-name="Path 15338" d="M1744.295,1183.063l-.495-.467,24.377-26.8.522.467-1.979,2.171Z" transform="translate(-1743.8 -1155.8)" fill="#a19e97"/>
              </g>
              <g id="Group_8240" data-name="Group 8240" transform="translate(24.482 35.092)">
                <rect id="Rectangle_1986" data-name="Rectangle 1986" width="16.764" height="0.66" transform="translate(0 12.389) rotate(-47.647)" fill="#a19e97"/>
              </g>
              <g id="Group_8241" data-name="Group 8241" transform="translate(0 0.026)">
                <rect id="Rectangle_1987" data-name="Rectangle 1987" width="11.46" height="0.66" transform="translate(0 8.29) rotate(-46.337)" fill="#a19e97"/>
              </g>
            </g>
            <g id="Group_8250" data-name="Group 8250" transform="translate(0.992)">
              <g id="Group_8243" data-name="Group 8243" transform="translate(0 10.043)">
                <rect id="Rectangle_1988" data-name="Rectangle 1988" width="0.66" height="50.706" transform="translate(0 0.444) rotate(-42.345)" fill="#a19e97"/>
              </g>
              <g id="Group_8244" data-name="Group 8244" transform="translate(1.434 0.147)">
                <rect id="Rectangle_1989" data-name="Rectangle 1989" width="0.66" height="50.458" transform="translate(0 0.444) rotate(-42.345)" fill="#a19e97"/>
              </g>
              <g id="Group_8245" data-name="Group 8245" transform="translate(1.136 22.925)">
                <rect id="Rectangle_1990" data-name="Rectangle 1990" width="0.66" height="33.282" transform="translate(0 0.444) rotate(-42.345)" fill="#a19e97"/>
              </g>
              <g id="Group_8246" data-name="Group 8246" transform="translate(21.968 0.155)">
                <rect id="Rectangle_1991" data-name="Rectangle 1991" width="0.66" height="22.316" transform="translate(0 0.452) rotate(-43.253)" fill="#a19e97"/>
              </g>
              <g id="Group_8247" data-name="Group 8247" transform="translate(11.733)">
                <path id="Path_15339" data-name="Path 15339" d="M1805.7,1183.255l-24.6-26.988.495-.467,1.979,2.171,22.619,24.817Z" transform="translate(-1781.1 -1155.8)" fill="#a19e97"/>
              </g>
              <g id="Group_8248" data-name="Group 8248" transform="translate(2.255 35.382)">
                <rect id="Rectangle_1992" data-name="Rectangle 1992" width="0.66" height="16.407" transform="translate(0 0.444) rotate(-42.345)" fill="#a19e97"/>
              </g>
              <g id="Group_8249" data-name="Group 8249" transform="translate(29.871 0.027)">
                <path id="Path_15340" data-name="Path 15340" d="M1855.208,1164.832l-8.107-8.492.495-.44.082.11,8,8.382Z" transform="translate(-1847.1 -1155.9)" fill="#a19e97"/>
              </g>
            </g>
          </g>
        </g>
      </g>
      <g id="Group_8254" data-name="Group 8254" transform="translate(0 103.899)">
        <path id="Path_15341" data-name="Path 15341" d="M481.262,813.8s-5.084-16.325-.22-22.1c4.892-5.771,5.442-4.452,7.448-11.763,2.006-7.338,2.776-12.889,8.657-17.424,5.881-4.562,9.537-7.118,9.537-7.118s1.566,14.428-4.342,21.876c-5.881,7.448-5.332,5.991-4.782,13.769C498.136,798.8,490.084,810.063,481.262,813.8Z" transform="translate(-439.172 -725.719)" fill="#93b82c"/>
        <path id="Path_15342" data-name="Path 15342" d="M435.249,713.5c-2.116-21.876-.385-49.689-5.249-66.1,0,0,9.784,4.892,9.537,15.088-.22,10.224,1.786,9.756,2.886,13.549C444.648,686.755,437.338,696.1,435.249,713.5Z" transform="translate(-403.686 -647.4)" fill="#93b82c"/>
        <path id="Path_15343" data-name="Path 15343" d="M359.082,814.447s-11.543-3.463-13.329-11.982-.989-7.255-3.765-12.34c-2.776-5.057-2.473-8.657-3.243-13.714-1.072-7.063-5.991-6.156-4.04-19.211,12.23,5.8,7.228,8.025,10.938,11.68,9.372,9.207,6.4,15.693,12.23,21.821C363.2,796.226,364.276,800.568,359.082,814.447Z" transform="translate(-334.252 -727.024)" fill="#93b82c"/>
        <path id="Path_15344" data-name="Path 15344" d="M449.509,842.385l2.144,63.128-2.968-1.1L448.3,830.1Z" transform="translate(-416.956 -779.889)" fill="#1e1e1e"/>
        <path id="Path_15345" data-name="Path 15345" d="M379.076,879.854l-1.759.11c-4.287-66.893-24.762-92.782-24.817-92.864C375.146,816.507,378.691,874.11,379.076,879.854Z" transform="translate(-347.485 -748.707)" fill="#1e1e1e"/>
        <path id="Path_15346" data-name="Path 15346" d="M485.171,799.9c-5.744,9.1-22.069,41.087-25.312,89.292l-1.759-.11C458.7,880.177,461.783,837.167,485.171,799.9Z" transform="translate(-424.063 -757.989)" fill="#1e1e1e"/>
        <path id="Path_15347" data-name="Path 15347" d="M390.322,1150.218h23c16.984-28.252.715-42.571-3.71-52.272-3.38-7.448-2.858-12.285.082-19.046H393.95c2.941,6.761,3.463,11.6.082,19.046C389.608,1107.647,373.338,1121.966,390.322,1150.218Z" transform="translate(-369.422 -960.312)" fill="url(#linear-gradient)"/>
        <path id="Path_15348" data-name="Path 15348" d="M431,1062l-2.2-6.4,4.2,6.4Z" transform="translate(-402.816 -943.415)" fill="#1e1e1e"/>
        <path id="Path_15349" data-name="Path 15349" d="M465.478,1057.58l1.209-8.08-4.287,8.08Z" transform="translate(-427.181 -938.992)" fill="#1e1e1e"/>
      </g>
    </g>
  </g>
</svg>
