<svg xmlns="http://www.w3.org/2000/svg" xmlns:xlink="http://www.w3.org/1999/xlink" width="351.862" height="234.882" viewBox="0 0 351.862 234.882">
  <defs>
    <clipPath id="clip-path">
      <rect id="Rectangle_7018" data-name="Rectangle 7018" width="145.315" height="89.702" fill="none"/>
    </clipPath>
  </defs>
  <g id="Group_20181" data-name="Group 20181" transform="translate(-223.996 -274.45)">
    <path id="Path_28518" data-name="Path 28518" d="M162.747,1383.923c.663,6.071,8.79,4.733,14.176,9.263s.05,10.72,12.4,12.047c7.605.818,7.069-2.368,14.631,5.452,6.658,6.885,7.9-4.469,15.347-2.672,9.61,2.318,10.339-16.6,1.49-20.28s-13.189,1.473-14.813-6.475-7.586-10.931-15.16-9.154c-9.374,2.2-8.05,10.4-12.879,5.888s-16.068-2.1-15.19,5.932" transform="translate(61.297 -925.459)" fill="#8ab5dc"/>
    <path id="Path_28519" data-name="Path 28519" d="M281.989,1466.807c-27.006-20.947-58.767-24.144-59.086-24.175-1.209-.116-1.07-1.572.14-1.455.324.031,32.714,3.357,60.051,24.56Z" transform="translate(11.705 -983.573)" fill="#08558c"/>
    <path id="Path_28520" data-name="Path 28520" d="M349.721,1304.719c-1.572,3.876,3.763,5.709,5.54,10.19s-2.956,8.294,4.059,13.1c4.32,2.963,6.132-2.675,10.252,2.43s2.112,6.574,5.753,7.924c6.348,2.354,13.024-7.516,8.883-12.608s-9.788-3.281-8.186-8.6,2.136-7.576-3.008-8.964c-6.367-1.719-10.759,2.168-12.207-2.12s-9.008-6.483-11.086-1.356" transform="translate(-94.702 -867.097)" fill="#5285b4"/>
    <path id="Path_28521" data-name="Path 28521" d="M419.249,1379.577l1.1-.912c-9.6-21.663-32.862-41.618-33.047-41.742-.79-.529-1.347.3-.556.832.183.122,23.023,20.433,32.5,41.822" transform="translate(-125.556 -896.343)" fill="#08558c"/>
    <path id="Path_28522" data-name="Path 28522" d="M2147.957,748.8h-12.2V733.737h12.2Zm-11.549-.646h10.9v-13.77h-10.9Z" transform="translate(-1587.002 -392.582)" fill="#80b2ff"/>
    <rect id="Rectangle_6996" data-name="Rectangle 6996" width="5.974" height="0.938" transform="translate(552.861 343.845)" fill="#0041a6"/>
    <rect id="Rectangle_6997" data-name="Rectangle 6997" width="7.741" height="0.938" transform="translate(551.095 346.048)" fill="#0041a6"/>
    <rect id="Rectangle_6998" data-name="Rectangle 6998" width="7.741" height="0.938" transform="translate(551.095 348.251)" fill="#0041a6"/>
    <rect id="Rectangle_6999" data-name="Rectangle 6999" width="7.741" height="0.938" transform="translate(551.095 350.453)" fill="#0041a6"/>
    <rect id="Rectangle_7000" data-name="Rectangle 7000" width="7.741" height="0.938" transform="translate(551.095 352.656)" fill="#0041a6"/>
    <rect id="Rectangle_7001" data-name="Rectangle 7001" width="11.549" height="14.416" transform="translate(550.932 343.245)" fill="#5795ce"/>
    <rect id="Rectangle_7002" data-name="Rectangle 7002" width="5.974" height="0.938" transform="translate(554.71 345.612)" fill="#005cea"/>
    <rect id="Rectangle_7003" data-name="Rectangle 7003" width="7.741" height="0.938" transform="translate(552.944 347.815)" fill="#005cea"/>
    <rect id="Rectangle_7004" data-name="Rectangle 7004" width="7.741" height="0.938" transform="translate(552.944 350.018)" fill="#005cea"/>
    <rect id="Rectangle_7005" data-name="Rectangle 7005" width="7.741" height="0.938" transform="translate(552.944 352.22)" fill="#005cea"/>
    <rect id="Rectangle_7006" data-name="Rectangle 7006" width="7.741" height="0.938" transform="translate(552.944 354.423)" fill="#005cea"/>
    <rect id="Rectangle_7007" data-name="Rectangle 7007" width="1.077" height="0.808" transform="translate(494.742 299.654)" fill="#97c6ff"/>
    <path id="Path_28523" data-name="Path 28523" d="M1808.659,525.487h-1.077V523.8h1.077Zm0-3.378h-1.077V520.42h1.077Zm0-3.378h-1.077v-1.689h1.077Zm0-3.378h-1.077v-1.689h1.077Zm0-3.378h-1.077v-1.689h1.077Zm0-3.378h-1.077v-1.689h1.077Zm0-3.378h-1.077v-1.689h1.077Zm0-3.378h-1.077v-1.689h1.077Zm0-3.378h-1.077v-1.689h1.077Z" transform="translate(-1312.84 -194.624)" fill="#97c6ff"/>
    <rect id="Rectangle_7008" data-name="Rectangle 7008" width="1.077" height="0.808" transform="translate(494.742 332.552)" fill="#97c6ff"/>
    <rect id="Rectangle_7009" data-name="Rectangle 7009" width="1.077" height="0.808" transform="translate(485.94 299.654)" fill="#97c6ff"/>
    <path id="Path_28524" data-name="Path 28524" d="M376.864,566.132h-1.077v-1.619h1.077Zm.021-3.2-1.074-.079a8.6,8.6,0,0,1,.3-1.7l1.037.292a7.518,7.518,0,0,0-.261,1.484m.813-2.886-.957-.494a8.636,8.636,0,0,1,.94-1.445l.84.675a7.55,7.55,0,0,0-.822,1.264m1.879-2.34-.69-.828a8.627,8.627,0,0,1,1.428-.965l.511.948a7.564,7.564,0,0,0-1.249.845m2.641-1.423-.311-1.031a8.586,8.586,0,0,1,1.692-.329l.1,1.073a7.515,7.515,0,0,0-1.48.287m211.854-.319h-1.619V554.89h1.619Zm-3.237,0h-1.619V554.89h1.619Zm-3.237,0h-1.619V554.89H587.6Zm-3.237,0h-1.618V554.89h1.618Zm-3.237,0H579.5V554.89h1.619Zm-3.237,0h-1.619V554.89h1.619Zm-3.237,0h-1.619V554.89h1.619Zm-3.237,0h-1.619V554.89h1.619Zm-3.237,0h-1.619V554.89h1.619Zm-3.237,0h-1.619V554.89h1.619Zm-3.237,0H560.08V554.89H561.7Zm-3.237,0h-1.619V554.89h1.619Zm-3.237,0h-1.619V554.89h1.619Zm-3.237,0h-1.619V554.89h1.619Zm-3.237,0h-1.619V554.89h1.619Zm-3.237,0h-1.619V554.89h1.619Zm-3.237,0h-1.618V554.89h1.618Zm-3.237,0h-1.619V554.89h1.619Zm-3.237,0h-1.619V554.89H535.8Zm-3.237,0h-1.619V554.89h1.619Zm-3.237,0h-1.619V554.89h1.619Zm-3.237,0H524.47V554.89h1.619Zm-3.237,0h-1.619V554.89h1.619Zm-3.237,0H518V554.89h1.619Zm-3.237,0h-1.618V554.89h1.618Zm-3.237,0h-1.619V554.89h1.619Zm-3.237,0h-1.619V554.89H509.9Zm-3.237,0h-1.619V554.89h1.619Zm-3.237,0h-1.619V554.89h1.619Zm-3.237,0h-1.619V554.89h1.619Zm-3.237,0h-1.619V554.89h1.619Zm-3.237,0H492.1V554.89h1.619Zm-3.237,0H488.86V554.89h1.619Zm-3.237,0h-1.619V554.89h1.619Zm-3.237,0h-1.619V554.89H484Zm-3.237,0h-1.619V554.89h1.619Zm-3.237,0H475.91V554.89h1.618Zm-3.237,0h-1.619V554.89h1.619Zm-3.237,0h-1.619V554.89h1.619Zm-3.237,0H466.2V554.89h1.619Zm-3.237,0h-1.619V554.89h1.619Zm-3.237,0h-1.619V554.89h1.619Zm-3.237,0h-1.619V554.89h1.619Zm-3.237,0h-1.619V554.89h1.619Zm-3.237,0h-1.619V554.89h1.619Zm-3.237,0h-1.619V554.89h1.619Zm-3.237,0h-1.619V554.89h1.619Zm-3.237,0H440.3V554.89h1.619Zm-3.237,0h-1.619V554.89h1.619Zm-3.237,0h-1.619V554.89h1.619Zm-3.237,0h-1.619V554.89h1.619Zm-3.237,0h-1.619V554.89h1.619Zm-3.237,0h-1.619V554.89h1.619Zm-3.237,0h-1.619V554.89h1.619Zm-3.237,0h-1.618V554.89h1.618Zm-3.237,0H414.4V554.89h1.619Zm-3.237,0h-1.619V554.89h1.619Zm-3.237,0h-1.619V554.89h1.619Zm-3.237,0H404.69V554.89h1.619Zm-3.237,0h-1.619V554.89h1.619Zm-3.237,0h-1.619V554.89h1.619Zm-3.237,0h-1.619V554.89H396.6Zm-3.237,0H391.74V554.89h1.619Zm-3.237,0H388.5V554.89h1.619Zm-3.237,0h-1.619V554.89h1.619Zm208.843-.02-.074-1.075a7.51,7.51,0,0,0,1.486-.253l.287,1.038a8.612,8.612,0,0,1-1.7.29m3.306-.915-.489-.96a7.542,7.542,0,0,0,1.268-.816l.671.843a8.64,8.64,0,0,1-1.449.933m2.684-2.134-.824-.693a7.554,7.554,0,0,0,.851-1.245l.946.516a8.629,8.629,0,0,1-.972,1.423m1.641-3.012-1.03-.316a7.515,7.515,0,0,0,.294-1.478l1.072.1a8.578,8.578,0,0,1-.337,1.691m.377-3.359h-1.077v-1.619h1.077Zm0-3.237h-1.077V541.67h1.077Zm0-3.237h-1.077v-1.619h1.077Zm0-3.237h-1.077V535.2h1.077Zm0-3.237h-1.077v-1.619h1.077Zm0-3.237h-1.077v-1.619h1.077Zm0-3.237h-1.077v-1.619h1.077Zm0-3.237h-1.077v-1.619h1.077Zm0-3.237h-1.077v-1.619h1.077Zm0-3.237h-1.077v-1.619h1.077Zm0-3.237h-1.077v-1.618h1.077Zm0-3.237h-1.077V509.3h1.077Zm0-3.237h-1.077V506.06h1.077Zm0-3.237h-1.077v-1.619h1.077Zm0-3.237h-1.077v-1.619h1.077Zm0-3.237h-1.077v-1.619h1.077Z" transform="translate(-116.717 -194.267)" fill="#97c6ff"/>
    <rect id="Rectangle_7010" data-name="Rectangle 7010" width="1.077" height="0.808" transform="translate(259.07 373.5)" fill="#97c6ff"/>
    <rect id="Rectangle_7011" data-name="Rectangle 7011" width="1.077" height="0.808" transform="translate(501.22 299.654)" fill="#97c6ff"/>
    <path id="Path_28525" data-name="Path 28525" d="M1848.012,511.854h-1.077v-1.681h1.077Zm0-3.362h-1.077v-1.681h1.077Zm0-3.362h-1.077V503.45h1.077Zm0-3.362h-1.077v-1.681h1.077Zm0-3.362h-1.077v-1.681h1.077Z" transform="translate(-1345.715 -194.583)" fill="#97c6ff"/>
    <path id="Path_28526" data-name="Path 28526" d="M1848.281,600.194h-1.347v-1.347h1.077v.269h.269Z" transform="translate(-1345.715 -279.895)" fill="#97c6ff"/>
    <path id="Path_28527" data-name="Path 28527" d="M1902.12,649.077h-1.077V647.47h1.077Zm0-3.214h-1.077v-1.607h1.077Zm0-3.214h-1.077v-1.607h1.077Zm0-3.214h-1.077v-1.607h1.077Zm0-3.214h-1.077v-1.607h1.077Zm0-3.214h-1.077V631.4h1.077Zm0-3.214h-1.077v-1.607h1.077Zm0-3.214h-1.077v-1.607h1.077Zm0-3.214h-1.077V621.76h1.077Zm0-3.214h-1.077v-1.607h1.077Zm0-3.214h-1.077v-1.607h1.077Zm0-3.214h-1.077v-1.607h1.077Zm0-3.214h-1.077v-1.607h1.077Zm-1.083-3.191a6.026,6.026,0,0,0-.24-1.451l1.033-.3a7.106,7.106,0,0,1,.283,1.711Zm-.826-2.8a6.046,6.046,0,0,0-.9-1.166l.768-.755a7.116,7.116,0,0,1,1.057,1.374Zm-2.049-2.082a5.992,5.992,0,0,0-1.339-.608l.322-1.028a7.068,7.068,0,0,1,1.58.717Zm-2.785-.87q-.174-.01-.349-.01H1893.8v-1.077h1.226c.137,0,.276,0,.411.012Zm-3.183-.01h-1.607v-1.077h1.607Zm-3.214,0h-1.607v-1.077h1.607Zm-3.214,0h-1.607v-1.077h1.607Zm-3.214,0h-1.607v-1.077h1.607Zm-3.214,0h-1.607v-1.077h1.607Zm-3.214,0h-1.607v-1.077h1.607Zm-3.214,0h-1.607v-1.077h1.607Zm-3.214,0h-1.607v-1.077h1.607Zm-3.214,0h-1.607v-1.077h1.607Z" transform="translate(-1360.706 -281.262)" fill="#97c6ff"/>
    <rect id="Rectangle_7012" data-name="Rectangle 7012" width="1.077" height="0.808" transform="translate(540.338 369.429)" fill="#97c6ff"/>
    <path id="Path_28528" data-name="Path 28528" d="M1658.458,422.763c.021-.276.036-.555.036-.836a10.675,10.675,0,1,0-21.35,0c0,.282.014.56.036.836Z" transform="translate(-1170.455 -123.177)" fill="#5795ce"/>
    <path id="Path_28529" data-name="Path 28529" d="M1871.522,422.763c.022-.276.036-.555.036-.836a10.675,10.675,0,0,0-21.351,0c0,.282.014.56.036.836Z" transform="translate(-1348.449 -123.177)" fill="#5795ce"/>
    <path id="Path_28530" data-name="Path 28530" d="M1747,391.717a15.812,15.812,0,0,0,.125-1.99,15.639,15.639,0,0,0-31.277,0,15.835,15.835,0,0,0,.125,1.99Z" transform="translate(-1236.202 -92.131)" fill="#5795ce"/>
    <path id="Path_28534" data-name="Path 28534" d="M526.483,1165.014h-11.51a1.325,1.325,0,1,0,0,2.649h11.51a1.325,1.325,0,1,0,0-2.649" transform="translate(-231.886 -752.871)" fill="#d1f5ff"/>
    <path id="Path_28535" data-name="Path 28535" d="M634.021,1165.014h-11.51a1.325,1.325,0,0,0,0,2.649h11.51a1.325,1.325,0,1,0,0-2.649" transform="translate(-321.723 -752.871)" fill="#d1f5ff"/>
    <path id="Path_28539" data-name="Path 28539" d="M736.367,376.786a32.948,32.948,0,0,0,.657-13l1.337-.2,2.641-.395.034-.007a36.894,36.894,0,0,0-4.829-13.529l-3.478,2.072a32.965,32.965,0,0,0-8.734-9.644l2.414-3.262a36.731,36.731,0,0,0-12.983-6.164l-1,3.939a32.894,32.894,0,0,0-13-.658l-.6-4.012a37.127,37.127,0,0,0-13.529,4.828l2.072,3.478a32.966,32.966,0,0,0-9.645,8.734l-3.262-2.414a36.737,36.737,0,0,0-6.164,12.983l3.939,1a32.894,32.894,0,0,0-.658,13l-2.838.424-1.158.183-.015,0a37.13,37.13,0,0,0,4.828,13.529l3.478-2.072a33.028,33.028,0,0,0,8.749,9.648l-2.415,3.263a36.661,36.661,0,0,0,12.968,6.16l1-3.939a32.974,32.974,0,0,0,13.012.662l.464,3.118.139.893a37.061,37.061,0,0,0,13.514-4.832l-2.072-3.479a33.311,33.311,0,0,0,9.663-8.745l3.262,2.415a36.928,36.928,0,0,0,6.145-12.971Zm-36.476,9.287a17.955,17.955,0,1,1,21.809-13A17.953,17.953,0,0,1,699.891,386.073Z" transform="translate(-360.474 -56.91)" fill="none" stroke="#1364ae" stroke-width="1"/>
    <path id="Path_28540" data-name="Path 28540" d="M432.757,592.033a17.345,17.345,0,0,0-5.238-4.417l.342-.624.676-1.233.008-.016a19.424,19.424,0,0,0-7.209-2.287l-.24,2.118a17.357,17.357,0,0,0-6.826.588l-.6-2.052a19.341,19.341,0,0,0-6.72,3.478l1.333,1.673a17.32,17.32,0,0,0-4.417,5.238l-1.873-1.025a19.544,19.544,0,0,0-2.287,7.209l2.118.24a17.355,17.355,0,0,0,.588,6.826l-2.052.6a19.339,19.339,0,0,0,3.478,6.72l1.674-1.333a17.321,17.321,0,0,0,5.238,4.417l-.727,1.325-.292.543-.006.005a19.548,19.548,0,0,0,7.209,2.287l.24-2.118a17.386,17.386,0,0,0,6.832-.593l.6,2.052a19.3,19.3,0,0,0,6.714-3.472l-1.333-1.674a17.361,17.361,0,0,0,4.423-5.243l1.455.8.418.226a19.511,19.511,0,0,0,2.281-7.2l-2.118-.24a17.544,17.544,0,0,0-.587-6.837l2.052-.6a19.448,19.448,0,0,0-3.479-6.709Zm-7.73,18.248a9.453,9.453,0,1,1,1.5-13.285A9.453,9.453,0,0,1,425.027,610.281Z" transform="translate(-136.7 -267.037)" fill="none" stroke="#1364ae" stroke-width="1"/>
    <path id="Path_28629" data-name="Path 28629" d="M424.688,589.939a13.111,13.111,0,0,0-3.959-3.339l.258-.472.511-.932.006-.012a14.682,14.682,0,0,0-5.449-1.729l-.181,1.6a13.122,13.122,0,0,0-5.159.445l-.452-1.551a14.619,14.619,0,0,0-5.079,2.629l1.007,1.265a13.092,13.092,0,0,0-3.339,3.959l-1.416-.775a14.773,14.773,0,0,0-1.729,5.449l1.6.181a13.119,13.119,0,0,0,.444,5.159l-1.551.452a14.616,14.616,0,0,0,2.628,5.08l1.265-1.007a13.092,13.092,0,0,0,3.959,3.338l-.549,1-.221.411,0,0a14.777,14.777,0,0,0,5.449,1.729l.181-1.6a13.143,13.143,0,0,0,5.164-.448l.452,1.551A14.591,14.591,0,0,0,423.6,609.7l-1.008-1.265a13.124,13.124,0,0,0,3.343-3.963l1.1.6.316.171a14.748,14.748,0,0,0,1.724-5.445l-1.6-.181a13.261,13.261,0,0,0-.443-5.168l1.551-.452a14.7,14.7,0,0,0-2.63-5.071Zm-5.843,13.793a7.145,7.145,0,1,1,1.133-10.041A7.145,7.145,0,0,1,418.845,603.732Z" transform="translate(-145.377 -213.151)" fill="none" stroke="#1364ae" stroke-width="1"/>
    <path id="Path_28541" data-name="Path 28541" d="M2004.6,1380.823a20.02,20.02,0,0,0-6.044-5.1l.394-.721.78-1.422.009-.019a22.409,22.409,0,0,0-8.32-2.639l-.277,2.444a20.03,20.03,0,0,0-7.877.679l-.69-2.368a22.318,22.318,0,0,0-7.755,4.013l1.538,1.931a19.978,19.978,0,0,0-5.1,6.044l-2.162-1.183a22.559,22.559,0,0,0-2.639,8.319l2.444.277a20.026,20.026,0,0,0,.678,7.876l-2.368.69a22.319,22.319,0,0,0,4.013,7.755l1.931-1.538a19.987,19.987,0,0,0,6.045,5.1l-.839,1.529-.337.627-.007.006a22.555,22.555,0,0,0,8.319,2.639l.277-2.444a20.068,20.068,0,0,0,7.884-.684l.69,2.367a22.266,22.266,0,0,0,7.748-4.007l-1.538-1.931a20.033,20.033,0,0,0,5.1-6.05l1.679.922.483.261a22.516,22.516,0,0,0,2.632-8.313l-2.444-.277a20.241,20.241,0,0,0-.677-7.89l2.367-.69a22.438,22.438,0,0,0-4.015-7.742Zm-8.92,21.057a10.909,10.909,0,1,1,1.73-15.33A10.908,10.908,0,0,1,1995.681,1401.88Z" transform="translate(-1445.568 -924.89)" fill="none" stroke="#00224d" stroke-width="1"/>
    <path id="Path_28542" data-name="Path 28542" d="M648.473,1737.191H344.515a1.8,1.8,0,0,1,0-3.6H648.473a1.8,1.8,0,0,1,0,3.6" transform="translate(-89.087 -1227.86)" fill="#003c99"/>
    <path id="Path_28543" data-name="Path 28543" d="M757.621,850.819H511.411a6,6,0,0,1-6-6V692.029a6,6,0,0,1,6-6h246.21a6,6,0,0,1,6,6V844.821a6,6,0,0,1-6,6" transform="translate(-227.375 -354.24)" fill="#b3d1ff"/>
    <rect id="Rectangle_7016" data-name="Rectangle 7016" width="255.98" height="162.561" rx="5" transform="translate(279.151 332.904)"/>
    <rect id="Rectangle_7017" data-name="Rectangle 7017" width="238.814" height="149.316" transform="translate(289.048 339.904)" fill="#5795ce"/>
    <path id="Path_28544" data-name="Path 28544" d="M673.194,1677.993v3.977a4.643,4.643,0,0,1-.036.6,5.172,5.172,0,0,1-5.139,4.576H384.232a5.171,5.171,0,0,1-5.137-4.576,4.676,4.676,0,0,1-.036-.6v-3.977Z" transform="translate(-119.45 -1181.415)" fill="#599aff"/>
    <path id="Path_28545" data-name="Path 28545" d="M673.341,1705.793a5.172,5.172,0,0,1-5.139,4.576H384.416a5.171,5.171,0,0,1-5.137-4.576Z" transform="translate(-119.634 -1204.638)" fill="#406eff"/>
    <g id="Group_20180" data-name="Group 20180" transform="translate(336.55 371.577)" opacity="0.3">
      <g id="Group_20179" data-name="Group 20179">
        <g id="Group_20178" data-name="Group 20178" clip-path="url(#clip-path)">
          <path id="Path_28546" data-name="Path 28546" d="M985.274,1008.262H853.051a6.546,6.546,0,0,1-6.546-6.546v-76.61a6.546,6.546,0,0,1,6.546-6.546H985.274a6.546,6.546,0,0,1,6.546,6.546v76.61a6.546,6.546,0,0,1-6.546,6.546" transform="translate(-846.505 -918.561)" fill="#fff"/>
        </g>
      </g>
    </g>
    <path id="Path_28547" data-name="Path 28547" d="M1296.7,1288.823h-21.348a3.284,3.284,0,0,1,0-6.568H1296.7a3.284,3.284,0,0,1,0,6.568" transform="translate(-865.47 -850.814)" fill="#ff9f34"/>
    <path id="Path_28548" data-name="Path 28548" d="M1262.818,1129.852h-46.581a3.284,3.284,0,0,1,0-6.568h46.581a3.284,3.284,0,1,1,0,6.568" transform="translate(-816.086 -718.01)" fill="#fff"/>
    <path id="Path_28549" data-name="Path 28549" d="M1262.818,1204.966h-46.581a3.284,3.284,0,1,1,0-6.568h46.581a3.284,3.284,0,1,1,0,6.568" transform="translate(-816.086 -780.76)" fill="#fff"/>
    <path id="Path_28550" data-name="Path 28550" d="M1269.049,1214.25a1.156,1.156,0,1,1-1.156-1.156,1.156,1.156,0,0,1,1.156,1.156" transform="translate(-861.017 -793.037)" fill="rgba(8,85,140,0.67)"/>
    <path id="Path_28551" data-name="Path 28551" d="M1293.134,1214.25a1.156,1.156,0,1,1-1.156-1.156,1.156,1.156,0,0,1,1.156,1.156" transform="translate(-881.138 -793.037)" fill="rgba(8,85,140,0.67)"/>
    <path id="Path_28552" data-name="Path 28552" d="M1317.218,1214.25a1.156,1.156,0,1,1-1.156-1.156,1.156,1.156,0,0,1,1.156,1.156" transform="translate(-901.258 -793.037)" fill="rgba(8,85,140,0.67)"/>
    <path id="Path_28553" data-name="Path 28553" d="M1341.3,1214.25a1.156,1.156,0,1,1-1.156-1.156,1.156,1.156,0,0,1,1.156,1.156" transform="translate(-921.378 -793.037)" fill="rgba(8,85,140,0.67)"/>
    <path id="Path_28554" data-name="Path 28554" d="M1365.387,1214.25a1.156,1.156,0,1,1-1.156-1.156,1.156,1.156,0,0,1,1.156,1.156" transform="translate(-941.498 -793.037)" fill="rgba(8,85,140,0.67)"/>
    <path id="Path_28555" data-name="Path 28555" d="M1389.471,1214.25a1.156,1.156,0,1,1-1.156-1.156,1.156,1.156,0,0,1,1.156,1.156" transform="translate(-961.618 -793.037)" fill="rgba(8,85,140,0.67)"/>
    <path id="Path_28556" data-name="Path 28556" d="M1413.556,1214.25a1.156,1.156,0,1,1-1.156-1.156,1.156,1.156,0,0,1,1.156,1.156" transform="translate(-981.739 -793.037)" fill="rgba(8,85,140,0.67)"/>
    <path id="Path_28557" data-name="Path 28557" d="M1437.64,1214.25a1.156,1.156,0,1,1-1.156-1.156,1.156,1.156,0,0,1,1.156,1.156" transform="translate(-1001.858 -793.037)" fill="rgba(8,85,140,0.67)"/>
    <path id="Path_28558" data-name="Path 28558" d="M1461.725,1214.25a1.156,1.156,0,1,1-1.156-1.156,1.156,1.156,0,0,1,1.156,1.156" transform="translate(-1021.979 -793.037)" fill="rgba(8,85,140,0.67)"/>
    <path id="Path_28559" data-name="Path 28559" d="M1337.728,1001.3a6.86,6.86,0,1,1-6.86-6.86,6.86,6.86,0,0,1,6.86,6.86" transform="translate(-908.862 -610.373)" fill="#fff"/>
    <path id="Path_28560" data-name="Path 28560" d="M1354.761,1012.473a2.167,2.167,0,0,0,1.683-.824,2.113,2.113,0,0,0,.464-1.34,2.155,2.155,0,1,0-4.31,0,2.11,2.11,0,0,0,.464,1.34,2.174,2.174,0,0,0,1.7.824" transform="translate(-932.745 -621.823)" fill="#08558c"/>
    <path id="Path_28561" data-name="Path 28561" d="M1350.141,1041.331c0,1.366-7.626,1.366-7.626,0l0-1.591c.3-2.175,7-2.267,7.625,0Z" transform="translate(-924.322 -646.826)" fill="#08558c"/>
    <path id="Path_28562" data-name="Path 28562" d="M1261.6,1207.22v-.176a1.292,1.292,0,0,0-2.584,0v.176h-.2v2.329c0,.4,2.985.4,2.985,0v-2.329Zm-2.124-.176a.836.836,0,1,1,1.672,0v.176h-1.672Zm1.052,1.349v.672a.214.214,0,0,1-.224.207.2.2,0,0,1-.207-.207v-.672a.392.392,0,0,1-.207-.345.414.414,0,1,1,.828,0,.415.415,0,0,1-.189.345" transform="translate(-858.791 -786.904)" fill="#4d4d4d"/>
    <path id="Path_28563" data-name="Path 28563" d="M1237.419,1133.215a.845.845,0,0,0,.657-.322.824.824,0,0,0,.181-.523.841.841,0,1,0-1.682,0,.824.824,0,0,0,.181.523.849.849,0,0,0,.664.322" transform="translate(-835.82 -724.895)" fill="#4d4d4d"/>
    <path id="Path_28564" data-name="Path 28564" d="M1235.538,1144.48c0,.533-2.992.533-2.992,0l.016-.621c.118-.849,2.734-.885,2.976,0Z" transform="translate(-832.454 -734.655)" fill="#4d4d4d"/>
    <path id="Path_28565" data-name="Path 28565" d="M1279.8,1139.309h-12.1a.964.964,0,1,1,0-1.927h12.1a.964.964,0,0,1,0,1.927" transform="translate(-861.017 -729.787)" fill="rgba(8,85,140,0.67)"/>
    <path id="Path_28566" data-name="Path 28566" d="M1236.368,1096.587h-11.68a.964.964,0,1,1,0-1.927h11.68a.964.964,0,0,1,0,1.927" transform="translate(-825.084 -694.097)" fill="#08558c"/>
    <path id="Path_28567" data-name="Path 28567" d="M1376.724,1139.309h-12.1a.964.964,0,1,1,0-1.927h12.1a.964.964,0,0,1,0,1.927" transform="translate(-941.99 -729.787)" fill="rgba(8,85,140,0.67)"/>
    <path id="Path_28568" data-name="Path 28568" d="M991.434,1140.618v17.035c0,1.893,23.164,1.893,23.164,0v-17.035Z" transform="translate(-631.029 -732.491)" fill="#fff"/>
    <path id="Path_28569" data-name="Path 28569" d="M1050.143,1165.2a2.86,2.86,0,1,1-2.86-2.86,2.86,2.86,0,0,1,2.86,2.86" transform="translate(-675.297 -750.634)" fill="#08558c"/>
    <path id="Path_28570" data-name="Path 28570" d="M1055.849,1192.794h0a1.172,1.172,0,0,1-1.172-1.172v-6.559h2.344v6.559a1.172,1.172,0,0,1-1.172,1.172" transform="translate(-683.862 -769.62)" fill="#08558c"/>
    <path id="Path_28571" data-name="Path 28571" d="M1022.869,1078.941h-2.344v-1.148a7.208,7.208,0,0,0-14.415,0v1.148h-2.344v-1.148a9.552,9.552,0,0,1,19.1,0Z" transform="translate(-641.33 -672.028)" fill="#fff"/>
    <path id="Path_28572" data-name="Path 28572" d="M1667.048,1130.178l1.107,4.45.2.827c.224,1.051,7.167.6,6.676-.626l-.414-.906-2.136-4.685Z" transform="translate(-1195.437 -722.985)" fill="#f7a58e"/>
    <path id="Path_28573" data-name="Path 28573" d="M1642.375,1060.7c-.071,4.825,2.169,8.75,5.674,8.733s6.9-2.991,7.02-8.794a6.468,6.468,0,0,0-6.38-6.665,6.576,6.576,0,0,0-6.314,6.726" transform="translate(-1174.824 -660.108)" fill="#f7a58e"/>
    <path id="Path_28574" data-name="Path 28574" d="M1641.143,1045.913s-6.985.345-7.566,5.635c-.776,4.643,2.708,1.229,4.13,4.345,1.629,3.569-.031,6.18-2.148,6.89,1.882,2.628,12.645,2.533,15.414-2.077,1.9-5.784-.787-14.472-9.83-14.793" transform="translate(-1167.383 -653.374)"/>
    <path id="Path_28575" data-name="Path 28575" d="M1650.329,1099.317a1.3,1.3,0,1,0,1.4-1.192,1.3,1.3,0,0,0-1.4,1.192" transform="translate(-1181.467 -696.989)" fill="#f7a58e"/>
    <path id="Path_28576" data-name="Path 28576" d="M1643.993,1649.555c-.328-.347-1.872-.352-2.013.161s.131.879-.521,1.692a6.615,6.615,0,0,0,2.113,0c.407-.118.748-1.506.421-1.853" transform="translate(-1174.061 -1157.453)" fill="#fff"/>
    <path id="Path_28577" data-name="Path 28577" d="M1651.935,1358.5h-3.764c-.352-15.926-.285-33.263-.158-46.32.045-4.676.174-7.041,1.022-9.848,1.713-5.669,9.766-3.924,10.338,1.214.238,2.852.413,8.414-4.858,27.315,2.282,8.322-1.7,18.3-2.58,27.639" transform="translate(-1179.45 -864.647)" fill="#00050d"/>
    <path id="Path_28578" data-name="Path 28578" d="M1627.061,1657.089a4.089,4.089,0,0,0,2.093-.932,2.293,2.293,0,0,0,2.013.378c1.068-.159,1.209-.656,1.975-.589.323.9,1.11,2.913.351,3.38h-7.913c-.707-.645-.688-2.022,1.481-2.238" transform="translate(-1160.448 -1162.991)" fill="#fff"/>
    <path id="Path_28579" data-name="Path 28579" d="M1762.457,1652.2c-.275-.291-1.573-.3-1.691.135s.11.739-.438,1.422a5.549,5.549,0,0,0,1.775,0c.342-.1.629-1.266.354-1.557" transform="translate(-1273.364 -1159.696)" fill="#fff"/>
    <path id="Path_28580" data-name="Path 28580" d="M1696.752,1305.4c.77-5.872,11.215-5.269,11.91-.142.251,2.759,1.017,6.911-.946,27.4,4.141,7.82,2.971,19.04,4.208,27.3.137,1.256-3.423,1.558-3.7.438-3.794-15.324-9.095-32.516-11.065-45.265-.715-4.622-.787-6.825-.406-9.733" transform="translate(-1220.062 -866.641)" fill="#00050d"/>
    <path id="Path_28581" data-name="Path 28581" d="M1745.4,1655.764a2.913,2.913,0,0,0,1.616-1.119,2.223,2.223,0,0,0,1.951.809c1.068-.16,1.209-.656,1.975-.59.323.9,1.11,2.913.35,3.38h-7.7c-.706-.645-.365-2.265,1.8-2.48" transform="translate(-1259.111 -1161.91)" fill="#fff"/>
    <path id="Path_28582" data-name="Path 28582" d="M1493.741,1257.2l-.39-1.957c.956-.373,2.405-1.145,4.091-1.8l.926,3.172c-1.867.277-3.521.48-4.627.587" transform="translate(-1050.331 -826.745)" fill="#f7a58e"/>
    <path id="Path_28583" data-name="Path 28583" d="M1518.206,1182.809c3.25-1.511,8.816-4.8,10.1-5.391l13.735-8.433c2.963-.9,6.417,4.964,2.671,7.61,0,0-21.239,8.742-25.576,9.387Z" transform="translate(-1071.095 -756.111)" fill="#ff7268"/>
    <path id="Path_28584" data-name="Path 28584" d="M1478.028,1267.495c-1.329-.4-1.789-2.356-1.823-2.5l2.749-1c1.337-.541,2.1,1.076,1.259,2.244,0,0-.919,1.558-2.185,1.264" transform="translate(-1036.007 -835.464)" fill="#f7a58e"/>
    <path id="Path_28585" data-name="Path 28585" d="M1464.589,1270.089c-3.175.682-3.052-.1-3.052-.1s1.071-.356,3.006-.884c1.118-.25.81.733.046.98" transform="translate(-1023.752 -839.798)" fill="#f7a58e"/>
    <path id="Path_28586" data-name="Path 28586" d="M1646.811,1170.333c-.66-3.213-1.014-6.385,2.3-8.379,1.964-1.182,8.274-2.027,11.225-1.051,2.974,1.329,2.33,7.124,2.887,16.275,2.049,4.567,2.939,6.067,3.546,10.516,0,0-1.1,3.352-8.818,3.356-3.507,0-8.671-.31-11.02-2.1.234-3.033,1.5-5.956,2.031-10.25,0,0-2.1-8-2.148-8.369" transform="translate(-1178.166 -749.08)" fill="#ff7268"/>
    <path id="Path_28587" data-name="Path 28587" d="M1712.363,1163.046a49.672,49.672,0,0,1,8.83,9.429c1.671,2.311,6,11.6,6,11.6l-2.754,2.03-7.45-10.15-9.1-7.465c-3.158-3.223.946-8.137,4.476-5.442" transform="translate(-1228.611 -750.576)" fill="#ff7268"/>
    <path id="Path_28588" data-name="Path 28588" d="M1813.367,1290.326l-1.785-3.688a4.609,4.609,0,0,1-3.051,2.1s1.919,2.762,2.389,3.232,2.408-.326,2.447-1.643" transform="translate(-1313.632 -854.476)" fill="#f7a58e"/>
    <path id="Path_28589" data-name="Path 28589" d="M1820.295,1308.02c.007.027,0,.065.007.092a2.65,2.65,0,0,0,1.4,2.128.161.161,0,0,0,.072.028c-.97-.194-1.261,1.106-.767,1.406a2.707,2.707,0,0,0,3.636-1.17c.175-.819-1.452-3.527-1.452-3.527-.829-.67-2.954-.566-2.895,1.042" transform="translate(-1323.459 -871.143)" fill="#f7a58e"/>
    <path id="Path_28590" data-name="Path 28590" d="M1820.339,1314.082a2.56,2.56,0,0,0,1.449,2.147c.8-.022,1.085-.071,1.848-.069a1.761,1.761,0,0,1-1.124-2.144,2.157,2.157,0,0,0-2.173.067" transform="translate(-1323.497 -877.113)" fill="#e6856a"/>
    <path id="Path_28591" data-name="Path 28591" d="M1819.629,1307.736a9.255,9.255,0,0,0,.176,3.822s.768.04.7-1.41c-.019-.377.036-1.2.409-1.469,1.149-.759,1.334-1.456.913-2.027-.562-.762-2.15.011-2.194,1.085" transform="translate(-1322.808 -870.939)" fill="#f7a58e"/>
    <path id="Path_28592" data-name="Path 28592" d="M1828.79,1331.705c-.623.432-2.274,1.271-2.534,1.064s1.059-1.612,1.911-1.8.943.512.623.734" transform="translate(-1328.412 -891.487)" fill="#f7a58e"/>
    <path id="Path_28593" data-name="Path 28593" d="M1424.776,617.287c1.783-2.583.142-10.619-7.471-12.927-6.432-1.658-9.779.376-18.479,2.745l1.3,10.183Z" transform="translate(-971.366 -283.995)" fill="#50318f"/>
    <path id="Path_28594" data-name="Path 28594" d="M1336.574,609.97s-15.584,3.219-21.336,5.335c-3.3,1.214-4.118,3.942-2.846,6.041,1.883,3.109,24.24.9,24.24.9,7.712-2.159,3.63-12.415-.058-12.28" transform="translate(-898.682 -289.186)" fill="#50318f"/>
    <path id="Path_28595" data-name="Path 28595" d="M1481.424,604.618s9.952,3.376,15.549,5.875c5.432.428,5.075,7.173,2.5,7.608-5.913,1.6-18.938-1.234-18.938-1.234-7.55-2.673-2.786-12.631.885-12.249" transform="translate(-1036.278 -284.707)" fill="#50318f"/>
    <path id="Path_28596" data-name="Path 28596" d="M1407.23,596.155s-3.138-4.775,4.649-8.473,13.025,0,11.727,4.476-5.887,7.464-5.887,7.464-7.764.037-10.489-3.466" transform="translate(-977.863 -269.303)" fill="#50318f"/>
    <path id="Path_28597" data-name="Path 28597" d="M1430.1,578.881c3.747-2.6,2.241-7.664,2.241-7.664l-1.419-2.707-1.182-2.254-6.252,2.408,1.138,4.629a11.988,11.988,0,0,0,.988,2.3c.862,1.538,2.318,3.286,4.485,3.293" transform="translate(-991.969 -252.667)" fill="#f7a28a"/>
    <path id="Path_28598" data-name="Path 28598" d="M1425.615,575.588a13.616,13.616,0,0,0,5.308-7.078l-1.182-2.254-6.252,2.408,1.138,4.629a12,12,0,0,0,.988,2.3" transform="translate(-991.968 -252.668)" fill="#f0896c"/>
    <path id="Path_28599" data-name="Path 28599" d="M1371.339,529.691a2.41,2.41,0,0,0-.146,4.523,2.067,2.067,0,0,0,1.243,3.012c4.812,1.768,4.342-8.607-1.1-7.535" transform="translate(-947.013 -222.056)" fill="#3d3d3d"/>
    <path id="Path_28600" data-name="Path 28600" d="M1384.43,512.41c1.474,4.35,4.542,8.425,7.012,7.41,4.187-1.72,7.7-6.4,5.964-11.324s-5.473-7.189-9.433-5.791-5.219,4.758-3.542,9.705" transform="translate(-958.734 -199.237)" fill="#f7a28a"/>
    <path id="Path_28601" data-name="Path 28601" d="M1371.955,493.707c.885.75,4.161,2.024,10.937-1.258a7.911,7.911,0,0,1,2.537,3.425c.638-.151.9-.484,1.337.063.608.755.928,2.409.173,3.016a1.753,1.753,0,0,1-.628.323c-.271,1.158-.014,2.432.92,2.716,1.441-1.16,1.267-1.428,1.8-2.764,1.682-1.18,1.686-3.77.332-4.479,1.285-1.205-.267-3.846-2.169-3.934.013-1.46-1.846-4.069-4.182-2.543.067-1.57-2.783-2.6-4.325-.288-1.242-1.695-5.013-.669-4.868,1.583-2.281-.4-3.532,2.67-1.861,4.139" transform="translate(-948.275 -186.151)" fill="#3d3d3d"/>
    <path id="Path_28602" data-name="Path 28602" d="M1315.287,656.164s-.395,3.783,6.575,4.389a140.549,140.549,0,0,0,14.637.489l.714-3s-14.081-4.777-17.528-4.985c-4.1-.248-4.4,3.1-4.4,3.1" transform="translate(-901.573 -325.174)" fill="#f7a28a"/>
    <path id="Path_28603" data-name="Path 28603" d="M1442.005,678.347l4.447-.929s2.865,1.371,3.757,3.153c-.652.731-2.431-.811-2.431-.811s.18,2.981-.257,3.547-2.621.944-3.336.329.529-1.346.529-1.346l-3.252-.888s-1.514-2.27.544-3.055" transform="translate(-1006.534 -345.533)" fill="#f7a28a"/>
    <path id="Path_28604" data-name="Path 28604" d="M1460.987,528.246a.122.122,0,1,0-.122.123.122.122,0,0,0,.122-.123" transform="translate(-1023.089 -220.812)" fill="#f7a28a"/>
    <path id="Path_28605" data-name="Path 28605" d="M1528.654,652.335s2.348,2.993-3.23,7.216a140.573,140.573,0,0,1-12.132,8.2l-2.2-2.158s9.379-11.538,12.186-13.549c3.343-2.395,5.376.286,5.376.286" transform="translate(-1065.151 -323.509)" fill="#f7a28a"/>
    <path id="Path_28606" data-name="Path 28606" d="M1498.471,735.5l-2.481,3.805s.236,3.168,1.572,4.646c.918-.342.128-2.56.128-2.56s2.712,1.251,3.4,1.05,1.832-2.1,1.519-2.989-1.447,0-1.447,0l.538-2.833c.44-1.579-2.187-2.718-3.228-1.124" transform="translate(-1052.535 -393.409)" fill="#f7a28a"/>
    <path id="Path_28607" data-name="Path 28607" d="M700.226,1051.141c.431,4.061-1.616,8.392-4.191,8.361-3.532-.043-8.1-2.95-8.531-7.012s2.068-7.656,5.581-8.029,6.71,2.618,7.14,6.68" transform="translate(-377.085 -652.135)" fill="#f7b28a"/>
    <path id="Path_28608" data-name="Path 28608" d="M630.525,1652.315a31.3,31.3,0,0,1,6.6,0c2.4,1.584,3.434,1.492,3.434,1.492,1.025.268,1.482,1.676.593,1.676H630.226Z" transform="translate(-329.275 -1159.809)" fill="#fff"/>
    <path id="Path_28609" data-name="Path 28609" d="M739.564,1652.315a31.133,31.133,0,0,1,6.6,0c2.642,1.584,3.662,1.492,3.662,1.492,1.067.268,1.739,1.676.85,1.676H739.75Z" transform="translate(-420.616 -1159.809)" fill="#fff"/>
    <path id="Path_28610" data-name="Path 28610" d="M684.052,1100.844l-6.869-2.319,4.976-10.362,4.829,2.319Z" transform="translate(-368.504 -688.67)" fill="#f7b28a"/>
    <path id="Path_28611" data-name="Path 28611" d="M732.853,1208.125s5.329,3.9,2.728,8.047c-1.938,3.087-8.142-.256-8.142-3.848,0-3.238,2.492-5.147,5.414-4.2" transform="translate(-410.487 -788.683)" fill="#f2b231"/>
    <path id="Path_28612" data-name="Path 28612" d="M635.181,1307a23.318,23.318,0,0,0-2.138,6.645c-.3,1.572.052,8.683-.049,20.658a251.056,251.056,0,0,0-2.768,31l6.9-1.307,10.565-56.347Z" transform="translate(-329.274 -871.49)" fill="#333"/>
    <path id="Path_28613" data-name="Path 28613" d="M686.045,1315.728a261.487,261.487,0,0,1,2.425,27.136l1.6,28.42-6.562,1.255c-1.345-8.819-3.584-19.834-3.938-30.051l-7.155-26.677Z" transform="translate(-364.515 -878.778)" fill="#333"/>
    <path id="Path_28614" data-name="Path 28614" d="M647.19,1168.535c.455,2.748.7,2.934.7,2.934l17.483.386a11.943,11.943,0,0,1-.08-4.21,8.58,8.58,0,0,0-.015-2.337c-.166-1.78-.544-4.375-1.05-7.217-1.09-6.108-2.78-13.352-4.267-16.074l-7.632-1.831s-3.4,3.452-4.153,6.508-1.443,19.094-.988,21.84" transform="translate(-343.325 -732.131)" fill="#ffd834"/>
    <path id="Path_28615" data-name="Path 28615" d="M722.644,1236.761l5.792,9.226c-.166-1.78-.543-4.376-1.05-7.217Z" transform="translate(-406.481 -812.809)" fill="#f2b231"/>
    <path id="Path_28616" data-name="Path 28616" d="M705.444,1222.793s-2.053,4.422.079,5.607,4.264-2.606,4.264-2.606Z" transform="translate(-391.369 -801.14)" fill="#f7b28a"/>
    <path id="Path_28617" data-name="Path 28617" d="M687.045,1151.2l-1.478,9.542-4.6-5.413s-4.133-4.191-7.451-.408,1.863,7.567,1.863,7.567,7.567,6.159,12.4,5.519,1.816-16.626,1.816-16.626Z" transform="translate(-364.515 -741.328)" fill="#ffd834"/>
    <path id="Path_28618" data-name="Path 28618" d="M757.549,1117.7l-.745-3.635,1.9-2.884s.708-.522.969,1.08c.52.745,1.155,1.3,1.08,2.139s-.654,3.481-.654,3.481Z" transform="translate(-435.018 -707.829)" fill="#f7b28a"/>
    <path id="Path_28619" data-name="Path 28619" d="M679.166,1133.1l.54-1.4,8.085,3.21.636,3.51Z" transform="translate(-370.16 -725.039)" fill="#ffeac2"/>
    <path id="Path_28620" data-name="Path 28620" d="M682.961,1048.487a12.211,12.211,0,0,1-1.812-8.334c.825-4.539,7.551-5.488,7.551-5.488s7.014-.413,8.582,6.725c-.743.949-3.8-.619-3.8-.619l-5.019,4.58s.059-3.589-1.711-2.682-1.242,3.8-1.242,3.8a10.191,10.191,0,0,1-2.554,2.022" transform="translate(-371.683 -643.974)"/>
    <path id="Path_28621" data-name="Path 28621" d="M1864.814,973.647h0c0-.123,0-.178,0-.19,0,.023,0,.19,0,.19" transform="translate(-1360.652 -592.844)" fill="#d9ffff"/>
    <path id="Path_28622" data-name="Path 28622" d="M1864.814,973.647h0c0-.123,0-.178,0-.19,0,.023,0,.19,0,.19" transform="translate(-1360.652 -592.844)" fill="#d9ffff"/>
    <path id="Path_28625" data-name="Path 28625" d="M1910.591,869.558c-8.146,8.726-21.144,15.877-35.053,18.923,0,.929-.027,6.076-.133,29.8-.141,31.645,29.975,47.109,34.651,49.482,4.53-2.085,35.027-17.525,35.168-49.17.106-23.722.129-28.869.133-29.8-13.881-3.171-26.7-10.437-34.766-19.236" transform="translate(-1369.499 -506.047)" fill="#fff"/>
    <path id="Path_28626" data-name="Path 28626" d="M1921.5,890.409c-8.4,7.7-20.031,13.758-32.824,17.058l-.126,28.225c-.058,12.915,5.073,24.6,15.25,34.728a72.947,72.947,0,0,0,17.285,12.639c.153-.078.322-.166.487-.252V890.475c-.024-.022-.05-.044-.073-.066" transform="translate(-1380.476 -523.466)" fill="#8ab5dc"/>
    <path id="Path_28627" data-name="Path 28627" d="M2089.176,890.808V983.14a72.972,72.972,0,0,0,16.91-12.232c10.267-10.037,15.5-21.675,15.56-34.59l.126-28.226c-12.726-3.4-24.274-9.538-32.6-17.284" transform="translate(-1548.083 -523.799)" fill="#5795ce"/>
    <path id="Path_28628" data-name="Path 28628" d="M1996.631,1062.688c-9.739,1.5-23,10.385-31.368,21.065-1.174-5.036-6.442-9.634-9.2-10.638l-8.351,8.393c5.214,2.35,10.912,9.007,11.667,15.823l8.342,1.293c3.517-6.947,12.6-23.565,30.671-32.5a13.688,13.688,0,0,0-1.763-3.435" transform="translate(-1429.907 -667.388)" fill="#08558c"/>
  </g>
</svg>
