<svg xmlns="http://www.w3.org/2000/svg" xmlns:xlink="http://www.w3.org/1999/xlink" width="32" height="32" viewBox="0 0 32 32">
  <defs>
    <clipPath id="clip-path">
      <path id="Path_16173" data-name="Path 16173" d="M-177.655-294.8a16,16,0,0,1-16,16,16,16,0,0,1-16-16,16,16,0,0,1,16-16A16,16,0,0,1-177.655-294.8Z" transform="translate(211.655 1329.167)" fill="#2c3842" clip-rule="evenodd"/>
    </clipPath>
  </defs>
  <g id="Group_16097" data-name="Group 16097" transform="translate(55 -977.613)">
    <path id="Path_16171" data-name="Path 16171" d="M-177.655-294.8a16,16,0,0,1-16,16,16,16,0,0,1-16-16,16,16,0,0,1,16-16A16,16,0,0,1-177.655-294.8Z" transform="translate(154.655 1288.417)" fill="#4ca1e8" fill-rule="evenodd"/>
    <g id="Group_16096" data-name="Group 16096" transform="translate(-57 -40.75)" clip-path="url(#clip-path)">
      <path id="Path_16172" data-name="Path 16172" d="M14.6,1040.475c.2-.036-3.208,1.365-8.009,3.984A2.668,2.668,0,0,0,5.345,1047v3.572h25.31v-3.986a3,3,0,0,0-1.708-2.278c-3.585-1.984-8.022-3.919-7.957-3.932Z" fill="#b5bdc4"/>
    </g>
    <path id="Path_16174" data-name="Path 16174" d="M-84.649-464.507A3.311,3.311,0,0,1-87.96-461.2a3.311,3.311,0,0,1-3.311-3.311,3.311,3.311,0,0,1,3.311-3.311A3.311,3.311,0,0,1-84.649-464.507Z" transform="translate(48.741 1464.958)" fill="#fca"/>
    <path id="Path_16175" data-name="Path 16175" d="M-39.449,980.862c2.806,0,5.923,2.573,5.759,5.759l-.362,7.045c-.164,3.186-3.392,5.668-5.4,5.668s-5.233-2.482-5.4-5.668l-.362-7.045C-45.372,983.435-42.255,980.862-39.449,980.862Z" fill="#fca"/>
    <path id="Path_16176" data-name="Path 16176" d="M-84.192-730.987c0,1.325-.664,2.4-1.483,2.4s-1.483-1.074-1.483-2.4.664-2.4,1.483-2.4S-84.192-732.312-84.192-730.987Z" transform="translate(59.769 1722.445) rotate(-0.637)" fill="#fca"/>
    <path id="Path_16177" data-name="Path 16177" d="M-84.192-730.987c0,1.325-.664,2.4-1.483,2.4s-1.483-1.074-1.483-2.4.664-2.4,1.483-2.4S-84.192-732.312-84.192-730.987Z" transform="translate(49.043 1722.445) rotate(-0.637)" fill="#fca"/>
    <path id="Path_16178" data-name="Path 16178" d="M-34.023,993.034c2.615-3.152,2.75-7.827-.4-10.443-2.487-2.064-6.4-2.875-8.392-.644-.617.692-1.486,1.054-2.05,1.615-2.3,2.288-1.814,6.053-.047,8.775v-3.25c0-1.337,1.775-1.916,3.547-1.916h3.313c2.054,0,4.154,1.356,4.09,3.727Z"/>
  </g>
</svg>
