<svg xmlns="http://www.w3.org/2000/svg" width="12" height="16" viewBox="0 0 12 16">
  <path id="_" data-name="⚤" d="M13.094-12.563l-.885.89V-14.2l-1.74,1.78a6.1,6.1,0,0,1,.628,1.2,3.306,3.306,0,0,1,.166,1.088,3.505,3.505,0,0,1-1.074,2.572A3.535,3.535,0,0,1,8.319-6.545a3.592,3.592,0,0,1-.772,1.7,3.076,3.076,0,0,1-.931.8,5.8,5.8,0,0,1-1.43.472v1.164H6.935v.9L5.187-1.524,5.18.348,4.317.355V-1.509L2.539-1.516l-.008-.913,1.786.008V-3.57A5.524,5.524,0,0,1,2.959-4a3.211,3.211,0,0,1-.919-.742,3.553,3.553,0,0,1-.946-2.427A3.584,3.584,0,0,1,2.153-9.786a3.46,3.46,0,0,1,1.9-1.019,3.507,3.507,0,0,1,1-1.925,3.568,3.568,0,0,1,2.625-1.058,3.089,3.089,0,0,1,1.021.156,5.783,5.783,0,0,1,1.15.612l1.733-1.742H9.174l.878-.883h3.034ZM2.826-9.124A2.631,2.631,0,0,0,2.032-7.2a2.612,2.612,0,0,0,.779,1.921,2.6,2.6,0,0,0,1.914.78A2.624,2.624,0,0,0,6.64-5.275a2.621,2.621,0,0,0,.7-1.217A3.489,3.489,0,0,1,5.058-7.549,3.529,3.529,0,0,1,4.007-9.824,2.678,2.678,0,0,0,2.826-9.124Zm4.8-3.736a2.593,2.593,0,0,0-1.907.8,2.623,2.623,0,0,0-.7,1.21A3.449,3.449,0,0,1,7.306-9.794a3.542,3.542,0,0,1,1.052,2.26,2.619,2.619,0,0,0,1.18-.715,2.677,2.677,0,0,0,.787-1.925,2.569,2.569,0,0,0-.806-1.887A2.6,2.6,0,0,0,7.623-12.86ZM6.655-9.124a2.492,2.492,0,0,0-1.718-.791,2.6,2.6,0,0,0,.779,1.7,2.609,2.609,0,0,0,1.695.768A2.622,2.622,0,0,0,6.655-9.124Z" transform="translate(-1.094 15.645)" fill="#354b62"/>
</svg>
