<svg xmlns="http://www.w3.org/2000/svg" xmlns:xlink="http://www.w3.org/1999/xlink" width="60" height="60" viewBox="0 0 60 60">
  <defs>
    <linearGradient id="linear-gradient" x1="0.5" x2="0.5" y2="1" gradientUnits="objectBoundingBox">
      <stop offset="0" stop-color="#f62626"/>
      <stop offset="1" stop-color="#840000"/>
    </linearGradient>
  </defs>
  <g id="Group_16087" data-name="Group 16087" transform="translate(207.013 -2265.053)">
    <path id="Path_63" data-name="Path 63" d="M31.367,55.329A23.959,23.959,0,1,1,55.516,31.371,24.082,24.082,0,0,1,31.367,55.329M31.367,8A23.369,23.369,0,1,0,54.92,31.371,23.488,23.488,0,0,0,31.367,8" transform="translate(-208.379 2263.681)" fill="#ffc727"/>
    <g id="Group_2214" data-name="Group 2214" transform="translate(-207.013 2265.052)">
      <path id="Path_61" data-name="Path 61" d="M31.562,1.052h0a1.686,1.686,0,0,0,2.96.309,1.685,1.685,0,0,1,3.055.647,1.685,1.685,0,0,0,2.831.915,1.683,1.683,0,0,1,2.855,1.264,1.682,1.682,0,0,0,2.577,1.48,1.68,1.68,0,0,1,2.528,1.827,1.679,1.679,0,0,0,2.212,1.982,1.677,1.677,0,0,1,2.09,2.309,1.676,1.676,0,0,0,1.749,2.4,1.674,1.674,0,0,1,1.562,2.692,1.673,1.673,0,0,0,1.211,2.7,1.672,1.672,0,0,1,.965,2.956,1.67,1.67,0,0,0,.619,2.9,1.67,1.67,0,0,1,.327,3.091h0a1.669,1.669,0,0,0,0,2.96,1.671,1.671,0,0,1-.327,3.091,1.67,1.67,0,0,0-.619,2.9,1.672,1.672,0,0,1-.965,2.956,1.672,1.672,0,0,0-1.211,2.7,1.674,1.674,0,0,1-1.562,2.692,1.676,1.676,0,0,0-1.749,2.4,1.677,1.677,0,0,1-2.09,2.309,1.679,1.679,0,0,0-2.212,1.982,1.681,1.681,0,0,1-2.528,1.827,1.681,1.681,0,0,0-2.577,1.48,1.684,1.684,0,0,1-2.855,1.264,1.685,1.685,0,0,0-2.831.915,1.685,1.685,0,0,1-3.055.647,1.686,1.686,0,0,0-2.96.309,1.686,1.686,0,0,1-3.124,0,1.686,1.686,0,0,0-2.96-.309,1.685,1.685,0,0,1-3.055-.647,1.685,1.685,0,0,0-2.831-.915,1.684,1.684,0,0,1-2.855-1.264,1.681,1.681,0,0,0-2.577-1.48,1.681,1.681,0,0,1-2.528-1.827,1.679,1.679,0,0,0-2.212-1.982,1.677,1.677,0,0,1-2.09-2.309,1.676,1.676,0,0,0-1.749-2.4,1.674,1.674,0,0,1-1.562-2.692,1.672,1.672,0,0,0-1.21-2.7,1.672,1.672,0,0,1-.966-2.956,1.67,1.67,0,0,0-.619-2.9A1.671,1.671,0,0,1,.9,31.48a1.669,1.669,0,0,0,0-2.96h0a1.67,1.67,0,0,1,.327-3.091,1.67,1.67,0,0,0,.619-2.9,1.672,1.672,0,0,1,.966-2.956,1.673,1.673,0,0,0,1.21-2.7A1.674,1.674,0,0,1,5.581,14.18a1.676,1.676,0,0,0,1.749-2.4,1.677,1.677,0,0,1,2.09-2.309,1.679,1.679,0,0,0,2.212-1.982A1.68,1.68,0,0,1,14.16,5.667a1.682,1.682,0,0,0,2.577-1.48,1.683,1.683,0,0,1,2.855-1.264,1.685,1.685,0,0,0,2.831-.915,1.685,1.685,0,0,1,3.055-.647,1.686,1.686,0,0,0,2.96-.309,1.686,1.686,0,0,1,3.124,0" transform="translate(0 0)" fill="#ffc727"/>
      <path id="Path_62" data-name="Path 62" d="M56.936,30.948a26,26,0,1,1-26-25.822,25.913,25.913,0,0,1,26,25.822" transform="translate(-0.934 -0.948)" fill="url(#linear-gradient)"/>
      <g id="Group_16084" data-name="Group 16084" transform="translate(817.885 -967.492)">
        <path id="Path_16148" data-name="Path 16148" d="M-796.989,1007.3l18.9-18.93m0,18.93-18.9-18.93" transform="translate(0 0)" fill="none" stroke="#fff" stroke-linecap="round" stroke-linejoin="round" stroke-width="4"/>
      </g>
    </g>
  </g>
</svg>
