<svg xmlns="http://www.w3.org/2000/svg" width="16" height="19.297" viewBox="0 0 16 19.297">
  <path id="fec3c7b5b81472113c923a9165c632f7" d="M15.617.793a3.288,3.288,0,1,0,2.331.964A3.292,3.292,0,0,0,15.617.793Zm-.008.935a.471.471,0,0,1,.476.48V3.9l.8.8a.471.471,0,1,1-.663.663l-.941-.942a.471.471,0,0,1-.139-.33V2.207a.471.471,0,0,1,.465-.48ZM2.91,4.089h8.473A4.2,4.2,0,0,0,11.63,5.5H2.91Zm.473,2.352H12.1a4.263,4.263,0,0,0,1.636,1.435v.655l-3.544,2.217a.47.47,0,0,0-.223.4v1.883a.471.471,0,0,0,.223.4l3.544,2.216v2.091H3.383V15.643l3.543-2.216a.471.471,0,0,0,.218-.4V11.148a.47.47,0,0,0-.219-.4L3.383,8.532ZM2.91,18.675H14.2v1.415H2.91Z" transform="translate(-2.91 -0.793)" fill="#ffb74d"/>
</svg>
