<svg xmlns="http://www.w3.org/2000/svg" width="34.366" height="29.451" viewBox="0 0 34.366 29.451">
  <g id="Group_25440" data-name="Group 25440" transform="translate(8742.113 8327.446)">
    <path id="Path_31384" data-name="Path 31384" d="M36.866,48.554A12.88,12.88,0,1,1,23.887,61.382,12.924,12.924,0,0,1,36.866,48.554M31.457,67.2a1.231,1.231,0,0,0,1.771,1.134q1.617-.666,3.216-1.374a.85.85,0,0,1,.757-.009q1.616.716,3.252,1.388A1.228,1.228,0,0,0,42.2,67.091c-.105-1.2-.232-2.39-.325-3.587a.817.817,0,0,1,.175-.539c.738-.868,1.5-1.717,2.252-2.572a1.262,1.262,0,0,0-.744-2.248c-1.1-.248-2.2-.509-3.3-.74a.722.722,0,0,1-.519-.39q-.865-1.471-1.752-2.929a1.25,1.25,0,0,0-2.312.015c-.587.974-1.177,1.947-1.751,2.929a.732.732,0,0,1-.527.383c-1.1.234-2.2.487-3.3.735a1.254,1.254,0,0,0-.739,2.226c.734.838,1.464,1.68,2.213,2.5a.83.83,0,0,1,.231.718c-.128,1.194-.227,2.39-.338,3.606" transform="translate(-8766 -8376)" fill="#ffb74d"/>
    <path id="Path_31385" data-name="Path 31385" d="M187.03,138.26a15.506,15.506,0,0,0,10.43-20.81c2.713.42,6.25,4.617,7.05,8.359a11.693,11.693,0,0,1-17.48,12.45" transform="translate(-8912.512 -8437.942)" fill="#ffb74d"/>
  </g>
</svg>
