<svg xmlns="http://www.w3.org/2000/svg" xmlns:xlink="http://www.w3.org/1999/xlink" width="84.36" height="97.421" viewBox="0 0 84.36 97.421">
  <defs>
    <clipPath id="clip-path">
      <rect id="Rectangle_655" data-name="Rectangle 655" width="84.36" height="97.421" fill="none"/>
    </clipPath>
  </defs>
  <g id="Group_1447" data-name="Group 1447" clip-path="url(#clip-path)">
    <path id="Path_13277" data-name="Path 13277" d="M115.388,141.5c-1.1,0-1.674,1.648-1.674,3.278s.575,3.278,1.674,3.278,1.674-1.65,1.674-3.278-.575-3.278-1.674-3.278" transform="translate(-80.648 -100.353)" fill="#1a323d"/>
    <path id="Path_13278" data-name="Path 13278" d="M81.686,46.736c-4.97-3.811-9.28-9.776-7.125-11.432s-.83-10.928-7.125-21.532c0,0,8.45-8.773-10.769-12.426S6.793.019,1.159,26.861c-4.581,21.829,5.63,35.986,9.605,40.515A5.4,5.4,0,0,0,13.3,69.053c.827.238,1.822.955,1.623,3.037-.282,2.951-1.277,16.636-2.281,22.539A2.013,2.013,0,0,0,14.6,96.978l32.239.44a3.169,3.169,0,0,0,2.635-1.338c1.942-2.747,6.675-8.8,11.507-10.071,6.3-1.657,17.066,0,17.564-5.3s-1.657-6.793-1.657-6.793-.663-.337,1.657-5.8c1.071-2.531-.462-3.069-2.423-2.926,2.193-.918,3.87-2.435,2.09-4.861-3.126-4.264,2.769-5.968,4.508-6.366a1.459,1.459,0,0,0,.867-.585c.746-1.058,1.934-3.7-1.9-6.636M53.361,60.659a.875.875,0,0,1-.01.121v.027a.865.865,0,0,1-.071.228l-.01.02a.844.844,0,0,1-.059.1v.008a.93.93,0,0,1-.067.084l-.017.019a.924.924,0,0,1-.084.078l-.017.012a.843.843,0,0,1-.088.059l-.015.01a.893.893,0,0,1-.11.052h0L30.049,70.155a.881.881,0,0,1-1.195-.83l.057-7.785H18.789a.881.881,0,0,1-.881-.881V12.1a.881.881,0,0,1,.881-.881H52.556a.865.865,0,0,1,.2.04h.019l.078.032.024.012.073.04h.014a.975.975,0,0,1,.081.061l.013.013a.741.741,0,0,1,.057.056l.022.024.046.056.017.022a.891.891,0,0,1,.1.169v.02a.567.567,0,0,1,.024.076v.027a.574.574,0,0,0,.013.074v.027a.861.861,0,0,1,0,.1Z" transform="translate(0 -0.001)" fill="#888b8f"/>
    <path id="Path_13279" data-name="Path 13279" d="M67.626,91.424h9.259L77.162,53.8a.881.881,0,0,1,.52-.8l18.647-8.375h-28.7Z" transform="translate(-47.962 -31.646)" fill="#1a323d"/>
  </g>
</svg>
