<svg xmlns="http://www.w3.org/2000/svg" xmlns:xlink="http://www.w3.org/1999/xlink" width="40" height="46.193" viewBox="0 0 40 46.193">
  <defs>
    <clipPath id="clip-path">
      <rect id="Rectangle_655" data-name="Rectangle 655" width="40" height="46.193" fill="none"/>
    </clipPath>
  </defs>
  <g id="Group_1447" data-name="Group 1447" clip-path="url(#clip-path)">
    <path id="Path_13277" data-name="Path 13277" d="M114.508,141.5c-.521,0-.794.782-.794,1.554s.273,1.554.794,1.554.794-.782.794-1.554-.273-1.554-.794-1.554" transform="translate(-98.036 -121.99)" fill="#1a323d"/>
    <path id="Path_13278" data-name="Path 13278" d="M38.732,22.16c-2.357-1.807-4.4-4.635-3.378-5.421s-.394-5.182-3.378-10.21c0,0,4.006-4.16-5.106-5.892S3.221.009.55,12.736A21.91,21.91,0,0,0,5.1,31.946a2.56,2.56,0,0,0,1.2.8c.392.113.864.453.77,1.44-.134,1.4-.606,7.888-1.082,10.687a.954.954,0,0,0,.93,1.114l15.286.209a1.5,1.5,0,0,0,1.25-.634c.921-1.3,3.165-4.172,5.456-4.775,2.986-.786,8.092,0,8.328-2.514s-.786-3.221-.786-3.221-.314-.16.786-2.75c.508-1.2-.219-1.455-1.149-1.387,1.04-.435,1.835-1.154.991-2.3-1.482-2.022,1.313-2.83,2.138-3.018a.692.692,0,0,0,.411-.278c.354-.5.917-1.754-.9-3.146M25.3,28.761a.415.415,0,0,1,0,.058v.013a.41.41,0,0,1-.034.108l0,.01A.4.4,0,0,1,25.23,29v0a.441.441,0,0,1-.032.04l-.008.009a.439.439,0,0,1-.04.037l-.008.006a.4.4,0,0,1-.042.028l-.007,0a.424.424,0,0,1-.052.025h0L14.248,33.264a.418.418,0,0,1-.566-.394l.027-3.691h-4.8a.418.418,0,0,1-.418-.418V5.735a.418.418,0,0,1,.418-.418H24.92a.41.41,0,0,1,.094.019h.009l.037.015.011.006.034.019h.006a.462.462,0,0,1,.038.029l.006.006.027.026.01.011.022.026.008.01a.422.422,0,0,1,.046.08v.01a.269.269,0,0,1,.011.036v.013a.271.271,0,0,0,.006.035v.013a.411.411,0,0,1,0,.049Z" transform="translate(0 0)" fill="#888b8f"/>
    <path id="Path_13279" data-name="Path 13279" d="M67.626,66.816h4.39l.131-17.84a.418.418,0,0,1,.246-.378l8.842-3.971H67.626Z" transform="translate(-58.302 -38.472)" fill="#1a323d"/>
  </g>
</svg>
