<svg xmlns="http://www.w3.org/2000/svg" xmlns:xlink="http://www.w3.org/1999/xlink" width="970.384" height="234.667" viewBox="0 0 970.384 234.667">
  <defs>
    <filter id="Ellipse_97" x="721.577" y="14.126" width="220.54" height="220.541" filterUnits="userSpaceOnUse">
      <feOffset input="SourceAlpha"/>
      <feGaussianBlur stdDeviation="12.5" result="blur"/>
      <feFlood flood-color="#c35bdc"/>
      <feComposite operator="in" in2="blur"/>
    </filter>
    <filter id="Ellipse_96" x="483.662" y="0" width="220.54" height="220.541" filterUnits="userSpaceOnUse">
      <feOffset input="SourceAlpha"/>
      <feGaussianBlur stdDeviation="12.5" result="blur-2"/>
      <feFlood flood-color="#f7a53e"/>
      <feComposite operator="in" in2="blur-2"/>
    </filter>
    <filter id="Ellipse_95" x="253.419" y="13.151" width="220.54" height="220.541" filterUnits="userSpaceOnUse">
      <feOffset input="SourceAlpha"/>
      <feGaussianBlur stdDeviation="12.5" result="blur-3"/>
      <feFlood flood-color="#5885bf"/>
      <feComposite operator="in" in2="blur-3"/>
    </filter>
    <filter id="Ellipse_94" x="28.554" y="0" width="220.54" height="220.541" filterUnits="userSpaceOnUse">
      <feOffset input="SourceAlpha"/>
      <feGaussianBlur stdDeviation="12.5" result="blur-4"/>
      <feFlood flood-color="#96c32e"/>
      <feComposite operator="in" in2="blur-4"/>
    </filter>
    <linearGradient id="linear-gradient" x1="0.028" y1="0.146" x2="1.049" y2="0.912" gradientUnits="objectBoundingBox">
      <stop offset="0" stop-color="#ffd334"/>
      <stop offset="1" stop-color="#ec6a4a"/>
    </linearGradient>
    <linearGradient id="linear-gradient-2" x1="0.079" y1="0.144" x2="1.024" y2="0.944" gradientUnits="objectBoundingBox">
      <stop offset="0" stop-color="#f2e500"/>
      <stop offset="1" stop-color="#72b641"/>
    </linearGradient>
    <linearGradient id="linear-gradient-3" x1="0.023" y1="0.119" x2="1.045" y2="0.936" gradientUnits="objectBoundingBox">
      <stop offset="0" stop-color="#5fc4eb"/>
      <stop offset="1" stop-color="#514896"/>
    </linearGradient>
    <linearGradient id="linear-gradient-4" x1="0.081" y1="0.298" x2="1.051" y2="0.766" gradientUnits="objectBoundingBox">
      <stop offset="0" stop-color="#ebb1f8"/>
      <stop offset="0.405" stop-color="#ca63e3"/>
      <stop offset="1" stop-color="#750490"/>
    </linearGradient>
  </defs>
  <g id="Group_1051" data-name="Group 1051" transform="translate(-189.828 -881.919)">
    <g transform="matrix(1, 0, 0, 1, 189.83, 881.92)" filter="url(#Ellipse_97)" style="mix-blend-mode: multiply;isolation: isolate">
      <ellipse id="Ellipse_97-2" data-name="Ellipse 97" cx="72.77" cy="72.77" rx="72.77" ry="72.77" transform="translate(759.08 51.63)" fill="#fff"/>
    </g>
    <g transform="matrix(1, 0, 0, 1, 189.83, 881.92)" filter="url(#Ellipse_96)" style="mix-blend-mode: multiply;isolation: isolate">
      <ellipse id="Ellipse_96-2" data-name="Ellipse 96" cx="72.77" cy="72.77" rx="72.77" ry="72.77" transform="translate(521.16 37.5)" fill="#fff"/>
    </g>
    <g transform="matrix(1, 0, 0, 1, 189.83, 881.92)" filter="url(#Ellipse_95)" style="mix-blend-mode: multiply;isolation: isolate">
      <ellipse id="Ellipse_95-2" data-name="Ellipse 95" cx="72.77" cy="72.77" rx="72.77" ry="72.77" transform="translate(290.92 50.65)" fill="#fff"/>
    </g>
    <g transform="matrix(1, 0, 0, 1, 189.83, 881.92)" filter="url(#Ellipse_94)" style="mix-blend-mode: multiply;isolation: isolate">
      <ellipse id="Ellipse_94-2" data-name="Ellipse 94" cx="72.77" cy="72.77" rx="72.77" ry="72.77" transform="translate(66.05 37.5)" fill="#fff"/>
    </g>
    <g id="Group_1050" data-name="Group 1050" transform="translate(189.828 898.496)">
      <g id="Group_943" data-name="Group 943" transform="translate(453.55 0)">
        <g id="Group_936" data-name="Group 936" transform="translate(59.693 10)">
          <ellipse id="Ellipse_20" data-name="Ellipse 20" cx="77.279" cy="77.519" rx="77.279" ry="77.519" transform="translate(3.698 3.697)" fill="url(#linear-gradient)"/>
          <g id="Group_935" data-name="Group 935">
            <path id="Path_2851" data-name="Path 2851" d="M354.222,836.617c-44.65,0-80.977-36.432-80.977-81.215s36.327-81.217,80.977-81.217S435.2,710.617,435.2,755.4,398.872,836.617,354.222,836.617Zm0-155.015a73.8,73.8,0,1,0,73.58,73.8A73.775,73.775,0,0,0,354.222,681.6Z" transform="translate(-273.245 -674.185)" fill="#fff"/>
          </g>
        </g>
        <g id="Group_940" data-name="Group 940" transform="translate(0 0)">
          <g id="Group_937" data-name="Group 937" transform="translate(4.404)">
            <path id="Path_2852" data-name="Path 2852" d="M383.812,711.537a90.924,90.924,0,0,0-90.82,90.2H247.546v1.233h46.677v-.617a89.589,89.589,0,1,1,179.178,0v.617h44.837v-1.233H474.632A90.925,90.925,0,0,0,383.812,711.537Z" transform="translate(-247.546 -711.537)" fill="#9c9b9b"/>
          </g>
          <g id="Group_938" data-name="Group 938" transform="translate(270.23 86.343)">
            <path id="Path_2853" data-name="Path 2853" d="M375.739,709.67A4.634,4.634,0,1,1,371.1,714.3,4.634,4.634,0,0,1,375.739,709.67Z" transform="translate(-371.105 -709.67)" fill="#9c9b9b"/>
          </g>
          <g id="Group_939" data-name="Group 939" transform="translate(0 86.343)">
            <path id="Path_2854" data-name="Path 2854" d="M250.133,709.67a4.634,4.634,0,1,0,4.634,4.634A4.634,4.634,0,0,0,250.133,709.67Z" transform="translate(-245.499 -709.67)" fill="#9c9b9b"/>
          </g>
        </g>
        <g id="Group_942" data-name="Group 942" transform="translate(114.371 51.498)">
          <g id="Group_941" data-name="Group 941">
            <path id="Path_2855" data-name="Path 2855" d="M315.139,722.427h-6.91c-.665,0-1-.353-1-1.048,0-1.2-.006-2.412,0-3.617a8.356,8.356,0,0,1,3.139-6.665,6.727,6.727,0,0,1,1.506-.94c.183-.084.222-.129.069-.306a4.783,4.783,0,0,1-.054-6.351,4.021,4.021,0,0,1,4.492-1.33,4.34,4.34,0,0,1,3.1,3.647,4.665,4.665,0,0,1-1.151,4.051c-.127.146-.112.189.054.273a8.251,8.251,0,0,1,4.6,6.351,5.475,5.475,0,0,1,.082.977c0,1.312,0,2.625,0,3.937a.9.9,0,0,1-.966,1.02Zm0-1.893h5.839c.148,0,.3.024.3-.22a26.219,26.219,0,0,0-.11-3.608,6.149,6.149,0,0,0-6.811-5.32,5.819,5.819,0,0,0-3.765,2.113,6.441,6.441,0,0,0-1.521,3.789c-.069.964-.017,1.928-.049,2.889-.009.275.067.364.336.364C311.283,720.528,313.213,720.534,315.141,720.534Zm.043-16.615a2.744,2.744,0,0,0-.054,5.48,2.617,2.617,0,0,0,2.612-2.693A2.658,2.658,0,0,0,315.184,703.919Z" transform="translate(-288.792 -684.377)" fill="#fff" stroke="#fff" stroke-width="0.5"/>
            <path id="Path_2856" data-name="Path 2856" d="M323.718,714.237h-6.938c-.639,0-.975-.357-.977-1.035,0-1.293-.024-2.586.006-3.879a8.326,8.326,0,0,1,2.5-5.848,7.371,7.371,0,0,1,2.158-1.517c.185-.086.191-.135.056-.29a4.777,4.777,0,0,1-1.194-3.771,4.6,4.6,0,0,1,3.432-4.006,4.4,4.4,0,0,1,5.267,3.53,4.718,4.718,0,0,1-1.093,4.232c-.129.151-.161.2.047.31a8.235,8.235,0,0,1,4.611,6.618,15.832,15.832,0,0,1,.045,1.994c.011.886,0,1.775,0,2.661a.893.893,0,0,1-.957,1Q327.2,714.24,323.718,714.237Zm-.015-1.893h.191q2.827,0,5.65,0c.142,0,.308.041.3-.211a28.4,28.4,0,0,0-.1-3.58,6.056,6.056,0,0,0-8.612-4.793,6.25,6.25,0,0,0-3.494,5.415c-.075.934-.013,1.87-.045,2.8-.011.3.075.374.353.372C319.865,712.339,321.784,712.343,323.7,712.343Zm.028-11.127a2.656,2.656,0,0,0,2.584-2.762,2.626,2.626,0,0,0-2.616-2.722,2.746,2.746,0,0,0,.032,5.484Z" transform="translate(-278.931 -693.785)" fill="#fff" stroke="#fff" stroke-width="0.5"/>
            <path id="Path_2857" data-name="Path 2857" d="M306.586,730.6h-6.938a.9.9,0,0,1-.979-1.035c0-1.2-.022-2.412,0-3.616a8.229,8.229,0,0,1,4.608-7.6c.217-.114.241-.159.073-.359a4.691,4.691,0,0,1-.942-4.679,4.321,4.321,0,0,1,3.453-3.1,4.444,4.444,0,0,1,5.077,3.827,4.793,4.793,0,0,1-1.142,3.978c-.125.146-.168.2.045.31a8.22,8.22,0,0,1,4.608,6.618,19.266,19.266,0,0,1,.049,2.311c.011.8,0,1.6,0,2.4a.877.877,0,0,1-.9.942Q310.1,730.605,306.586,730.6Zm-.017-1.893h.413q2.714,0,5.428,0c.144,0,.308.039.3-.211a27.241,27.241,0,0,0-.1-3.58,6.046,6.046,0,0,0-8.511-4.836,6.212,6.212,0,0,0-3.6,5.488c-.071.925-.009,1.85-.043,2.775-.011.3.077.374.355.372C302.731,728.7,304.65,728.711,306.569,728.711Zm.03-11.127a2.75,2.75,0,1,0-2.61-2.741A2.7,2.7,0,0,0,306.6,717.584Z" transform="translate(-298.66 -674.955)" fill="#fff" stroke="#fff" stroke-width="0.5"/>
            <path id="Path_2858" data-name="Path 2858" d="M319.821,699.4H333.4c.411,0,.411,0,.411.448,0,.357-.015.716.007,1.071.015.286-.069.383-.353.381-1.846-.013-3.692-.006-5.54-.006-7.029,0-14.06-.015-21.088.006a6.389,6.389,0,0,0-6.306,5.811,6.215,6.215,0,0,0,1.512,4.821,5.894,5.894,0,0,0,4.3,2.24c1.818.112,3.636.028,5.454.045,1.373.013,2.743.009,4.116,0,.256,0,.359.071.344.357-.019.394-.019.792,0,1.185.013.278-.073.364-.34.362-2.513-.009-5.028,0-7.541,0h-1.783a8.312,8.312,0,0,1-7.777-6.738,8.561,8.561,0,0,1,4.981-9.4,7.433,7.433,0,0,1,2.859-.581Q313.24,699.4,319.821,699.4Z" transform="translate(-298.653 -687.323)" fill="#fff" stroke="#fff" stroke-width="0.5"/>
            <path id="Path_2859" data-name="Path 2859" d="M320.81,725.59H307.26c-.432,0-.432,0-.435-.452,0-.368.013-.736,0-1.1-.013-.267.073-.349.327-.346,1.773.008,3.546,0,5.32,0q10.585,0,21.172,0a6.124,6.124,0,0,0,5.936-4.155,6.457,6.457,0,0,0-4.722-8.666,7.81,7.81,0,0,0-1.282-.1q-3.95-.006-7.9,0c-.413,0-.413,0-.415-.445,0-.385.009-.772,0-1.157,0-.2.052-.295.262-.293,2.988.006,5.979-.049,8.967.028a6.919,6.919,0,0,1,4.574,1.994,8.453,8.453,0,0,1,2.734,6.951,8.279,8.279,0,0,1-5.977,7.5,7.63,7.63,0,0,1-1.9.241q-6.554-.013-13.108,0Z" transform="translate(-289.264 -676.425)" fill="#fff" stroke="#fff" stroke-width="0.5"/>
          </g>
        </g>
        <text id="INTERPERSONAL" transform="translate(91.693 124.32)" fill="#fff" font-size="9" font-family="Roboto-Bold, Roboto" font-weight="700" letter-spacing="0.03em"><tspan x="0" y="0">INTERPERSONAL</tspan></text>
      </g>
      <g id="Group_952" data-name="Group 952" transform="translate(0 2.401)">
        <g id="Group_945" data-name="Group 945" transform="translate(57.851 9.845)">
          <ellipse id="Ellipse_22" data-name="Ellipse 22" cx="77.279" cy="77.519" rx="77.279" ry="77.519" transform="translate(3.698 3.698)" fill="url(#linear-gradient-2)"/>
          <g id="Group_944" data-name="Group 944">
            <path id="Path_2860" data-name="Path 2860" d="M140.515,837.661c-44.65,0-80.977-36.432-80.977-81.215s36.327-81.217,80.977-81.217,80.977,36.434,80.977,81.217S185.165,837.661,140.515,837.661Zm0-155.013a73.8,73.8,0,1,0,73.58,73.8A73.772,73.772,0,0,0,140.515,682.647Z" transform="translate(-59.538 -675.229)" fill="#fff"/>
          </g>
        </g>
        <g id="Group_949" data-name="Group 949">
          <g id="Group_946" data-name="Group 946" transform="translate(4.402)">
            <path id="Path_2861" data-name="Path 2861" d="M305.387,762.09H258.71v-.615a89.589,89.589,0,0,0-179.178,0v.615H34.694v-1.233H78.3a90.822,90.822,0,0,1,181.639,0h45.446Z" transform="translate(-34.694 -670.653)" fill="#9c9b9b"/>
          </g>
          <g id="Group_947" data-name="Group 947" transform="translate(0 86.188)">
            <path id="Path_2862" data-name="Path 2862" d="M37.282,719.982a4.634,4.634,0,1,1,4.634-4.634A4.634,4.634,0,0,1,37.282,719.982Z" transform="translate(-32.648 -710.714)" fill="#9c9b9b"/>
          </g>
          <g id="Group_948" data-name="Group 948" transform="translate(270.228 86.188)">
            <path id="Path_2863" data-name="Path 2863" d="M162.887,719.982a4.634,4.634,0,1,0-4.634-4.634A4.634,4.634,0,0,0,162.887,719.982Z" transform="translate(-158.253 -710.714)" fill="#9c9b9b"/>
          </g>
        </g>
        <text id="THOUGHT" transform="translate(109.896 128.192)" fill="#fff" font-size="9" font-family="Roboto-Bold, Roboto" font-weight="700" letter-spacing="0.03em"><tspan x="0" y="0">THOUGHT</tspan></text>
        <g id="Group_951" data-name="Group 951" transform="translate(112.812 42.521)">
          <g id="Group_950" data-name="Group 950" transform="translate(0)">
            <path id="Path_2864" data-name="Path 2864" d="M104.948,755.306q-.349-2.824-.7-5.652c-.174-1.413-.353-2.825-.514-4.24-.028-.232-.09-.292-.336-.267-1.3.131-2.605.234-3.907.355-1.25.114-2.5.239-3.748.357-.977.09-1.956.174-2.93.269-.278.028-.361-.077-.383-.351-.108-1.482-.237-2.965-.355-4.447-.095-1.2-.179-2.4-.275-3.6-.116-1.463-.239-2.924-.359-4.384a9.937,9.937,0,0,1-.071-1.009c0-.3-.116-.374-.4-.374-1.807.011-3.614.006-5.422.006-.062,0-.127,0-.189,0-.267.015-.331-.084-.241-.342.364-1.037.71-2.078,1.065-3.117q2.036-5.951,4.075-11.9a2.72,2.72,0,0,0,.148-.9c0-1.31-.045-2.62.071-3.928a23.393,23.393,0,0,1,1.829-7.308,23.486,23.486,0,0,1,17.568-13.814,22.208,22.208,0,0,1,5.271-.288,23.46,23.46,0,0,1,21.125,16.93,23.369,23.369,0,0,1,.846,4.918,25.387,25.387,0,0,1-1.327,9.5c-1.607,5.105-3.132,10.239-4.692,15.359a.917.917,0,0,0-.03.433q.865,5.183,1.717,10.367c.372,2.259.729,4.52,1.112,6.777.047.277-.047.357-.284.4-.488.08-.977.166-1.465.25h-.379q-.729-4.4-1.454-8.8l-1.355-8.242a1.8,1.8,0,0,0-.034-.187,3.034,3.034,0,0,1,.086-1.732q2.562-8.307,5.082-16.628a20.176,20.176,0,0,0,.843-5.2,21.2,21.2,0,0,0-13.978-20.72,20.18,20.18,0,0,0-5.68-1.19A21.229,21.229,0,0,0,92.939,710a21.9,21.9,0,0,0-.327,4.888,8.627,8.627,0,0,1-.531,3.246c-1.306,3.7-2.554,7.431-3.823,11.149-.024.069-.045.14-.073.209-.084.2-.006.26.2.258.7-.009,1.4,0,2.093,0,.835,0,1.669.009,2.5-.006.295-.006.42.1.441.389q.155,2.195.329,4.387c.136,1.7.284,3.406.422,5.107.1,1.209.189,2.42.269,3.629.034.495.049.506.54.456,1-.1,1.994-.183,2.993-.275q1.952-.177,3.9-.361,1.749-.161,3.5-.325c.189-.017.265.067.286.247.127,1.067.254,2.136.387,3.2q.3,2.449.613,4.9.226,1.823.452,3.642c.028.226-.049.321-.284.344-.566.062-1.127.151-1.691.228Z" transform="translate(-85.084 -690.329)" fill="#fff" stroke="#fff" stroke-width="0.4"/>
            <path id="Path_2865" data-name="Path 2865" d="M115.392,706.427c.306,0,.613.006.919,0,.222-.006.3.09.3.3,0,.527-.006,1.056,0,1.583,0,.234-.095.316-.323.312-.592-.009-1.183,0-1.775-.006-.2,0-.3.052-.327.275a8.686,8.686,0,0,1-.583,2.164.257.257,0,0,0,.133.383c.525.295,1.039.6,1.566.9.179.1.245.2.125.4-.284.469-.562.942-.826,1.424-.112.207-.224.2-.4.09-.508-.305-1.028-.585-1.534-.893-.189-.116-.308-.112-.447.073A8.166,8.166,0,0,1,110.652,715c-.155.12-.185.215-.08.392.312.514.6,1.048.91,1.56.136.219.086.329-.127.443-.463.254-.921.521-1.37.794-.185.112-.293.1-.4-.1-.29-.527-.6-1.041-.9-1.568a.274.274,0,0,0-.407-.144,8.182,8.182,0,0,1-2.1.561c-.224.024-.3.142-.3.361.011.57,0,1.14.009,1.71,0,.269-.095.385-.37.379q-.745-.019-1.489,0c-.29.009-.389-.11-.381-.4.015-.559-.006-1.121.006-1.68a.31.31,0,0,0-.316-.372,8.137,8.137,0,0,1-2.074-.561.282.282,0,0,0-.426.153c-.28.51-.587,1-.863,1.515-.127.235-.245.26-.469.121-.437-.275-.889-.529-1.345-.777-.2-.112-.237-.224-.116-.424.308-.508.592-1.026.895-1.534.11-.183.118-.3-.077-.445a7.585,7.585,0,0,1-1.523-1.515c-.172-.226-.3-.219-.523-.084-.484.3-.988.57-1.474.867-.2.12-.314.105-.428-.105-.254-.463-.514-.923-.792-1.37-.133-.219-.082-.331.127-.448.508-.282,1-.585,1.512-.865.189-.1.256-.2.164-.422a8.348,8.348,0,0,1-.583-2.2c-.026-.213-.148-.222-.305-.219-.592,0-1.183-.006-1.775,0-.243,0-.344-.078-.338-.329q.019-.759,0-1.521c-.009-.256.077-.359.344-.353.592.013,1.183,0,1.775.006.191,0,.275-.052.3-.26A8.587,8.587,0,0,1,95.928,704c.077-.181.054-.282-.125-.379-.519-.286-1.022-.6-1.54-.88-.226-.122-.278-.243-.136-.471.269-.43.527-.867.762-1.317.133-.256.265-.265.493-.123.475.295.972.557,1.45.85.209.127.342.125.5-.086a7.7,7.7,0,0,1,1.523-1.515.284.284,0,0,0,.088-.447c-.29-.478-.564-.966-.846-1.452-.2-.353-.2-.353.163-.566.43-.249.865-.49,1.287-.749.191-.118.3-.084.4.108.293.525.6,1.041.895,1.566a.273.273,0,0,0,.407.146,8.169,8.169,0,0,1,2.136-.57c.2-.026.262-.133.26-.32,0-.581.009-1.162,0-1.743,0-.256.08-.361.349-.353.516.017,1.035.015,1.551,0,.252-.007.34.093.338.333-.009.559.006,1.121-.006,1.68-.009.278.09.379.374.415a7.557,7.557,0,0,1,1.981.538.31.31,0,0,0,.475-.166c.278-.523.6-1.024.88-1.54.1-.185.2-.209.374-.1.471.282.949.557,1.429.822.2.11.211.222.1.406-.31.517-.6,1.046-.91,1.56a.268.268,0,0,0,.082.42,8.411,8.411,0,0,1,1.566,1.562.276.276,0,0,0,.428.075c.516-.31,1.046-.6,1.562-.908.191-.116.29-.082.4.11.26.471.531.936.809,1.4.114.185.086.3-.105.4-.525.292-1.039.607-1.564.9a.27.27,0,0,0-.146.4,8.667,8.667,0,0,1,.585,2.164c.03.215.129.256.312.25.3-.009.594,0,.889,0Zm-10.639-6.2a7.309,7.309,0,1,0,7.332,7.171A7.33,7.33,0,0,0,104.753,700.227Z" transform="translate(-76.06 -684.142)" fill="#fff" stroke="#fff" stroke-width="0.4"/>
            <path id="Path_2866" data-name="Path 2866" d="M107.1,701.159c.254,0,.508.009.759,0,.224-.011.325.06.325.3a20.384,20.384,0,0,1-.138,2.08c-.015.155-.088.224-.252.2-.574-.077-1.149-.151-1.723-.228-.168-.022-.226-.131-.209-.29.062-.62.118-1.239.127-1.861,0-.174.114-.2.256-.2Z" transform="translate(-61.161 -677.863)" fill="#fff" stroke="#fff" stroke-width="0.4"/>
            <path id="Path_2867" data-name="Path 2867" d="M105.9,708.191a.226.226,0,0,1-.108.2,19.261,19.261,0,0,1-1.644,1.34c-.131.095-.222.086-.314-.047-.333-.475-.669-.951-1.007-1.422-.088-.125-.1-.224.037-.321a15.234,15.234,0,0,0,1.444-1.183.169.169,0,0,1,.273,0q.629.671,1.259,1.338A.5.5,0,0,1,105.9,708.191Z" transform="translate(-64.725 -671.489)" fill="#fff" stroke="#fff" stroke-width="0.4"/>
            <path id="Path_2868" data-name="Path 2868" d="M96.6,695.474c0,.123-.084.155-.157.194a14.448,14.448,0,0,0-1.508.925c-.172.12-.278.08-.387-.082-.318-.458-.639-.914-.968-1.366-.105-.144-.093-.235.054-.336q.862-.587,1.779-1.089c.168-.092.262-.062.349.108.252.5.514.992.77,1.487A1.487,1.487,0,0,1,96.6,695.474Z" transform="translate(-75.377 -686.483)" fill="#fff" stroke="#fff" stroke-width="0.4"/>
            <path id="Path_2869" data-name="Path 2869" d="M100.508,692.873a15.3,15.3,0,0,1,2.134.589c.129.045.14.142.1.256-.2.559-.394,1.115-.583,1.676-.056.166-.159.174-.3.125a15.747,15.747,0,0,0-1.736-.484c-.176-.041-.222-.121-.185-.29.116-.557.224-1.117.338-1.674C100.3,692.95,100.347,692.841,100.508,692.873Z" transform="translate(-67.992 -687.406)" fill="#fff" stroke="#fff" stroke-width="0.4"/>
            <path id="Path_2870" data-name="Path 2870" d="M107.312,706.286c-.022.039-.049.095-.084.148a19.539,19.539,0,0,1-1.166,1.65c-.116.151-.213.17-.361.045q-.655-.545-1.323-1.076c-.138-.11-.153-.2-.043-.34a14.506,14.506,0,0,0,1.039-1.47c.077-.125.164-.187.31-.1.51.314,1.024.626,1.534.942C107.28,706.129,107.345,706.174,107.312,706.286Z" transform="translate(-63.002 -673.315)" fill="#fff" stroke="#fff" stroke-width="0.4"/>
            <path id="Path_2871" data-name="Path 2871" d="M95.769,708.124a1.689,1.689,0,0,1-.086.148c-.321.456-.648.908-.962,1.37-.116.17-.217.185-.383.064-.542-.4-1.063-.828-1.568-1.276-.151-.131-.168-.237-.024-.389q.578-.6,1.136-1.231a.221.221,0,0,1,.37-.015,14.691,14.691,0,0,0,1.4,1.136A.208.208,0,0,1,95.769,708.124Z" transform="translate(-76.376 -671.474)" fill="#fff" stroke="#fff" stroke-width="0.4"/>
            <path id="Path_2872" data-name="Path 2872" d="M106.659,696.722a.206.206,0,0,1-.11.2c-.441.364-.884.723-1.319,1.091-.164.138-.269.1-.394-.052a11.012,11.012,0,0,0-1.149-1.222c-.168-.146-.191-.267-.022-.441.374-.387.736-.788,1.1-1.19.129-.144.239-.174.394-.026q.742.716,1.411,1.5A1.387,1.387,0,0,1,106.659,696.722Z" transform="translate(-63.822 -684.97)" fill="#fff" stroke="#fff" stroke-width="0.4"/>
            <path id="Path_2873" data-name="Path 2873" d="M108.091,703.954a17.236,17.236,0,0,1-.744,2.08c-.058.129-.148.123-.26.073q-.81-.355-1.624-.7c-.159-.067-.166-.17-.108-.3a16,16,0,0,0,.594-1.667c.058-.2.166-.241.355-.185.527.155,1.056.3,1.583.448C108.013,703.731,108.138,703.774,108.091,703.954Z" transform="translate(-61.784 -675.478)" fill="#fff" stroke="#fff" stroke-width="0.4"/>
            <path id="Path_2874" data-name="Path 2874" d="M99.046,694.915c-.275,0-.549,0-.824,0-.174,0-.275-.045-.288-.243-.032-.557-.075-1.115-.118-1.672-.015-.207.084-.271.28-.284a12.83,12.83,0,0,1,1.992,0c.189.017.262.069.25.265-.037.549-.058,1.1-.084,1.644-.009.209-.105.3-.321.292C99.638,694.906,99.341,694.915,99.046,694.915Z" transform="translate(-70.426 -687.623)" fill="#fff" stroke="#fff" stroke-width="0.4"/>
            <path id="Path_2875" data-name="Path 2875" d="M91.016,701.195c.265,0,.529,0,.792,0,.211,0,.312.073.308.3a11.454,11.454,0,0,0,.118,1.672c.03.211-.024.329-.271.357-.534.06-1.065.148-1.6.23-.191.028-.295-.026-.318-.239-.069-.641-.125-1.28-.136-1.926,0-.312.112-.415.407-.394C90.551,701.208,90.783,701.195,91.016,701.195Z" transform="translate(-79.525 -677.826)" fill="#fff" stroke="#fff" stroke-width="0.4"/>
            <path id="Path_2876" data-name="Path 2876" d="M90.253,703.971c-.03-.166.065-.217.17-.247.559-.157,1.119-.31,1.676-.469.159-.045.23,0,.275.157a15.327,15.327,0,0,0,.611,1.7c.069.157.041.25-.125.321q-.787.332-1.566.684c-.179.082-.267.032-.338-.14a16.764,16.764,0,0,1-.678-1.908Z" transform="translate(-79.139 -675.464)" fill="#fff" stroke="#fff" stroke-width="0.4"/>
            <path id="Path_2877" data-name="Path 2877" d="M98.4,694.793c.022.2-.1.234-.211.26a14.6,14.6,0,0,0-1.7.48.212.212,0,0,1-.316-.146c-.191-.536-.383-1.074-.579-1.6-.06-.161-.032-.258.138-.316a18.134,18.134,0,0,1,2.035-.577c.112-.026.224-.013.254.118C98.15,693.614,98.277,694.223,98.4,694.793Z" transform="translate(-73.021 -687.394)" fill="#fff" stroke="#fff" stroke-width="0.4"/>
            <path id="Path_2878" data-name="Path 2878" d="M104.949,694.981c-.026.043-.054.1-.09.151-.318.458-.643.912-.957,1.375-.108.159-.2.176-.359.069a13.908,13.908,0,0,0-1.515-.917c-.166-.088-.2-.185-.112-.353.26-.5.518-.99.766-1.491.093-.187.2-.209.374-.11.589.327,1.17.671,1.728,1.05C104.858,694.806,104.955,694.847,104.949,694.981Z" transform="translate(-65.759 -686.508)" fill="#fff" stroke="#fff" stroke-width="0.4"/>
            <path id="Path_2879" data-name="Path 2879" d="M93.565,697.967c-.019.041-.047.1-.08.151a14.48,14.48,0,0,0-.781,1.521c-.09.209-.2.232-.392.146q-.749-.339-1.51-.656c-.176-.073-.215-.161-.136-.338a18.8,18.8,0,0,1,.947-1.826c.08-.138.166-.211.329-.112.5.312,1.009.615,1.512.923C93.52,697.816,93.584,697.857,93.565,697.967Z" transform="translate(-78.701 -682.87)" fill="#fff" stroke="#fff" stroke-width="0.4"/>
            <path id="Path_2880" data-name="Path 2880" d="M92.914,705.119c.11-.015.155.063.2.133a17.082,17.082,0,0,0,1.043,1.465.21.21,0,0,1-.034.346c-.452.362-.9.729-1.347,1.1-.125.105-.213.095-.314-.034A21,21,0,0,1,91.24,706.4c-.069-.108-.114-.209.028-.295l1.564-.955A.862.862,0,0,1,92.914,705.119Z" transform="translate(-78.071 -673.301)" fill="#fff" stroke="#fff" stroke-width="0.4"/>
            <path id="Path_2881" data-name="Path 2881" d="M106.286,701.621c-.14.043-.224-.019-.252-.217a12.4,12.4,0,0,0-.359-1.7c-.062-.211.006-.306.215-.359.521-.135,1.037-.284,1.553-.441.211-.065.3-.009.357.207.168.643.3,1.293.417,1.949.039.219-.056.314-.258.34C107.417,701.47,106.873,701.544,106.286,701.621Z" transform="translate(-61.401 -680.487)" fill="#fff" stroke="#fff" stroke-width="0.4"/>
            <path id="Path_2882" data-name="Path 2882" d="M95.554,707.875c.065.026.133.052.2.084a12.527,12.527,0,0,0,1.515.648c.235.082.282.2.194.426-.191.493-.364.992-.531,1.493-.069.2-.166.256-.374.176-.633-.243-1.252-.512-1.859-.811-.17-.084-.213-.174-.12-.344.262-.495.516-.994.775-1.491C95.4,707.974,95.429,707.879,95.554,707.875Z" transform="translate(-74.208 -670.126)" fill="#fff" stroke="#fff" stroke-width="0.4"/>
            <path id="Path_2883" data-name="Path 2883" d="M90,701.25a16.034,16.034,0,0,1,.435-2.151.2.2,0,0,1,.284-.159q.836.236,1.674.463c.179.047.2.146.157.308a13.919,13.919,0,0,0-.349,1.7c-.024.183-.108.286-.316.254-.551-.084-1.1-.164-1.654-.232C90.057,701.409,89.964,701.357,90,701.25Z" transform="translate(-79.434 -680.432)" fill="#fff" stroke="#fff" stroke-width="0.4"/>
            <path id="Path_2884" data-name="Path 2884" d="M99.326,709.385c-.026.441-.054.884-.075,1.325-.011.228-.12.318-.346.293-.658-.08-1.317-.148-1.969-.28-.191-.041-.267-.125-.219-.329q.187-.816.34-1.639c.034-.187.127-.226.286-.194.6.125,1.207.178,1.814.252.146.017.2.077.185.224-.013.116-.013.232-.019.349Z" transform="translate(-71.706 -669.347)" fill="#fff" stroke="#fff" stroke-width="0.4"/>
            <path id="Path_2885" data-name="Path 2885" d="M98.936,709.136c-.045-.2.062-.325.368-.355.544-.054,1.086-.14,1.629-.224.187-.03.271.032.308.213.11.549.226,1.095.342,1.641.037.181-.021.271-.211.308-.663.125-1.334.2-2,.282-.194.022-.29-.045-.3-.258C99.035,710.24,98.986,709.735,98.936,709.136Z" transform="translate(-69.146 -669.348)" fill="#fff" stroke="#fff" stroke-width="0.4"/>
            <path id="Path_2886" data-name="Path 2886" d="M102.876,707.877c.125-.026.161.058.2.131.269.514.534,1.028.8,1.54.084.159.037.252-.114.327a17.582,17.582,0,0,1-1.88.822c-.161.06-.271.056-.338-.14-.183-.538-.376-1.073-.572-1.607a.211.211,0,0,1,.144-.316c.566-.2,1.108-.463,1.652-.714C102.812,707.9,102.851,707.888,102.876,707.877Z" transform="translate(-66.815 -670.128)" fill="#fff" stroke="#fff" stroke-width="0.4"/>
            <path id="Path_2887" data-name="Path 2887" d="M106.551,696.765c.131-.019.168.067.211.136a19.979,19.979,0,0,1,.985,1.878c.069.151.024.232-.123.3q-.784.336-1.564.688c-.168.075-.273.047-.348-.129a13.138,13.138,0,0,0-.818-1.573.211.211,0,0,1,.08-.34c.488-.293.972-.594,1.459-.893C106.476,696.8,106.524,696.781,106.551,696.765Z" transform="translate(-62.336 -682.921)" fill="#fff" stroke="#fff" stroke-width="0.4"/>
            <path id="Path_2888" data-name="Path 2888" d="M94.948,696.5a.245.245,0,0,1-.108.2,15.817,15.817,0,0,0-1.222,1.328.207.207,0,0,1-.344.028q-.662-.542-1.33-1.076a.2.2,0,0,1-.037-.342,17.919,17.919,0,0,1,1.448-1.549c.086-.084.174-.12.273-.017.42.445.841.889,1.261,1.336A.417.417,0,0,1,94.948,696.5Z" transform="translate(-77.315 -684.938)" fill="#fff" stroke="#fff" stroke-width="0.4"/>
            <path id="Path_2889" data-name="Path 2889" d="M100.667,707.66a4.177,4.177,0,0,1-4.2-4.18,4.221,4.221,0,1,1,8.442-.03A4.189,4.189,0,0,1,100.667,707.66Zm2.014-4.2a1.986,1.986,0,0,0-2-2.014,2.012,2.012,0,1,0,0,4.023A1.976,1.976,0,0,0,102.68,703.456Z" transform="translate(-71.98 -680.072)" fill="#fff" stroke="#fff" stroke-width="0.4"/>
          </g>
        </g>
      </g>
      <g id="Group_961" data-name="Group 961" transform="translate(225.851 27.717)">
        <g id="Group_954" data-name="Group 954" transform="translate(59.691 0)">
          <ellipse id="Ellipse_24" data-name="Ellipse 24" cx="77.279" cy="77.519" rx="77.279" ry="77.519" transform="translate(3.698 3.698)" fill="url(#linear-gradient-3)"/>
          <g id="Group_953" data-name="Group 953">
            <path id="Path_2890" data-name="Path 2890" d="M247.358,844.852c-44.65,0-80.977-36.432-80.977-81.215s36.327-81.217,80.977-81.217,80.975,36.434,80.975,81.217S292.008,844.852,247.358,844.852Zm0-155.016a73.8,73.8,0,1,0,73.58,73.8A73.774,73.774,0,0,0,247.358,689.836Z" transform="translate(-166.381 -682.42)" fill="#fff"/>
          </g>
        </g>
        <g id="Group_958" data-name="Group 958" transform="translate(0 75.216)">
          <g id="Group_955" data-name="Group 955" transform="translate(4.402 4.017)">
            <path id="Path_2891" data-name="Path 2891" d="M276.948,811.209a90.923,90.923,0,0,1-90.82-90.2H140.682v-1.233h46.677v.617a89.589,89.589,0,1,0,179.178,0v-.617h44.838V721H367.768A90.923,90.923,0,0,1,276.948,811.209Z" transform="translate(-140.682 -719.772)" fill="#9c9b9b"/>
          </g>
          <g id="Group_956" data-name="Group 956" transform="translate(270.228)">
            <path id="Path_2892" data-name="Path 2892" d="M268.875,717.9a4.634,4.634,0,1,1-4.634,4.634A4.633,4.633,0,0,1,268.875,717.9Z" transform="translate(-264.241 -717.905)" fill="#9c9b9b"/>
          </g>
          <g id="Group_957" data-name="Group 957">
            <path id="Path_2893" data-name="Path 2893" d="M143.268,717.9a4.634,4.634,0,1,0,4.634,4.634A4.633,4.633,0,0,0,143.268,717.9Z" transform="translate(-138.636 -717.905)" fill="#9c9b9b"/>
          </g>
        </g>
        <text id="CORE_PERSONAL" data-name="CORE/PERSONAL" transform="translate(91.087 114.299)" fill="#fff" font-size="9" font-family="Roboto-Bold, Roboto" font-weight="700" letter-spacing="0.03em"><tspan x="0" y="0">CORE/PERSONAL</tspan></text>
        <g id="Group_960" data-name="Group 960" transform="translate(112.184 40.911)">
          <g id="Group_959" data-name="Group 959">
            <path id="Path_2894" data-name="Path 2894" d="M214.76,711.237a5.689,5.689,0,1,1,8.619-.032c.073.073.168.036.25.036.607,0,1.216.007,1.822,0a1,1,0,0,0,1.112-1.112q.006-3.589,0-7.177c0-.8.327-1.125,1.123-1.125q1.778,0,3.559,0a.925.925,0,0,1,1.007,1c0,2.519.006,5.041,0,7.56a6.408,6.408,0,0,1-2.356,4.991c-.191.166-.2.243-.028.424a17.412,17.412,0,0,1,2.3,3.406,12.794,12.794,0,0,0,1.981,2.872,4.281,4.281,0,0,0,2.56,1.323,2.89,2.89,0,0,0,1.013-.131.969.969,0,0,1,1.1.422.981.981,0,0,1-.049,1.106.727.727,0,0,1-.31.262,4.9,4.9,0,0,0-2.044,1.764c-.691.891-1.332,1.822-2.035,2.7a7.083,7.083,0,0,1-4.617,2.732,9.184,9.184,0,0,1-2.605-.013c-.241-.034-.325-.009-.263.256.155.678.293,1.358.435,2.04.032.151.1.237.273.234a.906.906,0,0,1,.725.389q3.069,3.74,6.136,7.483,4.244,5.173,8.487,10.348c.869,1.061,1.743,2.119,2.6,3.188a.577.577,0,0,0,.525.245c.323-.017.648,0,.97-.007.206-.009.275.08.271.278-.009.441-.015.882,0,1.323.013.267-.095.331-.342.329-1.549-.009-3.1,0-4.649,0H191.32c-.589,0-.527.054-.531-.542,0-.355.011-.708,0-1.061-.009-.237.067-.34.316-.325.293.017.589-.013.882.009a.647.647,0,0,0,.6-.28q2.556-3.137,5.122-6.261,6.025-7.345,12.05-14.69a.975.975,0,0,1,.8-.43c.217.007.211-.17.241-.305.191-.88.376-1.76.566-2.642q.994-4.65,1.988-9.3a1.856,1.856,0,0,0,.039-.379c0-1.618-.006-3.236.006-4.854,0-.282-.075-.381-.361-.364a6.65,6.65,0,0,1-7.125-5.693,8.7,8.7,0,0,1-.047-1.379q-.01-3.485,0-6.973a.933.933,0,0,1,1.043-1.054c1.207,0,2.414,0,3.619,0a.931.931,0,0,1,1.026,1.018q0,3.53,0,7.061c0,.127,0,.256.006.381a.927.927,0,0,0,.91.94C213.208,711.263,213.961,711.237,214.76,711.237ZM243.2,756.419c-.1-.131-.163-.217-.23-.3q-4.9-5.97-9.785-11.945c-.17-.207-.258-.213-.445-.024-1.136,1.153-2.285,2.293-3.429,3.436a1.03,1.03,0,0,1-1.68,0q-1.8-1.8-3.6-3.6c-.267-.267-.269-.267-.544.009l-3.578,3.578a1.036,1.036,0,0,1-1.7,0c-1.207-1.2-2.416-2.407-3.614-3.623-.2-.2-.305-.181-.493.007-1.185,1.2-2.382,2.39-3.574,3.582a1.054,1.054,0,0,1-1.764,0q-1.707-1.7-3.41-3.412c-.136-.136-.234-.224-.385-.011-.17.239-.368.458-.555.686q-4.373,5.331-8.743,10.667c-.245.3-.486.6-.762.94Zm-24.122-43.252q-3.324,0-6.648,0a2.831,2.831,0,0,1-2.646-1.848,3.891,3.891,0,0,1-.164-1.42c0-1.943,0-3.883,0-5.824,0-.234-.058-.338-.312-.327-.43.019-.863.011-1.3,0-.176,0-.243.064-.241.241.032,2.246-.071,4.49.054,6.734a4.624,4.624,0,0,0,3.683,4.165,15.527,15.527,0,0,0,2.756.116.942.942,0,0,1,1.041,1.033q0,3.221,0,6.441a2.017,2.017,0,0,1-.037.439c-.432,2.009-.858,4.019-1.291,6.031q-.591,2.756-1.19,5.51c-.052.237-.017.331.256.325.676-.019,1.353-.019,2.029,0,.284.009.417-.075.482-.364.2-.888.435-1.771.654-2.653q.92-3.679,1.837-7.354c.166-.658.478-.938,1.028-.934.521,0,.822.295.985.949.067.264.131.531.2.8q1.146,4.589,2.287,9.178a.413.413,0,0,0,.5.379c.676-.022,1.353-.019,2.029,0,.265.006.293-.093.245-.308q-1.046-4.838-2.08-9.675a11.6,11.6,0,0,1-.426-2.158c-.039-2.244-.017-4.49-.011-6.736a.9.9,0,0,1,.9-.9c.381-.009.764,0,1.147,0a7.673,7.673,0,0,0,1.87-.148,4.645,4.645,0,0,0,3.6-4.585c.049-2.087.011-4.178.017-6.265,0-.217-.093-.267-.286-.262-.4.011-.8.022-1.2,0-.29-.017-.361.09-.361.368.011,2.089.009,4.178,0,6.265a2.8,2.8,0,0,1-2.793,2.786Q222.385,713.17,219.075,713.167Zm12.59,29.223a.756.756,0,0,0-.191-.284c-1.284-1.57-2.592-3.122-3.847-4.718a1.639,1.639,0,0,0-1.465-.7c-4.922.032-9.845.017-14.765.017a.547.547,0,0,0-.495.185q-2.146,2.633-4.307,5.252c-.172.206-.151.327.032.506.925.908,1.842,1.82,2.745,2.747.211.215.325.211.534,0,1.2-1.222,2.423-2.429,3.634-3.645a1.131,1.131,0,0,1,.828-.381,1.088,1.088,0,0,1,.792.39c1.213,1.213,2.431,2.422,3.636,3.644.2.2.308.211.512.006,1.2-1.224,2.422-2.431,3.634-3.647a1.134,1.134,0,0,1,.88-.394,1.115,1.115,0,0,1,.759.4q1.843,1.843,3.679,3.683c.146.148.245.177.4.015.951-.964,1.91-1.917,2.868-2.874A.347.347,0,0,0,231.665,742.39Zm-3.094-12.02a5.026,5.026,0,0,0,4.049-1.784c.929-1.052,1.646-2.27,2.549-3.343.086-.1.071-.164-.058-.213a6.61,6.61,0,0,1-.62-.275,8.046,8.046,0,0,1-3.029-2.887c-.693-1.048-1.25-2.177-1.915-3.24a8.825,8.825,0,0,0-1.53-1.893c-.1-.086-.179-.163-.336-.112a7.111,7.111,0,0,1-2.552.314c-.407-.013-.409,0-.409.394,0,1.618,0,3.236,0,4.854a1.874,1.874,0,0,0,.047.409q.452,2.095.9,4.193c.219,1.024.432,2.048.658,3.072.03.14.017.312.247.34A13.9,13.9,0,0,0,228.572,730.37Zm-9.537-26.611a3.726,3.726,0,0,0-3.709,3.75,3.726,3.726,0,0,0,7.452-.006A3.722,3.722,0,0,0,219.034,703.759Zm.037,24.81a1.471,1.471,0,0,0-.071.155c-.488,1.945-.972,3.89-1.465,5.833-.056.215.049.226.211.224.841,0,1.682,0,2.526,0,.357,0,.357,0,.273-.336q-.381-1.523-.764-3.046C219.551,730.479,219.321,729.561,219.071,728.569Z" transform="translate(-190.777 -701.81)" fill="#fff" stroke="#fff" stroke-width="0.1"/>
            <path id="Path_2895" data-name="Path 2895" d="M199.768,720.842H192a.981.981,0,0,1-1.1-.874,4.728,4.728,0,0,1,4.064-5.742,4.219,4.219,0,0,1,1.973.2.352.352,0,0,0,.435-.1,6.518,6.518,0,0,1,5.357-1.986A6.65,6.65,0,0,1,208.666,718a7.5,7.5,0,0,1,0,1.9.98.98,0,0,1-1.071.938Zm-.026-1.923h6.03c.265,0,.529,0,.794,0,.14,0,.211-.028.2-.2a4.658,4.658,0,0,0-5.417-4.387,4.586,4.586,0,0,0-3.021,1.872.983.983,0,0,1-1.435.325,2.9,2.9,0,0,0-1.753-.349,2.816,2.816,0,0,0-2.382,2.41c-.022.26.032.334.3.331C195.289,718.912,197.516,718.916,199.742,718.919Z" transform="translate(-190.78 -689.714)" fill="#fff" stroke="#fff" stroke-width="0.1"/>
            <path id="Path_2896" data-name="Path 2896" d="M224.136,721.573a.924.924,0,0,1-.917.947,4.738,4.738,0,0,0-4.733,4.714.961.961,0,0,1-1.921,0,4.745,4.745,0,0,0-4.731-4.72.961.961,0,0,1,0-1.919,4.767,4.767,0,0,0,3.459-1.513,4.421,4.421,0,0,0,1.224-2.766c.013-.177.034-.353.052-.527a.933.933,0,0,1,.99-.846.922.922,0,0,1,.929.871,4.855,4.855,0,0,0,1.043,3,4.517,4.517,0,0,0,3.281,1.732c.174.013.351.03.525.052A.938.938,0,0,1,224.136,721.573Zm-6.583-2.132c-.1,0-.12.078-.157.131a6.654,6.654,0,0,1-1.859,1.852c-.151.1-.159.161,0,.265a6.461,6.461,0,0,1,1.857,1.854c.1.151.163.157.267,0a6.475,6.475,0,0,1,1.855-1.852c.155-.1.153-.168,0-.269a6.481,6.481,0,0,1-1.857-1.852C217.624,719.523,217.585,719.48,217.553,719.441Z" transform="translate(-167.596 -686.684)" fill="#fff" stroke="#fff" stroke-width="0.1"/>
            <path id="Path_2897" data-name="Path 2897" d="M197.4,701.82a.916.916,0,0,1,.955.906,4.723,4.723,0,0,0,2.427,4.137,5.029,5.029,0,0,0,2.308.6.963.963,0,0,1-.009,1.923,4.738,4.738,0,0,0-4.725,4.692.962.962,0,1,1-1.923-.013,4.739,4.739,0,0,0-2.055-3.845,4.925,4.925,0,0,0-2.683-.835.923.923,0,0,1-.912-.953.913.913,0,0,1,.895-.968,4.78,4.78,0,0,0,3.466-1.5,4.438,4.438,0,0,0,1.239-2.79c.013-.2.03-.392.058-.585A.93.93,0,0,1,197.4,701.82Zm2.113,6.585a1.3,1.3,0,0,0-.123-.1,6.609,6.609,0,0,1-1.874-1.88c-.1-.153-.161-.123-.247.009a6.582,6.582,0,0,1-1.878,1.876c-.153.1-.123.159.009.247a6.543,6.543,0,0,1,1.859,1.852c.09.136.151.192.265.015a6.523,6.523,0,0,1,1.876-1.876C199.448,708.517,199.508,708.494,199.514,708.405Z" transform="translate(-190.774 -701.799)" fill="#fff" stroke="#fff" stroke-width="0.1"/>
            <path id="Path_2898" data-name="Path 2898" d="M203.649,726.5c-.039.239.136.618-.077.816-.194.183-.562.049-.852.06-.254.009-.51,0-.764,0-.159,0-.232-.06-.23-.224q.006-.736,0-1.467c0-.159.062-.232.226-.232.488,0,.979.007,1.467,0,.185,0,.234.091.23.254C203.645,725.948,203.649,726.193,203.649,726.5Z" transform="translate(-178.177 -674.592)" fill="#fff" stroke="#fff" stroke-width="0.1"/>
            <path id="Path_2899" data-name="Path 2899" d="M203.478,726.383c0-.235,0-.471,0-.706,0-.161.065-.228.226-.228.491,0,.979,0,1.469,0,.161,0,.228.067.226.228q0,.736,0,1.467c0,.161-.065.23-.226.228-.491,0-.979,0-1.469,0-.159,0-.23-.065-.228-.226C203.48,726.89,203.478,726.636,203.478,726.383Z" transform="translate(-176.162 -674.592)" fill="#fff" stroke="#fff" stroke-width="0.1"/>
            <path id="Path_2900" data-name="Path 2900" d="M207.148,726.441c0,.234,0,.469,0,.706,0,.159-.067.228-.228.228-.488,0-.979,0-1.467,0-.161,0-.23-.065-.228-.226,0-.49,0-.979,0-1.469,0-.159.067-.228.226-.228.491,0,.979,0,1.469,0,.161,0,.23.067.228.228C207.144,725.931,207.148,726.187,207.148,726.441Z" transform="translate(-174.146 -674.592)" fill="#fff" stroke="#fff" stroke-width="0.1"/>
          </g>
        </g>
      </g>
      <g id="Group_970" data-name="Group 970" transform="translate(690.888 27.854)">
        <g id="Group_963" data-name="Group 963" transform="translate(57.851)">
          <ellipse id="Ellipse_26" data-name="Ellipse 26" cx="77.279" cy="77.519" rx="77.279" ry="77.519" transform="translate(3.698 3.697)" fill="url(#linear-gradient-4)"/>
          <g id="Group_962" data-name="Group 962">
            <path id="Path_2901" data-name="Path 2901" d="M464.728,844.916c-44.65,0-80.977-36.432-80.977-81.217s36.327-81.215,80.977-81.215S545.7,718.918,545.7,763.7,509.378,844.916,464.728,844.916Zm0-155.015a73.8,73.8,0,1,0,73.58,73.8A73.773,73.773,0,0,0,464.728,689.9Z" transform="translate(-383.751 -682.484)" fill="#fff"/>
          </g>
        </g>
        <g id="Group_967" data-name="Group 967" transform="translate(0 76.692)">
          <g id="Group_964" data-name="Group 964" transform="translate(4.402 4.017)">
            <path id="Path_2902" data-name="Path 2902" d="M629.6,677.908H582.923v.617a89.589,89.589,0,0,1-179.178,0v-.617H358.907v1.233h43.607a90.821,90.821,0,0,0,181.637,0H629.6Z" transform="translate(-358.907 -677.908)" fill="#9c9b9b"/>
          </g>
          <g id="Group_965" data-name="Group 965">
            <path id="Path_2903" data-name="Path 2903" d="M361.5,717.969a4.633,4.633,0,1,0,4.634,4.632A4.633,4.633,0,0,0,361.5,717.969Z" transform="translate(-356.861 -717.969)" fill="#9c9b9b"/>
          </g>
          <g id="Group_966" data-name="Group 966" transform="translate(270.23)">
            <path id="Path_2904" data-name="Path 2904" d="M487.1,717.969a4.633,4.633,0,1,1-4.632,4.632A4.633,4.633,0,0,1,487.1,717.969Z" transform="translate(-482.467 -717.969)" fill="#9c9b9b"/>
          </g>
        </g>
        <text id="EMOTION" transform="translate(111.344 118.318)" fill="#fff" font-size="9" font-family="Roboto-Bold, Roboto" font-weight="700" letter-spacing="0.03em"><tspan x="0" y="0">EMOTION</tspan></text>
        <g id="Group_969" data-name="Group 969" transform="translate(106.727 40.638)">
          <g id="Group_968" data-name="Group 968">
            <path id="Path_2905" data-name="Path 2905" d="M435.713,701.289h5.607c.966.136,1.943.224,2.9.413A31.678,31.678,0,0,1,466.732,718a32.088,32.088,0,0,1-6.293,38.816,31.42,31.42,0,0,1-19.722,8.584,30.531,30.531,0,0,1-14.475-2.371,31.844,31.844,0,0,1-18.629-20.875,34.864,34.864,0,0,1-1.145-6.011v-5.609c.026-.129.062-.26.075-.392a30.44,30.44,0,0,1,3.49-11.676,31.839,31.839,0,0,1,19.8-16.067A36.012,36.012,0,0,1,435.713,701.289Zm2.907,59.755A27.7,27.7,0,1,0,410.95,735.7,27.719,27.719,0,0,0,438.62,761.044Z" transform="translate(-406.469 -701.289)" fill="#fff" stroke="#fff" stroke-width="0.1"/>
            <path id="Path_2906" data-name="Path 2906" d="M430.142,731.362a19.11,19.11,0,0,1-16.082-8.694c-.506-.734-.484-.751.26-1.2.8-.482,1.618-.936,2.392-1.457.506-.34.768-.256,1.108.249a14.547,14.547,0,0,0,9.292,6.329,14.792,14.792,0,0,0,15.363-6.233c.491-.732.491-.732,1.233-.286.839.506,1.665,1.028,2.519,1.508.443.247.465.488.194.9a19.268,19.268,0,0,1-12.751,8.584A15.573,15.573,0,0,1,430.142,731.362Z" transform="translate(-398.125 -680.014)" fill="#fff" stroke="#fff" stroke-width="0.1"/>
            <path id="Path_2907" data-name="Path 2907" d="M427.349,719.878c-.469,0-.938-.034-1.4.009-.581.056-.764-.219-.848-.749a4.141,4.141,0,0,0-8.188.028c-.088.551-.321.744-.876.721-.931-.041-1.867-.006-2.8-.013-.82,0-.886-.041-.811-.882a8.155,8.155,0,0,1,2.625-5.394,8.263,8.263,0,0,1,8.78-1.908,8.377,8.377,0,0,1,5.74,6.93c.039.217.015.443.032.665.034.428-.155.607-.583.594-.555-.019-1.112,0-1.667,0Z" transform="translate(-399.641 -689.915)" fill="#fff" stroke="#fff" stroke-width="0.1"/>
            <path id="Path_2908" data-name="Path 2908" d="M437.285,719.877c-.467,0-.938-.034-1.4.009-.574.054-.772-.206-.856-.74a4.141,4.141,0,0,0-3.965-3.5,4.238,4.238,0,0,0-4.086,2.866c-.037.105-.073.211-.1.318-.252,1.046-.25,1.048-1.306,1.05-.824,0-1.648-.037-2.47.011-.645.039-.815-.239-.764-.822a8.623,8.623,0,0,1,11.344-7.4,8.373,8.373,0,0,1,5.811,6.943c.039.217.017.445.034.667.032.42-.138.613-.574.6-.557-.019-1.112,0-1.669,0Z" transform="translate(-388.205 -689.914)" fill="#fff" stroke="#fff" stroke-width="0.1"/>
          </g>
        </g>
      </g>
    </g>
  </g>
</svg>
