<svg xmlns="http://www.w3.org/2000/svg" width="160.129" height="90.588" viewBox="0 0 160.129 90.588">
  <g id="Group_1680" data-name="Group 1680" transform="translate(-1999.009 -1015.203)">
    <g id="Group_1320" data-name="Group 1320" transform="translate(2092.632 1041.797)">
      <path id="Path_13024" data-name="Path 13024" d="M2121.824,1044.828c-12.761-11.893-29.648,27.613-29.648,27.613s7.619,15.83,7.619,21.268h45.963C2145.758,1074.982,2134.879,1056.993,2121.824,1044.828Z" transform="translate(-2092.176 -1043.599)" fill="#02ac50"/>
    </g>
    <g id="Group_1321" data-name="Group 1321" transform="translate(2011.866 1044.144)">
      <path id="Path_13025" data-name="Path 13025" d="M2052.944,1045.75l14.239,24.589c-3.986,4.167-9.546,17.1-9.546,23.173h-45.961S2037.14,1055.02,2052.944,1045.75Z" transform="translate(-2011.676 -1045.75)" fill="#e7001b"/>
    </g>
    <g id="Group_1323" data-name="Group 1323" transform="translate(2045.349 1037.599)">
      <path id="Path_13027" data-name="Path 13027" d="M2117.311,1048.055l-16.711,22.851c-3.034-1.848-24.973-1.688-32.911-1.688l-18.059-31.436C2068.4,1034.9,2107.9,1033.833,2117.311,1048.055Z" transform="translate(-2049.63 -1036.001)" fill="#f29100"/>
    </g>
    <path id="Path_13028" data-name="Path 13028" d="M2078.817,1028.6c-34.753,0-63.294,27.7-66.471,63.095h12.777c2.567-28.737,25.621-51.23,53.694-51.23s51.128,22.493,53.694,51.23l12.788.317C2142.122,1056.623,2113.57,1028.6,2078.817,1028.6Z" transform="translate(0.251 0.186)" fill="#1d1d1b" opacity="0.3"/>
    <path id="Path_13029" data-name="Path 13029" d="M2078.888,1026.573c-36.174,0-65.864,28.993-69.171,65.629h13.372c2.671-29.746,26.58-53.348,55.8-53.348s53.252,23.6,55.923,53.348h13.272C2144.776,1055.567,2115.061,1026.573,2078.888,1026.573Z" transform="translate(0 0)" fill="#e5e5e5"/>
    <path id="Path_13030" data-name="Path 13030" d="M2107.759,1091.826a29.038,29.038,0,0,0-57.982-.01Z" transform="translate(0.11 0.1)" fill="#fff"/>
    <path id="Path_13031" data-name="Path 13031" d="M2101.616,1091.325a23.369,23.369,0,0,0-46.657,0Z" transform="translate(0.601 0.549)" fill="#e5e5e5"/>
    <path id="Path_13420" data-name="Path 13420" d="M31.224,27.413,17.075,3.268" transform="translate(2032.799 1044.109)" fill="none" stroke="#fff" stroke-width="0.5"/>
    <path id="Path_13421" data-name="Path 13421" d="M10.235.188,0,26.072" transform="matrix(0.966, 0.259, -0.259, 0.966, 2102.692, 1047.796)" fill="none" stroke="#fff" stroke-width="0.5"/>
    <path id="Path_13041" data-name="Path 13041" d="M2.873,2.989l.545-.282.395.768-.542.281.536,1.037-.952.492L2.318,4.248.353,5.264,0,4.686.367.5,1.329,0ZM.861,4.028,1.922,3.48,1.047,1.789l-.007.141Z" transform="matrix(0.906, 0.423, -0.423, 0.906, 2078.426, 1029.683)" fill="#6f6f6e"/>
    <path id="Path_13042" data-name="Path 13042" d="M2.258.809.3,1.54,0,.732,1.956,0Z" transform="translate(2081.864 1031.654) rotate(22)" fill="#6f6f6e"/>
    <path id="Path_13046" data-name="Path 13046" d="M4.973,2.185,1.019,5.611,0,5.123,3.843,1.937,1.422.779,1.8,0,5.232,1.645Z" transform="matrix(0.899, -0.438, 0.438, 0.899, 2082.85, 1031.416)" fill="#6f6f6e"/>
    <g id="Group_1333" data-name="Group 1333" transform="translate(2131.094 1063.792)">
      <g id="Group_1633" data-name="Group 1633" transform="matrix(0.998, -0.07, 0.07, 0.998, 0, 0.508)">
        <path id="Path_13431" data-name="Path 13431" d="M.747,2.258,0,.31.806,0l.746,1.949Z" transform="matrix(1, -0.017, 0.017, 1, 0.496, 0.132)" fill="#6f6f6e"/>
        <path id="Path_13051" data-name="Path 13051" d="M.263,3.409,0,2.372,4,1.356,3.3.215,4.148,0,5.473,1.97l.029.111Z" transform="matrix(1, -0.017, 0.017, 1, 0.158, 2.885)" fill="#6f6f6e"/>
        <path id="Path_13052" data-name="Path 13052" d="M2.5,3.754A2.734,2.734,0,0,1,.747,3.475,1.619,1.619,0,0,1,.014,2.19,1.63,1.63,0,0,1,.449.786,2.652,2.652,0,0,1,2.056.133l.988-.1A2.7,2.7,0,0,1,4.8.312a1.627,1.627,0,0,1,.726,1.28A1.633,1.633,0,0,1,5.093,3a2.65,2.65,0,0,1-1.605.653Zm.972-1.182a1.971,1.971,0,0,0,.953-.286.624.624,0,0,0,.244-.6.613.613,0,0,0-.349-.524,1.86,1.86,0,0,0-.926-.093l-1.307.141a2.06,2.06,0,0,0-.956.283A.613.613,0,0,0,.873,2.1a.6.6,0,0,0,.366.53,2.024,2.024,0,0,0,.957.08Z" transform="matrix(0.985, -0.174, 0.174, 0.985, 0.777, 6.906)" fill="#6f6f6e"/>
      </g>
    </g>
    <g id="Group_1336" data-name="Group 1336" transform="matrix(0.978, 0.208, -0.208, 0.978, 2022.999, 1057.657)">
      <g id="Group_1335" data-name="Group 1335" transform="translate(0 0)">
        <g id="Group_1334" data-name="Group 1334" transform="translate(0 0)">
          <path id="Path_13053" data-name="Path 13053" d="M5.344.923,5.16,1.98,1.092,1.273,1.265,2.6.406,2.451,0,.112.02,0Z" transform="translate(0 10.405)" fill="#6f6f6e"/>
          <path id="Path_13054" data-name="Path 13054" d="M1.425.247l-.6,2L0,2,.6,0Z" transform="translate(3.111 6.787)" fill="#6f6f6e"/>
          <path id="Path_13428" data-name="Path 13428" d="M1.746,2.709l.431-.372a.8.8,0,0,0,.323-.55.739.739,0,0,0-.205-.537.664.664,0,0,0-.48-.258.757.757,0,0,0-.523.213.789.789,0,0,0-.279.465.541.541,0,0,0,.13.468l-.809.7A1.3,1.3,0,0,1,.01,2.116,1.509,1.509,0,0,1,.148,1.3,2.117,2.117,0,0,1,.707.569,2.024,2.024,0,0,1,1.989,0,1.4,1.4,0,0,1,3.1.537a1.136,1.136,0,0,1,.275.664,1.48,1.48,0,0,1-.135.75,1.338,1.338,0,0,1,.834-.075,1.326,1.326,0,0,1,.674.436A1.416,1.416,0,0,1,5.1,3.525a2.1,2.1,0,0,1-.765,1.237A1.993,1.993,0,0,1,3.058,5.3a1.389,1.389,0,0,1-1.126-.516l.811-.7a.614.614,0,0,0,.5.226.83.83,0,0,0,.551-.222.843.843,0,0,0,.321-.545A.7.7,0,0,0,3.924,3a.752.752,0,0,0-1.2-.028l-.429.37Z" transform="translate(1.426 2.638) rotate(-31)" fill="#6f6f6e"/>
        </g>
      </g>
    </g>
    <path id="Path_13422" data-name="Path 13422" d="M1973.485,774.7a18.222,18.222,0,0,0-36.38,0Z" transform="translate(123.595 317.188)"/>
    <path id="Path_13423" data-name="Path 13423" d="M1959.7,768.2a11.319,11.319,0,0,0-22.6,0Z" transform="translate(130.486 323.704)" fill="#8a9b8e"/>
    <path id="Path_1588" data-name="Path 1588" d="M1989.821,730.161a1.158,1.158,0,0,1-.543.381,1.3,1.3,0,0,1-.666.032,1.427,1.427,0,0,1,.141.73,1.223,1.223,0,0,1-.289.687,1.294,1.294,0,0,1-1,.524,2.14,2.14,0,0,1-1.892-1.544,1.289,1.289,0,0,1,.307-1.091,1.223,1.223,0,0,1,.615-.423,1.419,1.419,0,0,1,.741-.01,1.277,1.277,0,0,1-.1-.657,1.158,1.158,0,0,1,.266-.608,1.283,1.283,0,0,1,.962-.514,1.937,1.937,0,0,1,1.775,1.443A1.275,1.275,0,0,1,1989.821,730.161Zm-2.074,1.152a.715.715,0,0,0,.181-.517.749.749,0,0,0-.776-.635.8.8,0,0,0-.651.794.763.763,0,0,0,.778.644A.711.711,0,0,0,1987.747,731.313Zm1.283-1.735a.688.688,0,0,0,.175-.456.622.622,0,0,0-.663-.547.673.673,0,0,0-.415.267.707.707,0,0,0-.182.465.606.606,0,0,0,.668.544A.722.722,0,0,0,1989.03,729.578Z" transform="matrix(0.899, 0.438, -0.438, 0.899, 663.863, -465.728)" fill="#6f6f6e"/>
  </g>
</svg>
