<svg xmlns="http://www.w3.org/2000/svg" width="230.016" height="123.903" viewBox="0 0 230.016 123.903">
  <g id="Group_1630" data-name="Group 1630" transform="translate(-2000.38 -1016.258)">
    <g id="Group_1320" data-name="Group 1320" transform="translate(2138.698 1052.172)">
      <path id="Path_13024" data-name="Path 13024" d="M2140.042,1046.969c-18.836-17.554-47.866,39.2-47.866,39.2s11.246,23.366,11.246,31.394h67.844C2171.266,1089.921,2159.313,1064.925,2140.042,1046.969Z" transform="translate(-2092.176 -1043.599)" fill="#00b300"/>
    </g>
    <g id="Group_1321" data-name="Group 1321" transform="translate(2012.889 1055.636)">
      <path id="Path_13025" data-name="Path 13025" d="M2072.59,1045.75l21.018,36.3c-5.883,6.15-14.09,25.245-14.09,34.205h-67.841S2049.263,1059.433,2072.59,1045.75Z" transform="translate(-2011.676 -1045.75)" fill="#e7001b"/>
    </g>
    <g id="Group_1323" data-name="Group 1323" transform="translate(2065.636 1043.97)">
      <path id="Path_13027" data-name="Path 13027" d="M2149.531,1053.793l-24.667,33.729c-4.479-2.727-36.861-2.491-48.579-2.491l-26.656-46.4C2077.33,1034.377,2135.638,1032.8,2149.531,1053.793Z" transform="translate(-2049.63 -1036.001)" fill="#f29100"/>
    </g>
    <path id="Path_13028" data-name="Path 13028" d="M2113.757,1028.6c-53.022,0-96.565,42.256-101.411,96.243h19.493c3.916-43.835,39.089-78.145,81.918-78.145s78,34.31,81.919,78.145l19.51.483C2210.339,1071.344,2166.779,1028.6,2113.757,1028.6Z" transform="translate(1.622 1.242)" fill="#1d1d1b" opacity="0.3"/>
    <path id="Path_13029" data-name="Path 13029" d="M2115.114,1026.573c-55.118,0-100.357,44.178-105.4,100h20.374c4.07-45.325,40.5-81.286,85.023-81.286s81.141,35.961,85.211,81.286h20.222C2215.508,1070.751,2170.231,1026.573,2115.114,1026.573Z" transform="translate(0 0)" fill="#e5e5e5"/>
    <path id="Path_13030" data-name="Path 13030" d="M2135.362,1104.869a42.861,42.861,0,0,0-85.585-.015Z" transform="translate(22.529 21.297)" fill="#fff"/>
    <path id="Path_13031" data-name="Path 13031" d="M2123.828,1101.793a34.495,34.495,0,0,0-68.869,0Z" transform="translate(25.721 24.294)" fill="#e5e5e5"/>
    <path id="Path_13420" data-name="Path 13420" d="M37.937,39.127,17.121,2.807" transform="translate(2055.6 1053.792)" fill="none" stroke="#fff" stroke-width="0.5"/>
    <path id="Path_13421" data-name="Path 13421" d="M15.012,0,0,39.08" transform="matrix(0.966, 0.259, -0.259, 0.966, 2150.25, 1057.505)" fill="none" stroke="#fff" stroke-width="0.5"/>
    <path id="Path_13041" data-name="Path 13041" d="M4.24,4.412,5.044,4l.583,1.134-.8.414.791,1.53-1.4.727L3.421,6.27l-2.9,1.5L0,6.917.541.733,1.962,0ZM1.271,5.946l1.566-.809L1.545,2.64l-.01.208Z" transform="matrix(0.906, 0.423, -0.423, 0.906, 2114.439, 1031.328)" fill="#6f6f6e"/>
    <path id="Path_13042" data-name="Path 13042" d="M3.333,1.194.448,2.273,0,1.081,2.887,0Z" transform="translate(2119.688 1034.323) rotate(22)" fill="#6f6f6e"/>
    <path id="Path_13046" data-name="Path 13046" d="M7.34,3.225,1.5,8.282,0,7.562l5.672-4.7L2.1,1.15,2.65,0,7.723,2.428Z" transform="translate(2193.197 1075.799) rotate(22)" fill="#6f6f6e"/>
    <g id="Group_1333" data-name="Group 1333" transform="translate(2188.983 1075.591)">
      <g id="Group_1633" data-name="Group 1633" transform="matrix(0.998, -0.07, 0.07, 0.998, 0, 1.163)">
        <path id="Path_13431" data-name="Path 13431" d="M1.1,3.333,0,.457,1.19,0l1.1,2.877Z" transform="matrix(0.985, -0.174, 0.174, 0.985, 6.425, 8.507)" fill="#6f6f6e"/>
        <path id="Path_13051" data-name="Path 13051" d="M.388,5.033,0,3.5,5.909,2,4.877.317,6.123,0,8.078,2.908l.042.164Z" transform="translate(5.936 12.81) rotate(-7)" fill="#6f6f6e"/>
        <path id="Path_13052" data-name="Path 13052" d="M3.69,5.541A4.036,4.036,0,0,1,1.1,5.13a2.39,2.39,0,0,1-1.082-1.9A2.406,2.406,0,0,1,.663,1.161,3.914,3.914,0,0,1,3.034.2L4.493.041A3.981,3.981,0,0,1,7.086.46,2.4,2.4,0,0,1,8.158,2.349a2.41,2.41,0,0,1-.64,2.072,3.912,3.912,0,0,1-2.37.963ZM5.124,3.8a2.91,2.91,0,0,0,1.406-.422.921.921,0,0,0,.361-.889.905.905,0,0,0-.516-.773,2.746,2.746,0,0,0-1.367-.137L3.08,1.782A3.04,3.04,0,0,0,1.669,2.2a.9.9,0,0,0-.38.9.886.886,0,0,0,.54.783A2.987,2.987,0,0,0,3.241,4Z" transform="translate(7.879 19.596) rotate(-7)" fill="#6f6f6e"/>
      </g>
    </g>
    <g id="Group_1336" data-name="Group 1336" transform="matrix(0.978, 0.208, -0.208, 0.978, 2029.322, 1074.356)">
      <g id="Group_1335" data-name="Group 1335" transform="translate(0 0)">
        <g id="Group_1334" data-name="Group 1334" transform="translate(0 0)">
          <path id="Path_13053" data-name="Path 13053" d="M7.889,1.363,7.616,2.922l-6-1.044.254,1.96L.6,3.618,0,.166.029,0Z" transform="translate(0 15.359)" fill="#6f6f6e"/>
          <path id="Path_13054" data-name="Path 13054" d="M2.1.364,1.223,3.315,0,2.953.881,0Z" transform="translate(4.593 10.018)" fill="#6f6f6e"/>
          <path id="Path_13428" data-name="Path 13428" d="M2.577,4l.636-.549a1.185,1.185,0,0,0,.477-.812,1.091,1.091,0,0,0-.3-.792.98.98,0,0,0-.709-.38,1.117,1.117,0,0,0-.771.314,1.164,1.164,0,0,0-.412.686.8.8,0,0,0,.192.691L.493,4.19A1.922,1.922,0,0,1,.014,3.124a2.228,2.228,0,0,1,.2-1.2A3.125,3.125,0,0,1,1.044.839,2.988,2.988,0,0,1,2.936,0,2.072,2.072,0,0,1,4.57.793a1.677,1.677,0,0,1,.406.979,2.185,2.185,0,0,1-.2,1.107,1.975,1.975,0,0,1,1.231-.111,1.957,1.957,0,0,1,1,.644A2.091,2.091,0,0,1,7.529,5.2,3.1,3.1,0,0,1,6.4,7.029a2.942,2.942,0,0,1-1.886.8,2.051,2.051,0,0,1-1.662-.762l1.2-1.034a.906.906,0,0,0,.733.334,1.226,1.226,0,0,0,.813-.327,1.244,1.244,0,0,0,.474-.8,1.035,1.035,0,0,0-.275-.807,1.111,1.111,0,0,0-1.774-.042l-.633.546Z" transform="translate(2.104 3.894) rotate(-31)" fill="#6f6f6e"/>
        </g>
      </g>
    </g>
    <path id="Path_13422" data-name="Path 13422" d="M1990.8,782.862a26.9,26.9,0,0,0-53.7,0Z" transform="translate(151.162 343.245)"/>
    <path id="Path_13423" data-name="Path 13423" d="M1970.462,773.273a16.708,16.708,0,0,0-33.357,0Z" transform="translate(161.333 352.862)" fill="#8a9b8e"/>
    <path id="Path_1584" data-name="Path 1584" d="M1978.109,721.651l-.256,1.2-.141-.03a2.526,2.526,0,0,0-1.7.174,2.137,2.137,0,0,0-1.017,1.231,2.034,2.034,0,0,1,1.6-.28,1.914,1.914,0,0,1,1.375,1.01,2.8,2.8,0,0,1,.179,1.924,2.744,2.744,0,0,1-.585,1.226,2.269,2.269,0,0,1-1.069.716,2.578,2.578,0,0,1-1.349.049,2.427,2.427,0,0,1-1.7-1.2,3.2,3.2,0,0,1-.255-2.3l.112-.525a4.8,4.8,0,0,1,.9-2.012,3.389,3.389,0,0,1,1.595-1.138,3.884,3.884,0,0,1,2.065-.089Zm-2.2,3.372a1.2,1.2,0,0,0-.678.047,1.133,1.133,0,0,0-.526.4l-.1.443a2,2,0,0,0,.045,1.2.947.947,0,0,0,.719.581.933.933,0,0,0,.835-.208,1.528,1.528,0,0,0,.494-.9,1.545,1.545,0,0,0-.085-1.026A.979.979,0,0,0,1975.9,725.023Z" transform="translate(151.006 311.843)" fill="#6f6f6e"/>
  </g>
</svg>
