<svg xmlns="http://www.w3.org/2000/svg" width="41" height="41" viewBox="0 0 41 41">
  <g id="Group_1500" data-name="Group 1500" transform="translate(-0.146 -1004.508)">
    <circle id="Ellipse_102" data-name="Ellipse 102" cx="20" cy="20" r="20" transform="translate(0.646 1005.008)" fill="none" stroke="#529800" stroke-width="1"/>
    <g id="star_badge" data-name="star badge" transform="translate(-16.207 995.99)">
      <path id="Path_15617" data-name="Path 15617" d="M55.829,78.554v9.487L50.547,85.5,45.17,88.041V78.485a1.6,1.6,0,0,0,.977.328h1.488a1.661,1.661,0,0,1,.814.217l1.288.744a1.614,1.614,0,0,0,1.622,0l1.288-.745a1.661,1.661,0,0,1,.814-.217h1.488A1.63,1.63,0,0,0,55.829,78.554Z" transform="translate(-13.693 -45.389)" fill="#29adad"/>
      <path id="Path_15618" data-name="Path 15618" d="M48.129,27.685l-.745,1.291a1.612,1.612,0,0,0-.217.811v1.488a1.619,1.619,0,0,1-.811,1.4l-1.288.745a1.581,1.581,0,0,0-.594.594l-.745,1.288a1.617,1.617,0,0,1-1.4.811H40.836a1.633,1.633,0,0,0-.814.22l-1.288.742a1.614,1.614,0,0,1-1.622,0l-1.288-.742a1.633,1.633,0,0,0-.814-.22H33.524a1.6,1.6,0,0,1-.977-.328,1.62,1.62,0,0,1-.428-.483l-.745-1.288a1.581,1.581,0,0,0-.594-.594l-1.288-.745a1.619,1.619,0,0,1-.811-1.4V29.786a1.612,1.612,0,0,0-.217-.811l-.745-1.291a1.628,1.628,0,0,1,0-1.622l.745-1.288a1.63,1.63,0,0,0,.217-.814V22.474a1.622,1.622,0,0,1,.811-1.4l1.288-.742a1.589,1.589,0,0,0,.594-.6l.745-1.288a1.619,1.619,0,0,1,1.4-.811h1.488a1.63,1.63,0,0,0,.814-.217l1.288-.745a1.628,1.628,0,0,1,1.622,0l1.288.745a1.63,1.63,0,0,0,.814.217h1.488a1.619,1.619,0,0,1,1.4.811l.745,1.288a1.589,1.589,0,0,0,.594.6l1.288.742a1.622,1.622,0,0,1,.811,1.4v1.488a1.63,1.63,0,0,0,.217.814l.745,1.288a1.628,1.628,0,0,1,0,1.622Z" transform="translate(-1.07 -1.069)" fill="#4ac2c1"/>
      <circle id="Ellipse_317" data-name="Ellipse 317" cx="6.426" cy="6.426" r="6.426" transform="translate(30.427 19.649)" fill="#ffd98c"/>
      <path id="Path_15619" data-name="Path 15619" d="M55,40.577l.759,2.335a.152.152,0,0,0,.144.105h2.456a.152.152,0,0,1,.089.275l-1.987,1.443a.152.152,0,0,0-.055.171l.759,2.335a.152.152,0,0,1-.234.171L54.945,45.97a.152.152,0,0,0-.179,0L52.78,47.413a.152.152,0,0,1-.234-.171l.759-2.335a.152.152,0,0,0-.055-.171l-1.986-1.443a.152.152,0,0,1,.089-.275h2.456a.152.152,0,0,0,.144-.105l.759-2.335a.152.152,0,0,1,.288,0Z" transform="translate(-18.002 -18.232)" fill="#f16062"/>
      <path id="Path_15620" data-name="Path 15620" d="M46.849,43.6a6.854,6.854,0,1,0-6.854-6.854A6.854,6.854,0,0,0,46.849,43.6Zm0-12.852a6,6,0,1,1-6,6,6,6,0,0,1,6-6Z" transform="translate(-9.996 -10.674)" fill="#7751a1"/>
      <path id="Path_15621" data-name="Path 15621" d="M47.429,24.779l-.745-1.287a1.205,1.205,0,0,1-.16-.6V21.4A2.06,2.06,0,0,0,45.5,19.628l-1.288-.742a1.169,1.169,0,0,1-.437-.44l-.744-1.285a2.051,2.051,0,0,0-1.776-1.028H39.766a1.207,1.207,0,0,1-.6-.159l-1.289-.746a2.064,2.064,0,0,0-2.049,0l-1.287.746a1.2,1.2,0,0,1-.6.16H32.453a2.051,2.051,0,0,0-1.775,1.025l-.745,1.288a.429.429,0,0,0,.742.428l.746-1.289a1.193,1.193,0,0,1,1.033-.6h1.488a2.065,2.065,0,0,0,1.028-.275l1.286-.744a1.206,1.206,0,0,1,1.194,0l1.289.745a2.066,2.066,0,0,0,1.028.274h1.488a1.194,1.194,0,0,1,1.034.6l.742,1.283a2.015,2.015,0,0,0,.753.758l1.287.742a1.2,1.2,0,0,1,.6,1.034v1.488a2.062,2.062,0,0,0,.274,1.028l.745,1.287a1.2,1.2,0,0,1,0,1.195l-.745,1.289a2.045,2.045,0,0,0-.275,1.027V30.2a1.194,1.194,0,0,1-.6,1.034l-1.287.745a2.006,2.006,0,0,0-.751.751l-.745,1.287a1.247,1.247,0,0,1-.168.224.428.428,0,0,0-.217.068,1.2,1.2,0,0,1-.65.192H39.766a2.1,2.1,0,0,0-1.028.275l-1.288.745a1.192,1.192,0,0,1-1.192,0l-1.292-.748a2.094,2.094,0,0,0-1.024-.272H32.453a1.171,1.171,0,0,1-.717-.241.426.426,0,0,0-.2-.081,1.206,1.206,0,0,1-.116-.161l-.742-1.285a2.015,2.015,0,0,0-.753-.755l-1.289-.746a1.194,1.194,0,0,1-.6-1.032V28.717a2.043,2.043,0,0,0-.274-1.025L27.019,26.4a1.2,1.2,0,0,1,0-1.193l.746-1.289a2.063,2.063,0,0,0,.274-1.028V21.4a1.2,1.2,0,0,1,.6-1.034l.324-.187a.429.429,0,1,0-.428-.742l-.325.187A2.059,2.059,0,0,0,27.182,21.4v1.488a1.205,1.205,0,0,1-.159.6l-.746,1.289a2.061,2.061,0,0,0,0,2.049l.746,1.291a1.185,1.185,0,0,1,.159.6v1.488a2.051,2.051,0,0,0,1.024,1.776l1.289.746a1.162,1.162,0,0,1,.437.437l.746,1.289a2.041,2.041,0,0,0,.371.452v2.372a.428.428,0,1,0,.857,0V35.4a2.045,2.045,0,0,0,.548.08h1.487a1.207,1.207,0,0,1,.6.162l1.287.742a2.05,2.05,0,0,0,2.05,0l1.287-.742a1.209,1.209,0,0,1,.6-.163h1.488a2.047,2.047,0,0,0,.454-.057v6.551l-1.3-.622V39.773a.428.428,0,0,0-.857,0v1.163l-2.516-1.208a.428.428,0,0,0-.368,0L31.9,41.975V38.882a.428.428,0,1,0-.857,0v3.769a.428.428,0,0,0,.611.387l5.193-2.449,5.1,2.447a.428.428,0,0,0,.614-.385V35a2.087,2.087,0,0,0,.465-.551l.748-1.292a1.157,1.157,0,0,1,.435-.433l1.287-.744A2.052,2.052,0,0,0,46.525,30.2V28.717a1.187,1.187,0,0,1,.16-.6l.745-1.291a2.06,2.06,0,0,0,0-2.05Z" transform="translate(0 0)" fill="#7751a1"/>
      <path id="Path_15622" data-name="Path 15622" d="M50.972,43.041l-.841,2.589a.428.428,0,0,0,.659.479l2.2-1.6,2.2,1.6a.428.428,0,0,0,.659-.479l-.841-2.587,2.2-1.6a.428.428,0,0,0-.252-.775H54.241L53.4,38.078a.428.428,0,0,0-.815,0l-.841,2.589H49.022a.428.428,0,0,0-.252.775Zm1.083-1.518a.428.428,0,0,0,.407-.3l.53-1.632.53,1.632a.428.428,0,0,0,.407.3h1.715L54.257,42.53a.428.428,0,0,0-.156.479l.53,1.631-1.387-1.008a.428.428,0,0,0-.5,0L51.353,44.64l.53-1.631a.428.428,0,0,0-.156-.479L50.34,41.521Z" transform="translate(-16.139 -16.308)" fill="#7751a1"/>
      <path id="Path_15623" data-name="Path 15623" d="M73.889,96.178a.428.428,0,0,0,.428-.428v-.28a.428.428,0,0,0-.857,0v.28A.428.428,0,0,0,73.889,96.178Z" transform="translate(-33.906 -57.219)" fill="#7751a1"/>
    </g>
  </g>
</svg>
