<svg xmlns="http://www.w3.org/2000/svg" xmlns:xlink="http://www.w3.org/1999/xlink" width="40" height="40" viewBox="0 0 40 40">
  <defs>
    <linearGradient id="linear-gradient" x1="0.5" x2="0.5" y2="1" gradientUnits="objectBoundingBox">
      <stop offset="0" stop-color="#85bd44"/>
      <stop offset="1" stop-color="#529800"/>
    </linearGradient>
  </defs>
  <g id="Group_1500" data-name="Group 1500" transform="translate(-0.646 -1005.008)">
    <circle id="Ellipse_102" data-name="Ellipse 102" cx="20" cy="20" r="20" transform="translate(0.646 1005.008)" fill="url(#linear-gradient)"/>
    <g id="Group_1499" data-name="Group 1499" transform="translate(9.482 1014.702)">
      <rect id="Rectangle_636" data-name="Rectangle 636" width="7.729" height="6.87" rx="1.51" transform="translate(10.734 9.019)" fill="#fcd062"/>
      <path id="Path_13137" data-name="Path 13137" d="M21.926,1044.466H12.509a2.427,2.427,0,0,1-.291-.03,1.329,1.329,0,0,1-.271-.085,1.443,1.443,0,0,1-.245-.135,1.461,1.461,0,0,1-.213-.179,1.528,1.528,0,0,1-.176-.218,1.5,1.5,0,0,1-.133-.25l-.113-.22H6.948v-8.572h4.491" transform="translate(-2.699 -1025.832)" fill="#fcd062" stroke="#f8b84e" stroke-linecap="round" stroke-linejoin="round" stroke-width="1"/>
      <path id="Path_13138" data-name="Path 13138" d="M12.178,1037.033h4.075a3.743,3.743,0,0,0,3.31-2.674,6.138,6.138,0,0,0-.336-5.077l-.011-.06v-2.185a2.779,2.779,0,0,0-2.883-2.675h-.081v2.906c0,1.938-4.075,4.174-4.075,6.41" transform="translate(-3.437 -1024.361)" fill="#fcd062" stroke="#f8b84e" stroke-linecap="round" stroke-linejoin="round" stroke-width="1"/>
      <rect id="Rectangle_637" data-name="Rectangle 637" width="6.667" height="2.944" rx="1.472" transform="translate(16.519 6.708)" fill="#fcd062" stroke="#f8b84e" stroke-linejoin="round" stroke-width="1"/>
      <rect id="Rectangle_638" data-name="Rectangle 638" width="7.408" height="2.944" rx="1.472" transform="translate(15.778 9.69)" fill="#fcd062" stroke="#f8b84e" stroke-linejoin="round" stroke-width="1"/>
      <rect id="Rectangle_639" data-name="Rectangle 639" width="6.667" height="2.944" rx="1.472" transform="translate(22.445 15.652) rotate(180)" fill="#fcd062" stroke="#f8b84e" stroke-linejoin="round" stroke-width="1"/>
      <rect id="Rectangle_640" data-name="Rectangle 640" width="5.926" height="2.944" rx="1.342" transform="translate(21.705 18.634) rotate(180)" fill="#fcd062" stroke="#f8b84e" stroke-linejoin="round" stroke-width="1"/>
      <rect id="Rectangle_641" data-name="Rectangle 641" width="5.603" height="14.599" transform="translate(0 5.153)" fill="#0c5286"/>
      <ellipse id="Ellipse_103" data-name="Ellipse 103" cx="0.935" cy="0.94" rx="0.935" ry="0.94" transform="translate(1.866 15.049)" fill="#f0f4f7"/>
    </g>
  </g>
</svg>
