<svg id="Team_work" data-name="Team work" xmlns="http://www.w3.org/2000/svg" xmlns:xlink="http://www.w3.org/1999/xlink" width="40" height="36.523" viewBox="0 0 40 36.523">
  <defs>
    <clipPath id="clip-path">
      <rect id="Rectangle_733" data-name="Rectangle 733" width="40" height="36.523" fill="none"/>
    </clipPath>
  </defs>
  <path id="Path_13350" data-name="Path 13350" d="M88.683,21.328V17.02l9.991,5.769L95.037,25Zm14.386,10.1.061-6.435-3.637-2.207.022,6.58v0Z" transform="translate(-78.984 -15.099)" fill="#b41a64"/>
  <g id="Group_1610" data-name="Group 1610">
    <g id="Group_1609" data-name="Group 1609" clip-path="url(#clip-path)">
      <path id="Path_13351" data-name="Path 13351" d="M150.757.555a3.192,3.192,0,0,1,0,5.275Zm0,7.827L152.927,9.7,159.152,6.1V1.884l-8.4,4.848ZM148.96,0a3.176,3.176,0,0,1,1.8.554V5.83A3.192,3.192,0,1,1,148.96,0m1.8,6.73V8.381l-1.394-.847ZM145.056,16,145,9.7l3.564-2.163-.022,6.448Z" transform="translate(-128.96 -0.001)" fill="#d31e76"/>
      <path id="Path_13352" data-name="Path 13352" d="M222.717,156.006l5.491,3.1.091,4.168-5.574-3.243Zm1.524,17.16,3.655,2.112V163.973l-3.655,2Zm10.381-5.778a3.192,3.192,0,1,0-4.36,1.168,3.192,3.192,0,0,0,4.36-1.168" transform="translate(-198.089 -138.755)" fill="#fb952f"/>
      <path id="Path_13353" data-name="Path 13353" d="M203.005,151.55l3.657,2.109-9.79,5.653-.091-4.168Zm-15.622,7.26.008,0,5.424,3.2,3.655-2-5.595-3.206Z" transform="translate(-166.662 -134.791)" fill="#ed7b09"/>
      <path id="Path_13354" data-name="Path 13354" d="M94.123,156.006l-5.491,3.1-.091,4.168,5.574-3.243ZM92.6,173.166l-3.655,2.112V163.973l3.655,2Z" transform="translate(-78.751 -138.755)" fill="#008594"/>
      <path id="Path_13355" data-name="Path 13355" d="M6.231,158.64a3.192,3.192,0,0,1,0,6.384Zm0-1.387,3.56,2.055.091-4.168-3.651-2.108Zm13.048,1.554-5.431,3.2-3.655-2,5.6-3.208ZM3.467,163.428a3.192,3.192,0,0,1,2.764-4.787v6.384a3.19,3.19,0,0,1-2.765-1.6m2.765-10.391v4.22L0,153.659l3.657-2.109Z" transform="translate(0 -134.791)" fill="#00a2b4"/>
    </g>
  </g>
</svg>
