<svg xmlns="http://www.w3.org/2000/svg" xmlns:xlink="http://www.w3.org/1999/xlink" width="105" height="105" viewBox="0 0 105 105">
  <defs>
    <filter id="Ellipse_104" x="0" y="0" width="105" height="105" filterUnits="userSpaceOnUse">
      <feOffset input="SourceAlpha"/>
      <feGaussianBlur stdDeviation="12.5" result="blur"/>
      <feFlood flood-color="#96c32e"/>
      <feComposite operator="in" in2="blur"/>
    </filter>
    <linearGradient id="linear-gradient" x1="0.079" y1="0.144" x2="1.024" y2="0.944" gradientUnits="objectBoundingBox">
      <stop offset="0" stop-color="#f2e500"/>
      <stop offset="1" stop-color="#72b641"/>
    </linearGradient>
  </defs>
  <g id="Group_1668" data-name="Group 1668" transform="translate(-272.5 -1246.5)">
    <g id="Group_1666" data-name="Group 1666">
      <g transform="matrix(1, 0, 0, 1, 272.5, 1246.5)" filter="url(#Ellipse_104)" style="mix-blend-mode: multiply;isolation: isolate">
        <ellipse id="Ellipse_104-2" data-name="Ellipse 104" cx="15" cy="15" rx="15" ry="15" transform="translate(37.5 37.5)" fill="#fff"/>
      </g>
      <g id="Group_1665" data-name="Group 1665" transform="translate(300 1274)">
        <g id="Group_945" data-name="Group 945" transform="translate(0 0)">
          <ellipse id="Ellipse_22" data-name="Ellipse 22" cx="23.891" cy="23.891" rx="23.891" ry="23.891" transform="translate(1.109 1.109)" fill="url(#linear-gradient)"/>
          <g id="Group_944" data-name="Group 944">
            <path id="Path_2860" data-name="Path 2860" d="M84.538,725.228a25,25,0,1,1,25-25A25.028,25.028,0,0,1,84.538,725.228Zm0-47.716a22.716,22.716,0,1,0,22.716,22.716A22.742,22.742,0,0,0,84.538,677.512Z" transform="translate(-59.538 -675.229)" fill="#fff"/>
          </g>
        </g>
      </g>
    </g>
    <g id="Group_1667" data-name="Group 1667" transform="translate(313 1284.056)">
      <g id="Group_950" data-name="Group 950" transform="translate(0)">
        <path id="Path_2864" data-name="Path 2864" d="M94.22,720.215q-.16-1.3-.322-2.6c-.08-.65-.162-1.3-.237-1.95-.013-.107-.042-.135-.154-.123-.6.06-1.2.108-1.8.163-.575.052-1.149.11-1.724.164-.449.042-.9.08-1.348.124-.128.013-.166-.036-.176-.161-.049-.682-.109-1.364-.163-2.045-.044-.551-.082-1.1-.127-1.655-.053-.673-.11-1.345-.165-2.017a4.573,4.573,0,0,1-.033-.464c0-.139-.053-.172-.182-.172-.831,0-1.662,0-2.494,0-.029,0-.058,0-.087,0-.123.007-.152-.039-.111-.157.167-.477.327-.956.49-1.434q.937-2.737,1.874-5.473a1.25,1.25,0,0,0,.068-.414c0-.6-.021-1.205.033-1.807a10.759,10.759,0,0,1,.841-3.361,10.8,10.8,0,0,1,8.081-6.354,10.22,10.22,0,0,1,2.424-.133,10.79,10.79,0,0,1,9.716,7.787,10.748,10.748,0,0,1,.389,2.262,11.677,11.677,0,0,1-.611,4.371c-.739,2.348-1.441,4.709-2.158,7.064a.422.422,0,0,0-.014.2q.4,2.384.79,4.768c.171,1.039.335,2.079.512,3.117.022.128-.022.164-.131.182-.225.037-.449.076-.674.115h-.174q-.335-2.025-.669-4.049l-.623-3.791a.826.826,0,0,0-.016-.086,1.4,1.4,0,0,1,.04-.8q1.179-3.82,2.337-7.648a9.279,9.279,0,0,0,.388-2.393,9.751,9.751,0,0,0-6.429-9.53,9.28,9.28,0,0,0-2.612-.547,9.764,9.764,0,0,0-10.276,8,10.071,10.071,0,0,0-.15,2.248,3.968,3.968,0,0,1-.244,1.493c-.6,1.7-1.175,3.418-1.758,5.128-.011.032-.021.064-.034.1-.039.092,0,.12.09.119.321,0,.642,0,.963,0,.384,0,.768,0,1.152,0,.136,0,.193.044.2.179q.071,1.009.151,2.018c.062.783.131,1.566.194,2.349.045.556.087,1.113.124,1.669.016.228.023.233.248.21.458-.047.917-.084,1.376-.127l1.8-.166,1.609-.149c.087-.008.122.031.132.114.058.491.117.983.178,1.474q.14,1.126.282,2.252.1.839.208,1.675c.013.1-.023.147-.131.158-.26.029-.519.069-.778.1Z" transform="translate(-85.084 -690.329)" fill="#fff" stroke="#fff" stroke-width="0.4"/>
        <path id="Path_2865" data-name="Path 2865" d="M103.257,700.635c.141,0,.282,0,.423,0,.1,0,.14.042.138.14,0,.242,0,.486,0,.728,0,.108-.044.145-.148.143-.272,0-.544,0-.816,0-.094,0-.137.024-.15.127a3.994,3.994,0,0,1-.268,1,.118.118,0,0,0,.061.176c.241.135.478.278.72.414.082.047.113.091.057.183-.131.216-.258.433-.38.655-.051.1-.1.091-.185.042-.234-.14-.473-.269-.706-.411-.087-.053-.141-.051-.206.034a3.756,3.756,0,0,1-.72.719c-.071.055-.085.1-.037.18.143.237.274.482.419.717.062.1.04.151-.058.2-.213.117-.424.239-.63.365-.085.051-.135.044-.185-.047-.134-.242-.278-.479-.413-.721a.126.126,0,0,0-.187-.066,3.76,3.76,0,0,1-.968.258c-.1.011-.139.065-.138.166,0,.262,0,.525,0,.787,0,.124-.044.177-.17.174q-.343-.009-.685,0c-.134,0-.179-.05-.175-.182.007-.257,0-.516,0-.773a.143.143,0,0,0-.145-.171,3.742,3.742,0,0,1-.954-.258.13.13,0,0,0-.2.07c-.129.234-.27.462-.4.7-.058.108-.113.12-.216.055-.2-.127-.409-.243-.618-.357-.094-.052-.109-.1-.053-.2.142-.233.272-.472.412-.705.05-.084.054-.139-.036-.2a3.488,3.488,0,0,1-.7-.7c-.079-.1-.14-.1-.24-.039-.223.139-.454.262-.678.4-.091.055-.144.048-.2-.048-.117-.213-.236-.424-.364-.63-.061-.1-.038-.152.058-.206.234-.13.462-.269.7-.4.087-.047.118-.091.075-.194a3.841,3.841,0,0,1-.268-1.01c-.012-.1-.068-.1-.141-.1-.272,0-.544,0-.816,0-.112,0-.158-.036-.155-.151q.009-.349,0-.7c0-.118.036-.165.158-.162.272.006.544,0,.816,0,.088,0,.127-.024.14-.12a3.95,3.95,0,0,1,.268-1c.036-.083.025-.13-.057-.174-.238-.132-.47-.275-.709-.4-.1-.056-.128-.112-.062-.217.124-.2.242-.4.35-.606.061-.118.122-.122.227-.056.219.136.447.256.667.391.1.058.157.057.231-.04a3.544,3.544,0,0,1,.7-.7.131.131,0,0,0,.041-.206c-.134-.22-.259-.444-.389-.668-.094-.162-.094-.162.075-.26.2-.115.4-.226.592-.344.088-.055.137-.039.185.049.135.241.278.479.412.72a.126.126,0,0,0,.187.067,3.76,3.76,0,0,1,.983-.262c.093-.012.121-.061.12-.147,0-.267,0-.534,0-.8,0-.118.037-.166.16-.162.237.008.476.007.713,0,.116,0,.156.043.155.153,0,.257,0,.516,0,.773,0,.128.042.174.172.191a3.473,3.473,0,0,1,.911.247.143.143,0,0,0,.219-.076c.128-.24.274-.471.4-.708.048-.085.092-.1.172-.047.217.13.436.256.657.378.09.05.1.1.046.187-.143.238-.274.481-.419.717a.123.123,0,0,0,.038.193,3.87,3.87,0,0,1,.72.718.127.127,0,0,0,.2.035c.237-.142.481-.275.718-.418.088-.053.134-.038.182.05.12.217.244.43.372.643.052.085.04.137-.048.186-.241.135-.478.279-.719.414a.124.124,0,0,0-.067.186,3.987,3.987,0,0,1,.269,1c.014.1.059.118.143.115.137,0,.273,0,.409,0Zm-4.893-2.852a3.362,3.362,0,1,0,3.372,3.3A3.371,3.371,0,0,0,98.363,697.783Z" transform="translate(-85.166 -690.385)" fill="#fff" stroke="#fff" stroke-width="0.4"/>
        <path id="Path_2866" data-name="Path 2866" d="M106.432,701.157c.117,0,.234,0,.349,0s.149.028.149.139a9.378,9.378,0,0,1-.063.957c-.007.071-.041.1-.116.093l-.793-.1c-.077-.01-.1-.06-.1-.134.029-.285.054-.57.058-.856,0-.08.052-.094.118-.094Z" transform="translate(-85.301 -690.442)" fill="#fff" stroke="#fff" stroke-width="0.4"/>
        <path id="Path_2867" data-name="Path 2867" d="M104.21,707.381a.1.1,0,0,1-.049.092,8.855,8.855,0,0,1-.756.616c-.06.044-.1.04-.144-.022q-.23-.328-.463-.654c-.041-.057-.046-.1.017-.148a7,7,0,0,0,.664-.544.078.078,0,0,1,.126,0l.579.615A.231.231,0,0,1,104.21,707.381Z" transform="translate(-85.269 -690.5)" fill="#fff" stroke="#fff" stroke-width="0.4"/>
        <path id="Path_2868" data-name="Path 2868" d="M94.936,694.5c0,.056-.039.071-.072.089a6.657,6.657,0,0,0-.694.426c-.079.055-.128.037-.178-.038-.146-.211-.294-.421-.445-.628-.048-.066-.043-.108.025-.154q.4-.27.818-.5c.077-.043.121-.029.16.049.116.23.237.456.354.684A.687.687,0,0,1,94.936,694.5Z" transform="translate(-85.172 -690.364)" fill="#fff" stroke="#fff" stroke-width="0.4"/>
        <path id="Path_2869" data-name="Path 2869" d="M100.2,692.87a7.045,7.045,0,0,1,.982.271c.059.021.064.065.046.118-.09.257-.181.513-.268.771-.026.076-.073.08-.137.057a7.274,7.274,0,0,0-.8-.223c-.081-.019-.1-.055-.085-.134.053-.256.1-.514.155-.77C100.1,692.906,100.121,692.855,100.2,692.87Z" transform="translate(-85.239 -690.355)" fill="#fff" stroke="#fff" stroke-width="0.4"/>
        <path id="Path_2870" data-name="Path 2870" d="M105.665,705.648c-.01.018-.023.044-.039.068a9,9,0,0,1-.536.759c-.053.069-.1.078-.166.021q-.3-.251-.609-.495c-.063-.05-.07-.094-.02-.156a6.667,6.667,0,0,0,.478-.676c.036-.057.075-.086.143-.044.235.144.471.288.706.433C105.65,705.576,105.68,705.6,105.665,705.648Z" transform="translate(-85.285 -690.483)" fill="#fff" stroke="#fff" stroke-width="0.4"/>
        <path id="Path_2871" data-name="Path 2871" d="M94.083,707.357a.769.769,0,0,1-.04.068c-.147.21-.3.418-.442.63-.053.078-.1.085-.176.03-.249-.184-.489-.381-.721-.587-.069-.06-.077-.109-.011-.179q.266-.278.522-.566a.1.1,0,0,1,.17-.007,6.756,6.756,0,0,0,.642.522A.1.1,0,0,1,94.083,707.357Z" transform="translate(-85.163 -690.5)" fill="#fff" stroke="#fff" stroke-width="0.4"/>
        <path id="Path_2872" data-name="Path 2872" d="M104.98,695.783a.1.1,0,0,1-.05.091c-.2.167-.407.332-.607.5-.075.063-.124.046-.181-.024a5.066,5.066,0,0,0-.528-.562c-.077-.067-.088-.123-.01-.2.172-.178.338-.362.5-.547.059-.066.11-.08.181-.012q.341.329.649.691A.637.637,0,0,1,104.98,695.783Z" transform="translate(-85.277 -690.377)" fill="#fff" stroke="#fff" stroke-width="0.4"/>
        <path id="Path_2873" data-name="Path 2873" d="M106.595,703.561a7.931,7.931,0,0,1-.342.957c-.027.059-.068.056-.12.034q-.373-.163-.747-.324c-.073-.031-.076-.078-.049-.14a7.354,7.354,0,0,0,.273-.767c.027-.09.076-.111.163-.085.242.071.486.137.728.206C106.559,703.458,106.616,703.478,106.595,703.561Z" transform="translate(-85.296 -690.463)" fill="#fff" stroke="#fff" stroke-width="0.4"/>
        <path id="Path_2874" data-name="Path 2874" d="M98.381,693.707c-.127,0-.252,0-.379,0-.08,0-.127-.021-.133-.112-.015-.256-.035-.513-.054-.769-.007-.095.039-.125.129-.131a5.9,5.9,0,0,1,.916,0c.087.008.121.032.115.122-.017.252-.027.5-.039.756,0,.1-.048.139-.147.135C98.653,693.7,98.517,693.707,98.381,693.707Z" transform="translate(-85.217 -690.353)" fill="#fff" stroke="#fff" stroke-width="0.4"/>
        <path id="Path_2875" data-name="Path 2875" d="M90.42,701.191c.122,0,.243,0,.364,0,.1,0,.143.034.141.137a5.267,5.267,0,0,0,.054.769c.014.1-.011.151-.125.164-.245.028-.49.068-.734.106-.088.013-.136-.012-.146-.11-.032-.295-.057-.589-.062-.886,0-.143.051-.191.187-.181C90.206,701.2,90.313,701.191,90.42,701.191Z" transform="translate(-85.135 -690.442)" fill="#fff" stroke="#fff" stroke-width="0.4"/>
        <path id="Path_2876" data-name="Path 2876" d="M90.25,703.575c-.014-.076.03-.1.078-.114.257-.072.515-.143.771-.216.073-.021.106,0,.127.072a7.052,7.052,0,0,0,.281.781c.032.072.019.115-.057.148q-.362.153-.72.315c-.082.038-.123.015-.155-.064a7.707,7.707,0,0,1-.312-.878Z" transform="translate(-85.138 -690.464)" fill="#fff" stroke="#fff" stroke-width="0.4"/>
        <path id="Path_2877" data-name="Path 2877" d="M96.865,693.759c.01.091-.045.108-.1.12a6.731,6.731,0,0,0-.783.221.1.1,0,0,1-.145-.067c-.088-.246-.176-.494-.266-.738-.028-.074-.015-.119.063-.145a8.34,8.34,0,0,1,.936-.265c.051-.012.1-.006.117.054C96.751,693.216,96.81,693.5,96.865,693.759Z" transform="translate(-85.194 -690.355)" fill="#fff" stroke="#fff" stroke-width="0.4"/>
        <path id="Path_2878" data-name="Path 2878" d="M103.285,694.26c-.012.02-.025.046-.042.069-.146.211-.3.42-.44.632-.049.073-.094.081-.165.032a6.415,6.415,0,0,0-.7-.422c-.076-.04-.092-.085-.051-.162.12-.228.238-.455.352-.686.043-.086.091-.1.172-.05.271.15.538.309.795.483C103.243,694.18,103.288,694.2,103.285,694.26Z" transform="translate(-85.26 -690.363)" fill="#fff" stroke="#fff" stroke-width="0.4"/>
        <path id="Path_2879" data-name="Path 2879" d="M91.979,697.34c-.009.019-.022.044-.037.069a6.658,6.658,0,0,0-.359.7c-.042.1-.092.107-.18.067q-.344-.156-.695-.3c-.081-.034-.1-.074-.062-.155a8.645,8.645,0,0,1,.435-.84c.037-.063.076-.1.151-.052.231.143.464.283.7.425C91.958,697.271,91.988,697.29,91.979,697.34Z" transform="translate(-85.142 -690.396)" fill="#fff" stroke="#fff" stroke-width="0.4"/>
        <path id="Path_2880" data-name="Path 2880" d="M91.975,705.118c.05-.007.071.029.092.061a7.844,7.844,0,0,0,.48.674.1.1,0,0,1-.016.159c-.208.166-.415.336-.619.506-.057.048-.1.044-.144-.016a9.655,9.655,0,0,1-.562-.794c-.032-.049-.052-.1.013-.136l.719-.439A.378.378,0,0,1,91.975,705.118Z" transform="translate(-85.148 -690.483)" fill="#fff" stroke="#fff" stroke-width="0.4"/>
        <path id="Path_2881" data-name="Path 2881" d="M105.944,700.139c-.064.02-.1-.009-.116-.1a5.7,5.7,0,0,0-.165-.783c-.029-.1,0-.14.1-.165.239-.062.477-.131.714-.2.1-.03.139,0,.164.095.077.3.138.595.192.9.018.1-.026.145-.119.156Z" transform="translate(-85.299 -690.418)" fill="#fff" stroke="#fff" stroke-width="0.4"/>
        <path id="Path_2882" data-name="Path 2882" d="M95,707.875c.03.012.061.024.092.039a5.755,5.755,0,0,0,.7.3c.108.038.13.09.089.2-.088.227-.167.456-.244.687-.032.094-.076.118-.172.081-.291-.112-.576-.235-.855-.373-.078-.039-.1-.08-.055-.158.121-.228.237-.457.356-.686C94.928,707.921,94.944,707.877,95,707.875Z" transform="translate(-85.183 -690.512)" fill="#fff" stroke="#fff" stroke-width="0.4"/>
        <path id="Path_2883" data-name="Path 2883" d="M89.995,699.994a7.376,7.376,0,0,1,.2-.99.091.091,0,0,1,.131-.073q.384.108.77.213c.082.022.091.067.072.142a6.4,6.4,0,0,0-.16.782c-.011.084-.049.132-.145.117-.253-.039-.507-.075-.761-.107C90.022,700.067,89.979,700.043,89.995,699.994Z" transform="translate(-85.135 -690.419)" fill="#fff" stroke="#fff" stroke-width="0.4"/>
        <path id="Path_2884" data-name="Path 2884" d="M97.909,708.935c-.012.2-.025.407-.035.609,0,.1-.055.146-.159.135-.3-.037-.606-.068-.905-.129-.088-.019-.123-.057-.1-.151q.086-.376.156-.754c.016-.086.058-.1.132-.089.275.057.555.082.834.116.067.008.094.036.085.1s-.006.107-.009.16Z" transform="translate(-85.206 -690.519)" fill="#fff" stroke="#fff" stroke-width="0.4"/>
        <path id="Path_2885" data-name="Path 2885" d="M98.931,708.82c-.021-.09.029-.149.169-.163.25-.025.5-.064.749-.1.086-.014.125.015.142.1.05.252.1.5.157.755.017.083-.01.125-.1.142-.3.057-.614.094-.921.13-.089.01-.134-.021-.14-.119C98.976,709.328,98.954,709.1,98.931,708.82Z" transform="translate(-85.229 -690.519)" fill="#fff" stroke="#fff" stroke-width="0.4"/>
        <path id="Path_2886" data-name="Path 2886" d="M101.837,707.875c.057-.012.074.027.092.06.124.237.245.473.37.708.039.073.017.116-.052.15a8.075,8.075,0,0,1-.865.378c-.074.028-.125.026-.155-.064-.084-.247-.173-.494-.263-.739a.1.1,0,0,1,.066-.145c.26-.094.51-.213.76-.329Z" transform="translate(-85.25 -690.512)" fill="#fff" stroke="#fff" stroke-width="0.4"/>
        <path id="Path_2887" data-name="Path 2887" d="M105.628,696.764c.06-.009.077.031.1.062a9.19,9.19,0,0,1,.453.864c.032.069.011.107-.056.137q-.361.154-.719.317c-.077.035-.126.022-.16-.059a6.048,6.048,0,0,0-.376-.723.1.1,0,0,1,.037-.156c.225-.135.447-.273.671-.411C105.593,696.782,105.615,696.771,105.628,696.764Z" transform="translate(-85.291 -690.396)" fill="#fff" stroke="#fff" stroke-width="0.4"/>
        <path id="Path_2888" data-name="Path 2888" d="M93.265,695.7a.113.113,0,0,1-.049.091,7.277,7.277,0,0,0-.562.611.1.1,0,0,1-.158.013q-.3-.249-.612-.495a.094.094,0,0,1-.017-.157,8.245,8.245,0,0,1,.666-.713c.04-.039.08-.055.126-.008.193.2.387.409.58.615A.192.192,0,0,1,93.265,695.7Z" transform="translate(-85.155 -690.378)" fill="#fff" stroke="#fff" stroke-width="0.4"/>
        <path id="Path_2889" data-name="Path 2889" d="M98.4,703.111a1.921,1.921,0,0,1-1.933-1.923,1.941,1.941,0,1,1,3.883-.014A1.927,1.927,0,0,1,98.4,703.111Zm.926-1.934a.913.913,0,0,0-.919-.926.925.925,0,1,0,0,1.851A.909.909,0,0,0,99.324,701.178Z" transform="translate(-85.203 -690.422)" fill="#fff" stroke="#fff" stroke-width="0.4"/>
      </g>
    </g>
  </g>
</svg>
