<svg xmlns="http://www.w3.org/2000/svg" width="100" height="124.751" viewBox="0 0 100 124.751">
  <g id="Group_1054" data-name="Group 1054" transform="translate(-681.596 -345.559)">
    <path id="Path_2027" data-name="Path 2027" d="M719.732,470.31q-.673-5.427-1.344-10.851c-.334-2.714-.675-5.427-.989-8.141-.051-.447-.171-.563-.64-.516-2.5.251-5,.451-7.5.681-2.4.222-4.8.461-7.2.687-1.874.175-3.75.334-5.626.518-.53.053-.694-.149-.73-.673-.208-2.849-.457-5.694-.683-8.54-.184-2.3-.345-4.6-.528-6.905-.224-2.806-.463-5.612-.693-8.416a19.411,19.411,0,0,1-.135-1.939c.008-.577-.22-.718-.758-.716-3.469.018-6.938.008-10.409.008-.12,0-.243,0-.365,0-.51.029-.636-.159-.461-.657.7-1.99,1.362-3.993,2.043-5.987q3.906-11.425,7.823-22.846a5.211,5.211,0,0,0,.284-1.723c0-2.514-.084-5.033.137-7.541a44.887,44.887,0,0,1,3.514-14.034A45.071,45.071,0,0,1,729.2,346.2a42.746,42.746,0,0,1,10.119-.553,45.038,45.038,0,0,1,40.557,32.5,45.022,45.022,0,0,1,1.625,9.444,48.8,48.8,0,0,1-2.549,18.243c-3.088,9.8-6.014,19.657-9.01,29.488a1.753,1.753,0,0,0-.057.83q1.661,9.951,3.3,19.9c.714,4.336,1.4,8.677,2.135,13.011.09.532-.09.689-.544.763-.938.151-1.874.318-2.812.479h-.73q-1.395-8.452-2.79-16.9-1.3-7.91-2.6-15.825a3.388,3.388,0,0,0-.063-.359,5.84,5.84,0,0,1,.163-3.324q4.922-15.949,9.758-31.925a38.96,38.96,0,0,0,1.621-9.988,40.711,40.711,0,0,0-26.837-39.778,38.676,38.676,0,0,0-10.906-2.288,40.772,40.772,0,0,0-42.9,33.4,42.2,42.2,0,0,0-.626,9.385,16.472,16.472,0,0,1-1.022,6.232c-2.506,7.113-4.9,14.265-7.339,21.4-.045.135-.086.271-.141.4-.159.387-.01.5.377.5,1.34-.014,2.68,0,4.017,0,1.6,0,3.206.02,4.809-.01.565-.012.808.186.846.746q.3,4.212.63,8.422c.261,3.269.549,6.538.812,9.807q.278,3.481.518,6.968c.063.946.094.971,1.034.875,1.913-.2,3.83-.353,5.747-.528q3.75-.343,7.5-.693c2.237-.208,4.476-.412,6.713-.626.363-.033.512.128.553.475q.361,3.077.74,6.15.584,4.7,1.177,9.4c.292,2.331.575,4.662.869,6.993.055.434-.094.612-.546.661-1.083.116-2.162.29-3.242.438Z" transform="translate(0 0)" fill="#686867"/>
    <path id="Path_2028" data-name="Path 2028" d="M734.532,374.132c.506,0,1.011.012,1.517,0,.363-.01.5.149.494.5-.01.871-.012,1.743,0,2.614.005.385-.156.52-.533.515-.976-.016-1.952,0-2.927-.011-.336-.005-.489.082-.54.45a14.245,14.245,0,0,1-.964,3.57.426.426,0,0,0,.221.632c.865.485,1.717,1,2.582,1.484.3.166.408.326.208.655-.469.774-.927,1.557-1.363,2.351-.186.34-.37.324-.664.147-.837-.5-1.7-.965-2.53-1.472-.314-.191-.506-.184-.739.123a13.683,13.683,0,0,1-2.581,2.579c-.257.2-.308.354-.133.645.515.85.983,1.727,1.5,2.574.223.363.144.541-.208.732-.766.415-1.519.855-2.264,1.305-.3.186-.48.163-.661-.166-.478-.869-1-1.717-1.48-2.586a.453.453,0,0,0-.671-.238,13.447,13.447,0,0,1-3.471.927c-.368.04-.5.233-.492.6.016.941-.007,1.882.012,2.822.009.445-.156.634-.608.624q-1.23-.029-2.458,0c-.477.012-.641-.184-.627-.655.026-.922-.01-1.847.012-2.77a.515.515,0,0,0-.524-.617,13.292,13.292,0,0,1-3.42-.925.468.468,0,0,0-.7.254c-.463.839-.969,1.656-1.424,2.5-.208.387-.4.427-.771.2-.724-.454-1.468-.874-2.218-1.281-.34-.184-.394-.368-.193-.7.506-.836.974-1.691,1.477-2.528.182-.3.194-.5-.128-.734a12.625,12.625,0,0,1-2.514-2.5c-.284-.371-.5-.363-.86-.138-.8.494-1.629.939-2.433,1.43-.324.2-.515.173-.7-.173-.419-.764-.85-1.523-1.305-2.264-.222-.359-.137-.547.208-.738.837-.463,1.656-.964,2.5-1.424.312-.172.422-.329.268-.7a13.74,13.74,0,0,1-.964-3.623c-.042-.354-.242-.364-.5-.364-.976,0-1.953-.011-2.929.007-.4.007-.566-.124-.555-.54.021-.837.023-1.675,0-2.511-.012-.424.13-.592.568-.582.976.023,1.953,0,2.929.01.315,0,.454-.086.5-.431a14.116,14.116,0,0,1,.96-3.571c.126-.3.088-.466-.207-.627-.853-.471-1.685-.985-2.542-1.451-.371-.2-.455-.4-.221-.776.441-.71.867-1.431,1.254-2.172.221-.424.438-.435.815-.2.785.485,1.6.92,2.39,1.4.343.21.566.207.829-.14a12.625,12.625,0,0,1,2.512-2.5.468.468,0,0,0,.145-.736c-.48-.79-.932-1.6-1.395-2.395-.338-.583-.338-.583.268-.934.71-.41,1.426-.809,2.123-1.237.313-.193.487-.137.662.177.482.869,1,1.719,1.479,2.588a.449.449,0,0,0,.669.238,13.436,13.436,0,0,1,3.523-.941c.334-.042.433-.219.431-.527-.007-.958.01-1.917-.007-2.875-.009-.422.131-.594.571-.582.853.028,1.708.025,2.563,0,.412-.01.559.152.554.548-.01.923.012,1.848-.01,2.772-.012.459.151.625.62.687a12.473,12.473,0,0,1,3.267.885c.375.158.582.107.783-.273.459-.86.981-1.687,1.452-2.54.168-.3.328-.343.618-.17q1.164.7,2.355,1.356c.321.179.347.363.163.669-.512.852-.985,1.726-1.5,2.574a.439.439,0,0,0,.135.69,13.954,13.954,0,0,1,2.582,2.579.456.456,0,0,0,.706.124c.851-.512,1.724-.986,2.575-1.5.315-.193.48-.135.654.18q.644,1.167,1.335,2.307c.186.307.142.489-.173.666-.867.485-1.715,1-2.582,1.486a.445.445,0,0,0-.24.666,14.34,14.34,0,0,1,.964,3.57c.051.354.214.422.519.414.487-.014.976-.005,1.463-.005ZM716.983,363.9a12.056,12.056,0,1,0,12.1,11.828A12.089,12.089,0,0,0,716.983,363.9Z" transform="translate(20.303 13.103)" fill="#f9d61b"/>
    <path id="Path_2029" data-name="Path 2029" d="M725.727,367.493c.417,0,.836.014,1.253,0,.368-.018.533.1.536.5a34.043,34.043,0,0,1-.23,3.432c-.025.258-.145.371-.413.335-.946-.13-1.9-.249-2.842-.377-.28-.037-.373-.216-.347-.482.1-1.02.2-2.041.21-3.068,0-.287.189-.338.422-.336C724.786,367.495,725.255,367.493,725.727,367.493Z" transform="translate(45.734 23.052)" fill="#686969"/>
    <path id="Path_2030" data-name="Path 2030" d="M722.589,381.172a.381.381,0,0,1-.179.331,31.518,31.518,0,0,1-2.712,2.209c-.215.158-.364.144-.519-.077q-.823-1.177-1.659-2.344c-.147-.2-.163-.37.058-.531a25.186,25.186,0,0,0,2.384-1.95.278.278,0,0,1,.45.007q1.035,1.1,2.074,2.208A1.136,1.136,0,0,1,722.589,381.172Z" transform="translate(37.881 34.92)" fill="#686969"/>
    <path id="Path_2031" data-name="Path 2031" d="M703.77,355.3c0,.2-.14.258-.259.321a23.486,23.486,0,0,0-2.488,1.526c-.284.2-.459.13-.641-.133q-.786-1.138-1.6-2.255c-.173-.238-.154-.387.089-.554q1.422-.97,2.933-1.8c.279-.152.435-.1.576.179.415.822.848,1.636,1.272,2.453C703.7,355.132,703.739,355.23,703.77,355.3Z" transform="translate(18.056 5.087)" fill="#686969"/>
    <path id="Path_2032" data-name="Path 2032" d="M712.62,350.71a25.28,25.28,0,0,1,3.52.971c.212.077.229.235.163.424-.322.922-.65,1.84-.964,2.763-.091.273-.259.289-.487.208a25.827,25.827,0,0,0-2.864-.8c-.291-.067-.366-.2-.307-.477.193-.92.37-1.843.559-2.763C712.28,350.838,712.352,350.656,712.62,350.71Z" transform="translate(31.744 3.866)" fill="#686969"/>
    <path id="Path_2033" data-name="Path 2033" d="M725.47,377.435c-.033.063-.08.156-.135.245a32.723,32.723,0,0,1-1.924,2.722c-.193.247-.352.279-.6.075q-1.08-.9-2.183-1.775c-.228-.18-.252-.336-.072-.562a23.908,23.908,0,0,0,1.717-2.423c.126-.207.27-.308.51-.159.843.519,1.689,1.034,2.532,1.554C725.419,377.175,725.524,377.251,725.47,377.435Z" transform="translate(39.879 31.536)" fill="#686969"/>
    <path id="Path_2034" data-name="Path 2034" d="M702.063,381.068a2.6,2.6,0,0,1-.14.244c-.529.753-1.069,1.5-1.586,2.262-.193.282-.359.3-.632.105-.9-.659-1.754-1.367-2.588-2.1-.247-.217-.279-.391-.039-.641.636-.666,1.258-1.346,1.873-2.031a.366.366,0,0,1,.611-.026,24.1,24.1,0,0,0,2.3,1.875A.343.343,0,0,1,702.063,381.068Z" transform="translate(16.2 34.944)" fill="#686969"/>
    <path id="Path_2035" data-name="Path 2035" d="M724.127,357.853c.017.182-.091.252-.184.328-.725.6-1.456,1.191-2.174,1.8-.268.228-.443.161-.648-.084a18.113,18.113,0,0,0-1.9-2.017c-.275-.242-.315-.441-.033-.731.619-.636,1.212-1.3,1.806-1.959.215-.238.394-.289.648-.042q1.225,1.18,2.328,2.474A2.3,2.3,0,0,1,724.127,357.853Z" transform="translate(39.552 9.933)" fill="#686969"/>
    <path id="Path_2036" data-name="Path 2036" d="M727.153,372.883a28.547,28.547,0,0,1-1.228,3.43c-.1.214-.247.2-.429.123-.893-.389-1.785-.78-2.681-1.16-.259-.11-.272-.28-.177-.5a25.537,25.537,0,0,0,.979-2.75c.1-.322.275-.4.587-.3.867.256,1.74.491,2.609.738C727.023,372.517,727.23,372.585,727.153,372.883Z" transform="translate(44.911 27.502)" fill="#686969"/>
    <path id="Path_2037" data-name="Path 2037" d="M709.412,354.006c-.452,0-.906-.007-1.358,0-.289.007-.455-.075-.475-.4-.054-.92-.128-1.838-.2-2.756-.026-.342.138-.448.462-.468a21.414,21.414,0,0,1,3.285,0c.31.028.431.112.41.436-.06.9-.095,1.806-.137,2.71-.016.343-.173.5-.529.484C710.388,353.992,709.9,354.006,709.412,354.006Z" transform="translate(27.174 3.579)" fill="#686969"/>
    <path id="Path_2038" data-name="Path 2038" d="M693.2,367.563c.436,0,.871.009,1.307,0,.345-.009.513.123.506.489a18.164,18.164,0,0,0,.2,2.756c.047.35-.042.545-.448.59-.88.1-1.755.247-2.633.38-.315.047-.487-.044-.524-.394-.114-1.056-.207-2.111-.224-3.175-.007-.517.184-.685.671-.65C692.426,367.586,692.812,367.563,693.2,367.563Z" transform="translate(10.294 23.118)" fill="#686969"/>
    <path id="Path_2039" data-name="Path 2039" d="M692.062,372.914c-.046-.273.107-.357.284-.408.92-.259,1.845-.508,2.763-.773.263-.075.38.007.456.259a25.137,25.137,0,0,0,1.007,2.8c.114.259.067.414-.2.527-.865.366-1.729.741-2.584,1.13-.3.135-.44.053-.557-.233a27.049,27.049,0,0,1-1.118-3.147C692.089,373,692.069,372.937,692.062,372.914Z" transform="translate(11.037 27.528)" fill="#686969"/>
    <path id="Path_2040" data-name="Path 2040" d="M707.494,353.881c.035.326-.161.387-.349.428a23.661,23.661,0,0,0-2.8.8.353.353,0,0,1-.524-.245c-.314-.883-.629-1.768-.955-2.647-.1-.263-.051-.424.228-.522a30.233,30.233,0,0,1,3.357-.95c.186-.042.371-.019.419.2C707.086,351.936,707.294,352.94,707.494,353.881Z" transform="translate(22.404 3.882)" fill="#686969"/>
    <path id="Path_2041" data-name="Path 2041" d="M720.672,354.479c-.042.072-.088.165-.147.251-.527.755-1.063,1.5-1.58,2.267-.177.263-.336.291-.594.112a23.432,23.432,0,0,0-2.495-1.512c-.275-.144-.333-.307-.187-.582.431-.815.855-1.633,1.263-2.458.154-.31.326-.343.618-.182.972.54,1.929,1.107,2.85,1.733C720.523,354.192,720.684,354.258,720.672,354.479Z" transform="translate(35.944 5.054)" fill="#686969"/>
    <path id="Path_2042" data-name="Path 2042" d="M697.67,360.593c-.033.065-.079.159-.131.249a23.516,23.516,0,0,0-1.289,2.507c-.149.345-.329.385-.645.244q-1.238-.56-2.491-1.083c-.291-.121-.356-.266-.224-.559a31.03,31.03,0,0,1,1.563-3.012c.131-.226.273-.349.541-.184.829.513,1.664,1.016,2.5,1.524C697.595,360.343,697.7,360.411,697.67,360.593Z" transform="translate(11.862 13.82)" fill="#686969"/>
    <path id="Path_2043" data-name="Path 2043" d="M696.8,375.515c.18-.025.256.1.329.217a27.909,27.909,0,0,0,1.722,2.421.343.343,0,0,1-.06.568q-1.117.9-2.22,1.815a.306.306,0,0,1-.517-.056,33.732,33.732,0,0,1-2.018-2.849c-.112-.177-.186-.345.046-.485q1.29-.788,2.581-1.573A.825.825,0,0,1,696.8,375.515Z" transform="translate(13.042 31.564)" fill="#686969"/>
    <path id="Path_2044" data-name="Path 2044" d="M724.3,367.4c-.231.068-.368-.033-.415-.359a20.968,20.968,0,0,0-.592-2.807c-.1-.349.009-.5.354-.594.858-.224,1.712-.47,2.561-.729.349-.105.5-.012.589.342.279,1.062.494,2.136.689,3.215.065.363-.091.519-.424.562Z" transform="translate(45.417 18.212)" fill="#686969"/>
    <path id="Path_2045" data-name="Path 2045" d="M702.419,381.1c.105.046.221.088.329.14a21.3,21.3,0,0,0,2.5,1.069c.387.135.466.322.319.7-.313.813-.6,1.636-.874,2.462-.114.336-.275.424-.618.293-1.042-.4-2.064-.844-3.064-1.339-.282-.138-.352-.287-.2-.569.435-.815.852-1.638,1.279-2.458C702.154,381.262,702.212,381.1,702.419,381.1Z" transform="translate(20.216 37.405)" fill="#686969"/>
    <path id="Path_2046" data-name="Path 2046" d="M691.547,366.8a26.816,26.816,0,0,1,.717-3.548.331.331,0,0,1,.47-.265c.918.261,1.838.519,2.761.766.293.079.326.24.258.506a23.14,23.14,0,0,0-.573,2.8c-.038.3-.177.471-.52.419-.909-.138-1.82-.27-2.733-.385C691.645,367.066,691.491,366.981,691.547,366.8Z" transform="translate(10.478 18.313)" fill="#686969"/>
    <path id="Path_2047" data-name="Path 2047" d="M709.455,383.843c-.042.729-.089,1.458-.123,2.186-.018.377-.2.526-.571.48-1.086-.128-2.174-.242-3.248-.461-.317-.065-.438-.2-.361-.541.2-.9.394-1.8.561-2.705.058-.308.21-.371.47-.317.988.2,1.992.294,2.992.412.244.03.338.13.307.373-.023.189-.023.382-.033.573Z" transform="translate(24.818 38.775)" fill="#686969"/>
    <path id="Path_2048" data-name="Path 2048" d="M709.649,383.433c-.075-.322.1-.536.606-.585.9-.089,1.794-.231,2.688-.37.307-.049.449.054.508.35.18.906.371,1.808.562,2.71.063.3-.035.445-.345.5-1.095.207-2.2.34-3.306.464-.319.037-.478-.072-.5-.422C709.814,385.251,709.732,384.421,709.649,383.433Z" transform="translate(29.572 38.773)" fill="#686969"/>
    <path id="Path_2049" data-name="Path 2049" d="M716.907,381.1c.208-.04.27.1.333.217.443.848.878,1.7,1.326,2.54.14.265.06.415-.187.54a28.989,28.989,0,0,1-3.1,1.358c-.27.1-.45.091-.561-.231-.3-.888-.619-1.771-.943-2.651a.348.348,0,0,1,.24-.522c.932-.336,1.826-.764,2.723-1.179C716.8,381.142,716.867,381.118,716.907,381.1Z" transform="translate(33.959 37.4)" fill="#686969"/>
    <path id="Path_2050" data-name="Path 2050" d="M724.434,358.595c.215-.03.279.11.349.226a32.117,32.117,0,0,1,1.622,3.1c.117.245.04.384-.2.487q-1.293.557-2.581,1.135c-.275.124-.45.081-.575-.214a21.643,21.643,0,0,0-1.349-2.591.349.349,0,0,1,.131-.561c.806-.485,1.6-.981,2.406-1.473C724.311,358.658,724.388,358.619,724.434,358.595Z" transform="translate(44.18 13.727)" fill="#686969"/>
    <path id="Path_2051" data-name="Path 2051" d="M700.4,357.5a.4.4,0,0,1-.179.329,26.507,26.507,0,0,0-2.015,2.19c-.186.228-.349.228-.568.046q-1.088-.9-2.192-1.776a.338.338,0,0,1-.061-.564,29.667,29.667,0,0,1,2.39-2.554c.142-.138.287-.2.448-.028q1.041,1.1,2.08,2.2A.835.835,0,0,1,700.4,357.5Z" transform="translate(14.454 9.993)" fill="#686969"/>
    <path id="Path_2052" data-name="Path 2052" d="M711.575,377.494a6.886,6.886,0,0,1-6.927-6.894,6.961,6.961,0,1,1,13.923-.049A6.907,6.907,0,0,1,711.575,377.494Zm3.323-6.932a3.275,3.275,0,0,0-3.3-3.322,3.318,3.318,0,1,0,0,6.636A3.26,3.26,0,0,0,714.9,370.561Z" transform="translate(25.238 19.523)" fill="#f9d61b"/>
  </g>
</svg>
