<svg xmlns="http://www.w3.org/2000/svg" width="14.25" height="10.251" viewBox="0 0 14.25 10.251">
  <path id="Path_14728" data-name="Path 14728" d="M19.683,25.051a.2.2,0,0,0-.009-.041.97.97,0,0,0-.372-.632.954.954,0,0,0,.37-.748.989.989,0,0,0-.792-.948V19.607l.636-.213a.221.221,0,0,0,0-.424L12.858,16.7a.25.25,0,0,0-.161,0L5.989,18.971a.221.221,0,0,0,0,.424l2.426.806.337,3.923c.015.89,2.019,1.355,4,1.355s3.982-.465,4-1.354l.379-3.932,1.275-.426v2.916a.989.989,0,0,0-.793.948.954.954,0,0,0,.37.748.97.97,0,0,0-.372.631.231.231,0,0,0-.009.042l-.146,1.385a.217.217,0,0,0,.06.173.244.244,0,0,0,.176.074h1.9a.243.243,0,0,0,.176-.074.217.217,0,0,0,.06-.173Zm-6.907-7.9,5.953,2.032-5.953,1.991-6-1.991Zm3.5,6.945c0,.007,0,.014,0,.02,0,.373-1.373.915-3.524.915s-3.524-.542-3.524-.915c0-.006,0-.012,0-.018l-.32-3.731L12.7,21.622a.252.252,0,0,0,.158,0l3.781-1.265Zm1.811-.463a.556.556,0,1,1,.555.525A.541.541,0,0,1,18.088,23.63Zm-.134,2.6.116-1.1a.233.233,0,0,0,.008-.041.57.57,0,0,1,1.128,0,.2.2,0,0,0,.008.041l.116,1.1H17.954Z" transform="translate(-5.706 -16.558)" fill="#354b62" stroke="#354b63" stroke-width="0.25"/>
</svg>
