<?xml version="1.0" standalone="no"?>
<!DOCTYPE svg PUBLIC "-//W3C//DTD SVG 1.1//EN" "http://www.w3.org/Graphics/SVG/1.1/DTD/svg11.dtd" >
<svg xmlns="http://www.w3.org/2000/svg">
<metadata>Generated by IcoMoon</metadata>
<defs>
<font id="icomoon" horiz-adv-x="1024">
<font-face units-per-em="1024" ascent="960" descent="-64" />
<missing-glyph horiz-adv-x="1024" />
<glyph unicode="&#x20;" horiz-adv-x="512" d="" />
<glyph unicode="&#xe900;" glyph-name="Add" d="M981.332 490.668h-426.665v426.665c0 23.565-19.102 42.668-42.668 42.668s-42.668-19.102-42.668-42.668v-426.668h-426.665c-23.565 0.003-42.668-19.1-42.668-42.665s19.102-42.668 42.668-42.668h426.668v-426.668c0-23.565 19.102-42.668 42.668-42.668s42.668 19.103 42.668 42.668v426.668h426.668c23.565 0 42.668 19.102 42.668 42.668s-19.108 42.667-42.673 42.667z" />
<glyph unicode="&#xe901;" glyph-name="AddGroup" d="M592.93 286.805c-25.039 17.469-51.797 31.703-79.781 42.578 37.227 33.836 61.922 81.234 66.219 134.297 56.453 55.008 130.453 85.164 209.781 85.164 61.93 0 121.391-18.648 171.969-53.922 18.125-12.641 43.047-8.203 55.688 9.922 12.633 18.117 8.195 43.047-9.922 55.68-25.039 17.469-51.805 31.695-79.789 42.578 41.078 37.336 66.906 91.172 66.906 150.922 0 112.477-91.5 203.977-203.977 203.977-112.469 0-203.969-91.5-203.969-203.977 0-59.508 25.617-113.148 66.414-150.469-5.586-2.148-11.141-4.422-16.641-6.844-25.031-11.016-48.563-24.563-70.445-40.469-30.18 74.977-103.656 128.039-189.305 128.039-112.469 0-203.977-91.5-203.977-203.969 0-59.344 25.477-112.836 66.055-150.141-108.492-40.648-196.461-127.953-232.274-239.297-11.875-36.922-5.586-76.078 17.258-107.43 22.844-31.344 58.188-49.32 96.969-49.32h347.961c22.086 0 39.992 17.906 39.992 40 0 22.086-17.906 39.992-39.992 39.992h-347.961c-12.93 0-24.711 5.992-32.328 16.445s-9.711 23.508-5.758 35.82c39.531 122.906 160.094 208.742 293.18 208.742 61.922 0 121.391-18.648 171.969-53.922 18.117-12.641 43.047-8.195 55.688 9.922 12.633 18.117 8.195 43.047-9.93 55.68zM790.024 878.008c68.367 0 123.984-55.617 123.984-123.984 0-68.359-55.617-123.984-123.984-123.984-68.359 0-123.984 55.625-123.984 123.984 0 68.367 55.625 123.984 123.984 123.984zM376.078 604.297c68.367 0 123.984-55.625 123.984-123.984 0-68.367-55.617-123.984-123.984-123.984s-123.984 55.617-123.984 123.984c0 68.359 55.617 123.984 123.984 123.984zM1024 124.101c0-22.086-17.906-39.992-40-39.992h-109.984v-109.984c0-22.094-17.906-40-39.992-40-22.094 0-40 17.906-40 40v109.984h-109.984c-22.086 0-39.992 17.906-39.992 39.992 0 22.094 17.906 40 39.992 40h109.984v109.984c0 22.086 17.906 39.992 40 39.992 22.086 0 39.992-17.906 39.992-39.992v-109.984h109.984c22.094 0 40-17.906 40-40z" />
<glyph unicode="&#xe902;" glyph-name="AddUser" d="M735.14 446.182c-19.678 9.354-39.756 17.412-60.186 24.162 66.166 49.664 109.046 128.746 109.046 217.656 0 149.98-122.018 272-272 272s-272-122.020-272-272c0-89.008 42.976-168.168 109.266-217.822-60.736-19.996-117.726-51.11-167.606-92.138-91.464-75.234-155.058-180.172-179.064-295.486-7.524-36.132 1.49-73.244 24.726-101.816 23.122-28.432 57.408-44.738 94.064-44.738h492.614c22.092 0 40 17.908 40 40s-17.908 40-40 40h-492.614c-17.076 0-27.378 9.532-31.998 15.212-7.978 9.81-11.066 22.58-8.472 35.038 41.51 199.39 217.382 345.042 420.48 349.954 3.518-0.136 7.052-0.204 10.604-0.204 3.586 0 7.156 0.070 10.708 0.208 62.24-1.46 122.1-15.664 178.088-42.28 19.954-9.48 43.814-0.998 53.298 18.956 9.484 19.952 1 43.814-18.954 53.298zM521.756 496.246c-3.246 0.058-6.498 0.088-9.756 0.088-3.228 0-6.456-0.032-9.68-0.092-101.39 5.058-182.32 89.134-182.32 191.758 0 105.87 86.13 192 192 192s192-86.13 192-192c0-102.598-80.89-186.658-182.244-191.754zM984 166h-110v110c0 22.092-17.908 40-40 40s-40-17.908-40-40v-110h-110c-22.092 0-40-17.908-40-40s17.908-40 40-40h110v-110c0-22.092 17.908-40 40-40s40 17.908 40 40v110h110c22.092 0 40 17.908 40 40s-17.908 40-40 40z" />
<glyph unicode="&#xe903;" glyph-name="Assessment" d="M881.237 721.995l-216.332 216.332c-13.123 13.123-30.621 20.48-49.311 20.48h-422.922c-38.375 0-69.791-31.416-69.791-69.99v-882.628c0-38.574 31.416-69.99 69.99-69.99h639.056c38.574 0 69.99 31.416 69.99 69.99v666.495c-0.199 18.69-7.556 36.188-20.679 49.311zM799.515 719.211h-127.453c-5.567 0-9.942 4.573-9.942 9.942v127.453l137.395-137.395zM831.727-3.753h-639.056c-5.567 0-9.942 4.573-9.942 9.942v882.628c0 5.567 4.573 9.942 9.942 9.942h409.401v-169.805c0-38.574 31.416-69.99 69.99-69.99h169.805v-652.974c0-5.369-4.573-9.743-10.141-9.743zM544.41 501.487h190.882c16.503 0 30.024 13.322 30.024 30.024s-13.322 30.024-30.024 30.024h-190.882c-16.503 0-30.024-13.322-30.024-30.024s13.521-30.024 30.024-30.024v0zM544.41 301.856h190.882c16.503 0 30.024 13.322 30.024 30.024s-13.322 30.024-30.024 30.024h-190.882c-16.503 0-30.024-13.322-30.024-30.024s13.521-30.024 30.024-30.024v0zM736.087 162.075h-191.677c-16.503 0-30.024-13.322-30.024-30.024 0-16.503 13.322-30.024 30.024-30.024h191.677c16.503 0 30.024 13.322 30.024 30.024 0 16.503-13.521 30.024-30.024 30.024zM394.886 613.033l-68.996-68.996-16.304 16.304c-11.731 11.731-30.621 11.731-42.352 0s-11.731-30.621 0-42.352l37.381-37.381c5.766-5.766 13.521-8.749 21.275-8.749s15.31 2.983 21.275 8.749l90.271 90.271c11.731 11.731 11.731 30.621 0 42.352-11.731 11.532-30.819 11.532-42.551-0.199v0zM394.886 398.092l-68.996-68.996-16.304 16.304c-11.731 11.731-30.621 11.731-42.352 0s-11.731-30.621 0-42.352l37.381-37.381c5.766-5.766 13.521-8.749 21.275-8.749s15.31 2.983 21.275 8.749l90.271 90.271c11.731 11.731 11.731 30.621 0 42.352-11.731 11.532-30.819 11.532-42.551-0.199v0zM394.886 198.263l-68.996-68.996-16.304 16.304c-11.731 11.731-30.621 11.731-42.352 0s-11.731-30.621 0-42.352l37.381-37.381c5.766-5.766 13.521-8.749 21.275-8.749s15.31 2.983 21.275 8.749l90.271 90.271c11.731 11.731 11.731 30.621 0 42.352-11.731 11.532-30.819 11.532-42.551-0.199v0z" />
<glyph unicode="&#xe904;" glyph-name="AssessmentPlatform" d="M337.8 653.8c4-4 9-5.8 14.2-5.8s10.2 2 14.2 5.8l72 72c7.8 7.8 7.8 20.4 0 28.2s-20.4 7.8-28.2 0l-58-57.8-17.8 17.8c-7.8 7.8-20.4 7.8-28.2 0s-7.8-20.4 0-28.2l31.8-32zM337.8 533.8c4-4 9-5.8 14.2-5.8s10.2 2 14.2 5.8l72 72c7.8 7.8 7.8 20.4 0 28.2s-20.4 7.8-28.2 0l-58-57.8-17.8 17.8c-7.8 7.8-20.4 7.8-28.2 0s-7.8-20.4 0-28.2l31.8-32zM337.8 413.8c4-4 9-5.8 14.2-5.8s10.2 2 14.2 5.8l72 72c7.8 7.8 7.8 20.4 0 28.2s-20.4 7.8-28.2 0l-58-57.8-17.8 17.8c-7.8 7.8-20.4 7.8-28.2 0s-7.8-20.4 0-28.2l31.8-32zM337.8 293.8c4-4 9-5.8 14.2-5.8s10.2 2 14.2 5.8l72 72c7.8 7.8 7.8 20.4 0 28.2s-20.4 7.8-28.2 0l-58-57.8-17.8 17.8c-7.8 7.8-20.4 7.8-28.2 0s-7.8-20.4 0-28.2l31.8-32zM472 648h240c11 0 20 9 20 20s-9 20-20 20h-240c-11 0-20-9-20-20s9-20 20-20zM472 528h240c11 0 20 9 20 20s-9 20-20 20h-240c-11 0-20-9-20-20s9-20 20-20zM472 408h240c11 0 20 9 20 20s-9 20-20 20h-240c-11 0-20-9-20-20s9-20 20-20zM472 288h240c11 0 20 9 20 20s-9 20-20 20h-240c-11 0-20-9-20-20s9-20 20-20zM602-32h322c55.2 0 100 44.8 100 100 0 11-9 20-20 20v0h-60v420c0 33-27 60-60 60h-72v180c0 5.4-2.2 10.6-5.8 14.2l-160 160c-3.6 3.6-8.6 5.8-14.2 5.8h-400c-11 0-20-9-20-20v-340h-72c-33 0-60-27-60-60v-420h-60c-11 0-20-9-20-20 0-55.2 44.8-100 100-100h502zM422 8h-322c-26 0-48.4 16.8-56.6 40h937.2c-8.2-23.4-30.4-40-56.6-40h-502zM652 859.8l91.8-91.8h-91.8v91.8zM252 888h360v-140c0-11 9-20 20-20h140v-560h-520v720zM120 508c0 11 9 20 20 20h72v-380c0-11 9-20 20-20h560c11 0 20 9 20 20v380h72c11 0 20-9 20-20v-420h-784v420z" />
<glyph unicode="&#xe905;" glyph-name="AssessmentTick" d="M309.248 595.456h386.662c8.192 0 14.746 6.554 14.746 14.746s-6.554 14.746-14.746 14.746h-386.662c-8.192 0-14.746-6.554-14.746-14.746s6.554-14.746 14.746-14.746zM309.248 508.211h137.626c8.192 0 14.746 6.554 14.746 14.746s-6.554 14.746-14.746 14.746h-137.626c-8.192 0-14.746-6.554-14.746-14.746s6.554-14.746 14.746-14.746v0zM309.248 246.067h221.184c8.192 0 14.746 6.554 14.746 14.746s-6.554 14.746-14.746 14.746h-221.184c-8.192 0-14.746-6.554-14.746-14.746s6.554-14.746 14.746-14.746zM383.795 708.096h237.978c8.192 0 14.746 6.554 14.746 14.746s-6.554 14.746-14.746 14.746h-237.978c-8.192 0-14.746-6.554-14.746-14.746s6.554-14.746 14.746-14.746zM936.755 285.798l-25.395-25.395v3.686c0 13.517-11.059 24.576-24.576 24.576h-29.491v30.31h29.491c13.517 0 24.576 11.059 24.576 24.576v24.576c0 8.192-6.554 14.746-14.746 14.746s-14.746-6.554-14.746-14.746v-19.251h-188.826v188.826h188.826v-28.262l-81.51-81.51-53.248 53.248c-5.734 5.734-15.155 5.734-20.89 0s-5.734-15.155 0-20.89l63.898-63.898c2.867-2.867 6.554-4.506 10.65-4.506 3.686 0 7.782 1.638 10.65 4.506l70.861 70.861v-29.901c0-8.192 6.554-14.746 14.746-14.746s14.746 6.554 14.746 14.746v59.802l46.285 46.285c5.734 5.734 5.734 15.155 0 20.89s-15.155 5.734-20.89 0l-25.395-25.395v3.686c0 13.517-11.059 24.576-24.576 24.576h-29.491v279.347c0 11.469-9.421 20.89-20.89 20.89h-64.307v64.307c0 11.469-9.421 20.89-20.89 20.89h-667.648c-11.469 0-20.89-9.421-20.89-20.89v-887.194c0-11.469 9.421-20.89 20.89-20.89h64.307v-64.307c0-11.469 9.421-20.89 20.89-20.89h667.648c11.469 0 20.89 9.421 20.89 20.89v81.101h29.491c13.517 0 24.576 11.059 24.576 24.576v153.6l46.285 46.285c5.734 5.734 5.734 15.155 0 20.89-6.144 5.734-15.565 5.734-21.299 0v0zM881.869 230.912l-81.51-81.51-53.248 53.248c-5.734 5.734-15.155 5.734-20.89 0s-5.734-15.155 0-20.89l63.898-63.898c2.867-2.867 6.554-4.506 10.65-4.506 3.686 0 7.782 1.638 10.65 4.506l70.861 70.861v-118.374h-61.030c-8.192 0-14.746-6.554-14.746-14.746s6.554-14.746 14.746-14.746h6.144v-72.090h-649.626v868.762h136.806c8.192 0 14.746 6.554 14.746 14.746s-6.554 14.746-14.746 14.746h-145.408c-11.469 0-20.89-9.421-20.89-20.89v-792.986h-55.706v869.581h650.035v-55.296h-358.81c-8.192 0-14.746-6.554-14.746-14.746s6.554-14.746 14.746-14.746h444.006v-269.926h-139.674c-13.517 0-24.576-11.059-24.576-24.576v-4.915h-160.563c-8.192 0-14.746-6.554-14.746-14.746s6.554-14.746 14.746-14.746h160.563v-57.754h-354.304c-8.192 0-14.746-6.554-14.746-14.746s6.554-14.746 14.746-14.746h353.894v-57.754h-353.894c-8.192 0-14.746-6.554-14.746-14.746s6.554-14.746 14.746-14.746h356.352c4.096-8.192 12.288-14.336 22.528-14.336h139.674v-30.31h-139.674c-9.421 0-17.613-5.325-21.709-13.107h-80.282c-8.192 0-14.746-6.554-14.746-14.746s6.554-14.746 14.746-14.746h77.414v-57.754h-354.304c-8.192 0-14.746-6.554-14.746-14.746s6.554-14.746 14.746-14.746h353.894v-57.754h-353.894c-8.192 0-14.746-6.554-14.746-14.746s6.554-14.746 14.746-14.746h353.894v-5.734c0-13.517 11.059-24.576 24.576-24.576h64.307c8.192 0 14.746 6.554 14.746 14.746s-6.554 14.746-14.746 14.746h-59.392v188.826h188.826l0.41-29.901z" />
<glyph unicode="&#xe906;" glyph-name="AssessmentView" d="M339.149 695.398c-77.005 0-139.674-62.669-139.674-139.674s62.669-139.674 139.674-139.674 139.674 62.669 139.674 139.674-62.669 139.674-139.674 139.674v0zM339.149 459.878c-52.838 0-96.256 43.008-96.256 96.256s43.008 96.256 96.256 96.256 96.256-43.008 96.256-96.256-43.008-96.256-96.256-96.256zM349.798 589.722l-17.613-17.613-6.144 3.277c-10.24 5.734-23.757 2.048-29.491-8.192s-2.048-23.757 8.192-29.491l20.48-11.469c3.277-2.048 6.963-2.867 10.65-2.867 5.734 0 11.059 2.048 15.155 6.144l29.082 29.082c8.602 8.602 8.602 22.118 0 30.72-8.192 8.602-22.118 8.602-30.31 0.41v0zM802.406 545.485h-265.421c-11.878 0-21.709-9.83-21.709-21.709s9.83-21.709 21.709-21.709h265.421c11.878 0 21.709 9.83 21.709 21.709s-9.421 21.709-21.709 21.709zM536.986 631.91c-11.878 0-21.709-9.83-21.709-21.709s9.83-21.709 21.709-21.709h172.442c11.878 0 21.709 9.83 21.709 21.709s-9.83 21.709-21.709 21.709h-172.442zM339.149 332.083c-77.005 0-139.674-62.669-139.674-139.674s62.669-139.674 139.674-139.674 139.674 62.669 139.674 139.674-62.669 139.674-139.674 139.674zM339.149 96.563c-52.838 0-96.256 43.008-96.256 96.256 0 52.838 43.008 96.256 96.256 96.256s96.256-43.008 96.256-96.256c0-53.248-43.008-96.256-96.256-96.256zM349.798 226.406l-17.613-17.613-6.144 3.277c-10.24 5.734-23.757 2.048-29.491-8.192s-2.048-23.757 8.192-29.491l20.48-11.469c3.277-2.048 6.963-2.867 10.65-2.867 5.734 0 11.059 2.048 15.155 6.144l29.082 29.082c8.602 8.602 8.602 22.118 0 30.72-8.192 9.011-22.118 9.011-30.31 0.41v0zM802.406 182.17h-265.421c-11.878 0-21.709-9.83-21.709-21.709s9.83-21.709 21.709-21.709h265.421c11.878 0 21.709 9.83 21.709 21.709s-9.421 21.709-21.709 21.709zM536.986 225.178h172.442c11.878 0 21.709 9.83 21.709 21.709s-9.83 21.709-21.709 21.709h-172.442c-11.878 0-21.709-9.83-21.709-21.709s9.83-21.709 21.709-21.709zM868.762 956.723h-713.114c-31.949 0-57.754-26.214-57.754-57.754v-904.397c0-31.949 25.805-57.754 57.754-57.754h713.114c31.949 0 57.754 25.805 57.754 57.754v904.397c0 31.539-26.214 57.754-57.754 57.754v0zM883.098-5.427c0-7.782-6.554-14.336-14.336-14.336h-713.114c-7.782 0-14.336 6.554-14.336 14.336v904.397c0 7.782 6.554 14.336 14.336 14.336h713.114c7.782 0 14.336-6.554 14.336-14.336v-904.397zM291.635 765.85h440.73c11.878 0 21.709 9.83 21.709 21.709s-9.83 21.709-21.709 21.709h-440.73c-11.878 0-21.709-9.83-21.709-21.709 0-12.288 9.83-21.709 21.709-21.709z" />
<glyph unicode="&#xe907;" glyph-name="Back" d="M334.018 797.137c14.436 14.436 37.164 14.436 51.6 0 13.949-13.949 13.949-37.164 0-51.080l-261.641-261.641h863.38c20.126 0 36.643-15.997 36.643-36.123s-16.517-36.643-36.643-36.643h-863.38l261.641-261.153c13.949-14.436 13.949-37.684 0-51.6-14.436-14.436-37.164-14.436-51.6 0l-323.581 323.581c-13.949 13.949-13.949 37.164 0 51.080l323.581 323.581z" />
<glyph unicode="&#xe908;" glyph-name="Badge" d="M512 960c-222.596 0-403.692-181.094-403.692-403.692 0-138.726 70.344-261.324 177.23-334.022v-256.746c0-10.024 5.082-19.364 13.5-24.804 8.414-5.442 19.018-6.242 28.16-2.132l184.802 83.158 184.802-83.16c3.87-1.74 8-2.602 12.118-2.602 5.608 0 11.188 1.596 16.042 4.734 8.416 5.442 13.5 14.782 13.5 24.804v256.746c106.886 72.698 177.23 195.296 177.23 334.022 0 222.6-181.096 403.694-403.692 403.694zM679.384 11.22l-155.264 69.868c-3.854 1.736-7.988 2.604-12.12 2.604s-8.266-0.866-12.12-2.602l-155.264-69.868v177.67c14.846-6.768 30.084-12.584 45.61-17.49 0.88-0.28 1.758-0.566 2.642-0.838 1.982-0.61 3.97-1.198 5.96-1.776 1.474-0.432 2.948-0.86 4.426-1.276 1.606-0.448 3.218-0.882 4.83-1.31 1.88-0.502 3.764-0.992 5.654-1.468 1.336-0.334 2.674-0.662 4.014-0.98 2.174-0.522 4.354-1.026 6.542-1.512 1.134-0.252 2.27-0.502 3.406-0.744 2.396-0.512 4.8-0.996 7.214-1.466 0.982-0.19 1.964-0.384 2.948-0.568 2.556-0.476 5.122-0.922 7.694-1.35 0.882-0.148 1.764-0.3 2.648-0.44 2.654-0.424 5.32-0.814 7.994-1.184 0.828-0.114 1.654-0.238 2.482-0.348 2.706-0.358 5.424-0.68 8.144-0.984 0.812-0.090 1.62-0.192 2.432-0.28 2.714-0.288 5.438-0.534 8.168-0.766 0.828-0.070 1.652-0.156 2.482-0.22 2.69-0.212 5.392-0.382 8.098-0.542 0.868-0.052 1.732-0.12 2.604-0.166 2.734-0.144 5.478-0.242 8.226-0.33 0.828-0.028 1.65-0.072 2.478-0.094 3.552-0.092 7.116-0.144 10.692-0.144 3.574 0 7.138 0.052 10.69 0.144 0.828 0.022 1.65 0.066 2.478 0.094 2.748 0.088 5.492 0.188 8.226 0.33 0.868 0.046 1.734 0.114 2.604 0.166 2.706 0.16 5.408 0.328 8.098 0.542 0.83 0.064 1.654 0.15 2.482 0.22 2.73 0.232 5.454 0.48 8.168 0.766 0.812 0.086 1.62 0.188 2.432 0.28 2.722 0.306 5.438 0.626 8.144 0.984 0.83 0.11 1.654 0.232 2.482 0.348 2.672 0.37 5.338 0.76 7.994 1.184 0.884 0.142 1.764 0.294 2.648 0.44 2.572 0.428 5.138 0.874 7.694 1.35 0.984 0.184 1.966 0.376 2.948 0.568 2.412 0.468 4.816 0.956 7.214 1.466 1.138 0.242 2.272 0.492 3.406 0.744 2.188 0.486 4.368 0.99 6.542 1.512 1.338 0.32 2.676 0.648 4.014 0.98 1.89 0.474 3.772 0.964 5.654 1.468 1.612 0.43 3.224 0.86 4.83 1.31 1.478 0.416 2.954 0.844 4.426 1.276 1.99 0.58 3.98 1.166 5.96 1.776 0.884 0.274 1.762 0.56 2.642 0.838 15.526 4.906 30.764 10.72 45.61 17.488v-177.67zM624.458 230.552c-1.178-0.406-2.356-0.814-3.538-1.208-1.796-0.6-3.6-1.19-5.41-1.76-2.106-0.662-4.218-1.3-6.336-1.92-1.494-0.44-2.99-0.878-4.492-1.298-2.802-0.782-5.614-1.53-8.436-2.24-1.052-0.266-2.108-0.518-3.162-0.774-2.762-0.668-5.536-1.304-8.316-1.904-0.7-0.152-1.394-0.312-2.094-0.456-3.588-0.75-7.188-1.448-10.802-2.082-0.368-0.064-0.738-0.12-1.108-0.186-3.256-0.562-6.522-1.072-9.794-1.538-0.738-0.106-1.476-0.21-2.218-0.312-3.49-0.474-6.986-0.91-10.494-1.278-0.132-0.014-0.264-0.032-0.396-0.046-3.672-0.382-7.358-0.696-11.048-0.958-0.8-0.058-1.604-0.1-2.406-0.154-2.87-0.186-5.74-0.332-8.618-0.448-0.978-0.040-1.956-0.080-2.934-0.112-3.614-0.11-7.232-0.186-10.856-0.186s-7.242 0.074-10.856 0.19c-0.98 0.030-1.958 0.072-2.934 0.112-2.878 0.114-5.748 0.262-8.618 0.448-0.802 0.052-1.604 0.096-2.406 0.154-3.69 0.264-7.374 0.578-11.048 0.958-0.132 0.014-0.264 0.032-0.396 0.046-3.508 0.368-7.004 0.804-10.494 1.278-0.738 0.1-1.476 0.204-2.216 0.312-3.274 0.468-6.54 0.976-9.796 1.538-0.368 0.062-0.738 0.12-1.108 0.186-3.614 0.634-7.216 1.334-10.802 2.082-0.698 0.146-1.394 0.308-2.094 0.456-2.78 0.598-5.554 1.236-8.316 1.904-1.056 0.256-2.112 0.508-3.162 0.774-2.822 0.708-5.634 1.46-8.436 2.24-1.502 0.42-2.998 0.858-4.492 1.298-2.116 0.622-4.23 1.258-6.338 1.92-1.81 0.572-3.612 1.16-5.41 1.76-1.184 0.394-2.362 0.802-3.538 1.208-134.968 46.722-232.156 175.094-232.156 325.752 0 190.020 154.594 344.616 344.616 344.616s344.616-154.594 344.616-344.616c0-150.658-97.19-279.030-232.158-325.756zM687.244 556.308l55.482 104.28c4.788 8.994 4.598 19.82-0.496 28.642s-14.376 14.4-24.558 14.752l-118.050 4.090-62.568 100.188c-5.398 8.64-14.866 13.892-25.054 13.892s-19.656-5.252-25.054-13.892l-62.566-100.188-118.050-4.090c-10.182-0.352-19.464-5.93-24.558-14.752s-5.284-19.648-0.496-28.642l55.482-104.28-55.482-104.28c-4.788-8.994-4.598-19.82 0.496-28.642s14.376-14.4 24.558-14.752l118.050-4.090 62.566-100.188c5.396-8.64 14.866-13.892 25.054-13.892s19.656 5.252 25.054 13.892l62.566 100.188 118.050 4.090c10.182 0.352 19.464 5.93 24.558 14.752s5.284 19.648 0.496 28.642l-55.48 104.28zM581.87 463.042c-9.818-0.34-18.828-5.542-24.030-13.876l-45.84-73.402-45.838 73.4c-5.204 8.334-14.212 13.534-24.030 13.876l-86.484 2.998 40.646 76.396c4.616 8.674 4.616 19.074 0 27.748l-40.646 76.396 86.484 2.998c9.818 0.34 18.828 5.542 24.030 13.876l45.838 73.398 45.838-73.4c5.204-8.334 14.212-13.534 24.030-13.876l86.484-2.998-40.646-76.396c-4.614-8.674-4.614-19.076 0.002-27.748l40.646-76.396-86.484-2.994z" />
<glyph unicode="&#xe909;" glyph-name="Bank" d="M511.955 820.409c-51.364 0-93.138-41.773-93.138-93.138s41.773-93.135 93.138-93.135c51.364 0 93.135 41.773 93.135 93.135s-41.773 93.138-93.135 93.138zM511.955 680.681c-25.682 0-46.591 20.908-46.591 46.591s20.908 46.591 46.591 46.591c25.682 0 46.591-20.908 46.591-46.591s-20.908-46.591-46.591-46.591zM1000.729 541.091c12.864 0 23.273 10.346 23.273 23.208v93.081c0 8.204-4.318 15.816-11.387 19.999l-455.252 270.358c-0.205 0.137-0.41 0.251-0.613 0.364-28.296 15.681-60.205 16.156-90.138-0.319l-455.226-270.404c-7.069-4.18-11.387-11.795-11.387-19.999v-93.081c0-12.862 10.409-23.208 23.273-23.208h69.818v-418.929c-51.343 0-93.092-41.745-93.092-93.081v-69.812c0-12.862 10.409-23.271 23.273-23.271h977.455c12.864 0 23.273 10.407 23.273 23.271v69.812c0 51.336-41.749 93.081-93.092 93.081v418.929h69.818zM977.455 29.090v-46.545h-930.91v46.545c0 25.658 20.887 46.545 46.545 46.545h837.821c25.658 0.002 46.545-20.884 46.545-46.545zM139.636 122.181v418.909h93.092v-418.909h-93.092zM279.273 122.181v418.909h139.636v-418.909h-139.636zM465.454 122.181v418.909h93.092v-418.909h-93.092zM605.091 122.181v418.909h139.636v-418.909h-139.636zM791.274 122.181v418.909h93.092v-418.909h-93.092zM46.545 587.635v56.568l443.16 263.274c14.5 7.977 29.908 7.955 44.228 0.159l443.522-263.433v-56.568h-930.91z" />
<glyph unicode="&#xe90a;" glyph-name="Basket" d="M944 56c0-22.092-17.908-40-40-40h-40v-40c0-22.092-17.908-40-40-40s-40 17.908-40 40v40h-40c-22.092 0-40 17.908-40 40s17.908 40 40 40h40v40c0 22.092 17.908 40 40 40s40-17.908 40-40v-40h40c22.092 0 40-17.908 40-40zM944 680v-384c0-22.092-17.908-40-40-40s-40 17.908-40 40v344h-80v-120c0-22.092-17.908-40-40-40s-40 17.908-40 40v120h-384v-120c0-22.092-17.908-40-40-40s-40 17.908-40 40v120h-80v-624h424c22.092 0 40-17.908 40-40s-17.908-40-40-40h-464c-22.092 0-40 17.908-40 40v704c0 22.092 17.908 40 40 40h121.892c15.89 134.954 130.954 240 270.108 240s254.218-105.046 270.108-240h121.892c22.092 0 40-17.908 40-40zM701.318 720c-15.28 90.69-94.352 160-189.318 160s-174.038-69.31-189.318-160z" />
<glyph unicode="&#xe90b;" glyph-name="Bell" d="M822 434.276v95.724c0 139.644-92.822 258.002-220 296.66v43.34c0 49.626-40.374 90-90 90s-90-40.374-90-90v-43.34c-127.18-38.658-220-157.014-220-296.66v-95.724c0-122.664-46.756-238.976-131.654-327.512-8.32-8.676-10.658-21.478-5.942-32.534s15.576-18.23 27.596-18.23h273.018c13.936-68.384 74.544-120 146.982-120 72.44 0 133.044 51.616 146.982 120h273.018c12.020 0 22.878 7.174 27.594 18.23s2.378 23.858-5.94 32.534c-84.898 88.536-131.654 204.85-131.654 327.512zM482 870c0 16.542 13.458 30 30 30s30-13.458 30-30v-31.456c-9.874 0.952-19.88 1.456-30 1.456s-20.126-0.504-30-1.456zM512-4c-39.11 0-72.456 25.082-84.84 60h169.68c-12.384-34.918-45.73-60-84.84-60zM156.66 116c68.322 91.584 105.34 202.416 105.34 318.276v95.724c0 137.85 112.15 250 250 250s250-112.15 250-250v-95.724c0-115.86 37.018-226.692 105.342-318.276zM902 530c0-16.568 13.432-30 30-30s30 13.432 30 30c0 120.2-46.808 233.206-131.802 318.2-11.714 11.714-30.71 11.716-42.426 0s-11.716-30.71 0-42.426c73.662-73.662 114.228-171.6 114.228-275.774zM92 500c16.568 0 30 13.432 30 30 0 104.172 40.568 202.11 114.228 275.772 11.716 11.716 11.716 30.71 0 42.426-11.714 11.716-30.71 11.716-42.426 0-84.994-84.994-131.802-197.998-131.802-318.198 0-16.568 13.432-30 30-30z" />
<glyph unicode="&#xe90c;" glyph-name="Benchmark" d="M766.488-33.107c-20.091 109.097-6.481 221.651 39.318 322.538l-38.886 17.283c-46.231-102.616-62.218-216.466-45.583-327.939h-413.489l54.441 163.538c1.296 3.889 1.512 7.993 0.432 11.882-2.808 11.45-14.474 18.363-25.708 15.554-0.864-0.216-80.149-19.443-137.181-0.432-41.695 13.826-38.022 119.035-29.813 167.858 0.216 1.080 0.216 2.376 0.216 3.673 0 11.666-9.505 21.387-21.387 21.171h-76.908c-15.338 0-27.652 12.314-27.652 27.652 0 5.617 1.728 11.018 4.753 15.554l107.153 157.705c3.241 4.753 4.321 10.586 3.241 16.203-12.53 76.692 6.913 155.328 53.792 217.546 64.162 78.852 178.66 118.819 340.469 118.819v42.343c-174.987 0-300.719-45.151-373.306-134.373-53.792-69.131-76.908-157.273-64.378-243.686l-102.184-150.792c-7.777-11.666-12.098-25.276-12.098-39.102 0-38.886 31.325-70.211 70.211-70.427h52.928c-5.617-52.712-9.289-166.778 61.786-190.542 40.398-11.234 82.741-13.61 124.219-7.129l-52.712-157.489c-0.648-2.16-1.080-4.537-1.080-6.697 0-11.666 9.505-21.387 21.387-21.171h467.929c1.296 0 2.592 0.216 3.889 0.432 11.45 2.16 19.227 13.394 17.067 24.844l-0.864 5.185zM491.045 255.514h42.559v-42.559h-42.559v42.559zM533.603 170.397h42.559v-42.559h-42.559v42.559zM576.162 85.279h42.559v-42.559h-42.559v42.559zM661.279 787.605c-105.857 0-191.622-85.765-191.622-191.622s85.765-191.622 191.622-191.622c105.641 0.216 191.406 85.765 191.622 191.622 0 105.857-85.765 191.622-191.622 191.622zM661.279 447.136c-82.309 0-149.063 66.754-149.063 149.063s66.754 149.063 149.063 149.063c82.309 0 148.847-66.754 149.063-149.063 0-82.309-66.754-149.063-149.063-149.063zM576.162 596.199h-42.559c0-70.427 57.249-127.676 127.676-127.676v42.559c-46.879 0-85.117 38.022-85.117 85.117zM661.279 723.875v-42.559c47.095 0 85.117-38.022 85.117-85.117h42.559c0 70.427-57.033 127.46-127.676 127.676zM1005.421 659.713l-78.42 13.178c-5.833 19.875-13.61 38.886-23.764 57.033l46.231 64.81c6.049 8.425 5.185 20.091-2.376 27.436l-60.273 60.273c-7.345 7.345-19.011 8.425-27.436 2.376l-64.81-46.231c-17.931 9.938-37.158 17.931-56.817 23.764l-12.962 78.42c-1.728 10.154-10.586 17.715-20.955 17.715h-85.117c-10.37 0-19.227-7.561-20.955-17.715l-12.962-78.42c-19.875-5.833-38.886-13.61-57.033-23.764l-64.81 46.231c-8.425 6.049-20.091 5.185-27.436-2.376l-60.273-60.273c-7.345-7.345-8.425-19.011-2.376-27.436l46.231-64.81c-9.938-17.931-17.931-37.158-23.764-56.817l-78.42-13.178c-10.154-1.728-17.715-10.586-17.715-20.955v-85.117c0-10.37 7.561-19.227 17.715-20.955l78.42-13.178c5.833-19.875 13.61-38.886 23.764-57.033l-46.231-64.81c-6.049-8.425-5.185-20.091 2.376-27.436l60.273-60.273c7.345-7.345 19.011-8.425 27.436-2.376l64.81 46.231c17.931-9.938 37.158-17.931 56.817-23.764l12.962-78.42c1.728-10.154 10.586-17.715 20.955-17.715h85.117c10.37 0 19.227 7.561 20.955 17.715l13.178 78.42c19.875 5.833 38.886 13.61 57.033 23.764l64.81-46.231c8.425-6.049 20.091-5.185 27.436 2.376l60.273 60.273c7.345 7.345 8.425 19.011 2.376 27.436l-46.231 64.81c9.938 17.931 17.931 37.158 23.764 56.817l78.42 13.178c10.154 1.728 17.715 10.586 17.715 20.955v85.117c-0.216 10.37-7.777 19.227-17.931 20.955zM980.577 571.571l-74.316-12.53c-8.425-1.512-15.338-7.777-17.283-16.203-5.833-24.844-15.77-48.608-29.165-70.211-4.537-7.345-4.321-16.635 0.648-23.548l43.855-61.354-34.565-34.781-61.354 43.855c-6.913 4.969-16.419 5.185-23.548 0.648-21.603-13.61-45.367-23.332-70.211-29.165-8.425-1.944-14.69-8.641-16.203-17.283l-12.314-74.316h-49.040l-12.53 74.316c-1.512 8.425-7.777 15.338-16.203 17.283-24.844 5.833-48.608 15.77-70.211 29.165-7.345 4.537-16.635 4.321-23.548-0.648l-61.354-43.855-34.781 34.781 43.855 61.354c4.969 6.913 5.185 16.419 0.648 23.548-13.61 21.603-23.332 45.367-29.165 70.211-1.944 8.425-8.641 14.69-17.283 16.203l-74.316 12.314v49.040l74.316 12.53c8.425 1.512 15.338 7.777 17.283 16.203 5.833 24.844 15.77 48.608 29.165 70.211 4.537 7.345 4.321 16.635-0.648 23.548l-44.071 61.57 34.781 34.781 61.354-43.855c6.913-4.969 16.419-5.185 23.548-0.648 21.603 13.61 45.367 23.332 70.211 29.165 8.425 1.944 14.69 8.641 16.203 17.283l12.314 74.316h49.256l12.53-74.316c1.512-8.425 7.777-15.338 16.203-17.283 24.844-5.833 48.608-15.77 70.211-29.165 7.345-4.537 16.635-4.321 23.548 0.648l61.354 43.639 34.781-34.565-43.855-61.354c-4.969-6.913-5.185-16.419-0.648-23.548 13.61-21.603 23.332-45.367 29.165-70.211 1.944-8.425 8.641-14.69 17.283-16.203l74.316-12.314-0.216-49.256z" />
<glyph unicode="&#xe90d;" glyph-name="Booked" d="M912.998 847.77h-109.363v72.909c0 20.070-16.384 36.454-36.454 36.454s-36.454-16.384-36.454-36.454v-72.909h-436.634v72.909c0 20.070-16.384 36.454-36.454 36.454s-36.454-16.384-36.454-36.454v-72.909h-108.954c-60.211 0-109.363-48.742-109.363-108.954v-691.405c0-60.211 48.742-109.363 109.363-109.363h800.768c60.211 0 109.363 48.742 109.363 109.363v691.405c-0.41 60.211-49.152 108.954-109.363 108.954zM949.043 47.411c0-20.070-16.384-36.454-36.454-36.454h-800.358c-20.070 0-36.454 16.384-36.454 36.454v473.088h873.267v-473.088zM949.043 592.998h-873.267v145.818c0 20.070 16.384 36.454 36.454 36.454h108.954v-72.909c0-20.070 16.384-36.454 36.454-36.454s36.454 16.384 36.454 36.454v72.909h436.634v-72.909c0-20.070 16.384-36.454 36.454-36.454s36.454 16.384 36.454 36.454v72.909h109.363c20.070 0 36.454-16.384 36.454-36.454l-0.41-145.818zM755.712 436.941c-13.926 13.517-36.454 13.517-50.381 0l-265.421-265.421-120.013 120.013c-14.336 13.926-37.683 13.517-51.61-0.819-13.517-13.926-13.517-36.454 0-50.381l145.408-145.408c14.336-14.336 37.274-14.336 51.61 0l291.226 291.226c13.926 13.517 13.517 36.864-0.819 50.79z" />
<glyph unicode="&#xe90e;" glyph-name="BuildPortfolio" d="M995.908 796.885c-39.873 91.526-130.039 150.881-230.173 150.428-71.136 0-139.101-30.358-186.223-83.37h-119.165c-5.89 10.421-16.765 16.765-28.998 16.765h-16.765c0 19.483-8.609 38.060-23.108 50.747-17.671 15.405-42.138 20.389-64.34 13.14s-39.419-25.827-44.404-48.935c-0.906-4.984-1.359-9.515-1.359-14.499h-16.765c-11.781 0-22.655-6.343-28.998-16.765h-188.488c-18.577 0-33.529-14.952-33.529-33.529v-852.729c0-18.577 14.952-33.529 33.529-33.529h601.713c18.577 0 33.529 14.952 33.529 33.529v482.549c94.244-33.529 198.91-7.703 266.874 65.246s86.542 179.427 46.669 270.952zM464.878 830.867h89.26c-6.796-10.874-12.687-21.749-18.124-33.529h-71.136v33.529zM264.156 847.632h36.248c5.437 0 10.874 2.719 13.593 7.25 3.172 4.531 3.625 10.421 1.812 15.405-2.265 5.89-2.265 12.234-0.906 18.124 3.625 16.765 19.483 27.639 36.248 25.827s29.451-16.312 29.451-33.529c0-3.625-0.453-7.25-1.812-10.874-1.812-4.984-1.359-10.874 1.812-15.405s8.156-7.25 13.593-7.25h36.248v-66.605h-166.287v67.058zM264.156 747.044h167.193c11.781 0 22.655 6.343 28.998 16.765h64.34c-23.561-83.37-1.812-173.536 57.543-236.97v-482.096h-468.503v719.065h121.883c5.89-10.421 16.765-16.765 28.545-16.765zM648.835-21.862h-601.713v852.729h183.958v-33.529h-117.352c-18.577 0-33.529-14.952-33.529-33.529v-719.065c0-18.577 14.952-33.529 33.529-33.529h468.503c18.577 0 33.529 14.952 33.529 33.529v451.738c10.421-8.156 21.749-15.405 33.529-21.296l-0.453-497.048zM765.735 479.717c-120.071 0-217.487 97.416-217.487 217.487s97.416 217.034 217.487 217.487c120.071 0 217.487-97.416 217.487-217.487s-97.416-217.487-217.487-217.487zM347.979 412.658c82.917 0 150.428 67.512 150.428 150.428s-67.512 150.428-150.428 150.428-150.428-67.058-150.428-150.428c0-82.917 67.512-150.428 150.428-150.428zM398.273 457.515c-31.717-15.405-68.418-15.405-100.135 0v0 14.952c3.172 24.92 25.373 42.591 50.294 40.326 13.14 0.453 26.28-4.531 36.248-13.14 8.609-6.796 13.593-16.765 13.593-27.639v-14.499zM314.45 579.851c0 18.577 14.952 33.529 33.529 33.529s33.529-14.952 33.529-33.529-14.952-33.529-33.529-33.529c-18.577 0-33.529 14.952-33.529 33.529zM239.688 607.943c18.124 43.95 60.715 72.042 108.29 72.042 47.122 0 90.166-28.545 108.29-72.042s8.156-94.244-25.373-127.32c-2.265 17.671-10.874 33.529-24.467 44.857-3.172 2.719-6.796 5.437-10.421 7.703 25.827 26.28 25.827 68.418-0.453 94.244s-68.418 25.827-94.244 0c-26.28-25.827-26.28-67.965-0.453-94.244-19.030-11.327-32.17-30.811-34.888-52.559-33.982 33.529-44.404 83.823-26.28 127.32zM381.508 346.053h-67.058c-9.062 0-16.765-7.703-16.765-16.765s7.703-16.765 16.765-16.765h67.058c9.062 0 16.765 7.703 16.765 16.765s-7.703 16.765-16.765 16.765zM197.55 245.465h167.193c9.062 0 16.765 7.703 16.765 16.765s-7.703 16.765-16.765 16.765h-167.193c-9.062 0-16.765-7.703-16.765-16.765s7.703-16.765 16.765-16.765zM431.349 278.995c-9.062 0-16.765-7.703-16.765-16.765s7.703-16.765 16.765-16.765h67.058c9.062 0 16.765 7.703 16.765 16.765s-7.703 16.765-16.765 16.765h-67.058zM197.55 111.802h167.193c9.062 0 16.765 7.703 16.765 16.765s-7.703 16.765-16.765 16.765h-167.193c-9.062 0-16.765-7.703-16.765-16.765s7.703-16.765 16.765-16.765zM498.407 145.331h-67.058c-9.062 0-16.765-7.703-16.765-16.765s7.703-16.765 16.765-16.765h67.058c9.062 0 16.765 7.703 16.765 16.765s-7.703 16.765-16.765 16.765zM498.407 211.936h-167.193c-9.062 0-16.765-7.703-16.765-16.765s7.703-16.765 16.765-16.765h167.193c9.062 0 16.765 7.703 16.765 16.765s-7.703 16.765-16.765 16.765zM197.55 178.86h67.058c9.062 0 16.765 7.703 16.765 16.765s-7.703 16.765-16.765 16.765h-67.058c-9.062 0-16.765-7.703-16.765-16.765s7.703-16.765 16.765-16.765zM874.478 828.602c-8.156 4.531-18.124 1.812-22.655-6.343l-124.149-217.487-51.653 38.966c-4.984 3.625-11.327 4.531-16.765 1.812-5.437-2.265-9.515-7.25-9.968-13.593-0.906-5.89 1.812-11.781 6.343-15.405l67.058-49.841c2.719-2.265 6.343-3.172 9.968-3.172 1.359 0 2.265 0 3.172 0.453 4.531 0.906 8.609 4.078 11.327 8.156l133.664 234.251c4.531 7.25 1.812 17.671-6.343 22.202z" />
<glyph unicode="&#xe90f;" glyph-name="Calendar" d="M892 880h-92v48c0 17.672-14.326 32-32 32s-32-14.328-32-32v-48h-448v48c0 17.672-14.326 32-32 32s-32-14.328-32-32v-48h-92c-72.786 0-132-59.214-132-132v-680c0-72.786 59.214-132 132-132h760c72.786 0 132 59.214 132 132v680c0 72.786-59.214 132-132 132zM132 816h92v-32c0-17.672 14.326-32 32-32s32 14.328 32 32v32h448v-32c0-17.672 14.326-32 32-32s32 14.328 32 32v32h92c37.496 0 68-30.504 68-68v-76h-896v76c0 37.496 30.504 68 68 68zM892 0h-760c-37.496 0-68 30.504-68 68v540h896v-540c0-37.496-30.504-68-68-68z" />
<glyph unicode="&#xe910;" glyph-name="Cart" d="M1017.528 811.068c-5.606 7.006-14.092 11.084-23.066 11.084h-786.158l-21.984 95.26c-3.094 13.402-15.028 22.896-28.782 22.896h-128c-16.312 0-29.538-13.226-29.538-29.54s13.226-29.538 29.538-29.538h104.502l149.224-646.642c3.092-13.402 15.028-22.896 28.782-22.896h591.83c16.314 0 29.538 13.226 29.538 29.538 0 16.314-13.226 29.538-29.538 29.538h-568.33l-22.72 98.462h593.022c13.816 0 25.786 9.576 28.818 23.054l88.614 393.846c1.97 8.756-0.146 17.93-5.752 24.938zM882.216 428.308h-583.024l-77.254 334.768h735.6l-75.322-334.768zM433.23 172.308c-59.72 0-108.308-48.586-108.308-108.308s48.586-108.308 108.308-108.308c59.72 0 108.308 48.586 108.308 108.308s-48.586 108.308-108.308 108.308zM433.23 14.768c-27.146 0-49.23 22.086-49.23 49.232s22.084 49.23 49.23 49.23c27.146 0 49.23-22.084 49.23-49.23s-22.084-49.232-49.23-49.232zM787.692 172.308c-59.72 0-108.308-48.586-108.308-108.308s48.586-108.308 108.308-108.308c59.72 0 108.308 48.586 108.308 108.308s-48.586 108.308-108.308 108.308zM787.692 14.768c-27.146 0-49.23 22.084-49.23 49.23s22.084 49.23 49.23 49.23c27.146 0 49.23-22.084 49.23-49.23s-22.084-49.23-49.23-49.23z" />
<glyph unicode="&#xe911;" glyph-name="Certificate1" d="M953.070 890.768h-882.14c-39.109 0-70.93-31.821-70.93-70.93v-598.48c0-39.109 31.821-70.93 70.93-70.93h514.389l-15.532-94.722c-2.922-17.83 2.975-33.982 15.779-43.198 12.8-9.217 29.977-9.711 45.967-1.285l110.979 58.414c3.097 1.589 11.628 1.589 14.725 0l110.979-58.414c7.592-3.996 15.455-5.987 22.989-5.987 8.333 0 16.261 2.436 22.981 7.275 12.8 9.217 18.697 25.373 15.779 43.203l-15.528 94.718h38.635c39.109 0 70.93 31.821 70.93 70.93v598.476c-0.004 39.113-31.825 70.93-70.934 70.93zM749.877 272.006c-68.162 0-123.621 55.459-123.621 123.621s55.459 123.621 123.621 123.621 123.621-55.459 123.621-123.621c0-68.162-55.459-123.621-123.621-123.621zM785.557 123.434c-20.675 10.887-50.689 10.887-71.36 0l-78.461-41.298 24.943 152.151c26.455-14.685 56.862-23.075 89.202-23.075s62.743 8.394 89.202 23.075l9.719-59.318c0.024-0.097 0.032-0.203 0.053-0.3l15.171-92.537-78.469 41.302zM963.203 221.358c0-5.492-4.641-10.133-10.133-10.133h-48.601l-11.102 67.724c-0.045 0.268-0.118 0.523-0.17 0.79 25.677 31.688 41.103 72.016 41.103 115.888 0 101.689-82.729 184.418-184.418 184.418s-184.418-82.729-184.418-184.418c0-43.871 15.426-84.192 41.103-115.888-0.053-0.263-0.126-0.523-0.17-0.786l-11.11-67.781c-0.34 0.012-0.669 0.053-1.009 0.053h-523.347c-5.492 0-10.133 4.641-10.133 10.133v598.48c0 5.492 4.641 10.133 10.133 10.133h882.14c5.492 0 10.133-4.641 10.133-10.133v-598.48zM845.564 715.826h-689.036c-16.792 0-30.399-13.606-30.399-30.399s13.606-30.399 30.399-30.399h689.036c16.792 0 30.399 13.606 30.399 30.399s-13.606 30.399-30.399 30.399zM448.355 550.993h-291.827c-16.792 0-30.399-13.606-30.399-30.399s13.606-30.399 30.399-30.399h291.827c16.792 0 30.399 13.606 30.399 30.399s-13.606 30.399-30.399 30.399z" />
<glyph unicode="&#xe912;" glyph-name="Certificate2" d="M803.554 685.718h-583.108c-8.292 0-15.012-6.72-15.012-15.012s6.72-15.012 15.012-15.012h583.108c8.292 0 15.012 6.72 15.012 15.012s-6.72 15.012-15.012 15.012zM803.554 522.262h-583.108c-8.292 0-15.012-6.72-15.012-15.012 0-8.29 6.72-15.012 15.012-15.012h583.108c8.292 0 15.012 6.72 15.012 15.012s-6.72 15.012-15.012 15.012zM612.386 416.182h-200.772c-8.292 0-15.012-6.72-15.012-15.012 0-8.29 6.72-15.012 15.012-15.012h200.772c8.292 0 15.012 6.72 15.012 15.012s-6.72 15.012-15.012 15.012zM803.554 604.324h-434.948c-8.292 0-15.012-6.72-15.012-15.012 0-8.29 6.72-15.012 15.012-15.012h434.948c8.292 0 15.012 6.72 15.012 15.012s-6.72 15.012-15.012 15.012zM298.762 604.326h-78.316c-8.292 0-15.012-6.72-15.012-15.012s6.72-15.012 15.012-15.012h78.316c8.292 0 15.012 6.72 15.012 15.012 0 8.29-6.72 15.012-15.012 15.012zM946.502 711.090c-3.492 3.43-8.114 5.318-13.044 5.318-0.004 0-0.006 0-0.010 0-30.426 0-55.328 23.784-56.698 54.156-0.45 9.876-8.566 17.61-18.476 17.61h-696.12c-9.912 0-18.030-7.736-18.478-17.62-1.306-29.022-25.064-52.782-54.088-54.088-9.88-0.444-17.618-8.562-17.618-18.478v-388.042c0-9.916 7.738-18.032 17.618-18.476 29.024-1.308 52.782-25.066 54.088-54.098 0.45-9.876 8.568-17.61 18.478-17.61h443.154c8.292 0 15.012 6.72 15.012 15.012 0 8.29-6.72 15.012-15.012 15.012h-432.83c-6.206 36.158-34.328 64.28-70.486 70.488v367.392c36.158 6.206 64.28 34.334 70.486 70.486h675.478c6.46-37.3 36.49-66.092 74.052-71.020v-254.938c0-8.29 6.72-15.012 15.012-15.012s15.012 6.72 15.012 15.012v265.71c0 4.998-1.964 9.682-5.53 13.186zM982.33 863.11h-940.66c-22.976 0-41.67-18.694-41.67-41.67v-634.94c0-22.978 18.694-41.67 41.67-41.67h630.096l-22.308-46.746c-2.866-6.002-2.168-13.040 1.816-18.364 3.986-5.326 10.544-7.972 17.106-6.922l41.532 6.676 23.166-38.026c3.248-5.336 9.020-8.556 15.222-8.556 0.302 0 0.606 0.008 0.91 0.024 6.544 0.332 12.362 4.212 15.188 10.128l40.252 84.346 40.248-84.34c2.82-5.916 8.638-9.8 15.184-10.136 0.306-0.016 0.614-0.024 0.918-0.024 6.202 0 11.974 3.22 15.222 8.554l23.166 38.026 41.532-6.678c6.582-1.052 13.128 1.602 17.11 6.93 3.984 5.328 4.676 12.364 1.81 18.356l-22.308 46.746h44.798c22.976 0 41.67 18.692 41.67 41.67v634.946c0 22.976-18.694 41.67-41.67 41.67zM747.002 76.3l-15.714 25.79c-3.784 6.212-10.868 9.48-18.056 8.326l-26.668-4.288 28.092 58.864c11.072-11.298 26.846-17.402 43.22-15.86 5.598 0.536 11.21-0.972 15.796-4.23 1.512-1.076 3.082-2.030 4.672-2.93l-31.342-65.672zM808.23 165.316c-0.046-0.006-0.092-0.010-0.14-0.018-2.276-0.336-4.59-0.336-6.866-0.002-0.058 0.008-0.116 0.014-0.172 0.022-3.526 0.546-6.954 1.896-9.99 4.054-9.080 6.456-19.922 9.888-30.982 9.888-1.676 0-3.356-0.080-5.036-0.238-9.938-0.938-19.38 4.52-23.528 13.584-1.842 4.024-4.192 7.748-6.92 11.154-0.12 0.17-0.252 0.33-0.378 0.494-0.152 0.184-0.294 0.374-0.446 0.556-0.174 0.204-0.356 0.398-0.542 0.592-4.964 5.712-11.098 10.376-18.084 13.572-9.066 4.148-14.524 13.604-13.584 23.53 1.208 12.772-2.218 25.564-9.65 36.018-5.778 8.126-5.778 19.044-0.002 27.17 7.434 10.454 10.86 23.246 9.652 36.018-0.94 9.926 4.52 19.382 13.584 23.53 11.666 5.338 21.030 14.702 26.368 26.368 4.15 9.066 13.626 14.526 23.53 13.584 12.786-1.206 25.566 2.22 36.020 9.652 8.128 5.776 19.046 5.776 27.17 0 10.456-7.432 23.238-10.85 36.020-9.652 9.934 0.944 19.384-4.52 23.532-13.584 5.338-11.666 14.702-21.030 26.366-26.366 9.066-4.15 14.526-13.606 13.586-23.53-1.208-12.774 2.218-25.566 9.65-36.018 5.778-8.126 5.778-19.044 0-27.17-7.432-10.456-10.858-23.248-9.65-36.018 0.94-9.926-4.52-19.382-13.588-23.532-6.97-3.19-13.090-7.842-18.048-13.536-0.204-0.212-0.404-0.426-0.592-0.648-0.13-0.156-0.252-0.318-0.382-0.476-0.15-0.192-0.302-0.38-0.442-0.578-2.72-3.4-5.064-7.116-6.9-11.13-4.15-9.064-13.606-14.526-23.532-13.584-12.76 1.202-25.56-2.218-36.020-9.65-3.040-2.16-6.472-3.512-10.004-4.056zM896.066 110.418c-7.19 1.15-14.27-2.116-18.056-8.33l-15.712-25.79-31.342 65.674c1.59 0.9 3.158 1.854 4.672 2.93 4.588 3.26 10.204 4.772 15.796 4.232 16.38-1.544 32.15 4.56 43.222 15.858l28.090-58.862-26.67 4.288zM993.978 186.498c0-6.422-5.224-11.648-11.648-11.648h-59.126l-7.74 16.22c0.39 0.206 0.778 0.422 1.182 0.606 20.672 9.462 33.122 31.026 30.98 53.658-0.53 5.6 0.972 11.21 4.232 15.796 13.172 18.53 13.172 43.43-0.002 61.96-3.258 4.584-4.76 10.192-4.23 15.794 2.142 22.632-10.308 44.196-30.982 53.658-5.114 2.342-9.22 6.448-11.562 11.562-9.46 20.674-31.034 33.12-53.66 30.98-5.604-0.534-11.21 0.972-15.794 4.232-18.53 13.172-43.432 13.174-61.96 0-4.586-3.26-10.208-4.766-15.794-4.23-22.66 2.132-44.2-10.308-53.658-30.98-2.342-5.116-6.448-9.22-11.564-11.562-20.672-9.462-33.122-31.024-30.98-53.658 0.53-5.602-0.972-11.21-4.232-15.796-13.172-18.53-13.172-43.43 0-61.958 3.26-4.584 4.762-10.194 4.232-15.796-2.142-22.634 10.308-44.198 30.98-53.658 0.404-0.184 0.79-0.4 1.18-0.606l-7.74-16.222h-644.422c-6.422 0-11.648 5.224-11.648 11.648v634.942c0 6.422 5.224 11.648 11.648 11.648h940.66c6.422 0 11.648-5.226 11.648-11.648v-634.942zM803.554 385.376c-51.428 0-93.268-41.84-93.268-93.266 0-51.428 41.84-93.268 93.268-93.268s93.266 41.842 93.266 93.268c0 51.428-41.838 93.266-93.266 93.266zM803.554 228.866c-34.874 0-63.246 28.372-63.246 63.246 0 34.872 28.372 63.244 63.246 63.244 34.872 0 63.244-28.372 63.244-63.244 0-34.874-28.372-63.246-63.244-63.246z" />
<glyph unicode="&#xe913;" glyph-name="Certification" d="M989.405 915.244h-954.809c-19.104 0-34.595-15.491-34.595-34.595v-716.107c0-19.104 15.491-34.595 34.595-34.595h535.038v-114.595c0-11.991 6.21-23.124 16.408-29.431 10.199-6.299 22.931-6.878 33.654-1.514l83.989 41.994 83.989-41.994c4.882-2.441 10.178-3.651 15.47-3.651 6.323 0 12.633 1.734 18.187 5.165 10.199 6.303 16.408 17.439 16.408 29.431v114.595h151.666c19.104 0 34.595 15.491 34.595 34.595v716.107c0 19.104-15.491 34.595-34.595 34.595zM703.685 284.129c-72.659 0-131.775 59.116-131.775 131.772s59.116 131.775 131.775 131.775 131.772-59.116 131.772-131.775-59.113-131.772-131.772-131.772zM719.155 96.023c-4.868 2.434-10.168 3.651-15.47 3.651s-10.602-1.217-15.47-3.651l-49.397-24.697v154.414c20.366-6.965 42.17-10.802 64.864-10.802 22.697 0 44.501 3.837 64.864 10.802v-154.414l-49.39 24.697zM954.809 199.137h-117.070v67.208c41.036 36.819 66.908 90.215 66.908 149.559 0 110.809-90.153 200.963-200.963 200.963s-200.963-90.153-200.963-200.963c0-59.344 25.872-112.74 66.908-149.559v-67.208h-500.439v646.916h885.622v-646.916zM153.945 667.029h417.73c19.104 0 34.595 15.491 34.595 34.595s-15.491 34.595-34.595 34.595h-417.73c-19.104 0-34.595-15.491-34.595-34.595s15.491-34.595 34.595-34.595zM153.945 488.002h238.702c19.104 0 34.595 15.491 34.595 34.595s-15.491 34.595-34.595 34.595h-238.702c-19.104 0-34.595-15.491-34.595-34.595 0.003-19.108 15.491-34.595 34.595-34.595zM153.945 308.974h179.028c19.104 0 34.595 15.491 34.595 34.595s-15.491 34.595-34.595 34.595h-179.028c-19.104 0-34.595-15.491-34.595-34.595s15.491-34.595 34.595-34.595z" />
<glyph unicode="&#xe914;" glyph-name="checked" d="M994.72 820.010c-15.064 15.090-39.506 15.116-54.57 0.064l-462.986-461.764-167.044 181.426c-14.434 15.668-38.838 16.684-54.532 2.252-15.682-14.434-16.686-38.85-2.252-54.532l194.252-210.962c7.114-7.732 17.070-12.222 27.568-12.44 0.282-0.012 0.554-0.012 0.824-0.012 10.202 0 20.016 4.052 27.246 11.256l491.418 490.13c15.102 15.050 15.128 39.492 0.076 54.582zM985.406 486.594c-21.316 0-38.592-17.276-38.592-38.594 0-239.766-195.048-434.814-434.814-434.814-239.752 0-434.814 195.048-434.814 434.814 0 239.752 195.062 434.814 434.814 434.814 21.316 0 38.594 17.276 38.594 38.592 0 21.318-17.278 38.594-38.594 38.594-282.32 0-512-229.68-512-512 0-282.308 229.68-512 512-512 282.308 0 512 229.692 512 512 0 21.316-17.276 38.594-38.594 38.594z" />
<glyph unicode="&#xe915;" glyph-name="CheckMark" d="M738.328 610.461c15.625-15.625 15.625-40.953 0-56.57l-268.344-268.352c-15.625-15.617-40.945-15.617-56.57 0l-127.742 127.75c-15.625 15.617-15.625 40.945 0 56.563 15.617 15.625 40.945 15.625 56.563 0l99.461-99.461 240.063 240.070c15.625 15.617 40.953 15.617 56.57 0zM1024 448c0-283.008-229.031-512-512-512-283.008 0-512 229.031-512 512 0 283.008 229.031 512 512 512 283.008 0 512-229.031 512-512zM944 448c0 238.789-193.242 432-432 432-238.789 0-432-193.242-432-432 0-238.789 193.242-432 432-432 238.789 0 432 193.242 432 432z" />
<glyph unicode="&#xe916;" glyph-name="Chip" d="M1008.996 463h-241.515v34.128h65.162c8.284 0 15 6.716 15 15s-6.716 15-15 15h-65.162v34.13h45.24c16.854 0 32.7 6.562 44.616 18.48l98.652 98.652c6.428-3.202 13.554-4.906 20.946-4.906 12.572 0 24.39 4.896 33.28 13.784 8.89 8.89 13.786 20.708 13.786 33.28s-4.896 24.39-13.786 33.28c-8.888 8.89-20.708 13.786-33.28 13.786s-24.39-4.896-33.28-13.784c-8.89-8.89-13.786-20.708-13.786-33.28 0-7.392 1.704-14.518 4.906-20.946l-98.652-98.652c-6.25-6.25-14.562-9.694-23.404-9.694h-45.24v33.096c0 43.632-35.498 79.128-79.128 79.128h-33.096v132.789c18.616 6.278 32.064 23.892 32.064 44.6 0 25.952-21.114 47.064-47.064 47.064s-47.064-21.114-47.064-47.064c0-20.708 13.448-38.32 32.064-44.6v-132.787h-34.128v65.162c0 8.284-6.716 15-15 15s-15-6.716-15-15v-65.162h-34.13v241.515c0 8.284-6.716 15-15 15s-15-6.716-15-15v-241.515h-34.128v65.162c0 8.284-6.716 15-15 15s-15-6.716-15-15v-65.162h-34.128v45.238c0 16.854-6.564 32.7-18.482 44.616l-98.686 98.686c8.718 17.602 5.796 39.55-8.842 54.19-18.352 18.35-48.21 18.348-66.56 0-18.35-18.35-18.35-48.208 0-66.56 9.176-9.174 21.228-13.762 33.28-13.762 7.176 0 14.34 1.666 20.91 4.92l98.686-98.688c6.252-6.25 9.694-14.562 9.694-23.402v-45.238h-33.096c-6.69 0-13.344-0.84-19.776-2.494-8.022-2.064-12.852-10.242-10.788-18.266s10.244-12.854 18.266-10.788c3.99 1.026 8.126 1.548 12.296 1.548h352.707c27.090 0 49.128-22.040 49.128-49.128v-352.709c0-4.166-0.52-8.3-1.544-12.286-2.062-8.024 2.77-16.2 10.792-18.262 1.252-0.322 2.508-0.476 3.746-0.476 6.682 0 12.776 4.498 14.516 11.27 1.652 6.424 2.49 13.072 2.49 19.756v33.096h132.787c6.278-18.616 23.892-32.064 44.6-32.064 25.952 0 47.064 21.112 47.064 47.064s-21.114 47.064-47.064 47.064c-20.708 0-38.32-13.448-44.6-32.064h-132.787v34.13h65.162c8.284 0 15 6.716 15 15s-6.716 15-15 15h-65.162v34.126h241.517c8.284 0 15 6.716 15 15s-6.716 15-15 15zM964.866 732.613c3.224 3.224 7.508 4.998 12.066 4.998s8.842-1.774 12.066-4.998 4.998-7.508 4.998-12.066-1.774-8.842-4.998-12.066-7.508-4.998-12.066-4.998-8.842 1.774-12.066 4.998-4.998 7.508-4.998 12.066 1.774 8.844 4.998 12.066zM251.517 900.864c-6.652-6.65-17.478-6.652-24.134 0.002-6.654 6.654-6.654 17.48 0 24.132 3.328 3.328 7.696 4.99 12.068 4.99 4.37 0 8.74-1.664 12.066-4.99 6.654-6.654 6.654-17.48 0-24.134zM640.255 863.806c-9.408 0-17.064 7.656-17.064 17.064s7.654 17.064 17.064 17.064c9.41 0 17.064-7.656 17.064-17.064s-7.656-17.064-17.064-17.064zM944.868 336.806c9.41 0 17.064-7.656 17.064-17.064 0-9.41-7.656-17.064-17.064-17.064s-17.064 7.656-17.064 17.064c-0.002 9.41 7.654 17.064 17.064 17.064zM817.825 16.346c-14.638 14.64-36.588 17.562-54.19 8.844l-98.686 98.688c-6.252 6.25-9.694 14.562-9.694 23.402v45.238h33.096c6.69 0 13.342 0.84 19.772 2.494 8.022 2.064 12.852 10.242 10.788 18.266-2.064 8.022-10.238 12.852-18.266 10.788-3.988-1.026-8.124-1.546-12.294-1.546h-352.707c-27.090 0-49.128 22.040-49.128 49.128v352.707c0 4.17 0.52 8.306 1.546 12.292 2.066 8.022-2.764 16.2-10.786 18.266-8.024 2.066-16.202-2.764-18.266-10.786-1.656-6.428-2.494-13.080-2.494-19.772v-33.096h-132.789c-6.278 18.616-23.892 32.064-44.6 32.064-25.952 0-47.064-21.112-47.064-47.064s21.114-47.064 47.064-47.064c20.708 0 38.32 13.448 44.6 32.064h132.787v-34.13h-65.162c-8.284 0-15-6.716-15-15s6.716-15 15-15h65.162v-34.128h-241.515c-8.284 0-15-6.716-15-15s6.716-15 15-15h241.515v-34.128h-65.162c-8.284 0-15-6.716-15-15s6.716-15 15-15h65.162v-34.13h-45.24c-16.854 0-32.7-6.562-44.616-18.48l-98.652-98.652c-6.428 3.202-13.554 4.906-20.946 4.906-12.572 0-24.39-4.896-33.28-13.784-8.886-8.89-13.782-20.71-13.782-33.28s4.896-24.39 13.786-33.28c8.888-8.89 20.708-13.784 33.28-13.784s24.39 4.896 33.28 13.784c8.89 8.89 13.786 20.708 13.786 33.28 0 7.392-1.704 14.518-4.906 20.946l98.652 98.652c6.25 6.25 14.562 9.694 23.404 9.694h45.24v-33.096c0-43.632 35.498-79.128 79.128-79.128h33.096v-132.787c-18.616-6.278-32.064-23.892-32.064-44.6 0-25.952 21.114-47.064 47.064-47.064s47.064 21.114 47.064 47.064c0 20.708-13.448 38.32-32.064 44.6v132.787h34.128v-65.162c0-8.284 6.716-15 15-15s15 6.716 15 15v65.162h34.126v-241.519c0-8.284 6.716-15 15-15s15 6.716 15 15v241.515h34.128v-65.162c0-8.284 6.716-15 15-15s15 6.716 15 15v65.162h34.128v-45.238c0-16.854 6.564-32.7 18.482-44.616l98.686-98.686c-8.718-17.602-5.796-39.55 8.844-54.19 9.174-9.176 21.228-13.762 33.28-13.762s24.106 4.586 33.28 13.762c18.35 18.35 18.35 48.208 0 66.558zM79.128 559.194c-9.41 0-17.064 7.656-17.064 17.064 0 9.41 7.656 17.064 17.064 17.064s17.064-7.656 17.064-17.064c0.002-9.41-7.654-17.064-17.064-17.064zM59.13 163.387c-3.224-3.224-7.508-4.998-12.066-4.998s-8.842 1.774-12.066 4.998-4.998 7.508-4.998 12.066 1.774 8.842 4.998 12.066 7.508 4.998 12.066 4.998 8.842-1.774 12.066-4.998 4.998-7.508 4.998-12.066-1.774-8.844-4.998-12.066zM400.804 15.13c0-9.408-7.654-17.064-17.064-17.064s-17.064 7.656-17.064 17.064c0 9.408 7.656 17.064 17.064 17.064s17.064-7.656 17.064-17.064zM796.613-29c-6.654-6.654-17.48-6.652-24.134 0-6.654 6.654-6.654 17.48 0 24.132 3.328 3.326 7.698 4.99 12.068 4.99s8.74-1.664 12.066-4.99c6.652-6.652 6.652-17.478 0-24.132zM671.287 488.078c0 32.080-23.464 59.254-55.586 68.084 0.95 3.922 1.478 7.956 1.478 12.078 0 30.372-26.958 55.082-60.090 55.082-17.948 0-34.070-7.258-45.090-18.73-11.020 11.472-27.144 18.73-45.090 18.73-33.134 0-60.090-24.71-60.090-55.082 0-4.122 0.528-8.156 1.478-12.078-32.122-8.828-55.586-36.002-55.586-68.084 0-15.678 5.548-30.47 15.798-42.686-10.022-12.974-15.798-28.724-15.798-45.492-0.004-25.504 13.624-49.318 36.070-64.090 0-0.012 0-0.024 0-0.036 0-34.792 31.002-63.098 69.11-63.098 21.9 0 41.438 9.358 54.108 23.914 12.67-14.556 32.208-23.914 54.108-23.914 36.674 0 66.752 26.22 68.964 59.204 22.274 12.924 36.216 35.562 36.216 60.006 0 17.98-7.666 35.132-20.86 48.096 13.192 12.964 20.86 30.118 20.86 48.096zM618.2 426.718c14.454-7.628 23.082-20.65 23.082-34.832 0-10.574-4.914-20.66-13.214-28.202-7.886 14.602-21.824 26.226-39.434 31.758-7.9 2.482-16.322-1.912-18.806-9.814-2.484-7.904 1.912-16.324 9.814-18.806 15.292-4.806 25.568-17.284 25.568-31.050 0-18.25-17.544-33.098-39.11-33.098-21.564 0-39.108 14.848-39.108 33.098v96.194c0 18.25 17.544 33.096 39.108 33.096 8.284 0 15 6.716 15 15s-6.716 15-15 15c-14.508 0-27.98-4.112-39.108-11.114v19.16c0 8.284-6.716 15-15 15s-15-6.716-15-15v-83.274c-5.048 3.168-10.584 5.79-16.572 7.672-7.908 2.484-16.324-1.912-18.806-9.812-2.484-7.904 1.91-16.324 9.812-18.808 15.292-4.806 25.566-17.284 25.566-31.048v-32.064c0-18.25-17.544-33.098-39.108-33.098-21.566 0-39.11 14.848-39.11 33.098 0 7.822 3.316 15.426 9.336 21.41 5.876 5.84 5.904 15.338 0.064 21.214s-15.336 5.904-21.212 0.064c-3.594-3.574-6.688-7.478-9.26-11.628-9.472 8.96-15.002 20.748-15.002 33.070 0 22.224 17.442 41.748 42.416 47.478 8.074 1.852 13.118 9.9 11.266 17.974-1.852 8.076-9.902 13.118-17.974 11.266-10.054-2.306-19.31-6.156-27.518-11.21-5.322 6.684-8.188 14.512-8.188 22.67 0.006 22.562 21.394 40.93 47.76 41.104 0.134-0.004 0.268-0.022 0.4-0.022 3.424 0 6.866 1.166 9.684 3.552 5.75 4.868 6.904 13.128 3.044 19.342-0.114 0.184-0.218 0.372-0.338 0.55-0.062 0.090-0.136 0.176-0.2 0.266-0.232 0.326-0.47 0.646-0.728 0.954-0.008 0.010-0.014 0.020-0.022 0.028-2.502 2.958-5.488 7.854-5.488 14.386 0 13.83 13.5 25.082 30.090 25.082s30.090-11.252 30.090-25.082c0-8.284 6.716-15 15-15s15 6.716 15 15c0 13.83 13.5 25.082 30.090 25.082s30.090-11.252 30.090-25.082c0-3.696-0.968-6.848-2.25-9.44-8.532-0.806-16.784-2.868-24.618-6.172-7.634-3.218-11.212-12.016-7.994-19.65 3.218-7.632 12.016-11.214 19.65-7.994 6.484 2.734 13.46 4.14 20.736 4.196 0.144-0.004 0.286-0.018 0.43-0.018 0.134 0 0.266 0.018 0.4 0.022 26.366-0.172 47.754-18.542 47.754-41.104 0-14.182-8.628-27.202-23.082-34.832-4.92-2.596-8-7.702-8-13.266s3.080-10.67 8-13.266z" />
<glyph unicode="&#xe917;" glyph-name="Circuit" d="M924.034 237.308c-10.139 26.020-34.682 42.823-62.598 42.823h-139.6v26.624l107.671 107.671h62.582c7.504-28.89 33.574-50.361 64.764-50.361 37.032 0 67.148 30.116 67.148 67.148s-30.116 67.148-67.148 67.148c-31.19 0-57.26-21.47-64.764-50.361h-69.531c-4.449 0-8.729-1.763-11.868-4.919l-88.853-88.853v53.248l196.524 196.524c3.156 3.139 4.919 7.403 4.919 11.868v203.826c28.873 7.504 50.361 33.557 50.361 64.764 0 37.032-30.116 67.148-67.148 67.148s-67.148-30.116-67.148-67.148c0-31.207 21.487-57.26 50.361-64.764v-196.877l-16.787-16.787-50.361 50.361v76.985h-33.574v-83.934c0-4.465 1.763-8.729 4.919-11.868l55.279-55.279-93.772-93.772-33.574 33.574v60.198h-33.574v-67.148c0-4.465 1.763-8.729 4.919-11.868l38.492-38.492-38.492-38.492c-3.156-3.139-4.919-7.403-4.919-11.868v-134.295h-67.148v278.427l95.803 95.803c3.156 3.139 4.919 7.403 4.919 11.868v103.105c28.873 7.504 50.361 33.557 50.361 64.764 0 37.032-30.116 67.148-67.148 67.148s-67.148-30.116-67.148-67.148c0-31.207 21.487-57.26 50.361-64.764v-96.155l-95.803-95.803c-3.156-3.139-4.919-7.403-4.919-11.868v-285.377h-67.148v539.564c28.873 7.504 50.361 33.557 50.361 64.764 0 37.032-30.116 67.148-67.148 67.148s-67.148-30.116-67.148-67.148c0-31.207 21.487-57.26 50.361-64.764v-347.959l-50.361 50.361v127.345h-33.574v-134.295c0-4.465 1.763-8.729 4.919-11.868l79.016-79.016v-144.132h-67.148v83.934c0 4.465-1.763 8.729-4.919 11.868l-156.001 156.001 88.853 88.853c3.156 3.139 4.919 7.403 4.919 11.868v119.892c28.873 7.504 50.361 33.557 50.361 64.764 0 37.032-30.116 67.148-67.148 67.148s-67.148-30.116-67.148-67.148c0-31.207 21.487-57.26 50.361-64.764v-112.942l-83.934-83.934-33.574 33.574v62.582c28.873 7.504 50.361 33.557 50.361 64.764 0 37.032-30.116 67.148-67.148 67.148s-67.148-30.116-67.148-67.148c0-31.207 21.487-57.26 50.361-64.764v-69.531c0-4.465 1.763-8.729 4.919-11.868l213.311-213.311v-76.985h-67.148v50.361c0 4.465-1.763 8.729-4.919 11.868l-230.098 230.098v247.237c28.873 7.504 50.361 33.557 50.361 64.764 0 37.032-30.116 67.148-67.148 67.148s-67.148-30.116-67.148-67.148c0-31.207 21.487-57.26 50.361-64.764v-254.187c0-4.465 1.763-8.729 4.919-11.868l88.853-88.853h-9.837c-4.449 0-8.729-1.763-11.868-4.919l-21.386-21.386c-9.988 5.909-21.47 9.518-33.893 9.518-37.032 0-67.148-30.116-67.148-67.148s30.116-67.148 67.148-67.148 67.148 30.116 67.148 67.148c0 12.422-3.609 23.905-9.518 33.893l16.468 16.468h36.461l107.671-107.671v-43.411h-139.6c-27.917 0-52.459-16.804-62.582-42.823l-78.344-201.443c-8.041-20.648-5.355-43.931 7.168-62.229 12.523-18.314 33.238-29.243 55.43-29.243h872.33c22.175 0 42.907 10.928 55.43 29.243 12.523 18.298 15.192 41.581 7.168 62.229l-78.344 201.443zM956.852 464.787c18.516 0 33.574-15.058 33.574-33.574s-15.058-33.574-33.574-33.574c-18.516 0-33.574 15.058-33.574 33.574s15.058 33.574 33.574 33.574zM872.918 884.459c0 18.516 15.058 33.574 33.574 33.574s33.574-15.058 33.574-33.574-15.058-33.574-33.574-33.574c-18.516 0-33.574 15.058-33.574 33.574zM671.475 834.098c0 18.516 15.058 33.574 33.574 33.574s33.574-15.058 33.574-33.574-15.058-33.574-33.574-33.574c-18.516 0-33.574 15.058-33.574 33.574zM302.164 817.311c0 18.516 15.058 33.574 33.574 33.574s33.574-15.058 33.574-33.574-15.058-33.574-33.574-33.574c-18.516 0-33.574 15.058-33.574 33.574zM151.082 716.59c0 18.516 15.058 33.574 33.574 33.574s33.574-15.058 33.574-33.574-15.058-33.574-33.574-33.574-33.574 15.058-33.574 33.574zM33.574 884.459c0 18.516 15.058 33.574 33.574 33.574s33.574-15.058 33.574-33.574-15.058-33.574-33.574-33.574-33.574 15.058-33.574 33.574zM67.148 347.279c-18.516 0-33.574 15.058-33.574 33.574s15.058 33.574 33.574 33.574 33.574-15.058 33.574-33.574c0-18.516-15.058-33.574-33.574-33.574zM621.115 246.557h67.148v-33.574h-67.148v33.574zM587.541 246.557v-33.574h-67.148v33.574h67.148zM470.033 884.459c0 18.516 15.058 33.574 33.574 33.574s33.574-15.058 33.574-33.574-15.058-33.574-33.574-33.574c-18.516 0-33.574 15.058-33.574 33.574zM419.672 246.557h67.148v-33.574h-67.148v33.574zM318.951 246.557h67.148v-33.574h-67.148v33.574zM318.951 112.262v67.148h67.148v-67.148h33.574v67.148h67.148v-67.148h33.574v67.148h67.148v-67.148h33.574v67.148h67.148v-67.148h33.574v67.148h71.831l39.164-117.508h-658.466l39.164 117.508h71.848v-67.148h33.574zM967.495-7.411c-6.362-9.3-16.468-14.621-27.732-14.621h-872.314c-11.247 0-21.353 5.321-27.715 14.621s-7.672 20.631-3.592 31.123l78.344 201.443c5.070 12.993 17.341 21.403 31.291 21.403h139.6v-33.574h-83.934c-7.235 0-13.631-4.616-15.931-11.482l-50.361-151.082c-1.712-5.12-0.839-10.76 2.317-15.125s8.226-6.967 13.614-6.967h705.049c5.389 0 10.458 2.585 13.614 6.967s4.012 10.022 2.317 15.125l-50.361 151.082c-2.3 6.866-8.696 11.482-15.931 11.482h-83.934v33.574h139.6c13.95 0 26.221-8.41 31.291-21.403l78.344-201.443c4.079-10.492 2.787-21.823-3.576-31.123zM402.885 750.164h33.574v-67.148h-33.574v67.148zM788.984 800.525h33.574v-33.574h-33.574v33.574z" />
<glyph unicode="&#xe918;" glyph-name="Civil" d="M954.607 474.541l-40.721 17.511v27.843c0.572 170.893-107.255 323.368-268.574 379.762v39.241c0 11.648-9.453 21.101-21.094 21.101h-225.751c-11.641 0-21.094-9.453-21.094-21.101v-39.448c-161.319-56.395-269.146-208.869-268.574-379.762v-28.058l-40.299-17.089c-7.808-3.296-12.871-10.954-12.871-19.413v-110.766c0-11.641 9.453-21.094 21.101-21.094h27.429v-42.201c0-11.641 9.446-21.094 21.094-21.094h75.744c7.193-26.413 17.761-51.819 31.433-75.529l-53.585-53.592c-8.187-8.223-8.187-21.515 0-29.745l89.665-89.665c8.223-8.187 21.515-8.187 29.745 0l53.585 53.585c23.653-13.671 48.973-24.218 75.322-31.433v-75.744c0-11.641 9.453-21.094 21.101-21.094h126.583c11.648 0 21.101 9.453 21.101 21.094v75.744c26.413 7.193 51.811 17.74 75.529 31.433l53.592-53.585c8.223-8.187 21.515-8.187 29.745 0l89.665 89.665c8.187 8.23 8.187 21.523 0 29.745l-53.592 53.592c13.671 23.711 24.247 49.116 31.44 75.529h75.737c11.648 0 21.101 9.453 21.101 21.094v42.201h27.429c11.648 0 21.094 9.453 21.094 21.094v110.766c-0.043 8.523-5.205 16.181-13.078 19.413zM419.146 917.591h183.971v-352.541h-183.55zM877.176 302.168h-70.252c-10.125 0.236-18.97-6.771-21.101-16.66-7.107-33.042-20.185-64.496-38.605-92.833-5.427-8.337-4.262-19.327 2.739-26.37l50.424-50.424-60.342-59.92-50.424 50.424c-7.043 7-18.033 8.166-26.37 2.739-28.337-18.412-59.791-31.497-92.833-38.605-9.896-2.131-16.896-10.976-16.667-21.101v-71.096h-84.388v71.732c0.236 10.125-6.771 18.963-16.667 21.094-33.035 7.093-64.496 20.171-92.826 38.612-8.337 5.42-19.327 4.262-26.378-2.746l-50.424-50.424-59.705 59.713 50.424 50.424c7.007 7.043 8.166 18.033 2.746 26.37-18.591 28.165-31.883 59.477-39.241 92.411-2.138 9.889-10.976 16.896-21.101 16.66h-70.252v21.101h192.831c11.562-95.321 98.21-163.214 193.531-151.63 79.412 9.639 142.006 72.219 151.63 151.63h193.045zM381.799 323.268h259.715c-11.605-71.775-79.204-120.555-150.973-108.95-55.994 9.052-99.898 52.956-108.95 108.95 0 0 0.207 0 0.207 0zM925.705 365.463h-828.089v75.744l40.714 17.511c7.808 3.289 12.871 10.947 12.871 19.413v42.194c-0.465 147.347 89.244 279.965 226.173 334.401v-310.776c0-11.641 9.446-21.094 21.094-21.094h226.166c11.648 0 21.101 9.453 21.101 21.094v310.776c137.158-54.414 226.974-187.289 226.38-334.822v-42.201c0-8.459 5.062-16.117 12.871-19.406l40.714-17.511v-75.322z" />
<glyph unicode="&#xe919;" glyph-name="Clipboard" d="M842 900c-36.106 0-214.346 0-245.14 0-12.382 34.922-45.746 60-84.86 60-39.112 0-72.478-25.078-84.86-60-30.79 0-209.072 0-245.14 0-16.568 0-30-13.432-30-30v-904c0-16.568 13.432-30 30-30h660c16.568 0 30 13.432 30 30v904c0 16.568-13.432 30-30 30zM452 840c16.568 0 30 13.432 30 30 0 16.542 13.458 30 30 30s30-13.458 30-30c0-16.568 13.432-30 30-30h30v-30c0-10.516 1.83-20.61 5.16-30h-190.32c3.33 9.39 5.16 19.484 5.16 30v30zM812-4h-600v844h150v-30c0-16.542-13.458-30-30-30-16.568 0-30-13.432-30-30s13.432-30 30-30h360c16.568 0 30 13.432 30 30s-13.432 30-30 30c-16.542 0-30 13.458-30 30v30h150zM542 538c-16.568 0-30-13.432-30-30s13.432-30 30-30h180c16.568 0 30 13.432 30 30s-13.432 30-30 30zM436.788 625.214l-74.788-74.788-26.788 26.788c-11.714 11.716-30.71 11.716-42.426 0s-11.716-30.71 0-42.426l48-48c5.858-5.86 13.536-8.788 21.214-8.788s15.356 2.928 21.212 8.786l96 96c11.716 11.716 11.716 30.71 0 42.426-11.714 11.718-30.71 11.718-42.424 0.002zM722 358h-180c-16.568 0-30-13.432-30-30s13.432-30 30-30h180c16.568 0 30 13.432 30 30s-13.432 30-30 30zM436.788 445.214l-74.788-74.788-26.788 26.788c-11.714 11.716-30.71 11.716-42.426 0s-11.716-30.71 0-42.426l48-48c5.858-5.86 13.536-8.788 21.214-8.788s15.356 2.928 21.212 8.786l96 96c11.716 11.716 11.716 30.71 0 42.426-11.714 11.718-30.71 11.718-42.424 0.002zM722 178h-180c-16.568 0-30-13.432-30-30s13.432-30 30-30h180c16.568 0 30 13.432 30 30s-13.432 30-30 30zM436.788 265.214l-74.788-74.788-26.788 26.786c-11.714 11.716-30.71 11.716-42.426 0s-11.716-30.71 0-42.426l48-48c5.858-5.858 13.536-8.786 21.214-8.786s15.356 2.928 21.212 8.788l96 96c11.716 11.716 11.716 30.71 0 42.426-11.714 11.716-30.71 11.716-42.424 0z" />
<glyph unicode="&#xe91a;" glyph-name="Close" d="M605.814 447.162l398.725 398.737c25.948 25.936 25.948 67.871 0 93.808-25.936 25.936-67.871 25.936-93.808 0l-398.737-398.737-398.725 398.737c-25.948 25.936-67.871 25.936-93.808 0-25.948-25.936-25.948-67.871 0-93.808l398.725-398.737-398.725-398.737c-25.948-25.936-25.948-67.871 0-93.808 12.926-12.938 29.921-19.437 46.904-19.437s33.966 6.499 46.904 19.437l398.725 398.737 398.737-398.737c12.938-12.938 29.921-19.437 46.904-19.437s33.966 6.499 46.904 19.437c25.948 25.936 25.948 67.871 0 93.808z" />
<glyph unicode="&#xe91b;" glyph-name="Contract" d="M669.908 684.392h-490.378c-8.32 0-15.064-6.744-15.064-15.064s6.744-15.064 15.064-15.064h490.38c8.32 0 15.064 6.744 15.064 15.064s-6.746 15.064-15.066 15.064zM179.53 758.758h245.188c8.32 0 15.064 6.744 15.064 15.064s-6.744 15.064-15.064 15.064h-245.188c-8.32 0-15.064-6.744-15.064-15.064 0-8.322 6.744-15.064 15.064-15.064zM669.908 591.808h-490.378c-8.32 0-15.064-6.744-15.064-15.064s6.744-15.064 15.064-15.064h490.38c8.32 0 15.064 6.744 15.064 15.064-0.002 8.32-6.746 15.064-15.066 15.064zM291.236 40.664h-156.934c-25.758 0-46.716 20.956-46.716 46.714v795.78c0 25.758 20.958 46.716 46.716 46.716h452.112c1.46 0 2.898-0.134 4.32-0.326v-93.948c0-42.372 34.472-76.842 76.842-76.842h93.946c0.194-1.424 0.326-2.862 0.326-4.322v-256.522c0-8.32 6.744-15.064 15.064-15.064s15.064 6.744 15.064 15.064v256.52c0 16.524-6.436 32.060-18.12 43.746l-143.7 143.7c-11.684 11.684-27.218 18.12-43.742 18.12h-452.112c-42.372 0-76.842-34.472-76.842-76.842v-795.78c0-42.37 34.472-76.84 76.842-76.84h156.934c8.32 0 15.064 6.744 15.064 15.064s-6.744 15.062-15.064 15.062zM740.546 788.884h-72.968c-25.758 0-46.716 20.958-46.716 46.716v72.968zM961.916 222.542l-127.636 215.44c-9.302 15.708-29.546 20.9-45.262 11.59l-31.046-18.394c-24.098-14.276-34.284-43.166-26.010-68.768-10.46-3.79-21.928-3.73-32.488 0.352-24.512 7.712-43.148 23.226-73.926 15.442-52.26-13.306-50.672-12.64-55.4-14.26-30.6 17.422-48.994 22.606-81.478 10.040l-28.956-11.194c-13.406-5.18-28.178-3.952-40.566 3.388l-7.902 4.658c3.856 23.104-6.39 47.486-28.086 60.338 0 0 0 0-0.002 0.002l-31.044 18.392c-15.672 9.282-35.976 4.086-45.26-11.586l-127.64-215.442c-9.302-15.704-4.126-35.954 11.586-45.26l31.044-18.392c9.394-5.566 19.718-8.212 29.918-8.212 11.374 0 22.588 3.296 32.176 9.504l6.47-3.818-13.66-19.026c-16.278-22.676-11.106-54.208 11.574-70.488 10.488-7.528 23.664-10.966 37.29-8.826 2.162-12.638 9.086-24.466 20.298-32.518 10.53-7.56 23.646-11.002 37.296-8.852 2.168-12.628 9.088-24.446 20.294-32.492 15.060-10.81 33.784-12.060 49.386-5.396 3.414-8.868 9.348-16.876 17.626-22.82 21.616-15.514 51.392-11.468 68.188 8.632l36.3-21.504c24.006-14.226 54.98-6.32 69.214 17.714 3.64 6.144 5.898 12.84 6.724 19.722l0.082-0.050c23.97-14.196 55.014-6.248 69.214 17.716 4.112 6.942 6.366 14.472 6.914 22.018 21.128-5.312 44.154 3.562 55.814 23.242 3.826 6.456 6.044 13.43 6.774 20.448 22.644-8.886 49.11-0.298 61.898 21.286 6.878 11.61 8.824 25.202 5.478 38.276-1.914 7.48-5.434 14.27-10.266 20.004l20.008 11.69c16.926-6.948 36.242-5.836 52.43 3.752l31.040 18.392c15.712 9.3 20.902 29.546 11.592 45.26zM237.2 184.806l-31.044 18.394c-1.38 0.818-1.838 2.606-1.022 3.986l127.64 215.446c0.822 1.386 2.616 1.836 3.988 1.020l31.042-18.39c13.794-8.174 18.11-25.866 10.086-39.408l-101.282-170.96c-8.084-13.648-25.76-18.17-39.408-10.088zM305.89 91.322c-9.148 6.568-11.24 19.292-4.668 28.444l20.078 27.968c6.396 8.91 19.142 11.348 28.444 4.67 9.13-6.554 11.224-19.312 4.672-28.442l-20.080-27.968c-6.554-9.134-19.32-11.222-28.446-4.672zM363.48 49.976c-9.13 6.556-11.224 19.318-4.67 28.446l20.078 27.966s0 0 0 0.002c0 0 0 0.002 0.002 0.002l22.158 30.864c3.176 4.422 7.882 7.346 13.254 8.226 1.116 0.184 2.234 0.274 3.344 0.274 4.228 0 8.342-1.316 11.846-3.83 4.42-3.176 7.344-7.88 8.224-13.252 0.882-5.374-0.38-10.768-3.556-15.19l-42.238-58.836c-6.564-9.15-19.29-11.244-28.442-4.672zM421.070 8.634c-9.126 6.552-11.222 19.304-4.68 28.432 0.002 0.004 0.006 0.008 0.008 0.012l42.238 58.834c6.55 9.128 19.318 11.224 28.444 4.672 9.13-6.554 11.224-19.314 4.67-28.444l-18.766-26.142s0 0-0.002-0.002l-23.47-32.692c-6.554-9.13-19.31-11.228-28.442-4.67zM488.082-19.582c-9.124 6.552-11.222 19.298-4.684 28.428l14.058 19.58c6.552 9.132 19.318 11.22 28.444 4.67 9.128-6.552 11.224-19.314 4.67-28.444l-14.046-19.562c-6.552-9.132-19.316-11.228-28.442-4.672zM825.72 100.522c-5.732-9.674-18.26-12.882-27.936-7.152-16.384 9.706-122.072 72.32-133.34 78.996-7.16 4.24-16.398 1.878-20.638-5.28s-1.878-16.398 5.28-20.638l100.808-59.724c9.678-5.732 12.906-18.222 7.152-27.938-5.734-9.678-18.268-12.88-27.94-7.154-37.284 22.088-67.558 40.024-100.86 59.754-7.162 4.24-16.398 1.878-20.638-5.28s-1.878-16.398 5.28-20.638l74.292-44.014c9.684-5.75 12.88-18.234 7.138-27.93-5.734-9.678-18.264-12.884-27.942-7.152l-39.862 23.614c-0.004 0.002-0.010 0.004-0.014 0.008-0.004 0.002-0.008 0.004-0.012 0.006l-29.090 17.236c-7.16 4.242-16.398 1.88-20.638-5.28-4.24-7.158-1.878-16.398 5.28-20.638l29.096-17.238c0.004-0.002 0.008-0.006 0.012-0.008 9.678-5.732 12.906-18.22 7.152-27.936-5.734-9.678-18.264-12.884-27.942-7.152l-33.942 20.106c14.55 22.452 9.016 52.708-12.946 68.472-6.45 4.628-13.632 7.51-20.978 8.748 7.792 20.834 1.074 45.158-17.844 58.738-11.2 8.044-24.61 10.822-37.266 8.838-2.252 13.17-9.454 24.706-20.32 32.504-20.436 14.666-48.208 11.848-65.362-5.506-3.486 6.122-8.298 11.614-14.386 15.984-16.982 12.188-39.030 12.302-55.842 2.036l-6.902 4.074 94.74 159.918 4.51-2.66c19.92-11.8 44.228-14.26 66.756-5.548l28.956 11.194c16.57 6.404 25.708 6.822 42.098-0.912-10.724-12.048-17.090-27.866-17.090-44.914v-66.79c0-17.74 14.422-32.182 32.148-32.194h0.044c17.78 0 34.5 6.922 47.078 19.492 7.332 7.328 12.744 16.064 15.988 25.6 19.45-11.518 180.144-106.676 198.774-117.714 4.686-2.776 8.010-7.21 9.36-12.486 1.35-5.27 0.564-10.756-2.212-15.442zM934.976 203.2l-31.046-18.394c-13.648-8.080-31.324-3.554-39.404 10.086l-47.472 80.13c-4.242 7.158-13.486 9.52-20.638 5.284-7.158-4.24-9.522-13.48-5.284-20.638l47.472-80.132c0.894-1.508 1.864-2.942 2.868-4.34l-13.198-7.71c-2.668-1.58-5.234-3.32-7.688-5.21l-204.646 121.19c-10.026 5.934-22.738-1.3-22.738-12.96-0.158-0.9 1.556-16.384-10.69-28.626-6.888-6.882-16.044-10.674-25.782-10.674-0.008 0-0.016 0-0.024 0-1.126 0-2.042 0.928-2.042 2.068v66.79c0 17.448 12.004 32.168 28.238 36.278l50.032 12.662c18.154 4.588 28.416-5.106 55.598-14.306 18.87-7.3 39.388-6.85 57.6 0.928l9.092-15.348c4.242-7.162 13.482-9.522 20.638-5.284 7.158 4.24 9.522 13.48 5.284 20.638l-17.908 30.226c-8.102 13.676-3.588 31.3 10.086 39.406l31.044 18.39c1.356 0.806 3.15 0.394 3.99-1.022l127.636-215.442c0.824-1.39 0.37-3.168-1.018-3.99z" />
<glyph unicode="&#xe91c;" glyph-name="CreditCard" d="M889.036 325.043c-29.298 19.932-67.722 19.932-97.261 0-14.409 9.846-31.22 14.889-48.51 14.889-48.030 0-86.694-38.904-86.694-86.694s38.664-86.934 86.694-86.934c17.291 0 34.101 5.043 48.51 14.889 39.625-26.897 93.659-16.33 120.555 23.295s16.33 93.659-23.295 120.555zM869.583 228.023c-13.689-16.33-37.944-18.492-54.274-4.803-1.921 1.441-3.362 3.122-5.043 5.043-4.563 5.523-11.527 8.645-18.492 8.405-7.205 0-13.929-3.122-18.492-8.645-7.205-8.886-18.251-14.169-29.779-13.929-21.373 0-38.904 17.291-38.904 38.664-0.24 21.614 17.051 38.904 38.664 38.904 11.527 0 22.574-5.283 29.779-14.169 8.405-10.326 23.535-12.008 33.861-3.602 1.201 0.961 2.402 2.161 3.602 3.602 13.689 16.33 37.944 18.492 54.274 4.803s18.492-37.944 4.803-54.274zM1023.039 528.69c0 2.161 0.961 4.563 0.961 6.964s-0.961 4.563-0.961 6.724v51.392c0 56.435-46.349 101.583-102.784 101.583h-29.298v29.058c0 56.435-44.908 103.024-101.343 103.024h-687.79c-56.435 0-101.824-46.589-101.824-103.024v-422.184c-0.24-55.955 45.148-101.343 101.103-101.583 0.24 0 0.48 0 0.72 0h27.857v-29.058c0.24-56.675 45.869-102.784 102.544-103.024h688.030c56.675 0.48 102.544 46.349 102.784 103.024v244.473c0 2.161 0.961 4.563 0.961 6.724s-0.961 4.563-0.961 6.724v99.182zM129.681 593.771v-345.096h-27.857c-29.298-0.24-53.553 23.295-53.794 52.593 0 0.24 0 0.48 0 0.72v422.424c0 29.779 23.775 54.994 53.794 54.994h688.030c30.019 0 53.313-25.216 53.313-54.994v-29.058h-610.942c-56.435 0-102.544-45.148-102.544-101.583zM975.009 171.587c-0.24-30.259-24.495-54.754-54.754-54.994h-688.030c-30.259 0.24-54.514 24.735-54.514 54.994v228.383h797.298v-228.383zM975.009 448h-797.298v62.439h797.298v-62.439zM975.25 558.469h-797.538v35.302c0.24 29.779 24.495 53.794 54.514 53.553h688.27c30.019 0 54.754-23.535 54.754-53.553v-35.302z" />
<glyph unicode="&#xe91d;" glyph-name="DateTime" d="M472 500h80v-80h-80v80zM904 880h-48v80h-80v-80h-528v80h-80v-80h-48c-66.168 0-120-53.832-120-120v-704c0-66.168 53.832-120 120-120h411.524c-27.656 22.828-51.744 49.822-71.326 80h-340.198c-22.056 0-40 17.944-40 40v528h864v-84.198c30.176-19.582 57.172-43.672 80-71.326v331.524c0 66.168-53.832 120-120 120zM944 664h-864v96c0 22.056 17.944 40 40 40h48v-80h80v80h528v-80h80v80h48c22.056 0 40-17.944 40-40v-96zM754 476c-148.878 0-270-121.122-270-270s121.122-270 270-270 270 121.122 270 270-121.122 270-270 270zM754 16c-104.766 0-190 85.234-190 190s85.234 190 190 190 190-85.234 190-190-85.234-190-190-190zM792 340h-80v-174h148v80h-68zM312 340h80v-80h-80v80zM152 340h80v-80h-80v80zM152 500h80v-80h-80v80zM152 180h80v-80h-80v80zM312 500h80v-80h-80v80zM312 180h80v-80h-80v80z" />
<glyph unicode="&#xe91e;" glyph-name="Delete" d="M653.245 589.003c-13.246 0-23.981-10.735-23.981-23.981v-453.245c0-13.236 10.735-23.981 23.981-23.981s23.981 10.745 23.981 23.981v453.245c0 13.246-10.735 23.981-23.981 23.981zM370.267 589.003c-13.246 0-23.981-10.735-23.981-23.981v-453.245c0-13.236 10.735-23.981 23.981-23.981s23.981 10.745 23.981 23.981v453.245c0 13.246-10.735 23.981-23.981 23.981zM164.029 655.148v-590.846c0-34.923 12.806-67.719 35.176-91.25 22.267-23.597 53.255-36.993 85.686-37.049h453.732c32.44 0.056 63.428 13.452 85.686 37.049 22.37 23.532 35.176 56.328 35.176 91.25v590.846c44.468 11.803 73.283 54.763 67.335 100.393-5.958 45.62-44.824 79.747-90.838 79.756h-122.782v29.976c0.141 25.208-9.827 49.414-27.672 67.222-17.845 17.799-42.089 27.71-67.297 27.503h-212.945c-25.208 0.206-49.452-9.705-67.297-27.503-17.845-17.808-27.813-42.014-27.672-67.222v-29.976h-122.782c-46.014-0.009-84.88-34.136-90.838-79.756-5.948-45.63 22.866-88.59 67.335-100.393zM738.622-16.034h-453.732c-41.002 0-72.899 35.222-72.899 80.337v588.738h599.53v-588.738c0-45.115-31.897-80.337-72.899-80.337zM358.277 865.274c-0.159 12.487 4.749 24.506 13.611 33.321 8.852 8.815 20.899 13.658 33.396 13.443h212.945c12.496 0.215 24.543-4.628 33.396-13.443 8.862-8.806 13.77-20.834 13.611-33.321v-29.976h-306.959zM187.533 787.335h648.448c23.841 0 43.166-19.325 43.166-43.166s-19.325-43.166-43.166-43.166h-648.448c-23.841 0-43.166 19.325-43.166 43.166s19.325 43.166 43.166 43.166zM511.756 589.003c-13.246 0-23.981-10.735-23.981-23.981v-453.245c0-13.236 10.735-23.981 23.981-23.981s23.981 10.745 23.981 23.981v453.245c0 13.246-10.735 23.981-23.981 23.981z" />
<glyph unicode="&#xe91f;" glyph-name="Device" d="M969.523 455.373h-117.555v305.971c0 47.104-38.093 84.787-85.197 85.197h-509.542c-47.104 0-85.197-38.093-85.197-85.197v-101.99h-92.979c-42.189 0-76.595-34.406-76.595-76.595v-458.342c0-42.189 34.406-76.595 76.595-76.595h271.565c32.358 0 61.030 20.48 72.090 51.2h293.683c9.421 0 16.794 7.782 16.794 16.794v33.997c0 28.262-22.938 51.2-51.2 51.2h-51.2v67.994h135.987v-168.346c0-29.082 23.757-52.838 52.838-52.838h149.504c29.082 0 52.838 23.757 52.838 52.838v302.285c0 29.082-23.347 52.429-52.429 52.429zM393.216 124.006c0-23.757-19.251-42.598-42.598-42.598h-271.565c-23.757 0-42.598 19.251-42.598 42.598v8.192h356.762v-8.192zM393.216 166.605h-357.171v373.965h357.171v-373.965zM393.216 574.566h-357.171v8.192c0 23.757 19.251 42.598 42.598 42.598h271.565c23.757 0 42.598-19.251 42.598-42.598l0.41-8.192zM681.984 166.605c9.421 0 16.794-7.782 16.794-16.794v-16.794h-271.974v33.997h255.181zM427.213 200.602v67.994h169.984v-67.994h-169.984zM767.181 302.592h-340.378v51.2h339.968v-51.2zM767.181 402.944v-15.155h-339.968v194.97c0 42.189-34.406 76.595-76.595 76.595h-144.589v101.99c0 28.262 22.938 51.2 51.2 51.2h509.952c28.262 0 51.2-22.938 51.2-51.2v-305.971c-28.672-0.819-51.2-24.166-51.2-52.429zM987.955 100.25c0-10.24-8.192-18.842-18.842-18.842h-149.504c-10.24 0-18.842 8.192-18.842 18.842v15.155h187.187v-15.155zM987.955 149.402h-187.187v203.981h187.187v-203.981zM987.955 387.379h-187.187v15.565c0 10.24 8.192 18.842 18.842 18.842h149.504c10.24 0 18.842-8.192 18.842-18.842v-15.565z" />
<glyph unicode="&#xe920;" glyph-name="Dislike" d="M996.243 476.841c17.536 17.622 27.733 41.513 27.733 67.156 0 36.991-21.162 69.502-52.649 85.374 6.528 13.056 9.984 27.519 9.984 42.623 0 36.991-21.206 69.544-52.693 85.374 9.728 19.456 12.586 41.855 7.68 64.084-9.558 43.221-50.217 74.536-96.68 74.536h-391.629c-29.653 0-77.438-9.6-112.935-27.861-14.848 41.087-54.271 70.526-100.392 70.526h-127.997c-58.837 0-106.666-47.827-106.666-106.664v-341.326c0-58.837 47.829-106.664 106.664-106.664h213.329c11.776 0 21.333 9.558 21.333 21.333v8.15l5.078-2.56 122.919-266.234v-144.679c0-6.486 2.944-12.63 7.978-16.682 1.366-1.024 33.065-25.983 77.352-25.983 49.365 0 127.997 78.12 127.997 170.662 0 58.367-20.906 131.027-33.961 170.662h263.546c57.429 0 106.28 42.495 111.315 96.724 2.772 30.419-7.382 59.645-27.307 81.446zM950.634 459.648c20.95-12.928 32.639-36.053 30.377-60.373-2.986-32.469-33.193-57.941-68.776-57.941h-293.583c-6.998 0-13.568-3.456-17.578-9.216-3.968-5.802-4.864-13.184-2.346-19.712 0.384-1.066 41.257-109.309 41.257-184.402 0-69.886-61.951-127.997-85.332-127.997-18.39 0-33.833 6.698-42.665 11.562v137.767c0 3.072-0.682 6.144-2.006 8.96l-127.997 277.328c-2.006 4.352-5.462 7.936-9.814 10.112l-42.665 21.333c-6.614 3.328-14.506 2.902-20.736-0.896-6.272-3.926-10.112-10.794-10.112-18.176v-21.333h-191.996c-35.285 0-63.999 28.713-63.999 63.999v341.328c0 35.285 28.713 63.999 63.999 63.999h127.997c35.285 0 63.999-28.713 63.999-63.999 0-8.618 5.206-16.426 13.184-19.712 7.936-3.242 17.11-1.45 23.253 4.608 20.138 20.182 78.248 36.437 112.893 36.437h391.629c26.623 0 49.749-17.238 54.997-41.129 4.224-19.072-1.408-37.589-15.446-50.857-6.058-5.674-8.278-14.336-5.632-22.271 2.646-7.894 9.6-13.526 17.834-14.464 26.921-3.072 47.273-25.685 47.273-52.607 0-14.678-6.016-28.415-16.81-38.655-6.058-5.674-8.278-14.336-5.632-22.271 2.646-7.894 9.6-13.526 17.834-14.464 26.921-3.072 47.273-25.685 47.273-52.607 0-19.882-11.178-37.973-29.225-47.189-6.826-3.542-11.222-10.454-11.562-18.176-0.298-7.682 3.584-14.934 10.112-18.988zM319.993 853.325c-11.776 0-21.333-9.558-21.333-21.333v-383.991c0-11.776 9.558-21.333 21.333-21.333s21.333 9.558 21.333 21.333v383.991c0 11.776-9.558 21.333-21.333 21.333z" />
<glyph unicode="&#xe921;" glyph-name="Document" d="M879.316 764.32l-189.705 189.705c-3.827 3.825-9.014 5.975-14.424 5.975h-516.080c-11.266 0-20.398-9.132-20.398-20.398v-983.203c0-11.266 9.132-20.398 20.398-20.398h705.785c11.264 0 20.398 9.132 20.398 20.398v793.498c0 5.41-2.15 10.599-5.975 14.424zM695.586 890.354l120.059-120.059h-120.059v120.059zM844.494-23.203h-664.988v942.406h475.283v-169.307c0-11.266 9.134-20.398 20.398-20.398h169.307v-752.701zM282.518 605.068h337.594c11.264 0 20.398 9.132 20.398 20.398s-9.134 20.398-20.398 20.398h-337.594c-11.266 0-20.398-9.132-20.398-20.398s9.132-20.398 20.398-20.398zM741.482 511.235h-458.964c-11.266 0-20.398-9.132-20.398-20.398s9.132-20.398 20.398-20.398h458.964c11.264 0 20.398 9.132 20.398 20.398s-9.134 20.398-20.398 20.398zM741.482 376.606h-458.964c-11.266 0-20.398-9.132-20.398-20.398s9.132-20.398 20.398-20.398h458.964c11.264 0 20.398 9.132 20.398 20.398s-9.134 20.398-20.398 20.398zM741.482 241.976h-458.964c-11.266 0-20.398-9.132-20.398-20.398s9.132-20.398 20.398-20.398h458.964c11.264 0 20.398 9.132 20.398 20.398s-9.134 20.398-20.398 20.398zM696.606 605.068h44.876c11.264 0 20.398 9.132 20.398 20.398s-9.134 20.398-20.398 20.398h-44.876c-11.264 0-20.398-9.132-20.398-20.398s9.134-20.398 20.398-20.398z" />
<glyph unicode="&#xe922;" glyph-name="DownArrow" d="M1010.368 713.641c-18.174 18.174-47.647 18.178-65.825-0.003l-432.531-432.541-432.553 432.544c-18.174 18.174-47.647 18.178-65.825-0.003-18.178-18.178-18.178-47.647 0-65.825l465.467-465.455c8.729-8.729 20.567-13.632 32.911-13.632s24.185 4.906 32.911 13.635l465.442 465.455c18.181 18.174 18.181 47.647 0.003 65.825z" />
<glyph unicode="&#xe923;" glyph-name="Download" d="M944 334v-278c0-22.056-17.944-40-40-40h-784c-22.056 0-40 17.944-40 40v278h-80v-278c0-66.168 53.832-120 120-120h784c66.168 0 120 53.832 120 120v278h-80zM704 488.568l-152-152v623.432h-80v-623.432l-152 152-56.568-56.568 248.568-248.568 248.568 248.568z" />
<glyph unicode="&#xe924;" glyph-name="Edit" d="M881.504 889.686c-51.612 51.521-135.19 51.521-186.802 0l-46.76-47.017-498.818-498.562c-0.256-0.256-0.256-0.529-0.529-0.529-0.529-0.793-1.322-1.579-1.843-2.372 0-0.264-0.273-0.264-0.273-0.529-0.529-0.793-0.785-1.322-1.322-2.116-0.256-0.264-0.256-0.521-0.521-0.793-0.264-0.793-0.529-1.322-0.802-2.116 0-0.256-0.256-0.256-0.256-0.529l-110.438-332.099c-3.24-9.455-0.777-19.926 6.339-26.942 5-4.934 11.744-7.694 18.76-7.669 2.868 0.050 5.711 0.496 8.455 1.322l331.843 110.702c0.256 0 0.256 0 0.529 0.256 0.835 0.248 1.636 0.603 2.372 1.066 0.207 0.025 0.388 0.116 0.537 0.256 0.785 0.529 1.843 1.066 2.636 1.595 0.785 0.521 1.587 1.314 2.38 1.843 0.264 0.273 0.521 0.273 0.521 0.529 0.273 0.264 0.802 0.521 1.066 1.058l544.52 544.52c51.521 51.612 51.521 135.19 0 186.793zM390.082 142.529l-183.884 183.876 460.239 460.239 183.884-183.876zM180.297 277.529l160.645-160.636-241.223-80.314zM915.851 668.554l-28.008-28.273-183.892 183.892 28.281 28.264c30.934 30.909 81.074 30.909 112.016 0l71.859-71.859c30.702-31.074 30.587-81.099-0.256-112.025z" />
<glyph unicode="&#xe925;" glyph-name="Email" d="M934 838h-844c-49.564 0-90-40.392-90-90v-600c0-49.44 40.256-90 90-90h844c49.44 0 90 40.256 90 90v600c0 49.44-40.256 90-90 90zM921.572 778l-407.664-407.666-411.19 407.666h818.854zM60 160.424v575.438l288.958-286.48-288.958-288.958zM102.426 118l289.14 289.14 101.314-100.444c11.728-11.628 30.654-11.59 42.334 0.092l98.786 98.786 287.574-287.574h-819.148zM964 160.426l-287.574 287.574 287.574 287.576v-575.15z" />
<glyph unicode="&#xe926;" glyph-name="Expiration" d="M829.85 233.37v118.374c0 11.059-9.011 19.661-19.661 19.661h-118.374c-2.867 40.96-37.274 72.909-78.643 72.909s-75.776-32.358-78.643-72.909h-96.256v111.411c0 11.059-9.011 19.661-19.661 19.661h-13.926c-21.709 0-39.322 17.613-39.322 39.322s17.613 39.322 39.322 39.322h13.926c11.059 0 19.661 9.011 19.661 19.661v138.854c0 11.059-9.011 19.661-20.070 19.661h-394.035c-11.059 0-19.661-9.011-19.661-19.661v-781.926c0-11.059 9.011-19.661 19.661-19.661h785.613c11.059 0 19.661 9.011 19.661 19.661v118.374c40.96 2.867 72.909 37.274 72.909 78.643 0.819 41.37-31.539 75.776-72.499 78.643v0zM398.541 719.565v-98.304c-40.96-2.867-72.909-37.274-72.909-78.643s32.358-75.776 72.909-78.643v-92.16h-117.965c-11.059 0-19.661-9.011-19.661-19.661v-13.926c0-21.709-17.613-39.322-39.322-39.322s-39.322 17.613-39.322 39.322v13.926c0 11.059-9.011 19.661-19.661 19.661h-118.374v348.16h354.304zM44.237 332.083h98.304c2.867-40.96 37.274-72.909 78.643-72.909s75.776 32.358 78.643 72.909h98.304v-117.965c0-11.059 9.011-19.661 19.661-19.661h13.926c21.709 0 39.322-17.613 39.322-39.322s-17.613-39.322-39.322-39.322h-13.926c-11.059 0-19.661-9.011-19.661-19.661v-117.965h-353.894v353.894zM824.115 115.405h-13.926c-11.059 0-19.661-9.011-19.661-19.661v-117.965h-352.256v98.304c40.96 2.867 72.909 37.274 72.909 78.643s-32.358 75.776-72.909 78.643v98.304h115.917c11.059 0 19.661 9.011 19.661 19.661v13.926c0 21.709 17.613 39.322 39.322 39.322s39.322-17.613 39.322-39.322v-13.926c0-11.059 9.011-19.661 19.661-19.661h117.965v-117.965c0-11.059 9.011-19.661 19.661-19.661h13.926c21.709 0 39.322-17.613 39.322-39.322 0.41-21.709-17.203-39.322-38.912-39.322v0zM1000.653 954.266h-394.035c-11.059 0-19.661-9.011-19.661-19.661v-118.374c-40.96-2.867-72.909-37.274-72.909-78.643s32.358-75.776 72.909-78.643v-118.374c0-11.059 9.011-19.661 19.661-19.661h138.035c11.059 0 19.661 9.011 19.661 19.661v13.926c0 21.709 17.613 39.322 39.322 39.322s39.322-17.613 39.322-39.322v-13.926c0-11.059 9.011-19.661 19.661-19.661h138.035c11.059 0 19.661 9.011 19.661 20.070v393.216c0 11.059-9.011 20.070-19.661 20.070v0zM980.582 559.821h-98.304c-2.867 40.96-37.274 72.909-78.643 72.909s-75.776-32.358-78.643-72.909h-98.304v118.374c0 11.059-9.011 19.661-19.661 19.661h-13.926c-21.709 0-39.322 17.613-39.322 39.322s17.613 39.322 39.322 39.322h13.926c11.059 0 19.661 9.011 19.661 19.661v118.374h354.304v-354.714z" />
<glyph unicode="&#xe927;" glyph-name="Facebook" d="M682.539 789.973h93.483v162.816c-16.128 2.219-71.595 7.211-136.192 7.211-134.784 0-227.115-84.779-227.115-240.597v-143.403h-148.736v-182.016h148.736v-457.984h182.357v457.941h142.72l22.656 182.016h-165.419v125.397c0.043 52.608 14.208 88.619 87.509 88.619z" />
<glyph unicode="&#xe928;" glyph-name="Favorite" d="M941.29 814.55c-53.62 53.62-124.608 82.927-200.371 82.927s-146.968-29.524-200.588-83.144l-28.004-28.004-28.438 28.438c-53.62 53.62-125.042 83.361-200.805 83.361-75.546 0-146.751-29.524-200.154-82.927-53.62-53.62-83.144-124.825-82.927-200.588 0-75.763 29.741-146.751 83.361-200.371l407.689-407.689c5.644-5.644 13.242-8.683 20.623-8.683s14.979 2.822 20.623 8.466l408.557 407.038c53.62 53.62 83.144 124.825 83.144 200.588 0.217 75.763-29.090 146.968-82.71 200.588zM899.609 454.837l-387.934-386.414-387.066 387.066c-42.549 42.549-65.994 98.992-65.994 159.125s23.228 116.576 65.777 158.907c42.332 42.332 98.774 65.777 158.69 65.777 60.133 0 116.793-23.445 159.342-65.994l49.062-49.062c11.506-11.506 29.958-11.506 41.464 0l48.627 48.627c42.549 42.549 99.209 65.994 159.125 65.994s116.358-23.445 158.907-65.777c42.549-42.549 65.777-98.992 65.777-159.125 0.217-60.133-23.228-116.576-65.777-159.125z" />
<glyph unicode="&#xe929;" glyph-name="FileAdd" d="M746.667-64c-152.917 0-277.333 124.416-277.333 277.333s124.416 277.333 277.333 277.333 277.333-124.416 277.333-277.333-124.416-277.333-277.333-277.333zM746.667 426.667c-117.632 0-213.333-95.701-213.333-213.333s95.701-213.333 213.333-213.333 213.333 95.701 213.333 213.333-95.701 213.333-213.333 213.333zM746.667 64c-17.664 0-32 14.336-32 32v234.667c0 17.664 14.336 32 32 32s32-14.336 32-32v-234.667c0-17.664-14.336-32-32-32zM864 181.333h-234.667c-17.664 0-32 14.336-32 32s14.336 32 32 32h234.667c17.664 0 32-14.336 32-32s-14.336-32-32-32zM392.107 64h-274.773c-64.725 0-117.333 52.608-117.333 117.333v661.333c0 64.725 52.608 117.333 117.333 117.333h490.667c64.725 0 117.333-52.608 117.333-117.333v-259.84c0-17.664-14.336-32-32-32s-32 14.336-32 32v259.84c0 29.397-23.936 53.333-53.333 53.333h-490.667c-29.397 0-53.333-23.936-53.333-53.333v-661.333c0-29.397 23.936-53.333 53.333-53.333h274.773c17.664 0 32-14.336 32-32s-14.336-32-32-32zM565.333 554.667h-405.333c-17.664 0-32 14.336-32 32s14.336 32 32 32h405.333c17.664 0 32-14.336 32-32s-14.336-32-32-32zM394.667 384h-234.667c-17.664 0-32 14.336-32 32s14.336 32 32 32h234.667c17.664 0 32-14.336 32-32s-14.336-32-32-32zM352 725.333h-192c-17.664 0-32 14.336-32 32s14.336 32 32 32h192c17.664 0 32-14.336 32-32s-14.336-32-32-32z" />
<glyph unicode="&#xe92a;" glyph-name="FileDownload" d="M743.89 516.719v193.789c0 5.547-2.562 10.672-6.187 14.727l-217.265 228.148c-4.055 4.266-9.82 6.617-15.578 6.617h-344.468c-63.594 0-114.39-51.859-114.39-115.461v-651.366c0-63.601 50.797-114.609 114.39-114.609h271.906c51.43-85.367 144.914-142.562 251.406-142.562 161.773 0 293.882 131.469 293.882 293.453 0.219 141.5-101.375 259.734-233.695 287.265zM526.203 885.086l145.765-153.445h-94.547c-28.172 0-51.219 23.258-51.219 51.43zM160.391 121.251c-39.906 0-71.703 32.016-71.703 71.922v651.366c0 40.125 31.797 72.773 71.703 72.773h323.125v-134.242c0-51.859 42.047-94.117 93.906-94.117h123.781v-166.679c-6.398 0.211-11.523 0.852-17.070 0.852-74.484 0-142.992-28.602-194.64-73.422h-271.046c-11.742 0-21.344-9.602-21.344-21.336 0-11.742 9.602-21.344 21.344-21.344h231.351c-15.156-21.344-27.75-42.687-37.562-66.164h-193.789c-11.742 0-21.344-9.602-21.344-21.344 0-11.734 9.602-21.344 21.344-21.344h179.914c-5.336-21.344-8.109-45.031-8.109-68.719 0-38.414 7.469-76.406 20.914-108.422h-250.773zM683.922-21.53c-138.297 0-250.773 112.476-250.773 250.773s112.258 250.773 250.773 250.773c138.508 0 250.765-112.476 250.765-250.773s-112.469-250.773-250.765-250.773zM218.446 513.946h216.195c11.742 0 21.344 9.609 21.344 21.344 0 11.742-9.602 21.344-21.344 21.344h-216.195c-11.742 0-21.344-9.602-21.344-21.344 0-11.734 9.602-21.344 21.344-21.344zM793.187 233.728l-87.711-94.547v233.054c0 11.742-9.609 21.344-21.344 21.344-11.742 0-21.344-9.602-21.344-21.344v-233.054l-88.359 94.547c-8.109 8.531-21.766 9.172-30.305 1.062s-9.18-21.555-1.062-30.094l124.851-134.242c4.055-4.266 9.602-6.828 15.578-6.828s11.523 2.562 15.578 6.828l125.070 134.242c8.109 8.539 7.68 22.195-0.859 30.094-8.75 8.109-21.977 7.469-30.094-1.062z" />
<glyph unicode="&#xe92b;" glyph-name="FileEdit" d="M997.582 637.746c-35.090 35.092-92.188 35.090-127.29-0.008-10.796-10.806-79.726-79.792-90.256-90.332v237.742c0 24.040-9.362 46.64-26.362 63.638l-84.85 84.854c-16.998 17-39.6 26.36-63.64 26.36h-515.148c-49.626 0-90-40.374-90-90v-844c0-49.626 40.374-90 90-90h600c49.626 0 90 40.374 90 90v266.738l217.544 217.728c35.174 35.172 35.182 92.104 0.002 127.28zM600.038 900c5.668 0 16.59 0.982 26.36-8.786l84.852-84.854c9.52-9.522 8.788-19.956 8.788-26.36h-120v120zM720.036 26c0-16.542-13.456-30-30-30h-600c-16.542 0-30 13.458-30 30v844c0 16.542 13.458 30 30 30h450v-150c0-16.568 13.432-30 30-30h150v-232.646c0 0-88.508-88.584-88.512-88.586l-42.406-42.408c-3.292-3.292-5.776-7.308-7.248-11.726l-42.428-127.28c-3.594-10.78-0.788-22.666 7.248-30.7 8.046-8.046 19.936-10.838 30.7-7.248l127.28 42.426c4.418 1.472 8.434 3.954 11.726 7.248l3.64 3.64v-206.72zM652.756 335.146l42.426-42.426-16.206-16.206-63.638-21.212 21.212 63.64 16.206 16.204zM737.6 335.156l-42.426 42.426c22.592 22.61 122.93 123.034 144.21 144.332l42.426-42.426-144.21-144.332zM955.146 552.884l-30.926-30.952-42.426 42.426 30.936 30.962c11.704 11.698 30.732 11.696 42.428 0 11.694-11.7 11.756-30.666-0.012-42.436zM570.036 660h-420c-16.568 0-30-13.432-30-30s13.432-30 30-30h420c16.568 0 30 13.432 30 30s-13.432 30-30 30zM450.036 540h-300c-16.568 0-30-13.432-30-30s13.432-30 30-30h300c16.568 0 30 13.432 30 30s-13.432 30-30 30zM450.036 420h-300c-16.568 0-30-13.432-30-30s13.432-30 30-30h300c16.568 0 30 13.432 30 30s-13.432 30-30 30zM450.036 300h-300c-16.568 0-30-13.432-30-30s13.432-30 30-30h300c16.568 0 30 13.432 30 30s-13.432 30-30 30zM570.036 116h-180c-16.568 0-30-13.432-30-30s13.432-30 30-30h180c16.568 0 30 13.432 30 30s-13.432 30-30 30z" />
<glyph unicode="&#xe92c;" glyph-name="Filter" d="M983.4 830.8h-608.8c-16.8 49.8-63.8 85.6-119 85.6s-102.4-36-119-85.6h-95.2c-22 0-40-18-40-40s18-40 40-40h95c16.8-49.8 63.8-85.6 119-85.6s102.4 36 119 85.6h609c22 0 40 18 40 40s-17.8 40-40 40zM255.4 745c-25.2 0-45.6 20.4-45.6 45.6s20.4 45.6 45.6 45.6 45.6-20.4 45.6-45.6c0.2-25-20.4-45.6-45.6-45.6zM983.4 488.2h-95c-16.8 49.8-63.8 85.6-119 85.6s-102.4-36-119-85.6h-609c-22 0-40-18-40-40s18-40 40-40h609c16.8-49.8 63.8-85.6 119-85.6s102.4 36 119 85.6h95c22 0 40 18 40 40s-17.8 40-40 40zM769.4 402.4c-25.2 0-45.6 20.4-45.6 45.6s20.4 45.6 45.6 45.6c25.2 0 45.6-20.4 45.6-45.6s-20.4-45.6-45.6-45.6zM983.4 145.6h-437.6c-16.8 49.8-63.8 85.6-119 85.6s-102.4-36-119-85.6h-266.4c-22 0-40-18-40-40s18-40 40-40h266.4c16.8-49.8 63.8-85.6 119-85.6s102.4 36 119 85.6h437.6c22 0 40 18 40 40s-17.8 40-40 40zM426.8 59.8c-25.2 0-45.6 20.4-45.6 45.6s20.4 45.6 45.6 45.6 45.6-20.4 45.6-45.6-20.4-45.6-45.6-45.6z" />
<glyph unicode="&#xe92d;" glyph-name="Folder" d="M1012.078 485.016c-15.547 25.109-43.047 40.094-73.562 40.094h-76.172v139.727c0 33.727-28.453 61.156-63.422 61.156h-372.883c-0.547 0-0.914 0.156-1.062 0.25l-66.734 93.336c-11.836 16.547-31.352 26.422-52.211 26.422h-242.609c-34.977 0-63.422-27.437-63.422-61.156v-670.297c0-34.516 29.141-62.602 64.969-62.602h754.727c11.758 0 21.914 6.789 26.828 16.641l0.023-0.008 169.125 339.68c12.266 24.617 10.914 53.312-3.594 76.758zM63.422 786h242.609c1.797 0 3.016-0.789 3.398-1.328l66.836-93.469c11.281-15.781 29.891-25.211 49.773-25.211h372.883c2.094 0 3.156-0.984 3.422-1.336v-139.547h-542.945c-33.672 0-64.297-18.977-78.023-48.352l-121.375-259.742v567.648c0.266 0.352 1.328 1.336 3.422 1.336zM961.961 435l-160.844-323.047h-723.984l158.602 339.398c3.844 8.227 13.359 13.758 23.664 13.758h679.117c9.586 0 18.016-4.367 22.547-11.68 2.547-4.117 4.766-10.656 0.898-18.43z" />
<glyph unicode="&#xe92e;" glyph-name="GeneratedResults" horiz-adv-x="1026" d="M950.202 958.69h-871.164c-41.047 0-74.671-33.624-74.671-74.671v-299.558c0-8.297 6.55-14.847 14.847-14.847s14.847 6.55 14.847 14.847v224.45h960.682v-796.493c0-24.89-20.087-44.977-44.977-44.977h-870.728c-24.89 0-44.977 20.087-44.977 44.977v597.806c0 8.297-6.55 14.847-14.847 14.847s-14.847-6.987-14.847-14.847v-597.37c0-41.047 33.624-74.671 74.671-74.671h871.164c41.047 0 74.671 33.624 74.671 74.671v871.164c0 41.047-33.624 74.671-74.671 74.671zM995.18 839.041h-961.119v44.977c0 24.89 20.087 44.977 44.977 44.977h871.164c24.89 0 44.977-20.087 44.977-44.977v-44.977zM208.293 898.866c-8.297 0-14.847-6.55-14.847-14.847s6.55-14.847 14.847-14.847 14.847 6.55 14.847 14.847-6.55 14.847-14.847 14.847zM148.469 898.866c-8.297 0-14.847-6.55-14.847-14.847s6.55-14.847 14.847-14.847 14.847 6.55 14.847 14.847-6.55 14.847-14.847 14.847zM88.645 898.866c-8.297 0-14.847-6.55-14.847-14.847s6.55-14.847 14.847-14.847 14.847 6.55 14.847 14.847-6.55 14.847-14.847 14.847zM504.358 670.049c-8.297 0-14.847-6.55-14.847-14.847v-22.27h-22.27c-8.297 0-14.847-6.55-14.847-14.847s6.55-14.847 14.847-14.847h22.27v-22.27c0-8.297 6.55-14.847 14.847-14.847s14.847 6.55 14.847 14.847v22.27h22.27c8.297 0 14.847 6.55 14.847 14.847s-6.55 14.847-14.847 14.847h-22.27v22.27c0 7.86-6.987 14.847-14.847 14.847zM338.859 134.25h231.874c8.297 0 14.847 6.55 14.847 14.847s-6.55 14.847-14.847 14.847h-231.874c-8.297 0-14.847-6.55-14.847-14.847s6.55-14.847 14.847-14.847zM338.859 313.723h351.522c8.297 0 14.847 6.55 14.847 14.847s-6.55 14.847-14.847 14.847h-351.522c-8.297 0-14.847-6.55-14.847-14.847s6.55-14.847 14.847-14.847v0zM338.859 223.768h351.522c8.297 0 14.847 6.55 14.847 14.847s-6.55 14.847-14.847 14.847h-351.522c-8.297 0-14.847-6.55-14.847-14.847s6.55-14.847 14.847-14.847v0zM491.258 44.295h219.21c30.13 0 55.021 24.454 55.021 55.021v483.398c-0.437 3.057-0.437 6.55-4.367 10.48l-134.496 134.496c-1.747 1.747-5.677 4.367-10.48 4.367h-297.375c-30.13 0-55.021-24.454-55.021-55.021v-578.156c0-30.13 24.454-55.021 55.021-55.021h102.618c8.297 0 14.847 6.55 14.847 14.847s-6.55 14.847-14.847 14.847h-102.618c-13.537 0-24.89 11.354-24.89 24.89v579.029c0 13.537 11.354 24.89 24.89 24.89h281.655v-107.858c0-14.847 12.227-27.074 27.074-27.074h107.858v-468.551c0-13.537-11.354-24.89-24.89-24.89h-219.21c-8.297 0-14.847-6.55-14.847-14.847-0.437-7.86 6.55-14.847 14.847-14.847zM630.557 597.997v83.405l83.405-83.405h-83.405zM324.012 418.088c0-8.297 6.55-14.847 14.847-14.847h351.522c8.297 0 14.847 6.55 14.847 14.847s-6.55 14.847-14.847 14.847h-351.522c-8.297 0.437-14.847-6.55-14.847-14.847zM410.91 605.421c-5.677 0-10.917-3.493-13.537-8.733l-50.217-108.732c-3.493-7.423 0-16.594 7.423-19.65 7.423-3.493 16.594 0 19.65 7.423l10.043 21.397h53.274l10.043-21.397c3.493-7.423 12.664-10.48 19.65-7.423 7.423 3.493 10.917 12.227 7.423 19.65l-50.217 108.732c-2.183 5.24-7.86 8.733-13.537 8.733zM398.246 526.82l13.1 27.947 13.1-27.947h-26.2z" />
<glyph unicode="&#xe92f;" glyph-name="mic" d="M512 362.667c70.827 0 127.573 57.173 127.573 128l0.427 256c0 70.827-57.173 128-128 128s-128-57.173-128-128v-256c0-70.827 57.173-128 128-128zM460.8 750.933c0 28.16 23.040 51.2 51.2 51.2s51.2-23.040 51.2-51.2l-0.427-264.533c0-28.16-22.613-51.2-50.773-51.2s-51.2 23.040-51.2 51.2v264.533zM738.133 490.667c0-128-108.373-217.6-226.133-217.6s-226.133 89.6-226.133 217.6h-72.533c0-145.493 116.053-265.813 256-286.72v-139.947h85.333v139.947c139.947 20.48 256 140.8 256 286.72h-72.533z" />
<glyph unicode="&#xe930;" glyph-name="Grade" d="M331.473 158.528c16.075-4.274 32.583 5.295 36.859 21.377l31.928 120.103 105.046 10.125 40.145-132.009c4.843-15.926 21.677-24.9 37.59-20.060 15.92 4.841 24.9 21.672 20.060 37.59l-36.606 120.376 7.472 0.721c16.563 1.597 28.696 16.318 27.1 32.88s-16.32 28.692-32.88 27.1l-19.576-1.886-71.035 233.593c-8.767 28.831-50.158 28.259-57.943-1.024l-66.845-251.443-54.061-5.21c-16.563-1.597-28.696-16.318-27.1-32.88 1.599-16.591 16.356-28.7 32.88-27.1l31.766 3.061-26.174-98.454c-4.278-16.081 5.293-32.583 21.373-36.859zM450.693 489.719l36.727-120.773-70.645-6.809zM670.54 535.918c16.639 0 30.129 13.49 30.129 30.129v64.716l33.38-1.932c16.609-0.96 30.858 11.724 31.82 28.337s-11.726 30.858-28.337 31.82l-36.863 2.133v37.078c0 16.639-13.49 30.129-30.129 30.129s-30.129-13.49-30.129-30.129v-33.591l-33.38 1.932c-16.607 0.964-30.858-11.726-31.82-28.337s11.726-30.858 28.337-31.82l36.863-2.133v-68.205c0-16.639 13.49-30.127 30.129-30.127zM840.923 818.088c-11.399 12.118-30.466 12.7-42.588 1.302-12.12-11.403-12.702-30.468-1.302-42.59 137.758-146.441 164.466-413.971 59.536-596.369-90.643-157.564-258.549-216.946-472.778-167.202-219.203 50.897-304.592 280.383-273.646 470.466 35.072 215.411 229.12 452.429 660.549 411.476 16.579-1.559 31.269 10.583 32.84 27.148 1.573 16.565-10.581 31.267-27.146 32.84-427.002 40.535-679.636-178.745-725.717-461.781-38.916-239.044 81.235-483.523 319.489-538.844 224.267-52.074 427.822 3.222 538.637 195.85 116.696 202.848 88.917 501.030-67.876 667.703z" />
<glyph unicode="&#xe931;" glyph-name="Grid" d="M213.333 960h-170.667c-23.552 0-42.667-19.115-42.667-42.667v-170.667c0-23.552 19.115-42.667 42.667-42.667h170.667c23.552 0 42.667 19.115 42.667 42.667v170.667c0 23.552-19.115 42.667-42.667 42.667zM213.333 576h-170.667c-23.552 0-42.667-19.115-42.667-42.667v-170.667c0-23.552 19.115-42.667 42.667-42.667h170.667c23.552 0 42.667 19.115 42.667 42.667v170.667c0 23.552-19.115 42.667-42.667 42.667zM213.333 192h-170.667c-23.552 0-42.667-19.115-42.667-42.667v-170.667c0-23.552 19.115-42.667 42.667-42.667h170.667c23.552 0 42.667 19.115 42.667 42.667v170.667c0 23.552-19.115 42.667-42.667 42.667zM597.333 960h-170.667c-23.552 0-42.667-19.115-42.667-42.667v-170.667c0-23.552 19.115-42.667 42.667-42.667h170.667c23.552 0 42.667 19.115 42.667 42.667v170.667c0 23.552-19.115 42.667-42.667 42.667zM597.333 576h-170.667c-23.552 0-42.667-19.115-42.667-42.667v-170.667c0-23.552 19.115-42.667 42.667-42.667h170.667c23.552 0 42.667 19.115 42.667 42.667v170.667c0 23.552-19.115 42.667-42.667 42.667zM597.333 192h-170.667c-23.552 0-42.667-19.115-42.667-42.667v-170.667c0-23.552 19.115-42.667 42.667-42.667h170.667c23.552 0 42.667 19.115 42.667 42.667v170.667c0 23.552-19.115 42.667-42.667 42.667zM981.333 960h-170.667c-23.552 0-42.667-19.115-42.667-42.667v-170.667c0-23.552 19.115-42.667 42.667-42.667h170.667c23.552 0 42.667 19.115 42.667 42.667v170.667c0 23.552-19.115 42.667-42.667 42.667zM981.333 576h-170.667c-23.552 0-42.667-19.115-42.667-42.667v-170.667c0-23.552 19.115-42.667 42.667-42.667h170.667c23.552 0 42.667 19.115 42.667 42.667v170.667c0 23.552-19.115 42.667-42.667 42.667zM981.333 192h-170.667c-23.552 0-42.667-19.115-42.667-42.667v-170.667c0-23.552 19.115-42.667 42.667-42.667h170.667c23.552 0 42.667 19.115 42.667 42.667v170.667c0 23.552-19.115 42.667-42.667 42.667z" />
<glyph unicode="&#xe932;" glyph-name="Group" d="M853.333 448c-46.933 0-85.333 38.4-85.333 85.333s38.4 85.333 85.333 85.333 85.333-38.4 85.333-85.333-38.4-85.333-85.333-85.333zM853.333 576c-25.6 0-42.667-17.067-42.667-42.667s17.067-42.667 42.667-42.667 42.667 17.067 42.667 42.667-17.067 42.667-42.667 42.667zM1002.667 234.667c-12.8 0-21.333 8.533-21.333 21.333v42.667c0 34.133-29.867 64-64 64h-128c-12.8 0-21.333 8.533-21.333 21.333s8.533 21.333 21.333 21.333h128c59.733 0 106.667-46.933 106.667-106.667v-42.667c0-12.8-8.533-21.333-21.333-21.333zM170.667 448c-46.933 0-85.333 38.4-85.333 85.333s38.4 85.333 85.333 85.333 85.333-38.4 85.333-85.333-38.4-85.333-85.333-85.333zM170.667 576c-25.6 0-42.667-17.067-42.667-42.667s17.067-42.667 42.667-42.667 42.667 17.067 42.667 42.667-17.067 42.667-42.667 42.667zM21.333 234.667c-12.8 0-21.333 8.533-21.333 21.333v42.667c0 59.733 46.933 106.667 106.667 106.667h128c12.8 0 21.333-8.533 21.333-21.333s-8.533-21.333-21.333-21.333h-128c-34.133 0-64-29.867-64-64v-42.667c0-12.8-8.533-21.333-21.333-21.333zM512 426.667c-72.533 0-128 55.467-128 128s55.467 128 128 128 128-55.467 128-128-55.467-128-128-128zM512 640c-46.933 0-85.333-38.4-85.333-85.333s38.4-85.333 85.333-85.333 85.333 38.4 85.333 85.333-38.4 85.333-85.333 85.333zM725.333 149.333c-12.8 0-21.333 8.533-21.333 21.333v85.333c0 34.133-29.867 64-64 64h-256c-34.133 0-64-29.867-64-64v-85.333c0-12.8-8.533-21.333-21.333-21.333s-21.333 8.533-21.333 21.333v85.333c0 59.733 46.933 106.667 106.667 106.667h256c59.733 0 106.667-46.933 106.667-106.667v-85.333c0-12.8-8.533-21.333-21.333-21.333z" />
<glyph unicode="&#xe933;" glyph-name="Info" d="M512 959.975c-282.317 0-512-229.674-512-511.972 0-282.304 229.683-511.975 512-511.975s512 229.671 512 511.975c0 282.298-229.683 511.972-512 511.972zM512 29.116c-230.986 0-418.909 187.91-418.909 418.884s187.923 418.884 418.909 418.884 418.909-187.91 418.909-418.881c0-230.98-187.923-418.887-418.909-418.887zM512 556.581c-25.706 0-46.545-20.84-46.545-46.545v-310.25c0-25.706 20.84-46.545 46.545-46.545s46.545 20.84 46.545 46.545v310.25c0 25.702-20.84 46.545-46.545 46.545zM512 742.754c-12.257 0-24.238-4.965-32.923-13.622-8.657-8.657-13.622-20.666-13.622-32.923s4.965-24.235 13.622-32.923c8.657-8.657 20.666-13.622 32.923-13.622s24.235 4.965 32.92 13.622c8.657 8.688 13.625 20.666 13.625 32.923s-4.968 24.266-13.625 32.923c-8.685 8.661-20.663 13.622-32.92 13.622z" />
<glyph unicode="&#xe934;" glyph-name="Instagram" d="M1022.998 658.941c-2.399 54.409-11.198 91.815-23.802 124.227-13.003 34.405-33.006 65.208-59.215 90.815-25.607 26.005-56.613 46.212-90.619 59.012-32.6 12.604-69.811 21.403-124.22 23.802-54.815 2.602-72.217 3.204-211.244 3.204s-156.429-0.602-211.041-3.001c-54.409-2.399-91.815-11.205-124.22-23.802-34.413-13.003-65.216-33.006-90.822-59.215-26.005-25.607-46.204-56.613-59.012-90.619-12.604-32.608-21.403-69.811-23.802-124.22-2.602-54.815-3.204-72.217-3.204-211.244s0.602-156.429 3.001-211.041c2.399-54.409 11.205-91.815 23.809-124.227 13.003-34.405 33.202-65.208 59.207-90.815 25.607-26.005 56.613-46.212 90.619-59.012 32.608-12.604 69.811-21.403 124.227-23.802 54.604-2.407 72.014-3.001 211.041-3.001s156.429 0.594 211.041 3.001c54.409 2.399 91.815 11.198 124.22 23.802 68.818 26.607 123.227 81.016 149.834 149.826 12.596 32.608 21.403 69.818 23.802 124.227 2.399 54.612 3.001 72.014 3.001 211.041s-0.203 156.429-2.602 211.041zM930.785 240.86c-2.204-50.010-10.604-77.015-17.605-95.019-17.206-44.61-52.612-80.016-97.222-97.222-18.004-7.001-45.204-15.401-95.019-17.597-54.011-2.407-70.209-3.001-206.837-3.001s-153.030 0.594-206.845 3.001c-50.010 2.196-77.015 10.596-95.019 17.597-22.2 8.205-42.407 21.207-58.808 38.211-17.003 16.605-30.006 36.609-38.211 58.808-7.001 18.004-15.401 45.212-17.597 95.019-2.407 54.011-3.001 70.217-3.001 206.845s0.594 153.030 3.001 206.837c2.196 50.010 10.596 77.015 17.597 95.019 8.205 22.207 21.207 42.407 38.414 58.816 16.597 17.003 36.601 30.006 58.808 38.203 18.004 7.001 45.212 15.401 95.019 17.605 54.011 2.399 70.217 3.001 206.837 3.001 136.831 0 153.030-0.602 206.845-3.001 50.010-2.204 77.015-10.604 95.019-17.605 22.2-8.197 42.407-21.199 58.808-38.203 17.003-16.605 30.006-36.609 38.211-58.816 7.001-18.004 15.401-45.204 17.605-95.019 2.399-54.011 3.001-70.209 3.001-206.837s-0.602-152.631-3.001-206.642zM513.899 710.951c-145.224 0-263.051-117.82-263.051-263.051s117.828-263.051 263.051-263.051c145.231 0 263.051 117.82 263.051 263.051s-117.82 263.051-263.051 263.051zM513.899 277.265c-94.214 0-170.635 76.413-170.635 170.635s76.421 170.635 170.635 170.635c94.222 0 170.635-76.413 170.635-170.635s-76.413-170.635-170.635-170.635zM848.769 721.352c0-33.913-27.498-61.41-61.418-61.41-33.913 0-61.41 27.498-61.41 61.41 0 33.921 27.498 61.41 61.41 61.41 33.921 0 61.418-27.49 61.418-61.41z" />
</font>
</defs>
</svg>
