<svg xmlns="http://www.w3.org/2000/svg" width="7.447" height="10.855" viewBox="0 0 7.447 10.855">
  <path id="Icon_ionic-ios-arrow-round-up" data-name="Icon ionic-ios-arrow-round-up" d="M18.021,11.633a.47.47,0,0,1-.662,0l-2.19-2.183v8.319a.468.468,0,0,1-.935,0V9.454l-2.19,2.187a.473.473,0,0,1-.662,0,.466.466,0,0,1,0-.658l2.985-2.964h0a.525.525,0,0,1,.147-.1.446.446,0,0,1,.18-.036.469.469,0,0,1,.327.133l2.985,2.964A.458.458,0,0,1,18.021,11.633Z" transform="translate(-10.957 -7.632)" fill="#56b35a" stroke="#56b35a" stroke-width="0.5"/>
</svg>
