<svg xmlns="http://www.w3.org/2000/svg" width="5.862" height="8.051" viewBox="0 0 5.862 8.051">
  <path id="Icon_ionic-ios-arrow-round-up" data-name="Icon ionic-ios-arrow-round-up" d="M16.573,10.831a.37.37,0,0,1-.52,0L14.331,9.118v6.05a.368.368,0,0,1-.735,0V9.118l-1.722,1.719a.372.372,0,0,1-.52,0,.366.366,0,0,1,0-.517L13.7,7.987h0a.413.413,0,0,1,.116-.076.351.351,0,0,1,.141-.028.369.369,0,0,1,.257.1l2.347,2.33A.36.36,0,0,1,16.573,10.831Z" transform="translate(-11.015 -7.682)" fill="#fff" stroke="#fff" stroke-width="0.4"/>
</svg>
