<svg xmlns="http://www.w3.org/2000/svg" width="42" height="42" viewBox="0 0 42 42">
  <g id="Group_23054" data-name="Group 23054" transform="translate(-447 -213)">
    <g id="Group_23052" data-name="Group 23052" transform="translate(29 9)">
      <circle id="Ellipse_388" data-name="Ellipse 388" cx="21" cy="21" r="21" transform="translate(418 204)" fill="#ff5722"/>
      <g id="bc64fe4debfef54024e4065d4fc7b005" transform="translate(423.003 201.187)">
        <path id="Path_30009" data-name="Path 30009" d="M1.906,25.563l3.858,1.271a1.271,1.271,0,0,0,1.5-.545l6.49,5.174c.045.045.045.045.091.045a3.143,3.143,0,0,0,3.222-.091l.5.5a1.977,1.977,0,0,0,2.315-.045,1.543,1.543,0,0,0,.318-.681,2.425,2.425,0,0,0,1.271-.272,1.584,1.584,0,0,0,.862-1.225A1.808,1.808,0,0,0,24.371,28.6a1.691,1.691,0,0,0-.091-1.407l.681-.454a1.357,1.357,0,0,0,1.044.5,2.278,2.278,0,0,0,.545-.091l3.54-1.543a1.388,1.388,0,0,0,.726-1.77L27.775,16.35a1.435,1.435,0,0,0-1.77-.772l-3.858,1.452a1.372,1.372,0,0,0-.817.908c-3.177-1.362-8.305-1.271-11.754-.862a1.437,1.437,0,0,0-.772-.862L5.083,14.9a1.319,1.319,0,0,0-1.725.862L1.044,23.975A1.3,1.3,0,0,0,1.906,25.563Zm21.6,2.723c-.227.59-.817.59-1.407.454l-3.177-3.721a.45.45,0,0,0-.681.59l3.177,3.721c0,.182-.045.635-.363.772a2.036,2.036,0,0,1-1,.136L16.7,26.062a.454.454,0,1,0-.726.545l3.358,4.175c-.045.681-.5.5-.545.545-.862,0-.635-.227-1.407-.862L14.7,27.2a.45.45,0,1,0-.681.59l2.451,2.95a2.2,2.2,0,0,1-2.178-.045l-6.762-5.31c.182-.772-.726,2.723,1.952-7.307.454-.045,1.407-.136,2.587-.227-.635,1.135-1.543,3.177-.545,4.448,1.362,1.679,3.676-.363,4.629-.908.272,0,3.313.136,7.035,5.945A.706.706,0,0,1,23.509,28.286ZM22.465,17.939l3.858-1.452a.472.472,0,0,1,.59.272L30,24.2a.45.45,0,0,1-.227.59l-1.225.545a1.282,1.282,0,0,0,.681-1.135,1.316,1.316,0,0,0-2.632,0,1.278,1.278,0,0,0,1.679,1.225l-2.088.908a.45.45,0,0,1-.59-.227c-.091-.318-3.313-7.488-3.4-7.579A.454.454,0,0,1,22.465,17.939Zm5.855,6.218a.408.408,0,1,1-.408-.408A.407.407,0,0,1,28.32,24.156Zm-6.853-5.083L24.6,25.926l-.772.5c-3.812-5.718-7.171-6.127-7.851-5.945a2.507,2.507,0,0,0-.59.363c-1.225.862-2.5,1.634-3.086.862-.772-.953.318-3,.908-3.948C15.7,17.712,19.2,17.893,21.467,19.073ZM1.906,24.247l2.36-8.214a.363.363,0,0,1,.5-.272l3.676,1.407a.4.4,0,0,1,.227.454c-2.95,11.164-1.952,7.307-2.178,8.124a.391.391,0,0,1-.5.272L2.133,24.746A.532.532,0,0,1,1.906,24.247Z" transform="translate(0 0)" fill="#fff"/>
        <path id="Path_30010" data-name="Path 30010" d="M6.416,34.232A1.316,1.316,0,1,0,5.1,32.916,1.317,1.317,0,0,0,6.416,34.232Zm0-1.725a.407.407,0,0,1,.408.408.408.408,0,0,1-.817,0A.407.407,0,0,1,6.416,32.508Z" transform="translate(-2.241 -9.168)" fill="#fff"/>
      </g>
    </g>
    <g id="Group_23053" data-name="Group 23053" transform="translate(-18.019 1.98)">
      <g id="Ellipse_389" data-name="Ellipse 389" transform="translate(489.019 235.019)" fill="#fff" stroke="#ff5722" stroke-width="1">
        <circle cx="9" cy="9" r="9" stroke="none"/>
        <circle cx="9" cy="9" r="8.5" fill="none"/>
      </g>
      <path id="Icon_ionic-ios-close" data-name="Icon ionic-ios-close" d="M15.065,14.344l2.183-2.183a.511.511,0,1,0-.723-.723L14.342,13.62l-2.183-2.183a.511.511,0,1,0-.723.723l2.183,2.183-2.183,2.183a.511.511,0,0,0,.723.723l2.183-2.183,2.183,2.183a.511.511,0,1,0,.723-.723Z" transform="translate(483.734 229.73)" fill="#ff474d"/>
    </g>
  </g>
</svg>
