<svg xmlns="http://www.w3.org/2000/svg" width="33.427" height="39.191" viewBox="0 0 33.427 39.191">
  <g id="_1add3ac4a7ef158fa675ddf73db811ac" data-name="1add3ac4a7ef158fa675ddf73db811ac" transform="translate(-14 -2)">
    <path id="Path_29952" data-name="Path 29952" d="M44.085,41.191H17.343A3.259,3.259,0,0,1,14,38.031V5.161A3.259,3.259,0,0,1,17.343,2h13.6a3.419,3.419,0,0,1,2.363.926L46.448,15.351a3.055,3.055,0,0,1,.979,2.235V38.031A3.259,3.259,0,0,1,44.085,41.191ZM17.343,3.264a1.955,1.955,0,0,0-2.006,1.9v32.87a1.955,1.955,0,0,0,2.006,1.9H44.085a1.955,1.955,0,0,0,2.006-1.9V17.586a1.859,1.859,0,0,0-.587-1.341L32.361,3.82a2.052,2.052,0,0,0-1.418-.555Z" transform="translate(0)" fill="#fd4233"/>
    <path id="Path_29953" data-name="Path 29953" d="M54.274,53.427a.982.982,0,0,0-.318-.5,4.721,4.721,0,0,0-2.848-.616,25.653,25.653,0,0,0-3.424.231A8.593,8.593,0,0,1,46.1,51.537a10.573,10.573,0,0,1-2.868-4.074c.041-.149.076-.278.11-.411a24.352,24.352,0,0,0,.5-4.772,1.291,1.291,0,0,0-.09-.341l-.059-.139a1.222,1.222,0,0,0-1.125-.79L42.231,41h-.007a1.28,1.28,0,0,0-1.3.746c-.414,1.4.014,3.505.79,6.223l-.2.442c-.556,1.245-1.253,2.5-1.867,3.6l-.079.142c-.649,1.16-1.236,2.146-1.771,2.98l-.549.265c-.041.019-.984.477-1.2.6-1.874,1.027-3.117,2.19-3.324,3.113a.73.73,0,0,0,.318.847l.532.247a1.757,1.757,0,0,0,.725.158c1.336,0,2.885-1.523,5.022-4.937a53.839,53.839,0,0,1,7.735-1.681,14.24,14.24,0,0,0,5.636,1.637,2.836,2.836,0,0,0,.663-.066,1.158,1.158,0,0,0,.659-.411,2.03,2.03,0,0,0,.262-1.476ZM34.006,59.436A8.684,8.684,0,0,1,36.64,56.55c.09-.066.311-.256.511-.433C35.66,58.295,34.662,59.161,34.006,59.436Zm8.442-17.8c.428,0,.673.989.694,1.918a3.679,3.679,0,0,1-.511,2.064,9.224,9.224,0,0,1-.362-2.576S42.252,41.632,42.449,41.632Zm-2.52,12.687q.45-.735.928-1.555a28,28,0,0,0,1.629-3.255,11.008,11.008,0,0,0,2.689,3.056c.135.1.276.205.421.31A36.624,36.624,0,0,0,39.929,54.319Zm13.609-.111a2.152,2.152,0,0,1-.749.117,9.409,9.409,0,0,1-3.106-.86c.521-.035,1-.054,1.429-.054a5.968,5.968,0,0,1,1.784.177C53.663,53.769,53.673,54.132,53.538,54.208Z" transform="translate(-12.788 -26.674)" fill="#ff402f"/>
  </g>
</svg>
