<svg xmlns="http://www.w3.org/2000/svg" xmlns:xlink="http://www.w3.org/1999/xlink" width="127" height="147" viewBox="0 0 127 147">
  <defs>
    <clipPath id="clip-path">
      <rect id="Rectangle_6929" data-name="Rectangle 6929" width="127" height="147" transform="translate(1021 2019)" fill="#fff" stroke="#707070" stroke-width="1"/>
    </clipPath>
  </defs>
  <g id="Mask_Group_5" data-name="Mask Group 5" transform="translate(-1021 -2019)" opacity="0.5" clip-path="url(#clip-path)">
    <g id="Decoration_" data-name="Decoration " transform="translate(-293 1580)">
      <circle id="Ellipse_2171" data-name="Ellipse 2171" cx="1.86" cy="1.86" r="1.86" transform="translate(1442.628 463)" fill="#159eec"/>
      <circle id="Ellipse_2172" data-name="Ellipse 2172" cx="1.86" cy="1.86" r="1.86" transform="translate(1442.628 485.326)" fill="#159eec"/>
      <circle id="Ellipse_2173" data-name="Ellipse 2173" cx="1.86" cy="1.86" r="1.86" transform="translate(1442.628 507.651)" fill="#159eec"/>
      <circle id="Ellipse_2174" data-name="Ellipse 2174" cx="1.86" cy="1.86" r="1.86" transform="translate(1442.628 529.977)" fill="#159eec"/>
      <circle id="Ellipse_2175" data-name="Ellipse 2175" cx="1.86" cy="1.86" r="1.86" transform="translate(1442.628 552.302)" fill="#159eec"/>
      <circle id="Ellipse_2176" data-name="Ellipse 2176" cx="1.86" cy="1.86" r="1.86" transform="translate(1442.628 574.628)" fill="#159eec"/>
      <circle id="Ellipse_2177" data-name="Ellipse 2177" cx="1.86" cy="1.86" r="1.86" transform="translate(1442.628 596.954)" fill="#159eec"/>
      <circle id="Ellipse_2178" data-name="Ellipse 2178" cx="1.86" cy="1.86" r="1.86" transform="translate(1442.628 619.279)" fill="#159eec"/>
      <circle id="Ellipse_2179" data-name="Ellipse 2179" cx="1.86" cy="1.86" r="1.86" transform="translate(1464.953 463)" fill="#159eec"/>
      <circle id="Ellipse_2180" data-name="Ellipse 2180" cx="1.86" cy="1.86" r="1.86" transform="translate(1464.953 485.326)" fill="#159eec"/>
      <circle id="Ellipse_2181" data-name="Ellipse 2181" cx="1.86" cy="1.86" r="1.86" transform="translate(1464.953 507.651)" fill="#159eec"/>
      <circle id="Ellipse_2182" data-name="Ellipse 2182" cx="1.86" cy="1.86" r="1.86" transform="translate(1464.953 529.977)" fill="#159eec"/>
      <circle id="Ellipse_2183" data-name="Ellipse 2183" cx="1.86" cy="1.86" r="1.86" transform="translate(1464.953 552.302)" fill="#159eec"/>
      <circle id="Ellipse_2184" data-name="Ellipse 2184" cx="1.86" cy="1.86" r="1.86" transform="translate(1464.953 574.628)" fill="#159eec"/>
      <circle id="Ellipse_2185" data-name="Ellipse 2185" cx="1.86" cy="1.86" r="1.86" transform="translate(1464.953 596.954)" fill="#159eec"/>
      <circle id="Ellipse_2186" data-name="Ellipse 2186" cx="1.86" cy="1.86" r="1.86" transform="translate(1464.953 619.279)" fill="#159eec"/>
      <circle id="Ellipse_2187" data-name="Ellipse 2187" cx="1.86" cy="1.86" r="1.86" transform="translate(1487.279 463)" fill="#159eec"/>
      <circle id="Ellipse_2188" data-name="Ellipse 2188" cx="1.86" cy="1.86" r="1.86" transform="translate(1487.279 485.326)" fill="#159eec"/>
      <circle id="Ellipse_2189" data-name="Ellipse 2189" cx="1.86" cy="1.86" r="1.86" transform="translate(1487.279 507.651)" fill="#159eec"/>
      <circle id="Ellipse_2190" data-name="Ellipse 2190" cx="1.86" cy="1.86" r="1.86" transform="translate(1487.279 529.977)" fill="#159eec"/>
      <circle id="Ellipse_2191" data-name="Ellipse 2191" cx="1.86" cy="1.86" r="1.86" transform="translate(1487.279 552.302)" fill="#159eec"/>
      <circle id="Ellipse_2192" data-name="Ellipse 2192" cx="1.86" cy="1.86" r="1.86" transform="translate(1487.279 574.628)" fill="#159eec"/>
      <circle id="Ellipse_2193" data-name="Ellipse 2193" cx="1.86" cy="1.86" r="1.86" transform="translate(1487.279 596.954)" fill="#159eec"/>
      <circle id="Ellipse_2194" data-name="Ellipse 2194" cx="1.86" cy="1.86" r="1.86" transform="translate(1487.279 619.279)" fill="#159eec"/>
      <circle id="Ellipse_2179-2" data-name="Ellipse 2179" cx="1.86" cy="1.86" r="1.86" transform="translate(1331 463)" fill="#159eec"/>
      <circle id="Ellipse_2180-2" data-name="Ellipse 2180" cx="1.86" cy="1.86" r="1.86" transform="translate(1331 485.326)" fill="#159eec"/>
      <circle id="Ellipse_2181-2" data-name="Ellipse 2181" cx="1.86" cy="1.86" r="1.86" transform="translate(1331 507.651)" fill="#159eec"/>
      <circle id="Ellipse_2182-2" data-name="Ellipse 2182" cx="1.86" cy="1.86" r="1.86" transform="translate(1331 529.977)" fill="#159eec"/>
      <circle id="Ellipse_2183-2" data-name="Ellipse 2183" cx="1.86" cy="1.86" r="1.86" transform="translate(1331 552.302)" fill="#159eec"/>
      <circle id="Ellipse_2184-2" data-name="Ellipse 2184" cx="1.86" cy="1.86" r="1.86" transform="translate(1331 574.628)" fill="#159eec"/>
      <circle id="Ellipse_2185-2" data-name="Ellipse 2185" cx="1.86" cy="1.86" r="1.86" transform="translate(1331 596.954)" fill="#159eec"/>
      <circle id="Ellipse_2186-2" data-name="Ellipse 2186" cx="1.86" cy="1.86" r="1.86" transform="translate(1331 619.279)" fill="#159eec"/>
      <circle id="Ellipse_2187-2" data-name="Ellipse 2187" cx="1.86" cy="1.86" r="1.86" transform="translate(1353.327 463)" fill="#159eec"/>
      <circle id="Ellipse_2188-2" data-name="Ellipse 2188" cx="1.86" cy="1.86" r="1.86" transform="translate(1353.327 485.326)" fill="#159eec"/>
      <circle id="Ellipse_2189-2" data-name="Ellipse 2189" cx="1.86" cy="1.86" r="1.86" transform="translate(1353.327 507.651)" fill="#159eec"/>
      <circle id="Ellipse_2190-2" data-name="Ellipse 2190" cx="1.86" cy="1.86" r="1.86" transform="translate(1353.327 529.977)" fill="#159eec"/>
      <circle id="Ellipse_2191-2" data-name="Ellipse 2191" cx="1.86" cy="1.86" r="1.86" transform="translate(1353.327 552.302)" fill="#159eec"/>
      <circle id="Ellipse_2192-2" data-name="Ellipse 2192" cx="1.86" cy="1.86" r="1.86" transform="translate(1353.327 574.628)" fill="#159eec"/>
      <circle id="Ellipse_2193-2" data-name="Ellipse 2193" cx="1.86" cy="1.86" r="1.86" transform="translate(1353.327 596.954)" fill="#159eec"/>
      <circle id="Ellipse_2194-2" data-name="Ellipse 2194" cx="1.86" cy="1.86" r="1.86" transform="translate(1353.327 619.279)" fill="#159eec"/>
      <circle id="Ellipse_2195" data-name="Ellipse 2195" cx="1.86" cy="1.86" r="1.86" transform="translate(1375.65 463)" fill="#159eec"/>
      <circle id="Ellipse_2196" data-name="Ellipse 2196" cx="1.86" cy="1.86" r="1.86" transform="translate(1375.65 485.326)" fill="#159eec"/>
      <circle id="Ellipse_2197" data-name="Ellipse 2197" cx="1.86" cy="1.86" r="1.86" transform="translate(1375.65 507.651)" fill="#159eec"/>
      <circle id="Ellipse_2198" data-name="Ellipse 2198" cx="1.86" cy="1.86" r="1.86" transform="translate(1375.65 529.977)" fill="#159eec"/>
      <circle id="Ellipse_2199" data-name="Ellipse 2199" cx="1.86" cy="1.86" r="1.86" transform="translate(1375.65 552.302)" fill="#159eec"/>
      <circle id="Ellipse_2200" data-name="Ellipse 2200" cx="1.86" cy="1.86" r="1.86" transform="translate(1375.65 574.628)" fill="#159eec"/>
      <circle id="Ellipse_2201" data-name="Ellipse 2201" cx="1.86" cy="1.86" r="1.86" transform="translate(1375.65 596.954)" fill="#159eec"/>
      <circle id="Ellipse_2202" data-name="Ellipse 2202" cx="1.86" cy="1.86" r="1.86" transform="translate(1375.65 619.279)" fill="#159eec"/>
      <circle id="Ellipse_2203" data-name="Ellipse 2203" cx="1.86" cy="1.86" r="1.86" transform="translate(1397.978 463)" fill="#159eec"/>
      <circle id="Ellipse_2204" data-name="Ellipse 2204" cx="1.86" cy="1.86" r="1.86" transform="translate(1397.978 485.326)" fill="#159eec"/>
      <circle id="Ellipse_2205" data-name="Ellipse 2205" cx="1.86" cy="1.86" r="1.86" transform="translate(1397.978 507.651)" fill="#159eec"/>
      <circle id="Ellipse_2206" data-name="Ellipse 2206" cx="1.86" cy="1.86" r="1.86" transform="translate(1397.978 529.977)" fill="#159eec"/>
      <circle id="Ellipse_2207" data-name="Ellipse 2207" cx="1.86" cy="1.86" r="1.86" transform="translate(1397.978 552.302)" fill="#159eec"/>
      <circle id="Ellipse_2208" data-name="Ellipse 2208" cx="1.86" cy="1.86" r="1.86" transform="translate(1397.978 574.628)" fill="#159eec"/>
      <circle id="Ellipse_2209" data-name="Ellipse 2209" cx="1.86" cy="1.86" r="1.86" transform="translate(1397.978 596.954)" fill="#159eec"/>
      <circle id="Ellipse_2210" data-name="Ellipse 2210" cx="1.86" cy="1.86" r="1.86" transform="translate(1397.978 619.279)" fill="#159eec"/>
      <circle id="Ellipse_2211" data-name="Ellipse 2211" cx="1.86" cy="1.86" r="1.86" transform="translate(1420.305 463)" fill="#159eec"/>
      <circle id="Ellipse_2212" data-name="Ellipse 2212" cx="1.86" cy="1.86" r="1.86" transform="translate(1420.305 485.326)" fill="#159eec"/>
      <circle id="Ellipse_2213" data-name="Ellipse 2213" cx="1.86" cy="1.86" r="1.86" transform="translate(1420.305 507.651)" fill="#159eec"/>
      <circle id="Ellipse_2214" data-name="Ellipse 2214" cx="1.86" cy="1.86" r="1.86" transform="translate(1420.305 529.977)" fill="#159eec"/>
      <circle id="Ellipse_2215" data-name="Ellipse 2215" cx="1.86" cy="1.86" r="1.86" transform="translate(1420.305 552.302)" fill="#159eec"/>
      <circle id="Ellipse_2216" data-name="Ellipse 2216" cx="1.86" cy="1.86" r="1.86" transform="translate(1420.305 574.628)" fill="#159eec"/>
      <circle id="Ellipse_2217" data-name="Ellipse 2217" cx="1.86" cy="1.86" r="1.86" transform="translate(1420.305 596.954)" fill="#159eec"/>
      <circle id="Ellipse_2218" data-name="Ellipse 2218" cx="1.86" cy="1.86" r="1.86" transform="translate(1420.305 619.279)" fill="#159eec"/>
    </g>
  </g>
</svg>
