<svg id="Group_20170" data-name="Group 20170" xmlns="http://www.w3.org/2000/svg" xmlns:xlink="http://www.w3.org/1999/xlink" width="451.192" height="370.339" viewBox="0 0 451.192 370.339">
  <defs>
    <linearGradient id="linear-gradient" x1="0.058" y1="0.5" x2="1.022" y2="0.5" gradientUnits="objectBoundingBox">
      <stop offset="0" stop-color="#06bce3"/>
      <stop offset="0.458" stop-color="#19bbbc"/>
      <stop offset="0.832" stop-color="#46b75c"/>
      <stop offset="1" stop-color="#4cb74f"/>
    </linearGradient>
    <clipPath id="clip-path">
      <path id="Path_28332" data-name="Path 28332" d="M351.981,38.56A24.738,24.738,0,1,1,376.719,63.3,24.738,24.738,0,0,1,351.981,38.56M369.66,0l-1.281,6.365A33.045,33.045,0,0,0,359.858,9.9l-5.413-3.6-4.992,4.992-4.992,4.991,3.6,5.412a33.032,33.032,0,0,0-3.535,8.522L338.159,31.5V45.62l6.366,1.281a33.032,33.032,0,0,0,3.535,8.522l-3.6,5.411,4.992,4.992,4.992,4.992,5.413-3.6a33.042,33.042,0,0,0,8.521,3.534l1.281,6.366h14.119l1.282-6.366a33.072,33.072,0,0,0,8.521-3.534l5.411,3.6,4.993-4.992,4.991-4.992-3.6-5.411a33.031,33.031,0,0,0,3.535-8.522l6.365-1.281V31.5l-6.365-1.281a33.031,33.031,0,0,0-3.535-8.522l3.6-5.412-4.991-4.991L398.993,6.3l-5.411,3.6a33.074,33.074,0,0,0-8.521-3.535L383.779,0Z" fill="none"/>
    </clipPath>
    <clipPath id="clip-path-2">
      <path id="Path_28333" data-name="Path 28333" d="M392.445,94.08a11.341,11.341,0,1,1,11.341,11.341A11.342,11.342,0,0,1,392.445,94.08M403.786,76.4h-3.237l-.587,2.917a15.156,15.156,0,0,0-3.906,1.621l-2.481-1.649-2.289,2.288L389,83.869l1.65,2.48a15.139,15.139,0,0,0-1.62,3.907l-2.92.588v6.473l2.92.587a15.124,15.124,0,0,0,1.62,3.907L389,104.292l2.288,2.288,2.289,2.288,2.481-1.649a15.118,15.118,0,0,0,3.906,1.62l.587,2.919h6.473l.588-2.919a15.125,15.125,0,0,0,3.907-1.62L414,108.868l2.288-2.288,2.289-2.288-1.65-2.481a27.871,27.871,0,0,0,1.621-3.907l2.918-.587V90.844l-2.918-.588a15.141,15.141,0,0,0-1.621-3.907l1.65-2.48-2.289-2.289L414,79.292l-2.481,1.649a15.163,15.163,0,0,0-3.907-1.621l-.588-2.917Z" fill="none"/>
    </clipPath>
    <clipPath id="clip-path-3">
      <rect id="Rectangle_6973" data-name="Rectangle 6973" width="451.192" height="370.339" fill="none"/>
    </clipPath>
    <clipPath id="clip-path-4">
      <rect id="Rectangle_6912" data-name="Rectangle 6912" width="278.739" height="24" fill="url(#linear-gradient)"/>
    </clipPath>
  </defs>
  <g id="Group_20161" data-name="Group 20161">
    <g id="Group_20160" data-name="Group 20160" clip-path="url(#clip-path)">
      <path id="Path_28516" data-name="Path 28516" d="M0,0H77.12V77.12H0Z" transform="translate(338.159)" fill="#40cd9d"/>
    </g>
  </g>
  <g id="Group_20163" data-name="Group 20163">
    <g id="Group_20162" data-name="Group 20162" clip-path="url(#clip-path-2)">
      <path id="Path_28517" data-name="Path 28517" d="M0,0H35.356V35.355H0Z" transform="translate(386.108 76.403)" fill="#b0e0d9"/>
    </g>
  </g>
  <g id="Group_20165" data-name="Group 20165">
    <g id="Group_20164" data-name="Group 20164" clip-path="url(#clip-path-3)">
      <rect id="Rectangle_6971" data-name="Rectangle 6971" width="34.729" height="105.486" transform="translate(213.409 209.686)" fill="#aebecc"/>
      <path id="Path_28334" data-name="Path 28334" d="M96.082,260.5H365.466a15.253,15.253,0,0,0,15.253-15.253V64.195a15.253,15.253,0,0,0-15.253-15.253H96.082A15.252,15.252,0,0,0,80.829,64.195V245.246A15.252,15.252,0,0,0,96.082,260.5" fill="#f0f0f0"/>
      <rect id="Rectangle_6972" data-name="Rectangle 6972" width="276.4" height="200.921" transform="translate(92.573 26.426)" fill="#fff"/>
    </g>
  </g>
  <g id="Group_20171" data-name="Group 20171" transform="translate(90.235 25.694)">
    <g id="Group_20134" data-name="Group 20134" clip-path="url(#clip-path-4)">
      <rect id="Rectangle_6911" data-name="Rectangle 6911" width="278.739" height="24" transform="translate(0 0)" fill="url(#linear-gradient)"/>
    </g>
  </g>
  <g id="Group_20169" data-name="Group 20169">
    <g id="Group_20168" data-name="Group 20168" clip-path="url(#clip-path-3)">
      <path id="Path_28335" data-name="Path 28335" d="M221.1,242.517a9.674,9.674,0,1,0,9.673-9.674,9.673,9.673,0,0,0-9.673,9.674" fill="#757575"/>
      <path id="Path_28336" data-name="Path 28336" d="M178.137,75.145h90.138a3.5,3.5,0,0,0,3.5-3.5v-.187a3.5,3.5,0,0,0-3.5-3.5H178.137a3.5,3.5,0,0,0-3.5,3.5v.187a3.5,3.5,0,0,0,3.5,3.5" fill="#dfe1e8"/>
      <path id="Path_28337" data-name="Path 28337" d="M178.137,88.114h90.138a3.5,3.5,0,0,0,3.5-3.5v-.187a3.5,3.5,0,0,0-3.5-3.5H178.137a3.5,3.5,0,0,0-3.5,3.5v.187a3.5,3.5,0,0,0,3.5,3.5" fill="#dfe1e8"/>
      <path id="Path_28338" data-name="Path 28338" d="M178.137,101.083h90.138a3.5,3.5,0,0,0,3.5-3.5v-.188a3.5,3.5,0,0,0-3.5-3.5H178.137a3.5,3.5,0,0,0-3.5,3.5v.188a3.5,3.5,0,0,0,3.5,3.5" fill="#dfe1e8"/>
      <path id="Path_28339" data-name="Path 28339" d="M224.646,213.209H121.038a15.686,15.686,0,0,1-15.668-15.668V134.517a15.686,15.686,0,0,1,15.668-15.668H224.646a15.686,15.686,0,0,1,15.668,15.668v63.024a15.685,15.685,0,0,1-15.668,15.668m-103.608-92.4a13.719,13.719,0,0,0-13.7,13.7v63.024a13.72,13.72,0,0,0,13.7,13.705H224.646a13.72,13.72,0,0,0,13.705-13.705V134.517a13.72,13.72,0,0,0-13.705-13.7Z" fill="#dfe1e8"/>
      <path id="Path_28340" data-name="Path 28340" d="M129.233,142.6h87.218a6.92,6.92,0,0,0,6.92-6.919v-1.317a6.92,6.92,0,0,0-6.92-6.92H129.233a6.92,6.92,0,0,0-6.92,6.92v1.317a6.92,6.92,0,0,0,6.92,6.919" fill="#dfe1e8"/>
      <rect id="Rectangle_6976" data-name="Rectangle 6976" width="156.243" height="7.963" transform="translate(152.653 311.19)" fill="#f0f0f0"/>
      <path id="Path_28341" data-name="Path 28341" d="M337.89,139.557a22.5,22.5,0,0,1-15.4,21.349c-.135.046-.271.09-.407.131a22.494,22.494,0,1,1,15.809-21.48" fill="#eef0f7"/>
      <path id="Path_28342" data-name="Path 28342" d="M310.027,137.182s-1.536-9.938,6.694-9.754,8.12,5.1,7.974,9.974-3.3,4.51.257,11.3-3.08,6.784-3.08,6.784l-5.151-7.077Z" fill="#3c4145"/>
      <path id="Path_28343" data-name="Path 28343" d="M315.821,128.381s-5.574.88-5.794,8.8,1.5,9.608,6.381,7.958,6.417-9.938,6.527-11.222.4-6.491-7.114-5.537" fill="#eea886"/>
      <path id="Path_28344" data-name="Path 28344" d="M325.61,155.932a5.39,5.39,0,0,1-3.123,4.974c-.135.046-.271.09-.406.131a22.576,22.576,0,0,1-16.679-1.329c-.678-1.352.3-3.272,2.3-6.219,1.37-2.026,2.713-4.094,5.011-5.1,3.39-.54,6.978-.572,9.506.856,2.015,1.14,3.358,3.207,3.392,6.686" fill="#e55353"/>
      <path id="Path_28345" data-name="Path 28345" d="M308.794,153.369l-2.564,4.039c.006-.022.177-.633.466-2.4.056-.336.115-.714.178-1.137a3.034,3.034,0,0,1,.081-.373c1.1-2.529,4.518-4.41,4.642-4.473Z" fill="#e55353"/>
      <path id="Path_28346" data-name="Path 28346" d="M326.752,158.976a22.366,22.366,0,0,1-4.265,1.93c-.134.046-.27.09-.406.131-.568-1.467-1.062-2.737-1.169-3.065-.031-.1-.1-.274-.2-.515a17.074,17.074,0,0,1-1.51-5.574c-.007-1.26.409-2.293,1.676-2.586a3.321,3.321,0,0,1,1.345-.051,3.951,3.951,0,0,1,2.7,2.656c.008.019.015.038.021.056a8.694,8.694,0,0,1,.505,1.8s.023.089.063.248c.08.314.232.911.43,1.693.225.9.509,2.039.812,3.28" fill="#eea886"/>
      <path id="Path_28347" data-name="Path 28347" d="M319.544,141.572c-.483.912-.994,6.576-.994,6.576s-6.818,2.577-6.119,1.119a5.591,5.591,0,0,0,.416-2.26,10.924,10.924,0,0,0-.076-1.376c-.018-.148-.032-.234-.032-.234s7.287-4.738,6.8-3.825" fill="#eea886"/>
      <path id="Path_28348" data-name="Path 28348" d="M313.548,134.065s2.86,4.657,5.464,6.491,1.283,3.3,1.283,3.3,6.793-14.3.335-15.292-10.419-1.063-10.6,8.618c0,0,2.933-3.191,3.52-3.117" fill="#3c4145"/>
      <path id="Path_28349" data-name="Path 28349" d="M316.658,145.048c-1.047,1.544-3.812,1.959-3.812,1.959a10.929,10.929,0,0,0-.076-1.376,7.782,7.782,0,0,0,3.888-.583" fill="#a77860"/>
      <path id="Path_28350" data-name="Path 28350" d="M306.967,153.463h0a5.794,5.794,0,0,0-.27,1.54l1-1.515s1.793-2.571,2.408-3.24a9.433,9.433,0,0,1,1.5-1.256s-3.574,1.7-4.646,4.471" fill="#bd4444"/>
      <path id="Path_28351" data-name="Path 28351" d="M320.533,157.3a38.475,38.475,0,0,1,5.67-1.816s-.88-7.026-5.179-6.282-.491,8.1-.491,8.1" fill="#e55353"/>
      <path id="Path_28352" data-name="Path 28352" d="M312.712,148.39s-3.212,4.94-2.125,5.371,6.974-.575,9.477-5.267a8.82,8.82,0,0,0-7.352-.1" fill="#eea886"/>
      <path id="Path_28353" data-name="Path 28353" d="M346.2,73.942a29.263,29.263,0,1,1-29.263-29.265A29.264,29.264,0,0,1,346.2,73.942" fill="#eef0f7"/>
      <path id="Path_28354" data-name="Path 28354" d="M335.995,90.089l-2.158,7.744a29.1,29.1,0,0,1-13.31,5.153c-.865.107-1.744.175-2.632.2q-.479.015-.961.015c-.947,0-1.883-.046-2.806-.133a29.137,29.137,0,0,1-15.007-5.912c-.414-2.561-.858-5.394-1.249-8.045,2.15-.8,9-3.129,13.316-4.589.061-.022.121-.041.18-.061l.281-.095.733-.248c.237-.08.462-.155.672-.228.885-.3,1.508-.507,1.732-.581l0,0,.089-.03.05,0,5.809.435.975.073.3.023.132.032c.35.09,1.369.357,2.716.768h.006c3.441,1.053,9.023,3.053,11.126,5.473" fill="#d9c7c1"/>
      <path id="Path_28355" data-name="Path 28355" d="M318.457,59.411s6.968,1.176,5.785,12.083-7.331,9.946-7.742,9.93-6.187.132-6.491-13.205c0,0-.089-9.86,8.448-8.808" fill="#eea987"/>
      <path id="Path_28356" data-name="Path 28356" d="M321.51,78.262s-.24,4.489.184,5.466-5.594,4.069-9.334.547a38.458,38.458,0,0,0,.521-6.639c-.234-1.733,8.629.626,8.629.626" fill="#eea987"/>
      <path id="Path_28357" data-name="Path 28357" d="M324.384,68.411s.773-.808,1.045.022-1.235,4.505-1.141,4.672c0,0-.143.319-.325.141a39.9,39.9,0,0,1,.421-4.835" fill="#eea987"/>
      <path id="Path_28358" data-name="Path 28358" d="M310.089,68.117s-.739-.839-1.044-.022.809,4.489.947,4.716c0,0,.241.377.429.206a40.19,40.19,0,0,0-.332-4.9" fill="#eea987"/>
      <path id="Path_28359" data-name="Path 28359" d="M324.83,67.484c-.24,1.492-.467,2.6-.467,2.6l-1.014,1.324a26.7,26.7,0,0,0-.1-3.388c-.059-.175-.128-.483-.2-.818-.118-.552-.237-1.174-.318-1.382-.131-.331-5.971-2.037-11.174.358,0,0,.044.451.041.953,0,.584-.066,1.239-.334,1.338-.5.182-.291,3.427-.291,3.427l-.81-.936s-.235-1.695-.465-3.643l0-.014c-.052-.454-.105-.922-.156-1.385-.116-1.959.078-5.517,2.629-7.607,1.721-.737,4.471-1.364,9.053.039a3.166,3.166,0,0,1,1.345.354c2.854,3.141,2.257,8.778,2.257,8.778" fill="#e8734d"/>
      <path id="Path_28360" data-name="Path 28360" d="M313.358,79.966a4.439,4.439,0,0,0,3.7,1.486,5.033,5.033,0,0,0,3.705-1.405s-1.223,2.558-3.717,2.53-3.684-2.611-3.684-2.611" fill="#c78d71"/>
      <path id="Path_28361" data-name="Path 28361" d="M311.649,84.37a7.59,7.59,0,0,0,5.41,3.557c2.247.194,4.192-2.654,5.105-4.053a13.612,13.612,0,0,0-10.515.5" fill="#eea987"/>
      <path id="Path_28362" data-name="Path 28362" d="M321.517,82.846a19.33,19.33,0,0,1-4.458,3.863l1.887,2.908,3.218-5.743Z" fill="#eddad3"/>
      <path id="Path_28363" data-name="Path 28363" d="M312.5,83.281a12.946,12.946,0,0,0,4.559,3.428l-2.072,3-3.62-5.239Z" fill="#eddad3"/>
      <path id="Path_28364" data-name="Path 28364" d="M317.06,86.708l1.617,2.461a3.369,3.369,0,0,1-3.277-.061Z" fill="#5073ab"/>
      <path id="Path_28365" data-name="Path 28365" d="M337.864,89.631c-.278,1-.7,2.456-1.8,6.452-.335.29-.678.574-1.027.847q-.591.466-1.2.9a29.093,29.093,0,0,1-13.31,5.153c.434-10.13,1.637-19.113,1.637-19.113q1.422.374,2.7.742h.006a62.1,62.1,0,0,1,12.476,4.712l.028.015c.335.187.491.288.491.288" fill="#323657"/>
      <path id="Path_28366" data-name="Path 28366" d="M311.083,102.619a29.29,29.29,0,0,1-14.917-8.06c-.18-.182-.358-.366-.531-.551-.513-2.176-.854-3.6-.875-3.688v0s3.62-2.379,16.429-5.8v.008c0,.293.008,8.51-.1,18.093" fill="#323657"/>
      <path id="Path_28367" data-name="Path 28367" d="M317.985,89.44c-.119,2.667-.131,7.844-.09,13.75-.319.011-.639.015-.961.015-.947,0-1.884-.045-2.806-.133a89.683,89.683,0,0,1,1.944-13.64c.142-.59.228-.885.228-.885l1.717.284c-.012.186-.022.388-.032.609" fill="#5073ab"/>
      <path id="Path_28368" data-name="Path 28368" d="M339.34,92.768a29.425,29.425,0,0,1-3.271,3.315c-.334.29-.677.575-1.027.848l2.822-7.3c.687.58,1.242,2.565,1.476,3.136" fill="#323657"/>
      <path id="Path_28369" data-name="Path 28369" d="M296.166,94.559c-.18-.182-.358-.366-.531-.551q-.984-1.041-1.859-2.174a3.375,3.375,0,0,1,.983-1.518v0Z" fill="#323657"/>
      <path id="Path_28370" data-name="Path 28370" d="M140.244,43.145h-32.83a3.3,3.3,0,0,1-3.3-3.3V37.271a3.3,3.3,0,0,1,3.3-3.3h32.83a3.3,3.3,0,0,1,3.3,3.3v2.578a3.3,3.3,0,0,1-3.3,3.3" fill="#f5f7ff"/>
      <path id="Path_28371" data-name="Path 28371" d="M337.889,193.152a22.49,22.49,0,1,1-22.489-22.49,22.49,22.49,0,0,1,22.489,22.49" fill="#eef0f7"/>
      <path id="Path_28372" data-name="Path 28372" d="M315.4,202.119a1.134,1.134,0,0,1-1.133-1.133V185.318a1.133,1.133,0,1,1,2.266,0v15.668a1.133,1.133,0,0,1-1.133,1.133" fill="#949494"/>
      <path id="Path_28373" data-name="Path 28373" d="M323.233,194.285H307.565a1.133,1.133,0,0,1,0-2.266h15.668a1.133,1.133,0,0,1,0,2.266" fill="#949494"/>
      <path id="Path_28374" data-name="Path 28374" d="M267.362,140.924H255.1a4.414,4.414,0,0,1-4.413-4.414V124.244a4.413,4.413,0,0,1,4.413-4.413h12.266a4.414,4.414,0,0,1,4.414,4.413V136.51a4.414,4.414,0,0,1-4.414,4.414" fill="#004684"/>
      <path id="Path_28375" data-name="Path 28375" d="M260.561,135.023l-5.332-4.648a1.051,1.051,0,1,1,1.382-1.584l3.769,3.287,5.378-6a1.05,1.05,0,1,1,1.564,1.4Z" fill="#f3f3f3"/>
      <path id="Path_28376" data-name="Path 28376" d="M267.362,167.954H255.1a4.414,4.414,0,0,1-4.413-4.414V151.275a4.414,4.414,0,0,1,4.413-4.414h12.266a4.414,4.414,0,0,1,4.414,4.414V163.54a4.414,4.414,0,0,1-4.414,4.414" fill="#004684"/>
      <path id="Path_28377" data-name="Path 28377" d="M260.561,162.054l-5.332-4.649a1.051,1.051,0,1,1,1.382-1.583l3.769,3.287,5.378-6a1.051,1.051,0,1,1,1.564,1.4Z" fill="#f3f3f3"/>
      <path id="Path_28378" data-name="Path 28378" d="M267.362,194.984H255.1a4.414,4.414,0,0,1-4.413-4.414V178.3a4.414,4.414,0,0,1,4.413-4.414h12.266a4.414,4.414,0,0,1,4.414,4.414V190.57a4.414,4.414,0,0,1-4.414,4.414" fill="#004684"/>
      <path id="Path_28379" data-name="Path 28379" d="M165.811,325.663a16.169,16.169,0,0,1-1.977,3.367c-.9.956-4.368,2.664-4.386,5.5-.021,3.078,5.838,2.224,8.129,2.111s2.464-1.756,3.428-3.5,1.938-1.447,2.118-2.853a16.793,16.793,0,0,0-.738-4.552Z" fill="#131c24"/>
      <path id="Path_28380" data-name="Path 28380" d="M165.712,324.773l-.168,1.459a12.727,12.727,0,0,0,7.01.127l-.19-1.995Z" fill="#4f4946"/>
      <path id="Path_28381" data-name="Path 28381" d="M208.053,325.663a16.2,16.2,0,0,0,1.976,3.367c.906.956,4.369,2.664,4.387,5.5.021,3.078-5.838,2.224-8.129,2.111s-2.465-1.756-3.428-3.5-1.938-1.447-2.119-2.853a16.822,16.822,0,0,1,.739-4.552Z" fill="#131c24"/>
      <path id="Path_28382" data-name="Path 28382" d="M208.152,324.773l.168,1.459a12.727,12.727,0,0,1-7.01.127l.19-1.995Z" fill="#4f4946"/>
      <path id="Path_28383" data-name="Path 28383" d="M206.258,285.922c0,3.8,3.544,38.441,3.544,38.441-.407,1.265-9.1,1.111-10.46.479s-5.3-34.968-5.551-38.794-5.913-37.105-7.1-36.978-6.826,35.789-7.777,38.7-5.257,37.4-5.257,37.4c-2.984,1.644-10.079-.414-10.079-.414s1.488-35.415,1.658-36.484c.252-1.583-.012-5.848.678-15.314.618-8.467,2.849-26.9,4.263-36.885q.076-.532.145-1.023c.278-1.942.486-3.37.585-4.055.043-.3.067-.454.067-.454q.571-.244,1.2-.453c9.936-3.329,28.849-3.116,28.849-3.116s.261,3.4.282,3.564c.025.2.065.515.116.922.111.88.276,2.192.465,3.713,0,.011,0,.021,0,.032l.018.139c.668,5.415,1.613,13.342,1.524,14.166-.136,1.266,2.834,32.617,2.834,36.412" fill="#293e4f"/>
      <path id="Path_28384" data-name="Path 28384" d="M207.673,173.686,202.792,191.2c-.168.568-.367,1.266-.579,2.079l-.009.031a.142.142,0,0,0-.006.022,68.874,68.874,0,0,0-2.123,13.167c-.2,3.6.465,18.092.465,18.092s-7.387,2.757-18.439,2.059c0,0-11.889-.278-10.919-7.567,2.564-19.293.055-27.248-.28-29.185,0,0-1.4-8.889-2.56-16.74,3.346-1.246,17.428-6.532,17.428-6.532l7.4.554s11.25,2.77,14.5,6.507" fill="#d9c7c1"/>
      <path id="Path_28385" data-name="Path 28385" d="M189.483,141.867s7.226,1.219,6,12.532-7.6,10.315-8.031,10.3-6.415.137-6.732-13.695c0,0-.091-10.227,8.763-9.136" fill="#eea987"/>
      <path id="Path_28386" data-name="Path 28386" d="M192.648,161.419s-.249,4.656.191,5.669-5.8,4.22-9.681.568c0,0,.784-5.09.541-6.886s8.949.649,8.949.649" fill="#eea987"/>
      <path id="Path_28387" data-name="Path 28387" d="M195.63,151.2s.8-.838,1.083.022-1.28,4.674-1.183,4.847c0,0-.148.331-.337.146a41.536,41.536,0,0,1,.437-5.015" fill="#eea987"/>
      <path id="Path_28388" data-name="Path 28388" d="M180.8,150.9s-.767-.87-1.083-.022.839,4.655.983,4.891c0,0,.248.39.445.213a41.89,41.89,0,0,0-.345-5.082" fill="#eea987"/>
      <path id="Path_28389" data-name="Path 28389" d="M196.092,150.241c-.249,1.548-.483,2.7-.483,2.7l-1.052,1.374a27.849,27.849,0,0,0-.1-3.514c-.061-.181-.133-.5-.206-.848-.121-.572-.244-1.218-.329-1.434-.136-.343-6.193-2.112-11.589.372,0,0,.046.467.042.988,0,.606-.068,1.285-.346,1.387-.517.189-.3,3.555-.3,3.555l-.841-.971s-.243-1.758-.483-3.778l0-.015c-.054-.471-.11-.956-.163-1.436-.12-2.032.081-5.722,2.727-7.89,1.786-.764,6.665-1.534,9.39.041a20.828,20.828,0,0,1,1.764,1.2c2.96,3.257,1.971,8.27,1.971,8.27" fill="#e8734d"/>
      <path id="Path_28390" data-name="Path 28390" d="M184.2,163.186a4.6,4.6,0,0,0,3.833,1.541,5.221,5.221,0,0,0,3.843-1.457s-1.269,2.653-3.856,2.625-3.82-2.709-3.82-2.709" fill="#c78d71"/>
      <path id="Path_28391" data-name="Path 28391" d="M182.422,167.754a7.873,7.873,0,0,0,5.611,3.689c2.331.2,4.33-2.76,5.277-4.21a14.088,14.088,0,0,0-10.888.521" fill="#eea987"/>
      <path id="Path_28392" data-name="Path 28392" d="M192.657,166.173a20.05,20.05,0,0,1-4.624,4.006l1.957,3.016,3.337-5.978Z" fill="#eddad3"/>
      <path id="Path_28393" data-name="Path 28393" d="M183.306,166.624a13.438,13.438,0,0,0,4.728,3.555l-2.149,3.107-3.732-5.3Z" fill="#eddad3"/>
      <path id="Path_28394" data-name="Path 28394" d="M188.033,170.18l1.677,2.552a3.491,3.491,0,0,1-3.4-.063Z" fill="#5073ab"/>
      <path id="Path_28395" data-name="Path 28395" d="M170.776,227.96s9.066,3.345,29.571.195l-.272-3.713s-11.886,3.506-28.937.5Z" fill="#1a2833"/>
      <path id="Path_28396" data-name="Path 28396" d="M193.327,167.217a226.52,226.52,0,0,0-1.829,29.52c.29,13.661,4.727,39.277,4.727,39.277s7.907-.775,9.87-3.245c0,0-4.538-24.655-4.409-28.309s5.816-31.133,5.816-31.133-2.223-2.964-14.175-6.11" fill="#385369"/>
      <path id="Path_28397" data-name="Path 28397" d="M181.98,168.046s-.02,15.031-.31,28.691-2.089,39.091-2.089,39.091-9.277-1.321-11.24-3.792c0,0,3.27-23.922,3.141-27.576s-4.193-30.864-4.193-30.864,1.4-2,14.691-5.55" fill="#385369"/>
      <rect id="Rectangle_6977" data-name="Rectangle 6977" width="5.571" height="4.142" transform="translate(183.142 225.585)" fill="#3e5e78"/>
      <path id="Path_28398" data-name="Path 28398" d="M187.246,172.087s-2.488,8.492-2.706,25.358.306,21.7.306,21.7l1.942,3.844,2.589-4.011s-.83-38.812-.35-46.6Z" fill="#5073ab"/>
      <path id="Path_28399" data-name="Path 28399" d="M197.633,195.823s3.683-1.853,4.193-2.179a48.841,48.841,0,0,1,7.437-1.213c.775.026.809.643.59.863s-6.367,1.229-6.473,1.376.52.092.52.092,6.627-.1,7.089.343-.068.863-.336.975c0,0,.6.693-.094.978a10.429,10.429,0,0,1-1.64.468s.876.451.3.853-7.6,2.577-7.6,2.577-2.611-4.992-3.988-5.133" fill="#eea886"/>
      <path id="Path_28400" data-name="Path 28400" d="M210.286,208.515c-4.786,1.143-15.849-.713-20.063-1.642-.894-.2-1.9-.4-2.94-.606h0c-1.724-.339-3.523-.669-4.984-.929h0c-1.8-.321-3.084-.537-3.084-.537s23.217-5.216,24.074-5.216-2.144-13.572-2.144-13.572-2.99-11.366-1.437-15.834c0,0,5.891,1.786,7.8,3.149,1.063.759,1.846,5.689,2.57,9.042.919,4.248,3.053,13.923,3.295,15.965.222,1.862,1.706,9.037-3.081,10.18" fill="#385369"/>
      <path id="Path_28401" data-name="Path 28401" d="M174.762,170.235s-7.131,2.436-7.473,3.362a87.015,87.015,0,0,0-2.579,9.916c-.569,2.1-1.859,8.368-2.192,10.413-.423,2.609-1.236,11.848-.881,13.273.446,1.8,4.686,1.668,6.973,1.311s34.05-8.087,34.05-8.087-1.811-5.909-1.9-6.431c0,0-24.486,2.8-27.605,3.464a20.122,20.122,0,0,0-2.167.525s5.4-22.165,3.777-27.746" fill="#385369"/>
      <path id="Path_28402" data-name="Path 28402" d="M178.979,196.688s-3.2-2.6-3.625-3.031a48.606,48.606,0,0,0-7-2.785.642.642,0,0,0-.835.768c.1.531,6.025,2.517,6.1,2.684s-.528-.022-.528-.022-6.45-1.526-7-1.192-.119.856.119,1.023c0,0-.738.548-.119.977a10.272,10.272,0,0,0,1.5.808s-.952.253-.475.77,3.869,1.293,3.869,1.293,6.62-1.453,8-1.293" fill="#eea886"/>
      <path id="Path_28403" data-name="Path 28403" d="M198.053,201.541l-10.77,4.726h0c-1.724-.339-3.523-.669-4.984-.929Z" fill="#263947"/>
      <path id="Path_28404" data-name="Path 28404" d="M192.861,141.786s1.793-.9,2.762.28,1.074,7.622-.11,10.094.189-8.775-2.652-10.374" fill="#e8734d"/>
      <rect id="Rectangle_6978" data-name="Rectangle 6978" width="3.206" height="145.745" transform="translate(121.41 205.614)" fill="#706865"/>
      <path id="Path_28405" data-name="Path 28405" d="M129.123,327.3H42.867a9.624,9.624,0,0,1-9.624-9.624V154.35a9.624,9.624,0,0,1,9.624-9.625h86.256a9.625,9.625,0,0,1,9.625,9.625V317.679a9.625,9.625,0,0,1-9.625,9.624" fill="#bdafaa"/>
      <path id="Path_28406" data-name="Path 28406" d="M126.344,320.169h-80.7a9.51,9.51,0,0,1-9.51-9.509V157.174a9.509,9.509,0,0,1,9.51-9.508h80.7a9.508,9.508,0,0,1,9.509,9.508V310.66a9.509,9.509,0,0,1-9.509,9.509" fill="#fff"/>
      <rect id="Rectangle_6979" data-name="Rectangle 6979" width="31.439" height="7.1" transform="translate(70.276 143.341)" fill="#706865"/>
      <path id="Path_28407" data-name="Path 28407" d="M116.658,313.274H52.832a9.387,9.387,0,0,1-9.377-9.376V267.564a9.388,9.388,0,0,1,9.377-9.377h63.826a9.388,9.388,0,0,1,9.377,9.377V303.9a9.387,9.387,0,0,1-9.377,9.376M52.832,259.395a8.178,8.178,0,0,0-8.169,8.169V303.9a8.177,8.177,0,0,0,8.169,8.168h63.826a8.179,8.179,0,0,0,8.169-8.168V267.564a8.179,8.179,0,0,0-8.169-8.169Z" fill="#b5deff"/>
      <path id="Path_28408" data-name="Path 28408" d="M59.391,225.389a.025.025,0,0,0-.015,0c.062.026.071.029.015,0" fill="#323657"/>
      <path id="Path_28409" data-name="Path 28409" d="M114.819,221.465a10.4,10.4,0,1,1,10.4-10.4,10.413,10.413,0,0,1-10.4,10.4m0-19.6a9.193,9.193,0,1,0,9.192,9.193,9.2,9.2,0,0,0-9.192-9.193" fill="#b5deff"/>
      <path id="Path_28410" data-name="Path 28410" d="M114.819,245.431a10.4,10.4,0,1,1,10.4-10.4,10.413,10.413,0,0,1-10.4,10.4m0-19.594a9.193,9.193,0,1,0,9.192,9.193,9.2,9.2,0,0,0-9.192-9.193" fill="#b5deff"/>
      <path id="Path_28411" data-name="Path 28411" d="M67.939,211.526c-.858,0-1.727-.042-2.583-.123a26.93,26.93,0,0,1-16.538-7.838c-.175-.177-.34-.349-.491-.51a26.227,26.227,0,0,1-1.709-2,26.682,26.682,0,0,1-5.623-16.473,26.975,26.975,0,0,1,26.944-26.944v1.208A25.765,25.765,0,0,0,42.2,184.583a25.478,25.478,0,0,0,5.37,15.733,24.958,24.958,0,0,0,1.634,1.911c.145.156.3.319.468.486A25.73,25.73,0,0,0,62.793,209.8a25.268,25.268,0,0,0,2.677.4c.819.077,1.649.117,2.469.117.3,0,.575-.005.845-.014.781-.025,1.559-.085,2.315-.179a25.7,25.7,0,0,0,11.7-4.53c.365-.259.721-.527,1.06-.795.294-.23.6-.48.9-.746a26.043,26.043,0,0,0,2.876-2.915A25.8,25.8,0,0,0,93.4,180.806l1.2-.175a27.251,27.251,0,0,1,.288,3.952,26.971,26.971,0,0,1-6.314,17.333,27.289,27.289,0,0,1-3.011,3.052c-.32.277-.639.539-.947.781-.353.278-.726.558-1.107.83a26.924,26.924,0,0,1-12.256,4.745c-.791.1-1.607.161-2.424.187-.282.01-.572.015-.884.015" fill="#b5deff"/>
      <path id="Path_28412" data-name="Path 28412" d="M86.736,198.849a2.271,2.271,0,0,0-.263-.294.439.439,0,0,0-.137-.111c-.009-.007-.017-.01-.025-.016l0,0c-5.022-2.778-14.086-5.041-14.086-5.041a15.529,15.529,0,0,1-.2-3.954,11.226,11.226,0,0,0,2.27-5.461c.152.113.268-.146.268-.146-.084-.15,1.272-3.459,1.028-4.206a.391.391,0,0,0-.639-.251q.048-.286.1-.6s.538-5.074-2.031-7.9a2.829,2.829,0,0,0-1.211-.319c-4.124-1.263-6.6-.7-8.147-.035-2.3,1.881-2.471,5.082-2.366,6.846.046.418.093.838.14,1.247l0,.013c.019.16.038.319.057.475a.392.392,0,0,0-.651.223c-.274.736.728,4.04.853,4.244,0,0,.216.339.386.186h0A12.107,12.107,0,0,0,64.3,189.54c-.091,1.629-.382,3.666-.462,4.205v0c-2.106.664-12.665,3.473-15.861,5.573a3.036,3.036,0,0,0-.884,1.366,25.565,25.565,0,0,0,1.672,1.957c.157.167.317.333.479.5A26.227,26.227,0,0,0,65.413,210.8q1.247.119,2.526.12c.29,0,.578,0,.865-.014.8-.026,1.591-.087,2.369-.183a26.2,26.2,0,0,0,11.98-4.638q.552-.393,1.085-.813c.313-.246.622-.5.924-.763a26.571,26.571,0,0,0,2.943-2.983,12.849,12.849,0,0,0-1.369-2.678" fill="#b5deff"/>
      <rect id="Rectangle_6980" data-name="Rectangle 6980" width="31.209" height="1.852" transform="translate(369.292 257.609)" fill="#e2d2ca"/>
      <rect id="Rectangle_6981" data-name="Rectangle 6981" width="2.734" height="84.255" transform="translate(393.584 264.282)" fill="#706865"/>
      <rect id="Rectangle_6982" data-name="Rectangle 6982" width="21.693" height="2.646" transform="translate(352.482 257.083)" fill="#ccbdb7"/>
      <rect id="Rectangle_6983" data-name="Rectangle 6983" width="8.215" height="24.95" transform="translate(359.222 234.51)" fill="#4667a8"/>
      <rect id="Rectangle_6984" data-name="Rectangle 6984" width="120.196" height="4.79" transform="translate(291.501 259.492)" fill="#b59074"/>
      <path id="Path_28413" data-name="Path 28413" d="M434.766,230.5s1.314,18.435-2.288,20.642c-2.257,1.381-11.254,6.043-10.986,6.918s5.08,7.778,5.08,7.778,17.281-11.38,17.839-14.967c.544-3.5-.851-26.993-3.226-28.075-1.779-.811-2.719-.141-4.961,1.525-3.147,2.335-1.458,6.179-1.458,6.179" fill="#323657"/>
      <path id="Path_28414" data-name="Path 28414" d="M403.268,235.76l-1.523-.564s1.9-4.459,2.728-4.351a20.676,20.676,0,0,1,2.148.44Z" fill="#ead8cf"/>
      <path id="Path_28415" data-name="Path 28415" d="M402.921,236.529c.194-.145,3.237-5.982,3.237-5.982l6.5.882-3.513,6.915Z" fill="#da9b5b"/>
      <path id="Path_28416" data-name="Path 28416" d="M413.5,337.033s.538,3.73.6,4.291,5.978-.33,5.978-.33l.478-4.441s-6.322-.046-7.061.48" fill="#424773"/>
      <path id="Path_28417" data-name="Path 28417" d="M414.044,340.849a15.96,15.96,0,0,1-3.685,3.228c-1.81.979-4.657,1.367-5.728,2.381-.773.732-2.816,3.884,4.707,3.82s11.15.445,11.956-.763-1.166-8.918-1.166-8.918-1.781.641-6.084.252" fill="#292c47"/>
      <path id="Path_28418" data-name="Path 28418" d="M375.631,337.069s.537,3.73.6,4.29,5.979-.33,5.979-.33l.478-4.44s-6.322-.046-7.061.48" fill="#424773"/>
      <path id="Path_28419" data-name="Path 28419" d="M376.173,340.885a15.966,15.966,0,0,1-3.685,3.227c-1.811.98-8.477,1.785-9.548,2.8-.773.733-2.059,3.679,8.526,3.4,7.521-.2,11.15.445,11.957-.763s-1.167-8.92-1.167-8.92-1.678.686-6.083.254" fill="#292c47"/>
      <path id="Path_28420" data-name="Path 28420" d="M432.568,272.6s-21.491,3.637-26.345,4.4-31.172,7.31-34.463,9.305c-2.62,1.589,1.374,39.738,2.307,54.294h10.366l.752-43.661c12.44.312,21.316-2.91,30.374-1.534s16.611,3.331,22.366-4.39c0,0,.214-16.727-5.357-18.414" fill="#292c47"/>
      <path id="Path_28421" data-name="Path 28421" d="M411.386,340.631l10.1-.624.985-43.071A61.421,61.421,0,0,0,434,296.2l8.157-18.958c-7.149,1.429-30.051,7.2-33.1,9.057-2.62,1.59,1.4,39.773,2.337,54.328" fill="#292c47"/>
      <path id="Path_28422" data-name="Path 28422" d="M422.675,192.043s-7.878-2.177-10.883,3.938-1.643,17.71,2.327,18.8,9.68-.165,11.328-3.971,2.963-9.215,2.569-12.717-3.248-5.213-5.341-6.051" fill="#eea886"/>
      <path id="Path_28423" data-name="Path 28423" d="M416.178,213.562s.087,4.651-.426,5.643,10.97.743,10.97.743-1.81-5.585-.783-10.344c1.015-4.71-9.761,3.958-9.761,3.958" fill="#eea886"/>
      <path id="Path_28424" data-name="Path 28424" d="M426.557,207.843s-.613,1.248-3.586,1.046-6.893-3.787-8.154-4.108-1.337-1.038-1.337-1.038l-.667,1.188-1.293.2s.878-3.594-1.036-4.859.862-11.457,10.553-9c0,0,7.4,1.354,7.5,5.485s-.542,8.9-1.977,11.089" fill="#3a3f47"/>
      <path id="Path_28425" data-name="Path 28425" d="M415.147,219.085s.032-1.9.891-2.076,9.026-1.305,10.081-.891l.452,2.5s-2.031,1.25-11.424.466" fill="#e2d2ca"/>
      <path id="Path_28426" data-name="Path 28426" d="M412.784,202.9c.221-1.553,1.986-3.337,3-.918s-.682,5.94-1.816,5.752-1.48-2.728-1.181-4.834" fill="#eea886"/>
      <path id="Path_28427" data-name="Path 28427" d="M380.938,241.469a.017.017,0,0,1,.014,0c-.059.025-.068.027-.014,0" fill="#323657"/>
      <path id="Path_28428" data-name="Path 28428" d="M424.973,193.153s9.605-.451,1.677,14.543Z" fill="#3a3f47"/>
      <path id="Path_28429" data-name="Path 28429" d="M446.375,345.741l-.715,2.011L415.469,338.4l1.447-4.07Z" fill="#918783"/>
      <rect id="Rectangle_6985" data-name="Rectangle 6985" width="3.432" height="32.824" transform="translate(414.434 304.14)" fill="#918783"/>
      <rect id="Rectangle_6986" data-name="Rectangle 6986" width="20.239" height="1.934" transform="translate(406.029 302.397)" fill="#5e5854"/>
      <path id="Path_28430" data-name="Path 28430" d="M385.658,345.741l.715,2.011,30.191-9.355-1.327-4.326Z" fill="#918783"/>
      <path id="Path_28431" data-name="Path 28431" d="M406.93,347.536v2.338l9.635-11.477-1.327-4.326Z" fill="#918783"/>
      <path id="Path_28432" data-name="Path 28432" d="M382.837,348.537a2.821,2.821,0,1,0,2.821-2.821,2.821,2.821,0,0,0-2.821,2.821" fill="#bfb2ac"/>
      <path id="Path_28433" data-name="Path 28433" d="M406.69,348.537a2.822,2.822,0,1,0,2.821-2.821,2.821,2.821,0,0,0-2.821,2.821" fill="#bfb2ac"/>
      <path id="Path_28434" data-name="Path 28434" d="M443.553,348.537a2.822,2.822,0,1,0,2.822-2.821,2.822,2.822,0,0,0-2.822,2.821" fill="#bfb2ac"/>
      <path id="Path_28435" data-name="Path 28435" d="M395.659,302.4h40.715a3.618,3.618,0,0,0,3.617-3.617v-.094a3.617,3.617,0,0,0-3.617-3.616H395.659a3.616,3.616,0,0,0-3.617,3.616v.094a3.617,3.617,0,0,0,3.617,3.617" fill="#e2d2ca"/>
      <rect id="Rectangle_6987" data-name="Rectangle 6987" width="2.735" height="84.255" transform="translate(306.879 264.282)" fill="#706865"/>
      <path id="Path_28436" data-name="Path 28436" d="M331.47,246.529h63.72a3.607,3.607,0,0,0,3.607-3.607V200.1a3.607,3.607,0,0,0-3.607-3.607H331.47a3.607,3.607,0,0,0-3.608,3.607v42.827a3.607,3.607,0,0,0,3.608,3.607" fill="#5f8be3"/>
      <rect id="Rectangle_6988" data-name="Rectangle 6988" width="65.38" height="39.494" transform="translate(330.64 199.193)" fill="#f5f7ff"/>
      <rect id="Rectangle_6989" data-name="Rectangle 6989" width="65.38" height="3.143" transform="translate(330.64 199.192)" fill="#cecfd6"/>
      <path id="Path_28437" data-name="Path 28437" d="M335.29,236.255h3.416a2.233,2.233,0,0,0,2.233-2.233V206.933a2.234,2.234,0,0,0-2.233-2.234H335.29a2.234,2.234,0,0,0-2.233,2.234v27.089a2.233,2.233,0,0,0,2.233,2.233" fill="#cecfd6"/>
      <path id="Path_28438" data-name="Path 28438" d="M381,207.623h11.967a1.205,1.205,0,0,0,1.206-1.205v-.512a1.206,1.206,0,0,0-1.206-1.206H381a1.206,1.206,0,0,0-1.206,1.206v.512A1.205,1.205,0,0,0,381,207.623" fill="#cecfd6"/>
      <path id="Path_28439" data-name="Path 28439" d="M382.281,237.061h9.4a2.491,2.491,0,0,0,2.491-2.491v-22.5a2.492,2.492,0,0,0-2.491-2.491h-9.4a2.491,2.491,0,0,0-2.49,2.491v22.5a2.49,2.49,0,0,0,2.49,2.491" fill="#cecfd6"/>
      <path id="Path_28440" data-name="Path 28440" d="M361.041,242.476a2.288,2.288,0,1,0,2.288-2.289,2.288,2.288,0,0,0-2.288,2.289" fill="#59524f"/>
      <path id="Path_28441" data-name="Path 28441" d="M348.645,259.556v-.891s1.252-5.539,10.106-5.539,8.676,6.43,8.676,6.43Z" fill="#314875"/>
      <path id="Path_28442" data-name="Path 28442" d="M367.535,253.95a8.717,8.717,0,0,1-2.629-.575c-.7-.425-4.921-3.261-5.912-2.807s-7.582,2.473-7.352,3.438.838.871,1.3.7a33.863,33.863,0,0,1,5.674-1.007s-4.7,1.716-4.721,2.967.985,1.556,1.43,2.029.981,1.65,2.193,1.739,7.123-1.966,8.34-2.061,3.47.076,3.623-.122-1.949-4.3-1.949-4.3" fill="#eea886"/>
      <path id="Path_28443" data-name="Path 28443" d="M402.558,221.71c6.134-1.078,12.59-2.625,12.59-2.625l11.424-.466s10.484,2.308,14.613,4.173c.392.177.394,9.354,1.468,11.76l-3.423,7.222s-1.978,14.305-2.388,20.668c-.188,2.92.532,28.227.532,28.227s-1.026.507-8.822,1.366-27.276-.31-27.4-1.23,3.772-34.289,3.945-36.017c.265-2.652-.766-14.907-.766-14.907-1.469,1.974-5.213,10.884-9.117,15.124-2.3,2.493-13.666,4.022-15.808,4.094-4.665.156-13.175,1.085-13.424.631-.2-.273-.741-7.554-.208-7.732.467-.155,16.269-1.065,20.317-3.213C387.574,248,392,238.344,392,238.344s7.173-15.113,10.557-16.634" fill="#323657"/>
      <path id="Path_28444" data-name="Path 28444" d="M425.07,289.939h19.178a6.944,6.944,0,0,0,6.944-6.945V251.086a6.945,6.945,0,0,0-6.944-6.944H425.07a6.944,6.944,0,0,0-6.944,6.944v31.908a6.944,6.944,0,0,0,6.944,6.945" fill="#e2d2ca"/>
      <path id="Path_28445" data-name="Path 28445" d="M423.985,300.573a15.152,15.152,0,0,0,11.753-4.866c6.61-7.3,5.422-20.127,5.368-20.67a1.839,1.839,0,0,0-3.661.362c.014.147,1.067,11.774-4.441,17.845a11.471,11.471,0,0,1-9.019,3.65,1.839,1.839,0,1,0,0,3.679" fill="#e2d2ca"/>
      <path id="Path_28446" data-name="Path 28446" d="M364.278,215.335a9.235,9.235,0,1,1-9.234-9.234,9.235,9.235,0,0,1,9.234,9.234" fill="#eef0f7"/>
      <path id="Path_28447" data-name="Path 28447" d="M361.059,220.431l-.683,2.443a9.151,9.151,0,0,1-4.2,1.626c-.272.034-.551.056-.831.065-.1,0-.2.005-.3.005-.3,0-.594-.014-.884-.042a9.663,9.663,0,0,1-.961-.143,9.165,9.165,0,0,1-3.775-1.724c-.131-.807-.272-1.7-.394-2.538.678-.252,2.838-.987,4.2-1.448l.058-.019c.03-.01.058-.021.087-.03l.233-.078.211-.072.548-.184h0l.028-.01h.015l1.833.138.308.023.1.006.042.011c.109.028.432.112.857.242h0a8.975,8.975,0,0,1,3.511,1.727" fill="#d9c7c1"/>
      <path id="Path_28448" data-name="Path 28448" d="M355.524,210.749s2.2.372,1.825,3.814-2.313,3.138-2.443,3.134-1.952.041-2.048-4.168c0,0-.028-3.11,2.666-2.78" fill="#eea987"/>
      <path id="Path_28449" data-name="Path 28449" d="M356.487,216.7a7.975,7.975,0,0,0,.058,1.725c.134.308-1.765,1.284-2.946.173a12.067,12.067,0,0,0,.165-2.1c-.074-.547,2.723.2,2.723.2" fill="#eea987"/>
      <path id="Path_28450" data-name="Path 28450" d="M357.395,213.589s.243-.254.329.008-.391,1.422-.359,1.474c0,0-.046.1-.1.044a12.493,12.493,0,0,1,.133-1.526" fill="#eea987"/>
      <path id="Path_28451" data-name="Path 28451" d="M352.884,213.5s-.233-.266-.33-.007a4.41,4.41,0,0,0,.3,1.487s.075.12.134.066a12.611,12.611,0,0,0-.1-1.546" fill="#eea987"/>
      <path id="Path_28452" data-name="Path 28452" d="M357.535,213.3c-.076.472-.147.821-.147.821l-.321.418a8.379,8.379,0,0,0-.029-1.069c-.019-.056-.04-.152-.063-.258-.037-.174-.075-.37-.1-.437a4.709,4.709,0,0,0-3.525.114s.013.141.012.3c0,.184-.021.39-.105.421-.157.058-.092,1.082-.092,1.082l-.256-.295s-.074-.535-.147-1.15v0c-.017-.143-.034-.291-.05-.437a2.878,2.878,0,0,1,.83-2.4,3.975,3.975,0,0,1,2.856.013,1.007,1.007,0,0,1,.425.112,4.079,4.079,0,0,1,.712,2.77" fill="#e8734d"/>
      <path id="Path_28453" data-name="Path 28453" d="M353.915,217.236a1.407,1.407,0,0,0,1.167.47,1.594,1.594,0,0,0,1.169-.445,1.422,1.422,0,0,1-1.173.8,1.44,1.44,0,0,1-1.163-.824" fill="#c78d71"/>
      <path id="Path_28454" data-name="Path 28454" d="M353.376,218.626a2.4,2.4,0,0,0,1.707,1.122c.709.063,1.323-.838,1.611-1.279a4.292,4.292,0,0,0-3.318.157" fill="#eea987"/>
      <path id="Path_28455" data-name="Path 28455" d="M356.49,218.145a6.1,6.1,0,0,1-1.407,1.22l.6.917,1.015-1.813Z" fill="#eddad3"/>
      <path id="Path_28456" data-name="Path 28456" d="M353.645,218.283a4.079,4.079,0,0,0,1.438,1.082l-.653.944-1.142-1.653Z" fill="#eddad3"/>
      <path id="Path_28457" data-name="Path 28457" d="M355.083,219.365l.511.775a1.062,1.062,0,0,1-1.034-.018Z" fill="#5073ab"/>
      <path id="Path_28458" data-name="Path 28458" d="M361.648,220.287l-.015.051c-.055.2-.271.966-.551,1.985-.106.091-.214.181-.325.267s-.251.193-.381.285a9.177,9.177,0,0,1-4.2,1.626c.137-3.2.516-6.031.516-6.031q.45.118.852.234h0a19.572,19.572,0,0,1,3.937,1.486l.009,0c.106.06.155.092.155.092" fill="#323657"/>
      <path id="Path_28459" data-name="Path 28459" d="M353.2,224.385a9.278,9.278,0,0,1-4.707-2.544q-.085-.086-.168-.174c-.162-.686-.27-1.135-.276-1.164h0a20.873,20.873,0,0,1,5.184-1.829v0c0,.093,0,2.685-.033,5.71" fill="#323657"/>
      <path id="Path_28460" data-name="Path 28460" d="M355.375,220.226c-.037.842-.041,2.476-.028,4.339-.1,0-.2.005-.3.005-.3,0-.6-.014-.886-.042a28.49,28.49,0,0,1,.613-4.3c.045-.186.073-.279.073-.279l.542.09c0,.058-.008.123-.011.192" fill="#5073ab"/>
      <path id="Path_28461" data-name="Path 28461" d="M362.114,221.276a9.278,9.278,0,0,1-1.032,1.047c-.106.091-.214.18-.324.266,0-.01.531-1.547.89-2.3.244.163.355.716.466.989" fill="#323657"/>
      <path id="Path_28462" data-name="Path 28462" d="M348.49,221.841q-.085-.086-.168-.174-.311-.329-.586-.686a1.066,1.066,0,0,1,.31-.479h0Z" fill="#323657"/>
      <path id="Path_28463" data-name="Path 28463" d="M286.441,332.71a8.052,8.052,0,0,0-2.854-2.734c-1.649-.768-5.031,1.91-5.328,3.4l-3.92,5.72.743.51,2.092-3.054c-1.424,3.429-3.461,7.533-2.03,9.6,1.919,2.769,6.272,5.569,7.422,5.085s.92-8.539.92-8.539c-1.241-7.109,2.955-9.984,2.955-9.984" fill="#1d3b54"/>
      <path id="Path_28464" data-name="Path 28464" d="M286.441,332.71a44.278,44.278,0,0,0-2.163,4.88c-.734,2.133-.871,8.038-1.334,8.448s-4.11-1.43-4.6-3.639.992-6.622,2.4-8.942a14.422,14.422,0,0,1,2.839-3.481s2.487.483,2.854,2.734" fill="#de9673"/>
      <path id="Path_28465" data-name="Path 28465" d="M300.518,280.957s-2.234,11.856-2.234,14.691a26.081,26.081,0,0,1-2.577,10.912c-1.8,3.437-9.721,26.915-10.409,29.65s-1.276,5.316-1.276,5.316-3.952-1.8-3.952-4.381,3.438-23.884,4.038-28.093,5.585-25.775,5.585-25.775Z" fill="#de9673"/>
      <path id="Path_28466" data-name="Path 28466" d="M287.889,280.185s.773,9.88.687,12.457-1.289,8.42-1.289,9.967,0,33.588,1.282,37.454-3.6,1.206-3.6,1.206-8.5-21.075-8.5-29.868,1.03-13.174.429-18.759a68.137,68.137,0,0,0-3.275-12.936Z" fill="#eea886"/>
      <path id="Path_28467" data-name="Path 28467" d="M275.023,232.629a30.735,30.735,0,0,0-5.775,13.076c-1.2,7.475,1.423,21.569,2.358,25.648.819,3.578,2.387,15.031,2.473,16.233,0,0,15.373,1.741,27.056-1.953,0,0,1.07-15.995,1.757-22.783s-2.667-29.706-2.667-29.706Z" fill="#eb4747"/>
      <path id="Path_28468" data-name="Path 28468" d="M292.6,349.81c-5.507-4.81-4.033-9.747-4.033-9.747a8.168,8.168,0,0,0-3.99-.336c-1.787.446-2.746,4.71-2.031,6.071l.557,7,.908-.073-.3-3.737c1.064,3.608,2.073,8.137,4.514,8.851,3.277.959,8.489.392,9.086-.723s-4.714-7.309-4.714-7.309" fill="#1d3b54"/>
      <path id="Path_28469" data-name="Path 28469" d="M295.833,180.278s-1.362,8.11-.186,10.834-6.253-3.185-6.253-3.185,3.084-8.935,6.439-7.649" fill="#754836"/>
      <path id="Path_28470" data-name="Path 28470" d="M293.086,157.748s-11.926-2.73-13.411,10.013,3.88,14.344.248,22.979,8.868-2.813,8.868-2.813Z" fill="#754836"/>
      <path id="Path_28471" data-name="Path 28471" d="M292.058,157.563a10.363,10.363,0,0,1,10.616,9.8,25.175,25.175,0,0,1-.885,3.879c-.578,1.7.817,6.805.409,7.043a11.143,11.143,0,0,1-2.076.51s-1.939,5.479-3.878,5.376-9.244-1.826-12.51-8.8-4.038-17.556,8.324-17.806" fill="#eea886"/>
      <path id="Path_28472" data-name="Path 28472" d="M258.7,258.457s.285-4.9,1.584-5.665.548.756.548.756-.73,3.558-.891,5a7.344,7.344,0,0,1-1.241-.091" fill="#1d3b54"/>
      <path id="Path_28473" data-name="Path 28473" d="M264.711,247.417a36.022,36.022,0,0,0,1.028,4.318c.666,2.119,1.28,2.795,1.013,4.009-.2.917-1.239,1.606-1.5,1.312s-.389-3.859-1.865-3.842.441,4.414-.438,4.091-4.262-2.177-4.049-3.973,1.566-3.1,1.479-5.778a5.778,5.778,0,0,1,.679-3.452Z" fill="#eea886"/>
      <path id="Path_28474" data-name="Path 28474" d="M263.531,253.065s1.967.5,1.85,7.154l-2.227-.371a22.9,22.9,0,0,0-.624-5.68s.113-1.3,1-1.1" fill="#1d3b54"/>
      <path id="Path_28475" data-name="Path 28475" d="M271.7,261.72,254.355,256.8l.051,21.356L271.664,288.5Z" fill="#eddad3"/>
      <path id="Path_28476" data-name="Path 28476" d="M271.664,288.5l-2.173.4-16.785-10.438.208-21.565,1.441-.1Z" fill="#eddad3"/>
      <path id="Path_28477" data-name="Path 28477" d="M293.707,187.522s4.623,1.9,5.448,2.476,2.477,7.263,2.889,7.841,4.4,5.536,3.848,9.555a10.345,10.345,0,0,1-3.374,6.066c-1.155,1.239-2.225,7.9-2.587,8.895s.79,13.993.79,13.993-13.564,5.279-25.7-3.719c0,0,2.423-8.706,2.423-10.274s-1.568-12.629-5.778-19.15.743-13.455,3.962-14.28,9.41-3.137,9.41-3.137Z" fill="#eb4747"/>
      <path id="Path_28478" data-name="Path 28478" d="M278.91,187.94s-6.788-.418-10.193,3.544-3.219,8.667-4.086,10.71-2.848,10.833-3.281,12.258-.856,9.426-1.475,15.865-.494,18.461-.494,18.461l6.495-1.178s.262-11.461.427-18.105,5.571-18.386,7.614-23.526,10.177-14.8,4.993-18.029" fill="#eb4747"/>
      <path id="Path_28479" data-name="Path 28479" d="M298.481,189.623a5.6,5.6,0,0,1,4.409,3.161c1.424,2.972,1.969,5.444,2.34,6.186s5.522,10.529,5.832,12.7-.186,6.129-2.91,7.182-12.505,1.175-12.505,1.175,2.476-5.031.186-7.631c0,0,7.1-1.283,8.778-1.453,1.772-.178-8.379-19.087-6.13-21.316" fill="#eb4747"/>
      <path id="Path_28480" data-name="Path 28480" d="M282.221,198.024l13.227,30.891,16.489-7.768-12.2-29.665Z" fill="#1d3b54"/>
      <path id="Path_28481" data-name="Path 28481" d="M289.808,213.2s-1.79.476-2.357.559.133,1.132.83,1.164,1.527-1.723,1.527-1.723" fill="#eea886"/>
      <path id="Path_28482" data-name="Path 28482" d="M291.01,221.991a3.793,3.793,0,0,0,1.186-.236s.618-.406,1.074-.666a3.6,3.6,0,0,1,.361-.187,6.932,6.932,0,0,0,1.991-.97c.777-.6,3.306-3.014,3.306-3.014l-1.672-2.521-1.292-2.006s-5.435.149-6.225.628a2.23,2.23,0,0,0-.217.149,8.849,8.849,0,0,0-1.2,1.368c-.111.105-1.136,1.225-1.075,1.674a1.485,1.485,0,0,0,.787,1.207,3.553,3.553,0,0,0,.855,1.752,2.2,2.2,0,0,0,1.146,1.57s.3,1.124.976,1.252" fill="#eea886"/>
      <path id="Path_28483" data-name="Path 28483" d="M295.833,212.391s8.053-1.439,10.276-1.675a27.692,27.692,0,0,0-.254-5.22,20.35,20.35,0,0,0-2.373-5.607l4.118,3.772s3.386,6.487,3.462,8,.478,3.859-1.525,6.233-11.461,1.287-11.461,1.287.79-2.912-2.243-6.794" fill="#eb4747"/>
      <path id="Path_28484" data-name="Path 28484" d="M293.355,182.878s-.261.768-.564,1.91c-.155.584-.322,1.264-.47,1.99a13.621,13.621,0,0,0-.2,5.943s-4.333,1.365-7.552-4.794c0,0,1.64-6.492-.141-10.508s8.93,5.459,8.93,5.459" fill="#eea886"/>
      <path id="Path_28485" data-name="Path 28485" d="M302.674,167.362s-5.059,3.244-10,3.788-7.7,8.023-7.7,8.023-7.775-12.106-1.514-19.546,20.551-1.679,19.213,7.735" fill="#754836"/>
      <path id="Path_28486" data-name="Path 28486" d="M290.629,170.866a1.517,1.517,0,0,0-2.62-1.156c-1.6,1.259.374,5.852,1.667,5.444s.953-3.3.953-4.288" fill="#eea886"/>
      <path id="Path_28487" data-name="Path 28487" d="M293.98,187.634s2.038,6.017-2.729,5.984-6.841-3.779-8.2-7.1a17.339,17.339,0,0,1,3.219-1.222c1.022-.155,7.713,2.342,7.713,2.342" fill="#eea886"/>
      <path id="Path_28488" data-name="Path 28488" d="M265.385,259.93l-2.235.289,0-1.043Z" fill="#1d3b54"/>
      <path id="Path_28489" data-name="Path 28489" d="M259.961,258.392l-1.235.146s0-.372.006-.495,1.186.271,1.229.349" fill="#1d3b54"/>
      <path id="Path_28490" data-name="Path 28490" d="M288.568,340.063a45.174,45.174,0,0,0,1.406,5.222c.78,2.147,4.434,6.884,4.33,7.5s-4.148,1.492-5.937.063-3.438-5.849-3.807-8.573a20.252,20.252,0,0,1-.174-4.484s2.459-1.271,4.182.269" fill="#eea886"/>
      <path id="Path_28491" data-name="Path 28491" d="M293.177,183.5c-.155.583-.385,1.287-.564,1.982a20.647,20.647,0,0,1-5.788-5.78,24.4,24.4,0,0,0,6.352,3.8" fill="#a77860"/>
      <path id="Path_28492" data-name="Path 28492" d="M111.827,67.737h46.12a6.805,6.805,0,0,1,6.8,6.805V93.185a6.8,6.8,0,0,1-6.8,6.8h-46.12a6.8,6.8,0,0,1-6.805-6.8V74.542a6.805,6.805,0,0,1,6.805-6.805" fill="#dfe1e8"/>
      <path id="Path_28493" data-name="Path 28493" d="M74.29,229.686a.035.035,0,0,0-.015,0c.061.026.07.029.015,0" fill="#323657"/>
      <path id="Path_28494" data-name="Path 28494" d="M45.878,224.541H90a2.225,2.225,0,0,0,2.225-2.225v-1.355A2.225,2.225,0,0,0,90,218.736H45.878a2.225,2.225,0,0,0-2.225,2.225v1.355a2.225,2.225,0,0,0,2.225,2.225" fill="#b5deff"/>
      <path id="Path_28495" data-name="Path 28495" d="M45.878,235.01H90a2.225,2.225,0,0,0,2.225-2.225v-1.354A2.224,2.224,0,0,0,90,229.206H45.878a2.224,2.224,0,0,0-2.225,2.225v1.354a2.225,2.225,0,0,0,2.225,2.225" fill="#b5deff"/>
      <path id="Path_28496" data-name="Path 28496" d="M45.878,245.48H90a2.225,2.225,0,0,0,2.225-2.225V241.9A2.225,2.225,0,0,0,90,239.675H45.878a2.225,2.225,0,0,0-2.225,2.224v1.356a2.225,2.225,0,0,0,2.225,2.225" fill="#b5deff"/>
      <path id="Path_28497" data-name="Path 28497" d="M120.089,196.355H109.55a4.144,4.144,0,0,1-4.144-4.145V159.634a4.145,4.145,0,0,1,4.144-4.145h10.539a4.146,4.146,0,0,1,4.145,4.145V192.21a4.145,4.145,0,0,1-4.145,4.145" fill="#b5deff"/>
      <path id="Path_28498" data-name="Path 28498" d="M6.781,269.5a6.284,6.284,0,0,1,.814,2.152,10.283,10.283,0,0,0,.994,2.542A24.181,24.181,0,0,1,9.8,278.434a19.471,19.471,0,0,0-.57,2.836c.1.613.448,1.829-.1,1.91s-1.176-.916-1.176-.916a.809.809,0,0,1-.414.78,1.366,1.366,0,0,1-1.387.051s-.334.621-.754.7a1.709,1.709,0,0,1-1.379-.187,1.672,1.672,0,0,1-1.047.336,1.372,1.372,0,0,1-1.162-.722s-1.036.21-1.336-.274A4.621,4.621,0,0,1,.1,281.517a16.717,16.717,0,0,1,1.313-7.242,6.417,6.417,0,0,0-.342-5.626Z" fill="#eea886"/>
      <path id="Path_28499" data-name="Path 28499" d="M8.094,281.894s.092-3.55-.842-4.305-1.04.526-1.04.526.127-1.267-.894-1.438-1.064,1.333-1.064,1.333a.986.986,0,0,0-1.239-.775c-1.072.2-.817,1.446-.817,1.446s-1.024-1.221-1.689-.049a5.233,5.233,0,0,0-.04,4.322s.316.536,1.336.273a1.411,1.411,0,0,0,2.21.387s1.563.86,2.133-.519a1.293,1.293,0,0,0,1.946-1.2" fill="#db9c7c"/>
      <path id="Path_28500" data-name="Path 28500" d="M18.82,218.378s-6.076,20.249-8.129,27.719c-.643,2.343-2.2,24.713-2.476,25.613S.233,273.845.233,273.845s.934-27.985,1.021-29.512,8.5-32.779,10.951-33.893c1.833-.835,2.8-.145,5.112,1.571,3.243,2.407,1.5,6.367,1.5,6.367" fill="#323657"/>
      <rect id="Rectangle_6990" data-name="Rectangle 6990" width="16.621" height="1.235" transform="translate(78.068 190.013) rotate(-33.201)" fill="#4da8f2"/>
      <path id="Path_28501" data-name="Path 28501" d="M94.135,186.145a3.643,3.643,0,0,1-.359,1.1s-.455.542-.755.947a3.476,3.476,0,0,0-.218.323,6.672,6.672,0,0,1-1.149,1.785c-.662.672-3.242,2.809-3.242,2.809l-2.21-1.876-2.3-1.029s1.286-5.585,1.83-6.282a2.072,2.072,0,0,1,.166-.19,8.368,8.368,0,0,1,1.438-.989c.112-.094,1.293-.944,1.714-.834a1.418,1.418,0,0,1,1.06.884,3.4,3.4,0,0,1,1.572,1.012,2.111,2.111,0,0,1,1.366,1.267s1.035.411,1.082,1.07" fill="#efaa88"/>
      <path id="Path_28502" data-name="Path 28502" d="M13.891,356.634s-.554,3.844-.623,4.422-6.161-.341-6.161-.341l-.493-4.576s6.515-.047,7.277.495" fill="#424773"/>
      <path id="Path_28503" data-name="Path 28503" d="M13.333,360.567a16.471,16.471,0,0,0,3.8,3.326c1.868,1.009,4.8,1.409,5.905,2.454.8.755,2.9,4-4.85,3.937s-11.491.459-12.322-.786,1.2-9.192,1.2-9.192,1.836.661,6.27.261" fill="#292c47"/>
      <path id="Path_28504" data-name="Path 28504" d="M57.537,356.634s-.554,3.844-.623,4.422-6.161-.341-6.161-.341l-.493-4.576s6.516-.047,7.277.495" fill="#424773"/>
      <path id="Path_28505" data-name="Path 28505" d="M56.979,360.567a16.453,16.453,0,0,0,3.8,3.326c1.866,1.009,8.735,1.839,9.84,2.884.8.755,2.122,3.791-8.788,3.507-7.75-.2-11.49.459-12.321-.786s1.2-9.192,1.2-9.192,1.73.706,6.271.261" fill="#292c47"/>
      <path id="Path_28506" data-name="Path 28506" d="M18.935,257.86s-5.724,9.094-5.3,17.313-2.075,17.2-2.935,25.783c-.958,9.573-4.881,32.236-5.024,37.357s.609,21.473.609,21.473l7.853.178s6.6-39.62,8.3-43.663,10.178-32.864,10.463-36.1S18.935,257.86,18.935,257.86" fill="#292c47"/>
      <path id="Path_28507" data-name="Path 28507" d="M49.065,259.092s4.313,22.53,4.883,27.561S54.9,311,55.181,314.145,57.84,355.2,58.6,359.964H48.559s-7.706-27.626-7.706-40.7-5.954-28.417-9.8-37.042-12.639-8.828-15-24.83c0,0,29.813-3.377,33.011,1.7" fill="#292c47"/>
      <path id="Path_28508" data-name="Path 28508" d="M28.486,181.4s7.683-2.87,11.225,2.979,3.2,17.555-.671,18.995-9.69.686-11.673-2.972-3.772-8.95-3.686-12.485,2.788-5.5,4.805-6.517" fill="#eea886"/>
      <path id="Path_28509" data-name="Path 28509" d="M38.206,203.647a6.636,6.636,0,0,0,.209,3.1c.528,1.021-9.954,1.048-9.954,1.048A69.176,69.176,0,0,0,26,197.537c-1.614-4.7,12.208,6.11,12.208,6.11" fill="#eea886"/>
      <path id="Path_28510" data-name="Path 28510" d="M26,197.537s.723,1.194,3.676.732,6.556-4.392,7.789-4.825,1.245-1.155,1.245-1.155l.772,1.128,1.309.083s-1.194-3.515.607-4.947-1.87-11.376-11.34-8.066c0,0-7.274,2.005-7.01,6.141s1.324,8.85,2.952,10.909" fill="#d88a51"/>
      <path id="Path_28511" data-name="Path 28511" d="M39.036,206.62s-.033-1.952-.918-2.14-9.768-1.041-10.853-.614v2.274s2.092,1.289,11.771.48" fill="#e2d2ca"/>
      <path id="Path_28512" data-name="Path 28512" d="M38.511,190.785c-.165-.694-1.93-2.677-2.605-.554s1.02,4.979,1.966,4.734,1.059-2.421.639-4.18" fill="#eea886"/>
      <path id="Path_28513" data-name="Path 28513" d="M53.729,209.576c-6.09-.8-14.693-2.957-14.693-2.957l-11.772-.479s-10.805,2.378-15.059,4.3c-.4.183-.406,9.639-1.513,12.118L14.22,230s2.037,14.743,2.461,21.3c.194,3.009-4.2,28.223-4.2,28.223A81.249,81.249,0,0,0,25.224,281.8c8.033.885,28.109-.32,28.234-1.269s-3.887-35.335-4.064-37.116c-.274-2.733.941-17.256.941-17.256,1.856-1.439,18.143-9,22.586-12.939,1.19-1.055,6.208-5.942,7.636-7.629,5.051-5.974,9.192-11.1,9.7-12.2.572-.629-5.49-3.925-6.039-4.108-.482-.161-7.31,8.688-9.94,11.535a73.448,73.448,0,0,1-6.045,4.815s-10.691,4.168-14.5,3.949" fill="#323657"/>
      <path id="Path_28514" data-name="Path 28514" d="M26.3,182.1s-9.8.767-.3,15.442Z" fill="#d88a51"/>
      <path id="Path_28515" data-name="Path 28515" d="M92.651,181.944l.8-1.226-1.48.193Z" fill="#dfe1e8"/>
    </g>
  </g>
</svg>
