<svg id="Group_20138" data-name="Group 20138" xmlns="http://www.w3.org/2000/svg" xmlns:xlink="http://www.w3.org/1999/xlink" width="479.328" height="335.12" viewBox="0 0 479.328 335.12">
  <defs>
    <linearGradient id="linear-gradient" x1="0.058" y1="0.5" x2="1.022" y2="0.5" gradientUnits="objectBoundingBox">
      <stop offset="0" stop-color="#06bce3"/>
      <stop offset="0.458" stop-color="#19bbbc"/>
      <stop offset="0.832" stop-color="#46b75c"/>
      <stop offset="1" stop-color="#4cb74f"/>
    </linearGradient>
    <clipPath id="clip-path">
      <path id="Path_28013" data-name="Path 28013" d="M427.019,57.5a19.532,19.532,0,1,1,19.533,19.531A19.532,19.532,0,0,1,427.019,57.5M446.552,27.05h-5.574l-1.012,5.026a26.118,26.118,0,0,0-6.728,2.79l-4.273-2.841-3.941,3.942-3.941,3.941,2.841,4.273a26.066,26.066,0,0,0-2.79,6.728l-5.026,1.011V63.07l5.026,1.011a26.088,26.088,0,0,0,2.79,6.728l-2.841,4.273,3.941,3.941,3.941,3.942,4.273-2.841a26.118,26.118,0,0,0,6.728,2.79l1.012,5.026h11.148l1.012-5.026a26.15,26.15,0,0,0,6.728-2.79l4.272,2.841,3.942-3.942,3.941-3.941L469.18,70.81a26.061,26.061,0,0,0,2.79-6.728L477,63.07V51.921L471.97,50.91a26.038,26.038,0,0,0-2.79-6.728l2.841-4.273-3.941-3.941-3.942-3.942-4.272,2.841a26.149,26.149,0,0,0-6.728-2.79l-1.012-5.026Z" transform="translate(-416.106 -27.05)" fill="none"/>
    </clipPath>
    <clipPath id="clip-path-2">
      <path id="Path_28014" data-name="Path 28014" d="M469.058,117.411a8.954,8.954,0,1,1,8.954,8.954,8.954,8.954,0,0,1-8.954-8.954m8.954-13.958h-2.555l-.464,2.3a11.943,11.943,0,0,0-3.085,1.279l-1.958-1.3-1.807,1.807-1.806,1.807,1.3,1.958a11.953,11.953,0,0,0-1.279,3.085l-2.3.464v5.11l2.3.464a11.93,11.93,0,0,0,1.279,3.085l-1.3,1.958,1.806,1.807,1.807,1.807,1.958-1.3a11.945,11.945,0,0,0,3.085,1.279l.464,2.3h5.111l.464-2.3a21.919,21.919,0,0,0,3.084-1.279l1.96,1.3,1.806-1.807,1.807-1.807-1.3-1.958a11.929,11.929,0,0,0,1.28-3.085l2.3-.464v-5.11l-2.3-.464a11.952,11.952,0,0,0-1.28-3.085l1.3-1.958-1.807-1.807-1.806-1.807-1.96,1.3a11.938,11.938,0,0,0-3.084-1.279l-.464-2.3Z" transform="translate(-464.055 -103.453)" fill="none"/>
    </clipPath>
    <clipPath id="clip-path-3">
      <rect id="Rectangle_6910" data-name="Rectangle 6910" width="479.328" height="335.12" fill="none"/>
    </clipPath>
    <clipPath id="clip-path-4">
      <rect id="Rectangle_6912" data-name="Rectangle 6912" width="218.233" height="19.162" fill="url(#linear-gradient)"/>
    </clipPath>
  </defs>
  <g id="Group_20129" data-name="Group 20129" transform="translate(328.539 21.357)">
    <g id="Group_20128" data-name="Group 20128" clip-path="url(#clip-path)">
      <rect id="Rectangle_6906" data-name="Rectangle 6906" width="60.891" height="60.891" transform="translate(0 0)" fill="#40cd9d"/>
    </g>
  </g>
  <g id="Group_20131" data-name="Group 20131" transform="translate(366.397 81.682)">
    <g id="Group_20130" data-name="Group 20130" clip-path="url(#clip-path-2)">
      <rect id="Rectangle_6907" data-name="Rectangle 6907" width="27.916" height="27.916" transform="translate(0)" fill="#b0e0d9"/>
    </g>
  </g>
  <g id="Group_20133" data-name="Group 20133">
    <g id="Group_20132" data-name="Group 20132" clip-path="url(#clip-path-3)">
      <rect id="Rectangle_6908" data-name="Rectangle 6908" width="27.42" height="83.287" transform="translate(230.042 186.917)" fill="#aebecc"/>
      <path id="Path_28015" data-name="Path 28015" d="M170.819,243.029H383.513a12.043,12.043,0,0,0,12.043-12.043V88.036a12.043,12.043,0,0,0-12.043-12.043H170.819a12.043,12.043,0,0,0-12.043,12.043v142.95a12.043,12.043,0,0,0,12.043,12.043" transform="translate(-33.413 -15.992)" fill="#f0f0f0"/>
      <rect id="Rectangle_6909" data-name="Rectangle 6909" width="218.233" height="158.638" transform="translate(134.635 42.223)" fill="#fff"/>
    </g>
  </g>
  <g id="Group_20135" data-name="Group 20135" transform="translate(134.635 42.222)">
    <g id="Group_20134" data-name="Group 20134" clip-path="url(#clip-path-4)">
      <rect id="Rectangle_6911" data-name="Rectangle 6911" width="218.233" height="19.162" transform="translate(0 0)" fill="url(#linear-gradient)"/>
    </g>
  </g>
  <g id="Group_20137" data-name="Group 20137">
    <g id="Group_20136" data-name="Group 20136" clip-path="url(#clip-path-3)">
      <path id="Path_28016" data-name="Path 28016" d="M299.047,267.532a7.638,7.638,0,1,0,7.637-7.638,7.637,7.637,0,0,0-7.637,7.638" transform="translate(-62.933 -54.693)" fill="#757575"/>
      <path id="Path_28017" data-name="Path 28017" d="M255.346,100.682h71.169a2.766,2.766,0,0,0,2.766-2.764v-.148A2.766,2.766,0,0,0,326.515,95H255.346a2.765,2.765,0,0,0-2.765,2.765v.148a2.765,2.765,0,0,0,2.765,2.764" transform="translate(-53.154 -19.993)" fill="#dfe1e8"/>
      <path id="Path_28018" data-name="Path 28018" d="M255.346,113.652h71.169a2.766,2.766,0,0,0,2.766-2.765v-.148a2.765,2.765,0,0,0-2.766-2.764H255.346a2.764,2.764,0,0,0-2.765,2.764v.148a2.765,2.765,0,0,0,2.765,2.765" transform="translate(-53.154 -22.722)" fill="#dfe1e8"/>
      <path id="Path_28019" data-name="Path 28019" d="M255.346,126.621h71.169a2.766,2.766,0,0,0,2.766-2.765v-.148a2.766,2.766,0,0,0-2.766-2.764H255.346a2.765,2.765,0,0,0-2.765,2.764v.148a2.765,2.765,0,0,0,2.765,2.765" transform="translate(-53.154 -25.452)" fill="#dfe1e8"/>
      <path id="Path_28020" data-name="Path 28020" d="M277.492,220.4h-81.8a12.385,12.385,0,0,1-12.371-12.372v-49.76A12.385,12.385,0,0,1,195.688,145.9h81.8a12.385,12.385,0,0,1,12.371,12.371v49.76A12.384,12.384,0,0,1,277.492,220.4m-81.8-72.952a10.832,10.832,0,0,0-10.82,10.82v49.76a10.833,10.833,0,0,0,10.82,10.822h81.8a10.833,10.833,0,0,0,10.821-10.822v-49.76a10.832,10.832,0,0,0-10.821-10.82Z" transform="translate(-38.578 -30.704)" fill="#dfe1e8"/>
      <path id="Path_28021" data-name="Path 28021" d="M205.724,166.464h68.863A5.464,5.464,0,0,0,280.051,161v-1.039a5.464,5.464,0,0,0-5.464-5.464H205.724a5.464,5.464,0,0,0-5.464,5.464V161a5.464,5.464,0,0,0,5.464,5.464" transform="translate(-42.144 -32.513)" fill="#dfe1e8"/>
      <rect id="Rectangle_6913" data-name="Rectangle 6913" width="123.363" height="6.287" transform="translate(182.071 267.06)" fill="#f0f0f0"/>
      <path id="Path_28022" data-name="Path 28022" d="M406.37,161.875a17.762,17.762,0,0,1-12.161,16.856c-.107.036-.214.071-.321.1a17.76,17.76,0,1,1,12.482-16.96" transform="translate(-78.044 -30.329)" fill="#eef0f7"/>
      <path id="Path_28023" data-name="Path 28023" d="M387.95,162.18s-1.213-7.847,5.285-7.7,6.411,4.024,6.3,7.875-2.605,3.562.2,8.918-2.432,5.356-2.432,5.356l-4.067-5.588Z" transform="translate(-81.623 -32.509)" fill="#3c4145"/>
      <path id="Path_28024" data-name="Path 28024" d="M392.545,155.408s-4.4.695-4.575,6.949,1.187,7.586,5.038,6.283,5.067-7.847,5.153-8.86.319-5.125-5.617-4.372" transform="translate(-81.643 -32.685)" fill="#eea886"/>
      <path id="Path_28025" data-name="Path 28025" d="M399.259,181.324a4.256,4.256,0,0,1-2.466,3.927c-.107.036-.214.071-.321.1A17.825,17.825,0,0,1,383.3,184.3c-.535-1.067.241-2.583,1.815-4.91,1.082-1.6,2.142-3.232,3.956-4.026,2.677-.426,5.51-.452,7.506.676,1.591.9,2.651,2.532,2.678,5.279" transform="translate(-80.629 -36.848)" fill="#e55353"/>
      <path id="Path_28026" data-name="Path 28026" d="M386.2,179.5l-2.024,3.189c0-.017.14-.5.368-1.9.044-.265.091-.564.141-.9a2.4,2.4,0,0,1,.064-.294c.866-2,3.567-3.482,3.665-3.532Z" transform="translate(-80.848 -37.053)" fill="#e55353"/>
      <path id="Path_28027" data-name="Path 28027" d="M403.109,183.97a17.607,17.607,0,0,1-3.367,1.523c-.106.037-.213.072-.321.1-.449-1.159-.839-2.161-.923-2.42-.024-.077-.082-.216-.161-.407a13.481,13.481,0,0,1-1.192-4.4c-.006-.995.322-1.81,1.323-2.042a2.609,2.609,0,0,1,1.062-.04,3.118,3.118,0,0,1,2.133,2.1c.006.016.012.031.017.044a6.864,6.864,0,0,1,.4,1.42l.05.2c.063.249.183.72.339,1.338.178.709.4,1.61.641,2.59" transform="translate(-83.577 -37.091)" fill="#eea886"/>
      <path id="Path_28028" data-name="Path 28028" d="M395.984,168.6a33.745,33.745,0,0,0-.785,5.192s-5.382,2.035-4.831.883a4.416,4.416,0,0,0,.328-1.784,8.616,8.616,0,0,0-.06-1.086c-.014-.117-.025-.185-.025-.185s5.753-3.741,5.373-3.02" transform="translate(-82.142 -35.461)" fill="#eea886"/>
      <path id="Path_28029" data-name="Path 28029" d="M390.754,159.867s2.258,3.677,4.314,5.125,1.013,2.606,1.013,2.606,5.363-11.292.265-12.074-8.226-.839-8.372,6.8c0,0,2.317-2.519,2.78-2.461" transform="translate(-81.647 -32.657)" fill="#3c4145"/>
      <path id="Path_28030" data-name="Path 28030" d="M393.787,172.1c-.827,1.219-3.01,1.547-3.01,1.547a8.637,8.637,0,0,0-.06-1.086,6.144,6.144,0,0,0,3.07-.46" transform="translate(-82.224 -36.217)" fill="#a77860"/>
      <path id="Path_28031" data-name="Path 28031" d="M384.857,179.573h0a4.575,4.575,0,0,0-.213,1.216l.793-1.2s1.416-2.03,1.9-2.558a7.45,7.45,0,0,1,1.188-.992s-2.822,1.34-3.668,3.53" transform="translate(-80.946 -37.047)" fill="#bd4444"/>
      <path id="Path_28032" data-name="Path 28032" d="M398.153,182.632a30.379,30.379,0,0,1,4.477-1.434s-.695-5.547-4.089-4.96-.388,6.394-.388,6.394" transform="translate(-83.53 -37.079)" fill="#e55353"/>
      <path id="Path_28033" data-name="Path 28033" d="M390.165,175.277s-2.536,3.9-1.678,4.241,5.506-.454,7.483-4.159a6.964,6.964,0,0,0-5.8-.082" transform="translate(-81.717 -36.756)" fill="#eea886"/>
      <path id="Path_28034" data-name="Path 28034" d="M411.827,94.834a23.105,23.105,0,1,1-23.1-23.106,23.106,23.106,0,0,1,23.1,23.106" transform="translate(-76.942 -15.095)" fill="#eef0f7"/>
      <path id="Path_28035" data-name="Path 28035" d="M405.919,115.707l-1.7,6.114a22.979,22.979,0,0,1-10.509,4.069c-.683.084-1.377.138-2.078.16q-.378.013-.759.013c-.748,0-1.487-.036-2.215-.1a23.006,23.006,0,0,1-11.849-4.668c-.327-2.022-.678-4.259-.986-6.352,1.7-.632,7.1-2.471,10.514-3.624l.142-.047c.075-.026.148-.051.222-.075l.579-.2c.187-.063.365-.122.531-.18l1.368-.459,0,0,.07-.024.039,0,4.587.343.77.058.24.017.1.026c.276.071,1.081.282,2.145.606h0c2.717.831,7.123,2.411,8.785,4.321" transform="translate(-79.089 -23.219)" fill="#d9c7c1"/>
      <path id="Path_28036" data-name="Path 28036" d="M394.626,86.445s5.5.929,4.568,9.54-5.788,7.853-6.113,7.84-4.885.1-5.125-10.426c0,0-.07-7.785,6.67-6.954" transform="translate(-81.643 -18.179)" fill="#eea987"/>
      <path id="Path_28037" data-name="Path 28037" d="M397.531,105.047s-.189,3.544.145,4.316-4.417,3.213-7.37.432a30.448,30.448,0,0,0,.411-5.242c-.185-1.368,6.813.494,6.813.494" transform="translate(-82.138 -21.897)" fill="#eea987"/>
      <path id="Path_28038" data-name="Path 28038" d="M402.235,95.388s.61-.638.825.017-.975,3.557-.9,3.689c0,0-.113.252-.256.111a31.507,31.507,0,0,1,.332-3.817" transform="translate(-84.572 -20.015)" fill="#eea987"/>
      <path id="Path_28039" data-name="Path 28039" d="M387.805,95.088s-.583-.662-.824-.017.639,3.544.748,3.723c0,0,.19.3.339.163a31.737,31.737,0,0,0-.262-3.869" transform="translate(-81.429 -19.948)" fill="#eea987"/>
      <path id="Path_28040" data-name="Path 28040" d="M399.555,92.437c-.19,1.178-.369,2.054-.369,2.054l-.8,1.045a21.082,21.082,0,0,0-.075-2.675c-.047-.138-.1-.381-.156-.646-.093-.436-.187-.927-.251-1.091-.1-.261-4.714-1.608-8.822.283,0,0,.035.355.032.752,0,.461-.052.978-.264,1.056-.394.144-.23,2.706-.23,2.706l-.64-.739s-.186-1.338-.367-2.876l0-.011c-.041-.358-.083-.728-.123-1.094-.092-1.547.062-4.356,2.076-6.006,1.359-.582,3.529-1.077,7.147.031a2.5,2.5,0,0,1,1.063.28c2.253,2.48,1.782,6.931,1.782,6.931" transform="translate(-81.54 -17.797)" fill="#e8734d"/>
      <path id="Path_28041" data-name="Path 28041" d="M391.3,107.017a3.5,3.5,0,0,0,2.918,1.173,3.974,3.974,0,0,0,2.925-1.109,3.559,3.559,0,0,1-2.935,2,3.6,3.6,0,0,1-2.909-2.062" transform="translate(-82.348 -22.521)" fill="#c78d71"/>
      <path id="Path_28042" data-name="Path 28042" d="M389.6,111.143a5.993,5.993,0,0,0,4.272,2.808c1.774.153,3.311-2.1,4.031-3.2a10.749,10.749,0,0,0-8.3.392" transform="translate(-81.988 -23.17)" fill="#eea987"/>
      <path id="Path_28043" data-name="Path 28043" d="M398.526,109.9a15.262,15.262,0,0,1-3.52,3.05l1.49,2.3,2.54-4.534Z" transform="translate(-83.127 -23.127)" fill="#eddad3"/>
      <path id="Path_28044" data-name="Path 28044" d="M390.21,110.332a10.222,10.222,0,0,0,3.6,2.707l-1.636,2.365-2.858-4.136Z" transform="translate(-81.929 -23.219)" fill="#eddad3"/>
      <path id="Path_28045" data-name="Path 28045" d="M394.657,113.759l1.277,1.943a2.66,2.66,0,0,1-2.587-.048Z" transform="translate(-82.777 -23.94)" fill="#5073ab"/>
      <path id="Path_28046" data-name="Path 28046" d="M412.163,115.47c-.22.79-.549,1.939-1.417,5.094-.265.229-.535.453-.811.669q-.467.368-.951.713a22.97,22.97,0,0,1-10.509,4.069c.343-8,1.293-15.091,1.293-15.091q1.123.295,2.131.586h0a48.994,48.994,0,0,1,9.85,3.72l.023.012c.264.148.388.227.388.227" transform="translate(-83.856 -23.343)" fill="#323657"/>
      <path id="Path_28047" data-name="Path 28047" d="M385.595,125.861a23.124,23.124,0,0,1-11.778-6.364c-.142-.144-.283-.289-.419-.435-.405-1.718-.674-2.838-.691-2.912v0s2.858-1.878,12.972-4.577v.006c0,.231.006,6.719-.083,14.285" transform="translate(-78.434 -23.479)" fill="#323657"/>
      <path id="Path_28048" data-name="Path 28048" d="M395.12,116.3c-.094,2.107-.1,6.193-.071,10.856-.252.009-.505.012-.759.012-.748,0-1.488-.036-2.216-.1a70.8,70.8,0,0,1,1.535-10.77c.111-.466.179-.7.179-.7l1.356.223c-.009.147-.017.306-.025.481" transform="translate(-82.51 -24.327)" fill="#5073ab"/>
      <path id="Path_28049" data-name="Path 28049" d="M416.383,119.159a23.246,23.246,0,0,1-2.583,2.617c-.264.229-.535.454-.811.67l2.228-5.763a7.826,7.826,0,0,1,1.165,2.476" transform="translate(-86.911 -24.555)" fill="#323657"/>
      <path id="Path_28050" data-name="Path 28050" d="M373.61,120.717c-.142-.144-.283-.289-.419-.435q-.777-.822-1.468-1.716a2.671,2.671,0,0,1,.776-1.2v0Z" transform="translate(-78.227 -24.699)" fill="#323657"/>
      <path id="Path_28051" data-name="Path 28051" d="M210.589,68.266H184.667a2.6,2.6,0,0,1-2.6-2.6V63.628a2.6,2.6,0,0,1,2.6-2.6h25.921a2.6,2.6,0,0,1,2.6,2.6v2.035a2.6,2.6,0,0,1-2.6,2.6" transform="translate(-38.315 -12.843)" fill="#f5f7ff"/>
      <path id="Path_28052" data-name="Path 28052" d="M406.37,215.47a17.756,17.756,0,1,1-17.756-17.757A17.757,17.757,0,0,1,406.37,215.47" transform="translate(-78.045 -41.608)" fill="#eef0f7"/>
      <path id="Path_28053" data-name="Path 28053" d="M393.108,225.4a.9.9,0,0,1-.895-.895V212.13a.895.895,0,1,1,1.789,0V224.5a.9.9,0,0,1-.895.895" transform="translate(-82.539 -44.453)" fill="#949494"/>
      <path id="Path_28054" data-name="Path 28054" d="M397.644,220.859H385.273a.895.895,0,0,1,0-1.789h12.371a.895.895,0,0,1,0,1.789" transform="translate(-80.89 -46.102)" fill="#949494"/>
      <path id="Path_28055" data-name="Path 28055" d="M341.8,163.536h-9.685a3.485,3.485,0,0,1-3.484-3.485v-9.685a3.485,3.485,0,0,1,3.484-3.484H341.8a3.485,3.485,0,0,1,3.485,3.484v9.685a3.485,3.485,0,0,1-3.485,3.485" transform="translate(-69.158 -30.91)" fill="#004684"/>
      <path id="Path_28056" data-name="Path 28056" d="M337.31,160.119l-4.21-3.67a.83.83,0,1,1,1.09-1.251l2.977,2.6,4.245-4.735a.829.829,0,0,1,1.236,1.107Z" transform="translate(-70.039 -32.152)" fill="#f3f3f3"/>
      <path id="Path_28057" data-name="Path 28057" d="M341.8,190.566h-9.685a3.485,3.485,0,0,1-3.484-3.485V177.4a3.485,3.485,0,0,1,3.484-3.485H341.8a3.485,3.485,0,0,1,3.485,3.485v9.684a3.485,3.485,0,0,1-3.485,3.485" transform="translate(-69.158 -36.599)" fill="#004684"/>
      <path id="Path_28058" data-name="Path 28058" d="M337.31,187.15l-4.21-3.671a.829.829,0,1,1,1.09-1.25l2.977,2.6,4.245-4.736a.83.83,0,0,1,1.236,1.108Z" transform="translate(-70.039 -37.841)" fill="#f3f3f3"/>
      <path id="Path_28059" data-name="Path 28059" d="M341.8,217.6h-9.685a3.485,3.485,0,0,1-3.484-3.485v-9.684a3.485,3.485,0,0,1,3.484-3.485H341.8a3.485,3.485,0,0,1,3.485,3.485v9.684A3.485,3.485,0,0,1,341.8,217.6" transform="translate(-69.158 -42.287)" fill="#004684"/>
      <path id="Path_28060" data-name="Path 28060" d="M242.419,352.714a12.765,12.765,0,0,1-1.561,2.658c-.715.755-3.449,2.1-3.463,4.345-.017,2.43,4.609,1.756,6.418,1.667s1.945-1.387,2.707-2.763,1.53-1.142,1.672-2.253a13.258,13.258,0,0,0-.583-3.594Z" transform="translate(-49.958 -74.227)" fill="#131c24"/>
      <path id="Path_28061" data-name="Path 28061" d="M243.624,351.738l-.133,1.152a10.048,10.048,0,0,0,5.535.1l-.15-1.575Z" transform="translate(-51.241 -73.953)" fill="#4f4946"/>
      <path id="Path_28062" data-name="Path 28062" d="M284.456,352.714a12.788,12.788,0,0,0,1.56,2.658c.715.755,3.45,2.1,3.464,4.345.017,2.43-4.609,1.756-6.418,1.667s-1.946-1.387-2.707-2.763-1.53-1.142-1.673-2.253a13.282,13.282,0,0,1,.583-3.594Z" transform="translate(-58.643 -74.227)" fill="#131c24"/>
      <path id="Path_28063" data-name="Path 28063" d="M284.659,351.738l.133,1.152a10.049,10.049,0,0,1-5.535.1l.15-1.575Z" transform="translate(-58.768 -73.953)" fill="#4f4946"/>
      <path id="Path_28064" data-name="Path 28064" d="M275.223,300.567c0,3,2.8,30.351,2.8,30.351-.321,1-7.188.877-8.259.378s-4.185-27.609-4.383-30.63-4.669-29.3-5.607-29.2-5.39,28.257-6.14,30.555-4.151,29.532-4.151,29.532c-2.356,1.3-7.958-.327-7.958-.327s1.175-27.962,1.309-28.807c.2-1.25-.009-4.617.535-12.09.488-6.685,2.249-21.24,3.366-29.123q.06-.42.114-.808c.219-1.534.384-2.661.462-3.2.034-.234.053-.358.053-.358q.451-.193.944-.358c7.845-2.628,22.778-2.46,22.778-2.46s.205,2.683.223,2.814c.02.158.051.407.092.728.088.695.218,1.731.367,2.932,0,.009,0,.017,0,.025l.014.11c.527,4.275,1.274,10.534,1.2,11.185-.107,1,2.238,25.753,2.238,28.749" transform="translate(-50.827 -53.458)" fill="#293e4f"/>
      <path id="Path_28065" data-name="Path 28065" d="M277.343,199.251l-3.854,13.828c-.133.448-.29,1-.457,1.641l-.007.025a.12.12,0,0,0,0,.017,54.382,54.382,0,0,0-1.676,10.4c-.16,2.846.367,14.285.367,14.285a38.432,38.432,0,0,1-14.559,1.626s-9.387-.22-8.621-5.975c2.024-15.233.043-21.514-.221-23.043,0,0-1.109-7.018-2.021-13.217,2.642-.984,13.76-5.157,13.76-5.157l5.845.437s8.882,2.187,11.448,5.138" transform="translate(-51.83 -40.758)" fill="#d9c7c1"/>
      <path id="Path_28066" data-name="Path 28066" d="M265.586,168.9s5.705.962,4.737,9.895-6,8.144-6.341,8.132-5.065.108-5.315-10.813c0,0-.072-8.075,6.919-7.213" transform="translate(-54.435 -35.531)" fill="#eea987"/>
      <path id="Path_28067" data-name="Path 28067" d="M268.6,188.195s-.2,3.676.151,4.476-4.581,3.332-7.644.448a31.636,31.636,0,0,0,.427-5.437c-.192-1.42,7.066.512,7.066.512" transform="translate(-54.948 -39.387)" fill="#eea987"/>
      <path id="Path_28068" data-name="Path 28068" d="M273.478,178.176s.633-.662.855.017-1.011,3.69-.934,3.827c0,0-.117.261-.265.115a32.643,32.643,0,0,1,.344-3.96" transform="translate(-57.473 -37.435)" fill="#eea987"/>
      <path id="Path_28069" data-name="Path 28069" d="M258.511,177.865s-.606-.687-.855-.018.663,3.676.776,3.863c0,0,.2.308.351.168a33.067,33.067,0,0,0-.272-4.013" transform="translate(-54.213 -37.365)" fill="#eea987"/>
      <path id="Path_28070" data-name="Path 28070" d="M270.7,175.106c-.2,1.222-.381,2.13-.381,2.13l-.831,1.085a21.991,21.991,0,0,0-.078-2.774c-.048-.143-.105-.4-.163-.67-.1-.452-.193-.962-.26-1.132-.107-.271-4.89-1.668-9.15.294,0,0,.036.369.033.78,0,.478-.054,1.015-.273,1.1-.408.149-.238,2.807-.238,2.807l-.664-.767s-.192-1.388-.381-2.983l0-.012c-.043-.372-.087-.755-.129-1.134-.095-1.6.064-4.518,2.153-6.23,1.41-.6,5.262-1.211,7.414.032a16.449,16.449,0,0,1,1.393.948c2.337,2.572,1.556,6.53,1.556,6.53" transform="translate(-54.329 -35.124)" fill="#e8734d"/>
      <path id="Path_28071" data-name="Path 28071" d="M262.142,190.237a3.632,3.632,0,0,0,3.026,1.217,4.118,4.118,0,0,0,3.034-1.15,3.694,3.694,0,0,1-3.045,2.073,3.734,3.734,0,0,1-3.016-2.139" transform="translate(-55.166 -40.034)" fill="#c78d71"/>
      <path id="Path_28072" data-name="Path 28072" d="M260.369,194.516a6.214,6.214,0,0,0,4.43,2.913c1.84.159,3.419-2.179,4.166-3.324a11.124,11.124,0,0,0-8.6.411" transform="translate(-54.793 -40.707)" fill="#eea987"/>
      <path id="Path_28073" data-name="Path 28073" d="M269.631,193.224a15.83,15.83,0,0,1-3.651,3.163l1.545,2.381,2.635-4.72Z" transform="translate(-55.974 -40.663)" fill="#eddad3"/>
      <path id="Path_28074" data-name="Path 28074" d="M261.009,193.675a10.6,10.6,0,0,0,3.733,2.807l-1.7,2.453-2.947-4.189Z" transform="translate(-54.736 -40.758)" fill="#eddad3"/>
      <path id="Path_28075" data-name="Path 28075" d="M265.618,197.231l1.324,2.015a2.756,2.756,0,0,1-2.684-.05Z" transform="translate(-55.612 -41.506)" fill="#5073ab"/>
      <path id="Path_28076" data-name="Path 28076" d="M248.723,254.271s7.158,2.641,23.348.154l-.215-2.931s-9.385,2.767-22.847.4Z" transform="translate(-52.342 -52.925)" fill="#1a2833"/>
      <path id="Path_28077" data-name="Path 28077" d="M270.883,194.268a178.85,178.85,0,0,0-1.444,23.308c.229,10.786,3.731,31.011,3.731,31.011s6.244-.612,7.794-2.562c0,0-3.583-19.466-3.481-22.352s4.592-24.581,4.592-24.581-1.755-2.34-11.192-4.824" transform="translate(-56.697 -40.883)" fill="#385369"/>
      <path id="Path_28078" data-name="Path 28078" d="M256.835,195.1s-.016,11.868-.245,22.653-1.649,30.865-1.649,30.865-7.325-1.043-8.875-2.994c0,0,2.582-18.888,2.48-21.773s-3.311-24.369-3.311-24.369,1.109-1.583,11.6-4.382" transform="translate(-51.609 -41.057)" fill="#385369"/>
      <rect id="Rectangle_6914" data-name="Rectangle 6914" width="4.399" height="3.27" transform="translate(206.144 199.47)" fill="#3e5e78"/>
      <path id="Path_28079" data-name="Path 28079" d="M264.612,199.138s-1.964,6.7-2.137,20.022.242,17.136.242,17.136l1.533,3.035,2.044-3.167s-.655-30.643-.276-36.793Z" transform="translate(-55.228 -41.907)" fill="#5073ab"/>
      <path id="Path_28080" data-name="Path 28080" d="M275.58,222.16s2.908-1.463,3.311-1.72a38.56,38.56,0,0,1,5.872-.958c.612.021.639.508.466.681s-5.027.97-5.111,1.086.411.073.411.073,5.232-.08,5.6.271-.054.681-.265.77c0,0,.476.547-.074.772a8.259,8.259,0,0,1-1.295.37s.692.356.237.673-6,2.035-6,2.035-2.062-3.941-3.149-4.053" transform="translate(-57.994 -46.189)" fill="#eea886"/>
      <path id="Path_28081" data-name="Path 28081" d="M281.694,227.5c-3.779.9-12.514-.563-15.841-1.3-.706-.156-1.5-.318-2.321-.478h0c-1.361-.268-2.782-.528-3.935-.733h0c-1.42-.253-2.435-.424-2.435-.424s18.331-4.118,19.008-4.118-1.693-10.716-1.693-10.716-2.361-8.974-1.135-12.5c0,0,4.651,1.41,6.156,2.486.839.6,1.458,4.492,2.029,7.139.726,3.354,2.41,10.993,2.6,12.605.175,1.47,1.347,7.135-2.433,8.038" transform="translate(-54.118 -41.506)" fill="#385369"/>
      <path id="Path_28082" data-name="Path 28082" d="M249.928,197.286s-5.63,1.923-5.9,2.654a68.875,68.875,0,0,0-2.036,7.829c-.449,1.656-1.467,6.607-1.731,8.222-.333,2.06-.975,9.355-.7,10.48.352,1.42,3.7,1.317,5.506,1.035s26.884-6.385,26.884-6.385-1.43-4.665-1.5-5.078c0,0-19.333,2.21-21.8,2.735a15.8,15.8,0,0,0-1.71.415s4.263-17.5,2.981-21.907" transform="translate(-50.401 -41.518)" fill="#385369"/>
      <path id="Path_28083" data-name="Path 28083" d="M254.157,222.51s-2.524-2.055-2.862-2.393a38.374,38.374,0,0,0-5.528-2.2.507.507,0,0,0-.659.606c.081.419,4.757,1.987,4.815,2.119s-.417-.017-.417-.017-5.093-1.2-5.525-.941-.094.676.094.808c0,0-.583.433-.094.771a8.15,8.15,0,0,0,1.184.639s-.752.2-.375.607a12.742,12.742,0,0,0,3.055,1.021s5.227-1.147,6.312-1.021" transform="translate(-51.3 -45.856)" fill="#eea886"/>
      <path id="Path_28084" data-name="Path 28084" d="M272.684,228.592l-8.5,3.731h0c-1.361-.268-2.782-.528-3.936-.733Z" transform="translate(-54.767 -48.106)" fill="#263947"/>
      <path id="Path_28085" data-name="Path 28085" d="M270.808,168.768s1.416-.713,2.181.221.848,6.018-.087,7.97.149-6.928-2.094-8.191" transform="translate(-56.99 -35.461)" fill="#e8734d"/>
      <rect id="Rectangle_6915" data-name="Rectangle 6915" width="2.531" height="115.074" transform="translate(157.403 183.702)" fill="#706865"/>
      <path id="Path_28086" data-name="Path 28086" d="M186.893,315.932h-68.1a7.6,7.6,0,0,1-7.6-7.6V179.375a7.6,7.6,0,0,1,7.6-7.6h68.1a7.6,7.6,0,0,1,7.6,7.6V308.333a7.6,7.6,0,0,1-7.6,7.6" transform="translate(-23.399 -36.149)" fill="#bdafaa"/>
      <path id="Path_28087" data-name="Path 28087" d="M185.307,310.918H121.593a7.509,7.509,0,0,1-7.509-7.508V182.224a7.508,7.508,0,0,1,7.509-7.507h63.714a7.507,7.507,0,0,1,7.508,7.507V303.41a7.508,7.508,0,0,1-7.508,7.508" transform="translate(-24.008 -36.768)" fill="#fff"/>
      <rect id="Rectangle_6916" data-name="Rectangle 6916" width="24.823" height="5.606" transform="translate(117.03 134.534)" fill="#706865"/>
      <path id="Path_28088" data-name="Path 28088" d="M179.2,328.732H128.8a7.412,7.412,0,0,1-7.4-7.4V292.642a7.413,7.413,0,0,1,7.4-7.4H179.2a7.412,7.412,0,0,1,7.4,7.4v28.688a7.411,7.411,0,0,1-7.4,7.4M128.8,286.192a6.457,6.457,0,0,0-6.449,6.45v28.688a6.456,6.456,0,0,0,6.449,6.449H179.2a6.457,6.457,0,0,0,6.45-6.449V292.642a6.458,6.458,0,0,0-6.45-6.45Z" transform="translate(-25.548 -60.027)" fill="#b5deff"/>
      <path id="Path_28089" data-name="Path 28089" d="M137.334,252.44a.02.02,0,0,0-.012,0c.049.021.056.023.012,0" transform="translate(-28.899 -53.124)" fill="#323657"/>
      <path id="Path_28090" data-name="Path 28090" d="M190.577,244.138a8.213,8.213,0,1,1,8.212-8.213,8.222,8.222,0,0,1-8.212,8.213m0-15.471a7.258,7.258,0,1,0,7.258,7.258,7.266,7.266,0,0,0-7.258-7.258" transform="translate(-38.378 -47.921)" fill="#b5deff"/>
      <path id="Path_28091" data-name="Path 28091" d="M190.577,268.1a8.213,8.213,0,1,1,8.212-8.212,8.222,8.222,0,0,1-8.212,8.212m0-15.471a7.258,7.258,0,1,0,7.258,7.258,7.266,7.266,0,0,0-7.258-7.258" transform="translate(-38.378 -52.964)" fill="#b5deff"/>
      <path id="Path_28092" data-name="Path 28092" d="M140.216,227.237c-.677,0-1.364-.033-2.039-.1a21.263,21.263,0,0,1-13.058-6.189c-.138-.14-.268-.276-.388-.4a20.716,20.716,0,0,1-1.349-1.578,21.067,21.067,0,0,1-4.44-13.006,21.3,21.3,0,0,1,21.274-21.274v.954a20.343,20.343,0,0,0-20.319,20.32,20.116,20.116,0,0,0,4.24,12.422,19.708,19.708,0,0,0,1.29,1.509c.114.123.238.253.369.384a20.316,20.316,0,0,0,10.357,5.6,19.915,19.915,0,0,0,2.114.315c.647.061,1.3.092,1.949.092.236,0,.454,0,.667-.011.617-.02,1.231-.067,1.828-.141a20.3,20.3,0,0,0,9.241-3.577c.288-.2.569-.416.837-.628.232-.182.471-.379.714-.589a20.557,20.557,0,0,0,2.271-2.3,20.368,20.368,0,0,0,4.544-16.053l.944-.138a21.516,21.516,0,0,1,.227,3.12,21.3,21.3,0,0,1-4.985,13.685,21.545,21.545,0,0,1-2.377,2.41c-.253.219-.5.426-.748.617-.279.22-.573.441-.874.655a21.258,21.258,0,0,1-9.677,3.746c-.625.077-1.269.127-1.914.148-.223.008-.452.012-.7.012" transform="translate(-25.031 -38.867)" fill="#b5deff"/>
      <path id="Path_28093" data-name="Path 28093" d="M156.341,219.786a1.8,1.8,0,0,0-.208-.232.346.346,0,0,0-.108-.088l-.02-.013,0,0c-3.965-2.193-11.122-3.98-11.122-3.98a12.26,12.26,0,0,1-.161-3.122,8.864,8.864,0,0,0,1.792-4.312c.12.089.212-.115.212-.115-.066-.118,1-2.731.812-3.321a.309.309,0,0,0-.5-.2q.038-.226.079-.475s.424-4.006-1.6-6.237a2.233,2.233,0,0,0-.956-.252c-3.256-1-5.21-.552-6.433-.028-1.813,1.485-1.951,4.013-1.868,5.405.036.33.073.662.111.985l0,.01c.015.126.03.252.045.375a.309.309,0,0,0-.513.176c-.217.581.575,3.19.674,3.351,0,0,.17.268.3.147h0a9.559,9.559,0,0,0,1.758,4.572c-.071,1.286-.3,2.895-.365,3.32v0c-1.662.524-10,2.742-12.523,4.4a2.4,2.4,0,0,0-.7,1.079,20.19,20.19,0,0,0,1.32,1.545c.124.132.25.263.378.392a20.712,20.712,0,0,0,12.764,6.05q.984.094,1.994.095c.229,0,.456,0,.683-.011.631-.02,1.256-.069,1.87-.144a20.684,20.684,0,0,0,9.459-3.662q.436-.31.857-.642c.247-.194.491-.4.73-.6a20.98,20.98,0,0,0,2.324-2.355,10.146,10.146,0,0,0-1.081-2.114" transform="translate(-26.315 -41.426)" fill="#b5deff"/>
      <rect id="Rectangle_6917" data-name="Rectangle 6917" width="24.641" height="1.462" transform="translate(353.12 224.755)" fill="#e2d2ca"/>
      <rect id="Rectangle_6918" data-name="Rectangle 6918" width="2.159" height="66.524" transform="translate(372.3 230.023)" fill="#706865"/>
      <rect id="Rectangle_6919" data-name="Rectangle 6919" width="17.128" height="2.089" transform="translate(339.848 224.339)" fill="#ccbdb7"/>
      <rect id="Rectangle_6920" data-name="Rectangle 6920" width="6.486" height="19.699" transform="translate(345.169 206.517)" fill="#4667a8"/>
      <rect id="Rectangle_6921" data-name="Rectangle 6921" width="94.901" height="3.782" transform="translate(291.7 226.242)" fill="#b59074"/>
      <path id="Path_28094" data-name="Path 28094" d="M509.917,255.854s1.038,14.555-1.806,16.3c-1.782,1.09-8.886,4.772-8.674,5.462s4.011,6.141,4.011,6.141,13.644-8.985,14.084-11.817c.43-2.767-.671-21.312-2.546-22.167-1.4-.64-2.147-.111-3.917,1.2-2.485,1.844-1.151,4.879-1.151,4.879" transform="translate(-105.103 -52.506)" fill="#323657"/>
      <path id="Path_28095" data-name="Path 28095" d="M480.895,261.776l-1.2-.445s1.5-3.521,2.154-3.435a16.269,16.269,0,0,1,1.7.347Z" transform="translate(-100.948 -54.272)" fill="#ead8cf"/>
      <path id="Path_28096" data-name="Path 28096" d="M480.868,262.321c.153-.115,2.556-4.723,2.556-4.723l5.134.7-2.774,5.46Z" transform="translate(-101.196 -54.21)" fill="#da9b5b"/>
      <path id="Path_28097" data-name="Path 28097" d="M491.449,363.983s.425,2.945.478,3.388,4.72-.261,4.72-.261l.377-3.506s-4.992-.036-5.575.379" transform="translate(-103.423 -76.518)" fill="#424773"/>
      <path id="Path_28098" data-name="Path 28098" d="M489.832,367.847a12.6,12.6,0,0,1-2.91,2.549c-1.429.773-3.677,1.079-4.522,1.88-.61.578-2.224,3.067,3.716,3.016s8.8.351,9.44-.6-.921-7.041-.921-7.041a12.575,12.575,0,0,1-4.8.2" transform="translate(-101.378 -77.369)" fill="#292c47"/>
      <path id="Path_28099" data-name="Path 28099" d="M453.578,364.019s.424,2.945.478,3.387,4.72-.26,4.72-.26l.378-3.506s-4.992-.036-5.576.379" transform="translate(-95.453 -76.526)" fill="#424773"/>
      <path id="Path_28100" data-name="Path 28100" d="M451.23,367.883a12.606,12.606,0,0,1-2.91,2.548c-1.43.774-6.693,1.409-7.539,2.209-.61.579-1.626,2.9,6.732,2.688,5.938-.155,8.8.351,9.441-.6s-.921-7.043-.921-7.043-1.325.542-4.8.2" transform="translate(-92.677 -77.377)" fill="#292c47"/>
      <path id="Path_28101" data-name="Path 28101" d="M497.534,299.649s-16.968,2.872-20.8,3.474-24.612,5.772-27.211,7.347c-2.069,1.255,1.085,31.375,1.822,42.868h8.185l.594-34.473c9.822.246,16.83-2.3,23.982-1.211s13.115,2.63,17.659-3.466c0,0,.169-13.207-4.23-14.539" transform="translate(-94.454 -63.059)" fill="#292c47"/>
      <path id="Path_28102" data-name="Path 28102" d="M488.656,354.343l7.977-.493.777-34.007a48.424,48.424,0,0,0,9.1-.578L512.95,304.3c-5.645,1.128-23.727,5.689-26.138,7.151-2.069,1.255,1.108,31.4,1.845,42.9" transform="translate(-102.302 -64.038)" fill="#292c47"/>
      <path id="Path_28103" data-name="Path 28103" d="M497.988,219.015s-6.22-1.719-8.593,3.109-1.3,13.983,1.837,14.844,7.643-.13,8.944-3.136,2.339-7.275,2.028-10.04-2.565-4.116-4.217-4.778" transform="translate(-102.719 -46.028)" fill="#eea886"/>
      <path id="Path_28104" data-name="Path 28104" d="M494.032,239.485s.069,3.672-.336,4.455,8.661.587,8.661.587a18.406,18.406,0,0,1-.619-8.167c.8-3.719-7.706,3.125-7.706,3.125" transform="translate(-103.893 -49.508)" fill="#eea886"/>
      <path id="Path_28105" data-name="Path 28105" d="M501,231.326s-.484.985-2.831.826-5.442-2.99-6.438-3.244-1.056-.82-1.056-.82l-.527.938-1.021.155s.693-2.838-.818-3.836.681-9.046,8.332-7.105c0,0,5.84,1.069,5.919,4.331s-.428,7.028-1.561,8.755" transform="translate(-102.668 -45.864)" fill="#3a3f47"/>
      <path id="Path_28106" data-name="Path 28106" d="M493.094,245.492s.025-1.5.7-1.639,7.127-1.03,7.96-.7l.357,1.975s-1.6.987-9.02.368" transform="translate(-103.769 -51.154)" fill="#e2d2ca"/>
      <path id="Path_28107" data-name="Path 28107" d="M490.709,229.505c.174-1.226,1.568-2.635,2.366-.725s-.539,4.69-1.434,4.542-1.169-2.154-.932-3.817" transform="translate(-103.25 -47.949)" fill="#eea886"/>
      <path id="Path_28108" data-name="Path 28108" d="M458.877,268.52a.013.013,0,0,1,.011,0c-.047.021-.054.021-.011,0" transform="translate(-96.562 -56.508)" fill="#323657"/>
      <path id="Path_28109" data-name="Path 28109" d="M502.919,220.2s7.585-.356,1.324,11.483Z" transform="translate(-105.836 -46.34)" fill="#3a3f47"/>
      <path id="Path_28110" data-name="Path 28110" d="M517.818,370.39l-.565,1.588-23.837-7.386,1.142-3.213Z" transform="translate(-103.836 -76.05)" fill="#918783"/>
      <rect id="Rectangle_6922" data-name="Rectangle 6922" width="2.71" height="25.916" transform="translate(388.761 261.494)" fill="#918783"/>
      <rect id="Rectangle_6923" data-name="Rectangle 6923" width="15.98" height="1.527" transform="translate(382.126 260.117)" fill="#5e5854"/>
      <path id="Path_28111" data-name="Path 28111" d="M463.605,370.336l.564,1.588,23.838-7.386-1.048-3.416Z" transform="translate(-97.563 -75.996)" fill="#918783"/>
      <path id="Path_28112" data-name="Path 28112" d="M484.876,371.753V373.6l7.607-9.062-1.048-3.416Z" transform="translate(-102.039 -75.996)" fill="#918783"/>
      <path id="Path_28113" data-name="Path 28113" d="M460.784,374.994a2.227,2.227,0,1,0,2.227-2.227,2.228,2.228,0,0,0-2.227,2.227" transform="translate(-96.969 -78.447)" fill="#bfb2ac"/>
      <path id="Path_28114" data-name="Path 28114" d="M484.637,374.994a2.228,2.228,0,1,0,2.227-2.227,2.228,2.228,0,0,0-2.227,2.227" transform="translate(-101.989 -78.447)" fill="#bfb2ac"/>
      <path id="Path_28115" data-name="Path 28115" d="M521.5,374.994a2.228,2.228,0,1,0,2.228-2.227,2.228,2.228,0,0,0-2.228,2.227" transform="translate(-109.747 -78.447)" fill="#bfb2ac"/>
      <path id="Path_28116" data-name="Path 28116" d="M472.845,327.906h32.147a2.856,2.856,0,0,0,2.856-2.856v-.074a2.856,2.856,0,0,0-2.856-2.855H472.845a2.855,2.855,0,0,0-2.856,2.855v.074a2.856,2.856,0,0,0,2.856,2.856" transform="translate(-98.906 -67.788)" fill="#e2d2ca"/>
      <rect id="Rectangle_6924" data-name="Rectangle 6924" width="2.159" height="66.524" transform="translate(303.842 230.023)" fill="#706865"/>
      <path id="Path_28117" data-name="Path 28117" d="M408.658,263.049h50.31a2.847,2.847,0,0,0,2.847-2.848V226.387a2.847,2.847,0,0,0-2.847-2.848h-50.31a2.848,2.848,0,0,0-2.849,2.848V260.2a2.848,2.848,0,0,0,2.849,2.848" transform="translate(-85.4 -47.042)" fill="#5f8be3"/>
      <rect id="Rectangle_6925" data-name="Rectangle 6925" width="51.621" height="31.183" transform="translate(322.601 178.632)" fill="#f5f7ff"/>
      <rect id="Rectangle_6926" data-name="Rectangle 6926" width="51.621" height="2.481" transform="translate(322.601 178.632)" fill="#cecfd6"/>
      <path id="Path_28118" data-name="Path 28118" d="M412.767,256.665h2.7a1.763,1.763,0,0,0,1.763-1.763V233.514a1.764,1.764,0,0,0-1.763-1.764h-2.7A1.763,1.763,0,0,0,411,233.514V254.9a1.763,1.763,0,0,0,1.763,1.763" transform="translate(-86.493 -48.77)" fill="#cecfd6"/>
      <path id="Path_28119" data-name="Path 28119" d="M458.69,234.059h9.449a.952.952,0,0,0,.952-.951v-.4a.952.952,0,0,0-.952-.952H458.69a.952.952,0,0,0-.952.952v.4a.952.952,0,0,0,.952.951" transform="translate(-96.328 -48.771)" fill="#cecfd6"/>
      <path id="Path_28120" data-name="Path 28120" d="M459.7,258.329h7.42a1.967,1.967,0,0,0,1.967-1.967V238.6a1.968,1.968,0,0,0-1.967-1.967H459.7a1.967,1.967,0,0,0-1.966,1.967v17.763a1.966,1.966,0,0,0,1.966,1.967" transform="translate(-96.328 -49.798)" fill="#cecfd6"/>
      <path id="Path_28121" data-name="Path 28121" d="M438.988,269.045a1.807,1.807,0,1,0,1.806-1.807,1.806,1.806,0,0,0-1.806,1.807" transform="translate(-92.382 -56.239)" fill="#59524f"/>
      <path id="Path_28122" data-name="Path 28122" d="M426.591,285.254v-.7s.989-4.373,7.98-4.373,6.85,5.077,6.85,5.077Z" transform="translate(-89.774 -58.962)" fill="#314875"/>
      <path id="Path_28123" data-name="Path 28123" d="M442.136,280.279a6.882,6.882,0,0,1-2.076-.454c-.556-.336-3.885-2.575-4.668-2.216s-5.986,1.953-5.806,2.714.662.688,1.03.553a26.735,26.735,0,0,1,4.48-.8s-3.712,1.355-3.728,2.343.778,1.229,1.129,1.6.775,1.3,1.731,1.373,5.624-1.552,6.585-1.627a23.411,23.411,0,0,0,2.861-.1,26.564,26.564,0,0,0-1.539-3.4" transform="translate(-90.403 -58.413)" fill="#eea886"/>
      <path id="Path_28124" data-name="Path 28124" d="M472.715,248.111c4.843-.851,9.941-2.073,9.941-2.073l9.02-.368s8.278,1.822,11.538,3.295c.309.14.311,7.386,1.159,9.285l-2.7,5.7s-1.562,11.295-1.885,16.319c-.148,2.3.42,22.286.42,22.286s-.81.4-6.965,1.079-21.536-.245-21.633-.971,2.978-27.073,3.115-28.437c.209-2.094-.6-11.77-.6-11.77-1.16,1.559-4.117,8.594-7.2,11.941-1.814,1.968-10.79,3.176-12.481,3.232-3.683.123-10.4.857-10.6.5-.156-.216-.585-5.964-.164-6.1.369-.122,12.845-.841,16.041-2.537,1.17-.621,4.666-8.244,4.666-8.244s5.663-11.933,8.335-13.133" transform="translate(-93.331 -51.7)" fill="#323657"/>
      <path id="Path_28125" data-name="Path 28125" d="M501.556,307.352H516.7a5.483,5.483,0,0,0,5.483-5.483V276.676a5.483,5.483,0,0,0-5.483-5.483H501.556a5.483,5.483,0,0,0-5.483,5.483v25.193a5.482,5.482,0,0,0,5.483,5.483" transform="translate(-104.396 -57.071)" fill="#e2d2ca"/>
      <path id="Path_28126" data-name="Path 28126" d="M501.545,321.9a11.964,11.964,0,0,0,9.28-3.842c5.219-5.762,4.281-15.891,4.238-16.32a1.452,1.452,0,0,0-2.891.286c.011.116.842,9.3-3.506,14.09A9.057,9.057,0,0,1,501.545,319a1.452,1.452,0,1,0,0,2.9" transform="translate(-105.242 -63.224)" fill="#e2d2ca"/>
      <path id="Path_28127" data-name="Path 28127" d="M438.338,240.443a7.292,7.292,0,1,1-7.291-7.291,7.292,7.292,0,0,1,7.291,7.291" transform="translate(-89.177 -49.065)" fill="#eef0f7"/>
      <path id="Path_28128" data-name="Path 28128" d="M436.473,247.03l-.538,1.929a7.228,7.228,0,0,1-3.315,1.284c-.216.028-.435.044-.656.051-.079,0-.159,0-.239,0-.235,0-.469-.011-.7-.033a7.634,7.634,0,0,1-.759-.113,7.241,7.241,0,0,1-2.981-1.361c-.1-.637-.214-1.343-.311-2,.535-.2,2.242-.779,3.318-1.143l.045-.015.07-.024.183-.062.167-.057.432-.145h0l.021-.008h.013l1.447.109.242.018.076,0,.033.009c.087.022.341.088.677.191h0a7.086,7.086,0,0,1,2.772,1.364" transform="translate(-89.854 -51.629)" fill="#d9c7c1"/>
      <path id="Path_28129" data-name="Path 28129" d="M432.91,237.795s1.735.294,1.441,3.011-1.826,2.478-1.929,2.474-1.541.032-1.617-3.291c0,0-.022-2.455,2.1-2.194" transform="translate(-90.66 -50.038)" fill="#eea987"/>
      <path id="Path_28130" data-name="Path 28130" d="M433.826,243.666a6.293,6.293,0,0,0,.046,1.362c.106.243-1.394,1.014-2.326.137a9.528,9.528,0,0,0,.13-1.654c-.058-.432,2.15.156,2.15.156" transform="translate(-90.816 -51.212)" fill="#eea987"/>
      <path id="Path_28131" data-name="Path 28131" d="M435.311,240.617s.193-.2.26.006-.308,1.123-.283,1.164c0,0-.036.08-.081.035a10.018,10.018,0,0,1,.105-1.2" transform="translate(-91.585 -50.618)" fill="#eea987"/>
      <path id="Path_28132" data-name="Path 28132" d="M430.758,240.524s-.184-.21-.261-.006a3.482,3.482,0,0,0,.237,1.174s.059.095.106.052a9.958,9.958,0,0,0-.082-1.221" transform="translate(-90.593 -50.597)" fill="#eea987"/>
      <path id="Path_28133" data-name="Path 28133" d="M434.465,239.686c-.06.373-.117.648-.117.648l-.253.33a6.618,6.618,0,0,0-.023-.844c-.015-.044-.032-.12-.05-.2-.029-.137-.059-.292-.079-.345a3.72,3.72,0,0,0-2.784.09s.011.111.01.238c0,.145-.017.308-.083.333-.125.045-.073.853-.073.853l-.2-.233s-.058-.422-.116-.908v0c-.013-.113-.027-.23-.039-.345a2.272,2.272,0,0,1,.655-1.9,3.138,3.138,0,0,1,2.255.01.8.8,0,0,1,.336.088,3.225,3.225,0,0,1,.562,2.187" transform="translate(-90.628 -49.918)" fill="#e8734d"/>
      <path id="Path_28134" data-name="Path 28134" d="M431.862,244.287a1.111,1.111,0,0,0,.921.371,1.259,1.259,0,0,0,.923-.351,1.123,1.123,0,0,1-.926.631,1.137,1.137,0,0,1-.918-.651" transform="translate(-90.883 -51.409)" fill="#c78d71"/>
      <path id="Path_28135" data-name="Path 28135" d="M431.323,245.589a1.891,1.891,0,0,0,1.348.886c.56.049,1.045-.662,1.272-1.01a3.389,3.389,0,0,0-2.62.124" transform="translate(-90.769 -51.613)" fill="#eea987"/>
      <path id="Path_28136" data-name="Path 28136" d="M434.141,245.2a4.816,4.816,0,0,1-1.111.963l.471.724.8-1.431Z" transform="translate(-91.129 -51.6)" fill="#eddad3"/>
      <path id="Path_28137" data-name="Path 28137" d="M431.516,245.334a3.228,3.228,0,0,0,1.136.854l-.516.745-.9-1.305Z" transform="translate(-90.751 -51.629)" fill="#eddad3"/>
      <path id="Path_28138" data-name="Path 28138" d="M432.92,246.416l.4.612a.839.839,0,0,1-.816-.014Z" transform="translate(-91.019 -51.857)" fill="#5073ab"/>
      <path id="Path_28139" data-name="Path 28139" d="M438.444,246.956l-.012.04c-.043.157-.214.763-.435,1.567-.084.072-.169.143-.257.211s-.2.152-.3.225a7.252,7.252,0,0,1-3.316,1.284c.108-2.523.407-4.762.407-4.762q.355.094.673.185h0a15.45,15.45,0,0,1,3.108,1.173l.007,0c.084.047.122.073.122.073" transform="translate(-91.359 -51.668)" fill="#323657"/>
      <path id="Path_28140" data-name="Path 28140" d="M430.06,250.234a7.324,7.324,0,0,1-3.716-2.009q-.067-.067-.133-.137c-.128-.542-.212-.9-.218-.919h0a16.478,16.478,0,0,1,4.093-1.444v0c0,.073,0,2.12-.026,4.508" transform="translate(-89.648 -51.711)" fill="#323657"/>
      <path id="Path_28141" data-name="Path 28141" d="M433.066,247.218c-.029.665-.032,1.955-.022,3.426-.08,0-.159,0-.239,0-.236,0-.47-.011-.7-.033a22.491,22.491,0,0,1,.484-3.4c.036-.147.058-.22.058-.22l.428.071c0,.046-.006.1-.009.152" transform="translate(-90.934 -51.979)" fill="#5073ab"/>
      <path id="Path_28142" data-name="Path 28142" d="M439.776,248.119a7.323,7.323,0,0,1-.815.827q-.125.108-.256.211c0-.009.419-1.222.7-1.818.193.129.28.565.368.781" transform="translate(-92.323 -52.051)" fill="#323657"/>
      <path id="Path_28143" data-name="Path 28143" d="M426.278,248.61q-.067-.067-.133-.137-.245-.259-.463-.542a.841.841,0,0,1,.245-.378h0Z" transform="translate(-89.583 -52.096)" fill="#323657"/>
      <path id="Path_28144" data-name="Path 28144" d="M361.841,359.157A6.357,6.357,0,0,0,359.588,357c-1.3-.606-3.972,1.508-4.207,2.684l-3.1,4.516.587.4,1.652-2.411c-1.124,2.707-2.733,5.948-1.6,7.577,1.515,2.186,4.952,4.4,5.86,4.015s.726-6.742.726-6.742c-.98-5.613,2.333-7.883,2.333-7.883" transform="translate(-74.137 -75.106)" fill="#1d3b54"/>
      <path id="Path_28145" data-name="Path 28145" d="M362.665,359.186a34.966,34.966,0,0,0-1.708,3.853c-.579,1.684-.688,6.346-1.053,6.67s-3.245-1.129-3.63-2.873.783-5.228,1.9-7.06a11.386,11.386,0,0,1,2.242-2.748,2.893,2.893,0,0,1,2.253,2.159" transform="translate(-74.96 -75.134)" fill="#de9673"/>
      <path id="Path_28146" data-name="Path 28146" d="M374.162,308.008s-1.764,9.361-1.764,11.6a20.6,20.6,0,0,1-2.035,8.616c-1.424,2.714-7.675,21.251-8.218,23.41s-1.007,4.2-1.007,4.2-3.12-1.424-3.12-3.459,2.714-18.858,3.188-22.181,4.41-20.351,4.41-20.351Z" transform="translate(-75.343 -64.818)" fill="#de9673"/>
      <path id="Path_28147" data-name="Path 28147" d="M362.832,307.135s.61,7.8.542,9.835-1.018,6.648-1.018,7.87,0,26.52,1.012,29.572-2.843.952-2.843.952-6.715-16.64-6.715-23.582.813-10.4.339-14.811a53.822,53.822,0,0,0-2.585-10.214Z" transform="translate(-73.985 -64.555)" fill="#eea886"/>
      <path id="Path_28148" data-name="Path 28148" d="M351.69,259.68A24.267,24.267,0,0,0,347.13,270c-.95,5.9,1.124,17.03,1.862,20.251.647,2.825,1.885,11.868,1.953,12.817,0,0,12.138,1.375,21.362-1.542,0,0,.845-12.629,1.387-17.988s-2.106-23.455-2.106-23.455Z" transform="translate(-73 -54.648)" fill="#eb4747"/>
      <path id="Path_28149" data-name="Path 28149" d="M368.382,374.71c-4.348-3.8-3.184-7.7-3.184-7.7a6.443,6.443,0,0,0-3.149-.265c-1.413.352-2.169,3.719-1.6,4.793l.44,5.529.717-.058-.234-2.951c.839,2.849,1.637,6.425,3.564,6.988,2.587.757,6.7.31,7.174-.571s-3.723-5.771-3.723-5.771" transform="translate(-75.814 -77.157)" fill="#1d3b54"/>
      <path id="Path_28150" data-name="Path 28150" d="M372.425,207.3s-1.075,6.4-.147,8.554-4.937-2.515-4.937-2.515,2.435-7.055,5.084-6.039" transform="translate(-77.305 -43.605)" fill="#754836"/>
      <path id="Path_28151" data-name="Path 28151" d="M368.124,184.747s-9.416-2.155-10.589,7.906,3.063,11.325.2,18.143,7-2.221,7-2.221Z" transform="translate(-75.172 -38.838)" fill="#754836"/>
      <path id="Path_28152" data-name="Path 28152" d="M367.818,184.614a8.182,8.182,0,0,1,8.382,7.737,19.878,19.878,0,0,1-.7,3.063c-.456,1.343.645,5.373.323,5.561a8.8,8.8,0,0,1-1.639.4s-1.531,4.325-3.063,4.245a12.707,12.707,0,0,1-9.876-6.949c-2.58-5.507-3.188-13.862,6.572-14.059" transform="translate(-75.679 -38.851)" fill="#eea886"/>
      <path id="Path_28153" data-name="Path 28153" d="M336.648,284.271s.225-3.872,1.251-4.473.433.6.433.6-.576,2.809-.7,3.948a5.8,5.8,0,0,1-.98-.072" transform="translate(-70.846 -58.846)" fill="#1d3b54"/>
      <path id="Path_28154" data-name="Path 28154" d="M341.433,273.77a28.447,28.447,0,0,0,.812,3.409c.526,1.673,1.011,2.207.8,3.165-.159.724-.978,1.268-1.185,1.036s-.307-3.047-1.473-3.033.348,3.485-.346,3.23-3.365-1.719-3.2-3.137,1.236-2.444,1.168-4.562a4.561,4.561,0,0,1,.536-2.726Z" transform="translate(-70.885 -57.063)" fill="#eea886"/>
      <path id="Path_28155" data-name="Path 28155" d="M341.267,280.112s1.553.4,1.461,5.648l-1.758-.293a18.08,18.08,0,0,0-.493-4.485s.089-1.028.79-.871" transform="translate(-71.651 -58.944)" fill="#1d3b54"/>
      <path id="Path_28156" data-name="Path 28156" d="M345.994,287.736,332.3,283.852l.04,16.862,13.626,8.167Z" transform="translate(-69.931 -59.735)" fill="#eddad3"/>
      <path id="Path_28157" data-name="Path 28157" d="M345.621,308.881l-1.716.316-13.253-8.241.164-17.027,1.138-.077Z" transform="translate(-69.584 -59.735)" fill="#eddad3"/>
      <path id="Path_28158" data-name="Path 28158" d="M366.675,214.208s3.65,1.5,4.3,1.955,1.956,5.735,2.281,6.191,3.474,4.37,3.039,7.544a8.176,8.176,0,0,1-2.664,4.789c-.913.978-1.758,6.241-2.043,7.023s.624,11.048.624,11.048-10.71,4.167-20.29-2.936c0,0,1.913-6.874,1.913-8.112s-1.238-9.971-4.562-15.12.587-10.624,3.128-11.275,7.43-2.477,7.43-2.477Z" transform="translate(-73.233 -44.791)" fill="#eb4747"/>
      <path id="Path_28159" data-name="Path 28159" d="M352.745,214.988s-5.359-.33-8.048,2.8-2.542,6.843-3.226,8.456-2.249,8.553-2.591,9.678-.675,7.442-1.164,12.526-.39,14.576-.39,14.576l5.128-.93s.206-9.049.337-14.295,4.4-14.517,6.012-18.575,8.035-11.689,3.942-14.235" transform="translate(-70.987 -45.241)" fill="#eb4747"/>
      <path id="Path_28160" data-name="Path 28160" d="M375.832,216.674a4.424,4.424,0,0,1,3.481,2.5c1.124,2.347,1.555,4.3,1.848,4.884s4.36,8.312,4.6,10.024-.146,4.839-2.3,5.671-9.873.928-9.873.928,1.955-3.972.147-6.025c0,0,5.6-1.013,6.931-1.147,1.4-.141-6.616-15.07-4.84-16.83" transform="translate(-78.621 -45.598)" fill="#eb4747"/>
      <path id="Path_28161" data-name="Path 28161" d="M360.167,223.7l10.443,24.39,13.02-6.133L374,218.533Z" transform="translate(-75.795 -45.989)" fill="#1d3b54"/>
      <path id="Path_28162" data-name="Path 28162" d="M367.214,240.252s-1.413.376-1.862.441.106.894.656.919,1.206-1.36,1.206-1.36" transform="translate(-76.852 -50.56)" fill="#eea886"/>
      <path id="Path_28163" data-name="Path 28163" d="M368.164,247.022a3,3,0,0,0,.936-.186s.487-.321.848-.526a2.821,2.821,0,0,1,.285-.148,5.476,5.476,0,0,0,1.572-.766c.613-.477,2.61-2.38,2.61-2.38l-1.32-1.99-1.02-1.584s-4.291.118-4.915.5a1.767,1.767,0,0,0-.171.118,6.988,6.988,0,0,0-.948,1.08c-.088.083-.9.967-.849,1.322a1.172,1.172,0,0,0,.621.953,2.805,2.805,0,0,0,.675,1.383,1.738,1.738,0,0,0,.9,1.24s.237.887.771.989" transform="translate(-76.852 -50.389)" fill="#eea886"/>
      <path id="Path_28164" data-name="Path 28164" d="M373.78,236.811s6.358-1.136,8.113-1.323a21.863,21.863,0,0,0-.2-4.121,16.067,16.067,0,0,0-1.874-4.427l3.252,2.978s2.673,5.122,2.733,6.32a6.1,6.1,0,0,1-1.2,4.921c-1.582,1.874-9.049,1.016-9.049,1.016s.624-2.3-1.771-5.364" transform="translate(-78.66 -47.758)" fill="#eb4747"/>
      <path id="Path_28165" data-name="Path 28165" d="M369.381,208.572s-.206.606-.445,1.508c-.122.461-.254,1-.371,1.571a10.754,10.754,0,0,0-.16,4.692s-3.421,1.078-5.963-3.785c0,0,1.295-5.126-.111-8.3s7.051,4.309,7.051,4.309" transform="translate(-76.217 -42.821)" fill="#eea886"/>
      <path id="Path_28166" data-name="Path 28166" d="M376.065,192.07a21.707,21.707,0,0,1-7.9,2.991c-3.9.43-6.076,6.335-6.076,6.335s-6.139-9.558-1.2-15.433,16.226-1.326,15.17,6.107" transform="translate(-75.543 -38.57)" fill="#754836"/>
      <path id="Path_28167" data-name="Path 28167" d="M367.9,197.571a1.2,1.2,0,0,0-2.069-.913c-1.263.994.3,4.62,1.316,4.3s.752-2.607.752-3.386" transform="translate(-76.887 -41.304)" fill="#eea886"/>
      <path id="Path_28168" data-name="Path 28168" d="M369.626,214.191s1.609,4.751-2.154,4.725-5.4-2.984-6.478-5.609a13.689,13.689,0,0,1,2.542-.965c.807-.122,6.09,1.849,6.09,1.849" transform="translate(-75.969 -44.685)" fill="#eea886"/>
      <path id="Path_28169" data-name="Path 28169" d="M342.861,286.822l-1.765.228,0-.823Z" transform="translate(-71.782 -60.235)" fill="#1d3b54"/>
      <path id="Path_28170" data-name="Path 28170" d="M337.648,285.364l-.975.115s0-.294.005-.391.936.214.97.276" transform="translate(-70.851 -59.991)" fill="#1d3b54"/>
      <path id="Path_28171" data-name="Path 28171" d="M365.624,366.954a35.663,35.663,0,0,0,1.11,4.123c.617,1.7,3.5,5.435,3.419,5.924s-3.275,1.178-4.688.05-2.714-4.618-3.006-6.769a15.987,15.987,0,0,1-.137-3.54s1.942-1,3.3.212" transform="translate(-76.24 -77.097)" fill="#eea886"/>
      <path id="Path_28172" data-name="Path 28172" d="M369.787,209.753c-.122.461-.3,1.016-.445,1.565a16.3,16.3,0,0,1-4.57-4.564,19.262,19.262,0,0,0,5.015,3" transform="translate(-76.764 -43.51)" fill="#a77860"/>
      <path id="Path_28173" data-name="Path 28173" d="M188.342,94.788h36.414a5.373,5.373,0,0,1,5.373,5.373v14.72a5.373,5.373,0,0,1-5.373,5.372H188.342a5.373,5.373,0,0,1-5.373-5.372v-14.72a5.373,5.373,0,0,1,5.373-5.373" transform="translate(-38.505 -19.948)" fill="#dfe1e8"/>
      <path id="Path_28174" data-name="Path 28174" d="M152.234,256.737a.028.028,0,0,0-.012,0c.048.021.055.023.012,0" transform="translate(-32.034 -54.028)" fill="#323657"/>
      <path id="Path_28175" data-name="Path 28175" d="M123.357,250.37h34.837a1.757,1.757,0,0,0,1.757-1.757v-1.07a1.757,1.757,0,0,0-1.757-1.757H123.357a1.757,1.757,0,0,0-1.757,1.757v1.07a1.757,1.757,0,0,0,1.757,1.757" transform="translate(-25.59 -51.724)" fill="#b5deff"/>
      <path id="Path_28176" data-name="Path 28176" d="M123.357,260.84h34.837a1.757,1.757,0,0,0,1.757-1.757v-1.069a1.756,1.756,0,0,0-1.757-1.757H123.357a1.756,1.756,0,0,0-1.757,1.757v1.069a1.757,1.757,0,0,0,1.757,1.757" transform="translate(-25.59 -53.928)" fill="#b5deff"/>
      <path id="Path_28177" data-name="Path 28177" d="M123.357,271.309h34.837a1.757,1.757,0,0,0,1.757-1.757v-1.071a1.756,1.756,0,0,0-1.757-1.756H123.357a1.756,1.756,0,0,0-1.757,1.756v1.071a1.757,1.757,0,0,0,1.757,1.757" transform="translate(-25.59 -56.131)" fill="#b5deff"/>
      <path id="Path_28178" data-name="Path 28178" d="M194.946,214.806h-8.321a3.272,3.272,0,0,1-3.272-3.273V185.813a3.273,3.273,0,0,1,3.272-3.273h8.321a3.273,3.273,0,0,1,3.273,3.273v25.721a3.273,3.273,0,0,1-3.273,3.273" transform="translate(-38.586 -38.414)" fill="#b5deff"/>
      <path id="Path_28179" data-name="Path 28179" d="M83.313,296.373a4.962,4.962,0,0,1,.643,1.7,8.12,8.12,0,0,0,.785,2.007,19.092,19.092,0,0,1,.954,3.346,15.373,15.373,0,0,0-.45,2.239c.077.484.354,1.444-.081,1.508s-.929-.723-.929-.723a.638.638,0,0,1-.327.616,1.079,1.079,0,0,1-1.1.04s-.264.49-.6.557a1.349,1.349,0,0,1-1.089-.148,1.32,1.32,0,0,1-.827.265,1.083,1.083,0,0,1-.917-.57s-.818.166-1.055-.216a3.648,3.648,0,0,1-.295-1.134,13.2,13.2,0,0,1,1.037-5.719,5.067,5.067,0,0,0-.27-4.442Z" transform="translate(-16.415 -62.228)" fill="#eea886"/>
      <path id="Path_28180" data-name="Path 28180" d="M84.337,307.844s.073-2.8-.665-3.4-.821.415-.821.415.1-1-.706-1.135-.839,1.052-.839,1.052a.78.78,0,0,0-.979-.612c-.846.158-.644,1.142-.644,1.142s-.809-.965-1.334-.039a4.132,4.132,0,0,0-.032,3.412s.25.423,1.055.216a1.114,1.114,0,0,0,1.745.306s1.234.679,1.684-.41a1.021,1.021,0,0,0,1.536-.948" transform="translate(-16.403 -63.915)" fill="#db9c7c"/>
      <path id="Path_28181" data-name="Path 28181" d="M92.855,243.684s-4.8,15.988-6.418,21.886c-.508,1.849-1.738,19.512-1.955,20.223s-6.3,1.686-6.3,1.686.737-22.1.806-23.3S85.7,238.3,87.633,237.416c1.447-.659,2.212-.114,4.036,1.241,2.561,1.9,1.187,5.027,1.187,5.027" transform="translate(-16.453 -49.904)" fill="#323657"/>
      <rect id="Rectangle_6927" data-name="Rectangle 6927" width="13.123" height="0.975" transform="matrix(0.837, -0.548, 0.548, 0.837, 123.183, 171.384)" fill="#4da8f2"/>
      <path id="Path_28182" data-name="Path 28182" d="M169.929,212.3a2.868,2.868,0,0,1-.283.871s-.359.428-.6.748a2.927,2.927,0,0,0-.172.255,5.247,5.247,0,0,1-.907,1.409c-.523.531-2.56,2.218-2.56,2.218l-1.745-1.481-1.811-.812a34.067,34.067,0,0,1,1.445-4.96,1.424,1.424,0,0,1,.131-.15,6.578,6.578,0,0,1,1.135-.781c.088-.074,1.021-.745,1.353-.658a1.119,1.119,0,0,1,.837.7,2.684,2.684,0,0,1,1.241.8,1.665,1.665,0,0,1,1.079,1s.818.325.854.845" transform="translate(-34.061 -43.973)" fill="#efaa88"/>
      <path id="Path_28183" data-name="Path 28183" d="M90.306,383.581s-.437,3.035-.492,3.491-4.864-.269-4.864-.269l-.389-3.613s5.144-.037,5.746.391" transform="translate(-17.795 -80.64)" fill="#424773"/>
      <path id="Path_28184" data-name="Path 28184" d="M89.665,387.563a13,13,0,0,0,3,2.626c1.474.8,3.791,1.112,4.662,1.938.629.6,2.292,3.16-3.829,3.108s-9.073.362-9.729-.62.949-7.258.949-7.258a12.96,12.96,0,0,0,4.951.206" transform="translate(-17.595 -81.517)" fill="#292c47"/>
      <path id="Path_28185" data-name="Path 28185" d="M133.952,383.581s-.437,3.035-.492,3.491-4.864-.269-4.864-.269l-.389-3.613s5.145-.037,5.746.391" transform="translate(-26.98 -80.64)" fill="#424773"/>
      <path id="Path_28186" data-name="Path 28186" d="M133.311,387.563a12.991,12.991,0,0,0,3,2.626c1.473.8,6.9,1.452,7.769,2.277.629.6,1.675,2.993-6.938,2.769-6.119-.159-9.073.362-9.728-.62s.948-7.258.948-7.258,1.366.557,4.951.206" transform="translate(-26.78 -81.517)" fill="#292c47"/>
      <path id="Path_28187" data-name="Path 28187" d="M94.089,284.911s-4.519,7.18-4.182,13.67-1.638,13.577-2.317,20.357c-.756,7.558-3.854,25.452-3.967,29.5s.481,16.954.481,16.954l6.2.141s5.207-31.282,6.556-34.474,8.036-25.948,8.261-28.5-11.032-17.641-11.032-17.641" transform="translate(-17.595 -59.958)" fill="#292c47"/>
      <path id="Path_28188" data-name="Path 28188" d="M120.065,285.554s3.405,17.789,3.855,21.76.748,19.224.974,21.707,2.1,32.414,2.7,36.177h-7.926s-6.084-21.812-6.084-32.133-4.7-22.437-7.735-29.247-9.979-6.97-11.845-19.6c0,0,23.539-2.666,26.064,1.341" transform="translate(-19.782 -59.628)" fill="#292c47"/>
      <path id="Path_28189" data-name="Path 28189" d="M105.421,208.308s6.066-2.266,8.863,2.352,2.527,13.861-.53,15-7.651.542-9.216-2.347-2.978-7.067-2.91-9.858,2.2-4.34,3.794-5.146" transform="translate(-21.386 -43.72)" fill="#eea886"/>
      <path id="Path_28190" data-name="Path 28190" d="M113.555,229.163a5.247,5.247,0,0,0,.164,2.444c.418.806-7.858.827-7.858.827a54.619,54.619,0,0,0-1.945-8.1c-1.274-3.708,9.639,4.824,9.639,4.824" transform="translate(-21.847 -47.014)" fill="#eea886"/>
      <path id="Path_28191" data-name="Path 28191" d="M103.321,220.859s.571.943,2.9.578,5.176-3.468,6.15-3.81.983-.912.983-.912l.61.891,1.034.066s-.943-2.775.479-3.906-1.476-8.982-8.954-6.369c0,0-5.743,1.583-5.535,4.849s1.045,6.988,2.331,8.613" transform="translate(-21.252 -43.534)" fill="#d88a51"/>
      <path id="Path_28192" data-name="Path 28192" d="M114.506,233.067s-.026-1.541-.725-1.69-7.712-.822-8.569-.485v1.8s1.652,1.018,9.294.379" transform="translate(-22.141 -48.57)" fill="#e2d2ca"/>
      <path id="Path_28193" data-name="Path 28193" d="M115.876,217.519c-.13-.548-1.524-2.114-2.057-.437s.805,3.931,1.552,3.738.836-1.912.5-3.3" transform="translate(-23.927 -45.525)" fill="#eea886"/>
      <path id="Path_28194" data-name="Path 28194" d="M122.618,232.355c-4.808-.634-11.6-2.335-11.6-2.335l-9.295-.378s-8.531,1.878-11.89,3.4c-.319.144-.321,7.611-1.2,9.568l2.786,5.877s1.609,11.64,1.943,16.818c.154,2.376-3.319,22.284-3.319,22.284a64.176,64.176,0,0,0,10.064,1.795c6.343.7,22.194-.253,22.293-1s-3.069-27.9-3.21-29.305c-.216-2.158.744-13.625.744-13.625,1.465-1.136,14.324-7.105,17.832-10.216.94-.833,4.9-4.692,6.029-6.023,3.989-4.717,7.258-8.763,7.656-9.635.452-.5-4.334-3.1-4.768-3.244-.38-.127-5.772,6.86-7.847,9.108a58.13,58.13,0,0,1-4.773,3.8s-8.442,3.291-11.45,3.118" transform="translate(-18.653 -45.525)" fill="#323657"/>
      <path id="Path_28195" data-name="Path 28195" d="M103.31,209.146s-7.734.606-.238,12.192Z" transform="translate(-21.002 -44.014)" fill="#d88a51"/>
      <path id="Path_28196" data-name="Path 28196" d="M170.456,208.737l.635-.968-1.169.152Z" transform="translate(-35.759 -43.724)" fill="#dfe1e8"/>
    </g>
  </g>
</svg>
