<svg xmlns="http://www.w3.org/2000/svg" width="377.753" height="562.181" viewBox="0 0 377.753 562.181">
  <path id="Union" d="M55.687,34.163,41.2,9.932C39.657,19.347,38.292,31,37.437,44.1L22.95,19.866c-1.544,9.414-2.908,21.068-3.764,34.165L4.7,29.8C-3.65,80.7-6.759,196.913,47.576,254.509c67.919,72,140.786,101.715,111.95,213.638S265.042,515.791,323,562.181L308.059,537.19c12.39,2.926,23.8,7.539,33.194,15.059l-14.942-24.992c12.39,2.926,23.8,7.538,33.192,15.058l-14.942-24.992c12.39,2.926,23.8,7.538,33.192,15.058L59.451,0C57.908,9.414,56.543,21.066,55.687,34.163Z" transform="translate(377.753 562.181) rotate(180)" fill="#dcf1e3" opacity="0.4"/>
</svg>
