<svg xmlns="http://www.w3.org/2000/svg" width="770.249" height="424.16" viewBox="0 0 770.249 424.16">
  <path id="Union" d="M124.74,29.142C89.329,45.184,51.684,61.227,15.113,57.822L52.1,73.02C38.056,76.284,23.991,77.8,10.076,76.508l36.988,15.2C33.019,94.97,18.952,96.489,5.037,95.194l36.987,15.2C27.98,113.656,13.915,115.174,0,113.879L755.135,424.16c-4.146-7.951-9.527-17.236-16.039-27.346l21.077,8.66c-4.146-7.951-9.527-17.237-16.039-27.346l21.078,8.661c-4.146-7.951-9.527-17.238-16.04-27.347l21.078,8.661C742.966,315.785,662.216,205.66,557.472,183.714,426.54,156.282,320.566,171.14,272.725,49.986,258.006,12.71,237.493,0,213.219,0,187.22,0,156.905,14.57,124.74,29.142Z" transform="translate(770.249 424.16) rotate(180)" fill="#dcf1e3" opacity="0.4"/>
</svg>
