<svg xmlns="http://www.w3.org/2000/svg" xmlns:xlink="http://www.w3.org/1999/xlink" width="50" height="50.157" viewBox="0 0 50 50.157">
  <defs>
    <clipPath id="clip-path">
      <rect id="Rectangle_712" data-name="Rectangle 712" width="50" height="50.157" fill="none"/>
    </clipPath>
    <clipPath id="clip-path-3">
      <path id="Path_13281" data-name="Path 13281" d="M950.727,146.471l.014.015c-.011-.007-.017-.013-.014-.015m1.719-.46a2.712,2.712,0,1,1,1.124.268,2.471,2.471,0,0,1-1.124-.268m.472-6.71v.066a4.185,4.185,0,0,0-.6.224q-.013-.028-.03-.057a.7.7,0,0,0-1.02-.193.827.827,0,0,0-.25,1.084c.011.018.023.035.035.052a4.567,4.567,0,0,0-.435.5.564.564,0,0,0-.053-.031.793.793,0,0,0-.716,1.409l.057.025a4.547,4.547,0,0,0-.151.649h-.062a.827.827,0,0,0-.727.842.7.7,0,0,0,.758.709.342.342,0,0,0,.063-.009,4.171,4.171,0,0,0,.176.62.659.659,0,0,0-.056.035.827.827,0,0,0-.251,1.084,1.042,1.042,0,0,0,1.215.3,3.753,3.753,0,0,0,.312.275c-.011.019-.023.038-.033.058a.732.732,0,1,0,1.3.661c.01-.02.019-.041.028-.061a3.7,3.7,0,0,0,.611.117v.065a.7.7,0,0,0,.758.709.827.827,0,0,0,.727-.842v-.066a4.172,4.172,0,0,0,.6-.224q.013.029.03.057a.7.7,0,0,0,1.02.193.827.827,0,0,0,.25-1.084c-.011-.018-.023-.035-.035-.052a4.552,4.552,0,0,0,.435-.505.477.477,0,0,0,.054.031.793.793,0,0,0,.716-1.409l-.057-.025a4.575,4.575,0,0,0,.151-.649h.062a.827.827,0,0,0,.727-.842.7.7,0,0,0-.758-.709.34.34,0,0,0-.063.009,4.171,4.171,0,0,0-.176-.62c.019-.011.038-.022.056-.035a.827.827,0,0,0,.25-1.084.7.7,0,0,0-1.02-.193l-.052.04a3.705,3.705,0,0,0-.455-.425c.011-.019.023-.038.033-.058.2-.389.456-.814.094-.991-.838-.409-1.2-.059-1.4.33-.01.02-.019.041-.027.061a3.71,3.71,0,0,0-.611-.117c0-.022,0-.043,0-.065-.009-.428.118-.66-.293-.668h-.057c-.853,0-1.143.382-1.134.8" transform="translate(-948.965 -138.5)" fill="none"/>
    </clipPath>
    <linearGradient id="linear-gradient" x1="-1.204" y1="3.866" x2="-1.202" y2="3.866" gradientUnits="objectBoundingBox">
      <stop offset="0" stop-color="#311944"/>
      <stop offset="0.1" stop-color="#311944"/>
      <stop offset="0.267" stop-color="#361b47"/>
      <stop offset="0.48" stop-color="#462050"/>
      <stop offset="0.718" stop-color="#602a5f"/>
      <stop offset="0.973" stop-color="#843773"/>
      <stop offset="1" stop-color="#893976"/>
    </linearGradient>
    <clipPath id="clip-path-4">
      <path id="Path_13282" data-name="Path 13282" d="M1162.823,184.83a2.809,2.809,0,0,1,.722,3.548,2.874,2.874,0,0,1-2.718,1.62c-.048.124-.094.248-.146.371-.139.333-.3.659-.454.984.1.019.2.033.3.044v.065c.009.428.269.792,1.012.753.411-.022.482-.457.473-.885v-.066a4.18,4.18,0,0,0,.6-.224.61.61,0,0,0,.03.056,1.069,1.069,0,0,0,1.3.257c.351-.246.182-.794-.03-1.147-.011-.018-.023-.035-.035-.052a4.515,4.515,0,0,0,.435-.505.582.582,0,0,0,.054.031.793.793,0,0,0,.716-1.409l-.057-.025a4.565,4.565,0,0,0,.151-.649h.062a.827.827,0,0,0,.727-.842.7.7,0,0,0-.758-.709.329.329,0,0,0-.063.009,4.233,4.233,0,0,0-.176-.62c.019-.011.038-.022.056-.035.351-.246.785-.84.537-1.169-.47-.624-.956-.354-1.307-.108l-.052.04a3.713,3.713,0,0,0-.455-.425c.012-.019.023-.038.033-.058a.817.817,0,0,0,.046-.644q-.508.9-1,1.8" transform="translate(-1160.227 -183.032)" fill="none"/>
    </clipPath>
    <linearGradient id="linear-gradient-2" x1="-1.728" y1="5.277" x2="-1.726" y2="5.277" xlink:href="#linear-gradient"/>
    <clipPath id="clip-path-5">
      <path id="Path_13283" data-name="Path 13283" d="M973.795,146.077a2.712,2.712,0,1,1,1.124.268,2.472,2.472,0,0,1-1.124-.268m1.2-7.551a.827.827,0,0,0-.727.842q0,.033,0,.066a4.179,4.179,0,0,0-.6.224q-.013-.028-.03-.057a.7.7,0,0,0-1.02-.193.827.827,0,0,0-.25,1.084c.011.018.023.035.035.052a4.561,4.561,0,0,0-.435.505.477.477,0,0,0-.054-.031.793.793,0,0,0-.716,1.409l.057.025a4.556,4.556,0,0,0-.151.649h-.062a.827.827,0,0,0-.727.842.7.7,0,0,0,.758.709.342.342,0,0,0,.063-.009,4.185,4.185,0,0,0,.175.62.641.641,0,0,0-.056.035.827.827,0,0,0-.25,1.084.7.7,0,0,0,1.02.193l.052-.04a3.7,3.7,0,0,0,.455.425.663.663,0,0,0-.033.058.732.732,0,1,0,1.3.661c.01-.02.019-.041.028-.061a3.7,3.7,0,0,0,.611.117c0,.022,0,.043,0,.065a.7.7,0,0,0,.758.709.827.827,0,0,0,.727-.842V147.6a4.176,4.176,0,0,0,.6-.224q.013.028.03.057a.7.7,0,0,0,1.02.193.827.827,0,0,0,.25-1.084c-.011-.018-.023-.035-.035-.052a4.551,4.551,0,0,0,.435-.5.475.475,0,0,0,.054.031.793.793,0,0,0,.715-1.409l-.057-.025a4.556,4.556,0,0,0,.151-.649h.062a.827.827,0,0,0,.727-.842.7.7,0,0,0-.758-.709.34.34,0,0,0-.063.009,4.194,4.194,0,0,0-.176-.62.658.658,0,0,0,.056-.035.827.827,0,0,0,.251-1.084.7.7,0,0,0-1.02-.193l-.052.04a3.707,3.707,0,0,0-.455-.425.658.658,0,0,0,.033-.058.732.732,0,1,0-1.3-.661c-.01.02-.019.041-.027.061a3.7,3.7,0,0,0-.611-.117v-.065a.7.7,0,0,0-.694-.712h-.064" transform="translate(-970.313 -138.523)" fill="none"/>
    </clipPath>
    <linearGradient id="linear-gradient-3" x1="-1.146" y1="3.673" x2="-1.145" y2="3.673" gradientUnits="objectBoundingBox">
      <stop offset="0" stop-color="#ff9085"/>
      <stop offset="1" stop-color="#fb6fbb"/>
    </linearGradient>
    <clipPath id="clip-path-6">
      <path id="Path_13284" data-name="Path 13284" d="M889.489,805.025s1.925,7.778,5.739,7.032l.506-1.023s-2.947-6.533-3.206-7.829-2.01-2.24-2.01-2.24Z" transform="translate(-889.489 -800.965)" fill="none"/>
    </clipPath>
    <linearGradient id="linear-gradient-4" x1="-0.937" y1="3.146" x2="-0.936" y2="3.146" gradientUnits="objectBoundingBox">
      <stop offset="0" stop-color="#ffc444"/>
      <stop offset="0.996" stop-color="#f36f56"/>
      <stop offset="1" stop-color="#f36f56"/>
    </linearGradient>
    <clipPath id="clip-path-7">
      <path id="Path_13285" data-name="Path 13285" d="M752.311,2663.088a5.591,5.591,0,0,0,2.532.376c.039-.167-.379-.471-.681-.592s-1.188-.446-1.188-.446l-.5-.192a6.564,6.564,0,0,0-.16.854" transform="translate(-752.311 -2662.234)" fill="none"/>
    </clipPath>
    <linearGradient id="linear-gradient-5" x1="-4.613" y1="1.047" x2="-4.607" y2="1.047" gradientUnits="objectBoundingBox">
      <stop offset="0" stop-color="#311944"/>
      <stop offset="1" stop-color="#893976"/>
    </linearGradient>
    <clipPath id="clip-path-8">
      <path id="Path_13286" data-name="Path 13286" d="M755.939,2626.067a.572.572,0,0,0,.551,0l.143-.783-.754-.087Z" transform="translate(-755.879 -2625.197)" fill="none"/>
    </clipPath>
    <linearGradient id="linear-gradient-6" x1="-12.324" y1="2.18" x2="-12.308" y2="2.18" xlink:href="#linear-gradient-4"/>
    <clipPath id="clip-path-9">
      <path id="Path_13287" data-name="Path 13287" d="M500.72,2700.125a5.7,5.7,0,0,0,2.261.423h.007c.157,0,.257-.014.264-.047.039-.167-.379-.472-.681-.592s-1.187-.446-1.187-.446l-.5-.192a6.571,6.571,0,0,0-.16.854" transform="translate(-500.72 -2699.272)" fill="none"/>
    </clipPath>
    <linearGradient id="linear-gradient-7" x1="-3.109" y1="0.794" x2="-3.103" y2="0.794" xlink:href="#linear-gradient-5"/>
    <clipPath id="clip-path-10">
      <path id="Path_13288" data-name="Path 13288" d="M504.353,2663.1a.573.573,0,0,0,.551,0l.143-.783-.754-.087Z" transform="translate(-504.293 -2662.234)" fill="none"/>
    </clipPath>
    <linearGradient id="linear-gradient-8" x1="-8.17" y1="1.643" x2="-8.154" y2="1.643" xlink:href="#linear-gradient-4"/>
    <clipPath id="clip-path-11">
      <path id="Path_13289" data-name="Path 13289" d="M671.873,1462.011c.347,3.333,1.433,4.153,1.269,6.887-.127,2.11-.817,2.348-.929,4.553a11.8,11.8,0,0,0,.9,5.05l1.174.148c.429-2.562.8-5.3,1.092-8.194.387-3.893.563-7.549.6-10.921l-.728-1.832-3.2-.594a17.635,17.635,0,0,0-.188,4.9" transform="translate(-671.782 -1457.108)" fill="none"/>
    </clipPath>
    <linearGradient id="linear-gradient-9" x1="-0.661" y1="1.104" x2="-0.66" y2="1.104" gradientUnits="objectBoundingBox">
      <stop offset="0" stop-color="#444b8c"/>
      <stop offset="0.996" stop-color="#26264f"/>
      <stop offset="1" stop-color="#26264f"/>
    </linearGradient>
    <clipPath id="clip-path-13">
      <rect id="Rectangle_667" data-name="Rectangle 667" width="2.903" height="21.541" fill="none"/>
    </clipPath>
    <clipPath id="clip-path-14">
      <path id="Path_13290" data-name="Path 13290" d="M672.061,1457.108l1.725.321a7.629,7.629,0,0,1,.788,4.636c-.354,1.163-1.07,1.487-1.128,2.678s.611,1.539.94,2.96a8.591,8.591,0,0,1-.235,3.571c-.627,3.447-1.551,4.442-.94,5.637a2.572,2.572,0,0,0,1.184,1.1c-.034.212-.068.424-.1.633l-1.174-.148a11.8,11.8,0,0,1-.9-5.05c.112-2.2.8-2.444.929-4.553.164-2.734-.923-3.554-1.269-6.887a17.636,17.636,0,0,1,.188-4.9" transform="translate(-671.782 -1457.108)" fill="none"/>
    </clipPath>
    <linearGradient id="linear-gradient-10" x1="-0.72" y1="1.117" x2="-0.719" y2="1.117" xlink:href="#linear-gradient-9"/>
    <clipPath id="clip-path-15">
      <path id="Path_13291" data-name="Path 13291" d="M422.2,1480.951c-.52.458-.581,1.31-.683,2.995-.108,1.8.1,2.327.115,4.686a23.768,23.768,0,0,1-.124,3.136,21.515,21.515,0,0,1-.679,3.336c-.364,1.464-.443,3.752.987,7.251l1.3.067c.38-3.551.929-7.365,1.707-11.394.645-3.337,1.38-6.474,2.161-9.4a8.562,8.562,0,0,0-3.469-1.1,1.934,1.934,0,0,0-1.314.422" transform="translate(-420.599 -1480.529)" fill="none"/>
    </clipPath>
    <linearGradient id="linear-gradient-11" x1="-0.236" y1="1.045" x2="-0.235" y2="1.045" xlink:href="#linear-gradient-9"/>
    <clipPath id="clip-path-16">
      <path id="Path_13292" data-name="Path 13292" d="M388.637,771.679c-.12.051-2.613,1.159-2.947,3.264-.34,2.142,1.984,2.62,2.067,5.52a23.146,23.146,0,0,1-.638,4.541c-.255,1.224-.388,1.531-.174,1.925.516.949,2.336.836,5.977.611,1.428-.089,2.049-.2,2.4-.687.468-.653,0-1.355-.012-2.664-.016-1.483.571-1.683,1.327-4.078a10.51,10.51,0,0,0,.7-4.98,4.53,4.53,0,0,0-1.533-3.215c-.6-.42-1.471-.453-3.181-.5-.706-.02-1.294-.036-1.8-.036a5.539,5.539,0,0,0-2.2.3" transform="translate(-385.656 -771.38)" fill="none"/>
    </clipPath>
    <linearGradient id="linear-gradient-12" x1="-0.142" y1="2.079" x2="-0.141" y2="2.079" xlink:href="#linear-gradient-4"/>
    <clipPath id="clip-path-17">
      <path id="Path_13293" data-name="Path 13293" d="M657.882,656.943c-.263.513-1.447.755-1.692.854s.4.5,1.074.623a8.264,8.264,0,0,0,2.988-.1c.369-.229-.261-.26-.73-.476s-.673-1.184-.553-1.606-.7-.639-.7-.639a4.818,4.818,0,0,1-.389,1.35" transform="translate(-656.138 -655.593)" fill="none"/>
    </clipPath>
    <linearGradient id="linear-gradient-13" x1="-2.599" y1="7.251" x2="-2.595" y2="7.251" gradientUnits="objectBoundingBox">
      <stop offset="0" stop-color="#311944"/>
      <stop offset="1" stop-color="#a03976"/>
    </linearGradient>
    <clipPath id="clip-path-18">
      <path id="Path_13294" data-name="Path 13294" d="M731.339,540.269c-.116.112.027.291-.066.517s-.276.213-.648.47c-.306.212-.5.343-.554.545a1,1,0,0,0,.8,1.09c.163.007.214-.073,1.071-.789.379-.317.431-.354.479-.47a1.154,1.154,0,0,0-.6-1.353.9.9,0,0,0-.3-.068.249.249,0,0,0-.178.058" transform="translate(-730.052 -540.211)" fill="none"/>
    </clipPath>
    <linearGradient id="linear-gradient-14" x1="-3.639" y1="11.633" x2="-3.634" y2="11.633" gradientUnits="objectBoundingBox">
      <stop offset="0" stop-color="#444b8c"/>
      <stop offset="0.996" stop-color="#3e4177"/>
      <stop offset="1" stop-color="#3e4177"/>
    </linearGradient>
    <clipPath id="clip-path-19">
      <path id="Path_13295" data-name="Path 13295" d="M757.253,626.676c-.1.04-.136.088-.308.151s-.206.044-.251.09-.089.188.046.521a.286.286,0,0,0-.314-.07.18.18,0,0,0-.063.075c-.06.141.079.3.367.373a1,1,0,0,0,.92.359c.52-.084.483-1.264.125-1.481a.541.541,0,0,0-.27-.062.714.714,0,0,0-.253.045" transform="translate(-756.349 -626.631)" fill="none"/>
    </clipPath>
    <linearGradient id="linear-gradient-15" x1="-5.601" y1="15.961" x2="-5.594" y2="15.961" xlink:href="#linear-gradient-13"/>
    <clipPath id="clip-path-20">
      <path id="Path_13296" data-name="Path 13296" d="M1740.811,662.926a2.819,2.819,0,0,0-1.666,2.63c-.043,1.211.68,1.907,1.183,2.8,1.781,3.175-.972,5.677.263,8.723.962,2.373,4.074,4.411,6.794,3.77,3.127-.737,4.608-4.75,4.252-7.671-.229-1.878-1.357-4.436-3.463-5.479-1.456-.721-2.942-.5-3.77-1.8-.462-.724-.234-1.162-.833-1.885a3.137,3.137,0,0,0-2.208-1.178,1.878,1.878,0,0,0-.553.082" transform="translate(-1739.143 -662.844)" fill="none"/>
    </clipPath>
    <linearGradient id="linear-gradient-16" x1="-1.187" y1="1.804" x2="-1.186" y2="1.804" gradientUnits="objectBoundingBox">
      <stop offset="0" stop-color="#26264f"/>
      <stop offset="0.004" stop-color="#26264f"/>
      <stop offset="1" stop-color="#444b8c"/>
    </linearGradient>
    <clipPath id="clip-path-21">
      <path id="Path_13297" data-name="Path 13297" d="M1645.437,2654.355a15.965,15.965,0,0,0-2.116,1.1c-.021.092.486.053,1.01.013.332-.025.672-.05.889-.042.56.022,1.021-.144.971-.381s-.247-.834-.247-.834Z" transform="translate(-1643.321 -2654.208)" fill="none"/>
    </clipPath>
    <linearGradient id="linear-gradient-17" x1="-9.777" y1="1.411" x2="-9.771" y2="1.411" xlink:href="#linear-gradient-16"/>
    <clipPath id="clip-path-22">
      <path id="Path_13298" data-name="Path 13298" d="M1755.976,2613.866l.127.937a.735.735,0,0,0,.551-.021l.094-1.028Z" transform="translate(-1755.976 -2613.754)" fill="none"/>
    </clipPath>
    <linearGradient id="linear-gradient-18" x1="-40.344" y1="2.405" x2="-40.321" y2="2.405" gradientUnits="objectBoundingBox">
      <stop offset="0" stop-color="#893976"/>
      <stop offset="1" stop-color="#311944"/>
    </linearGradient>
    <clipPath id="clip-path-23">
      <path id="Path_13299" data-name="Path 13299" d="M2034.67,2614.6a7.891,7.891,0,0,1-.312,1.122c-.137.286-.319.295-.623.461s-.206.35-.206.35,1.353.042,1.481-.166c.094-.153.344-.756.469-1.066a.464.464,0,0,0-.008-.367l-.19-.417Z" transform="translate(-2033.513 -2614.52)" fill="none"/>
    </clipPath>
    <linearGradient id="linear-gradient-19" x1="-16.964" y1="1.31" x2="-16.956" y2="1.31" xlink:href="#linear-gradient-16"/>
    <clipPath id="clip-path-24">
      <path id="Path_13300" data-name="Path 13300" d="M2083.923,2554.53h0l.045-.034-.044.034m-.549.135s.116.2.414-.032l.135-.1.118-1.286-1-.019a12.581,12.581,0,0,1,.337,1.439" transform="translate(-2083.037 -2553.225)" fill="none"/>
    </clipPath>
    <linearGradient id="linear-gradient-20" x1="-21.462" y1="3.116" x2="-21.451" y2="3.116" xlink:href="#linear-gradient-18"/>
    <clipPath id="clip-path-25">
      <path id="Path_13301" data-name="Path 13301" d="M1688.456,1509.552c-.11,2.8-.114,5.833.047,9.078.181,3.654.545,7.031,1,10.093.171.005.35.006.537,0q.19,0,.367-.018a23.246,23.246,0,0,0,.771-2.467,23.739,23.739,0,0,0,.538-2.888c.4-3.167-.069-3.443.256-5.789.288-2.078.7-2.159,1.179-5.11.522-3.2.133-3.682-.056-3.855a1.542,1.542,0,0,0-1.073-.346,7.622,7.622,0,0,0-3.571,1.3" transform="translate(-1688.377 -1508.25)" fill="none"/>
    </clipPath>
    <linearGradient id="linear-gradient-21" x1="-5.724" y1="1.116" x2="-5.72" y2="1.116" xlink:href="#linear-gradient-16"/>
    <clipPath id="clip-path-27">
      <rect id="Rectangle_681" data-name="Rectangle 681" width="4.691" height="20.477" fill="none"/>
    </clipPath>
    <clipPath id="clip-path-28">
      <path id="Path_13302" data-name="Path 13302" d="M1712,1508.619c-.767-.7-2.521-.278-4.374.8,2.132,2.3,2.364,3.8,2.108,4.766-.289,1.1-1.167,1.411-1.164,2.609,0,1.472,1.333,1.862,1.3,3.42-.019,1.03-.6,1.02-.74,2.292-.163,1.505.6,2.024.353,3.138a3.015,3.015,0,0,1-1.274,1.75c.063.457.126.91.193,1.354.171.005.35.006.537,0q.19,0,.367-.018a23.212,23.212,0,0,0,.771-2.467,23.759,23.759,0,0,0,.539-2.888c.4-3.167-.069-3.443.256-5.789.288-2.078.7-2.16,1.179-5.11.522-3.2.134-3.682-.056-3.855" transform="translate(-1707.621 -1508.273)" fill="none"/>
    </clipPath>
    <linearGradient id="linear-gradient-22" x1="-6.245" y1="1.114" x2="-6.241" y2="1.114" xlink:href="#linear-gradient-16"/>
    <clipPath id="clip-path-29">
      <path id="Path_13303" data-name="Path 13303" d="M1739.143,1464.572a62.775,62.775,0,0,1,6.147,19.379,1.12,1.12,0,0,0,.6.174,1.143,1.143,0,0,0,.739-.283,18.08,18.08,0,0,0,.736-4.4,15.373,15.373,0,0,0-.188-3.4c-.291-1.686-.624-1.823-1.056-3.623-.448-1.868-.225-2.291-.586-4.6a29.628,29.628,0,0,0-.945-4.095l-5.445.853" transform="translate(-1739.143 -1463.719)" fill="none"/>
    </clipPath>
    <linearGradient id="linear-gradient-23" x1="-1.173" y1="1.738" x2="-1.172" y2="1.738" xlink:href="#linear-gradient-16"/>
    <clipPath id="clip-path-30">
      <path id="Path_13304" data-name="Path 13304" d="M1005.508,1096.031c-.062,0-.1.019-.111.046-.033.066.22.191.7.443.782.41.843.458,1.04.478a5.067,5.067,0,0,0,.65,0,5.71,5.71,0,0,0-.64-1.043.55.55,0,0,0-.445-.17,10.738,10.738,0,0,0-1.2.246" transform="translate(-1005.394 -1095.785)" fill="none"/>
    </clipPath>
    <linearGradient id="linear-gradient-24" x1="-6.72" y1="15.99" x2="-6.713" y2="15.99" xlink:href="#linear-gradient-4"/>
    <clipPath id="clip-path-31">
      <path id="Path_13305" data-name="Path 13305" d="M1108.133,882.764c-1.63,1.313-1.465,2.289-3.119,3.287a3.479,3.479,0,0,1-2.978.618,2.734,2.734,0,0,1-1.377-1.377l-.506.674a5.348,5.348,0,0,0,1.686,2.781,5.566,5.566,0,0,0,3.652,1.264c3.115-.115,4.75-3.05,4.833-3.2.488-.985,2.252-4.655,1.314-5.388a.753.753,0,0,0-.473-.137,6.374,6.374,0,0,0-3.033,1.479" transform="translate(-1100.154 -881.285)" fill="none"/>
    </clipPath>
    <linearGradient id="linear-gradient-25" x1="-1.604" y1="3.885" x2="-1.602" y2="3.885" gradientUnits="objectBoundingBox">
      <stop offset="0" stop-color="#aa80f9"/>
      <stop offset="0.996" stop-color="#6165d7"/>
      <stop offset="1" stop-color="#6165d7"/>
    </linearGradient>
    <clipPath id="clip-path-33">
      <rect id="Rectangle_687" data-name="Rectangle 687" width="11.755" height="8.731" fill="none"/>
    </clipPath>
    <clipPath id="clip-path-34">
      <path id="Path_13306" data-name="Path 13306" d="M1100.66,885.293l-.506.674a5.348,5.348,0,0,0,1.686,2.781,5.566,5.566,0,0,0,3.652,1.264c3.115-.115,4.75-3.05,4.833-3.2.488-.985,2.252-4.655,1.314-5.388-.652-.51-2.473.51-3.506,1.343-1.63,1.312-1.465,2.288-3.119,3.287a3.479,3.479,0,0,1-2.978.618,2.736,2.736,0,0,1-1.377-1.377" transform="translate(-1100.154 -881.285)" fill="none"/>
    </clipPath>
    <linearGradient id="linear-gradient-26" x1="-1.604" y1="3.767" x2="-1.602" y2="3.767" xlink:href="#linear-gradient-25"/>
    <clipPath id="clip-path-35">
      <path id="Path_13307" data-name="Path 13307" d="M1543.2,869.844a3.742,3.742,0,0,0-2.7.843c-.336.337-.73.929-.9,4.186-.082,1.585-.007,1.8-.056,2.81-.161,3.335-1.2,5.637-.958,8.4a2.069,2.069,0,0,0,.7,1.6,1.8,1.8,0,0,0,1.292.141c1.874-.261,2.2-.811,3.09-.843,1.625-.058,1.755,1.729,3.568,1.911a2.955,2.955,0,0,0,1.756-.426,2.524,2.524,0,0,1,1.974-.362c.82.211,1.075.675,2.029.7.643.019,1.625-.159,1.742-.618.152-.6-1.351-.907-2.248-2.557-.488-.9-.242-1.172-.759-2.248a8.316,8.316,0,0,0-1.8-2.276,11.242,11.242,0,0,1-2.838-5.507c-.316-2.254.716-2.952-.05-4.166-.959-1.52-3.314-1.594-3.794-1.594h-.062" transform="translate(-1538.557 -869.843)" fill="none"/>
    </clipPath>
    <linearGradient id="linear-gradient-27" x1="-1.67" y1="1.799" x2="-1.669" y2="1.799" xlink:href="#linear-gradient-25"/>
    <clipPath id="clip-path-37">
      <rect id="Rectangle_691" data-name="Rectangle 691" width="16.206" height="18.731" fill="none"/>
    </clipPath>
    <clipPath id="clip-path-38">
      <path id="Path_13308" data-name="Path 13308" d="M1539.3,905.674a2.07,2.07,0,0,1-.705-1.6c-.245-2.766.8-5.068.958-8.4.049-1.009-.026-1.224.056-2.81.135-2.591.187-3.556.9-4.186.328-.291.955-.661,1.321-.45.676.391-.458,2.24.309,3.681.653,1.228,1.888.66,3.765,1.911,2.048,1.364,1.256,2.492,4.046,5.282a7.7,7.7,0,0,1,1.8,2.276c.517,1.075.27,1.349.759,2.248.9,1.649,2.4,1.96,2.247,2.557-.117.459-1.1.637-1.742.618-.954-.029-1.209-.493-2.029-.7-1.587-.408-2.114.95-3.731.788-1.813-.182-1.944-1.968-3.568-1.91-.891.032-1.216.582-3.09.843a1.8,1.8,0,0,1-1.292-.14" transform="translate(-1538.557 -888.164)" fill="none"/>
    </clipPath>
    <linearGradient id="linear-gradient-28" x1="-1.67" y1="1.798" x2="-1.669" y2="1.798" xlink:href="#linear-gradient-25"/>
    <clipPath id="clip-path-39">
      <rect id="Rectangle_693" data-name="Rectangle 693" width="16.135" height="15.547" fill="none"/>
    </clipPath>
    <clipPath id="clip-path-40">
      <path id="Path_13309" data-name="Path 13309" d="M1553.572,1078.879c-1.091-.332-1.28-1.269-2.557-1.517-1.206-.234-1.577.5-2.557.169-1.171-.394-.95-1.545-2.079-2.051-1.462-.656-2.872.808-3.737.084-.55-.46-.042-1.1-.646-2.163-.662-1.161-1.619-1-2.107-1.967-.466-.923.072-1.734.309-3.062a8.371,8.371,0,0,0-.478-4.38c-.043.428-.081.927-.112,1.514-.082,1.585-.007,1.8-.056,2.81-.161,3.335-1.2,5.637-.958,8.4a2.07,2.07,0,0,0,.7,1.6,1.8,1.8,0,0,0,1.292.14c1.874-.261,2.2-.811,3.09-.843,1.625-.058,1.755,1.729,3.568,1.911,1.617.162,2.143-1.2,3.731-.788.82.211,1.075.675,2.029.7.58.017,1.434-.126,1.682-.492a2.531,2.531,0,0,1-1.12-.07" transform="translate(-1538.557 -1063.991)" fill="none"/>
    </clipPath>
    <linearGradient id="linear-gradient-29" x1="-1.692" y1="1.968" x2="-1.691" y2="1.968" xlink:href="#linear-gradient-25"/>
    <clipPath id="clip-path-41">
      <path id="Path_13310" data-name="Path 13310" d="M1750.726,784.824l-.167.828a.673.673,0,0,1-.521.525l-.586.034a.068.068,0,0,0-.04.12l.689.578a.275.275,0,0,0,.243.056l1.792-.4a.071.071,0,0,0,.013-.134,3.986,3.986,0,0,1-.723-.39c-.309-.234-.234-1.482-.234-1.482Z" transform="translate(-1749.388 -784.554)" fill="none"/>
    </clipPath>
    <linearGradient id="linear-gradient-30" x1="-8.832" y1="9.915" x2="-8.827" y2="9.915" xlink:href="#linear-gradient-4"/>
    <clipPath id="clip-path-42">
      <path id="Path_13311" data-name="Path 13311" d="M1789.815,741c-.355.132-.622,1.289-.175,1.452a.733.733,0,0,0,.819-.255.379.379,0,0,0,.208-.1c.022-.022.118-.119.086-.19s-.125-.086-.238-.053a.7.7,0,0,0-.219-.783.659.659,0,0,0-.333-.089.437.437,0,0,0-.148.023" transform="translate(-1789.405 -740.974)" fill="none"/>
    </clipPath>
    <linearGradient id="linear-gradient-31" x1="-14.368" y1="16.526" x2="-14.36" y2="16.526" xlink:href="#linear-gradient-4"/>
    <clipPath id="clip-path-43">
      <path id="Path_13312" data-name="Path 13312" d="M984.361,714.5l.019.021c-.016-.01-.024-.017-.019-.021m2.4-.643a3.792,3.792,0,1,1,1.571.373,3.454,3.454,0,0,1-1.571-.374m.659-9.374a.47.47,0,0,0,.006.092,5.837,5.837,0,0,0-.844.313.846.846,0,0,0-.042-.079.978.978,0,0,0-1.425-.27,1.155,1.155,0,0,0-.35,1.514c.015.025.032.049.049.072a6.358,6.358,0,0,0-.608.706c-.024-.015-.049-.03-.075-.043a1.108,1.108,0,0,0-1,1.969c.026.013.052.024.079.035a6.352,6.352,0,0,0-.211.907h-.087a1.155,1.155,0,0,0-1.016,1.176.978.978,0,0,0,1.059.991.461.461,0,0,0,.089-.013,5.852,5.852,0,0,0,.245.867c-.026.015-.053.031-.078.049a1.155,1.155,0,0,0-.35,1.514,1.456,1.456,0,0,0,1.7.423,5.19,5.19,0,0,0,.436.385c-.016.026-.032.053-.046.081a1.023,1.023,0,1,0,1.818.923c.014-.028.027-.057.038-.085a5.188,5.188,0,0,0,.854.163v.091a.978.978,0,0,0,1.059.991,1.155,1.155,0,0,0,1.016-1.176.461.461,0,0,0-.006-.092,5.828,5.828,0,0,0,.844-.313c.013.027.027.053.042.079a.979.979,0,0,0,1.425.27,1.155,1.155,0,0,0,.35-1.514c-.015-.025-.032-.049-.049-.072a6.381,6.381,0,0,0,.608-.706c.024.015.049.03.075.043a1.108,1.108,0,0,0,1-1.969c-.026-.013-.053-.024-.079-.035a6.353,6.353,0,0,0,.211-.907h.087a1.155,1.155,0,0,0,1.016-1.176.978.978,0,0,0-1.059-.991.451.451,0,0,0-.089.013,5.854,5.854,0,0,0-.245-.867.91.91,0,0,0,.078-.049,1.155,1.155,0,0,0,.35-1.514.978.978,0,0,0-1.425-.27c-.025.018-.049.037-.072.056a5.183,5.183,0,0,0-.636-.593c.016-.027.032-.053.046-.081.276-.544.637-1.138.131-1.385-1.171-.571-1.673-.082-1.949.462-.014.028-.027.057-.038.085a5.182,5.182,0,0,0-.854-.163V704.3c-.012-.6.166-.922-.41-.933h-.08c-1.192,0-1.6.534-1.585,1.119" transform="translate(-981.899 -703.366)" fill="none"/>
    </clipPath>
    <linearGradient id="linear-gradient-32" x1="-0.858" y1="2.22" x2="-0.857" y2="2.22" xlink:href="#linear-gradient"/>
    <clipPath id="clip-path-44">
      <path id="Path_13313" data-name="Path 13313" d="M1280.68,768.092a3.924,3.924,0,0,1,1.008,4.957,4.015,4.015,0,0,1-3.8,2.263c-.067.173-.132.347-.2.518-.194.465-.414.92-.635,1.375q.208.039.418.061v.091c.012.6.375,1.107,1.414,1.052.574-.03.673-.638.661-1.237a.47.47,0,0,0-.006-.092,5.829,5.829,0,0,0,.844-.313c.013.027.027.053.042.079a1.493,1.493,0,0,0,1.817.359c.49-.343.255-1.109-.042-1.6-.015-.025-.032-.049-.049-.072a6.359,6.359,0,0,0,.608-.706c.024.015.049.03.075.043a1.108,1.108,0,0,0,1-1.969c-.026-.013-.052-.024-.079-.035a6.362,6.362,0,0,0,.211-.907h.087a1.156,1.156,0,0,0,1.016-1.176.978.978,0,0,0-1.059-.991.457.457,0,0,0-.089.013,5.836,5.836,0,0,0-.245-.867c.026-.015.053-.031.078-.049.49-.343,1.1-1.173.751-1.633-.656-.872-1.335-.495-1.826-.151-.025.018-.049.037-.072.056a5.192,5.192,0,0,0-.636-.593c.016-.026.032-.053.046-.081a1.141,1.141,0,0,0,.064-.9q-.71,1.25-1.4,2.511" transform="translate(-1277.053 -765.581)" fill="none"/>
    </clipPath>
    <linearGradient id="linear-gradient-33" x1="-1.312" y1="2.917" x2="-1.311" y2="2.917" xlink:href="#linear-gradient"/>
    <clipPath id="clip-path-45">
      <path id="Path_13314" data-name="Path 13314" d="M1016.587,713.952a3.792,3.792,0,1,1,1.571.373,3.455,3.455,0,0,1-1.571-.374m1.675-10.55a1.155,1.155,0,0,0-1.016,1.176.471.471,0,0,0,.006.092,5.835,5.835,0,0,0-.844.313c-.013-.027-.027-.053-.042-.079a.978.978,0,0,0-1.425-.27,1.155,1.155,0,0,0-.35,1.514c.015.025.032.049.049.072a6.364,6.364,0,0,0-.608.706c-.024-.015-.049-.03-.075-.043a1.108,1.108,0,0,0-1,1.969c.026.013.053.024.079.035a6.354,6.354,0,0,0-.211.907h-.087a1.155,1.155,0,0,0-1.016,1.176.978.978,0,0,0,1.059.991.461.461,0,0,0,.089-.013,5.834,5.834,0,0,0,.245.867c-.026.015-.053.031-.078.049a1.155,1.155,0,0,0-.35,1.514.978.978,0,0,0,1.425.27c.025-.018.049-.037.072-.056a5.179,5.179,0,0,0,.636.593.93.93,0,0,0-.046.082,1.023,1.023,0,1,0,1.818.923c.014-.028.027-.057.039-.085a5.169,5.169,0,0,0,.854.163c0,.03,0,.061,0,.091a.978.978,0,0,0,1.059.991,1.155,1.155,0,0,0,1.016-1.176.465.465,0,0,0-.006-.092,5.828,5.828,0,0,0,.844-.313c.013.027.027.053.042.079a.978.978,0,0,0,1.425.27,1.155,1.155,0,0,0,.35-1.514c-.015-.025-.032-.049-.049-.072a6.371,6.371,0,0,0,.608-.706c.024.015.049.03.075.043a1.108,1.108,0,0,0,1-1.969c-.026-.013-.053-.024-.079-.035a6.389,6.389,0,0,0,.211-.907h.087a1.155,1.155,0,0,0,1.016-1.176.978.978,0,0,0-1.059-.991.456.456,0,0,0-.089.013,5.838,5.838,0,0,0-.245-.867c.026-.015.052-.031.078-.049a1.156,1.156,0,0,0,.35-1.514.979.979,0,0,0-1.425-.27c-.025.018-.049.037-.072.056a5.179,5.179,0,0,0-.636-.593c.016-.026.032-.053.046-.081a1.023,1.023,0,1,0-1.818-.923c-.014.028-.027.057-.039.085a5.18,5.18,0,0,0-.854-.163v-.091a.981.981,0,0,0-.97-1h-.089" transform="translate(-1011.723 -703.398)" fill="none"/>
    </clipPath>
    <linearGradient id="linear-gradient-34" x1="-0.818" y1="2.12" x2="-0.817" y2="2.12" xlink:href="#linear-gradient-3"/>
    <clipPath id="clip-path-46">
      <path id="Path_13315" data-name="Path 13315" d="M1597.36,1042.867a.5.5,0,0,1,.326.644.6.6,0,0,0,.422.757l.208-.85a.343.343,0,0,0-.149-.36c-.3-.223-.378-.4-.558-.444a.519.519,0,0,0-.136-.019c-.232,0-.317.187-.113.272" transform="translate(-1597.245 -1042.595)" fill="none"/>
    </clipPath>
    <linearGradient id="linear-gradient-35" x1="-24.187" y1="18.687" x2="-24.171" y2="18.687" xlink:href="#linear-gradient-4"/>
    <clipPath id="clip-path-47">
      <path id="Path_13316" data-name="Path 13316" d="M1620.333,898.209c-.283.188-.06.8.056,1.864.156,1.435.262,2.7-.375,3.39-.619.673-2,.511-2.866.094a3.34,3.34,0,0,1-1.555-1.63l-.862.543a5.235,5.235,0,0,0,4.609,5.09,4.7,4.7,0,0,0,4.119-2.261,4.785,4.785,0,0,0-.2-5.3,6.421,6.421,0,0,0-1.425-1.182,3.323,3.323,0,0,0-1.316-.659.322.322,0,0,0-.183.05" transform="translate(-1614.732 -898.159)" fill="none"/>
    </clipPath>
    <linearGradient id="linear-gradient-36" x1="-2.013" y1="2.654" x2="-2.011" y2="2.654" xlink:href="#linear-gradient-25"/>
    <clipPath id="clip-path-48">
      <path id="Path_13317" data-name="Path 13317" d="M992.97,1039.721c-.4.758.829.864,1.268.806a1.236,1.236,0,0,1,.839.281,3.828,3.828,0,0,0-.506-1.087,1.384,1.384,0,0,0-.5-.053c-.474,0-1.1.053-1.1.053" transform="translate(-992.892 -1039.668)" fill="none"/>
    </clipPath>
    <linearGradient id="linear-gradient-37" x1="-8.022" y1="11.72" x2="-8.014" y2="11.72" xlink:href="#linear-gradient-13"/>
    <clipPath id="clip-path-49">
      <path id="Path_13318" data-name="Path 13318" d="M359.135,822.281c-2.339,1.321-3.2,8.125,1.046,9.089s8.743-4.839,8.743-4.839l.115-.771c-6.33,3.2-7.915,1.323-7.608-1.315.089-.767.064-2.538-1.149-2.538a2.416,2.416,0,0,0-1.147.374" transform="translate(-357.186 -821.907)" fill="none"/>
    </clipPath>
    <linearGradient id="linear-gradient-38" x1="-0.212" y1="2.443" x2="-0.211" y2="2.443" xlink:href="#linear-gradient-4"/>
    <clipPath id="clip-path-50">
      <path id="Path_13319" data-name="Path 13319" d="M176.417,520.142l3.8,1.139-1.043,3.97,2.055-1.2.486-.4.556-3.569-5.367-.339Z" transform="translate(-176.417 -519.743)" fill="none"/>
    </clipPath>
    <linearGradient id="linear-gradient-39" x1="-0.287" y1="5.469" x2="-0.284" y2="5.469" gradientUnits="objectBoundingBox">
      <stop offset="0" stop-color="#311944"/>
      <stop offset="1" stop-color="#6b3976"/>
    </linearGradient>
    <clipPath id="clip-path-51">
      <path id="Path_13320" data-name="Path 13320" d="M55.99,543.08a13.878,13.878,0,0,0-5.824,9.152c-1.359,7.662,3.495,15.13,10.819,16.648a13.006,13.006,0,0,0,13.77-5.992.883.883,0,0,0,.129-.566L69.8,565.6l0-.01a11.32,11.32,0,0,1-8.51,1.6,12.607,12.607,0,0,1-9.5-14.624,12.191,12.191,0,0,1,5.116-8.04.882.882,0,0,0,.231-1.19.823.823,0,0,0-.7-.394.781.781,0,0,0-.443.138" transform="translate(-49.938 -542.942)" fill="none"/>
    </clipPath>
    <linearGradient id="linear-gradient-40" x1="0.139" y1="1.266" x2="0.139" y2="1.266" xlink:href="#linear-gradient-39"/>
    <clipPath id="clip-path-52">
      <path id="Path_13321" data-name="Path 13321" d="M203.26,454.63l3.8,1.139-1.043,3.97,2.055-1.2,1.042-3.969-3.8-1.14Z" transform="translate(-203.26 -453.429)" fill="none"/>
    </clipPath>
    <linearGradient id="linear-gradient-41" x1="-0.309" y1="5.147" x2="-0.307" y2="5.147" gradientUnits="objectBoundingBox">
      <stop offset="0" stop-color="#6165d7"/>
      <stop offset="0.004" stop-color="#6165d7"/>
      <stop offset="1" stop-color="#aa80f9"/>
    </linearGradient>
    <clipPath id="clip-path-53">
      <path id="Path_13322" data-name="Path 13322" d="M82.832,521.031a13.878,13.878,0,0,0-5.824,9.153c-1.359,7.662,3.495,15.13,10.819,16.648a13.006,13.006,0,0,0,13.77-5.992.883.883,0,0,0,.129-.566l-5.085,3.274,0-.01a11.32,11.32,0,0,1-8.51,1.6,12.607,12.607,0,0,1-9.5-14.624,12.191,12.191,0,0,1,5.116-8.04.882.882,0,0,0,.231-1.191.823.823,0,0,0-.7-.394.783.783,0,0,0-.443.138" transform="translate(-76.78 -520.893)" fill="none"/>
    </clipPath>
    <linearGradient id="linear-gradient-42" x1="0.125" y1="1.277" x2="0.126" y2="1.277" xlink:href="#linear-gradient-41"/>
    <clipPath id="clip-path-54">
      <path id="Path_13323" data-name="Path 13323" d="M2121.025,1589.138l-.774.638-1.472,3.079,3.9,1.5,2.113-.749-3.569-1.37,1.666-3.49Z" transform="translate(-2118.779 -1588.743)" fill="none"/>
    </clipPath>
    <linearGradient id="linear-gradient-43" x1="-5.056" y1="3.084" x2="-5.053" y2="3.084" xlink:href="#linear-gradient-39"/>
    <clipPath id="clip-path-55">
      <path id="Path_13324" data-name="Path 13324" d="M1467.8,417.223a.832.832,0,0,0-.219.5l5.284-2.134v.01a10.665,10.665,0,0,1,8.159.016,11.879,11.879,0,0,1,6.218,15.211,11.486,11.486,0,0,1-6.153,6.539.831.831,0,0,0-.424,1.061.757.757,0,0,0,1.008.438,13.076,13.076,0,0,0,7-7.444c2.609-6.852-.566-14.62-7.078-17.316a12.283,12.283,0,0,0-2.466-.731,12.088,12.088,0,0,0-2.2-.2,12.488,12.488,0,0,0-9.137,4.05" transform="translate(-1467.577 -413.173)" fill="none"/>
    </clipPath>
    <linearGradient id="linear-gradient-44" x1="-0.759" y1="1.432" x2="-0.758" y2="1.432" xlink:href="#linear-gradient-39"/>
    <clipPath id="clip-path-56">
      <path id="Path_13325" data-name="Path 13325" d="M2152.58,1569.923l-1.664,3.489,3.314,1.725,2.114-.749-3.316-1.725,1.666-3.49Z" transform="translate(-2150.916 -1569.174)" fill="none"/>
    </clipPath>
    <linearGradient id="linear-gradient-45" x1="-5.45" y1="3.053" x2="-5.447" y2="3.053" xlink:href="#linear-gradient-3"/>
    <clipPath id="clip-path-57">
      <path id="Path_13326" data-name="Path 13326" d="M1481.8,397.654a.834.834,0,0,0-.219.5l5.284-2.134v.01a10.665,10.665,0,0,1,8.159.016,11.879,11.879,0,0,1,6.218,15.211,11.487,11.487,0,0,1-6.153,6.539.831.831,0,0,0-.424,1.061.757.757,0,0,0,1.008.438,13.075,13.075,0,0,0,7-7.444c2.609-6.852-.566-14.62-7.078-17.316a12.283,12.283,0,0,0-2.466-.731,12.088,12.088,0,0,0-2.2-.2,12.489,12.489,0,0,0-9.137,4.05" transform="translate(-1481.58 -393.604)" fill="none"/>
    </clipPath>
    <linearGradient id="linear-gradient-46" x1="-0.767" y1="1.443" x2="-0.766" y2="1.443" xlink:href="#linear-gradient-3"/>
  </defs>
  <g id="Group_1566" data-name="Group 1566" clip-path="url(#clip-path)">
    <g id="Group_1450" data-name="Group 1450">
      <g id="Group_1449" data-name="Group 1449" clip-path="url(#clip-path)">
        <path id="Path_13280" data-name="Path 13280" d="M37.981,2.993c1.679,2.4-.29,6.3,2.2,8.109,2.426,1.76,5.4-1.125,7.691.39,3.391,2.247,2.772,12.531-2.186,18.92-1.491,1.921-2.737,2.669-3.289,4.842C41.215,39.921,45.379,42.7,44.586,45,42.8,50.2,15.362,54.557,4.352,38.94A24.667,24.667,0,0,1,3.035,13.119C11.337-1.336,34.213-2.4,37.981,2.993" fill="#f4f7fa"/>
      </g>
    </g>
    <g id="Group_1452" data-name="Group 1452" transform="translate(17.184 2.508)">
      <g id="Group_1451" data-name="Group 1451" clip-path="url(#clip-path-3)">
        <rect id="Rectangle_657" data-name="Rectangle 657" width="12.892" height="12.674" transform="translate(-3.544 8.514) rotate(-67.449)" fill="url(#linear-gradient)"/>
      </g>
    </g>
    <g id="Group_1454" data-name="Group 1454" transform="translate(21.01 3.314)">
      <g id="Group_1453" data-name="Group 1453" clip-path="url(#clip-path-4)">
        <rect id="Rectangle_658" data-name="Rectangle 658" width="10.719" height="8.841" transform="translate(-3.266 7.865) rotate(-67.449)" fill="url(#linear-gradient-2)"/>
      </g>
    </g>
    <g id="Group_1456" data-name="Group 1456" transform="translate(17.571 2.508)">
      <g id="Group_1455" data-name="Group 1455" clip-path="url(#clip-path-5)">
        <rect id="Rectangle_659" data-name="Rectangle 659" width="13.58" height="13.438" transform="matrix(0.531, -0.848, 0.848, 0.531, -4.518, 7.202)" fill="url(#linear-gradient-3)"/>
      </g>
    </g>
    <g id="Group_1458" data-name="Group 1458" transform="translate(16.107 14.504)">
      <g id="Group_1457" data-name="Group 1457" clip-path="url(#clip-path-6)">
        <rect id="Rectangle_660" data-name="Rectangle 660" width="13.38" height="11.238" transform="matrix(0.489, -0.872, 0.872, 0.489, -5.051, 9.005)" fill="url(#linear-gradient-4)"/>
      </g>
    </g>
    <g id="Group_1460" data-name="Group 1460" transform="translate(13.623 48.209)">
      <g id="Group_1459" data-name="Group 1459" clip-path="url(#clip-path-7)">
        <rect id="Rectangle_661" data-name="Rectangle 661" width="2.915" height="2.283" transform="translate(-0.503 0.208) rotate(-22.714)" fill="url(#linear-gradient-5)"/>
      </g>
    </g>
    <g id="Group_1462" data-name="Group 1462" transform="translate(13.688 47.539)">
      <g id="Group_1461" data-name="Group 1461" clip-path="url(#clip-path-8)">
        <rect id="Rectangle_662" data-name="Rectangle 662" width="1.097" height="1.249" transform="translate(-0.37 0.155) rotate(-22.714)" fill="url(#linear-gradient-6)"/>
      </g>
    </g>
    <g id="Group_1464" data-name="Group 1464" transform="translate(9.067 48.88)">
      <g id="Group_1463" data-name="Group 1463" clip-path="url(#clip-path-9)">
        <rect id="Rectangle_663" data-name="Rectangle 663" width="2.868" height="2.172" transform="translate(-0.459 0.19) rotate(-22.714)" fill="url(#linear-gradient-7)"/>
      </g>
    </g>
    <g id="Group_1466" data-name="Group 1466" transform="translate(9.132 48.209)">
      <g id="Group_1465" data-name="Group 1465" clip-path="url(#clip-path-10)">
        <rect id="Rectangle_664" data-name="Rectangle 664" width="1.097" height="1.249" transform="translate(-0.37 0.155) rotate(-22.717)" fill="url(#linear-gradient-8)"/>
      </g>
    </g>
    <g id="Group_1468" data-name="Group 1468" transform="translate(12.165 26.386)">
      <g id="Group_1467" data-name="Group 1467" clip-path="url(#clip-path-11)">
        <rect id="Rectangle_665" data-name="Rectangle 665" width="12.256" height="21.519" transform="translate(-7.74 3.212) rotate(-22.714)" fill="url(#linear-gradient-9)"/>
      </g>
    </g>
    <g id="Group_1475" data-name="Group 1475">
      <g id="Group_1474" data-name="Group 1474" clip-path="url(#clip-path)">
        <g id="Group_1473" data-name="Group 1473" transform="translate(12.165 26.386)" opacity="0.3" style="mix-blend-mode: multiply;isolation: isolate">
          <g id="Group_1472" data-name="Group 1472">
            <g id="Group_1471" data-name="Group 1471" clip-path="url(#clip-path-13)">
              <g id="Group_1470" data-name="Group 1470">
                <g id="Group_1469" data-name="Group 1469" clip-path="url(#clip-path-14)">
                  <rect id="Rectangle_666" data-name="Rectangle 666" width="11.186" height="21.071" transform="translate(-7.74 3.212) rotate(-22.714)" fill="url(#linear-gradient-10)"/>
                </g>
              </g>
            </g>
          </g>
        </g>
      </g>
    </g>
    <g id="Group_1477" data-name="Group 1477" transform="translate(7.616 26.81)">
      <g id="Group_1476" data-name="Group 1476" clip-path="url(#clip-path-15)">
        <rect id="Rectangle_669" data-name="Rectangle 669" width="14.538" height="22.743" transform="translate(-8.016 3.264) rotate(-22.714)" fill="url(#linear-gradient-11)"/>
      </g>
    </g>
    <g id="Group_1479" data-name="Group 1479" transform="translate(6.984 13.969)">
      <g id="Group_1478" data-name="Group 1478" clip-path="url(#clip-path-16)">
        <rect id="Rectangle_670" data-name="Rectangle 670" width="19.958" height="17.691" transform="translate(-6.183 14.038) rotate(-67.286)" fill="url(#linear-gradient-12)"/>
      </g>
    </g>
    <g id="Group_1481" data-name="Group 1481" transform="translate(11.882 11.872)">
      <g id="Group_1480" data-name="Group 1480" clip-path="url(#clip-path-17)">
        <rect id="Rectangle_671" data-name="Rectangle 671" width="4.527" height="5.452" transform="translate(-1.243 2.511) rotate(-67.286)" fill="url(#linear-gradient-13)"/>
      </g>
    </g>
    <g id="Group_1483" data-name="Group 1483" transform="translate(13.22 9.782)">
      <g id="Group_1482" data-name="Group 1482" clip-path="url(#clip-path-18)">
        <rect id="Rectangle_672" data-name="Rectangle 672" width="3.491" height="3.506" transform="translate(-1.057 0.401) rotate(-22.714)" fill="url(#linear-gradient-14)"/>
      </g>
    </g>
    <g id="Group_1485" data-name="Group 1485" transform="translate(13.696 11.347)">
      <g id="Group_1484" data-name="Group 1484" clip-path="url(#clip-path-19)">
        <rect id="Rectangle_673" data-name="Rectangle 673" width="2.39" height="2.457" transform="translate(-0.795 1.149) rotate(-56.914)" fill="url(#linear-gradient-15)"/>
      </g>
    </g>
    <g id="Group_1487" data-name="Group 1487" transform="translate(31.494 12.003)">
      <g id="Group_1486" data-name="Group 1486" clip-path="url(#clip-path-20)">
        <rect id="Rectangle_674" data-name="Rectangle 674" width="22.462" height="22.102" transform="matrix(0.675, -0.738, 0.738, 0.675, -9.33, 10.149)" fill="url(#linear-gradient-16)"/>
      </g>
    </g>
    <g id="Group_1489" data-name="Group 1489" transform="translate(29.758 48.064)">
      <g id="Group_1488" data-name="Group 1488" clip-path="url(#clip-path-21)">
        <rect id="Rectangle_675" data-name="Rectangle 675" width="3.037" height="1.563" transform="translate(-0.125 0.008) rotate(-4.493)" fill="url(#linear-gradient-17)"/>
      </g>
    </g>
    <g id="Group_1491" data-name="Group 1491" transform="translate(31.798 47.332)">
      <g id="Group_1490" data-name="Group 1490" clip-path="url(#clip-path-22)">
        <rect id="Rectangle_676" data-name="Rectangle 676" width="0.788" height="1.177" transform="translate(-0.016) rotate(-0.79)" fill="url(#linear-gradient-18)"/>
      </g>
    </g>
    <g id="Group_1493" data-name="Group 1493" transform="translate(36.824 47.345)">
      <g id="Group_1492" data-name="Group 1492" clip-path="url(#clip-path-23)">
        <rect id="Rectangle_677" data-name="Rectangle 677" width="2.164" height="2.2" transform="translate(-0.188 2.053) rotate(-87.078)" fill="url(#linear-gradient-19)"/>
      </g>
    </g>
    <g id="Group_1495" data-name="Group 1495" transform="translate(37.721 46.235)">
      <g id="Group_1494" data-name="Group 1494" clip-path="url(#clip-path-24)">
        <rect id="Rectangle_678" data-name="Rectangle 678" width="1.74" height="1.186" transform="translate(-0.188 1.613) rotate(-83.337)" fill="url(#linear-gradient-20)"/>
      </g>
    </g>
    <g id="Group_1497" data-name="Group 1497" transform="translate(30.574 27.312)">
      <g id="Group_1496" data-name="Group 1496" clip-path="url(#clip-path-25)">
        <rect id="Rectangle_679" data-name="Rectangle 679" width="5.335" height="20.479" transform="translate(-0.035)" fill="url(#linear-gradient-21)"/>
      </g>
    </g>
    <g id="Group_1504" data-name="Group 1504">
      <g id="Group_1503" data-name="Group 1503" clip-path="url(#clip-path)">
        <g id="Group_1502" data-name="Group 1502" transform="translate(30.923 27.313)" opacity="0.3" style="mix-blend-mode: multiply;isolation: isolate">
          <g id="Group_1501" data-name="Group 1501">
            <g id="Group_1500" data-name="Group 1500" clip-path="url(#clip-path-27)">
              <g id="Group_1499" data-name="Group 1499">
                <g id="Group_1498" data-name="Group 1498" clip-path="url(#clip-path-28)">
                  <rect id="Rectangle_680" data-name="Rectangle 680" width="4.952" height="20.838" transform="translate(0 -0.359)" fill="url(#linear-gradient-22)"/>
                </g>
              </g>
            </g>
          </g>
        </g>
      </g>
    </g>
    <g id="Group_1506" data-name="Group 1506" transform="translate(31.494 26.506)">
      <g id="Group_1505" data-name="Group 1505" clip-path="url(#clip-path-29)">
        <rect id="Rectangle_683" data-name="Rectangle 683" width="21.308" height="10.864" transform="matrix(0.13, -0.992, 0.992, 0.13, -2.62, 20.064)" fill="url(#linear-gradient-23)"/>
      </g>
    </g>
    <g id="Group_1508" data-name="Group 1508" transform="translate(18.206 19.843)">
      <g id="Group_1507" data-name="Group 1507" clip-path="url(#clip-path-30)">
        <rect id="Rectangle_684" data-name="Rectangle 684" width="2.685" height="1.917" transform="matrix(0.953, -0.304, 0.304, 0.953, -0.389, 0.114)" fill="url(#linear-gradient-24)"/>
      </g>
    </g>
    <g id="Group_1510" data-name="Group 1510" transform="translate(19.922 15.959)">
      <g id="Group_1509" data-name="Group 1509" clip-path="url(#clip-path-31)">
        <rect id="Rectangle_685" data-name="Rectangle 685" width="12.423" height="8.804" fill="url(#linear-gradient-25)"/>
      </g>
    </g>
    <g id="Group_1517" data-name="Group 1517">
      <g id="Group_1516" data-name="Group 1516" clip-path="url(#clip-path)">
        <g id="Group_1515" data-name="Group 1515" transform="translate(19.922 15.959)" opacity="0.33" style="mix-blend-mode: multiply;isolation: isolate">
          <g id="Group_1514" data-name="Group 1514">
            <g id="Group_1513" data-name="Group 1513" clip-path="url(#clip-path-33)">
              <g id="Group_1512" data-name="Group 1512">
                <g id="Group_1511" data-name="Group 1511" clip-path="url(#clip-path-34)">
                  <rect id="Rectangle_686" data-name="Rectangle 686" width="12.423" height="9.177" transform="translate(0 -0.373)" fill="url(#linear-gradient-26)"/>
                </g>
              </g>
            </g>
          </g>
        </g>
      </g>
    </g>
    <g id="Group_1519" data-name="Group 1519" transform="translate(27.861 15.752)">
      <g id="Group_1518" data-name="Group 1518" clip-path="url(#clip-path-35)">
        <rect id="Rectangle_689" data-name="Rectangle 689" width="16.555" height="19.124" transform="translate(-0.208)" fill="url(#linear-gradient-27)"/>
      </g>
    </g>
    <g id="Group_1531" data-name="Group 1531">
      <g id="Group_1530" data-name="Group 1530" clip-path="url(#clip-path)">
        <g id="Group_1524" data-name="Group 1524" transform="translate(27.861 16.083)" opacity="0.3" style="mix-blend-mode: multiply;isolation: isolate">
          <g id="Group_1523" data-name="Group 1523">
            <g id="Group_1522" data-name="Group 1522" clip-path="url(#clip-path-37)">
              <g id="Group_1521" data-name="Group 1521">
                <g id="Group_1520" data-name="Group 1520" clip-path="url(#clip-path-38)">
                  <rect id="Rectangle_690" data-name="Rectangle 690" width="16.555" height="19.029" transform="translate(-0.208 -0.149)" fill="url(#linear-gradient-28)"/>
                </g>
              </g>
            </g>
          </g>
        </g>
        <g id="Group_1529" data-name="Group 1529" transform="translate(27.861 19.267)" opacity="0.3" style="mix-blend-mode: multiply;isolation: isolate">
          <g id="Group_1528" data-name="Group 1528">
            <g id="Group_1527" data-name="Group 1527" clip-path="url(#clip-path-39)">
              <g id="Group_1526" data-name="Group 1526">
                <g id="Group_1525" data-name="Group 1525" clip-path="url(#clip-path-40)">
                  <rect id="Rectangle_692" data-name="Rectangle 692" width="16.343" height="15.696" transform="translate(-0.208)" fill="url(#linear-gradient-29)"/>
                </g>
              </g>
            </g>
          </g>
        </g>
      </g>
    </g>
    <g id="Group_1533" data-name="Group 1533" transform="translate(31.679 14.207)">
      <g id="Group_1532" data-name="Group 1532" clip-path="url(#clip-path-41)">
        <rect id="Rectangle_695" data-name="Rectangle 695" width="3.545" height="3.689" transform="matrix(0.511, -0.86, 0.86, 0.511, -1.09, 1.797)" fill="url(#linear-gradient-30)"/>
      </g>
    </g>
    <g id="Group_1535" data-name="Group 1535" transform="translate(32.404 13.418)">
      <g id="Group_1534" data-name="Group 1534" clip-path="url(#clip-path-42)">
        <rect id="Rectangle_696" data-name="Rectangle 696" width="2.219" height="2.241" transform="matrix(0.857, -0.516, 0.516, 0.857, -0.945, 0.441)" fill="url(#linear-gradient-31)"/>
      </g>
    </g>
    <g id="Group_1537" data-name="Group 1537" transform="translate(17.781 12.737)">
      <g id="Group_1536" data-name="Group 1536" clip-path="url(#clip-path-43)">
        <rect id="Rectangle_697" data-name="Rectangle 697" width="18.011" height="17.707" transform="translate(-4.951 11.894) rotate(-67.433)" fill="url(#linear-gradient-32)"/>
      </g>
    </g>
    <g id="Group_1539" data-name="Group 1539" transform="translate(23.126 13.864)">
      <g id="Group_1538" data-name="Group 1538" clip-path="url(#clip-path-44)">
        <rect id="Rectangle_698" data-name="Rectangle 698" width="14.976" height="12.352" transform="translate(-4.563 10.989) rotate(-67.433)" fill="url(#linear-gradient-33)"/>
      </g>
    </g>
    <g id="Group_1541" data-name="Group 1541" transform="translate(18.321 12.738)">
      <g id="Group_1540" data-name="Group 1540" clip-path="url(#clip-path-45)">
        <rect id="Rectangle_699" data-name="Rectangle 699" width="18.973" height="18.775" transform="matrix(0.531, -0.848, 0.848, 0.531, -6.312, 10.061)" fill="url(#linear-gradient-34)"/>
      </g>
    </g>
    <g id="Group_1543" data-name="Group 1543" transform="translate(28.924 18.88)">
      <g id="Group_1542" data-name="Group 1542" clip-path="url(#clip-path-46)">
        <rect id="Rectangle_700" data-name="Rectangle 700" width="1.192" height="1.674" transform="translate(-0.089)" fill="url(#linear-gradient-35)"/>
      </g>
    </g>
    <g id="Group_1545" data-name="Group 1545" transform="translate(29.241 16.264)">
      <g id="Group_1544" data-name="Group 1544" clip-path="url(#clip-path-47)">
        <rect id="Rectangle_701" data-name="Rectangle 701" width="13.597" height="13.532" transform="matrix(0.791, -0.612, 0.612, 0.791, -4.593, 3.557)" fill="url(#linear-gradient-36)"/>
      </g>
    </g>
    <g id="Group_1547" data-name="Group 1547" transform="translate(17.98 18.827)">
      <g id="Group_1546" data-name="Group 1546" clip-path="url(#clip-path-48)">
        <rect id="Rectangle_702" data-name="Rectangle 702" width="2.219" height="2.742" transform="matrix(0.489, -0.872, 0.872, 0.489, -0.805, 0.867)" fill="url(#linear-gradient-37)"/>
      </g>
    </g>
    <g id="Group_1549" data-name="Group 1549" transform="translate(6.468 14.884)">
      <g id="Group_1548" data-name="Group 1548" clip-path="url(#clip-path-49)">
        <rect id="Rectangle_703" data-name="Rectangle 703" width="16.52" height="15.473" transform="translate(-5.676 2.448) rotate(-28.98)" fill="url(#linear-gradient-38)"/>
      </g>
    </g>
    <g id="Group_1551" data-name="Group 1551" transform="translate(3.195 9.412)">
      <g id="Group_1550" data-name="Group 1550" clip-path="url(#clip-path-50)">
        <rect id="Rectangle_704" data-name="Rectangle 704" width="7.781" height="7.645" transform="translate(-2.323 1.275) rotate(-28.756)" fill="url(#linear-gradient-39)"/>
      </g>
    </g>
    <g id="Group_1553" data-name="Group 1553" transform="translate(0.904 9.832)">
      <g id="Group_1552" data-name="Group 1552" clip-path="url(#clip-path-51)">
        <rect id="Rectangle_705" data-name="Rectangle 705" width="35.491" height="35.538" transform="translate(-12.187 6.067) rotate(-28.756)" fill="url(#linear-gradient-40)"/>
      </g>
    </g>
    <g id="Group_1555" data-name="Group 1555" transform="translate(3.681 8.211)">
      <g id="Group_1554" data-name="Group 1554" clip-path="url(#clip-path-52)">
        <rect id="Rectangle_706" data-name="Rectangle 706" width="8.166" height="8.347" transform="translate(-2.661 1.46) rotate(-28.743)" fill="url(#linear-gradient-41)"/>
      </g>
    </g>
    <g id="Group_1557" data-name="Group 1557" transform="translate(1.39 9.433)">
      <g id="Group_1556" data-name="Group 1556" clip-path="url(#clip-path-53)">
        <rect id="Rectangle_707" data-name="Rectangle 707" width="35.491" height="35.538" transform="translate(-12.187 6.067) rotate(-28.756)" fill="url(#linear-gradient-42)"/>
      </g>
    </g>
    <g id="Group_1559" data-name="Group 1559" transform="translate(38.368 28.77)">
      <g id="Group_1558" data-name="Group 1558" clip-path="url(#clip-path-54)">
        <rect id="Rectangle_708" data-name="Rectangle 708" width="7.447" height="7.19" transform="matrix(0.951, -0.308, 0.308, 0.951, -1.646, 0.534)" fill="url(#linear-gradient-43)"/>
      </g>
    </g>
    <g id="Group_1561" data-name="Group 1561" transform="translate(26.576 7.482)">
      <g id="Group_1560" data-name="Group 1560" clip-path="url(#clip-path-55)">
        <rect id="Rectangle_709" data-name="Rectangle 709" width="30.531" height="31.917" transform="matrix(0.951, -0.308, 0.308, 0.951, -7.59, 2.462)" fill="url(#linear-gradient-44)"/>
      </g>
    </g>
    <g id="Group_1563" data-name="Group 1563" transform="translate(38.95 28.416)">
      <g id="Group_1562" data-name="Group 1562" clip-path="url(#clip-path-56)">
        <rect id="Rectangle_710" data-name="Rectangle 710" width="7.003" height="7.347" transform="translate(-1.75 0.568) rotate(-18)" fill="url(#linear-gradient-45)"/>
      </g>
    </g>
    <g id="Group_1565" data-name="Group 1565" transform="translate(26.829 7.128)">
      <g id="Group_1564" data-name="Group 1564" clip-path="url(#clip-path-57)">
        <rect id="Rectangle_711" data-name="Rectangle 711" width="30.531" height="31.917" transform="matrix(0.951, -0.308, 0.308, 0.951, -7.59, 2.462)" fill="url(#linear-gradient-46)"/>
      </g>
    </g>
  </g>
</svg>
