<svg xmlns="http://www.w3.org/2000/svg" xmlns:xlink="http://www.w3.org/1999/xlink" width="89.335" height="89.334" viewBox="0 0 89.335 89.334">
  <defs>
    <linearGradient id="linear-gradient" x1="-0.086" y1="0.103" x2="1.146" y2="0.938" gradientUnits="objectBoundingBox">
      <stop offset="0" stop-color="#f2e500"/>
      <stop offset="1" stop-color="#72b641"/>
    </linearGradient>
  </defs>
  <g id="icon" transform="translate(-1268.898 -159)">
    <g id="Group_1646" data-name="Group 1646" transform="translate(0.418 -1.226)">
      <path id="Path_1795" data-name="Path 1795" d="M1313.148,243.56a44.667,44.667,0,1,1,44.667-44.668A44.719,44.719,0,0,1,1313.148,243.56Zm0-85.255a40.588,40.588,0,1,0,40.588,40.587A40.633,40.633,0,0,0,1313.148,158.3Z" transform="translate(0 6)" fill="#f9f9f9"/>
      <circle id="Ellipse_9" data-name="Ellipse 9" cx="42.628" cy="42.628" r="42.628" transform="translate(1270.52 162.265)" fill="url(#linear-gradient)"/>
    </g>
    <g id="Group_1649" data-name="Group 1649" transform="translate(1295.898 186)">
      <path id="Path_13443" data-name="Path 13443" d="M65.651,51.993h-.082q0-5.917,0-11.835c0-1.123-.4-1.518-1.535-1.522-.978,0-1.956,0-2.934,0-1.127,0-1.529.4-1.526,1.533q.031,11.859.069,23.718c0,.98.456,1.427,1.447,1.435,1.011.007,2.021,0,3.032,0,1.11,0,1.53-.429,1.53-1.544q0-5.893,0-11.785M49.8,35.818a1.263,1.263,0,0,1-.037.232c-.058.134-.119.268-.189.4a16.931,16.931,0,0,1-4.126,4.847,22.948,22.948,0,0,1-8.954,4.728,20.192,20.192,0,0,1-4.675.681c-.168,0-.332.189-.5.29.1.149.18.345.322.436a3.491,3.491,0,0,0,.8.362,11.426,11.426,0,0,0,5.746.135,24.382,24.382,0,0,0,7.764-2.959A21.053,21.053,0,0,0,53,38.677c.448-.657.55-.67,1.086-.062.5.562.971,1.141,1.452,1.715.229.274.472.512.873.362a.794.794,0,0,0,.52-.844c.027-2.234.065-4.468.1-6.7.017-.962.046-1.923.068-2.885a1.22,1.22,0,0,0-1.585-1.179,3.5,3.5,0,0,0-.662.31Q52.475,30.694,50.1,32c-1.111.611-2.229,1.21-3.333,1.834a.675.675,0,0,0-.15,1.193,1.617,1.617,0,0,0,.583.223c.852.194,1.708.373,2.595.564m.353,19.2h.084q0,4.428,0,8.856c0,1,.432,1.432,1.431,1.444s2.022.005,3.033,0c1.112,0,1.527-.42,1.527-1.546,0-1.3-.01-2.609-.015-3.914q-.024-6.728-.047-13.456c0-1.266-.36-1.619-1.636-1.623q-1.395,0-2.789,0c-1.2,0-1.587.386-1.589,1.576q0,4.33,0,8.66M40.74,58.056c0,1.941,0,3.882,0,5.823,0,1,.441,1.434,1.434,1.442q1.541.012,3.083,0c1.055-.006,1.484-.436,1.488-1.494.006-1.3,0-2.61,0-3.915,0-2.545.005-5.089,0-7.634,0-1-.4-1.43-1.367-1.453-1.076-.026-2.153-.024-3.23-.011-.986.011-1.411.469-1.411,1.466q0,2.887,0,5.774m-9.493,2.986c0,.962-.008,1.924,0,2.886a1.239,1.239,0,0,0,1.391,1.392q1.614.019,3.228,0a1.235,1.235,0,0,0,1.387-1.4q.013-2.812,0-5.625c-.005-.953-.419-1.387-1.365-1.4-1.108-.021-2.217-.015-3.325.009a1.193,1.193,0,0,0-1.314,1.35c-.009.929,0,1.858,0,2.788" transform="translate(-31.244 -29.029)" fill="#fff"/>
      <path id="Path_13444" data-name="Path 13444" d="M106.785,65.939q0,5.893,0,11.785c0,1.115-.42,1.539-1.53,1.544-1.011,0-2.022.006-3.032,0-.991-.007-1.444-.455-1.447-1.434q-.037-11.859-.068-23.719c0-1.137.4-1.532,1.526-1.533.978,0,1.956,0,2.934,0,1.136,0,1.535.4,1.535,1.522q0,5.917,0,11.835Z" transform="translate(-72.378 -42.975)" fill="#fff"/>
      <path id="Path_13446" data-name="Path 13446" d="M77.6,77.893q0-4.33,0-8.66c0-1.19.39-1.573,1.589-1.576q1.395,0,2.789,0c1.276,0,1.631.357,1.636,1.623q.024,6.728.047,13.456c0,1.305.015,2.61.015,3.914,0,1.126-.415,1.543-1.526,1.546-1.011,0-2.023.009-3.034,0s-1.429-.443-1.431-1.444q-.009-4.428,0-8.856H77.6" transform="translate(-58.692 -51.902)" fill="#fff"/>
      <path id="Path_13447" data-name="Path 13447" d="M54.524,89.677q0-2.887,0-5.774c0-1,.426-1.454,1.412-1.466,1.076-.013,2.153-.015,3.229.011.963.023,1.365.458,1.367,1.453.007,2.544,0,5.089,0,7.634,0,1.305,0,2.61,0,3.915,0,1.058-.433,1.488-1.488,1.494q-1.542.009-3.083,0c-.993-.007-1.431-.446-1.434-1.442-.006-1.941,0-3.882,0-5.823" transform="translate(-45.029 -60.65)" fill="#fff"/>
      <path id="Path_13448" data-name="Path 13448" d="M31.248,101.486c0-.929-.007-1.859,0-2.788a1.193,1.193,0,0,1,1.314-1.35c1.108-.024,2.217-.03,3.325-.009.946.018,1.36.452,1.365,1.4q.015,2.813,0,5.625a1.235,1.235,0,0,1-1.387,1.4q-1.614.018-3.228,0a1.24,1.24,0,0,1-1.392-1.392c-.01-.962,0-1.924,0-2.886" transform="translate(-31.244 -69.473)" fill="#fff"/>
    </g>
  </g>
</svg>
