<svg xmlns="http://www.w3.org/2000/svg" xmlns:xlink="http://www.w3.org/1999/xlink" width="100" height="96.363" viewBox="0 0 100 96.363">
  <defs>
    <clipPath id="clip-path">
      <rect id="Rectangle_632" data-name="Rectangle 632" width="100" height="96.363" fill="none"/>
    </clipPath>
  </defs>
  <g id="Group_1396" data-name="Group 1396" clip-path="url(#clip-path)">
    <path id="Path_13077" data-name="Path 13077" d="M10.787,387.143a.581.581,0,0,1-.47-.239,50.031,50.031,0,0,1-3.174-4.949.581.581,0,1,1,1.014-.569,48.858,48.858,0,0,0,3.1,4.833.581.581,0,0,1-.47.924ZM5.111,377.026a.582.582,0,0,1-.537-.359,50.033,50.033,0,0,1-1.928-5.554.581.581,0,0,1,1.119-.316,48.85,48.85,0,0,0,1.883,5.424.582.582,0,0,1-.537.8ZM1.958,365.862a.581.581,0,0,1-.573-.491,50.014,50.014,0,0,1-.576-5.851.581.581,0,0,1,1.162-.045,48.845,48.845,0,0,0,.562,5.714.581.581,0,0,1-.483.665A.589.589,0,0,1,1.958,365.862ZM1.5,354.27l-.045,0a.581.581,0,0,1-.535-.624,50.137,50.137,0,0,1,.794-5.825.581.581,0,0,1,1.141.225,48.97,48.97,0,0,0-.776,5.689A.581.581,0,0,1,1.5,354.27Zm2.243-11.381a.582.582,0,0,1-.553-.76,49.942,49.942,0,0,1,2.137-5.477.581.581,0,1,1,1.056.486A48.771,48.771,0,0,0,4.3,342.486.582.582,0,0,1,3.742,342.888Zm4.846-10.54a.581.581,0,0,1-.5-.885,50.515,50.515,0,0,1,3.354-4.828.581.581,0,0,1,.915.718,49.355,49.355,0,0,0-3.276,4.716A.581.581,0,0,1,8.588,332.349Z" transform="translate(-0.771 -311.253)" fill="#353f8f"/>
    <path id="Path_13078" data-name="Path 13078" d="M723.832,1627.179a50,50,0,0,1-5.4-.293.581.581,0,0,1,.126-1.156,48.831,48.831,0,0,0,5.328.286l.408,0a.581.581,0,1,1,.009,1.163l-.417,0Zm6.267-.387a.581.581,0,0,1-.072-1.158,48.76,48.76,0,0,0,5.645-1.051.581.581,0,0,1,.28,1.129,50.024,50.024,0,0,1-5.78,1.076A.646.646,0,0,1,730.1,1626.792Zm-17.329-.871a.579.579,0,0,1-.131-.015,49.976,49.976,0,0,1-5.641-1.657.581.581,0,1,1,.393-1.094,48.842,48.842,0,0,0,5.509,1.618.582.582,0,0,1-.13,1.148ZM741.359,1624a.582.582,0,0,1-.206-1.125,48.829,48.829,0,0,0,5.241-2.345.581.581,0,1,1,.537,1.031,49.891,49.891,0,0,1-5.367,2.4A.572.572,0,0,1,741.359,1624Zm10.293-5.352a.581.581,0,0,1-.327-1.062,49.413,49.413,0,0,0,4.553-3.5.581.581,0,1,1,.761.879,50.526,50.526,0,0,1-4.661,3.582A.576.576,0,0,1,751.652,1618.646Zm8.771-7.593a.581.581,0,0,1-.429-.974,49.49,49.49,0,0,0,3.623-4.456.581.581,0,0,1,.943.68,50.687,50.687,0,0,1-3.708,4.561A.58.58,0,0,1,760.423,1611.053Z" transform="translate(-673.793 -1530.816)" fill="#353f8f"/>
    <path id="Path_13079" data-name="Path 13079" d="M1511.134,42.532a.581.581,0,0,1-.577-.515,48.814,48.814,0,0,0-.987-5.657.581.581,0,0,1,1.132-.267,50.044,50.044,0,0,1,1.01,5.792.581.581,0,0,1-.511.644A.594.594,0,0,1,1511.134,42.532Zm-2.665-11.29a.582.582,0,0,1-.546-.382,48.907,48.907,0,0,0-2.285-5.267.581.581,0,1,1,1.037-.525,49.986,49.986,0,0,1,2.34,5.393.582.582,0,0,1-.546.781Zm-5.235-10.352a.581.581,0,0,1-.485-.26,49.4,49.4,0,0,0-3.448-4.592.581.581,0,1,1,.887-.751,50.627,50.627,0,0,1,3.53,4.7.582.582,0,0,1-.484.9Zm-7.495-8.856a.579.579,0,0,1-.4-.157,49.543,49.543,0,0,0-4.415-3.672.581.581,0,1,1,.69-.936,50.648,50.648,0,0,1,4.519,3.759.581.581,0,0,1-.4,1.006ZM1486.4,5.148a.578.578,0,0,1-.287-.077,48.948,48.948,0,0,0-5.146-2.548.581.581,0,0,1,.454-1.071,50.127,50.127,0,0,1,5.269,2.608.581.581,0,0,1-.289,1.086Z" transform="translate(-1411.843 -1.342)" fill="#353f8f"/>
    <path id="Path_13080" data-name="Path 13080" d="M246.16,202.328a38.664,38.664,0,1,1,38.664,38.664,38.664,38.664,0,0,1-38.664-38.664" transform="translate(-234.726 -156.062)" fill="#a2eeff"/>
    <path id="Path_13081" data-name="Path 13081" d="M1061.791,532.3a8.188,8.188,0,0,0,5.021,4.188l5.06-6.052a26.425,26.425,0,0,0-4.762-4.96,4.857,4.857,0,0,0-1.355-.752,22.724,22.724,0,0,0-8.559-1.266Z" transform="translate(-1008.091 -499.121)" fill="#fff"/>
    <path id="Path_13082" data-name="Path 13082" d="M744.106,707.051l-2.248-7.6H733.99l-2.248,7.6" transform="translate(-697.754 -666.959)" fill="#fff"/>
    <path id="Path_13083" data-name="Path 13083" d="M732.168,695.7a.582.582,0,0,1-.557-.417l-2.125-7.187h-7l-2.125,7.188a.581.581,0,0,1-1.115-.33l2.248-7.6a.581.581,0,0,1,.557-.417h7.868a.581.581,0,0,1,.557.417l2.248,7.6a.582.582,0,0,1-.558.746Z" transform="translate(-685.816 -655.024)" fill="#353f8f"/>
    <path id="Path_13084" data-name="Path 13084" d="M416.349,44.818H387.63a2.741,2.741,0,0,1-2.754-2.728V15.246a2.742,2.742,0,0,1,2.754-2.729h40.578a2.741,2.741,0,0,1,2.752,2.729v25.86" transform="translate(-366.999 -11.936)" fill="#fff"/>
    <path id="Path_13085" data-name="Path 13085" d="M404.414,33.465H375.695a3.326,3.326,0,0,1-3.335-3.309V3.31A3.326,3.326,0,0,1,375.695,0h40.578a3.326,3.326,0,0,1,3.334,3.31v25.86a.581.581,0,0,1-1.163,0V3.31a2.162,2.162,0,0,0-2.171-2.147H375.695a2.162,2.162,0,0,0-2.172,2.147V30.155a2.162,2.162,0,0,0,2.172,2.146h28.719a.581.581,0,1,1,0,1.163Z" transform="translate(-355.064 -0.001)" fill="#353f8f"/>
    <path id="Path_13086" data-name="Path 13086" d="M986.251,579.616l-.537.9a1.312,1.312,0,0,1-1.788.452,1.286,1.286,0,0,1-.457-1.772l1.047-1.748-.067-.057-.7,1.174a1.312,1.312,0,0,1-1.788.452,1.286,1.286,0,0,1-.456-1.772l.794-1.327-.056-.075-.462.771a1.311,1.311,0,0,1-1.788.452,1.287,1.287,0,0,1-.456-1.772l.619-1.034-.048-.091-.3.494a1.312,1.312,0,0,1-1.788.452,1.287,1.287,0,0,1-.457-1.772l1.047-1.748" transform="translate(-931.984 -545.043)" fill="#fff"/>
    <path id="Path_13087" data-name="Path 13087" d="M972.665,569.788a3.425,3.425,0,0,0-2.923-2.21,1.88,1.88,0,0,1-.866-1.148,1.857,1.857,0,0,1-.056-.546,1.881,1.881,0,0,1-1.912-1.4,1.857,1.857,0,0,1-.056-.547,1.872,1.872,0,0,1-1.707-2.829l1.047-1.748a.581.581,0,0,1,1,.6l-1.047,1.748a.705.705,0,0,0,.251.971.734.734,0,0,0,1-.251l.294-.491a.581.581,0,0,1,1.013.026l.048.091a.581.581,0,0,1-.015.571l-.619,1.034a.705.705,0,0,0,.25.971.732.732,0,0,0,1-.25l.462-.77a.581.581,0,0,1,.963-.051l.057.075a.582.582,0,0,1,.034.648l-.794,1.327a.705.705,0,0,0,.25.972.734.734,0,0,0,1-.251l.7-1.172a.582.582,0,0,1,.878-.142l.067.058a.581.581,0,0,1,.12.739l-1.047,1.748a.7.7,0,0,0,.25.971.733.733,0,0,0,1-.25l.536-.895a.581.581,0,0,1,1,.6l-.537.9A1.9,1.9,0,0,1,972.665,569.788Z" transform="translate(-920.064 -533.106)" fill="#353f8f"/>
    <path id="Path_13088" data-name="Path 13088" d="M976.142,493l-2.267-2.246a1.476,1.476,0,0,1,0-2.1l.088-.088a1.508,1.508,0,0,1,2.12,0l5.3,5.252" transform="translate(-928.223 -465.46)" fill="#fada7d"/>
    <path id="Path_13089" data-name="Path 13089" d="M969.447,482.539a.579.579,0,0,1-.409-.168l-5.3-5.252a.93.93,0,0,0-1.3,0l-.084.085a.894.894,0,0,0,0,1.276l2.267,2.247a.581.581,0,1,1-.819.826l-2.267-2.246a2.057,2.057,0,0,1,0-2.926l.084-.085a2.1,2.1,0,0,1,2.94,0l5.3,5.253a.581.581,0,0,1-.409.994Z" transform="translate(-916.288 -453.598)" fill="#353f8f"/>
    <path id="Path_13090" data-name="Path 13090" d="M1035.289,575.2l-5.175-3.8a1.688,1.688,0,0,1-.388-2.37,1.724,1.724,0,0,1,2.392-.384l7.312,4.638" transform="translate(-981.589 -541.925)" fill="#fff"/>
    <path id="Path_13091" data-name="Path 13091" d="M1023.364,563.908a.579.579,0,0,1-.344-.113l-5.175-3.8a2.27,2.27,0,0,1-.514-3.181,2.314,2.314,0,0,1,3.2-.516l7.286,4.621a.581.581,0,0,1-.623.982l-7.312-4.638a1.155,1.155,0,0,0-1.611.237,1.107,1.107,0,0,0,.255,1.552l5.183,3.8a.581.581,0,0,1-.344,1.05Z" transform="translate(-969.664 -530.056)" fill="#353f8f"/>
    <path id="Path_13092" data-name="Path 13092" d="M1059.939,519.046a.58.58,0,0,1-.468-.237,25.852,25.852,0,0,0-4.657-4.851,4.26,4.26,0,0,0-1.19-.659,22.262,22.262,0,0,0-8.315-1.233.581.581,0,0,1-.093-1.159,23.106,23.106,0,0,1,8.8,1.3,5.425,5.425,0,0,1,1.518.842,27.028,27.028,0,0,1,4.87,5.072.581.581,0,0,1-.468.926Z" transform="translate(-996.158 -487.146)" fill="#353f8f"/>
    <path id="Path_13093" data-name="Path 13093" d="M1149.214,707.243a.576.576,0,0,1-.139-.017,8.713,8.713,0,0,1-5.411-4.509.582.582,0,0,1,1.056-.488h0a7.661,7.661,0,0,0,4.632,3.867.581.581,0,0,1-.138,1.146Z" transform="translate(-1090.493 -669.291)" fill="#353f8f"/>
    <path id="Line_61" data-name="Line 61" d="M-10.685-10.115a.579.579,0,0,1-.409-.168l-1.251-1.239a.581.581,0,0,1,0-.822.581.581,0,0,1,.822,0l1.251,1.239a.581.581,0,0,1,0,.822A.58.58,0,0,1-10.685-10.115Z" transform="translate(55.669 34.554)" fill="#353f8f"/>
    <path id="Line_62" data-name="Line 62" d="M-10.685-10.115a.579.579,0,0,1-.409-.168l-1.251-1.239a.581.581,0,0,1,0-.822.581.581,0,0,1,.822,0l1.251,1.239a.581.581,0,0,1,0,.822A.58.58,0,0,1-10.685-10.115Z" transform="translate(57.093 33.143)" fill="#353f8f"/>
    <path id="Path_13094" data-name="Path 13094" d="M694.541,206.26a6.456,6.456,0,0,1,0,9.189,6.6,6.6,0,0,1-9.272,0,6.456,6.456,0,0,1,0-9.189,6.6,6.6,0,0,1,9.272,0" transform="translate(-651.608 -194.865)" fill="#6cf"/>
    <path id="Path_13095" data-name="Path 13095" d="M677.969,191.842a7.109,7.109,0,1,1-5.045,2.071A7.121,7.121,0,0,1,677.969,191.842Zm0,13a5.945,5.945,0,1,0-4.228-1.735A5.967,5.967,0,0,0,677.969,204.837Z" transform="translate(-639.672 -182.931)" fill="#353f8f"/>
    <path id="Path_13096" data-name="Path 13096" d="M639.508,151.877a8.974,8.974,0,1,1-6.369,2.614A8.993,8.993,0,0,1,639.508,151.877Zm0,16.708a7.811,7.811,0,1,0-5.552-2.279A7.837,7.837,0,0,0,639.508,168.584Z" transform="translate(-601.211 -144.822)" fill="#353f8f"/>
    <path id="Path_13097" data-name="Path 13097" d="M910.365,289.294a.581.581,0,0,1-.577-.522,4.178,4.178,0,0,0-.38-1.362.581.581,0,0,1,1.051-.5,5.333,5.333,0,0,1,.485,1.74.581.581,0,0,1-.519.638A.573.573,0,0,1,910.365,289.294Z" transform="translate(-867.114 -273.27)" fill="#353f8f"/>
    <path id="Path_13098" data-name="Path 13098" d="M818.395,229.344a.58.58,0,0,1-.409-.169,4.271,4.271,0,0,0-3.034-1.245.581.581,0,1,1,0-1.163,5.426,5.426,0,0,1,3.854,1.582.581.581,0,0,1-.409.994Z" transform="translate(-776.544 -216.234)" fill="#353f8f"/>
    <path id="Line_63" data-name="Line 63" d="M-7.894-11.354h-4.042a.581.581,0,0,1-.581-.581.581.581,0,0,1,.581-.581h4.042a.581.581,0,0,1,.581.581A.581.581,0,0,1-7.894-11.354Z" transform="translate(71.855 38.878)" fill="#353f8f"/>
    <path id="Line_64" data-name="Line 64" d="M16.54-11.354H-11.935a.581.581,0,0,1-.581-.581.581.581,0,0,1,.581-.581H16.54a.581.581,0,0,1,.581.581A.581.581,0,0,1,16.54-11.354Z" transform="translate(29.812 38.878)" fill="#353f8f"/>
    <path id="Path_13099" data-name="Path 13099" d="M483.932,53.6a1.124,1.124,0,1,1-1.124-1.114,1.124,1.124,0,0,1,1.124,1.114" transform="translate(-459.311 -50.053)" fill="#fada7d"/>
    <path id="Path_13100" data-name="Path 13100" d="M470.86,39.974a1.717,1.717,0,1,1-.006,0Z" transform="translate(-447.357 -38.118)" fill="#353f8f"/>
    <path id="Path_13101" data-name="Path 13101" d="M572.662,53.6a1.124,1.124,0,1,1-1.124-1.114,1.124,1.124,0,0,1,1.124,1.114" transform="translate(-543.92 -50.053)" fill="#fada7d"/>
    <path id="Path_13102" data-name="Path 13102" fill="#353f8f"/>
    <path id="Path_13103" data-name="Path 13103" d="M661.4,53.6a1.124,1.124,0,1,1-1.124-1.114A1.124,1.124,0,0,1,661.4,53.6" transform="translate(-628.538 -50.053)" fill="#fada7d"/>
    <path id="Path_13104" data-name="Path 13104" d="M648.33,39.974a1.716,1.716,0,1,1-.006,0Z" transform="translate(-616.584 -38.118)" fill="#353f8f"/>
    <path id="Path_13105" data-name="Path 13105" d="M659.15,870.06v-.932a1.3,1.3,0,0,1,1.307-1.295h16.494a1.3,1.3,0,0,1,1.308,1.295v.932Z" transform="translate(-628.534 -827.524)" fill="#fff"/>
    <path id="Path_13106" data-name="Path 13106" d="M666.323,858.706H647.215a.581.581,0,0,1-.581-.581v-.932a1.886,1.886,0,0,1,1.882-1.876h16.5a1.888,1.888,0,0,1,1.889,1.874v.935A.581.581,0,0,1,666.323,858.706ZM647.8,857.544h17.946v-.351a.72.72,0,0,0-.719-.714h-16.5a.722.722,0,0,0-.726.716Z" transform="translate(-616.599 -815.589)" fill="#353f8f"/>
    <path id="Line_65" data-name="Line 65" d="M33.775-11.354h-45.71a.581.581,0,0,1-.581-.581.581.581,0,0,1,.581-.581h45.71a.581.581,0,0,1,.581.581A.581.581,0,0,1,33.775-11.354Z" transform="translate(30.187 18.086)" fill="#353f8f"/>
    <path id="Path_13107" data-name="Path 13107" d="M846.927,621.132a1.119,1.119,0,1,1-.331-.79,1.125,1.125,0,0,1,.331.79" transform="translate(-805.446 -591.219)" fill="#fada7d"/>
    <path id="Path_13108" data-name="Path 13108" fill="#353f8f"/>
    <path id="Line_66" data-name="Line 66" d="M-2.943-11.354h-8.992a.581.581,0,0,1-.581-.581.581.581,0,0,1,.581-.581h8.992a.581.581,0,0,1,.581.581A.581.581,0,0,1-2.943-11.354Z" transform="translate(44.05 26.565)" fill="#353f8f"/>
    <path id="Line_67" data-name="Line 67" d="M-3.317-11.354h-8.618a.581.581,0,0,1-.581-.581.581.581,0,0,1,.581-.581h8.618a.581.581,0,0,1,.581.581A.581.581,0,0,1-3.317-11.354Z" transform="translate(44.05 28.793)" fill="#353f8f"/>
    <path id="Line_68" data-name="Line 68" d="M-5.566-11.354h-6.369a.581.581,0,0,1-.581-.581.581.581,0,0,1,.581-.581h6.369a.581.581,0,0,1,.581.581A.581.581,0,0,1-5.566-11.354Z" transform="translate(45.174 31.452)" fill="#353f8f"/>
    <path id="Path_13109" data-name="Path 13109" d="M397.945,1064.869a1.188,1.188,0,0,1,0,1.772c-2.69,2.4-10.806,8.844-20.4,8.844s-17.711-6.444-20.4-8.844a1.188,1.188,0,0,1,0-1.772c2.69-2.4,10.806-8.843,20.4-8.843s17.711,6.444,20.4,8.843" transform="translate(-340.176 -1006.976)" fill="#fff"/>
    <path id="Path_13110" data-name="Path 13110" d="M365.609,1043.509c9.666,0,17.758,6.287,20.788,8.991a1.77,1.77,0,0,1,0,2.64c-3.031,2.7-11.122,8.991-20.788,8.991s-17.758-6.287-20.788-8.99a1.77,1.77,0,0,1,0-2.64C347.851,1049.8,355.943,1043.509,365.609,1043.509Zm0,19.459c9.266,0,17.083-6.081,20.014-8.7a.607.607,0,0,0,0-.905c-2.93-2.614-10.747-8.7-20.013-8.7s-17.083,6.081-20.014,8.7a.607.607,0,0,0,0,.905C348.526,1056.887,356.343,1062.968,365.609,1062.968Z" transform="translate(-328.241 -995.041)" fill="#353f8f"/>
    <path id="Path_13111" data-name="Path 13111" d="M622,1065.759a9.729,9.729,0,1,1-9.729-9.729,9.729,9.729,0,0,1,9.729,9.729" transform="translate(-574.558 -1006.98)" fill="#6cf"/>
    <path id="Ellipse_99" data-name="Ellipse 99" d="M-2.206-12.517A10.322,10.322,0,0,1,8.105-2.206,10.322,10.322,0,0,1-2.206,8.105,10.322,10.322,0,0,1-12.517-2.206,10.322,10.322,0,0,1-2.206-12.517Zm0,19.459A9.158,9.158,0,0,0,6.942-2.206a9.158,9.158,0,0,0-9.148-9.148,9.158,9.158,0,0,0-9.148,9.148A9.158,9.158,0,0,0-2.206,6.942Z" transform="translate(39.922 60.985)" fill="#353f8f"/>
    <path id="Path_13112" data-name="Path 13112" d="M742.532,1192.458a3.558,3.558,0,1,1-3.558-3.558,3.558,3.558,0,0,1,3.558,3.558" transform="translate(-701.258 -1133.678)" fill="#fada7d"/>
    <path id="Ellipse_100" data-name="Ellipse 100" d="M-8.377-12.516A4.144,4.144,0,0,1-4.238-8.377,4.144,4.144,0,0,1-8.377-4.238a4.144,4.144,0,0,1-4.139-4.139A4.144,4.144,0,0,1-8.377-12.516Zm0,7.116A2.98,2.98,0,0,0-5.4-8.377a2.98,2.98,0,0,0-2.977-2.977,2.98,2.98,0,0,0-2.977,2.977A2.98,2.98,0,0,0-8.377-5.4Z" transform="translate(46.094 67.157)" fill="#353f8f"/>
    <path id="Path_13113" data-name="Path 13113" d="M373.057,1533.745l9.667-6.162-.01.008a2.767,2.767,0,0,1,3.577.538,2.541,2.541,0,0,1-.543,3.557c-6.274,6.008-17.432,11.061-17.432,11.061a7.712,7.712,0,0,1-4.372.4c-2.445-.488-6.324-1.727-9.066-2.416a3.955,3.955,0,0,0-2.54.206l-6.512,2.827-3.969-9.3s4.976-1.966,6.543-2.854c.011-.006.895-.57,1.288-.89,0,0,.859-.639,1.346-.918a8.241,8.241,0,0,1,3.1-1.135c2.036-.355,3.21-.021,5.986.932,1.4.481,8.816,2.092,10.091,2.315a7.321,7.321,0,0,1,1.458.381,2.138,2.138,0,0,1,.615.328,2.032,2.032,0,0,1,.729,2.3,2.742,2.742,0,0,1-1.986,1.77,3.253,3.253,0,0,1-1.141.069,112.157,112.157,0,0,1-11.414-1.428" transform="translate(-325.978 -1456.238)" fill="#fff"/>
    <path id="Path_13114" data-name="Path 13114" d="M358.329,1553.434a3.818,3.818,0,0,1-.443-.026,110.149,110.149,0,0,1-11.484-1.441.581.581,0,1,1,.274-1.13A112.247,112.247,0,0,0,358,1552.251a2.706,2.706,0,0,0,.959-.054,2.171,2.171,0,0,0,1.565-1.371,1.45,1.45,0,0,0-.552-1.695,1.514,1.514,0,0,0-.44-.225,6.764,6.764,0,0,0-1.352-.352c-1.209-.211-8.685-1.824-10.18-2.337-2.779-.954-3.834-1.234-5.7-.909a7.655,7.655,0,0,0-2.916,1.067c-.452.258-1.28.874-1.288.88-.4.326-1.31.907-1.345.927-1.588.9-6.415,2.81-6.62,2.891a.581.581,0,1,1-.427-1.081c.049-.019,4.956-1.961,6.47-2.818.086-.055.869-.56,1.208-.836.056-.042.913-.679,1.424-.972a8.886,8.886,0,0,1,3.293-1.2c2.221-.388,3.529.012,6.275.954,1.342.46,8.626,2.051,10,2.292a7.891,7.891,0,0,1,1.563.41,2.7,2.7,0,0,1,1.7,3.339,3.309,3.309,0,0,1-2.4,2.168A3.864,3.864,0,0,1,358.329,1553.434Z" transform="translate(-314.04 -1472.299)" fill="#353f8f"/>
    <path id="Path_13115" data-name="Path 13115" d="M415.362,1532.389a.581.581,0,0,1-.232-1.115l6.512-2.827a4.561,4.561,0,0,1,2.913-.236c1.1.276,2.348.631,3.67,1.007,1.926.547,3.918,1.113,5.367,1.4a7.116,7.116,0,0,0,4.043-.371c.087-.04,11.118-5.073,17.246-10.941l.035-.031a1.957,1.957,0,0,0,.456-2.742,2.181,2.181,0,0,0-2.831-.4l-.007,0-9.629,6.138a.581.581,0,1,1-.625-.98l9.667-6.162a.562.562,0,0,1,.062-.034,3.333,3.333,0,0,1,4.27.707,3.1,3.1,0,0,1-.61,4.356c-6.272,6-17.119,10.947-17.578,11.155a8.291,8.291,0,0,1-4.726.442c-1.494-.3-3.509-.871-5.457-1.425-1.313-.373-2.553-.725-3.636-1a3.393,3.393,0,0,0-2.167.176l-6.512,2.827A.582.582,0,0,1,415.362,1532.389Z" transform="translate(-395.515 -1444.279)" fill="#353f8f"/>
    <path id="Path_13116" data-name="Path 13116" d="M1525.991,1331.21v2.84H1510.9v-3.525" transform="translate(-1440.722 -1268.725)" fill="#fff"/>
    <path id="Path_13117" data-name="Path 13117" d="M1512.895,1321.592H1497.8a.638.638,0,0,1-.638-.638v-3.526a.638.638,0,0,1,1.276,0v2.888h13.815v-2.2a.638.638,0,1,1,1.276,0v2.84A.638.638,0,0,1,1512.895,1321.592Z" transform="translate(-1427.626 -1255.629)" fill="#353f8f"/>
    <path id="Path_13118" data-name="Path 13118" d="M1554.032,546.089a6.109,6.109,0,1,1-6.109-6.109,6.109,6.109,0,0,1,6.109,6.109" transform="translate(-1470.2 -514.899)" fill="#fff"/>
    <path id="Ellipse_101" data-name="Ellipse 101" d="M-6.987-13.734A6.754,6.754,0,0,1-.241-6.987,6.754,6.754,0,0,1-6.987-.241a6.754,6.754,0,0,1-6.747-6.747A6.754,6.754,0,0,1-6.987-13.734Zm0,12.218A5.477,5.477,0,0,0-1.516-6.987a5.477,5.477,0,0,0-5.471-5.471,5.477,5.477,0,0,0-5.471,5.471A5.477,5.477,0,0,0-6.987-1.516Z" transform="translate(84.71 38.177)" fill="#353f8f"/>
    <path id="Path_13119" data-name="Path 13119" d="M1424.825,885.42a5.031,5.031,0,0,0-5.031-5.031h-12.205a5.031,5.031,0,0,0-5.031,5.031v12.264a3.611,3.611,0,0,0,3.61,3.61h9.718" transform="translate(-1337.412 -839.497)" fill="#fff"/>
    <path id="Path_13120" data-name="Path 13120" d="M1402.79,888.836h-9.718a4.248,4.248,0,0,1-4.248-4.248V872.324a5.669,5.669,0,0,1,5.669-5.669h12.2a5.669,5.669,0,0,1,5.669,5.669.638.638,0,0,1-1.276,0,4.393,4.393,0,0,0-4.393-4.393h-12.2a4.393,4.393,0,0,0-4.393,4.393v12.263a2.972,2.972,0,0,0,2.972,2.972h9.718a.638.638,0,1,1,0,1.276Z" transform="translate(-1324.316 -826.401)" fill="#353f8f"/>
    <path id="Line_69" data-name="Line 69" d="M-8.35-12.458H-13.1a.638.638,0,0,1-.638-.638.638.638,0,0,1,.638-.638H-8.35a.638.638,0,0,1,.638.638A.638.638,0,0,1-8.35-12.458Z" transform="translate(78.527 66.206)" fill="#353f8f"/>
    <path id="Path_13121" data-name="Path 13121" d="M1510.9,1416.41v-9.982h15.091v9.982" transform="translate(-1440.722 -1341.103)" fill="#6cf"/>
    <path id="Path_13122" data-name="Path 13122" d="M1512.895,1403.951a.638.638,0,0,1-.638-.638v-9.344h-13.815v9.344a.638.638,0,0,1-1.276,0v-9.982a.638.638,0,0,1,.638-.638h15.091a.638.638,0,0,1,.638.638v9.982A.638.638,0,0,1,1512.895,1403.951Z" transform="translate(-1427.626 -1328.006)" fill="#353f8f"/>
    <path id="Line_70" data-name="Line 70" d="M-13.1-8.084a.638.638,0,0,1-.638-.638V-13.1a.638.638,0,0,1,.638-.638.638.638,0,0,1,.638.638v4.374A.638.638,0,0,1-13.1-8.084Z" transform="translate(91.178 84.173)" fill="#353f8f"/>
    <path id="Path_13123" data-name="Path 13123" d="M1683.505,1012.752H1673.4l5-16.674h12.783l-3.458,12.966" transform="translate(-1595.674 -949.812)" fill="#fada7d"/>
    <path id="Path_13124" data-name="Path 13124" d="M1670.409,1000.294h-10.1a.638.638,0,0,1-.611-.821l5-16.674a.638.638,0,0,1,.611-.454h12.783a.638.638,0,0,1,.617.8l-3.458,12.966a.638.638,0,0,1-1.233-.329l3.244-12.164h-11.479l-4.619,15.4h9.248a.638.638,0,1,1,0,1.276Z" transform="translate(-1582.578 -936.716)" fill="#353f8f"/>
    <path id="Path_13125" data-name="Path 13125" d="M1894.6,1275.166l-1.01,2.837a1.672,1.672,0,0,1-2.136,1.014l-.189-.067a3.177,3.177,0,0,1,2.132-5.987l.189.067a1.672,1.672,0,0,1,1.014,2.136" transform="translate(-1801.408 -1213.659)" fill="#fff"/>
    <path id="Path_13126" data-name="Path 13126" d="M1879.214,1259.043a3.8,3.8,0,0,1,1.28.222l.188.067a2.313,2.313,0,0,1,1.4,2.951l-1.01,2.837a2.309,2.309,0,0,1-2.951,1.4l-.189-.067a3.816,3.816,0,0,1,1.28-7.411Zm-.317,6.337a1.038,1.038,0,0,0,.975-.688l1.01-2.837a1.036,1.036,0,0,0-.628-1.321l-.189-.067a2.54,2.54,0,0,0-1.7,4.785l.188.067A1.03,1.03,0,0,0,1878.9,1265.38Z" transform="translate(-1788.288 -1200.563)" fill="#353f8f"/>
    <path id="Line_71" data-name="Line 71" d="M-4.024-12.458H-13.1a.638.638,0,0,1-.638-.638.638.638,0,0,1,.638-.638h9.072a.638.638,0,0,1,.638.638A.638.638,0,0,1-4.024-12.458Z" transform="translate(83.345 69.676)" fill="#353f8f"/>
    <path id="Line_72" data-name="Line 72" d="M-13.1-5.487a.638.638,0,0,1-.638-.638V-13.1a.638.638,0,0,1,.638-.638.638.638,0,0,1,.638.638v6.971A.638.638,0,0,1-13.1-5.487Z" transform="translate(83.273 62.612)" fill="#353f8f"/>
  </g>
</svg>
