<svg id="Layer_1" data-name="Layer 1" xmlns="http://www.w3.org/2000/svg" xmlns:xlink="http://www.w3.org/1999/xlink" viewBox="0 0 440.24 188.85"><defs><style>.cls-1{fill:none;}.cls-2{fill:#08558c;}.cls-3{clip-path:url(#clip-path);}.cls-4{fill:url(#linear-gradient);}</style><clipPath id="clip-path" transform="translate(-1.98 -1.2)"><path class="cls-1" d="M424.69,188.32v-40.8q0-7.49-2.6-10.23c-1.74-1.83-4.61-2.74-8.64-2.74a12.37,12.37,0,0,0-10,4.75,15.3,15.3,0,0,0-2.61,5.08,21.4,21.4,0,0,0-.87,6.22v37.72H382.56V98.43h17.38v32.64a13.33,13.33,0,0,1,2.88-4.08,18.48,18.48,0,0,1,4.48-3.28,26,26,0,0,1,5.62-2.14,25.55,25.55,0,0,1,6.42-.8q10.17,0,16.52,5.55t6.35,15.45v46.55Zm-47.21-23.81a27.86,27.86,0,0,1-3.28,10.43,28.36,28.36,0,0,1-6.62,8,30.53,30.53,0,0,1-9.16,5.22,32.41,32.41,0,0,1-11.17,1.87A32.84,32.84,0,0,1,335,187.85a25.06,25.06,0,0,1-9.56-6.69,31.13,31.13,0,0,1-6.22-11.1A48.91,48.91,0,0,1,317,154.61a47.06,47.06,0,0,1,2.21-15.25,27.33,27.33,0,0,1,6.22-10.5,25.18,25.18,0,0,1,9.7-6.09,37.7,37.7,0,0,1,12.64-2,37.23,37.23,0,0,1,11.7,1.74,27.32,27.32,0,0,1,9.23,5.08,24.34,24.34,0,0,1,6.22,8A28.1,28.1,0,0,1,377.62,146H360.1a12.06,12.06,0,0,0-4.08-8,12.51,12.51,0,0,0-8.36-2.88,14.2,14.2,0,0,0-5.22.94,10.09,10.09,0,0,0-4.21,3.14,16.61,16.61,0,0,0-2.88,5.89,32.86,32.86,0,0,0-1.07,9q0,10.83,3.88,16.05t9,5.22a13.72,13.72,0,0,0,8.69-2.81A11.22,11.22,0,0,0,360,164.5h17.52ZM266.86,160q.4,7.48,4.35,11.9a13.25,13.25,0,0,0,10.37,4.41,14.62,14.62,0,0,0,7.56-1.94,8.77,8.77,0,0,0,4.21-5.42h17.92q-3.07,10.17-10.7,15.65A30.29,30.29,0,0,1,282.38,190q-32.91,0-32.9-35.85a41.69,41.69,0,0,1,2.14-13.78,29.88,29.88,0,0,1,6.22-10.57,26.87,26.87,0,0,1,10-6.75,36.36,36.36,0,0,1,13.51-2.34q15.26,0,23.07,9.76t7.82,29.43H266.86Zm27.42-11a18.42,18.42,0,0,0-1.27-6.35,13.34,13.34,0,0,0-3-4.55,12.08,12.08,0,0,0-4.28-2.68,14.47,14.47,0,0,0-5-.87,12.36,12.36,0,0,0-9,3.81c-2.54,2.54-4,6.09-4.35,10.63h26.9Zm-79.72,39.33V115H187.81V99.5H260V115H233.15v73.3Zm-27.83,0v-9.23q-6.67,11-20.45,11a22.79,22.79,0,0,1-9-1.74,20.08,20.08,0,0,1-7-4.95,23.37,23.37,0,0,1-4.61-7.62,27.86,27.86,0,0,1-1.67-9.9V122.51h17.39v40.66q0,12.3,11.1,12.31,6.69,0,10.1-4.21A16.6,16.6,0,0,0,186,160.5v-38H203.2v65.81Zm-67.14,0-.14-8q-6,9.77-18.33,9.76a27,27,0,0,1-11.5-2.41,25,25,0,0,1-9-7,33.7,33.7,0,0,1-5.89-11.1,47.66,47.66,0,0,1-2.14-14.85A48.86,48.86,0,0,1,74.44,141a32.25,32.25,0,0,1,5.28-10.77,23.93,23.93,0,0,1,8.49-7,25.52,25.52,0,0,1,11.44-2.47q12.16,0,19.53,10.3V98.43H136.3v89.89Zm-14.44-12.44a13,13,0,0,0,10.5-5.22q4.21-5.22,4.21-13.64,0-21.4-14.58-21.4-15,0-15,20.33,0,8.84,4.15,14.38A12.78,12.78,0,0,0,105.15,175.88ZM2.42,188.32V99.5H67.69V115H20.47v19H63.94v15.65H20.47v22.87H69.83v15.78H2.42Z"/></clipPath><linearGradient id="linear-gradient" x1="157.75" y1="35.17" x2="385.57" y2="86.64" gradientTransform="matrix(1, 0, 0, -1, -1.98, 192.8)" gradientUnits="userSpaceOnUse"><stop offset="0" stop-color="#16bef0"/><stop offset="1" stop-color="#54b952"/></linearGradient></defs><path class="cls-2" d="M156.09,86.22h19.64V17.72h18.2V2.64h-56V17.73h18.2V86.22ZM97.77,42c2-1.32,15-9.58,15-21.91,0-13.41-12-18.92-23.83-18.92-21.43,0-25.27,14-25.27,19.64,0,9,8.14,17.12,9.22,18.2C58.49,46.22,58,57.36,58,62.27c0,14.37,10.66,25.39,29,25.39,7.3,0,15.33-2.16,20.12-7.9l4.79,6.47h20.6L119.21,68.75A44.91,44.91,0,0,0,129.27,40H112.75c0,4.91-1,11.85-3.71,16.05Zm.72,27.42C96.33,72.08,93.34,74,88,74c-7.18,0-11.5-7.06-11.5-11.85,0-6.23,3.11-9.1,5.63-11.85ZM88.67,12.69c7.07,0,8,5.15,8,7.42,0,5.39-4.07,8.86-9,12.81-1.08-1.08-7.54-7.78-7.54-12.09C80.17,16.05,83.29,12.69,88.67,12.69ZM2,86.22h47.3V71.13H21.62V2.64H2Z" transform="translate(-1.98 -1.2)"/><g class="cls-3"><rect class="cls-4" x="0.44" y="97.23" width="439.8" height="91.62"/></g></svg>