<svg xmlns="http://www.w3.org/2000/svg" xmlns:xlink="http://www.w3.org/1999/xlink" width="86.656" height="85.212" viewBox="0 0 86.656 85.212">
  <defs>
    <clipPath id="clip-path">
      <rect id="Rectangle_1977" data-name="Rectangle 1977" width="86.656" height="85.212" fill="none"/>
    </clipPath>
  </defs>
  <g id="Group_8187" data-name="Group 8187" clip-path="url(#clip-path)">
    <path id="Path_15242" data-name="Path 15242" d="M54.108,1A17.331,17.331,0,0,0,36.777,18.331v1.444L31,35.663h8.666v10.11H55.553v7.221H71.44V18.331A17.331,17.331,0,0,0,54.108,1M42.554,19.2a6.9,6.9,0,0,0,9.762,0,6.9,6.9,0,0,1-9.762,0" transform="translate(13.772 0.444)" fill="#63c8cd"/>
    <path id="Path_15243" data-name="Path 15243" d="M16.887,66.772H32.774V56.663H41.44L35.663,40.776V39.331A17.331,17.331,0,0,0,1,39.331V73.994H16.887Zm13-26.576a6.9,6.9,0,0,1-9.762,0,6.9,6.9,0,0,0,9.762,0" transform="translate(0.444 9.774)" fill="#ef9f35"/>
    <path id="Path_15244" data-name="Path 15244" d="M54.553,0A18.8,18.8,0,0,0,35.777,18.776v1.19L30.088,35.613a1.444,1.444,0,0,0,1.356,1.938h7.221v8.666a1.443,1.443,0,0,0,1.444,1.444H54.553v5.777A1.443,1.443,0,0,0,56,54.882H71.884a1.443,1.443,0,0,0,1.444-1.444V18.776A18.8,18.8,0,0,0,54.553,0M70.44,51.994h-13V46.217A1.443,1.443,0,0,0,56,44.772H41.554V36.107a1.443,1.443,0,0,0-1.444-1.444h-6.6l5.071-13.949a1.448,1.448,0,0,0,.088-.494V18.776a15.887,15.887,0,1,1,31.774,0Z" transform="translate(13.328)" fill="#3c3c48"/>
    <path id="Path_15245" data-name="Path 15245" d="M40.335,12.892l-2.042,2.042a8.356,8.356,0,0,0,11.8,0l-2.042-2.042a5.468,5.468,0,0,1-7.72,0" transform="translate(17.013 5.728)" fill="#3c3c48"/>
    <path id="Path_15246" data-name="Path 15246" d="M1.444,75.882H17.331a1.443,1.443,0,0,0,1.444-1.444V68.661H33.218a1.443,1.443,0,0,0,1.444-1.444V58.551h7.221a1.444,1.444,0,0,0,1.356-1.938L37.551,40.966v-1.19A18.776,18.776,0,0,0,0,39.776V74.438a1.443,1.443,0,0,0,1.444,1.444M2.889,39.776a15.887,15.887,0,0,1,31.774,0V41.22a1.414,1.414,0,0,0,.088.494l5.071,13.949h-6.6a1.443,1.443,0,0,0-1.444,1.444v8.666H17.331a1.443,1.443,0,0,0-1.444,1.444v5.777h-13Z" transform="translate(0 9.33)" fill="#3c3c48"/>
    <path id="Path_15247" data-name="Path 15247" d="M25.338,35.934,23.3,33.892a5.464,5.464,0,0,1-7.72,0l-2.042,2.042a8.356,8.356,0,0,0,11.8,0" transform="translate(6.013 15.057)" fill="#3c3c48"/>
    <path id="Path_15248" data-name="Path 15248" d="M19.424,10.889H36.755V8H19.424A7.23,7.23,0,0,0,12.2,15.221v3.735l-1.867-1.867L8.293,19.131l4.333,4.333a1.444,1.444,0,0,0,2.042,0L19,19.131l-2.042-2.042-1.867,1.867V15.221a4.338,4.338,0,0,1,4.333-4.333" transform="translate(3.684 3.554)" fill="#3c3c48"/>
    <rect id="Rectangle_1975" data-name="Rectangle 1975" width="2.889" height="2.889" transform="translate(43.328 11.554)" fill="#3c3c48"/>
    <path id="Path_15249" data-name="Path 15249" d="M58.885,55.887H30v2.889H58.885a7.23,7.23,0,0,0,7.221-7.221V44.931L67.974,46.8l2.042-2.042-4.333-4.333a1.443,1.443,0,0,0-2.042,0l-4.333,4.333L61.351,46.8l1.867-1.867v6.623a4.338,4.338,0,0,1-4.333,4.333" transform="translate(13.328 17.771)" fill="#3c3c48"/>
    <rect id="Rectangle_1976" data-name="Rectangle 1976" width="2.889" height="2.889" transform="translate(37.551 73.658)" fill="#3c3c48"/>
  </g>
</svg>
