<svg xmlns="http://www.w3.org/2000/svg" xmlns:xlink="http://www.w3.org/1999/xlink" width="457.219" height="145.143" viewBox="0 0 457.219 145.143">
  <defs>
    <radialGradient id="radial-gradient" cx="0.5" cy="0.5" r="0.5" gradientUnits="objectBoundingBox">
      <stop offset="0.109" stop-color="#477fc0"/>
      <stop offset="0.281" stop-color="#7ea5d2"/>
      <stop offset="0.45" stop-color="#acc5e2"/>
      <stop offset="0.61" stop-color="#d0deee"/>
      <stop offset="0.759" stop-color="#e9f0f7"/>
      <stop offset="0.893" stop-color="#f9fbfd"/>
      <stop offset="1" stop-color="#fff"/>
    </radialGradient>
    <linearGradient id="linear-gradient" x1="0.028" y1="0.146" x2="1.049" y2="0.912" gradientUnits="objectBoundingBox">
      <stop offset="0" stop-color="#ffd334"/>
      <stop offset="1" stop-color="#ec6a4a"/>
    </linearGradient>
    <linearGradient id="linear-gradient-2" x1="0.079" y1="0.144" x2="1.024" y2="0.944" gradientUnits="objectBoundingBox">
      <stop offset="0" stop-color="#f2e500"/>
      <stop offset="1" stop-color="#72b641"/>
    </linearGradient>
    <radialGradient id="radial-gradient-2" cx="0.5" cy="0.5" r="0.5" gradientUnits="objectBoundingBox">
      <stop offset="0.109" stop-color="#32a836"/>
      <stop offset="0.164" stop-color="#46b04a"/>
      <stop offset="0.326" stop-color="#7ec880"/>
      <stop offset="0.484" stop-color="#acdbad"/>
      <stop offset="0.634" stop-color="#d0ebd1"/>
      <stop offset="0.774" stop-color="#e9f6ea"/>
      <stop offset="0.9" stop-color="#f9fcf9"/>
      <stop offset="1" stop-color="#fff"/>
    </radialGradient>
    <linearGradient id="linear-gradient-3" x1="0.023" y1="0.119" x2="1.045" y2="0.936" gradientUnits="objectBoundingBox">
      <stop offset="0" stop-color="#5fc4eb"/>
      <stop offset="1" stop-color="#514896"/>
    </linearGradient>
    <linearGradient id="linear-gradient-4" x1="0.081" y1="0.298" x2="1.051" y2="0.766" gradientUnits="objectBoundingBox">
      <stop offset="0" stop-color="#ebb1f8"/>
      <stop offset="0.405" stop-color="#ca63e3"/>
      <stop offset="1" stop-color="#750490"/>
    </linearGradient>
  </defs>
  <g id="Group_1391" data-name="Group 1391" transform="translate(-29.555 -660.943)">
    <g id="Group_943" data-name="Group 943">
      <circle id="Ellipse_19" data-name="Ellipse 19" cx="51.316" cy="51.316" r="51.316" transform="translate(249.481 763.432) rotate(-76.717)" opacity="0.6" fill="url(#radial-gradient)" style="mix-blend-mode: multiply;isolation: isolate"/>
      <g id="Group_936" data-name="Group 936">
        <circle id="Ellipse_20" data-name="Ellipse 20" cx="35.92" cy="35.92" r="35.92" transform="translate(274.964 675.904)" fill="url(#linear-gradient)"/>
        <g id="Group_935" data-name="Group 935">
          <path id="Path_2851" data-name="Path 2851" d="M310.884,749.462a37.638,37.638,0,1,1,37.638-37.638A37.681,37.681,0,0,1,310.884,749.462Zm0-71.84a34.2,34.2,0,1,0,34.2,34.2A34.241,34.241,0,0,0,310.884,677.622Z" fill="#fff"/>
        </g>
      </g>
      <g id="Group_940" data-name="Group 940">
        <g id="Group_937" data-name="Group 937" transform="translate(247.546 669.537)">
          <path id="Path_2852" data-name="Path 2852" d="M310.884,711.537a42.263,42.263,0,0,0-42.214,41.928H247.546v.573h21.7v-.287a41.642,41.642,0,1,1,83.284,0v.287h20.841v-.573H353.1A42.263,42.263,0,0,0,310.884,711.537Z" transform="translate(-247.546 -711.537)" fill="#9c9b9b"/>
        </g>
        <g id="Group_938" data-name="Group 938">
          <path id="Path_2853" data-name="Path 2853" d="M373.259,709.67a2.154,2.154,0,1,1-2.154,2.154A2.154,2.154,0,0,1,373.259,709.67Z" fill="#9c9b9b"/>
        </g>
        <g id="Group_939" data-name="Group 939">
          <path id="Path_2854" data-name="Path 2854" d="M247.653,709.67a2.154,2.154,0,1,0,2.154,2.154A2.154,2.154,0,0,0,247.653,709.67Z" fill="#9c9b9b"/>
        </g>
      </g>
      <g id="Group_942" data-name="Group 942">
        <g id="Group_941" data-name="Group 941">
          <path id="Path_2855" data-name="Path 2855" d="M310.906,711.471h-3.212c-.309,0-.463-.164-.463-.487,0-.56,0-1.121,0-1.681a3.884,3.884,0,0,1,1.459-3.1,3.129,3.129,0,0,1,.7-.437c.085-.039.1-.06.032-.142a2.223,2.223,0,0,1-.025-2.952,1.869,1.869,0,0,1,2.088-.618,2.017,2.017,0,0,1,1.443,1.695,2.168,2.168,0,0,1-.535,1.883c-.059.068-.052.088.025.127a3.835,3.835,0,0,1,2.136,2.952,2.544,2.544,0,0,1,.038.454c0,.61,0,1.22,0,1.83a.417.417,0,0,1-.449.474Zm0-.88h2.714c.069,0,.14.011.138-.1a12.187,12.187,0,0,0-.051-1.677,2.858,2.858,0,0,0-3.166-2.473,2.7,2.7,0,0,0-1.75.982,2.994,2.994,0,0,0-.707,1.761c-.032.448-.008.9-.023,1.343,0,.128.031.169.156.169C309.114,710.588,310.011,710.591,310.907,710.591Zm.02-7.723a1.275,1.275,0,0,0-.025,2.547,1.217,1.217,0,0,0,1.214-1.252A1.235,1.235,0,0,0,310.927,702.868Z" fill="#fff" stroke="#fff" stroke-width="0.5"/>
          <path id="Path_2856" data-name="Path 2856" d="M319.477,703.291h-3.225c-.3,0-.453-.166-.454-.481,0-.6-.011-1.2,0-1.8a3.87,3.87,0,0,1,1.162-2.718,3.426,3.426,0,0,1,1-.705c.086-.04.089-.063.026-.135a2.22,2.22,0,0,1-.555-1.753,2.138,2.138,0,0,1,1.6-1.862,2.046,2.046,0,0,1,2.448,1.641,2.193,2.193,0,0,1-.508,1.967c-.06.07-.075.094.022.144a3.828,3.828,0,0,1,2.143,3.076,7.358,7.358,0,0,1,.021.927c.005.412,0,.825,0,1.237a.415.415,0,0,1-.445.465Zm-.007-.88h2.715c.066,0,.143.019.141-.1a13.2,13.2,0,0,0-.048-1.664,2.815,2.815,0,0,0-4-2.228,2.905,2.905,0,0,0-1.624,2.517c-.035.434-.006.869-.021,1.3-.005.138.035.174.164.173C317.686,702.409,318.578,702.411,319.47,702.411Zm.013-5.172a1.234,1.234,0,0,0,1.2-1.284,1.221,1.221,0,0,0-1.216-1.265,1.277,1.277,0,0,0,.015,2.549Z" fill="#fff" stroke="#fff" stroke-width="0.5"/>
          <path id="Path_2857" data-name="Path 2857" d="M302.344,719.651h-3.225a.419.419,0,0,1-.455-.481c0-.56-.01-1.121,0-1.681a3.825,3.825,0,0,1,2.142-3.533c.1-.053.112-.074.034-.167a2.18,2.18,0,0,1-.438-2.175,2.008,2.008,0,0,1,1.605-1.441,2.066,2.066,0,0,1,2.36,1.779,2.228,2.228,0,0,1-.531,1.849c-.058.068-.078.094.021.144A3.821,3.821,0,0,1,306,717.021a8.951,8.951,0,0,1,.023,1.074c.005.372,0,.745,0,1.117a.408.408,0,0,1-.416.438Zm-.008-.88h2.715c.067,0,.143.018.14-.1a12.659,12.659,0,0,0-.048-1.664,2.81,2.81,0,0,0-3.956-2.248,2.887,2.887,0,0,0-1.672,2.551c-.033.43,0,.86-.02,1.29-.005.138.036.174.165.173C300.552,718.768,301.444,718.771,302.336,718.771Zm.014-5.172a1.278,1.278,0,1,0-1.213-1.274A1.256,1.256,0,0,0,302.35,713.6Z" fill="#fff" stroke="#fff" stroke-width="0.5"/>
          <path id="Path_2858" data-name="Path 2858" d="M308.5,699.4h6.31c.191,0,.191,0,.191.208,0,.166-.007.333,0,.5.007.133-.032.178-.164.177-.858-.006-1.716,0-2.575,0-3.267,0-6.535-.007-9.8,0a2.97,2.97,0,0,0-2.931,2.7,2.889,2.889,0,0,0,.7,2.241,2.74,2.74,0,0,0,2,1.041c.845.052,1.69.013,2.535.021.638.006,1.275,0,1.913,0,.119,0,.167.033.16.166-.009.183-.009.368,0,.551.006.129-.034.169-.158.168-1.168,0-2.337,0-3.505,0h-.829a3.863,3.863,0,0,1-3.615-3.132,3.979,3.979,0,0,1,2.315-4.367,3.454,3.454,0,0,1,1.329-.27Q305.44,699.4,308.5,699.4Z" fill="#fff" stroke="#fff" stroke-width="0.5"/>
          <path id="Path_2859" data-name="Path 2859" d="M313.323,716.637h-6.3c-.2,0-.2,0-.2-.21,0-.171.006-.342,0-.511-.006-.124.034-.162.152-.161.824,0,1.648,0,2.473,0h9.841a2.847,2.847,0,0,0,2.759-1.931,3,3,0,0,0-2.195-4.028,3.625,3.625,0,0,0-.6-.048q-1.836,0-3.672,0c-.192,0-.192,0-.193-.207,0-.179,0-.359,0-.538,0-.1.024-.137.122-.136,1.389,0,2.779-.023,4.168.013a3.216,3.216,0,0,1,2.126.927,3.929,3.929,0,0,1,1.271,3.231,3.848,3.848,0,0,1-2.778,3.488,3.547,3.547,0,0,1-.882.112q-3.046-.006-6.093,0Z" fill="#fff" stroke="#fff" stroke-width="0.5"/>
        </g>
      </g>
      <text id="INTERPERSONAL" transform="translate(288.119 729.655)" fill="#fff" font-size="5.5" font-family="Roboto-Bold, Roboto" font-weight="700" letter-spacing="0.03em"><tspan x="0" y="0">INTERPERSONAL</tspan></text>
    </g>
    <g id="Group_952" data-name="Group 952">
      <text id="_1" data-name="1" transform="translate(29.555 758.979)" fill="#9c9b9b" font-size="42" font-family="Roboto-Medium, Roboto" font-weight="500" opacity="0.1"><tspan x="0" y="0">1</tspan></text>
      <g id="Group_945" data-name="Group 945">
        <circle id="Ellipse_22" data-name="Ellipse 22" cx="35.92" cy="35.92" r="35.92" transform="translate(61.257 676.948)" fill="url(#linear-gradient-2)"/>
        <g id="Group_944" data-name="Group 944">
          <path id="Path_2860" data-name="Path 2860" d="M97.177,750.506a37.638,37.638,0,1,1,37.639-37.638A37.681,37.681,0,0,1,97.177,750.506Zm0-71.839a34.2,34.2,0,1,0,34.2,34.2A34.239,34.239,0,0,0,97.177,678.667Z" fill="#fff"/>
        </g>
      </g>
      <g id="Group_949" data-name="Group 949">
        <g id="Group_946" data-name="Group 946">
          <path id="Path_2861" data-name="Path 2861" d="M160.515,713.154h-21.7v-.286a41.642,41.642,0,0,0-83.284,0v.286H34.694v-.573H54.963a42.215,42.215,0,0,1,84.428,0h21.124Z" fill="#9c9b9b"/>
        </g>
        <g id="Group_947" data-name="Group 947">
          <path id="Path_2862" data-name="Path 2862" d="M34.8,715.022a2.154,2.154,0,1,1,2.154-2.154A2.154,2.154,0,0,1,34.8,715.022Z" fill="#9c9b9b"/>
        </g>
        <g id="Group_948" data-name="Group 948">
          <path id="Path_2863" data-name="Path 2863" d="M160.407,715.022a2.154,2.154,0,1,0-2.154-2.154A2.154,2.154,0,0,0,160.407,715.022Z" fill="#9c9b9b"/>
        </g>
      </g>
      <text id="THOUGHT" transform="translate(83.729 731.89)" fill="#fff" font-size="5.5" font-family="Roboto-Bold, Roboto" font-weight="700" letter-spacing="0.03em"><tspan x="0" y="0">THOUGHT</tspan></text>
      <g id="Group_951" data-name="Group 951">
        <g id="Group_950" data-name="Group 950">
          <path id="Path_2864" data-name="Path 2864" d="M94.317,720.531q-.162-1.312-.325-2.627c-.081-.657-.164-1.313-.239-1.971-.013-.108-.042-.136-.156-.124-.605.061-1.211.109-1.816.165-.581.053-1.161.111-1.742.166-.454.042-.909.081-1.362.125-.129.013-.168-.036-.178-.163-.05-.689-.11-1.378-.165-2.067-.044-.557-.083-1.115-.128-1.672-.054-.68-.111-1.359-.167-2.038a4.62,4.62,0,0,1-.033-.469c0-.14-.054-.174-.184-.174-.84.005-1.68,0-2.52,0-.029,0-.059,0-.088,0-.124.007-.154-.039-.112-.159.169-.482.33-.966.5-1.449q.946-2.766,1.894-5.531a1.264,1.264,0,0,0,.069-.418c0-.609-.021-1.218.033-1.826a10.873,10.873,0,0,1,.85-3.4,10.916,10.916,0,0,1,8.166-6.421,10.323,10.323,0,0,1,2.45-.134,10.9,10.9,0,0,1,9.819,7.869,10.864,10.864,0,0,1,.393,2.286,11.8,11.8,0,0,1-.617,4.417c-.747,2.373-1.456,4.759-2.181,7.139a.426.426,0,0,0-.014.2q.4,2.409.8,4.819c.173,1.05.339,2.1.517,3.15.022.129-.022.166-.132.184-.227.037-.454.077-.681.116h-.176q-.339-2.046-.676-4.092l-.63-3.831a.833.833,0,0,0-.016-.087,1.41,1.41,0,0,1,.04-.8q1.191-3.861,2.362-7.729a9.378,9.378,0,0,0,.392-2.418,9.854,9.854,0,0,0-6.5-9.631,9.379,9.379,0,0,0-2.64-.553,9.867,9.867,0,0,0-10.385,8.085,10.178,10.178,0,0,0-.152,2.272,4.01,4.01,0,0,1-.247,1.509c-.607,1.722-1.187,3.454-1.777,5.182-.011.032-.021.065-.034.1-.039.093,0,.121.091.12.324,0,.649,0,.973,0,.388,0,.776,0,1.164,0,.137,0,.195.045.205.181q.072,1.02.153,2.039c.063.791.132,1.583.2,2.374.045.562.088,1.125.125,1.687.016.23.023.235.251.212.463-.048.927-.085,1.391-.128l1.815-.168,1.626-.151c.088-.008.123.031.133.115.059.5.118.993.18,1.489q.141,1.138.285,2.276.1.848.21,1.693c.013.1-.023.149-.132.16-.263.029-.524.07-.786.106Z" fill="#fff" stroke="#fff" stroke-width="0.4"/>
          <path id="Path_2865" data-name="Path 2865" d="M103.366,700.687c.142,0,.285,0,.427,0,.1,0,.141.042.139.141,0,.245,0,.491,0,.736,0,.109-.044.147-.15.145-.275,0-.55,0-.825,0-.1,0-.138.024-.152.128a4.038,4.038,0,0,1-.271,1.006.119.119,0,0,0,.062.178c.244.137.483.281.728.418.083.047.114.092.058.185-.132.218-.261.438-.384.662-.052.1-.1.092-.187.042-.236-.142-.478-.272-.713-.415-.088-.054-.143-.052-.208.034a3.8,3.8,0,0,1-.728.727c-.072.056-.086.1-.037.182.145.239.277.487.423.725.063.1.04.153-.059.206-.215.118-.428.242-.637.369-.086.052-.136.045-.187-.047-.135-.245-.281-.484-.417-.729a.127.127,0,0,0-.189-.067,3.8,3.8,0,0,1-.978.261c-.1.011-.14.066-.139.168,0,.265,0,.53,0,.8,0,.125-.044.179-.172.176q-.347-.009-.692,0c-.135,0-.181-.051-.177-.184.007-.26,0-.521,0-.781a.144.144,0,0,0-.147-.173,3.783,3.783,0,0,1-.964-.261.131.131,0,0,0-.2.071c-.13.237-.273.467-.4.7-.059.109-.114.121-.218.056-.2-.128-.413-.246-.625-.361-.1-.052-.11-.1-.054-.2.143-.236.275-.477.416-.713.051-.085.055-.14-.036-.207a3.524,3.524,0,0,1-.708-.7c-.08-.1-.141-.1-.243-.039-.225.14-.459.265-.685.4-.092.056-.146.049-.2-.049-.118-.215-.239-.429-.368-.637-.062-.1-.038-.154.059-.208.236-.131.467-.272.7-.4.088-.048.119-.092.076-.2a3.881,3.881,0,0,1-.271-1.021c-.012-.1-.069-.1-.142-.1-.275,0-.55,0-.825,0-.113,0-.16-.036-.157-.153q.009-.353,0-.707c0-.119.036-.167.16-.164.275.006.55,0,.825,0,.089,0,.128-.024.141-.121a3.991,3.991,0,0,1,.271-1.007c.036-.084.025-.131-.058-.176-.241-.133-.475-.278-.716-.409-.1-.057-.129-.113-.063-.219.125-.2.245-.4.354-.612.062-.119.123-.123.229-.057.221.137.452.259.674.4.1.059.159.058.233-.04a3.579,3.579,0,0,1,.708-.7.132.132,0,0,0,.041-.208c-.135-.222-.262-.449-.393-.675-.1-.164-.1-.164.076-.263.2-.116.4-.228.6-.348.089-.055.138-.039.187.05.136.244.281.484.416.728a.127.127,0,0,0,.189.068,3.794,3.794,0,0,1,.993-.265c.094-.012.122-.062.121-.149,0-.27,0-.54,0-.81,0-.119.037-.168.162-.164.24.008.481.007.721,0,.117,0,.158.043.157.155,0,.26,0,.521,0,.781,0,.129.042.176.174.193a3.513,3.513,0,0,1,.921.25.144.144,0,0,0,.221-.077c.129-.243.277-.476.409-.716.048-.086.093-.1.174-.048.219.131.441.259.664.382.091.051.1.1.046.189-.144.24-.277.486-.423.725a.125.125,0,0,0,.038.2,3.909,3.909,0,0,1,.728.726.129.129,0,0,0,.2.035c.24-.144.486-.278.726-.422.089-.054.135-.038.184.051.121.219.247.435.376.65.053.086.04.138-.049.188-.244.136-.483.282-.727.418a.126.126,0,0,0-.068.188,4.028,4.028,0,0,1,.272,1.006c.014.1.06.119.145.116.138,0,.276,0,.413,0ZM98.421,697.8a3.4,3.4,0,1,0,3.408,3.333A3.407,3.407,0,0,0,98.421,697.8Z" fill="#fff" stroke="#fff" stroke-width="0.4"/>
          <path id="Path_2866" data-name="Path 2866" d="M106.438,701.157c.118,0,.236,0,.353,0s.151.028.151.141a9.476,9.476,0,0,1-.064.967c-.007.072-.041.1-.117.094l-.8-.106c-.078-.01-.1-.061-.1-.135.029-.288.055-.576.059-.865,0-.081.053-.1.119-.1Z" fill="#fff" stroke="#fff" stroke-width="0.4"/>
          <path id="Path_2867" data-name="Path 2867" d="M104.225,707.388a.1.1,0,0,1-.05.093,8.956,8.956,0,0,1-.764.623c-.061.044-.1.04-.146-.022-.155-.221-.311-.442-.468-.661-.041-.058-.046-.1.017-.149a7.077,7.077,0,0,0,.671-.55.079.079,0,0,1,.127,0l.585.622A.232.232,0,0,1,104.225,707.388Z" fill="#fff" stroke="#fff" stroke-width="0.4"/>
          <path id="Path_2868" data-name="Path 2868" d="M94.951,694.508c0,.057-.039.072-.073.09a6.705,6.705,0,0,0-.7.43c-.08.056-.129.037-.18-.038-.148-.213-.3-.425-.45-.635-.049-.067-.043-.109.025-.156q.4-.273.827-.506c.078-.043.122-.029.162.05.117.232.239.461.358.691A.687.687,0,0,1,94.951,694.508Z" fill="#fff" stroke="#fff" stroke-width="0.4"/>
          <path id="Path_2869" data-name="Path 2869" d="M100.2,692.87a7.112,7.112,0,0,1,.992.274c.06.021.065.066.046.119-.091.26-.183.518-.271.779-.026.077-.074.081-.138.058a7.327,7.327,0,0,0-.807-.225c-.082-.019-.1-.056-.086-.135.054-.259.1-.519.157-.778C100.1,692.906,100.123,692.855,100.2,692.87Z" fill="#fff" stroke="#fff" stroke-width="0.4"/>
          <path id="Path_2870" data-name="Path 2870" d="M105.68,705.654c-.01.018-.023.044-.039.069a9.078,9.078,0,0,1-.542.767c-.054.07-.1.079-.168.021q-.3-.254-.615-.5c-.064-.051-.071-.095-.02-.158a6.74,6.74,0,0,0,.483-.683c.036-.058.076-.087.144-.045.237.146.476.291.713.438C105.665,705.581,105.695,705.6,105.68,705.654Z" fill="#fff" stroke="#fff" stroke-width="0.4"/>
          <path id="Path_2871" data-name="Path 2871" d="M94.1,707.364a.788.788,0,0,1-.04.069c-.149.212-.3.422-.447.637-.054.079-.1.086-.178.03-.252-.186-.494-.385-.729-.593-.07-.061-.078-.11-.011-.181q.269-.281.528-.572a.1.1,0,0,1,.172-.007,6.834,6.834,0,0,0,.649.528A.1.1,0,0,1,94.1,707.364Z" fill="#fff" stroke="#fff" stroke-width="0.4"/>
          <path id="Path_2872" data-name="Path 2872" d="M105,695.791a.1.1,0,0,1-.051.092c-.205.169-.411.336-.613.507-.076.064-.125.046-.183-.024a5.118,5.118,0,0,0-.534-.568c-.078-.068-.089-.124-.01-.2.174-.18.342-.366.509-.553.06-.067.111-.081.183-.012q.345.333.656.7A.648.648,0,0,1,105,695.791Z" fill="#fff" stroke="#fff" stroke-width="0.4"/>
          <path id="Path_2873" data-name="Path 2873" d="M106.608,703.565a8.009,8.009,0,0,1-.346.967c-.027.06-.069.057-.121.034q-.376-.165-.755-.327c-.074-.031-.077-.079-.05-.141a7.445,7.445,0,0,0,.276-.775c.027-.091.077-.112.165-.086.245.072.491.138.736.208C106.572,703.461,106.63,703.481,106.608,703.565Z" fill="#fff" stroke="#fff" stroke-width="0.4"/>
          <path id="Path_2874" data-name="Path 2874" d="M98.387,693.718c-.128,0-.255,0-.383,0-.081,0-.128-.021-.134-.113-.015-.259-.035-.518-.055-.777-.007-.1.039-.126.13-.132a5.959,5.959,0,0,1,.926,0c.088.008.122.032.116.123-.017.255-.027.509-.039.764,0,.1-.049.14-.149.136C98.662,693.714,98.524,693.718,98.387,693.718Z" fill="#fff" stroke="#fff" stroke-width="0.4"/>
          <path id="Path_2875" data-name="Path 2875" d="M90.425,701.191c.123,0,.246,0,.368,0,.1,0,.145.034.143.138a5.323,5.323,0,0,0,.055.777c.014.1-.011.153-.126.166-.248.028-.495.069-.742.107-.089.013-.137-.012-.148-.111-.032-.3-.058-.6-.063-.9,0-.145.052-.193.189-.183C90.209,701.2,90.317,701.191,90.425,701.191Z" fill="#fff" stroke="#fff" stroke-width="0.4"/>
          <path id="Path_2876" data-name="Path 2876" d="M90.25,703.579c-.014-.077.03-.1.079-.115.26-.073.52-.144.779-.218.074-.021.107,0,.128.073a7.129,7.129,0,0,0,.284.789c.032.073.019.116-.058.149q-.366.154-.728.318c-.083.038-.124.015-.157-.065a7.789,7.789,0,0,1-.315-.887Z" fill="#fff" stroke="#fff" stroke-width="0.4"/>
          <path id="Path_2877" data-name="Path 2877" d="M96.879,693.768c.01.092-.045.109-.1.121a6.783,6.783,0,0,0-.791.223.1.1,0,0,1-.147-.068c-.089-.249-.178-.5-.269-.746-.028-.075-.015-.12.064-.147a8.418,8.418,0,0,1,.946-.268c.052-.012.1-.006.118.055C96.764,693.22,96.823,693.5,96.879,693.768Z" fill="#fff" stroke="#fff" stroke-width="0.4"/>
          <path id="Path_2878" data-name="Path 2878" d="M103.3,694.267c-.012.02-.025.046-.042.07-.148.213-.3.424-.445.639-.05.074-.1.082-.167.032a6.464,6.464,0,0,0-.7-.426c-.077-.041-.093-.086-.052-.164.121-.23.241-.46.356-.693.043-.087.092-.1.174-.051.274.152.544.312.8.488C103.258,694.186,103.3,694.205,103.3,694.267Z" fill="#fff" stroke="#fff" stroke-width="0.4"/>
          <path id="Path_2879" data-name="Path 2879" d="M91.993,697.346c-.009.019-.022.045-.037.07a6.732,6.732,0,0,0-.363.707c-.042.1-.093.108-.182.068q-.348-.157-.7-.3c-.082-.034-.1-.075-.063-.157a8.745,8.745,0,0,1,.44-.849c.037-.064.077-.1.153-.052.233.145.469.286.7.429C91.972,697.276,92,697.295,91.993,697.346Z" fill="#fff" stroke="#fff" stroke-width="0.4"/>
          <path id="Path_2880" data-name="Path 2880" d="M91.983,705.118c.051-.007.072.029.093.062a7.934,7.934,0,0,0,.485.681.1.1,0,0,1-.016.161c-.21.168-.419.339-.626.511-.058.049-.1.044-.146-.016a9.769,9.769,0,0,1-.568-.8c-.032-.05-.053-.1.013-.137l.727-.444A.4.4,0,0,1,91.983,705.118Z" fill="#fff" stroke="#fff" stroke-width="0.4"/>
          <path id="Path_2881" data-name="Path 2881" d="M105.947,700.152c-.065.02-.1-.009-.117-.1a5.761,5.761,0,0,0-.167-.791c-.029-.1,0-.142.1-.167.242-.063.482-.132.722-.205.1-.03.14,0,.166.1.078.3.139.6.194.906.018.1-.026.146-.12.158Z" fill="#fff" stroke="#fff" stroke-width="0.4"/>
          <path id="Path_2882" data-name="Path 2882" d="M95.006,707.875c.03.012.062.024.093.039a5.819,5.819,0,0,0,.7.3c.109.038.131.091.09.2-.089.229-.169.461-.247.694-.032.1-.077.119-.174.082q-.441-.17-.864-.377c-.079-.039-.1-.081-.056-.16.122-.23.24-.462.36-.693C94.932,707.921,94.948,707.877,95.006,707.875Z" fill="#fff" stroke="#fff" stroke-width="0.4"/>
          <path id="Path_2883" data-name="Path 2883" d="M90,700.005a7.455,7.455,0,0,1,.2-1,.092.092,0,0,1,.132-.074q.388.109.778.215c.083.022.092.068.073.143a6.472,6.472,0,0,0-.162.79c-.011.085-.05.133-.147.118-.256-.039-.512-.076-.769-.108C90.022,700.079,89.979,700.055,90,700.005Z" fill="#fff" stroke="#fff" stroke-width="0.4"/>
          <path id="Path_2884" data-name="Path 2884" d="M97.922,708.939c-.012.2-.025.411-.035.616,0,.106-.056.148-.161.136-.306-.037-.612-.069-.915-.13-.089-.019-.124-.058-.1-.153q.087-.379.158-.762c.016-.087.059-.1.133-.09.278.058.561.083.843.117.068.008.1.036.086.1s-.006.108-.009.162Z" fill="#fff" stroke="#fff" stroke-width="0.4"/>
          <path id="Path_2885" data-name="Path 2885" d="M98.931,708.823c-.021-.091.029-.151.171-.165.253-.025.505-.065.757-.1.087-.014.126.015.143.1.051.255.105.509.159.763.017.084-.01.126-.1.143-.308.058-.62.095-.931.131-.09.01-.135-.021-.141-.12C98.977,709.336,98.954,709.1,98.931,708.823Z" fill="#fff" stroke="#fff" stroke-width="0.4"/>
          <path id="Path_2886" data-name="Path 2886" d="M101.846,707.875c.058-.012.075.027.093.061.125.239.248.478.374.716.039.074.017.117-.053.152a8.169,8.169,0,0,1-.874.382c-.075.028-.126.026-.157-.065-.085-.25-.175-.5-.266-.747a.1.1,0,0,1,.067-.147c.263-.095.515-.215.768-.332Z" fill="#fff" stroke="#fff" stroke-width="0.4"/>
          <path id="Path_2887" data-name="Path 2887" d="M105.636,696.764c.061-.009.078.031.1.063a9.287,9.287,0,0,1,.458.873c.032.07.011.108-.057.138q-.365.156-.727.32c-.078.035-.127.022-.162-.06a6.1,6.1,0,0,0-.38-.731.1.1,0,0,1,.037-.158c.227-.136.452-.276.678-.415C105.6,696.782,105.623,696.771,105.636,696.764Z" fill="#fff" stroke="#fff" stroke-width="0.4"/>
          <path id="Path_2888" data-name="Path 2888" d="M93.28,695.705a.114.114,0,0,1-.05.092,7.359,7.359,0,0,0-.568.617.1.1,0,0,1-.16.013q-.308-.252-.618-.5a.1.1,0,0,1-.017-.159,8.336,8.336,0,0,1,.673-.72c.04-.039.081-.056.127-.008.195.207.391.413.586.621A.193.193,0,0,1,93.28,695.705Z" fill="#fff" stroke="#fff" stroke-width="0.4"/>
          <path id="Path_2889" data-name="Path 2889" d="M98.418,703.152a1.941,1.941,0,0,1-1.953-1.943,1.962,1.962,0,1,1,3.924-.014A1.947,1.947,0,0,1,98.418,703.152Zm.936-1.954a.923.923,0,0,0-.929-.936.935.935,0,1,0,0,1.87A.918.918,0,0,0,99.354,701.2Z" fill="#fff" stroke="#fff" stroke-width="0.4"/>
        </g>
      </g>
    </g>
    <g id="Group_961" data-name="Group 961">
      <circle id="Ellipse_23" data-name="Ellipse 23" cx="51.316" cy="51.316" r="51.316" transform="translate(131.779 733.514) rotate(-45)" opacity="0.6" fill="url(#radial-gradient-2)" style="mix-blend-mode: multiply;isolation: isolate"/>
      <g id="Group_954" data-name="Group 954">
        <circle id="Ellipse_24" data-name="Ellipse 24" cx="35.92" cy="35.92" r="35.92" transform="translate(168.1 684.139)" fill="url(#linear-gradient-3)"/>
        <g id="Group_953" data-name="Group 953">
          <path id="Path_2890" data-name="Path 2890" d="M204.02,757.7a37.639,37.639,0,1,1,37.638-37.638A37.681,37.681,0,0,1,204.02,757.7Zm0-71.84a34.2,34.2,0,1,0,34.2,34.2A34.24,34.24,0,0,0,204.02,685.857Z" fill="#fff"/>
        </g>
      </g>
      <g id="Group_958" data-name="Group 958">
        <g id="Group_955" data-name="Group 955">
          <path id="Path_2891" data-name="Path 2891" d="M204.02,762.273a42.262,42.262,0,0,1-42.214-41.928H140.682v-.573h21.7v.287a41.642,41.642,0,0,0,83.284,0v-.287H266.5v.573H246.234A42.262,42.262,0,0,1,204.02,762.273Z" fill="#9c9b9b"/>
        </g>
        <g id="Group_956" data-name="Group 956">
          <path id="Path_2892" data-name="Path 2892" d="M266.395,717.905a2.154,2.154,0,1,1-2.154,2.154A2.154,2.154,0,0,1,266.395,717.905Z" fill="#9c9b9b"/>
        </g>
        <g id="Group_957" data-name="Group 957">
          <path id="Path_2893" data-name="Path 2893" d="M140.789,717.905a2.154,2.154,0,1,0,2.154,2.154A2.153,2.153,0,0,0,140.789,717.905Z" fill="#9c9b9b"/>
        </g>
      </g>
      <text id="PERSONAL" transform="translate(203.974 737.89)" fill="#fff" font-size="5.5" font-family="Roboto-Bold, Roboto" font-weight="700" letter-spacing="0.03em"><tspan x="-14" y="0">PERSONAL</tspan></text>
      <g id="Group_960" data-name="Group 960">
        <g id="Group_959" data-name="Group 959">
          <path id="Path_2894" data-name="Path 2894" d="M201.928,706.192a2.644,2.644,0,1,1,4.006-.015c.034.034.078.017.116.017.282,0,.565,0,.847,0a.466.466,0,0,0,.517-.517q0-1.668,0-3.336c0-.37.152-.523.522-.523h1.654a.43.43,0,0,1,.468.466c0,1.171,0,2.343,0,3.514a2.978,2.978,0,0,1-1.1,2.32c-.089.077-.092.113-.013.2a8.093,8.093,0,0,1,1.067,1.583,5.947,5.947,0,0,0,.921,1.335,1.99,1.99,0,0,0,1.19.615,1.342,1.342,0,0,0,.471-.061.45.45,0,0,1,.511.2.456.456,0,0,1-.023.514.338.338,0,0,1-.144.122,2.277,2.277,0,0,0-.95.82c-.321.414-.619.847-.946,1.256a3.292,3.292,0,0,1-2.146,1.27,4.271,4.271,0,0,1-1.211-.006c-.112-.016-.151,0-.122.119.072.315.136.631.2.948.015.07.045.11.127.109a.421.421,0,0,1,.337.181l2.852,3.478,3.945,4.81c.4.493.81.985,1.21,1.482a.268.268,0,0,0,.244.114c.15-.008.3,0,.451,0,.1,0,.128.037.126.129,0,.205-.007.41,0,.615.006.124-.044.154-.159.153-.72,0-1.441,0-2.161,0h-23.71c-.274,0-.245.025-.247-.252,0-.165.005-.329,0-.493,0-.11.031-.158.147-.151.136.008.274-.006.41,0a.3.3,0,0,0,.278-.13q1.188-1.458,2.381-2.91,2.8-3.414,5.6-6.828a.453.453,0,0,1,.37-.2c.1,0,.1-.079.112-.142.089-.409.175-.818.263-1.228q.462-2.161.924-4.325a.862.862,0,0,0,.018-.176c0-.752,0-1.5,0-2.256,0-.131-.035-.177-.168-.169a3.091,3.091,0,0,1-3.312-2.646,4.044,4.044,0,0,1-.022-.641q0-1.62,0-3.241a.434.434,0,0,1,.485-.49c.561,0,1.122,0,1.682,0a.433.433,0,0,1,.477.473q0,1.641,0,3.282c0,.059,0,.119,0,.177a.431.431,0,0,0,.423.437C201.207,706.2,201.557,706.192,201.928,706.192Zm13.218,21c-.047-.061-.076-.1-.107-.139q-2.275-2.775-4.548-5.552c-.079-.1-.12-.1-.207-.011-.528.536-1.062,1.066-1.594,1.6a.479.479,0,0,1-.781,0l-1.673-1.672c-.124-.124-.125-.124-.253,0l-1.663,1.663a.482.482,0,0,1-.791,0c-.561-.56-1.123-1.119-1.68-1.684-.091-.091-.142-.084-.229,0-.551.558-1.107,1.111-1.661,1.665a.49.49,0,0,1-.82,0q-.794-.792-1.585-1.586c-.063-.063-.109-.1-.179-.005s-.171.213-.258.319q-2.033,2.478-4.064,4.958c-.114.139-.226.279-.354.437Zm-11.212-20.1q-1.545,0-3.09,0a1.316,1.316,0,0,1-1.23-.859,1.809,1.809,0,0,1-.076-.66c0-.9,0-1.8,0-2.707,0-.109-.027-.157-.145-.152-.2.009-.4.005-.6,0-.082,0-.113.03-.112.112.015,1.044-.033,2.087.025,3.13a2.149,2.149,0,0,0,1.712,1.936,7.216,7.216,0,0,0,1.281.054.438.438,0,0,1,.484.48q0,1.5,0,2.994a.937.937,0,0,1-.017.2c-.2.934-.4,1.868-.6,2.8q-.274,1.281-.553,2.561c-.024.11-.008.154.119.151.314-.009.629-.009.943,0,.132,0,.194-.035.224-.169.094-.413.2-.823.3-1.233q.427-1.71.854-3.418c.077-.306.222-.436.478-.434s.382.137.458.441c.031.123.061.247.092.371q.533,2.133,1.063,4.266a.192.192,0,0,0,.232.176c.314-.01.629-.009.943,0,.123,0,.136-.043.114-.143q-.486-2.249-.967-4.5a5.393,5.393,0,0,1-.2-1c-.018-1.043-.008-2.087-.005-3.131a.417.417,0,0,1,.419-.417c.177,0,.355,0,.533,0a3.565,3.565,0,0,0,.869-.069,2.159,2.159,0,0,0,1.672-2.131c.023-.97.005-1.942.008-2.912,0-.1-.043-.124-.133-.122-.186.005-.374.01-.56,0-.135-.008-.168.042-.168.171.005.971,0,1.942,0,2.912a1.3,1.3,0,0,1-1.3,1.295Q205.473,707.091,203.934,707.089Zm5.852,13.583a.351.351,0,0,0-.089-.132c-.6-.73-1.205-1.451-1.788-2.193a.762.762,0,0,0-.681-.326c-2.288.015-4.576.008-6.863.008a.254.254,0,0,0-.23.086q-1,1.224-2,2.441c-.08.1-.07.152.015.235.43.422.856.846,1.276,1.277.1.1.151.1.248,0,.56-.568,1.126-1.129,1.689-1.694a.526.526,0,0,1,.385-.177.506.506,0,0,1,.368.181c.564.564,1.13,1.126,1.69,1.694.091.092.143.1.238,0,.559-.569,1.126-1.13,1.689-1.695a.527.527,0,0,1,.409-.183.518.518,0,0,1,.353.184q.856.856,1.71,1.712c.068.069.114.082.188.007.442-.448.888-.891,1.333-1.336A.161.161,0,0,0,209.786,720.672Zm-1.438-5.587a2.336,2.336,0,0,0,1.882-.829c.432-.489.765-1.055,1.185-1.554.04-.048.033-.076-.027-.1a3.075,3.075,0,0,1-.288-.128,3.74,3.74,0,0,1-1.408-1.342c-.322-.487-.581-1.012-.89-1.506a4.1,4.1,0,0,0-.711-.88c-.045-.04-.083-.076-.156-.052a3.3,3.3,0,0,1-1.186.146c-.189-.006-.19,0-.19.183,0,.752,0,1.5,0,2.256a.871.871,0,0,0,.022.19q.21.974.417,1.949c.1.476.2.952.306,1.428.014.065.008.145.115.158A6.457,6.457,0,0,0,208.348,715.085Zm-4.433-12.369a1.732,1.732,0,0,0-1.724,1.743,1.732,1.732,0,0,0,3.464,0A1.73,1.73,0,0,0,203.915,702.716Zm.017,11.532a.668.668,0,0,0-.033.072c-.227.9-.452,1.808-.681,2.711-.026.1.023.1.1.1.391,0,.782,0,1.174,0,.166,0,.166,0,.127-.156q-.177-.708-.355-1.416C204.155,715.136,204.048,714.709,203.932,714.248Z" fill="#fff" stroke="#fff" stroke-width="0.1"/>
          <path id="Path_2895" data-name="Path 2895" d="M194.958,716.279h-3.609a.456.456,0,0,1-.512-.406,2.2,2.2,0,0,1,1.889-2.669,1.96,1.96,0,0,1,.917.093.163.163,0,0,0,.2-.048,3.03,3.03,0,0,1,2.49-.923,3.091,3.091,0,0,1,2.759,2.633,3.487,3.487,0,0,1,0,.884.456.456,0,0,1-.5.436Zm-.012-.894h2.8c.123,0,.246,0,.369,0,.065,0,.1-.013.094-.092a2.165,2.165,0,0,0-2.518-2.039,2.132,2.132,0,0,0-1.4.87.457.457,0,0,1-.667.151,1.348,1.348,0,0,0-.815-.162,1.309,1.309,0,0,0-1.107,1.12c-.01.121.015.155.141.154C192.876,715.382,193.911,715.384,194.946,715.385Z" fill="#fff" stroke="#fff" stroke-width="0.1"/>
          <path id="Path_2896" data-name="Path 2896" d="M217.061,718.027a.429.429,0,0,1-.426.44,2.2,2.2,0,0,0-2.2,2.191.447.447,0,0,1-.893,0,2.205,2.205,0,0,0-2.2-2.194.446.446,0,0,1,0-.892,2.216,2.216,0,0,0,1.608-.7,2.055,2.055,0,0,0,.569-1.286c.006-.082.016-.164.024-.245a.434.434,0,0,1,.46-.393.428.428,0,0,1,.432.4,2.257,2.257,0,0,0,.485,1.394,2.1,2.1,0,0,0,1.525.805c.081.006.163.014.244.024A.436.436,0,0,1,217.061,718.027Zm-3.06-.991c-.046,0-.056.036-.073.061a3.093,3.093,0,0,1-.864.861c-.07.046-.074.075,0,.123a3,3,0,0,1,.863.862c.046.07.076.073.124,0a3.009,3.009,0,0,1,.862-.861c.072-.048.071-.078,0-.125a3.012,3.012,0,0,1-.863-.861C214.034,717.074,214.016,717.054,214,717.036Z" fill="#fff" stroke="#fff" stroke-width="0.1"/>
          <path id="Path_2897" data-name="Path 2897" d="M193.861,701.82a.426.426,0,0,1,.444.421,2.2,2.2,0,0,0,1.128,1.923,2.337,2.337,0,0,0,1.073.281.447.447,0,0,1,0,.894,2.2,2.2,0,0,0-2.2,2.181.447.447,0,1,1-.894-.006,2.2,2.2,0,0,0-.955-1.787,2.289,2.289,0,0,0-1.247-.388.429.429,0,0,1-.424-.443.425.425,0,0,1,.416-.45,2.222,2.222,0,0,0,1.611-.7,2.063,2.063,0,0,0,.576-1.3c.006-.091.014-.182.027-.272A.432.432,0,0,1,193.861,701.82Zm.982,3.061a.6.6,0,0,0-.057-.047,3.073,3.073,0,0,1-.871-.874c-.047-.071-.075-.057-.115,0a3.06,3.06,0,0,1-.873.872c-.071.047-.057.074,0,.115a3.041,3.041,0,0,1,.864.861c.042.063.07.089.123.007a3.032,3.032,0,0,1,.872-.872C194.812,704.933,194.84,704.922,194.843,704.881Z" fill="#fff" stroke="#fff" stroke-width="0.1"/>
          <path id="Path_2898" data-name="Path 2898" d="M202.62,725.936c-.018.111.063.287-.036.379s-.261.023-.4.028c-.118,0-.237,0-.355,0-.074,0-.108-.028-.107-.1q0-.342,0-.682c0-.074.029-.108.1-.108.227,0,.455,0,.682,0,.086,0,.109.042.107.118C202.618,725.681,202.62,725.795,202.62,725.936Z" fill="#fff" stroke="#fff" stroke-width="0.1"/>
          <path id="Path_2899" data-name="Path 2899" d="M203.477,725.883c0-.109,0-.219,0-.328,0-.075.03-.106.1-.106.228,0,.455,0,.683,0,.075,0,.106.031.1.106q0,.342,0,.682c0,.075-.03.107-.1.106-.228,0-.455,0-.683,0-.074,0-.107-.03-.106-.105C203.478,726.119,203.477,726,203.477,725.883Z" fill="#fff" stroke="#fff" stroke-width="0.1"/>
          <path id="Path_2900" data-name="Path 2900" d="M206.12,725.91c0,.109,0,.218,0,.328,0,.074-.031.106-.106.106-.227,0-.455,0-.682,0-.075,0-.107-.03-.106-.105,0-.228,0-.455,0-.683,0-.074.031-.106.1-.106.228,0,.455,0,.683,0,.075,0,.107.031.106.106C206.118,725.673,206.12,725.792,206.12,725.91Z" fill="#fff" stroke="#fff" stroke-width="0.1"/>
        </g>
      </g>
    </g>
    <g id="Group_970" data-name="Group 970">
      <g id="Group_963" data-name="Group 963">
        <circle id="Ellipse_26" data-name="Ellipse 26" cx="35.92" cy="35.92" r="35.92" transform="translate(385.47 684.203)" fill="url(#linear-gradient-4)"/>
        <g id="Group_962" data-name="Group 962">
          <path id="Path_2901" data-name="Path 2901" d="M421.39,757.761a37.638,37.638,0,1,1,37.639-37.639A37.681,37.681,0,0,1,421.39,757.761Zm0-71.84a34.2,34.2,0,1,0,34.2,34.2A34.24,34.24,0,0,0,421.39,685.921Z" fill="#fff"/>
        </g>
      </g>
      <g id="Group_967" data-name="Group 967" transform="translate(356.861 717.908)">
        <g id="Group_964" data-name="Group 964" transform="translate(2.046 1.867)">
          <path id="Path_2902" data-name="Path 2902" d="M484.728,677.908h-21.7v.287a41.642,41.642,0,0,1-83.284,0v-.287H358.907v.573h20.269a42.214,42.214,0,0,0,84.427,0h21.125Z" transform="translate(-358.907 -677.908)" fill="#9c9b9b"/>
        </g>
        <g id="Group_965" data-name="Group 965">
          <path id="Path_2903" data-name="Path 2903" d="M359.015,717.969a2.154,2.154,0,1,0,2.154,2.153A2.153,2.153,0,0,0,359.015,717.969Z" transform="translate(-356.861 -717.969)" fill="#9c9b9b"/>
        </g>
        <g id="Group_966" data-name="Group 966" transform="translate(125.606)">
          <path id="Path_2904" data-name="Path 2904" d="M484.62,717.969a2.154,2.154,0,1,1-2.153,2.153A2.153,2.153,0,0,1,484.62,717.969Z" transform="translate(-482.467 -717.969)" fill="#9c9b9b"/>
        </g>
      </g>
      <text id="EMOTION" transform="translate(408.615 739.145)" fill="#fff" font-size="5.5" font-family="Roboto-Bold, Roboto" font-weight="700" letter-spacing="0.03em"><tspan x="0" y="0">EMOTION</tspan></text>
      <g id="Group_969" data-name="Group 969">
        <g id="Group_968" data-name="Group 968">
          <path id="Path_2905" data-name="Path 2905" d="M420.062,701.289h2.606c.449.063.9.1,1.347.192a14.724,14.724,0,0,1,10.465,7.574,14.915,14.915,0,0,1-2.925,18.042,14.6,14.6,0,0,1-9.167,3.99,14.192,14.192,0,0,1-6.728-1.1,14.8,14.8,0,0,1-8.659-9.7,16.2,16.2,0,0,1-.532-2.794v-2.607c.012-.06.029-.121.035-.182a14.15,14.15,0,0,1,1.622-5.427,14.8,14.8,0,0,1,9.2-7.468A16.73,16.73,0,0,1,420.062,701.289Zm1.351,27.775a12.873,12.873,0,1,0-12.861-11.78A12.884,12.884,0,0,0,421.413,729.064Z" fill="#fff" stroke="#fff" stroke-width="0.1"/>
          <path id="Path_2906" data-name="Path 2906" d="M421.351,725.156a8.883,8.883,0,0,1-7.475-4.041c-.235-.341-.225-.349.121-.558.371-.224.752-.435,1.112-.677.235-.158.357-.119.515.116a6.762,6.762,0,0,0,4.319,2.942,6.876,6.876,0,0,0,7.141-2.9c.228-.34.228-.34.573-.133.39.235.774.478,1.171.7.206.115.216.227.09.416a8.956,8.956,0,0,1-5.927,3.99A7.241,7.241,0,0,1,421.351,725.156Z" fill="#fff" stroke="#fff" stroke-width="0.1"/>
          <path id="Path_2907" data-name="Path 2907" d="M419.348,715.216c-.218,0-.436-.016-.652,0-.27.026-.355-.1-.394-.348a1.925,1.925,0,0,0-3.806.013c-.041.256-.149.346-.407.335-.433-.019-.868,0-1.3-.006-.381,0-.412-.019-.377-.41a3.791,3.791,0,0,1,1.22-2.507,3.841,3.841,0,0,1,4.081-.887,3.894,3.894,0,0,1,2.668,3.221c.018.1.007.206.015.309.016.2-.072.282-.271.276-.258-.009-.517,0-.775,0Z" fill="#fff" stroke="#fff" stroke-width="0.1"/>
          <path id="Path_2908" data-name="Path 2908" d="M429.282,715.216c-.217,0-.436-.016-.651,0-.267.025-.359-.1-.4-.344a1.925,1.925,0,0,0-1.843-1.629,1.97,1.97,0,0,0-1.9,1.332c-.017.049-.034.1-.046.148-.117.486-.116.487-.607.488-.383,0-.766-.017-1.148,0-.3.018-.379-.111-.355-.382a4.008,4.008,0,0,1,5.273-3.438,3.892,3.892,0,0,1,2.7,3.227c.018.1.008.207.016.31.015.2-.064.285-.267.279-.259-.009-.517,0-.776,0Z" fill="#fff" stroke="#fff" stroke-width="0.1"/>
        </g>
      </g>
    </g>
    <text id="_2" data-name="2" transform="translate(137.128 758.979)" fill="#9c9b9b" font-size="42" font-family="Roboto-Medium, Roboto" font-weight="500" opacity="0.1"><tspan x="0" y="0">2</tspan></text>
    <text id="_3" data-name="3" transform="translate(250.282 758.979)" fill="#9c9b9b" font-size="42" font-family="Roboto-Medium, Roboto" font-weight="500" opacity="0.1"><tspan x="0" y="0">3</tspan></text>
    <text id="_4" data-name="4" transform="translate(349.238 758.979)" fill="#9c9b9b" font-size="42" font-family="Roboto-Medium, Roboto" font-weight="500" opacity="0.1"><tspan x="0" y="0">4</tspan></text>
  </g>
</svg>
