<svg xmlns="http://www.w3.org/2000/svg" xmlns:xlink="http://www.w3.org/1999/xlink" width="181.241" height="181.241" viewBox="0 0 181.241 181.241">
  <defs>
    <filter id="Ellipse_94" x="0" y="0" width="181.241" height="181.241" filterUnits="userSpaceOnUse">
      <feOffset dy="3" input="SourceAlpha"/>
      <feGaussianBlur stdDeviation="18" result="blur"/>
      <feFlood flood-color="#5883bf"/>
      <feComposite operator="in" in2="blur"/>
    </filter>
    <linearGradient id="linear-gradient" x1="0.023" y1="0.119" x2="1.045" y2="0.936" gradientUnits="objectBoundingBox">
      <stop offset="0" stop-color="#5fc4eb"/>
      <stop offset="1" stop-color="#514896"/>
    </linearGradient>
  </defs>
  <g id="Group_1394" data-name="Group 1394" transform="translate(-2501.123 18)">
    <g transform="matrix(1, 0, 0, 1, 2501.12, -18)" filter="url(#Ellipse_94)" style="mix-blend-mode: multiply;isolation: isolate">
      <circle id="Ellipse_94-2" data-name="Ellipse 94" cx="36.621" cy="36.621" r="36.621" transform="translate(54 51)" fill="#fff"/>
    </g>
    <g id="Group_280" data-name="Group 280" transform="translate(0 -3.552)">
      <g id="Group_273" data-name="Group 273">
        <circle id="Ellipse_6" data-name="Ellipse 6" cx="42.628" cy="42.628" r="42.628" transform="translate(2550.043 27.592)" fill="url(#linear-gradient)"/>
        <g id="Group_272" data-name="Group 272">
          <path id="Path_1328" data-name="Path 1328" d="M2592.671,114.887a44.668,44.668,0,1,1,44.667-44.668A44.719,44.719,0,0,1,2592.671,114.887Zm0-85.256a40.588,40.588,0,1,0,40.587,40.588A40.634,40.634,0,0,0,2592.671,29.631Z" fill="#fff"/>
        </g>
      </g>
      <g id="Group_277" data-name="Group 277" transform="translate(0 -0.111)">
        <g id="Group_274" data-name="Group 274">
          <path id="Path_1329" data-name="Path 1329" d="M2592.671,120.317a50.155,50.155,0,0,1-50.1-49.758H2517.5v-.68h25.748v.34a49.418,49.418,0,0,0,98.836,0v-.34h24.732v.68h-24.054A50.153,50.153,0,0,1,2592.671,120.317Z" fill="#9c9b9b"/>
        </g>
        <g id="Group_275" data-name="Group 275">
          <path id="Path_1330" data-name="Path 1330" d="M2666.693,67.663a2.556,2.556,0,1,1-2.556,2.556A2.557,2.557,0,0,1,2666.693,67.663Z" fill="#9c9b9b"/>
        </g>
        <g id="Group_276" data-name="Group 276">
          <path id="Path_1331" data-name="Path 1331" d="M2517.633,67.663a2.556,2.556,0,1,0,2.556,2.556A2.557,2.557,0,0,0,2517.633,67.663Z" fill="#9c9b9b"/>
        </g>
      </g>
    </g>
    <g id="Group_1659" data-name="Group 1659" transform="translate(2574.903 48.461)">
      <path id="Path_13462" data-name="Path 13462" d="M54.17,2.317c-.064.532-.122,1.066-.192,1.6a27.006,27.006,0,0,1-3.443,9.936,27.3,27.3,0,0,1-5.267,6.66,1.037,1.037,0,0,0-.346.79,18.827,18.827,0,0,1-4.829,11.8c-.209.237-.426.467-.655.685a.759.759,0,0,1-.836.2.778.778,0,0,1-.513-.689c-.259-1.852-.527-3.7-.8-5.639l-.645.572a.81.81,0,0,1-1.331-.041q-4.667-4.665-9.332-9.332a.808.808,0,0,1-.038-1.329l.57-.642c-.919-.135-1.769-.262-2.619-.383-1.03-.147-2.06-.289-3.09-.436a.743.743,0,0,1-.655-.51.764.764,0,0,1,.23-.828,18.58,18.58,0,0,1,8.89-4.955,32.949,32.949,0,0,1,3.6-.521,1.2,1.2,0,0,0,.811-.379A28.262,28.262,0,0,1,48.022.621C49.211.34,50.443.243,51.655.06c.09-.014.179-.039.268-.06h1.685l.562.562ZM36.065,26.745c.418-.383.852-.791,1.3-1.187,2.271-2.022,4.589-3.992,6.807-6.071a26.384,26.384,0,0,0,8.36-15.982c.091-.652.1-1.316.163-2.091-1.312.173-2.552.257-3.757.51A26.249,26.249,0,0,0,35.317,9.347c-1.955,1.994-3.752,4.142-5.618,6.222-.765.852-1.524,1.709-2.267,2.542l8.633,8.634M22.568,14.8c1.664.239,3.282.477,4.9.7a.551.551,0,0,0,.414-.16c1.294-1.432,2.575-2.874,3.858-4.316a1.761,1.761,0,0,0,.13-.2,17.106,17.106,0,0,0-9.3,3.975m16.8,16.807C41.343,29.541,43.544,24.3,43.3,22.3c-.078.066-.15.123-.218.184-1.187,1.058-2.341,2.156-3.573,3.16-.664.542-1.049,1.079-.719,1.938a.329.329,0,0,1,.007.07l.571,3.962" transform="translate(-18.17)" fill="#fff"/>
      <path id="Path_13463" data-name="Path 13463" d="M0,267.342c.312-.929.616-1.861.938-2.787a41.563,41.563,0,0,1,2.507-6.083,4.729,4.729,0,0,1,8.86,2.263,4.459,4.459,0,0,1-2.334,4.113,29.08,29.08,0,0,1-4.916,2.126c-1.256.442-2.526.842-3.79,1.262a2.687,2.687,0,0,0-.255.115H0v-1.01m1.926-.91c1.063-.37,2.051-.668,3-1.056,1.442-.587,2.887-1.178,4.277-1.876a3.012,3.012,0,0,0,1.509-3.3,3.216,3.216,0,0,0-2.634-2.578A3.1,3.1,0,0,0,4.8,259.206a44.521,44.521,0,0,0-2.876,7.227" transform="translate(0 -232.353)" fill="#fff"/>
      <path id="Path_13464" data-name="Path 13464" d="M378.577.577,378,0h.577Z" transform="translate(-342.577)" fill="#fff"/>
      <path id="Path_13469" data-name="Path 13469" d="M241.815,73.692a3.849,3.849,0,1,1-3.872-3.836,3.867,3.867,0,0,1,3.872,3.836m-1.547.018a2.3,2.3,0,1,0-2.324,2.3,2.287,2.287,0,0,0,2.324-2.3" transform="translate(-212.319 -63.352)" fill="#fff"/>
    </g>
  </g>
</svg>
