<svg xmlns="http://www.w3.org/2000/svg" xmlns:xlink="http://www.w3.org/1999/xlink" width="181.241" height="181.241" viewBox="0 0 181.241 181.241">
  <defs>
    <filter id="Ellipse_98" x="0" y="0" width="181.241" height="181.241" filterUnits="userSpaceOnUse">
      <feOffset dy="3" input="SourceAlpha"/>
      <feGaussianBlur stdDeviation="18" result="blur"/>
      <feFlood flood-color="#f38f42"/>
      <feComposite operator="in" in2="blur"/>
    </filter>
    <linearGradient id="linear-gradient" x1="0.028" y1="0.146" x2="1.049" y2="0.912" gradientUnits="objectBoundingBox">
      <stop offset="0" stop-color="#ffd334"/>
      <stop offset="1" stop-color="#ec6a4a"/>
    </linearGradient>
  </defs>
  <g id="Group_1395" data-name="Group 1395" transform="translate(-3117.123 5)">
    <g transform="matrix(1, 0, 0, 1, 3117.12, -5)" filter="url(#Ellipse_98)" style="mix-blend-mode: multiply;isolation: isolate">
      <circle id="Ellipse_98-2" data-name="Ellipse 98" cx="36.621" cy="36.621" r="36.621" transform="translate(54 51)" fill="#fff" opacity="0.504"/>
    </g>
    <g id="Group_202" data-name="Group 202" transform="translate(0 13.781)">
      <g id="Group_195" data-name="Group 195">
        <circle id="Ellipse_4" data-name="Ellipse 4" cx="42.628" cy="42.628" r="42.628" transform="translate(3165.666 28.148)" fill="url(#linear-gradient)"/>
        <g id="Group_194" data-name="Group 194">
          <path id="Path_1032" data-name="Path 1032" d="M3208.293,115.442a44.667,44.667,0,1,1,44.668-44.667A44.718,44.718,0,0,1,3208.293,115.442Zm0-85.255a40.588,40.588,0,1,0,40.588,40.588A40.634,40.634,0,0,0,3208.293,30.187Z" fill="#fff"/>
        </g>
      </g>
      <g id="Group_199" data-name="Group 199" transform="translate(3130.699 22.219)">
        <g id="Group_196" data-name="Group 196" transform="translate(2.429)">
          <path id="Path_1033" data-name="Path 1033" d="M3208.293,70.435a50.154,50.154,0,0,0-50.1,49.758h-25.069v.68h25.747v-.34a49.418,49.418,0,0,1,98.837,0v.34h24.732v-.68H3258.39A50.154,50.154,0,0,0,3208.293,70.435Z" transform="translate(-3133.128 -70.435)" fill="#9c9b9b"/>
        </g>
        <g id="Group_197" data-name="Group 197" transform="translate(149.061 47.542)">
          <path id="Path_1034" data-name="Path 1034" d="M3282.316,73.331a2.556,2.556,0,1,0-2.556-2.556A2.557,2.557,0,0,0,3282.316,73.331Z" transform="translate(-3279.76 -68.219)" fill="#9c9b9b"/>
        </g>
        <g id="Group_198" data-name="Group 198" transform="translate(0 47.542)">
          <path id="Path_1035" data-name="Path 1035" d="M3133.256,73.331a2.556,2.556,0,1,1,2.556-2.556A2.557,2.557,0,0,1,3133.256,73.331Z" transform="translate(-3130.699 -68.219)" fill="#9c9b9b"/>
        </g>
      </g>
      <g id="Group_1656" data-name="Group 1656" transform="translate(3191.188 53.68)">
        <path id="Path_13452" data-name="Path 13452" d="M5.15,164.719a1.3,1.3,0,0,1-.763-1.38c.047-1.6-.051-3.2.086-4.791a16.715,16.715,0,0,1,7.586-13.007,16.559,16.559,0,0,1,11.873-2.688,17.04,17.04,0,0,1,14.318,13.326,18.693,18.693,0,0,1,.409,4.009c-.008,1.05-.027,2.1.008,3.15a1.3,1.3,0,0,1-.763,1.38H36.192q0-2.328,0-4.657a14.773,14.773,0,0,0-2.808-8.777,14.617,14.617,0,0,0-26.521,8.5c-.01,1.644,0,3.287,0,4.931Z" transform="translate(-4.387 -129.641)" fill="#fff"/>
        <path id="Path_13453" data-name="Path 13453" d="M79.08,209.663H76.613c0-1.723.005-3.446,0-5.169a7.94,7.94,0,0,0-.091-1.159,10.143,10.143,0,0,0-20.184,1.159c-.019,1.723,0,3.446,0,5.169H53.863c0-1.609-.04-3.22.014-4.827a15.655,15.655,0,0,1,.34-2.981,12.6,12.6,0,0,1,24.863,3.015q0,2.4,0,4.793" transform="translate(-49.33 -174.584)" fill="#fff"/>
        <path id="Path_13457" data-name="Path 13457" d="M103.469,254.609c0-1.655-.01-3.31,0-4.964a8.085,8.085,0,0,1,16.168-.069c.015,1.678,0,3.355,0,5.033h-2.467c0-1.689.017-3.377,0-5.066a5.618,5.618,0,0,0-11.174-.68,5.192,5.192,0,0,0-.059.68c0,1.689,0,3.377,0,5.066Z" transform="translate(-94.413 -219.531)" fill="#fff"/>
        <path id="Path_13458" data-name="Path 13458" d="M140.857,0c.225.076.457.134.673.23a2.686,2.686,0,0,1,1.594,2.8,2.756,2.756,0,0,1-2.229,2.362,5.333,5.333,0,0,1,3.686,2.081,5.763,5.763,0,0,1,1,4.193,19.513,19.513,0,0,0-10.241,0,5.3,5.3,0,0,1,4.705-6.277,2.754,2.754,0,0,1-1.955-1.355A2.7,2.7,0,0,1,139.78.081c.086-.022.17-.054.255-.081Z" transform="translate(-123.305)" fill="#fff"/>
        <path id="Path_13459" data-name="Path 13459" d="M30.11,41.479c-1.921.251-3.119-.356-3.568-1.777a2.735,2.735,0,0,1,4.77-2.5,2.789,2.789,0,0,1-.36,3.774,5.3,5.3,0,0,1,3.812-.2,10.894,10.894,0,0,0-.342,1.5c-.078.884-.08,1.775-.1,2.664a.355.355,0,0,1-.236.391,18.8,18.8,0,0,0-5.117,3.188.282.282,0,0,1-.06.032,5.154,5.154,0,0,1,1.2-7.068" transform="translate(-24.402 -32.841)" fill="#fff"/>
        <path id="Path_13460" data-name="Path 13460" d="M272.088,48.567a19.143,19.143,0,0,0-3.857-2.634,9.533,9.533,0,0,0-1.176-.548c-.332-.117-.4-.3-.405-.629,0-.843-.022-1.689-.1-2.527a10.855,10.855,0,0,0-.34-1.467,5.263,5.263,0,0,1,3.815.2,2.9,2.9,0,0,1-.927-1.975,2.663,2.663,0,0,1,.788-2.047,2.731,2.731,0,0,1,4.489,2.9c-.514,1.345-1.719,1.912-3.549,1.611a5.243,5.243,0,0,1,2.073,3.322,5.1,5.1,0,0,1-.812,3.8" transform="translate(-242.292 -32.825)" fill="#fff"/>
      </g>
    </g>
  </g>
</svg>
