<svg xmlns="http://www.w3.org/2000/svg" xmlns:xlink="http://www.w3.org/1999/xlink" width="536.385" height="439.198" viewBox="0 0 536.385 439.198">
  <defs>
    <linearGradient id="linear-gradient" y1="0.5" x2="1" y2="0.5" gradientUnits="objectBoundingBox">
      <stop offset="0" stop-color="#fff050"/>
      <stop offset="0.405" stop-color="#ffd84c"/>
      <stop offset="1" stop-color="#ffae46"/>
    </linearGradient>
    <linearGradient id="linear-gradient-2" y1="0.5" x2="1" y2="0.5" gradientUnits="objectBoundingBox">
      <stop offset="0" stop-color="#ffd334"/>
      <stop offset="1" stop-color="#ec6a4a"/>
    </linearGradient>
    <linearGradient id="linear-gradient-3" y1="0.5" x2="1" y2="0.5" gradientUnits="objectBoundingBox">
      <stop offset="0" stop-color="#5fc4eb"/>
      <stop offset="1" stop-color="#514896"/>
    </linearGradient>
    <linearGradient id="linear-gradient-4" y1="0.5" x2="1" y2="0.5" gradientUnits="objectBoundingBox">
      <stop offset="0" stop-color="#f2e500"/>
      <stop offset="1" stop-color="#72b641"/>
    </linearGradient>
  </defs>
  <g id="Group_8667" data-name="Group 8667" transform="translate(-645.313 -318.827)">
    <path id="Rectangle_294" data-name="Rectangle 294" d="M0,0H395.282a21.935,21.935,0,0,1,21.935,21.935V72.2A21.919,21.919,0,0,1,395.3,94.12H0a0,0,0,0,1,0,0V0A0,0,0,0,1,0,0Z" transform="translate(1065.771 758.025) rotate(-180)" opacity="0.1" fill="url(#linear-gradient)"/>
    <path id="Rectangle_295" data-name="Rectangle 295" d="M0,0H395.3a21.919,21.919,0,0,1,21.919,21.919V93.75a21.935,21.935,0,0,1-21.935,21.935H0a0,0,0,0,1,0,0V0A0,0,0,0,1,0,0Z" transform="translate(763.666 548.29)" opacity="0.1" fill="url(#linear-gradient-2)"/>
    <path id="Rectangle_296" data-name="Rectangle 296" d="M0,0H395.282a21.935,21.935,0,0,1,21.935,21.935V93.048A21.919,21.919,0,0,1,395.3,114.967H0a0,0,0,0,1,0,0V0A0,0,0,0,1,0,0Z" transform="translate(1065.771 548.288) rotate(-180)" opacity="0.1" fill="url(#linear-gradient-3)"/>
    <path id="Rectangle_297" data-name="Rectangle 297" d="M0,0H395.3a21.919,21.919,0,0,1,21.919,21.919V91.491a21.935,21.935,0,0,1-21.935,21.935H0a0,0,0,0,1,0,0V0A0,0,0,0,1,0,0Z" transform="translate(763.666 319.507)" opacity="0.1" fill="url(#linear-gradient-4)"/>
    <path id="Path_2011" data-name="Path 2011" d="M1051.408,494.029l13.775,10.906v6.914l-23-18.209,23-15.238v6.5l-13.775,9.126" transform="translate(0 -4.398)" fill="#f9d71c"/>
    <path id="Path_2012" data-name="Path 2012" d="M1051.5,709.291l13.775,10.906v6.914l-23-18.209,23-15.238v6.5l-13.775,9.126" fill="#f9d71c"/>
    <path id="Path_2013" data-name="Path 2013" d="M777.965,375.051,764.19,385.956v6.913l23-18.209-23-15.238v6.5l13.775,9.126" fill="#f9d71c"/>
    <path id="Path_2014" data-name="Path 2014" d="M764.19,319.405V366.02l13.775,9.126L764.19,386.052v46.835" fill="none" stroke="#676767" stroke-miterlimit="10" stroke-width="1"/>
    <path id="Path_2015" data-name="Path 2015" d="M1065.669,432.808V481.23l-13.776,8.4,13.776,10.036v48.624" fill="none" stroke="#676767" stroke-miterlimit="10" stroke-width="1"/>
    <g id="Group_480" data-name="Group 480">
      <path id="Path_2016" data-name="Path 2016" d="M777.965,612.7,764.19,623.6v6.914l23-18.209-23-15.238v6.5l13.775,9.126" fill="#f9d71c"/>
      <path id="Path_2017" data-name="Path 2017" d="M764.19,558v45.615l13.775,9.126L764.19,623.648v38.835" fill="none" stroke="#676767" stroke-miterlimit="10" stroke-width="1"/>
    </g>
    <path id="Path_2018" data-name="Path 2018" d="M1065.669,663.772v36.615l-13.776,9.126,13.776,10.906v36.835" fill="none" stroke="#676767" stroke-miterlimit="10" stroke-width="1"/>
    <text id="Constitutes_a_group_of_behavioural_competencies_that_focuses_on_Cognitive_factors_like_Detail_Orientation_Critical_thinking_and_Creative_thinking._These_cognitive_competencies_are_explored_from_the_behavioural_perspective._A_person_with_strong_critical_th" data-name="Constitutes a group of behavioural competencies that focuses on Cognitive factors like Detail Orientation, Critical thinking and Creative thinking. These cognitive competencies are explored from the behavioural perspective. A person with strong critical th" transform="translate(800.2 345.635)" fill="#4c4c4c" font-size="9" font-family="sans-serif"><tspan x="0" y="9">Constitutes a group of behavioural competencies that focuses on Cognitive factors like </tspan><tspan x="0" y="19.8">Detail Orientation, Critical thinking and Creative thinking. These cognitive competencies </tspan><tspan x="0" y="30.6">are explored from the behavioural perspective. A person with strong critical thinking is </tspan><tspan x="0" y="41.4">someone who is factual, systematic, evidence-based, and logical in their approach to any </tspan><tspan x="0" y="52.2">task or real-life problem situation. A person with creative mindset is willing to explore </tspan><tspan x="0" y="63">problem situations using unique and divergent approaches.</tspan></text>
    <text id="THOUGHT_FACTOR_" data-name="THOUGHT FACTOR 
" transform="translate(800.217 330.136)" font-size="10.842" font-family="sans-serif" font-weight="700"><tspan x="0" y="10">THOUGHT FACTOR </tspan></text>
    <text id="This_Factor_focuses_on_the_competencies_of_the_individual_SELF._They_are_a_set_of_competencies_that_map_the_characteristics_of_an_individual_to_the_expectations_of_their_organisation._This_factor_maps_to_the_individual_s_competencies_such_as_being_self-re" data-name="This Factor focuses on the competencies of the individual SELF. They are a set of competencies that map the characteristics of an individual to the expectations of their organisation. This factor maps to the individual’s competencies, such as being self-re" transform="translate(800.2 572.635)" fill="#4c4c4c" font-size="9" font-family="sans-serif"><tspan x="0" y="9">This Factor focuses on the competencies of the individual SELF. They are a set of </tspan><tspan x="0" y="19.8">competencies that map the characteristics of an individual to the expectations of their </tspan><tspan x="0" y="30.6">organisation. This factor maps to the individual’s competencies, such as being self-reliant, </tspan><tspan x="0" y="41.4">having a growth mind-set, and exhibiting openness to various situations/experiences. </tspan><tspan x="0" y="52.2">These are essential characteristics an individual must possess for productive functioning </tspan><tspan x="0" y="63">in an organisation. This factor identifies elements that are present within an ideal </tspan><tspan x="0" y="73.8">organisational citizen. The presence of these traits in the potential employees enables </tspan><tspan x="0" y="84.6">building an effective and productive organisation.</tspan></text>
    <text id="CORE_PERSONAL_FACTOR" data-name="CORE/PERSONAL FACTOR" transform="translate(800.217 558.136)" font-size="10.842" font-family="sans-serif" font-weight="700"><tspan x="0" y="10">CORE/PERSONAL FACTOR</tspan></text>
    <path id="Path_2019" data-name="Path 2019" d="M648.661,390.149V342.828a23.5,23.5,0,0,1,23.5-23.5H1157.7a23.5,23.5,0,0,1,23.5,23.5v66.479a23.5,23.5,0,0,1-23.5,23.5" fill="none" stroke="#676767" stroke-miterlimit="10" stroke-width="1"/>
    <line id="Line_21" data-name="Line 21" x2="449.328" transform="translate(708.368 548.29)" fill="none" stroke="#676767" stroke-miterlimit="10" stroke-width="1"/>
    <path id="Path_2020" data-name="Path 2020" d="M1100.49,432.808H672.162c-12.979,0-23.5,9.683-23.5,21.629V526.66c0,11.944,10.522,21.628,23.5,21.628h37.175" fill="none" stroke="#676767" stroke-miterlimit="10" stroke-width="1"/>
    <line id="Line_22" data-name="Line 22" x1="57.175" transform="translate(1100.521 432.808)" fill="none" stroke="#676767" stroke-miterlimit="10" stroke-width="1"/>
    <path id="Path_2021" data-name="Path 2021" d="M1157.7,558.29c12.979,0,23.5,11.519,23.5,25.729v64.023c0,14.209-10.522,25.729-23.5,25.729" transform="translate(0 -10)" fill="none" stroke="#676767" stroke-miterlimit="10" stroke-width="1"/>
    <path id="Path_2022" data-name="Path 2022" d="M1100.49,663.772" fill="none" stroke="#676767" stroke-miterlimit="10" stroke-width="1"/>
    <line id="Line_23" data-name="Line 23" x1="57.175" transform="translate(1100.521 663.772)" fill="none" stroke="#676767" stroke-miterlimit="10" stroke-width="1"/>
    <line id="Line_24" data-name="Line 24" x2="449.328" transform="translate(708.368 757.254)" fill="none" stroke="#676767" stroke-miterlimit="10" stroke-width="1"/>
    <path id="Path_2023" data-name="Path 2023" d="M1100.49,663.772H672.162a23.5,23.5,0,0,0-23.5,23.5v46.48a23.5,23.5,0,0,0,23.5,23.5h37.175" fill="none" stroke="#676767" stroke-miterlimit="10" stroke-width="1"/>
    <path id="Path_2024" data-name="Path 2024" d="M708.368,757.254" fill="none" stroke="#676767" stroke-miterlimit="10" stroke-width="1"/>
    <path id="Path_2025" data-name="Path 2025" d="M709.337,757.254" fill="none" stroke="#676767" stroke-miterlimit="10" stroke-width="1"/>
    <circle id="Ellipse_13" data-name="Ellipse 13" cx="3.348" cy="3.348" r="3.348" transform="translate(645.313 386.801)" fill="#4c4c4c"/>
    <g id="Group_481" data-name="Group 481">
      <path id="Path_2026" data-name="Path 2026" d="M1177.85,733.753a23.5,23.5,0,0,1-23.5,23.5" fill="none" stroke="#676767" stroke-miterlimit="10" stroke-width="1"/>
      <line id="Line_25" data-name="Line 25" y2="36.479" transform="translate(1177.85 697.273)" fill="none" stroke="#676767" stroke-miterlimit="10" stroke-width="1"/>
      <circle id="Ellipse_14" data-name="Ellipse 14" cx="3.348" cy="3.348" r="3.348" transform="translate(1174.501 693.925)" fill="#4c4c4c"/>
    </g>
    <text id="This_Factor_focuses_on_your_social_competence_which_showcases_your_ability_to_effectively_handle_communication_and_interactions_with_others_either_individually_or_socially._Organisational_setup_usually_demands_teamwork_and_good_interaction_skills_to_e" data-name="This Factor focuses on your social competence, which showcases your ability to 
effectively handle communication and interactions with others, either individually or 
socially. Organisational setup usually demands teamwork and good interaction skills to 
e" transform="translate(665.357 468.172)" fill="#4c4c4c" font-size="9" font-family="sans-serif"><tspan x="0" y="0">This Factor focuses on your social competence, which showcases your ability to </tspan><tspan x="0" y="10.8">effectively handle communication and interactions with others, either individually or </tspan><tspan x="0" y="21.6">socially. Organisational setup usually demands teamwork and good interaction skills to </tspan><tspan x="0" y="32.4">enhance work output and productivity. Positive social interactions set the stage for other </tspan><tspan x="0" y="43.2">formal and informal interactions.</tspan></text>
    <text id="INTERPERSONAL_FACTOR" data-name="INTERPERSONAL FACTOR" transform="translate(831.243 443.674)" font-size="10.842" font-family="sans-serif" font-weight="700"><tspan x="49.916" y="10">INTERPERSONAL FACTOR</tspan></text>
    <text id="Emotion_factor_deals_with_the_individual_s_ability_to_adjust_to_various_situations_manage_their_anxiety_be_self-aware_and_empathetic._This_factor_focuses_on_the_individual_s_ability_to_effectively_understand_and_manage_their_emotions._It_also_explores_ho" data-name="Emotion factor deals with the individual’s ability to adjust to various situations, manage their anxiety, be self-aware and empathetic. This factor focuses on the individual’s ability to effectively understand and manage their emotions. It also explores ho" transform="translate(665.357 687.172)" fill="#4c4c4c" font-size="9" font-family="sans-serif"><tspan x="0" y="9">Emotion factor deals with the individual’s ability to adjust to various situations, manage </tspan><tspan x="0" y="19.8">their anxiety, be self-aware and empathetic. This factor focuses on the individual’s ability to </tspan><tspan x="0" y="30.6">effectively understand and manage their emotions. It also explores how individuals can </tspan><tspan x="0" y="41.4">effectively channel their emotions/feelings positively, communicate effectively, manage </tspan><tspan x="0" y="52.2">relationships, and thus efficiently handle challenging situations.</tspan></text>
    <text id="EMOTION_FACTOR_" data-name="EMOTION FACTOR
" transform="translate(831.243 671.674)" font-size="10.842" font-family="sans-serif" font-weight="700"><tspan x="92.091" y="10">EMOTION FACTOR</tspan></text>
    <g id="Group_482" data-name="Group 482">
      <path id="Path_2027" data-name="Path 2027" d="M700.3,406.733q-.33-2.661-.659-5.321c-.164-1.331-.331-2.661-.485-3.992-.025-.219-.084-.276-.314-.253-1.225.123-2.453.221-3.679.334-1.177.109-2.352.226-3.529.337-.919.086-1.839.164-2.759.254-.26.026-.34-.073-.358-.33-.1-1.4-.224-2.792-.335-4.188-.09-1.128-.169-2.258-.259-3.386-.11-1.376-.227-2.752-.34-4.127a9.521,9.521,0,0,1-.066-.951c0-.283-.108-.352-.372-.351-1.7.009-3.4,0-5.1,0-.059,0-.119,0-.179,0-.25.014-.312-.078-.226-.322.342-.976.668-1.958,1-2.936q1.915-5.6,3.836-11.2a2.556,2.556,0,0,0,.139-.845c0-1.233-.041-2.468.067-3.7a22.013,22.013,0,0,1,1.723-6.882,22.1,22.1,0,0,1,16.539-13.005,20.962,20.962,0,0,1,4.962-.271,22.085,22.085,0,0,1,19.888,15.938,22.074,22.074,0,0,1,.8,4.631,23.928,23.928,0,0,1-1.25,8.946c-1.514,4.807-2.949,9.639-4.418,14.46a.86.86,0,0,0-.028.407q.814,4.879,1.616,9.76c.35,2.126.688,4.255,1.047,6.38.044.261-.044.338-.267.374-.46.074-.919.156-1.379.235h-.358q-.684-4.145-1.368-8.289-.639-3.879-1.277-7.76a1.692,1.692,0,0,0-.031-.176,2.863,2.863,0,0,1,.08-1.63q2.414-7.821,4.785-15.655a19.1,19.1,0,0,0,.8-4.9,19.963,19.963,0,0,0-13.16-19.506,18.965,18.965,0,0,0-5.348-1.122,19.993,19.993,0,0,0-21.035,16.377,20.694,20.694,0,0,0-.307,4.6,8.076,8.076,0,0,1-.5,3.056c-1.229,3.488-2.4,6.995-3.6,10.495-.022.066-.042.133-.069.2-.078.19-.005.245.185.243.657-.007,1.314,0,1.97,0,.786,0,1.572.01,2.358-.005.277-.006.4.091.415.366q.147,2.066.309,4.13c.128,1.6.269,3.206.4,4.809q.137,1.707.254,3.417c.031.464.046.476.507.429.938-.1,1.878-.173,2.818-.259q1.839-.168,3.677-.34c1.1-.1,2.195-.2,3.292-.307.178-.016.251.063.271.233q.177,1.509.363,3.016.286,2.306.577,4.611c.143,1.143.282,2.286.426,3.429.027.213-.046.3-.268.324-.531.057-1.06.142-1.59.215Z" fill="#686867"/>
      <path id="Path_2028" data-name="Path 2028" d="M718.625,366.539c.289,0,.577.007.866,0,.207-.006.284.085.282.285-.006.5-.007.995,0,1.492,0,.22-.089.3-.3.294-.557-.009-1.114,0-1.671-.006-.192,0-.279.047-.308.257a8.133,8.133,0,0,1-.55,2.038.243.243,0,0,0,.126.361c.494.277.98.57,1.474.847.17.1.233.186.119.374-.268.442-.529.889-.778,1.342-.106.194-.211.185-.379.084-.478-.286-.969-.551-1.444-.84-.179-.109-.289-.105-.422.07a7.809,7.809,0,0,1-1.473,1.472c-.147.112-.176.2-.076.368.294.485.561.986.857,1.469.127.207.082.309-.119.418-.437.237-.867.488-1.292.745-.173.106-.274.093-.377-.1-.273-.5-.569-.98-.845-1.476a.259.259,0,0,0-.383-.136,7.675,7.675,0,0,1-1.981.529c-.21.023-.284.133-.281.34.009.537,0,1.074.007,1.611.005.254-.089.362-.347.356q-.7-.016-1.4,0c-.272.007-.366-.1-.358-.374.015-.526-.006-1.054.007-1.581a.294.294,0,0,0-.3-.352,7.586,7.586,0,0,1-1.952-.528.267.267,0,0,0-.4.145c-.264.479-.553.945-.813,1.426-.119.221-.23.244-.44.113-.413-.259-.838-.5-1.266-.731-.194-.105-.225-.21-.11-.4.289-.477.556-.965.843-1.443.1-.173.111-.284-.073-.419a7.208,7.208,0,0,1-1.435-1.426c-.162-.212-.286-.207-.491-.079-.456.282-.93.536-1.389.816-.185.113-.294.1-.4-.1-.239-.436-.485-.869-.745-1.292-.127-.2-.078-.312.119-.421.478-.264.945-.55,1.425-.813.178-.1.241-.188.153-.4a7.843,7.843,0,0,1-.55-2.068c-.024-.2-.138-.208-.287-.208-.557,0-1.115-.006-1.672,0-.227,0-.323-.071-.317-.308.012-.478.013-.956,0-1.433-.007-.242.074-.338.324-.332.557.013,1.115,0,1.672.006.18,0,.259-.049.286-.246a8.056,8.056,0,0,1,.548-2.038c.072-.172.05-.266-.118-.358-.487-.269-.962-.562-1.451-.828-.212-.116-.26-.228-.126-.443.252-.4.495-.817.716-1.24.126-.242.25-.248.465-.115.448.277.914.525,1.364.8.2.12.323.118.473-.08a7.207,7.207,0,0,1,1.434-1.427.267.267,0,0,0,.083-.42c-.274-.451-.532-.911-.8-1.367-.193-.333-.193-.333.153-.533.405-.234.814-.462,1.212-.706.179-.11.278-.078.378.1.275.5.569.981.844,1.477a.256.256,0,0,0,.382.136,7.669,7.669,0,0,1,2.011-.537c.191-.024.247-.125.246-.3,0-.547.006-1.094,0-1.641-.005-.241.075-.339.326-.332.487.016.975.014,1.463,0,.235-.006.319.087.316.313-.006.527.007,1.055-.006,1.582-.007.262.086.357.354.392a7.119,7.119,0,0,1,1.865.5c.214.09.332.061.447-.156.262-.491.56-.963.829-1.45.1-.173.187-.2.353-.1q.664.4,1.344.774c.183.1.2.207.093.382-.292.486-.562.985-.856,1.469a.25.25,0,0,0,.077.394,7.963,7.963,0,0,1,1.474,1.472.26.26,0,0,0,.4.071c.486-.292.984-.563,1.47-.856.18-.11.274-.077.373.1q.367.666.762,1.317c.106.175.081.279-.1.38-.495.277-.979.572-1.474.848a.254.254,0,0,0-.137.38,8.187,8.187,0,0,1,.55,2.038c.029.2.122.241.3.236.278-.008.557,0,.835,0ZM708.608,360.7a6.882,6.882,0,1,0,6.905,6.751A6.9,6.9,0,0,0,708.608,360.7Z" fill="#f9d61b"/>
      <path id="Path_2029" data-name="Path 2029" d="M724.848,367.491c.238,0,.477.008.715,0,.21-.01.3.056.306.285a19.433,19.433,0,0,1-.131,1.959c-.014.147-.083.212-.236.191-.54-.074-1.082-.142-1.622-.215-.16-.021-.213-.123-.2-.275.058-.582.113-1.165.12-1.751,0-.164.108-.193.241-.192C724.311,367.492,724.579,367.491,724.848,367.491Z" fill="#686969"/>
      <path id="Path_2030" data-name="Path 2030" d="M720.366,380.111a.217.217,0,0,1-.1.189,18,18,0,0,1-1.548,1.261c-.123.09-.208.082-.3-.044q-.469-.672-.947-1.338c-.084-.117-.093-.211.033-.3a14.384,14.384,0,0,0,1.361-1.113.159.159,0,0,1,.257,0q.591.63,1.184,1.26A.651.651,0,0,1,720.366,380.111Z" fill="#686969"/>
      <path id="Path_2031" data-name="Path 2031" d="M701.582,354.023c0,.116-.08.147-.148.183a13.4,13.4,0,0,0-1.42.871c-.162.114-.262.074-.366-.076q-.449-.65-.911-1.287c-.1-.136-.088-.221.051-.316q.811-.554,1.674-1.026c.159-.087.248-.057.329.1.237.469.484.934.726,1.4C701.544,353.927,701.564,353.983,701.582,354.023Z" fill="#686969"/>
      <path id="Path_2032" data-name="Path 2032" d="M712.209,350.706a14.433,14.433,0,0,1,2.009.554c.121.044.131.134.093.242-.184.526-.371,1.05-.55,1.577-.052.156-.148.165-.278.119a14.739,14.739,0,0,0-1.635-.457c-.166-.038-.209-.113-.175-.272.11-.525.211-1.052.319-1.577C712.015,350.779,712.056,350.675,712.209,350.706Z" fill="#686969"/>
      <path id="Path_2033" data-name="Path 2033" d="M723.311,376.6c-.019.036-.046.089-.077.14a18.691,18.691,0,0,1-1.1,1.554c-.11.141-.2.159-.341.043q-.617-.514-1.246-1.013c-.13-.1-.144-.192-.041-.321a13.644,13.644,0,0,0,.98-1.383c.072-.118.154-.176.291-.091.481.3.964.59,1.445.887C723.282,376.451,723.342,376.494,723.311,376.6Z" fill="#686969"/>
      <path id="Path_2034" data-name="Path 2034" d="M699.853,380.063a1.488,1.488,0,0,1-.08.139c-.3.43-.61.856-.905,1.291-.11.161-.2.174-.361.06-.512-.376-1-.78-1.477-1.2-.141-.124-.159-.223-.022-.366.363-.38.718-.768,1.069-1.159a.209.209,0,0,1,.349-.015,13.751,13.751,0,0,0,1.314,1.07A.2.2,0,0,1,699.853,380.063Z" fill="#686969"/>
      <path id="Path_2035" data-name="Path 2035" d="M721.925,356.622c.01.1-.052.144-.1.187-.414.342-.831.68-1.241,1.027-.153.13-.253.092-.37-.048a10.336,10.336,0,0,0-1.083-1.151c-.157-.138-.18-.252-.019-.417.353-.363.692-.741,1.031-1.118.123-.136.225-.165.37-.024q.7.674,1.329,1.412A1.307,1.307,0,0,1,721.925,356.622Z" fill="#686969"/>
      <path id="Path_2036" data-name="Path 2036" d="M725.192,372.368a16.3,16.3,0,0,1-.7,1.958c-.055.122-.141.116-.245.07-.51-.222-1.019-.445-1.53-.662-.148-.063-.155-.16-.1-.287a14.576,14.576,0,0,0,.559-1.57c.056-.184.157-.226.335-.173.5.146.993.28,1.489.421C725.118,372.159,725.236,372.2,725.192,372.368Z" fill="#686969"/>
      <path id="Path_2037" data-name="Path 2037" d="M708.54,352.423c-.258,0-.517,0-.775,0-.165,0-.26-.043-.271-.229-.031-.525-.073-1.049-.112-1.573-.015-.195.079-.256.264-.267a12.224,12.224,0,0,1,1.875,0c.177.016.246.064.234.249-.034.515-.054,1.031-.078,1.547-.009.2-.1.284-.3.276C709.1,352.415,708.819,352.423,708.54,352.423Z" fill="#686969"/>
      <path id="Path_2038" data-name="Path 2038" d="M692.414,367.559c.249,0,.5.005.746,0,.2-.005.293.07.289.279a10.363,10.363,0,0,0,.112,1.573c.027.2-.024.311-.256.337-.5.057-1,.141-1.5.217-.18.027-.278-.025-.3-.225-.065-.6-.118-1.205-.128-1.812,0-.3.1-.391.383-.371C691.975,367.572,692.2,367.559,692.414,367.559Z" fill="#686969"/>
      <path id="Path_2039" data-name="Path 2039" d="M692.058,372.4c-.026-.156.061-.2.162-.233.525-.148,1.053-.29,1.577-.441.15-.043.217,0,.26.148a14.337,14.337,0,0,0,.575,1.6c.065.148.038.236-.117.3-.494.209-.987.423-1.475.645-.169.077-.251.03-.318-.133a15.458,15.458,0,0,1-.638-1.8C692.074,372.447,692.062,372.409,692.058,372.4Z" fill="#686969"/>
      <path id="Path_2040" data-name="Path 2040" d="M705.486,352.525c.02.186-.092.221-.2.244a13.508,13.508,0,0,0-1.6.454.2.2,0,0,1-.3-.14c-.179-.5-.359-1.009-.545-1.511-.055-.15-.029-.242.13-.3a17.254,17.254,0,0,1,1.916-.542c.106-.024.212-.011.239.112C705.253,351.415,705.372,351.988,705.486,352.525Z" fill="#686969"/>
      <path id="Path_2041" data-name="Path 2041" d="M718.491,353.535c-.024.041-.05.094-.084.143-.3.431-.607.858-.9,1.294-.1.15-.192.166-.339.064a13.38,13.38,0,0,0-1.424-.863c-.157-.082-.19-.175-.107-.332.246-.465.488-.932.721-1.4.088-.177.186-.2.353-.1.555.308,1.1.632,1.627.989C718.406,353.371,718.5,353.409,718.491,353.535Z" fill="#686969"/>
      <path id="Path_2042" data-name="Path 2042" d="M695.59,359.772c-.019.037-.045.091-.075.142a13.42,13.42,0,0,0-.736,1.431c-.085.2-.188.22-.368.139q-.707-.32-1.422-.618c-.166-.069-.2-.152-.128-.319a17.708,17.708,0,0,1,.892-1.719c.075-.129.156-.2.309-.105.473.293.95.58,1.425.87C695.547,359.629,695.607,359.668,695.59,359.772Z" fill="#686969"/>
      <path id="Path_2043" data-name="Path 2043" d="M695.57,375.514c.1-.014.146.059.188.124a15.925,15.925,0,0,0,.983,1.382.2.2,0,0,1-.034.324q-.637.513-1.267,1.036a.175.175,0,0,1-.295-.032,19.248,19.248,0,0,1-1.152-1.626c-.064-.1-.106-.2.026-.277l1.473-.9A.469.469,0,0,1,695.57,375.514Z" fill="#686969"/>
      <path id="Path_2044" data-name="Path 2044" d="M723.853,365.456c-.132.039-.21-.019-.237-.2a11.972,11.972,0,0,0-.338-1.6c-.059-.2.005-.287.2-.339.49-.128.977-.268,1.462-.416.2-.06.283-.007.336.195.159.606.282,1.219.393,1.835.037.207-.052.3-.242.321Z" fill="#686969"/>
      <path id="Path_2045" data-name="Path 2045" d="M701.693,381.1c.06.026.126.05.188.08a12.156,12.156,0,0,0,1.425.61c.221.077.266.184.182.4-.179.464-.341.934-.5,1.4-.065.192-.157.242-.353.167-.595-.229-1.178-.482-1.749-.764-.161-.079-.2-.164-.115-.325.248-.465.486-.935.73-1.4C701.542,381.191,701.575,381.1,701.693,381.1Z" fill="#686969"/>
      <path id="Path_2046" data-name="Path 2046" d="M691.542,365.157a15.3,15.3,0,0,1,.409-2.025.189.189,0,0,1,.268-.151c.524.149,1.049.3,1.576.437.167.045.186.137.147.289a13.2,13.2,0,0,0-.327,1.6c-.022.172-.1.269-.3.239-.519-.079-1.039-.154-1.56-.22C691.6,365.307,691.51,365.258,691.542,365.157Z" fill="#686969"/>
      <path id="Path_2047" data-name="Path 2047" d="M707.6,383.253c-.024.416-.051.832-.07,1.248-.01.215-.114.3-.326.274-.62-.073-1.241-.138-1.854-.263-.181-.037-.25-.116-.206-.309.117-.513.225-1.027.32-1.544.033-.176.12-.212.268-.181.564.116,1.137.168,1.708.235.139.017.193.074.175.213-.013.108-.013.218-.019.327Z" fill="#686969"/>
      <path id="Path_2048" data-name="Path 2048" d="M709.642,383.018c-.043-.184.059-.306.346-.334.513-.051,1.024-.132,1.534-.211.175-.028.256.031.29.2.1.517.212,1.032.321,1.547.036.169-.02.254-.2.288-.625.118-1.256.194-1.887.265-.182.021-.273-.041-.285-.241C709.736,384.056,709.689,383.582,709.642,383.018Z" fill="#686969"/>
      <path id="Path_2049" data-name="Path 2049" d="M715.545,381.1c.119-.023.154.055.19.124.253.484.5.969.757,1.45.08.151.034.237-.107.308a16.542,16.542,0,0,1-1.769.775c-.154.056-.257.052-.32-.132-.171-.507-.353-1.011-.538-1.513a.2.2,0,0,1,.137-.3c.532-.192,1.042-.436,1.554-.673C715.485,381.121,715.522,381.107,715.545,381.1Z" fill="#686969"/>
      <path id="Path_2050" data-name="Path 2050" d="M723.223,358.593c.123-.017.159.063.2.129a18.334,18.334,0,0,1,.926,1.768c.067.14.023.219-.114.278q-.738.318-1.473.648c-.157.071-.257.046-.328-.122a12.348,12.348,0,0,0-.77-1.479.2.2,0,0,1,.075-.32c.46-.277.915-.56,1.373-.841C723.153,358.629,723.2,358.607,723.223,358.593Z" fill="#686969"/>
      <path id="Path_2051" data-name="Path 2051" d="M698.2,356.447a.231.231,0,0,1-.1.188,15.129,15.129,0,0,0-1.15,1.25c-.106.13-.2.13-.324.026q-.621-.513-1.251-1.014a.193.193,0,0,1-.035-.322,16.935,16.935,0,0,1,1.364-1.458c.081-.079.164-.113.256-.016q.594.628,1.187,1.257A.479.479,0,0,1,698.2,356.447Z" fill="#686969"/>
      <path id="Path_2052" data-name="Path 2052" d="M708.6,371.531a3.93,3.93,0,0,1-3.954-3.935,3.974,3.974,0,1,1,7.947-.028A3.942,3.942,0,0,1,708.6,371.531Zm1.9-3.957a1.869,1.869,0,0,0-1.881-1.9,1.894,1.894,0,1,0,0,3.788A1.861,1.861,0,0,0,710.5,367.574Z" fill="#f9d61b"/>
    </g>
    <g id="Group_487" data-name="Group 487">
      <path id="Path_2066" data-name="Path 2066" d="M1121.768,724.41a13.837,13.837,0,0,1-11.645-6.295c-.367-.532-.352-.544.187-.869.579-.35,1.172-.679,1.733-1.055.367-.247.556-.185.8.181a10.541,10.541,0,0,0,6.728,4.584,10.717,10.717,0,0,0,11.126-4.514c.356-.531.356-.531.893-.207.607.365,1.207.744,1.824,1.091.321.18.337.354.141.649a13.952,13.952,0,0,1-9.234,6.216A11.236,11.236,0,0,1,1121.768,724.41Z" fill="#f9d71c"/>
      <path id="Path_2067" data-name="Path 2067" d="M1118.647,708.924c-.338,0-.679-.026-1.014.006-.422.04-.554-.159-.614-.541a3,3,0,0,0-5.931.019c-.064.4-.231.54-.633.522-.676-.029-1.353-.005-2.03-.009-.593,0-.641-.03-.587-.639a5.911,5.911,0,0,1,1.9-3.906,5.984,5.984,0,0,1,6.358-1.382,6.065,6.065,0,0,1,4.157,5.019c.028.157.011.321.024.482.024.309-.112.439-.423.429-.4-.013-.8,0-1.208,0Z" fill="#f9d71c"/>
      <path id="Path_2068" data-name="Path 2068" d="M1134.125,708.924c-.338,0-.679-.025-1.014.006-.417.039-.559-.149-.62-.535a3,3,0,0,0-2.872-2.54,3.076,3.076,0,0,0-2.959,2.077c-.026.076-.052.152-.071.23-.182.758-.181.759-.946.76-.6,0-1.194-.026-1.788.009-.468.027-.592-.173-.554-.6a6.246,6.246,0,0,1,8.216-5.358,6.067,6.067,0,0,1,4.208,5.029,4.767,4.767,0,0,1,.025.482c.024.3-.1.445-.417.434-.4-.013-.805,0-1.208,0Z" fill="#f9d71c"/>
      <path id="Path_2069" data-name="Path 2069" d="M1119.759,687.225h4.062c.7.1,1.406.163,2.1.3a22.94,22.94,0,0,1,16.305,11.8,23.239,23.239,0,0,1-4.558,28.109,22.751,22.751,0,0,1-14.281,6.217,22.107,22.107,0,0,1-10.483-1.717,23.063,23.063,0,0,1-13.491-15.117,25.266,25.266,0,0,1-.829-4.354V708.4a2.768,2.768,0,0,0,.055-.283,22.02,22.02,0,0,1,2.527-8.456,23.061,23.061,0,0,1,14.335-11.636A26.181,26.181,0,0,1,1119.759,687.225Zm2.106,43.275a20.057,20.057,0,1,0-20.037-18.354A20.075,20.075,0,0,0,1121.865,730.5Z" fill="none" stroke="#676767" stroke-miterlimit="10" stroke-width="1"/>
      <path id="Path_2070" data-name="Path 2070" d="M1121.768,724.41a13.837,13.837,0,0,1-11.645-6.295c-.367-.532-.352-.544.187-.869.579-.35,1.172-.679,1.733-1.055.367-.247.556-.185.8.181a10.541,10.541,0,0,0,6.728,4.584,10.717,10.717,0,0,0,11.126-4.514c.356-.531.356-.531.893-.207.607.365,1.207.744,1.824,1.091.321.18.337.354.141.649a13.952,13.952,0,0,1-9.234,6.216A11.236,11.236,0,0,1,1121.768,724.41Z" fill="none" stroke="#676767" stroke-miterlimit="10" stroke-width="1"/>
      <path id="Path_2071" data-name="Path 2071" d="M1118.647,708.924c-.338,0-.679-.026-1.014.006-.422.04-.554-.159-.614-.541a3,3,0,0,0-5.931.019c-.064.4-.231.54-.633.522-.676-.029-1.353-.005-2.03-.009-.593,0-.641-.03-.587-.639a5.911,5.911,0,0,1,1.9-3.906,5.984,5.984,0,0,1,6.358-1.382,6.065,6.065,0,0,1,4.157,5.019c.028.157.011.321.024.482.024.309-.112.439-.423.429-.4-.013-.8,0-1.208,0Z" fill="none" stroke="#676767" stroke-miterlimit="10" stroke-width="1"/>
      <path id="Path_2072" data-name="Path 2072" d="M1134.125,708.924c-.338,0-.679-.025-1.014.006-.417.039-.559-.149-.62-.535a3,3,0,0,0-2.872-2.54,3.076,3.076,0,0,0-2.959,2.077c-.026.076-.052.152-.071.23-.182.758-.181.759-.946.76-.6,0-1.194-.026-1.788.009-.468.027-.592-.173-.554-.6a6.246,6.246,0,0,1,8.216-5.358,6.067,6.067,0,0,1,4.208,5.029,4.767,4.767,0,0,1,.025.482c.024.3-.1.445-.417.434-.4-.013-.805,0-1.208,0Z" fill="none" stroke="#676767" stroke-miterlimit="10" stroke-width="1"/>
    </g>
    <g id="Group_8617" data-name="Group 8617" transform="translate(-412.672 112.528)">
      <path id="Path_2053" data-name="Path 2053" d="M1110.769,505.208l3.682-5.955,14.986.753s.311-1.413,2.6,1.008a29.19,29.19,0,0,1,4.1,6.136l-3.7,3.256-5.036-3.432-1.017-.984-4.54,4.408-3.45-3.457-3.879,3.423-4.935-3.251Z" fill="#f9d71c"/>
      <path id="Path_2054" data-name="Path 2054" d="M1104.588,496.835h-7.408a.933.933,0,0,1-1.049-.833,4.507,4.507,0,0,1,3.877-5.477,4.015,4.015,0,0,1,1.881.19.335.335,0,0,0,.416-.1,6.214,6.214,0,0,1,5.109-1.893,6.343,6.343,0,0,1,5.664,5.4,7.076,7.076,0,0,1-.005,1.816.933.933,0,0,1-1.02.894Zm-.025-1.836h5.753c.253,0,.506,0,.758,0,.135,0,.2-.027.194-.189a4.444,4.444,0,0,0-5.169-4.185,4.38,4.38,0,0,0-2.882,1.786.937.937,0,0,1-1.368.31,2.756,2.756,0,0,0-1.673-.332,2.68,2.68,0,0,0-2.272,2.3c-.021.248.03.318.288.317C1100.316,494.994,1102.439,495,1104.563,495Z" fill="#686867"/>
      <path id="Path_2055" data-name="Path 2055" d="M1149.956,500.422a.877.877,0,0,1-.874.9,4.52,4.52,0,0,0-4.515,4.5.917.917,0,0,1-1.834,0,4.522,4.522,0,0,0-4.513-4.5.917.917,0,0,1,0-1.833,4.545,4.545,0,0,0,3.3-1.443,4.227,4.227,0,0,0,1.168-2.64c.011-.167.032-.334.048-.5a.889.889,0,0,1,.944-.806.878.878,0,0,1,.887.832,4.632,4.632,0,0,0,1,2.86,4.31,4.31,0,0,0,3.129,1.653c.168.012.335.028.5.05A.892.892,0,0,1,1149.956,500.422Zm-6.28-2.034c-.094,0-.116.074-.15.125a6.3,6.3,0,0,1-1.772,1.767c-.146.1-.152.155,0,.254a6.15,6.15,0,0,1,1.77,1.769c.095.144.155.15.254,0a6.163,6.163,0,0,1,1.77-1.769c.148-.1.146-.159,0-.255a6.241,6.241,0,0,1-1.772-1.768C1143.744,498.467,1143.706,498.426,1143.676,498.388Z" fill="#686867"/>
      <path id="Path_2056" data-name="Path 2056" d="M1102.337,467.155a.877.877,0,0,1,.912.865,4.5,4.5,0,0,0,2.316,3.947,4.791,4.791,0,0,0,2.2.578.917.917,0,0,1-.008,1.833,4.523,4.523,0,0,0-4.508,4.477.917.917,0,1,1-1.835-.011,4.522,4.522,0,0,0-1.96-3.668,4.7,4.7,0,0,0-2.56-.8.918.918,0,0,1-.017-1.832,4.567,4.567,0,0,0,3.308-1.427,4.238,4.238,0,0,0,1.182-2.662c.013-.186.028-.373.055-.558A.89.89,0,0,1,1102.337,467.155Zm2.016,6.285a1.254,1.254,0,0,0-.118-.1,6.331,6.331,0,0,1-1.787-1.793c-.1-.147-.153-.117-.236.008a6.256,6.256,0,0,1-1.792,1.788c-.147.1-.116.154.009.236a6.262,6.262,0,0,1,1.773,1.769c.086.128.144.181.253.015a6.157,6.157,0,0,1,1.789-1.791C1104.288,473.546,1104.346,473.524,1104.353,473.44Z" fill="#686867"/>
      <path id="Path_2057" data-name="Path 2057" d="M1120.315,516.657c-.036.227.129.588-.072.778-.186.174-.537.047-.814.056-.243.009-.486,0-.729,0-.151,0-.221-.059-.219-.215,0-.466,0-.933,0-1.4,0-.152.059-.221.214-.22.467,0,.934.005,1.4,0,.177,0,.224.086.22.243C1120.311,516.134,1120.315,516.367,1120.315,516.657Z" fill="#686867"/>
      <path id="Path_2058" data-name="Path 2058" d="M1122.075,516.548c0-.225,0-.449,0-.673,0-.153.063-.218.217-.217q.7,0,1.4,0c.154,0,.219.064.218.218q-.006.7,0,1.4c0,.154-.064.219-.218.218q-.7-.006-1.4,0c-.153,0-.221-.063-.218-.217C1122.077,517.033,1122.074,516.79,1122.075,516.548Z" fill="#686867"/>
      <path id="Path_2059" data-name="Path 2059" d="M1127.5,516.6c0,.224,0,.449,0,.673,0,.153-.063.218-.217.217q-.7-.006-1.4,0c-.153,0-.219-.063-.218-.217,0-.467,0-.934,0-1.4,0-.153.064-.219.217-.218q.7.006,1.4,0c.153,0,.22.063.217.217C1127.5,516.118,1127.5,516.361,1127.5,516.6Z" fill="#686867"/>
      <circle id="Ellipse_15" data-name="Ellipse 15" cx="4.022" cy="4.022" r="4.022" transform="translate(1119.34 468.581)" fill="#f9d71c"/>
      <path id="Path_2060" data-name="Path 2060" d="M1118.9,476.129a5.427,5.427,0,1,1,8.223-.031c.071.07.159.036.237.036.58,0,1.161.006,1.741,0a.955.955,0,0,0,1.06-1.061q0-3.423,0-6.848c0-.758.314-1.072,1.072-1.072q1.7,0,3.4,0a.884.884,0,0,1,.96.958c0,2.4.006,4.809,0,7.213a6.112,6.112,0,0,1-2.248,4.762c-.182.158-.188.233-.026.4a16.513,16.513,0,0,1,2.19,3.249,12.24,12.24,0,0,0,1.89,2.739,4.083,4.083,0,0,0,2.443,1.263,2.747,2.747,0,0,0,.966-.124.924.924,0,0,1,1.05.4.94.94,0,0,1-.047,1.055.705.705,0,0,1-.3.251,4.668,4.668,0,0,0-1.95,1.683c-.659.85-1.27,1.737-1.941,2.577a6.762,6.762,0,0,1-4.4,2.607,8.743,8.743,0,0,1-2.487-.013c-.23-.032-.309-.008-.251.245.149.646.28,1.3.416,1.945.03.146.091.228.261.225a.871.871,0,0,1,.692.371l5.853,7.14,8.1,9.871c.831,1.013,1.663,2.024,2.486,3.042a.545.545,0,0,0,.5.235c.308-.017.618,0,.926-.007.2-.006.262.076.259.266-.008.421-.015.842,0,1.262.011.256-.091.316-.328.315-1.478-.009-2.956,0-4.434,0l-48.668,0c-.562,0-.5.053-.506-.517,0-.337.01-.674,0-1.01-.009-.226.062-.325.3-.311.279.016.562-.013.841.008a.618.618,0,0,0,.572-.267q2.438-2.991,4.887-5.972,5.748-7.008,11.5-14.016a.926.926,0,0,1,.758-.41c.207.006.2-.162.23-.291.183-.84.36-1.681.54-2.521q.95-4.439,1.9-8.877a1.761,1.761,0,0,0,.036-.361c0-1.544-.005-3.087.007-4.631,0-.269-.072-.364-.346-.347a6.345,6.345,0,0,1-6.8-5.432,8.4,8.4,0,0,1-.046-1.316q-.008-3.326,0-6.652a.893.893,0,0,1,1-1.007q1.727,0,3.452,0a.887.887,0,0,1,.978.97q0,3.369,0,6.736c0,.122,0,.244.006.365a.882.882,0,0,0,.868.895C1117.415,476.154,1118.134,476.129,1118.9,476.129Zm27.131,43.108c-.1-.125-.155-.208-.22-.286q-4.67-5.7-9.335-11.4c-.161-.2-.247-.2-.425-.021-1.084,1.1-2.178,2.188-3.271,3.278a.985.985,0,0,1-1.6,0q-1.718-1.715-3.433-3.433c-.256-.255-.258-.254-.521.009q-1.707,1.705-3.414,3.413a.987.987,0,0,1-1.622,0c-1.152-1.15-2.307-2.3-3.45-3.456-.185-.188-.291-.174-.469.006-1.13,1.145-2.271,2.279-3.409,3.417a1.007,1.007,0,0,1-1.683.005q-1.627-1.626-3.253-3.256c-.129-.13-.224-.215-.369-.011-.162.228-.351.437-.529.654q-4.17,5.09-8.342,10.178c-.234.285-.464.573-.726.9Zm-23.013-41.265q-3.171,0-6.342,0a2.7,2.7,0,0,1-2.525-1.765,3.689,3.689,0,0,1-.157-1.354c0-1.852,0-3.7,0-5.557,0-.224-.055-.32-.3-.31-.411.017-.823.009-1.235,0-.169,0-.233.062-.23.231.03,2.141-.069,4.284.051,6.423a4.411,4.411,0,0,0,3.513,3.975,15.015,15.015,0,0,0,2.63.111.9.9,0,0,1,.993.985q0,3.072,0,6.146a1.958,1.958,0,0,1-.034.417q-.62,2.877-1.232,5.753-.564,2.631-1.135,5.258c-.049.226-.018.316.243.309.645-.018,1.292-.018,1.937,0,.27.007.4-.071.46-.348.192-.847.413-1.688.624-2.531q.875-3.507,1.752-7.015c.157-.627.456-.894.981-.89.5,0,.785.28.941.9.063.254.123.508.187.762.729,2.919,1.463,5.836,2.182,8.757a.4.4,0,0,0,.477.361c.645-.021,1.291-.018,1.936,0,.251.007.278-.087.233-.295q-1-4.614-1.984-9.23a10.972,10.972,0,0,1-.407-2.058c-.036-2.141-.016-4.284-.01-6.426a.857.857,0,0,1,.86-.857c.364-.008.729,0,1.094,0a7.357,7.357,0,0,0,1.784-.14,4.435,4.435,0,0,0,3.432-4.376c.046-1.991.009-3.984.015-5.977,0-.206-.088-.253-.271-.249-.383.009-.768.019-1.15,0-.277-.015-.346.087-.344.352q.013,2.988,0,5.977a2.673,2.673,0,0,1-2.665,2.657Q1126.171,477.975,1123.013,477.972Zm12.012,27.88a.718.718,0,0,0-.182-.271c-1.227-1.5-2.475-2.979-3.67-4.5a1.568,1.568,0,0,0-1.4-.669c-4.695.03-9.391.017-14.087.015a.526.526,0,0,0-.47.177q-2.047,2.513-4.111,5.011c-.163.2-.143.311.032.483q1.323,1.3,2.619,2.619c.2.206.31.2.509,0,1.148-1.167,2.312-2.319,3.467-3.478a1.065,1.065,0,0,1,.789-.363,1.039,1.039,0,0,1,.756.372c1.157,1.157,2.319,2.31,3.469,3.475.187.19.294.2.488.007,1.149-1.167,2.312-2.318,3.467-3.478a1.081,1.081,0,0,1,.84-.375,1.056,1.056,0,0,1,.724.377q1.757,1.757,3.511,3.514c.14.142.233.168.386.013.907-.919,1.822-1.828,2.735-2.742A.338.338,0,0,0,1135.025,505.852Zm-2.953-11.468a4.791,4.791,0,0,0,3.863-1.7c.888-1,1.572-2.164,2.433-3.189.082-.1.069-.154-.056-.2-.2-.078-.4-.165-.59-.262a7.663,7.663,0,0,1-2.89-2.756c-.662-1-1.192-2.076-1.828-3.091a8.377,8.377,0,0,0-1.46-1.8c-.091-.082-.17-.157-.318-.107a6.779,6.779,0,0,1-2.435.3c-.389-.013-.391,0-.391.375q0,2.316,0,4.632a1.822,1.822,0,0,0,.045.388q.432,2,.856,4c.209.978.413,1.956.627,2.932.029.133.018.3.238.325A13.253,13.253,0,0,0,1132.072,494.384Zm-9.1-25.389a3.555,3.555,0,0,0-3.538,3.578,3.554,3.554,0,0,0,7.108-.006A3.55,3.55,0,0,0,1122.974,468.995Zm.034,23.67c-.045.1-.06.122-.067.148q-.7,2.783-1.4,5.565c-.051.205.048.215.2.214.8,0,1.607,0,2.411,0,.34,0,.34,0,.26-.32q-.363-1.453-.727-2.906C1123.467,494.489,1123.246,493.612,1123.008,492.665Z" fill="#686867"/>
    </g>
    <g id="Group_8618" data-name="Group 8618" transform="translate(415.24 -115.465)">
      <circle id="Ellipse_16" data-name="Ellipse 16" cx="2.633" cy="2.633" r="2.633" transform="translate(719.59 587.045)" fill="#f9d61b"/>
      <circle id="Ellipse_17" data-name="Ellipse 17" cx="2.777" cy="2.777" r="2.777" transform="translate(703.79 601.984)" fill="#f9d61b"/>
      <circle id="Ellipse_18" data-name="Ellipse 18" cx="2.777" cy="2.777" r="2.777" transform="translate(687.319 617.401)" fill="#f9d61b"/>
      <g id="Group_485" data-name="Group 485">
        <g id="Group_484" data-name="Group 484">
          <path id="Path_2061" data-name="Path 2061" d="M706.1,618.414h-5.971c-.572,0-.86-.3-.86-.9,0-1.042-.005-2.083,0-3.125a7.225,7.225,0,0,1,2.713-5.759,5.809,5.809,0,0,1,1.3-.812c.158-.072.192-.111.058-.264a4.133,4.133,0,0,1-.046-5.487,3.474,3.474,0,0,1,3.881-1.149,3.754,3.754,0,0,1,2.684,3.15,4.039,4.039,0,0,1-.995,3.5c-.11.126-.1.164.047.237a7.125,7.125,0,0,1,3.97,5.486,4.962,4.962,0,0,1,.071.845c-.005,1.133,0,2.267,0,3.4a.774.774,0,0,1-.834.881Zm0-1.636h5.046c.127,0,.26.02.256-.191a22.676,22.676,0,0,0-.095-3.117,5.311,5.311,0,0,0-5.885-4.6,5.025,5.025,0,0,0-3.254,1.824,5.584,5.584,0,0,0-1.314,3.273c-.06.833-.014,1.666-.041,2.5-.008.237.056.314.289.313C702.775,616.773,704.441,616.778,706.107,616.778Zm.039-14.356a2.37,2.37,0,0,0-.047,4.734,2.261,2.261,0,0,0,2.256-2.327A2.3,2.3,0,0,0,706.146,602.422Z" fill="#686867"/>
          <path id="Path_2062" data-name="Path 2062" d="M722.037,603.209h-5.994c-.552,0-.843-.309-.843-.895,0-1.117-.021-2.234,0-3.35a7.2,7.2,0,0,1,2.16-5.054,6.386,6.386,0,0,1,1.864-1.309c.16-.075.167-.118.049-.251a4.134,4.134,0,0,1-1.032-3.259,3.976,3.976,0,0,1,2.966-3.461,3.8,3.8,0,0,1,4.55,3.05,4.075,4.075,0,0,1-.944,3.656c-.111.13-.139.176.041.268a7.119,7.119,0,0,1,3.983,5.718,13.948,13.948,0,0,1,.04,1.723c.008.766,0,1.533,0,2.3a.773.773,0,0,1-.827.864Q725.047,603.211,722.037,603.209Zm-.012-1.636h5.046c.123,0,.267.035.262-.182a24.006,24.006,0,0,0-.089-3.093,5.231,5.231,0,0,0-7.44-4.141,5.4,5.4,0,0,0-3.02,4.677c-.064.808-.01,1.616-.039,2.423-.009.256.065.324.3.322C718.708,601.569,720.367,601.574,722.025,601.573Zm.024-9.613a2.3,2.3,0,0,0,2.232-2.387,2.267,2.267,0,0,0-2.259-2.351,2.373,2.373,0,0,0,.027,4.738Z" fill="#686867"/>
          <path id="Path_2063" data-name="Path 2063" d="M690.191,633.619H684.2a.779.779,0,0,1-.846-.894c0-1.041-.019-2.084,0-3.125a7.108,7.108,0,0,1,3.982-6.566c.188-.1.208-.138.062-.311a4.053,4.053,0,0,1-.812-4.043A3.733,3.733,0,0,1,689.568,616a3.839,3.839,0,0,1,4.386,3.306,4.137,4.137,0,0,1-.986,3.437c-.109.127-.145.176.038.269a7.107,7.107,0,0,1,3.983,5.718,16.443,16.443,0,0,1,.041,2c.01.691,0,1.383,0,2.075a.762.762,0,0,1-.775.815Zm-.015-1.636h5.046c.124,0,.265.033.261-.183a23.3,23.3,0,0,0-.091-3.093,5.222,5.222,0,0,0-7.352-4.178,5.365,5.365,0,0,0-3.108,4.741c-.062.8-.008,1.6-.037,2.4-.01.256.067.322.306.321C686.859,631.978,688.518,631.983,690.176,631.983Zm.025-9.614A2.375,2.375,0,1,0,687.946,620,2.335,2.335,0,0,0,690.2,622.369Z" fill="#686867"/>
          <path id="Path_2064" data-name="Path 2064" d="M701.631,595.972H713.36c.356,0,.356,0,.357.388,0,.308-.014.617,0,.924.014.248-.059.331-.3.329-1.595-.01-3.191-.005-4.786-.005-6.074,0-12.148-.013-18.222.005a5.522,5.522,0,0,0-5.448,5.021,5.375,5.375,0,0,0,1.306,4.166,5.1,5.1,0,0,0,3.721,1.936c1.57.095,3.142.023,4.713.038,1.184.011,2.369.007,3.554,0,.222,0,.311.061.3.308-.017.341-.017.684,0,1.025.012.24-.063.313-.293.312-2.172-.008-4.344,0-6.516,0H690.2a7.181,7.181,0,0,1-6.721-5.822,7.4,7.4,0,0,1,4.3-8.117,6.444,6.444,0,0,1,2.47-.5Q695.945,595.977,701.631,595.972Z" fill="#686867"/>
          <path id="Path_2065" data-name="Path 2065" d="M710.6,628.017H698.892c-.375,0-.375,0-.376-.391,0-.317.012-.634,0-.95-.011-.23.064-.3.282-.3,1.532.008,3.065,0,4.6,0q9.147,0,18.293,0a5.288,5.288,0,0,0,5.129-3.588,5.579,5.579,0,0,0-4.081-7.488,6.842,6.842,0,0,0-1.107-.089q-3.413-.006-6.825,0c-.357,0-.358,0-.359-.384,0-.334.006-.667,0-1,0-.176.044-.253.226-.253,2.583.005,5.167-.041,7.748.024a5.975,5.975,0,0,1,3.951,1.724,7.3,7.3,0,0,1,2.365,6.006,7.153,7.153,0,0,1-5.165,6.483,6.575,6.575,0,0,1-1.64.208q-5.663-.009-11.326,0Z" fill="#686867"/>
        </g>
      </g>
    </g>
  </g>
</svg>
