<svg xmlns="http://www.w3.org/2000/svg" width="155.485" height="88.056" viewBox="0 0 155.485 88.056">
  <g id="Group_379" data-name="Group 379" transform="translate(-1880.902 -703.233)">
    <g id="Group_366" data-name="Group 366">
      <path id="Path_1564" data-name="Path 1564" d="M2004.035,733.908a66.44,66.44,0,0,0-45.417-17.619,67.12,67.12,0,0,0-33.886,9.063,64.507,64.507,0,0,0-13.208,10.178,59.572,59.572,0,0,0-17.7,42.2h42.115a20.829,20.829,0,0,1,5.877-14.447,22.655,22.655,0,0,1,6.138-4.54,23.57,23.57,0,0,1,10.668-2.522h0a23.1,23.1,0,0,1,17.9,8.3,20.722,20.722,0,0,1,4.784,13.214h42.115A59.733,59.733,0,0,0,2004.035,733.908Z" fill="#00b300"/>
    </g>
    <g id="Group_367" data-name="Group 367">
      <path id="Path_1565" data-name="Path 1565" d="M1911.524,735.53l30.288,27.755a20.824,20.824,0,0,0-5.877,14.446H1893.82A59.574,59.574,0,0,1,1911.524,735.53Z" fill="#e7001b"/>
    </g>
    <g id="Group_368" data-name="Group 368">
      <path id="Path_1566" data-name="Path 1566" d="M1958.61,716.288v39.933a23.192,23.192,0,0,0-16.806,7.062l-30.288-27.755A66.318,66.318,0,0,1,1958.61,716.288Z" fill="#ffcf00"/>
    </g>
    <g id="Group_369" data-name="Group 369">
      <path id="Path_1567" data-name="Path 1567" d="M2004.035,733.908l-27.517,30.609a23.1,23.1,0,0,0-17.9-8.3V716.289A66.44,66.44,0,0,1,2004.035,733.908Z" fill="#f29100"/>
    </g>
    <path id="Path_1568" data-name="Path 1568" d="M1958.645,716.821c-33.542,0-61.088,26.73-64.155,60.88h12.332c2.477-27.729,24.728-49.432,51.823-49.432s49.345,21.7,51.822,49.432H2022.8C2019.733,743.551,1992.186,716.821,1958.645,716.821Z" fill="#1d1d1b" opacity="0.3"/>
    <path id="Path_1569" data-name="Path 1569" d="M1958.48,714.79c-34.844,0-63.46,27.621-66.645,62.911h12.811c2.573-28.654,25.688-51.081,53.834-51.081s51.26,22.427,53.833,51.081h12.811C2021.939,742.411,1993.323,714.79,1958.48,714.79Z" fill="#e5e5e5"/>
    <path id="Path_1570" data-name="Path 1570" d="M1985.081,777.7a26.649,26.649,0,0,0-53.2,0Z" fill="#fff"/>
    <path id="Path_1571" data-name="Path 1571" d="M1982.2,778.808a22.589,22.589,0,0,0-45.1,0Z" transform="translate(-1.175 -1.104)" fill="#e5e5e5"/>
    <path id="Path_13075" data-name="Path 13075" d="M1970.44,773.263a16.7,16.7,0,0,0-33.335,0Z" transform="translate(4.708 4.45)"/>
    <path id="Path_13076" data-name="Path 13076" d="M1957.812,767.311a10.372,10.372,0,0,0-20.707,0Z" transform="translate(11.022 10.42)" fill="#8a9b8e"/>
    <line id="Line_18" data-name="Line 18" y1="28.247" x2="25.575" transform="translate(1978.438 733.442)" fill="none" stroke="#fff" stroke-width="0.5"/>
    <line id="Line_19" data-name="Line 19" y1="38.553" transform="translate(1958.78 715.119)" fill="none" stroke="#fff" stroke-width="0.5"/>
    <line id="Line_20" data-name="Line 20" x1="27.674" y1="25.957" transform="translate(1911.638 735.159)" fill="none" stroke="#fff" stroke-width="0.5"/>
    <g id="Group_372" data-name="Group 372">
      <g id="Group_371" data-name="Group 371">
        <path id="Path_1579" data-name="Path 1579" d="M1928.9,729.337l.4-.341a.737.737,0,0,0,.3-.5.691.691,0,0,0-.188-.493.61.61,0,0,0-.44-.235.694.694,0,0,0-.48.2.727.727,0,0,0-.255.426.493.493,0,0,0,.119.429l-.742.642a1.2,1.2,0,0,1-.3-.662,1.383,1.383,0,0,1,.127-.745,1.952,1.952,0,0,1,.512-.673,1.855,1.855,0,0,1,1.175-.521,1.284,1.284,0,0,1,1.013.492,1.041,1.041,0,0,1,.252.608,1.345,1.345,0,0,1-.124.687,1.151,1.151,0,0,1,1.382.331,1.3,1.3,0,0,1,.328,1.112,1.93,1.93,0,0,1-.7,1.133,1.831,1.831,0,0,1-1.171.5,1.275,1.275,0,0,1-1.031-.472l.742-.643a.564.564,0,0,0,.456.207.76.76,0,0,0,.5-.2.772.772,0,0,0,.294-.5.642.642,0,0,0-.171-.5.691.691,0,0,0-1.1-.026l-.393.339Z" fill="#6f6f6e"/>
        <path id="Path_1580" data-name="Path 1580" d="M1933.769,727.115l-1.582,1.071-.444-.655,1.583-1.072Z" fill="#6f6f6e"/>
        <path id="Path_1581" data-name="Path 1581" d="M1937.082,725.135l.5-.258.362.7-.5.257.492.95-.873.451-.49-.951-1.8.931-.323-.529.336-3.839.882-.456Zm-1.844.952.972-.5-.8-1.55-.006.129Z" fill="#6f6f6e"/>
        <path id="Path_1582" data-name="Path 1582" d="M1940.162,724.063l-1.79.669-.278-.74,1.791-.671Z" fill="#6f6f6e"/>
        <path id="Path_1583" data-name="Path 1583" d="M1941.01,723.025l-.32-2.509,2.693-.658.194.8-1.91.466.133,1.062a1.543,1.543,0,0,1,.679-.358,1.425,1.425,0,0,1,1.179.163,1.75,1.75,0,0,1,.679,1.1,1.779,1.779,0,0,1,.008.881,1.425,1.425,0,0,1-.424.708,1.813,1.813,0,0,1-.814.414,1.92,1.92,0,0,1-.852.021,1.486,1.486,0,0,1-.71-.353,1.388,1.388,0,0,1-.407-.673l.944-.23a.725.725,0,0,0,.323.416.679.679,0,0,0,.511.051.6.6,0,0,0,.441-.354,1.108,1.108,0,0,0,.015-.7.922.922,0,0,0-.355-.578.762.762,0,0,0-.624-.078.849.849,0,0,0-.507.312l-.072.109Z" fill="#6f6f6e"/>
      </g>
    </g>
    <g id="Group_374" data-name="Group 374">
      <g id="Group_373" data-name="Group 373">
        <path id="Path_1584" data-name="Path 1584" d="M1976.4,721.6l-.169.79-.093-.02a1.666,1.666,0,0,0-1.12.115,1.41,1.41,0,0,0-.671.812,1.342,1.342,0,0,1,1.057-.185,1.263,1.263,0,0,1,.907.666,1.85,1.85,0,0,1,.118,1.269,1.81,1.81,0,0,1-.386.809,1.5,1.5,0,0,1-.705.472,1.7,1.7,0,0,1-.89.032,1.6,1.6,0,0,1-1.121-.794,2.113,2.113,0,0,1-.168-1.518l.074-.346a3.166,3.166,0,0,1,.594-1.327,2.236,2.236,0,0,1,1.052-.751,2.562,2.562,0,0,1,1.362-.059Zm-1.454,2.224a.789.789,0,0,0-.447.031.748.748,0,0,0-.347.261l-.063.292a1.322,1.322,0,0,0,.03.791.625.625,0,0,0,.474.383.615.615,0,0,0,.551-.137,1.008,1.008,0,0,0,.326-.591,1.019,1.019,0,0,0-.056-.677A.646.646,0,0,0,1974.949,723.824Z" fill="#6f6f6e"/>
        <path id="Path_1585" data-name="Path 1585" d="M1979.05,725.838l-1.81-.616.255-.75,1.81.616Z" fill="#6f6f6e"/>
        <path id="Path_1586" data-name="Path 1586" d="M1984.135,725.2l-3.623,3.14-.934-.447,3.521-2.919-2.219-1.062.342-.714,3.15,1.508Z" fill="#6f6f6e"/>
        <path id="Path_1587" data-name="Path 1587" d="M1985.339,729.1l-1.614-1.025.424-.668,1.615,1.025Z" fill="#6f6f6e"/>
        <path id="Path_1588" data-name="Path 1588" d="M1989.821,730.161a1.158,1.158,0,0,1-.543.381,1.3,1.3,0,0,1-.666.032,1.427,1.427,0,0,1,.141.73,1.223,1.223,0,0,1-.289.687,1.294,1.294,0,0,1-1,.524,2.14,2.14,0,0,1-1.892-1.544,1.289,1.289,0,0,1,.307-1.091,1.223,1.223,0,0,1,.615-.423,1.419,1.419,0,0,1,.741-.01,1.277,1.277,0,0,1-.1-.657,1.158,1.158,0,0,1,.266-.608,1.283,1.283,0,0,1,.962-.514,1.937,1.937,0,0,1,1.775,1.443A1.275,1.275,0,0,1,1989.821,730.161Zm-2.074,1.152a.715.715,0,0,0,.181-.517.749.749,0,0,0-.776-.635.8.8,0,0,0-.651.794.763.763,0,0,0,.778.644A.711.711,0,0,0,1987.747,731.313Zm1.283-1.735a.688.688,0,0,0,.175-.456.622.622,0,0,0-.663-.547.673.673,0,0,0-.415.267.707.707,0,0,0-.182.465.606.606,0,0,0,.668.544A.722.722,0,0,0,1989.03,729.578Z" fill="#6f6f6e"/>
      </g>
    </g>
    <g id="Group_376" data-name="Group 376">
      <g id="Group_375" data-name="Group 375">
        <path id="Path_1589" data-name="Path 1589" d="M2012.541,755.591a1.238,1.238,0,0,1-.751-.618,1.32,1.32,0,0,1-.091-1.138,1.777,1.777,0,0,1,.891-.914,1.892,1.892,0,0,1,.888-.228,1.555,1.555,0,0,1,.834.231,1.645,1.645,0,0,1,.6.652,1.563,1.563,0,0,1,.188.883,1.6,1.6,0,0,1-.346.851,2.547,2.547,0,0,1-.83.678l-.321.169a2.86,2.86,0,0,1-2.005.361,2.33,2.33,0,0,1-1.479-1.191l-.116-.212.725-.381.1.191A1.254,1.254,0,0,0,2012.541,755.591Zm.025-.754a.687.687,0,0,0,.3.306.826.826,0,0,0,.382.092l.358-.189a1.356,1.356,0,0,0,.6-.529.591.591,0,0,0,.006-.579.576.576,0,0,0-.465-.3,1.153,1.153,0,0,0-.689.148,1.112,1.112,0,0,0-.5.473A.6.6,0,0,0,2012.566,754.837Z" fill="#6f6f6e"/>
        <path id="Path_1590" data-name="Path 1590" d="M2013.821,759.256l-.685-1.785.739-.285.685,1.786Z" fill="#6f6f6e"/>
        <path id="Path_1591" data-name="Path 1591" d="M2013.065,762.884l-.24-.951,3.667-.93-.64-1.046.774-.2,1.213,1.8.027.1Z" fill="#6f6f6e"/>
        <path id="Path_1592" data-name="Path 1592" d="M2015.8,767.529a2.5,2.5,0,0,1-1.6-.256,1.479,1.479,0,0,1-.673-1.177,1.5,1.5,0,0,1,.4-1.286,2.436,2.436,0,0,1,1.474-.6l.9-.1a2.468,2.468,0,0,1,1.61.26,1.7,1.7,0,0,1,.268,2.459,2.423,2.423,0,0,1-1.471.6Zm.891-1.083a1.823,1.823,0,0,0,.873-.262.572.572,0,0,0,.223-.552.56.56,0,0,0-.321-.48,1.678,1.678,0,0,0-.848-.085l-1.2.129a1.888,1.888,0,0,0-.876.259.56.56,0,0,0-.236.556.55.55,0,0,0,.336.487,1.861,1.861,0,0,0,.876.073Z" fill="#6f6f6e"/>
      </g>
    </g>
    <g id="Group_378" data-name="Group 378">
      <g id="Group_377" data-name="Group 377">
        <path id="Path_1593" data-name="Path 1593" d="M1905.709,760.68l-.168.966-3.727-.647.157,1.217-.786-.136-.372-2.144.018-.1Z" fill="#6f6f6e"/>
        <path id="Path_1594" data-name="Path 1594" d="M1904.969,756.745l-.547,1.832-.758-.226.546-1.833Z" fill="#6f6f6e"/>
        <path id="Path_1595" data-name="Path 1595" d="M1908.181,753.408l-1.346,3.11-.617-.266-.929-2.146a4,4,0,0,0-.384-.7,1.01,1.01,0,0,0-.4-.348.762.762,0,0,0-.542-.052.6.6,0,0,0-.362.362.645.645,0,0,0,0,.572.9.9,0,0,0,.476.415l-.39.9a1.626,1.626,0,0,1-.672-.526,1.512,1.512,0,0,1-.3-.792,1.864,1.864,0,0,1,.159-.9,1.758,1.758,0,0,1,.809-.943,1.3,1.3,0,0,1,1.119.023,1.67,1.67,0,0,1,.61.471,4.184,4.184,0,0,1,.554.95l.641,1.5.845-1.951Z" fill="#6f6f6e"/>
      </g>
    </g>
  </g>
</svg>
