<svg xmlns="http://www.w3.org/2000/svg" width="100" height="100" viewBox="0 0 100 100">
  <g id="Group_1058" data-name="Group 1058" transform="translate(-1096.014 -467.136)">
    <path id="Path_2053" data-name="Path 2053" d="M1111.8,510.393l6.888-11.14,28.034,1.409s.582-2.643,4.858,1.886a54.6,54.6,0,0,1,7.672,11.479l-6.914,6.091-9.421-6.42-1.9-1.841-8.493,8.246-6.454-6.467-7.257,6.4-9.232-6.082Z" transform="translate(11.357 27.263)" fill="#f9d71c"/>
    <path id="Path_2054" data-name="Path 2054" d="M1112.053,503.917q-6.928,0-13.858,0a1.745,1.745,0,0,1-1.963-1.558,8.432,8.432,0,0,1,7.253-10.246,7.51,7.51,0,0,1,3.519.355.628.628,0,0,0,.778-.185,11.625,11.625,0,0,1,9.557-3.541,11.867,11.867,0,0,1,10.6,10.108,13.23,13.23,0,0,1-.01,3.4,1.745,1.745,0,0,1-1.908,1.672Zm-.047-3.435h10.762c.473,0,.947-.006,1.418,0,.252,0,.376-.051.363-.354a8.314,8.314,0,0,0-9.67-7.829,8.2,8.2,0,0,0-5.391,3.341,1.753,1.753,0,0,1-2.559.58,5.156,5.156,0,0,0-3.13-.621,5.014,5.014,0,0,0-4.25,4.3c-.039.464.056.595.539.593C1104.062,500.473,1108.033,500.481,1112.006,500.483Z" transform="translate(0 18.337)" fill="#686867"/>
    <path id="Path_2055" data-name="Path 2055" d="M1160.938,505.926a1.641,1.641,0,0,1-1.635,1.689,8.457,8.457,0,0,0-8.446,8.416,1.716,1.716,0,0,1-3.431,0,8.459,8.459,0,0,0-8.443-8.42,1.716,1.716,0,0,1-.006-3.429,8.5,8.5,0,0,0,6.175-2.7,7.907,7.907,0,0,0,2.185-4.939c.021-.312.06-.625.09-.939a1.663,1.663,0,0,1,1.766-1.508,1.643,1.643,0,0,1,1.659,1.556,8.666,8.666,0,0,0,1.864,5.35,8.062,8.062,0,0,0,5.853,3.092c.314.022.627.052.939.094A1.668,1.668,0,0,1,1160.938,505.926Zm-11.748-3.805c-.176.006-.217.138-.281.234a11.791,11.791,0,0,1-3.315,3.306c-.273.18-.284.29,0,.475a11.5,11.5,0,0,1,3.311,3.309c.178.269.29.281.475,0a11.525,11.525,0,0,1,3.311-3.309c.277-.183.273-.3,0-.477a11.67,11.67,0,0,1-3.315-3.307C1149.318,502.269,1149.247,502.192,1149.19,502.121Z" transform="translate(35.063 22.869)" fill="#686867"/>
    <path id="Path_2056" data-name="Path 2056" d="M1107.832,467.155a1.64,1.64,0,0,1,1.706,1.618,8.419,8.419,0,0,0,4.333,7.384,8.963,8.963,0,0,0,4.117,1.081,1.716,1.716,0,0,1-.015,3.429,8.46,8.46,0,0,0-8.433,8.375,1.716,1.716,0,1,1-3.433-.021,8.458,8.458,0,0,0-3.667-6.862,8.793,8.793,0,0,0-4.789-1.491,1.717,1.717,0,0,1-.032-3.427,8.544,8.544,0,0,0,6.188-2.669,7.928,7.928,0,0,0,2.211-4.98c.024-.348.052-.7.1-1.044A1.666,1.666,0,0,1,1107.832,467.155Zm3.771,11.758a2.356,2.356,0,0,0-.221-.182,11.847,11.847,0,0,1-3.343-3.354c-.179-.275-.286-.219-.441.015a11.7,11.7,0,0,1-3.352,3.345c-.275.181-.217.288.017.441a11.715,11.715,0,0,1,3.317,3.309c.161.239.269.339.473.028a11.519,11.519,0,0,1,3.347-3.35C1111.482,479.111,1111.59,479.07,1111.6,478.913Z" transform="translate(0.01 0.017)" fill="#686867"/>
    <path id="Path_2057" data-name="Path 2057" d="M1121.912,517.528c-.067.425.241,1.1-.135,1.455-.348.326-1,.088-1.523.1-.455.017-.909,0-1.364,0-.282.006-.413-.11-.41-.4.008-.872.006-1.745,0-2.619,0-.284.11-.413.4-.411.874.007,1.748.009,2.621,0,.331,0,.419.161.412.455C1121.9,516.549,1121.912,516.985,1121.912,517.528Z" transform="translate(19.164 41.313)" fill="#686867"/>
    <path id="Path_2058" data-name="Path 2058" d="M1122.077,517.324c0-.421.006-.84,0-1.259-.008-.286.118-.408.406-.406q1.311.008,2.619,0c.288,0,.41.12.408.408q-.011,1.31,0,2.619c0,.288-.12.41-.408.408q-1.308-.011-2.619,0c-.286,0-.414-.118-.408-.406C1122.081,518.231,1122.075,517.777,1122.077,517.324Z" transform="translate(22.228 41.313)" fill="#686867"/>
    <path id="Path_2059" data-name="Path 2059" d="M1129.1,517.427c0,.419-.006.84,0,1.259.006.286-.118.408-.406.406q-1.311-.011-2.621,0c-.286,0-.41-.118-.408-.406.008-.874.006-1.747,0-2.621,0-.286.12-.41.406-.408q1.31.011,2.621,0c.286,0,.412.118.406.406C1129.091,516.519,1129.1,516.974,1129.1,517.427Z" transform="translate(25.293 41.313)" fill="#686867"/>
    <circle id="Ellipse_15" data-name="Ellipse 15" cx="7.525" cy="7.525" r="7.525" transform="translate(1139.182 469.839)" fill="#f9d71c"/>
    <path id="Path_2060" data-name="Path 2060" d="M1138.421,483.8a10.059,10.059,0,1,1,15.242-.057c.132.13.295.067.439.067,1.075.007,2.152.011,3.227,0a1.77,1.77,0,0,0,1.965-1.966q.008-6.344,0-12.692c0-1.4.582-1.987,1.987-1.987q3.147,0,6.295,0a1.638,1.638,0,0,1,1.78,1.776c0,4.456.011,8.913,0,13.368a11.327,11.327,0,0,1-4.167,8.826c-.337.293-.348.432-.048.751a30.609,30.609,0,0,1,4.06,6.022,22.672,22.672,0,0,0,3.5,5.076,7.568,7.568,0,0,0,4.528,2.341,5.092,5.092,0,0,0,1.791-.23,1.712,1.712,0,0,1,1.946.743,1.742,1.742,0,0,1-.087,1.955,1.309,1.309,0,0,1-.551.465,8.653,8.653,0,0,0-3.615,3.119c-1.221,1.575-2.354,3.219-3.6,4.776a12.536,12.536,0,0,1-8.163,4.832,16.208,16.208,0,0,1-4.61-.024c-.426-.059-.573-.015-.465.454.276,1.2.519,2.4.771,3.6.056.271.169.423.484.417a1.616,1.616,0,0,1,1.283.688l10.849,13.233q7.5,9.146,15.007,18.295c1.54,1.878,3.083,3.751,4.608,5.638a1.012,1.012,0,0,0,.925.436c.571-.032,1.146.007,1.716-.013.367-.011.486.141.48.493-.015.78-.028,1.561.006,2.339.02.474-.169.586-.608.584-2.74-.017-5.479-.008-8.219-.008l-90.212,0c-1.042,0-.934.1-.938-.958,0-.625.019-1.249-.007-1.872-.017-.419.115-.6.558-.576.517.03,1.042-.024,1.559.015a1.146,1.146,0,0,0,1.06-.495q4.518-5.544,9.059-11.068,10.654-12.988,21.311-25.977a1.717,1.717,0,0,1,1.405-.76c.383.011.374-.3.426-.539.339-1.557.667-3.115,1-4.672q1.76-8.226,3.516-16.453a3.257,3.257,0,0,0,.067-.669c0-2.862-.009-5.721.013-8.583,0-.5-.134-.675-.641-.643a11.761,11.761,0,0,1-12.6-10.068,15.582,15.582,0,0,1-.085-2.439q-.014-6.164,0-12.329a1.656,1.656,0,0,1,1.848-1.866q3.2-.006,6.4,0a1.644,1.644,0,0,1,1.813,1.8q.006,6.244,0,12.484c0,.226-.007.452.011.677a1.635,1.635,0,0,0,1.609,1.659C1135.677,483.85,1137.01,483.8,1138.421,483.8Zm50.29,79.9c-.178-.232-.287-.386-.408-.53q-8.656-10.559-17.3-21.121c-.3-.365-.458-.376-.788-.039-2.009,2.037-4.037,4.055-6.063,6.075a1.826,1.826,0,0,1-2.971,0q-3.184-3.178-6.363-6.363c-.475-.472-.478-.471-.966.017q-3.164,3.161-6.328,6.326a1.83,1.83,0,0,1-3.006,0c-2.135-2.131-4.276-4.257-6.395-6.405-.343-.348-.539-.322-.87.011-2.094,2.122-4.209,4.224-6.319,6.333-1.127,1.125-2,1.129-3.12.009q-3.016-3.014-6.03-6.035c-.239-.241-.415-.4-.684-.02-.3.423-.651.81-.98,1.212q-7.729,9.433-15.463,18.864c-.434.528-.86,1.062-1.346,1.662Zm-42.657-76.48q-5.878,0-11.755,0a5,5,0,0,1-4.68-3.271,6.838,6.838,0,0,1-.291-2.509c0-3.432-.006-6.867.007-10.3,0-.415-.1-.593-.551-.574-.762.031-1.526.017-2.289.006-.313-.006-.432.115-.427.428.056,3.968-.128,7.94.095,11.9a8.175,8.175,0,0,0,6.512,7.367,27.834,27.834,0,0,0,4.875.206,1.663,1.663,0,0,1,1.841,1.826q0,5.694,0,11.391a3.636,3.636,0,0,1-.063.773q-1.149,5.332-2.284,10.663-1.045,4.876-2.1,9.745c-.091.419-.033.586.451.573,1.2-.033,2.395-.033,3.59,0,.5.013.736-.132.853-.645.356-1.57.765-3.129,1.157-4.691q1.621-6.5,3.247-13c.291-1.162.845-1.657,1.818-1.65.919.007,1.455.519,1.744,1.675.117.471.228.942.347,1.412,1.351,5.41,2.712,10.816,4.044,16.23a.734.734,0,0,0,.884.669c1.2-.039,2.393-.033,3.589,0,.465.013.515-.161.432-.547q-1.846-8.552-3.677-17.107a20.345,20.345,0,0,1-.755-3.814c-.067-3.968-.03-7.94-.018-11.91a1.589,1.589,0,0,1,1.594-1.588c.675-.015,1.351-.007,2.028,0a13.637,13.637,0,0,0,3.307-.259,8.221,8.221,0,0,0,6.362-8.11c.085-3.69.016-7.384.028-11.078,0-.382-.163-.469-.5-.461-.71.017-1.424.035-2.132-.006-.513-.028-.641.161-.637.652q.025,5.538.007,11.078a4.955,4.955,0,0,1-4.94,4.924Q1151.908,487.226,1146.054,487.219Zm22.266,51.672a1.332,1.332,0,0,0-.337-.5c-2.274-2.776-4.588-5.521-6.8-8.342a2.906,2.906,0,0,0-2.595-1.24c-8.7.056-17.407.032-26.112.028a.975.975,0,0,0-.871.328q-3.8,4.657-7.62,9.287c-.3.363-.265.576.059.9q2.453,2.4,4.855,4.854c.371.382.575.375.943,0,2.128-2.163,4.286-4.3,6.427-6.446a1.973,1.973,0,0,1,1.463-.673,1.926,1.926,0,0,1,1.4.689c2.145,2.144,4.3,4.281,6.43,6.44.347.352.545.376.9.013,2.13-2.163,4.286-4.3,6.427-6.446a2,2,0,0,1,1.557-.7,1.958,1.958,0,0,1,1.342.7q3.256,3.256,6.508,6.513c.26.263.432.311.716.024,1.681-1.7,3.377-3.388,5.069-5.082A.627.627,0,0,0,1168.319,538.892Zm-5.474-21.255a8.881,8.881,0,0,0,7.161-3.156c1.646-1.857,2.913-4.011,4.51-5.91.152-.182.128-.285-.1-.376-.371-.145-.738-.306-1.094-.486a14.2,14.2,0,0,1-5.357-5.108c-1.227-1.852-2.21-3.848-3.388-5.729a15.526,15.526,0,0,0-2.707-3.345c-.169-.152-.315-.291-.589-.2a12.567,12.567,0,0,1-4.514.556c-.721-.024-.724,0-.724.7q0,4.292,0,8.585a3.379,3.379,0,0,0,.083.719q.8,3.706,1.587,7.414c.387,1.813.765,3.625,1.162,5.434.054.247.033.552.441.6A24.554,24.554,0,0,0,1162.846,517.637Zm-16.864-47.056a6.589,6.589,0,0,0-6.558,6.631,6.588,6.588,0,0,0,13.175-.011A6.579,6.579,0,0,0,1145.981,470.582Zm.063,43.87a2.95,2.95,0,0,0-.124.274q-1.3,5.157-2.593,10.314c-.095.38.089.4.373.4,1.49-.006,2.979,0,4.469,0,.63,0,.63,0,.482-.593q-.673-2.694-1.347-5.386C1146.9,517.832,1146.486,516.207,1146.045,514.451Z" transform="translate(0.006 0)" fill="#686867"/>
  </g>
</svg>
