<svg xmlns="http://www.w3.org/2000/svg" xmlns:xlink="http://www.w3.org/1999/xlink" width="472.293" height="146.884" viewBox="0 0 472.293 146.884">
  <defs>
    <filter id="Ellipse_94" x="0" y="2.846" width="144.038" height="144.038" filterUnits="userSpaceOnUse">
      <feOffset input="SourceAlpha"/>
      <feGaussianBlur stdDeviation="12.5" result="blur"/>
      <feFlood flood-color="#96c32e"/>
      <feComposite operator="in" in2="blur"/>
    </filter>
    <linearGradient id="linear-gradient" x1="0.079" y1="0.144" x2="1.024" y2="0.944" gradientUnits="objectBoundingBox">
      <stop offset="0" stop-color="#f2e500"/>
      <stop offset="1" stop-color="#72b641"/>
    </linearGradient>
    <filter id="Ellipse_97" x="328.255" y="0.949" width="144.038" height="144.038" filterUnits="userSpaceOnUse">
      <feOffset input="SourceAlpha"/>
      <feGaussianBlur stdDeviation="12.5" result="blur-2"/>
      <feFlood flood-color="#c35bdc"/>
      <feComposite operator="in" in2="blur-2"/>
    </filter>
    <linearGradient id="linear-gradient-2" x1="0.081" y1="0.298" x2="1.051" y2="0.766" gradientUnits="objectBoundingBox">
      <stop offset="0" stop-color="#ebb1f8"/>
      <stop offset="0.405" stop-color="#ca63e3"/>
      <stop offset="1" stop-color="#750490"/>
    </linearGradient>
    <filter id="Ellipse_95" x="218.678" y="1.897" width="144.038" height="144.038" filterUnits="userSpaceOnUse">
      <feOffset input="SourceAlpha"/>
      <feGaussianBlur stdDeviation="12.5" result="blur-3"/>
      <feFlood flood-color="#5885bf"/>
      <feComposite operator="in" in2="blur-3"/>
    </filter>
    <linearGradient id="linear-gradient-3" x1="0.023" y1="0.119" x2="1.045" y2="0.936" gradientUnits="objectBoundingBox">
      <stop offset="0" stop-color="#5fc4eb"/>
      <stop offset="1" stop-color="#514896"/>
    </linearGradient>
    <filter id="Ellipse_96" x="109.577" y="0" width="144.038" height="144.038" filterUnits="userSpaceOnUse">
      <feOffset input="SourceAlpha"/>
      <feGaussianBlur stdDeviation="12.5" result="blur-4"/>
      <feFlood flood-color="#f7a53e"/>
      <feComposite operator="in" in2="blur-4"/>
    </filter>
    <linearGradient id="linear-gradient-4" x1="0.028" y1="0.146" x2="1.049" y2="0.912" gradientUnits="objectBoundingBox">
      <stop offset="0" stop-color="#ffd334"/>
      <stop offset="1" stop-color="#ec6a4a"/>
    </linearGradient>
  </defs>
  <g id="Group_1621" data-name="Group 1621" transform="translate(-192.282 -882.41)">
    <g id="Group_8600" data-name="Group 8600" transform="translate(198 909)">
      <g id="Group_949" data-name="Group 949">
        <g id="Group_946" data-name="Group 946" transform="translate(2.088)">
          <path id="Path_2861" data-name="Path 2861" d="M163.1,714.027H140.958v-.292a42.5,42.5,0,0,0-84.994,0v.292H34.694v-.585H55.379a43.082,43.082,0,0,1,86.162,0H163.1Z" transform="translate(-34.694 -670.653)" fill="#9c9b9b"/>
        </g>
        <g id="Group_947" data-name="Group 947" transform="translate(0 40.884)">
          <path id="Path_2862" data-name="Path 2862" d="M34.846,715.11a2.2,2.2,0,1,1,2.2-2.2A2.2,2.2,0,0,1,34.846,715.11Z" transform="translate(-32.648 -710.714)" fill="#9c9b9b"/>
        </g>
        <g id="Group_948" data-name="Group 948" transform="translate(128.185 40.884)">
          <path id="Path_2863" data-name="Path 2863" d="M160.451,715.11a2.2,2.2,0,1,0-2.2-2.2A2.2,2.2,0,0,0,160.451,715.11Z" transform="translate(-158.253 -710.714)" fill="#9c9b9b"/>
        </g>
      </g>
      <g id="Group_8595" data-name="Group 8595" transform="translate(27.987 9.962)">
        <g transform="matrix(1, 0, 0, 1, -33.71, -36.55)" filter="url(#Ellipse_94)" style="mix-blend-mode: multiply;isolation: isolate">
          <ellipse id="Ellipse_94-2" data-name="Ellipse 94" cx="34.519" cy="34.519" rx="34.519" ry="34.519" transform="translate(37.5 40.35)" fill="#fff"/>
        </g>
        <g id="Group_8594" data-name="Group 8594" transform="translate(0 0)">
          <g id="Group_945" data-name="Group 945" transform="translate(-0.054)">
            <ellipse id="Ellipse_22" data-name="Ellipse 22" cx="36.658" cy="36.772" rx="36.658" ry="36.772" transform="translate(1.754 1.754)" fill="url(#linear-gradient)"/>
            <g id="Group_944" data-name="Group 944">
              <path id="Path_2860" data-name="Path 2860" d="M97.95,752.28a38.526,38.526,0,1,1,38.412-38.525A38.512,38.512,0,0,1,97.95,752.28Zm0-73.532a35.007,35.007,0,1,0,34.9,35.007A34.994,34.994,0,0,0,97.95,678.748Z" transform="translate(-59.538 -675.229)" fill="#fff"/>
            </g>
          </g>
          <g id="Group_8616" data-name="Group 8616">
            <text id="THOUGHT" transform="translate(37.946 59.613)" fill="#fff" font-size="6" font-family="Roboto-Bold, Roboto" font-weight="700" letter-spacing="0.03em"><tspan x="-14" y="0">THOUGHT</tspan></text>
            <g id="Group_951" data-name="Group 951" transform="translate(25.946 15.5)">
              <g id="Group_950" data-name="Group 950" transform="translate(0)">
                <path id="Path_2864" data-name="Path 2864" d="M94.507,721.151q-.165-1.339-.332-2.681c-.083-.67-.167-1.34-.244-2.011-.013-.11-.043-.139-.159-.127-.617.062-1.236.111-1.853.168-.593.054-1.185.113-1.778.169-.463.043-.928.083-1.39.128-.132.013-.171-.037-.182-.166-.051-.7-.112-1.406-.168-2.109-.045-.568-.085-1.138-.131-1.706-.055-.694-.113-1.387-.17-2.08a4.715,4.715,0,0,1-.034-.479c0-.143-.055-.178-.188-.178-.857.005-1.715,0-2.572,0-.03,0-.06,0-.09,0-.127.007-.157-.04-.114-.162.172-.492.337-.986.505-1.479q.966-2.823,1.933-5.645a1.289,1.289,0,0,0,.07-.427c0-.622-.021-1.243.034-1.864a11.1,11.1,0,0,1,.867-3.467,11.141,11.141,0,0,1,8.334-6.553,10.537,10.537,0,0,1,2.5-.137,11.128,11.128,0,0,1,10.021,8.031,11.086,11.086,0,0,1,.4,2.333,12.043,12.043,0,0,1-.63,4.508c-.762,2.422-1.486,4.857-2.226,7.286a.435.435,0,0,0-.014.205q.41,2.459.814,4.918c.177,1.072.346,2.144.528,3.215.022.132-.022.169-.135.188-.232.038-.463.079-.695.118h-.18q-.346-2.088-.69-4.176l-.643-3.91a.858.858,0,0,0-.016-.089,1.439,1.439,0,0,1,.041-.822q1.215-3.94,2.411-7.888a9.571,9.571,0,0,0,.4-2.468,10.057,10.057,0,0,0-6.63-9.829,9.573,9.573,0,0,0-2.694-.564,10.07,10.07,0,0,0-10.6,8.251,10.386,10.386,0,0,0-.155,2.319,4.092,4.092,0,0,1-.252,1.54c-.619,1.758-1.211,3.525-1.813,5.289-.011.033-.021.066-.035.1-.04.095,0,.123.093.122.331,0,.662,0,.993,0,.4,0,.792,0,1.188,0,.14,0,.2.046.209.185q.073,1.041.156,2.081c.064.807.135,1.616.2,2.423.046.574.09,1.148.128,1.722.016.235.023.24.256.216.473-.049.946-.087,1.42-.131q.926-.084,1.852-.171l1.659-.154c.09-.008.126.032.136.117.06.506.12,1.013.184,1.52q.144,1.162.291,2.323.107.865.214,1.728c.013.107-.023.152-.135.163-.268.03-.535.071-.8.108Z" transform="translate(-85.084 -690.329)" fill="#fff" stroke="#fff" stroke-width="0.4"/>
                <path id="Path_2865" data-name="Path 2865" d="M103.58,700.789c.145,0,.291,0,.436,0,.105,0,.144.043.142.144,0,.25,0,.5,0,.751,0,.111-.045.15-.153.148-.281,0-.561,0-.842,0-.1,0-.141.024-.155.131a4.121,4.121,0,0,1-.277,1.027.122.122,0,0,0,.063.182c.249.14.493.287.743.427.085.048.116.094.059.189-.135.222-.266.447-.392.676-.053.1-.106.094-.191.043-.241-.145-.488-.278-.728-.424-.09-.055-.146-.053-.212.035a3.874,3.874,0,0,1-.743.742c-.073.057-.088.1-.038.186.148.244.283.5.432.74.064.1.041.156-.06.21-.219.12-.437.247-.65.377-.088.053-.139.046-.191-.048-.138-.25-.287-.494-.426-.744a.13.13,0,0,0-.193-.068,3.881,3.881,0,0,1-1,.266c-.106.011-.143.067-.142.171.005.27,0,.541,0,.811,0,.128-.045.183-.176.18q-.354-.009-.706,0c-.138,0-.185-.052-.181-.188.007-.265,0-.532,0-.8a.147.147,0,0,0-.15-.177,3.859,3.859,0,0,1-.984-.266.134.134,0,0,0-.2.072c-.133.242-.279.477-.409.718-.06.111-.116.124-.222.057-.207-.131-.421-.251-.638-.369-.1-.053-.112-.106-.055-.2.146-.241.281-.487.425-.728.052-.087.056-.143-.037-.211a3.6,3.6,0,0,1-.723-.719c-.082-.107-.144-.1-.248-.04-.23.143-.468.27-.7.411-.094.057-.149.05-.2-.05-.12-.219-.244-.438-.376-.65-.063-.1-.039-.157.06-.212.241-.134.477-.278.717-.41.09-.049.121-.094.078-.2a3.96,3.96,0,0,1-.277-1.042c-.012-.1-.07-.105-.145-.1-.281,0-.561,0-.842,0-.115,0-.163-.037-.16-.156q.009-.36,0-.721c0-.121.037-.17.163-.167.281.006.561,0,.842,0,.091,0,.131-.024.144-.124a4.074,4.074,0,0,1,.277-1.028c.037-.086.026-.134-.059-.18-.246-.136-.485-.284-.731-.417-.107-.058-.132-.115-.064-.224.128-.2.25-.411.361-.625.063-.121.126-.125.234-.058.226.14.461.264.688.4.1.06.162.059.238-.041a3.653,3.653,0,0,1,.723-.718.135.135,0,0,0,.042-.212c-.138-.227-.267-.458-.4-.689-.1-.167-.1-.167.078-.268.2-.118.41-.233.61-.355.091-.056.141-.04.191.051.139.249.287.494.425.743a.13.13,0,0,0,.193.069,3.875,3.875,0,0,1,1.013-.27c.1-.012.124-.063.123-.152,0-.276,0-.551,0-.827,0-.121.038-.171.165-.167.245.008.491.007.736,0,.119,0,.161.044.16.158,0,.265,0,.532,0,.8,0,.132.043.18.178.2a3.586,3.586,0,0,1,.94.255.147.147,0,0,0,.226-.079c.132-.248.283-.486.417-.731.049-.088.095-.1.178-.049.223.134.45.264.678.39.093.052.1.105.047.193-.147.245-.283.5-.432.74a.127.127,0,0,0,.039.2,3.99,3.99,0,0,1,.743.741.131.131,0,0,0,.2.036c.245-.147.5-.284.741-.431.091-.055.138-.039.188.052.123.224.252.444.384.663.054.088.041.141-.05.192-.249.139-.493.288-.742.427a.128.128,0,0,0-.069.192,4.112,4.112,0,0,1,.278,1.027c.014.1.061.121.148.118.141,0,.282,0,.421,0Zm-5.047-2.941a3.467,3.467,0,1,0,3.478,3.4A3.477,3.477,0,0,0,98.534,697.848Z" transform="translate(-84.923 -690.218)" fill="#fff" stroke="#fff" stroke-width="0.4"/>
                <path id="Path_2866" data-name="Path 2866" d="M106.45,701.157c.12,0,.241,0,.36,0s.154.029.154.144a9.669,9.669,0,0,1-.065.987c-.007.073-.042.106-.119.1l-.817-.108c-.08-.01-.107-.062-.1-.138.03-.294.056-.588.06-.883,0-.083.054-.1.121-.1Z" transform="translate(-84.657 -690.106)" fill="#fff" stroke="#fff" stroke-width="0.4"/>
                <path id="Path_2867" data-name="Path 2867" d="M104.255,707.4a.107.107,0,0,1-.051.095,9.132,9.132,0,0,1-.78.636c-.062.045-.105.041-.149-.022-.158-.226-.317-.451-.478-.674-.042-.059-.047-.106.017-.152a7.233,7.233,0,0,0,.685-.561.08.08,0,0,1,.13,0l.6.635A.239.239,0,0,1,104.255,707.4Z" transform="translate(-84.721 -689.993)" fill="#fff" stroke="#fff" stroke-width="0.4"/>
                <path id="Path_2868" data-name="Path 2868" d="M94.98,694.525c0,.058-.04.074-.075.092a6.843,6.843,0,0,0-.715.439c-.082.057-.132.038-.184-.039-.151-.217-.3-.434-.459-.648-.05-.068-.044-.111.026-.159q.409-.279.844-.516c.08-.044.125-.03.165.051.119.237.244.47.365.705A.709.709,0,0,1,94.98,694.525Z" transform="translate(-84.911 -690.26)" fill="#fff" stroke="#fff" stroke-width="0.4"/>
                <path id="Path_2869" data-name="Path 2869" d="M100.2,692.87a7.269,7.269,0,0,1,1.012.28c.061.021.066.067.047.121-.093.265-.187.529-.277.795-.027.079-.076.083-.141.059a7.469,7.469,0,0,0-.824-.23c-.084-.019-.105-.057-.088-.138.055-.264.106-.53.16-.794C100.106,692.907,100.127,692.855,100.2,692.87Z" transform="translate(-84.779 -690.277)" fill="#fff" stroke="#fff" stroke-width="0.4"/>
                <path id="Path_2870" data-name="Path 2870" d="M105.709,705.665c-.01.018-.023.045-.04.07a9.266,9.266,0,0,1-.553.783c-.055.071-.1.081-.171.021q-.311-.259-.628-.51c-.065-.052-.072-.1-.02-.161a6.88,6.88,0,0,0,.493-.7c.037-.059.078-.089.147-.046.242.149.486.3.728.447C105.694,705.591,105.724,705.612,105.709,705.665Z" transform="translate(-84.69 -690.025)" fill="#fff" stroke="#fff" stroke-width="0.4"/>
                <path id="Path_2871" data-name="Path 2871" d="M94.128,707.378c-.011.019-.023.046-.041.07-.152.216-.307.431-.456.65-.055.081-.1.088-.182.031-.257-.19-.5-.393-.744-.605-.071-.062-.08-.112-.011-.185q.274-.286.539-.584a.105.105,0,0,1,.176-.007,6.964,6.964,0,0,0,.662.539A.1.1,0,0,1,94.128,707.378Z" transform="translate(-84.929 -689.992)" fill="#fff" stroke="#fff" stroke-width="0.4"/>
                <path id="Path_2872" data-name="Path 2872" d="M105.025,695.807a.1.1,0,0,1-.052.094c-.209.173-.419.343-.626.517-.078.065-.128.047-.187-.024a5.224,5.224,0,0,0-.545-.58c-.08-.069-.091-.126-.01-.209.178-.184.349-.374.519-.564.061-.068.113-.083.187-.012q.352.34.669.712A.654.654,0,0,1,105.025,695.807Z" transform="translate(-84.705 -690.233)" fill="#fff" stroke="#fff" stroke-width="0.4"/>
                <path id="Path_2873" data-name="Path 2873" d="M106.634,703.572a8.184,8.184,0,0,1-.353.987c-.028.061-.07.058-.123.035q-.384-.168-.771-.334c-.076-.032-.079-.081-.051-.144a7.6,7.6,0,0,0,.282-.791c.028-.093.079-.114.168-.088.25.073.5.141.751.212C106.6,703.466,106.657,703.486,106.634,703.572Z" transform="translate(-84.669 -690.064)" fill="#fff" stroke="#fff" stroke-width="0.4"/>
                <path id="Path_2874" data-name="Path 2874" d="M98.4,693.739c-.131,0-.26,0-.391,0-.083,0-.131-.021-.137-.115-.015-.264-.036-.529-.056-.793-.007-.1.04-.129.133-.135a6.1,6.1,0,0,1,.945,0c.09.008.124.033.118.126-.017.26-.028.519-.04.78,0,.1-.05.143-.152.139C98.679,693.735,98.539,693.739,98.4,693.739Z" transform="translate(-84.823 -690.28)" fill="#fff" stroke="#fff" stroke-width="0.4"/>
                <path id="Path_2875" data-name="Path 2875" d="M90.436,701.191c.126,0,.251,0,.376,0,.1,0,.148.035.146.141a5.433,5.433,0,0,0,.056.793c.014.1-.011.156-.129.169-.253.029-.505.07-.757.109-.091.013-.14-.012-.151-.113-.033-.3-.059-.607-.064-.913,0-.148.053-.2.193-.187C90.215,701.2,90.325,701.191,90.436,701.191Z" transform="translate(-84.985 -690.106)" fill="#fff" stroke="#fff" stroke-width="0.4"/>
                <path id="Path_2876" data-name="Path 2876" d="M90.25,703.586c-.014-.078.031-.1.081-.117.265-.075.531-.147.795-.223.076-.021.109,0,.131.075a7.273,7.273,0,0,0,.29.805c.033.075.019.118-.059.152q-.374.158-.743.325c-.085.039-.127.015-.16-.066a7.961,7.961,0,0,1-.321-.905Z" transform="translate(-84.978 -690.064)" fill="#fff" stroke="#fff" stroke-width="0.4"/>
                <path id="Path_2877" data-name="Path 2877" d="M96.906,693.786c.01.094-.046.111-.1.123a6.932,6.932,0,0,0-.807.228.1.1,0,0,1-.15-.069c-.091-.254-.182-.509-.275-.761-.029-.076-.015-.122.065-.15a8.6,8.6,0,0,1,.965-.273c.053-.012.106-.006.12.056C96.789,693.227,96.849,693.516,96.906,693.786Z" transform="translate(-84.869 -690.276)" fill="#fff" stroke="#fff" stroke-width="0.4"/>
                <path id="Path_2878" data-name="Path 2878" d="M103.329,694.28c-.012.02-.026.047-.043.071-.151.217-.305.433-.454.652-.051.076-.1.084-.17.033a6.6,6.6,0,0,0-.718-.435c-.079-.042-.095-.088-.053-.167.123-.235.246-.47.363-.707.044-.089.094-.1.178-.052.28.155.555.318.819.5C103.287,694.2,103.332,694.216,103.329,694.28Z" transform="translate(-84.739 -690.26)" fill="#fff" stroke="#fff" stroke-width="0.4"/>
                <path id="Path_2879" data-name="Path 2879" d="M92.021,697.357c-.009.019-.022.046-.038.071a6.877,6.877,0,0,0-.37.721c-.043.1-.095.11-.186.069q-.355-.161-.716-.311c-.084-.035-.1-.077-.064-.16a8.917,8.917,0,0,1,.449-.866c.038-.065.079-.1.156-.053.238.148.479.292.717.438C92,697.285,92.03,697.3,92.021,697.357Z" transform="translate(-84.97 -690.196)" fill="#fff" stroke="#fff" stroke-width="0.4"/>
                <path id="Path_2880" data-name="Path 2880" d="M92,705.118c.052-.007.073.03.095.063a8.1,8.1,0,0,0,.495.7.1.1,0,0,1-.016.164c-.214.172-.428.346-.639.522-.059.05-.1.045-.149-.016a9.973,9.973,0,0,1-.58-.818c-.033-.051-.054-.1.013-.14l.742-.453C91.973,705.127,91.988,705.123,92,705.118Z" transform="translate(-84.959 -690.025)" fill="#fff" stroke="#fff" stroke-width="0.4"/>
                <path id="Path_2881" data-name="Path 2881" d="M105.953,700.178c-.066.02-.106-.009-.119-.1a5.881,5.881,0,0,0-.17-.807c-.03-.1,0-.145.1-.17.247-.064.492-.135.737-.209.1-.031.143,0,.169.1.08.305.142.613.2.925.018.1-.027.149-.122.161Z" transform="translate(-84.662 -690.153)" fill="#fff" stroke="#fff" stroke-width="0.4"/>
                <path id="Path_2882" data-name="Path 2882" d="M95.016,707.875c.031.012.063.025.095.04a5.932,5.932,0,0,0,.718.307c.111.039.134.093.092.2-.091.234-.172.471-.252.708-.033.1-.079.121-.178.084q-.45-.173-.882-.385c-.081-.04-.1-.083-.057-.163.125-.235.245-.472.367-.707C94.94,707.922,94.957,707.877,95.016,707.875Z" transform="translate(-84.89 -689.968)" fill="#fff" stroke="#fff" stroke-width="0.4"/>
                <path id="Path_2883" data-name="Path 2883" d="M90,700.027a7.6,7.6,0,0,1,.206-1.021.094.094,0,0,1,.135-.076q.4.112.794.219c.085.023.094.069.075.146a6.6,6.6,0,0,0-.165.806c-.011.087-.051.136-.15.121-.261-.04-.523-.078-.785-.11C90.023,700.1,89.979,700.078,90,700.027Z" transform="translate(-84.983 -690.152)" fill="#fff" stroke="#fff" stroke-width="0.4"/>
                <path id="Path_2884" data-name="Path 2884" d="M97.947,708.947c-.012.209-.025.419-.036.629-.005.108-.057.151-.164.139-.312-.038-.625-.07-.934-.133-.091-.019-.127-.059-.1-.156q.089-.387.161-.778c.016-.089.06-.107.136-.092.284.059.573.085.86.119.069.008.1.037.088.106s-.006.11-.009.165Z" transform="translate(-84.846 -689.954)" fill="#fff" stroke="#fff" stroke-width="0.4"/>
                <path id="Path_2885" data-name="Path 2885" d="M98.931,708.828c-.021-.093.03-.154.175-.168.258-.026.515-.066.773-.106.089-.014.129.015.146.1.052.26.107.519.162.779.017.086-.01.129-.1.146-.314.059-.633.1-.95.134-.092.01-.138-.021-.144-.122C98.978,709.352,98.955,709.112,98.931,708.828Z" transform="translate(-84.8 -689.954)" fill="#fff" stroke="#fff" stroke-width="0.4"/>
                <path id="Path_2886" data-name="Path 2886" d="M101.864,707.875c.059-.012.077.028.095.062.128.244.253.488.382.731.04.076.017.12-.054.155a8.33,8.33,0,0,1-.892.39c-.077.029-.129.027-.16-.066-.087-.255-.179-.509-.271-.762a.1.1,0,0,1,.068-.15c.268-.1.526-.219.784-.339Z" transform="translate(-84.758 -689.968)" fill="#fff" stroke="#fff" stroke-width="0.4"/>
                <path id="Path_2887" data-name="Path 2887" d="M105.652,696.764c.062-.009.08.032.1.064a9.459,9.459,0,0,1,.467.891c.033.071.011.11-.058.141q-.372.159-.742.327c-.08.036-.13.022-.165-.061a6.216,6.216,0,0,0-.388-.746.1.1,0,0,1,.038-.161c.232-.139.461-.282.692-.424C105.617,696.782,105.639,696.771,105.652,696.764Z" transform="translate(-84.678 -690.196)" fill="#fff" stroke="#fff" stroke-width="0.4"/>
                <path id="Path_2888" data-name="Path 2888" d="M93.31,695.719a.117.117,0,0,1-.051.094,7.5,7.5,0,0,0-.58.63.1.1,0,0,1-.163.013q-.314-.257-.631-.51a.1.1,0,0,1-.017-.162,8.491,8.491,0,0,1,.687-.735c.041-.04.083-.057.13-.008.2.211.4.422.6.634A.2.2,0,0,1,93.31,695.719Z" transform="translate(-84.946 -690.233)" fill="#fff" stroke="#fff" stroke-width="0.4"/>
                <path id="Path_2889" data-name="Path 2889" d="M98.458,703.232a1.981,1.981,0,0,1-1.993-1.983,2,2,0,1,1,4-.014A1.987,1.987,0,0,1,98.458,703.232Zm.955-1.994a.942.942,0,0,0-.948-.955.954.954,0,1,0,0,1.908A.937.937,0,0,0,99.413,701.238Z" transform="translate(-84.85 -690.146)" fill="#fff" stroke="#fff" stroke-width="0.4"/>
              </g>
            </g>
          </g>
        </g>
      </g>
    </g>
    <g id="Group_8603" data-name="Group 8603" transform="translate(525.781 917.064)">
      <g id="Group_8612" data-name="Group 8612" transform="translate(0 0)">
        <g id="Group_967" data-name="Group 967" transform="translate(0 40.795)">
          <g id="Group_964" data-name="Group 964" transform="translate(2.088 1.905)">
            <path id="Path_2902" data-name="Path 2902" d="M487.312,677.908H465.17v.293a42.5,42.5,0,0,1-84.994,0v-.293H358.907v.585h20.685a43.081,43.081,0,0,0,86.161,0h21.559Z" transform="translate(-358.907 -677.908)" fill="#9c9b9b"/>
          </g>
          <g id="Group_965" data-name="Group 965">
            <path id="Path_2903" data-name="Path 2903" d="M359.059,717.969a2.2,2.2,0,1,0,2.2,2.2A2.2,2.2,0,0,0,359.059,717.969Z" transform="translate(-356.861 -717.969)" fill="#9c9b9b"/>
          </g>
          <g id="Group_966" data-name="Group 966" transform="translate(128.186)">
            <path id="Path_2904" data-name="Path 2904" d="M484.664,717.969a2.2,2.2,0,1,1-2.2,2.2A2.2,2.2,0,0,1,484.664,717.969Z" transform="translate(-482.467 -717.969)" fill="#9c9b9b"/>
          </g>
        </g>
        <g id="Group_8599" data-name="Group 8599" transform="translate(27.987)">
          <g transform="matrix(1, 0, 0, 1, -361.49, -34.65)" filter="url(#Ellipse_97)" style="mix-blend-mode: multiply;isolation: isolate">
            <ellipse id="Ellipse_97-2" data-name="Ellipse 97" cx="34.519" cy="34.519" rx="34.519" ry="34.519" transform="translate(365.76 38.45)" fill="#fff"/>
          </g>
          <g id="Group_8598" data-name="Group 8598">
            <g id="Group_963" data-name="Group 963">
              <ellipse id="Ellipse_26" data-name="Ellipse 26" cx="36.658" cy="36.772" rx="36.658" ry="36.772" transform="translate(1.754 1.754)" fill="url(#linear-gradient-2)"/>
              <g id="Group_962" data-name="Group 962">
                <path id="Path_2901" data-name="Path 2901" d="M422.163,759.535a38.526,38.526,0,1,1,38.412-38.526A38.512,38.512,0,0,1,422.163,759.535Zm0-73.533a35.007,35.007,0,1,0,34.9,35.007A34.995,34.995,0,0,0,422.163,686Z" transform="translate(-383.751 -682.484)" fill="#fff"/>
              </g>
            </g>
            <g id="Group_8613" data-name="Group 8613">
              <text id="EMOTION" transform="translate(25.165 59.6)" fill="#fff" font-size="6" font-family="Roboto-Bold, Roboto" font-weight="700" letter-spacing="0.03em"><tspan x="0" y="0">EMOTION</tspan></text>
              <g id="Group_969" data-name="Group 969" transform="translate(23.165 19.277)">
                <g id="Group_968" data-name="Group 968">
                  <path id="Path_2905" data-name="Path 2905" d="M420.341,701.289H423c.458.064.922.106,1.375.2a15.027,15.027,0,0,1,10.68,7.729,15.221,15.221,0,0,1-2.985,18.412,14.9,14.9,0,0,1-9.355,4.072,14.481,14.481,0,0,1-6.866-1.125,15.105,15.105,0,0,1-8.837-9.9,16.54,16.54,0,0,1-.543-2.851V715.16c.012-.061.03-.124.036-.186a14.441,14.441,0,0,1,1.655-5.538,15.1,15.1,0,0,1,9.39-7.621A17.087,17.087,0,0,1,420.341,701.289Zm1.379,28.346a13.138,13.138,0,1,0-13.125-12.022A13.149,13.149,0,0,0,421.72,729.634Z" transform="translate(-406.469 -701.289)" fill="#fff" stroke="#fff" stroke-width="0.1"/>
                  <path id="Path_2906" data-name="Path 2906" d="M421.508,725.267a9.065,9.065,0,0,1-7.629-4.124c-.24-.348-.23-.356.123-.569.379-.229.767-.444,1.135-.691.24-.161.364-.121.526.118a6.9,6.9,0,0,0,4.408,3,7.017,7.017,0,0,0,7.288-2.956c.233-.347.233-.347.585-.136.4.24.79.488,1.2.715.21.117.22.232.092.424a9.14,9.14,0,0,1-6.049,4.072A7.388,7.388,0,0,1,421.508,725.267Z" transform="translate(-406.32 -700.909)" fill="#fff" stroke="#fff" stroke-width="0.1"/>
                  <path id="Path_2907" data-name="Path 2907" d="M419.491,715.3c-.222,0-.445-.016-.665,0-.276.026-.362-.1-.4-.355a1.964,1.964,0,0,0-3.884.013c-.042.261-.152.353-.415.342-.442-.019-.886,0-1.329-.006-.389,0-.42-.019-.385-.418a3.868,3.868,0,0,1,1.245-2.559,3.92,3.92,0,0,1,4.165-.905,3.974,3.974,0,0,1,2.723,3.287c.018.1.007.21.015.315.016.2-.074.288-.277.282-.263-.009-.528,0-.791,0Z" transform="translate(-406.347 -701.086)" fill="#fff" stroke="#fff" stroke-width="0.1"/>
                  <path id="Path_2908" data-name="Path 2908" d="M429.425,715.3c-.221,0-.445-.016-.664,0-.272.026-.366-.1-.406-.351a1.964,1.964,0,0,0-1.881-1.662,2.01,2.01,0,0,0-1.938,1.359c-.017.05-.035.1-.047.151-.119.5-.118.5-.619.5-.391,0-.782-.017-1.172.005-.306.018-.387-.113-.362-.39a4.091,4.091,0,0,1,5.381-3.509,3.972,3.972,0,0,1,2.757,3.293c.018.1.008.211.016.316.015.2-.065.291-.273.285-.264-.009-.528,0-.792,0Z" transform="translate(-406.143 -701.086)" fill="#fff" stroke="#fff" stroke-width="0.1"/>
                </g>
              </g>
            </g>
          </g>
        </g>
      </g>
    </g>
    <g id="Group_8602" data-name="Group 8602" transform="translate(416.679 909)">
      <g id="Group_943" data-name="Group 943" transform="translate(0 0)">
        <g id="Group_940" data-name="Group 940">
          <g id="Group_937" data-name="Group 937" transform="translate(2.089)">
            <path id="Path_2852" data-name="Path 2852" d="M312.185,711.537A43.131,43.131,0,0,0,269.1,754.326H247.546v.585h22.142v-.293a42.5,42.5,0,1,1,84.995,0v.293h21.269v-.585H355.266A43.131,43.131,0,0,0,312.185,711.537Z" transform="translate(-247.546 -711.537)" fill="#9c9b9b"/>
          </g>
          <g id="Group_938" data-name="Group 938" transform="translate(128.186 40.957)">
            <path id="Path_2853" data-name="Path 2853" d="M373.3,709.67a2.2,2.2,0,1,1-2.2,2.2A2.2,2.2,0,0,1,373.3,709.67Z" transform="translate(-371.105 -709.67)" fill="#9c9b9b"/>
          </g>
          <g id="Group_939" data-name="Group 939" transform="translate(0 40.957)">
            <path id="Path_2854" data-name="Path 2854" d="M247.7,709.67a2.2,2.2,0,1,0,2.2,2.2A2.2,2.2,0,0,0,247.7,709.67Z" transform="translate(-245.499 -709.67)" fill="#9c9b9b"/>
          </g>
        </g>
      </g>
      <g id="Group_8597" data-name="Group 8597" transform="translate(27.987 9.013)">
        <g transform="matrix(1, 0, 0, 1, -252.38, -35.6)" filter="url(#Ellipse_95)" style="mix-blend-mode: multiply;isolation: isolate">
          <ellipse id="Ellipse_95-2" data-name="Ellipse 95" cx="34.519" cy="34.519" rx="34.519" ry="34.519" transform="translate(256.18 39.4)" fill="#fff"/>
        </g>
        <g id="Group_8591" data-name="Group 8591" transform="translate(0 0)">
          <g id="Group_954" data-name="Group 954" transform="translate(0.268)">
            <ellipse id="Ellipse_24" data-name="Ellipse 24" cx="36.658" cy="36.772" rx="36.658" ry="36.772" transform="translate(1.754 1.754)" fill="url(#linear-gradient-3)"/>
            <g id="Group_953" data-name="Group 953">
              <path id="Path_2890" data-name="Path 2890" d="M204.793,759.471A38.526,38.526,0,1,1,243.2,720.946,38.512,38.512,0,0,1,204.793,759.471Zm0-73.533a35.008,35.008,0,1,0,34.9,35.008A35,35,0,0,0,204.793,685.938Z" transform="translate(-166.381 -682.42)" fill="#fff"/>
            </g>
          </g>
          <g id="Group_8614" data-name="Group 8614" transform="translate(0)">
            <text id="CORE_PERSONAL" data-name="CORE/PERSONAL" transform="translate(13.268 57.693)" fill="#fff" font-size="6" font-family="Roboto-Bold, Roboto" font-weight="700" letter-spacing="0.03em"><tspan x="0" y="0">CORE/PERSONAL</tspan></text>
            <g id="Group_960" data-name="Group 960" transform="translate(25.268 19.406)">
              <g id="Group_959" data-name="Group 959">
                <path id="Path_2894" data-name="Path 2894" d="M202.157,706.282a2.7,2.7,0,1,1,4.088-.015c.035.035.08.017.118.017.288,0,.577,0,.864,0a.476.476,0,0,0,.528-.528q0-1.7,0-3.4c0-.378.155-.534.533-.534h1.688a.439.439,0,0,1,.478.476c0,1.2,0,2.391,0,3.586a3.04,3.04,0,0,1-1.118,2.368c-.091.079-.094.115-.013.2a8.265,8.265,0,0,1,1.089,1.615,6.066,6.066,0,0,0,.94,1.362,2.031,2.031,0,0,0,1.214.628,1.371,1.371,0,0,0,.481-.062.46.46,0,0,1,.521.2.465.465,0,0,1-.023.525.344.344,0,0,1-.147.124,2.324,2.324,0,0,0-.969.837c-.328.422-.632.864-.965,1.282a3.36,3.36,0,0,1-2.19,1.3,4.358,4.358,0,0,1-1.236-.006c-.114-.016-.154,0-.125.121.074.321.139.644.206.968.015.071.046.112.13.111a.43.43,0,0,1,.344.185l2.911,3.549,4.026,4.909c.412.5.827,1.005,1.235,1.513a.274.274,0,0,0,.249.116c.153-.008.307,0,.46,0,.1,0,.131.038.129.132,0,.209-.007.418,0,.628.006.127-.045.157-.162.156-.735,0-1.471,0-2.205,0h-24.2c-.28,0-.25.025-.252-.257,0-.168.005-.336,0-.5,0-.112.032-.161.15-.154.139.008.28-.006.418,0a.307.307,0,0,0,.284-.133q1.212-1.488,2.43-2.97,2.858-3.484,5.716-6.968a.462.462,0,0,1,.378-.2c.1,0,.1-.081.114-.145.091-.417.179-.835.268-1.253q.471-2.206.943-4.414a.88.88,0,0,0,.018-.18c0-.767,0-1.535,0-2.3,0-.134-.036-.181-.171-.173a3.154,3.154,0,0,1-3.38-2.7,4.124,4.124,0,0,1-.022-.654q0-1.653,0-3.308a.443.443,0,0,1,.495-.5c.573,0,1.145,0,1.717,0a.442.442,0,0,1,.487.483q0,1.674,0,3.349c0,.06,0,.121,0,.181a.44.44,0,0,0,.432.446C201.421,706.294,201.778,706.282,202.157,706.282Zm13.489,21.432c-.048-.062-.078-.1-.109-.142q-2.322-2.832-4.641-5.666c-.081-.1-.122-.1-.211-.011-.539.547-1.084,1.088-1.627,1.63a.489.489,0,0,1-.8,0l-1.707-1.706c-.127-.127-.128-.127-.258,0l-1.7,1.7a.492.492,0,0,1-.807,0c-.573-.571-1.146-1.142-1.715-1.719-.093-.093-.145-.086-.234,0-.562.569-1.13,1.134-1.7,1.7a.5.5,0,0,1-.837,0q-.81-.808-1.618-1.619c-.064-.064-.111-.106-.183-.005s-.175.217-.263.326q-2.074,2.529-4.147,5.06c-.116.142-.231.285-.361.446ZM204.2,707.2q-1.577,0-3.153,0a1.343,1.343,0,0,1-1.255-.877,1.846,1.846,0,0,1-.078-.674c0-.922,0-1.842,0-2.763,0-.111-.028-.16-.148-.155-.2.009-.409.005-.614,0-.084,0-.115.031-.114.114.015,1.065-.034,2.13.026,3.194a2.193,2.193,0,0,0,1.747,1.976,7.367,7.367,0,0,0,1.307.055.447.447,0,0,1,.494.49q0,1.528,0,3.055a.957.957,0,0,1-.017.208c-.205.953-.407,1.906-.612,2.861q-.28,1.307-.564,2.614c-.024.112-.008.157.121.154.32-.009.642-.009.962,0,.135,0,.2-.036.229-.172.1-.422.206-.84.31-1.258q.436-1.745.872-3.488c.079-.312.227-.445.488-.443s.39.14.467.45c.032.125.062.252.094.379q.543,2.177,1.085,4.354a.2.2,0,0,0,.237.18c.32-.01.642-.009.962,0,.126,0,.139-.044.116-.146q-.5-2.295-.987-4.589a5.507,5.507,0,0,1-.2-1.023c-.018-1.064-.008-2.13-.005-3.2a.426.426,0,0,1,.428-.425c.181,0,.362,0,.544,0a3.641,3.641,0,0,0,.887-.07,2.2,2.2,0,0,0,1.706-2.175c.023-.99.005-1.982.008-2.972,0-.1-.044-.126-.136-.124-.19.005-.382.01-.572,0-.138-.008-.171.043-.171.174.005.991,0,1.982,0,2.972a1.329,1.329,0,0,1-1.325,1.322Q205.774,707.2,204.2,707.2Zm5.972,13.862a.359.359,0,0,0-.091-.135c-.609-.745-1.23-1.481-1.825-2.238a.777.777,0,0,0-.695-.333c-2.335.015-4.67.008-7,.008a.26.26,0,0,0-.235.088q-1.018,1.249-2.043,2.491c-.082.1-.071.155.015.24.439.431.874.863,1.3,1.3.1.1.154.1.253,0,.572-.58,1.149-1.152,1.724-1.729a.536.536,0,0,1,.393-.181.516.516,0,0,1,.376.185c.576.576,1.153,1.149,1.725,1.729.093.094.146.1.243,0,.57-.581,1.149-1.153,1.724-1.73a.538.538,0,0,1,.417-.187.529.529,0,0,1,.36.188q.874.874,1.745,1.747c.069.07.116.084.192.007.451-.457.906-.909,1.36-1.363A.165.165,0,0,0,210.176,721.059Zm-1.468-5.7a2.384,2.384,0,0,0,1.921-.846c.441-.5.781-1.077,1.209-1.586.041-.049.034-.078-.028-.1a3.143,3.143,0,0,1-.294-.131,3.818,3.818,0,0,1-1.437-1.37c-.329-.5-.593-1.033-.908-1.537a4.186,4.186,0,0,0-.726-.9c-.046-.041-.085-.078-.159-.053a3.374,3.374,0,0,1-1.21.149c-.193-.006-.194,0-.194.187,0,.767,0,1.535,0,2.3a.888.888,0,0,0,.022.194q.214.994.426,1.989c.1.486.205.972.312,1.457.014.066.008.148.117.161A6.608,6.608,0,0,0,208.709,715.358Zm-4.524-12.623a1.767,1.767,0,0,0-1.759,1.779,1.768,1.768,0,0,0,3.535,0A1.765,1.765,0,0,0,204.185,702.734ZM204.2,714.5a.685.685,0,0,0-.034.073c-.232.923-.461,1.845-.695,2.767-.027.1.023.107.1.106.4,0,.8,0,1.2,0,.169,0,.169,0,.13-.159q-.181-.723-.362-1.445C204.43,715.41,204.32,714.974,204.2,714.5Z" transform="translate(-190.78 -701.81)" fill="#fff" stroke="#fff" stroke-width="0.1"/>
                <path id="Path_2895" data-name="Path 2895" d="M195.044,716.36h-3.683a.465.465,0,0,1-.523-.414,2.243,2.243,0,0,1,1.928-2.724,2,2,0,0,1,.936.095.167.167,0,0,0,.206-.049,3.092,3.092,0,0,1,2.541-.942,3.154,3.154,0,0,1,2.816,2.687,3.557,3.557,0,0,1,0,.9.465.465,0,0,1-.508.445Zm-.012-.912h2.861c.126,0,.251,0,.377,0,.066,0,.1-.013.1-.094a2.21,2.21,0,0,0-2.57-2.081,2.175,2.175,0,0,0-1.433.888.466.466,0,0,1-.681.154,1.376,1.376,0,0,0-.832-.165,1.336,1.336,0,0,0-1.13,1.143c-.01.124.015.158.144.157C192.919,715.445,193.975,715.447,195.032,715.448Z" transform="translate(-190.78 -701.594)" fill="#fff" stroke="#fff" stroke-width="0.1"/>
                <path id="Path_2896" data-name="Path 2896" d="M217.187,718.09a.438.438,0,0,1-.435.449,2.247,2.247,0,0,0-2.245,2.236.456.456,0,0,1-.911,0,2.251,2.251,0,0,0-2.244-2.239.456.456,0,0,1,0-.91,2.261,2.261,0,0,0,1.641-.718,2.1,2.1,0,0,0,.581-1.312c.006-.084.016-.167.024-.25a.443.443,0,0,1,.469-.4.437.437,0,0,1,.441.413,2.3,2.3,0,0,0,.495,1.423,2.142,2.142,0,0,0,1.556.822c.083.006.166.014.249.025A.445.445,0,0,1,217.187,718.09Zm-3.123-1.011c-.047,0-.057.037-.075.062a3.155,3.155,0,0,1-.882.879c-.071.047-.075.077,0,.126a3.066,3.066,0,0,1,.881.88c.047.071.078.075.127,0a3.07,3.07,0,0,1,.88-.879c.073-.049.072-.08,0-.128a3.075,3.075,0,0,1-.881-.879C214.1,717.118,214.08,717.1,214.064,717.079Z" transform="translate(-190.367 -701.54)" fill="#fff" stroke="#fff" stroke-width="0.1"/>
                <path id="Path_2897" data-name="Path 2897" d="M193.924,701.82a.434.434,0,0,1,.453.43,2.24,2.24,0,0,0,1.151,1.963,2.386,2.386,0,0,0,1.1.287.457.457,0,0,1,0,.912,2.248,2.248,0,0,0-2.241,2.226.456.456,0,1,1-.912-.006,2.248,2.248,0,0,0-.975-1.824,2.337,2.337,0,0,0-1.273-.4.438.438,0,0,1-.433-.452.433.433,0,0,1,.425-.459,2.267,2.267,0,0,0,1.644-.709,2.105,2.105,0,0,0,.588-1.323c.006-.093.014-.186.028-.278A.441.441,0,0,1,193.924,701.82Zm1,3.124a.614.614,0,0,0-.058-.048,3.136,3.136,0,0,1-.889-.892c-.048-.073-.077-.058-.117,0a3.122,3.122,0,0,1-.891.89c-.072.048-.058.076,0,.117a3.1,3.1,0,0,1,.882.879c.043.064.071.091.126.007a3.093,3.093,0,0,1,.89-.89C194.895,705,194.923,704.986,194.926,704.944Z" transform="translate(-190.78 -701.81)" fill="#fff" stroke="#fff" stroke-width="0.1"/>
                <path id="Path_2898" data-name="Path 2898" d="M202.638,725.946c-.018.113.064.293-.037.387s-.266.023-.4.029c-.12,0-.242,0-.362,0-.076,0-.11-.029-.109-.106q0-.349,0-.7c0-.076.03-.11.107-.11.232,0,.464,0,.7,0,.088,0,.111.043.109.12C202.636,725.686,202.638,725.8,202.638,725.946Z" transform="translate(-190.556 -701.325)" fill="#fff" stroke="#fff" stroke-width="0.1"/>
                <path id="Path_2899" data-name="Path 2899" d="M203.477,725.892c0-.111,0-.224,0-.335,0-.076.031-.108.107-.108.233,0,.464,0,.7,0,.077,0,.108.032.107.108q0,.349,0,.7c0,.077-.031.109-.107.108-.233,0-.464,0-.7,0-.076,0-.109-.031-.108-.107C203.478,726.133,203.477,726.012,203.477,725.892Z" transform="translate(-190.52 -701.325)" fill="#fff" stroke="#fff" stroke-width="0.1"/>
                <path id="Path_2900" data-name="Path 2900" d="M206.138,725.919c0,.111,0,.222,0,.335,0,.076-.032.108-.108.108-.232,0-.464,0-.7,0-.077,0-.109-.031-.108-.107,0-.233,0-.464,0-.7,0-.076.032-.108.107-.108.233,0,.464,0,.7,0,.077,0,.109.032.108.108C206.136,725.678,206.138,725.8,206.138,725.919Z" transform="translate(-190.484 -701.325)" fill="#fff" stroke="#fff" stroke-width="0.1"/>
              </g>
            </g>
          </g>
        </g>
      </g>
    </g>
    <g id="Group_8601" data-name="Group 8601" transform="translate(307.102 916.115)">
      <g id="Group_958" data-name="Group 958" transform="translate(0 41.743)">
        <g id="Group_955" data-name="Group 955" transform="translate(2.088 1.905)">
          <path id="Path_2891" data-name="Path 2891" d="M205.321,763.146a43.13,43.13,0,0,1-43.081-42.789H140.682v-.585h22.142v.293a42.5,42.5,0,0,0,84.994,0v-.293h21.269v.585H248.4A43.13,43.13,0,0,1,205.321,763.146Z" transform="translate(-140.682 -719.772)" fill="#9c9b9b"/>
        </g>
        <g id="Group_956" data-name="Group 956" transform="translate(128.185)">
          <path id="Path_2892" data-name="Path 2892" d="M266.439,717.9a2.2,2.2,0,1,1-2.2,2.2A2.2,2.2,0,0,1,266.439,717.9Z" transform="translate(-264.241 -717.905)" fill="#9c9b9b"/>
        </g>
        <g id="Group_957" data-name="Group 957">
          <path id="Path_2893" data-name="Path 2893" d="M140.833,717.9a2.2,2.2,0,1,0,2.2,2.2A2.2,2.2,0,0,0,140.833,717.9Z" transform="translate(-138.636 -717.905)" fill="#9c9b9b"/>
        </g>
      </g>
      <g id="Group_8596" data-name="Group 8596" transform="translate(27.987 0)">
        <g transform="matrix(1, 0, 0, 1, -142.81, -33.71)" filter="url(#Ellipse_96)" style="mix-blend-mode: multiply;isolation: isolate">
          <ellipse id="Ellipse_96-2" data-name="Ellipse 96" cx="34.519" cy="34.519" rx="34.519" ry="34.519" transform="translate(147.08 37.5)" fill="#fff"/>
        </g>
        <g id="Group_8591-2" data-name="Group 8591">
          <g id="Group_936" data-name="Group 936" transform="translate(-0.157)">
            <ellipse id="Ellipse_20" data-name="Ellipse 20" cx="36.658" cy="36.772" rx="36.658" ry="36.772" transform="translate(1.754 1.754)" fill="url(#linear-gradient-4)"/>
            <g id="Group_935" data-name="Group 935">
              <path id="Path_2851" data-name="Path 2851" d="M311.657,751.236a38.526,38.526,0,1,1,38.411-38.525A38.512,38.512,0,0,1,311.657,751.236Zm0-73.533a35.008,35.008,0,1,0,34.9,35.008A35,35,0,0,0,311.657,677.7Z" transform="translate(-273.245 -674.185)" fill="#fff"/>
            </g>
          </g>
          <g id="Group_8615" data-name="Group 8615" transform="translate(0)">
            <g id="Group_942" data-name="Group 942" transform="translate(25.843 19.685)">
              <g id="Group_941" data-name="Group 941">
                <path id="Path_2855" data-name="Path 2855" d="M310.981,711.666H307.7c-.315,0-.473-.167-.473-.5,0-.572,0-1.144,0-1.716a3.964,3.964,0,0,1,1.489-3.161,3.189,3.189,0,0,1,.714-.446c.087-.04.105-.061.033-.145a2.269,2.269,0,0,1-.026-3.013,1.907,1.907,0,0,1,2.131-.631,2.059,2.059,0,0,1,1.473,1.73,2.213,2.213,0,0,1-.546,1.922c-.06.069-.053.09.026.13a3.914,3.914,0,0,1,2.18,3.013,2.605,2.605,0,0,1,.039.463c0,.622,0,1.245,0,1.868a.425.425,0,0,1-.458.484Zm0-.9h2.77c.07,0,.143.011.141-.1a12.437,12.437,0,0,0-.052-1.711,2.917,2.917,0,0,0-3.231-2.524,2.76,2.76,0,0,0-1.786,1,3.055,3.055,0,0,0-.722,1.8c-.033.457-.008.914-.023,1.371,0,.131.032.172.159.172C309.153,710.765,310.068,710.768,310.983,710.768Zm.02-7.882a1.3,1.3,0,0,0-.026,2.6,1.241,1.241,0,0,0,1.239-1.278A1.261,1.261,0,0,0,311,702.887Z" transform="translate(-298.484 -693.617)" fill="#fff" stroke="#fff" stroke-width="0.5"/>
                <path id="Path_2856" data-name="Path 2856" d="M319.553,703.486h-3.291c-.3,0-.462-.169-.463-.491,0-.613-.011-1.227,0-1.84a3.949,3.949,0,0,1,1.186-2.774,3.5,3.5,0,0,1,1.024-.719c.088-.041.091-.064.027-.138a2.266,2.266,0,0,1-.566-1.789,2.182,2.182,0,0,1,1.628-1.9,2.088,2.088,0,0,1,2.5,1.675,2.238,2.238,0,0,1-.518,2.007c-.061.071-.076.1.022.147a3.907,3.907,0,0,1,2.187,3.139,7.5,7.5,0,0,1,.021.946c.005.42,0,.842,0,1.263a.424.424,0,0,1-.454.474Zm-.007-.9h2.771c.067,0,.146.019.144-.1a13.48,13.48,0,0,0-.049-1.7,2.873,2.873,0,0,0-4.085-2.274,2.965,2.965,0,0,0-1.657,2.569c-.036.443-.006.887-.021,1.33-.005.141.036.178.167.177C317.725,702.586,318.635,702.588,319.545,702.588Zm.013-5.278a1.26,1.26,0,0,0,1.226-1.31,1.246,1.246,0,0,0-1.241-1.291,1.3,1.3,0,0,0,.015,2.6Z" transform="translate(-298.308 -693.785)" fill="#fff" stroke="#fff" stroke-width="0.5"/>
                <path id="Path_2857" data-name="Path 2857" d="M302.42,719.846h-3.291a.428.428,0,0,1-.464-.491c0-.571-.01-1.144,0-1.715a3.9,3.9,0,0,1,2.186-3.606c.1-.054.114-.075.035-.17a2.225,2.225,0,0,1-.447-2.22,2.05,2.05,0,0,1,1.638-1.471,2.108,2.108,0,0,1,2.408,1.816,2.273,2.273,0,0,1-.542,1.887c-.059.069-.08.1.021.147a3.9,3.9,0,0,1,2.186,3.139,9.149,9.149,0,0,1,.023,1.1c.005.38,0,.76,0,1.14a.416.416,0,0,1-.425.447Zm-.008-.9h2.771c.068,0,.146.018.143-.1a12.941,12.941,0,0,0-.049-1.7,2.868,2.868,0,0,0-4.037-2.294,2.947,2.947,0,0,0-1.706,2.6c-.034.439,0,.878-.02,1.316-.005.141.037.178.168.177C300.591,718.945,301.5,718.948,302.411,718.948Zm.014-5.278a1.3,1.3,0,1,0-1.238-1.3A1.282,1.282,0,0,0,302.426,713.67Z" transform="translate(-298.66 -693.449)" fill="#fff" stroke="#fff" stroke-width="0.5"/>
                <path id="Path_2858" data-name="Path 2858" d="M308.7,699.4h6.44c.195,0,.195,0,.195.212,0,.169-.007.34,0,.508.007.136-.033.182-.167.181-.876-.006-1.751,0-2.628,0-3.334,0-6.669-.007-10,0a3.031,3.031,0,0,0-2.991,2.756,2.948,2.948,0,0,0,.717,2.287,2.8,2.8,0,0,0,2.042,1.062c.862.053,1.725.013,2.587.021.651.006,1.3,0,1.952,0,.121,0,.17.034.163.169-.009.187-.009.376,0,.562.006.132-.035.173-.161.172-1.192,0-2.385,0-3.577,0h-.846a3.943,3.943,0,0,1-3.689-3.2,4.061,4.061,0,0,1,2.363-4.457,3.526,3.526,0,0,1,1.356-.276Q305.579,699.4,308.7,699.4Z" transform="translate(-298.66 -693.669)" fill="#fff" stroke="#fff" stroke-width="0.5"/>
                <path id="Path_2859" data-name="Path 2859" d="M313.457,716.8h-6.427c-.205,0-.205,0-.206-.214,0-.174.006-.349,0-.521-.006-.127.035-.165.155-.164.841,0,1.682,0,2.524,0h10.043a2.905,2.905,0,0,0,2.816-1.971,3.063,3.063,0,0,0-2.24-4.111,3.706,3.706,0,0,0-.608-.049q-1.874,0-3.747,0c-.2,0-.2,0-.2-.211,0-.183,0-.366,0-.549,0-.1.024-.14.124-.139,1.418,0,2.836-.023,4.254.013a3.283,3.283,0,0,1,2.17.946,4.01,4.01,0,0,1,1.3,3.3,3.927,3.927,0,0,1-2.835,3.56,3.617,3.617,0,0,1-.9.114q-3.109-.006-6.218,0Z" transform="translate(-298.492 -693.475)" fill="#fff" stroke="#fff" stroke-width="0.5"/>
              </g>
            </g>
            <text id="INTERPERSONAL" transform="translate(13.843 57.703)" fill="#fff" font-size="6" font-family="Roboto-Bold, Roboto" font-weight="700" letter-spacing="0.03em"><tspan x="0" y="0">INTERPERSONAL</tspan></text>
          </g>
        </g>
      </g>
    </g>
  </g>
</svg>
