<svg xmlns="http://www.w3.org/2000/svg" xmlns:xlink="http://www.w3.org/1999/xlink" width="100" height="99.027" viewBox="0 0 100 99.027">
  <defs>
    <clipPath id="clip-path">
      <rect id="Rectangle_653" data-name="Rectangle 653" width="100" height="99.027" fill="none"/>
    </clipPath>
    <clipPath id="clip-path-3">
      <rect id="Rectangle_635" data-name="Rectangle 635" width="20.202" height="18.729" fill="none"/>
    </clipPath>
    <clipPath id="clip-path-4">
      <rect id="Rectangle_636" data-name="Rectangle 636" width="20.786" height="19.975" fill="none"/>
    </clipPath>
    <clipPath id="clip-path-5">
      <rect id="Rectangle_637" data-name="Rectangle 637" width="10.186" height="13.498" fill="none"/>
    </clipPath>
    <clipPath id="clip-path-6">
      <rect id="Rectangle_638" data-name="Rectangle 638" width="13.886" height="6.679" fill="none"/>
    </clipPath>
    <clipPath id="clip-path-7">
      <path id="Path_13221" data-name="Path 13221" d="M611.385,589.983a7.457,7.457,0,0,0-1.791,3.537c4.431,2.036,8.869-3.092,8.869-3.092l-.949-1.189c-2.763,1.634-4.734,1.538-6.128.744" transform="translate(-609.594 -589.239)" fill="none"/>
    </clipPath>
    <linearGradient id="linear-gradient" x1="-2.993" y1="6.476" x2="-2.988" y2="6.476" gradientUnits="objectBoundingBox">
      <stop offset="0" stop-color="#fff"/>
      <stop offset="1" stop-color="#efeff4"/>
    </linearGradient>
    <clipPath id="clip-path-8">
      <path id="Path_13222" data-name="Path 13222" d="M753.955,551.048c-.38-.582-.727-.185-.727-.185a1.906,1.906,0,0,0-.327,2.3,1.845,1.845,0,0,0,2.855-.08,2.141,2.141,0,0,0-.334-2.656.259.259,0,0,0-.219-.1c-.449,0-1.249.727-1.249.727" transform="translate(-752.655 -550.324)" fill="none"/>
    </clipPath>
    <linearGradient id="linear-gradient-2" x1="-6.723" y1="11.843" x2="-6.713" y2="11.843" xlink:href="#linear-gradient"/>
    <clipPath id="clip-path-9">
      <path id="Path_13223" data-name="Path 13223" d="M767.691,565.334a.135.135,0,0,0-.089.169l.262.829a.542.542,0,0,1-.368-.025.307.307,0,0,1-.132-.244.135.135,0,0,0-.268.033.565.565,0,0,0,.263.436.645.645,0,0,0,.333.083,1.165,1.165,0,0,0,.391-.074.135.135,0,0,0,.08-.166l-.3-.959a.135.135,0,0,0-.169-.089" transform="translate(-767.096 -565.321)" fill="none"/>
    </clipPath>
    <linearGradient id="linear-gradient-3" x1="-38.232" y1="52.649" x2="-38.182" y2="52.649" xlink:href="#linear-gradient"/>
    <clipPath id="clip-path-11">
      <path id="Path_13226" data-name="Path 13226" d="M71.472,1072.219l-1.048,1.153a.554.554,0,0,0-.1.582,1.442,1.442,0,0,0,.534.657.551.551,0,0,0,.685-.063l1.05-1.008a.552.552,0,0,0,.093-.68l-.327-.554a.552.552,0,0,0-.884-.09" transform="translate(-70.281 -1072.034)" fill="none"/>
    </clipPath>
    <linearGradient id="linear-gradient-4" x1="-0.908" y1="11.173" x2="-0.893" y2="11.173" xlink:href="#linear-gradient"/>
    <clipPath id="clip-path-13">
      <path id="Path_13229" data-name="Path 13229" d="M684.9,928.25l-.523.376a.553.553,0,0,0-.012.89l1.242.941a.555.555,0,0,0,.593.048,1.444,1.444,0,0,0,.608-.59.551.551,0,0,0-.125-.676l-1.1-.955a.552.552,0,0,0-.686-.032" transform="translate(-684.148 -928.147)" fill="none"/>
    </clipPath>
    <linearGradient id="linear-gradient-5" x1="-9.796" y1="13.013" x2="-9.782" y2="13.013" xlink:href="#linear-gradient"/>
    <clipPath id="clip-path-15">
      <path id="Path_13233" data-name="Path 13233" d="M245.575,532.491a3.02,3.02,0,0,0,.872,2.632c.176.084,2.1-.9,1.73-1.71A4.157,4.157,0,0,0,246.513,532c-.391-.805-1.95-4.426.407-6.637a23.739,23.739,0,0,0-2.226-2.82c-2.267,2.086-3.1,5.365.872,9.953" transform="translate(-242.792 -522.539)" fill="none"/>
    </clipPath>
    <linearGradient id="linear-gradient-6" x1="-0.577" y1="5.89" x2="-0.573" y2="5.89" xlink:href="#linear-gradient"/>
    <clipPath id="clip-path-16">
      <path id="Path_13234" data-name="Path 13234" d="M451.278,430.16a.533.533,0,0,0,.077.6,2.677,2.677,0,0,0,2.986.65.5.5,0,0,0,.339-.4l.436-2.935-2.181-1.143Z" transform="translate(-451.218 -426.928)" fill="none"/>
    </clipPath>
    <linearGradient id="linear-gradient-7" x1="-3.915" y1="14.139" x2="-3.906" y2="14.139" xlink:href="#linear-gradient"/>
    <clipPath id="clip-path-17">
      <path id="Path_13235" data-name="Path 13235" d="M461.84,359.673c-.217.727.749,2.527.749,2.527a2.87,2.87,0,0,0,3.1,1.6c1.351-.235,1.1-.993,1.034-2.16a14.273,14.273,0,0,0-1.034-3.392s-3.635.692-3.853,1.426" transform="translate(-461.808 -358.247)" fill="none"/>
    </clipPath>
    <linearGradient id="linear-gradient-8" x1="-3.617" y1="11.433" x2="-3.609" y2="11.433" xlink:href="#linear-gradient"/>
    <clipPath id="clip-path-19">
      <path id="Path_13237" data-name="Path 13237" d="M463.247,399.245c-.637.4.33,1.6.843,1.646l.164-.622s-.291-1.093-.784-1.093a.418.418,0,0,0-.223.07" transform="translate(-463.038 -399.175)" fill="none"/>
    </clipPath>
    <linearGradient id="linear-gradient-9" x1="-12.129" y1="37.112" x2="-12.102" y2="37.112" xlink:href="#linear-gradient"/>
  </defs>
  <g id="Group_1443" data-name="Group 1443" clip-path="url(#clip-path)">
    <g id="Group_1416" data-name="Group 1416">
      <g id="Group_1415" data-name="Group 1415" clip-path="url(#clip-path)">
        <path id="Path_13199" data-name="Path 13199" d="M114.825,84.435C96.9,103.349,69.374,97.753,65.3,96.854c-5.126-1.133-17.323-3.828-26.426-14.467C24.945,66.095,26.357,40.636,37.116,23.47,40.246,18.476,50.782,3.633,70.573.407,71.737.218,92.395-2.812,109.021,11.14a45.532,45.532,0,0,1,9.031,10.247c9.838,15.386,14.494,44.343-3.228,63.048" transform="translate(-27.165 -0.002)" fill="#efeff4"/>
        <path id="Path_13200" data-name="Path 13200" d="M1091.61,575.5h-36.55V506.8a2.659,2.659,0,0,1,2.659-2.659h32.2a2.659,2.659,0,0,1,2.659,2.659v67.733a.967.967,0,0,1-.967.967" transform="translate(-997.407 -476.591)" fill="#f7e057"/>
        <path id="Path_13201" data-name="Path 13201" d="M952.943,98.969l25.2-25.821a.893.893,0,0,1,1.338.067l20.953,26.264a.893.893,0,0,1-.707,1.454l-46.152-.436a.893.893,0,0,1-.631-1.516" transform="translate(-900.628 -68.896)" fill="#f7e057"/>
        <path id="Path_13202" data-name="Path 13202" d="M760.368,803.093H723.821V747.421a2.659,2.659,0,0,1,2.659-2.659h32.2a2.659,2.659,0,0,1,2.659,2.659v54.7a.966.966,0,0,1-.967.967" transform="translate(-684.269 -704.065)" fill="#888b8f"/>
        <path id="Path_13203" data-name="Path 13203" d="M394.855,1116.194H362.161v-37.573a2.659,2.659,0,0,1,2.659-2.659H392.2a2.659,2.659,0,0,1,2.659,2.659Z" transform="translate(-342.371 -1017.167)" fill="#f7e057"/>
        <path id="Path_13204" data-name="Path 13204" d="M28.172,1320.609H.967a.967.967,0,0,1-.967-.967v-24.79a2.659,2.659,0,0,1,2.659-2.659H25.514a2.659,2.659,0,0,1,2.659,2.659Z" transform="translate(0 -1221.581)" fill="#888b8f"/>
        <g id="Group_1405" data-name="Group 1405" transform="translate(13.732 1.508)" opacity="0.3">
          <g id="Group_1404" data-name="Group 1404">
            <g id="Group_1403" data-name="Group 1403" clip-path="url(#clip-path-3)">
              <path id="Path_13205" data-name="Path 13205" d="M252.331,46.307a.358.358,0,0,1-.41-.246c-.119-.385-.222-.782-.308-1.179a.358.358,0,0,1,.273-.425h0a.358.358,0,0,1,.417.275c.081.377.18.753.291,1.119a.358.358,0,0,1-.237.446l-.036.009m-.582-3.053H251.7a.358.358,0,0,1-.384-.329c-.031-.4-.045-.813-.041-1.217a.358.358,0,1,1,.714,0c0,.384.01.772.039,1.163a.358.358,0,0,1-.291.378m.11-3.108a.358.358,0,0,1-.422-.4c.06-.4.138-.8.231-1.2a.358.358,0,1,1,.695.166c-.089.374-.163.756-.22,1.135a.358.358,0,0,1-.291.291m.8-3.007a.358.358,0,0,1-.4-.481c.145-.377.314-.752.493-1.114a.358.358,0,1,1,.64.317c-.17.345-.327.7-.468,1.058a.358.358,0,0,1-.265.22m1.454-2.752a.358.358,0,0,1-.363-.551c.227-.333.471-.663.727-.977a.358.358,0,1,1,.554.451c-.243.3-.475.611-.691.928a.356.356,0,0,1-.227.145m2.025-2.361a.358.358,0,0,1-.313-.612c.291-.276.606-.542.925-.792a.358.358,0,0,1,.436.563c-.3.237-.6.49-.872.752a.355.355,0,0,1-.174.089M268.8,28.651a.355.355,0,0,1-.146,0c-.374-.089-.756-.161-1.135-.218a.358.358,0,0,1,.1-.707c.4.06.8.137,1.2.23a.358.358,0,0,1-.013.7m-10.177,1.5a.358.358,0,0,1-.249-.66c.349-.2.712-.394,1.077-.566a.358.358,0,1,1,.3.646c-.347.163-.692.345-1.018.536a.359.359,0,0,1-.11.042m7.092-1.875a.359.359,0,0,1-.071,0c-.384,0-.774.012-1.163.042a.358.358,0,1,1-.055-.712c.4-.032.813-.047,1.217-.044a.358.358,0,0,1,.067.708m-4.229.647a.358.358,0,0,1-.174-.692c.385-.119.782-.224,1.178-.31h.014a.358.358,0,0,1,.146.7c-.375.081-.752.182-1.118.291l-.038.009" transform="translate(-251.291 -27.586)" fill="#b9bcc5"/>
              <path id="Path_13206" data-name="Path 13206" d="M599.215,45.859a.354.354,0,0,1-.212-.023c-.169-.074-.342-.145-.515-.214a.358.358,0,1,1,.26-.664c.182.071.363.145.541.224a.358.358,0,0,1-.076.678" transform="translate(-579.303 -43.985)" fill="#b9bcc5"/>
            </g>
          </g>
        </g>
        <g id="Group_1408" data-name="Group 1408" transform="translate(21.478 10.064)" opacity="0.3">
          <g id="Group_1407" data-name="Group 1407">
            <g id="Group_1406" data-name="Group 1406" clip-path="url(#clip-path-4)">
              <path id="Path_13207" data-name="Path 13207" d="M741.429,185.415a.358.358,0,0,1-.4-.227c-.064-.173-.132-.347-.2-.518a.358.358,0,1,1,.66-.275c.074.18.145.364.214.545a.361.361,0,0,1-.267.474" transform="translate(-721.791 -184.175)" fill="#b9bcc5"/>
              <path id="Path_13208" data-name="Path 13208" d="M442.24,244.578q-.241.048-.487.087a.358.358,0,0,1-.113-.705c.378-.061.752-.137,1.115-.228a.358.358,0,0,1,.172.694c-.225.055-.457.108-.686.145m-2.364.26a.355.355,0,0,1-.061,0c-.4.01-.8,0-1.2-.02a.358.358,0,1,1,.042-.712c.377.022.76.029,1.138.019a.358.358,0,0,1,.078.707m4.84-.99a.358.358,0,0,1-.2-.682c.35-.145.7-.291,1.038-.467a.358.358,0,1,1,.32.638c-.356.179-.727.345-1.093.491a.354.354,0,0,1-.064.019m-7.89.727a.357.357,0,0,1-.145,0,11.923,11.923,0,0,1-1.163-.291.358.358,0,0,1,.2-.686c.363.1.736.195,1.106.269a.358.358,0,0,1,0,.7m10.589-2.172a.358.358,0,0,1-.272-.646c.311-.214.616-.443.91-.683a.358.358,0,1,1,.452.552c-.308.253-.631.494-.958.72a.357.357,0,0,1-.134.057m2.316-2a.358.358,0,0,1-.331-.593c.257-.278.506-.568.738-.872a.358.358,0,1,1,.563.436c-.246.313-.507.619-.778.912a.356.356,0,0,1-.192.108m1.825-2.457a.358.358,0,0,1-.377-.531c.19-.327.371-.666.534-1.006a.358.358,0,1,1,.644.308c-.172.359-.361.715-.561,1.058a.356.356,0,0,1-.24.17m1.246-2.8a.358.358,0,0,1-.409-.459q.172-.541.3-1.1a.358.358,0,1,1,.7.158c-.089.388-.195.776-.316,1.163a.358.358,0,0,1-.272.243m.6-3a.358.358,0,0,1-.424-.381c.032-.377.049-.759.049-1.137a.358.358,0,0,1,.714,0c0,.4-.019.8-.052,1.2a.358.358,0,0,1-.291.32m-.073-3.053H453.3a.358.358,0,0,1-.4-.307c-.036-.276-.083-.554-.137-.827q-.029-.145-.061-.291a.358.358,0,0,1,.272-.426.353.353,0,0,1,.426.272q.034.154.064.31.085.436.145.872a.358.358,0,0,1-.291.4" transform="translate(-432.956 -224.876)" fill="#b9bcc5"/>
              <path id="Path_13209" data-name="Path 13209" d="M393.983,511.243a.356.356,0,0,1-.214-.025c-.178-.078-.355-.163-.531-.249a.358.358,0,1,1,.317-.64c.166.083.336.162.5.237a.358.358,0,0,1-.077.676" transform="translate(-393.041 -492.472)" fill="#b9bcc5"/>
            </g>
          </g>
        </g>
        <path id="Path_13210" data-name="Path 13210" d="M319.971,109.385a.167.167,0,0,0,.193.015l1.736-1.055a8.849,8.849,0,0,0,2.739.848l.837,1.849a.167.167,0,0,0,.167.1l2.426-.227a.167.167,0,0,0,.145-.126l.481-1.973a8.849,8.849,0,0,0,2.535-1.339l1.9.717a.167.167,0,0,0,.188-.049l1.556-1.876a.167.167,0,0,0,.015-.193l-1.055-1.736a8.852,8.852,0,0,0,.848-2.739l1.849-.837a.167.167,0,0,0,.1-.167l-.227-2.427a.167.167,0,0,0-.127-.145l-1.973-.481A8.848,8.848,0,0,0,332.966,95l.717-1.9a.167.167,0,0,0-.05-.188l-1.875-1.556a.167.167,0,0,0-.193-.015L329.828,92.4a8.849,8.849,0,0,0-2.739-.848l-.837-1.849a.167.167,0,0,0-.167-.1l-2.426.227a.167.167,0,0,0-.145.126l-.486,1.966a8.848,8.848,0,0,0-2.536,1.339l-1.9-.717a.167.167,0,0,0-.188.049l-1.556,1.875a.167.167,0,0,0-.014.193l1.055,1.736a8.85,8.85,0,0,0-.848,2.739l-1.849.837a.167.167,0,0,0-.1.167l.227,2.427a.167.167,0,0,0,.126.145l1.973.481a8.851,8.851,0,0,0,1.339,2.536l-.717,1.9a.167.167,0,0,0,.05.188Z" transform="translate(-297.876 -84.707)" fill="#b9bcc5"/>
        <path id="Path_13211" data-name="Path 13211" d="M470.225,246.649a2.452,2.452,0,1,1,.348-.095,2.451,2.451,0,0,1-.348.095M469.4,242.4a1.9,1.9,0,0,0-.269.074,1.872,1.872,0,1,0,.269-.074" transform="translate(-441.769 -228.581)" fill="#d7d9e0"/>
        <path id="Path_13212" data-name="Path 13212" d="M409.646,187.567a6.151,6.151,0,0,1-.612.089l-.2.014a6.064,6.064,0,0,1-.964-.017h-.049l-.073-.009a.146.146,0,1,1,.033-.291,5.732,5.732,0,1,0-3.94-2.3.145.145,0,0,1-.23.169,6.023,6.023,0,1,1,10.767-4.734,6.176,6.176,0,0,1,.089.614,6.023,6.023,0,0,1-4.824,6.468" transform="translate(-380.459 -166.038)" fill="#d7d9e0"/>
        <g id="Group_1411" data-name="Group 1411" transform="translate(2.607 16.772)" opacity="0.3">
          <g id="Group_1410" data-name="Group 1410">
            <g id="Group_1409" data-name="Group 1409" clip-path="url(#clip-path-5)">
              <path id="Path_13213" data-name="Path 13213" d="M58.741,537.439a.221.221,0,0,1-.23-.129c-.076-.171-.145-.348-.212-.523a.221.221,0,0,1,.414-.153c.063.167.129.336.2.5a.222.222,0,0,1-.174.308" transform="translate(-57.713 -523.943)" fill="#b9bcc5"/>
              <path id="Path_13214" data-name="Path 13214" d="M48.2,318.813a.221.221,0,0,1-.243-.169,9.594,9.594,0,0,1-.174-.955q-.013-.1-.025-.2a.228.228,0,0,1,.195-.243.221.221,0,0,1,.243.195q.01.1.023.193a9.188,9.188,0,0,0,.166.91.221.221,0,0,1-.164.265H48.2m-.247-2.277h-.032a.221.221,0,0,1-.218-.224,9.57,9.57,0,0,1,.089-1.17.221.221,0,0,1,.436.06,9.129,9.129,0,0,0-.084,1.117.221.221,0,0,1-.192.215m.313-2.27a.221.221,0,0,1-.241-.276,9.519,9.519,0,0,1,.374-1.114.221.221,0,0,1,.409.166,9.058,9.058,0,0,0-.356,1.063.221.221,0,0,1-.185.161m.861-2.123a.221.221,0,0,1-.221-.326,9.56,9.56,0,0,1,.634-.989.221.221,0,0,1,.356.26,9.1,9.1,0,0,0-.6.942.221.221,0,0,1-.164.112m1.354-1.848a.221.221,0,0,1-.189-.369,9.642,9.642,0,0,1,.855-.8.221.221,0,0,1,.282.339,9.192,9.192,0,0,0-.816.768.221.221,0,0,1-.132.067m1.761-1.464a.221.221,0,0,1-.145-.4,9.493,9.493,0,0,1,1.025-.571.221.221,0,0,1,.19.4,9.092,9.092,0,0,0-.977.545.22.22,0,0,1-.09.034m2.064-.989a.221.221,0,0,1-.1-.427,9.584,9.584,0,0,1,1.134-.3.222.222,0,1,1,.087.436,9.091,9.091,0,0,0-1.082.291.209.209,0,0,1-.042.01m3.392-.47h-.039a9.178,9.178,0,0,0-.974,0l-.145.01a.221.221,0,0,1-.237-.2.218.218,0,0,1,.2-.237l.154-.01a9.659,9.659,0,0,1,1.018,0,.221.221,0,0,1,.019.436" transform="translate(-47.703 -306.92)" fill="#b9bcc5"/>
            </g>
          </g>
        </g>
        <g id="Group_1414" data-name="Group 1414" transform="translate(7.256 29.146)" opacity="0.3">
          <g id="Group_1413" data-name="Group 1413">
            <g id="Group_1412" data-name="Group 1412" clip-path="url(#clip-path-6)">
              <path id="Path_13215" data-name="Path 13215" d="M165.526,539.957a.221.221,0,0,1-.06-.436,9.183,9.183,0,0,0,1.079-.221.221.221,0,1,1,.115.426,9.559,9.559,0,0,1-1.131.232h0m-1.125.093h-.023a9.693,9.693,0,0,1-1.154-.044.221.221,0,0,1,.044-.436,9.214,9.214,0,0,0,1.1.042.221.221,0,0,1,.033.436m3.3-.679a.221.221,0,0,1-.112-.423,9.13,9.13,0,0,0,.993-.477.221.221,0,0,1,.214.385,9.585,9.585,0,0,1-1.042.5.222.222,0,0,1-.055.015m-5.542.458a.221.221,0,0,1-.077,0,9.468,9.468,0,0,1-1.111-.321.221.221,0,1,1,.145-.416,9.029,9.029,0,0,0,1.058.307.221.221,0,0,1-.02.436m7.509-1.553a.221.221,0,0,1-.159-.4,9.057,9.057,0,0,0,.851-.7.221.221,0,1,1,.3.323,9.61,9.61,0,0,1-.891.734.218.218,0,0,1-.1.041m1.649-1.535a.221.221,0,0,1-.2-.361,9.215,9.215,0,0,0,.659-.884.221.221,0,0,1,.369.241,9.641,9.641,0,0,1-.689.926.22.22,0,0,1-.145.077m1.233-1.89a.218.218,0,0,1-.227-.311,9.023,9.023,0,0,0,.426-1.018.221.221,0,0,1,.416.145,9.542,9.542,0,0,1-.448,1.066.221.221,0,0,1-.17.121" transform="translate(-159.294 -533.374)" fill="#b9bcc5"/>
              <path id="Path_13216" data-name="Path 13216" d="M133.52,625.407a.221.221,0,0,1-.128-.022c-.169-.084-.336-.174-.5-.268a.221.221,0,1,1,.221-.382c.153.089.313.174.474.256a.221.221,0,0,1-.071.416" transform="translate(-132.786 -619.715)" fill="#b9bcc5"/>
            </g>
          </g>
        </g>
        <path id="Path_13217" data-name="Path 13217" d="M93.436,361.468a.112.112,0,0,0,.128.017l1.205-.629a5.925,5.925,0,0,0,1.793.685l.478,1.271a.112.112,0,0,0,.108.073l1.63-.047a.112.112,0,0,0,.1-.078l.407-1.3a5.926,5.926,0,0,0,1.745-.785l1.239.561a.112.112,0,0,0,.128-.025l1.119-1.185a.112.112,0,0,0,.017-.128l-.63-1.205a5.923,5.923,0,0,0,.685-1.793l1.271-.478a.112.112,0,0,0,.073-.108l-.047-1.63a.112.112,0,0,0-.078-.1l-1.3-.407a5.919,5.919,0,0,0-.785-1.745l.561-1.239a.112.112,0,0,0-.025-.126l-1.185-1.119a.112.112,0,0,0-.128-.018l-1.205.63a5.918,5.918,0,0,0-1.793-.685l-.478-1.271a.112.112,0,0,0-.108-.073l-1.63.047a.112.112,0,0,0-.1.079l-.407,1.3a5.918,5.918,0,0,0-1.745.785l-1.239-.561a.112.112,0,0,0-.128.025L92,351.386a.112.112,0,0,0-.017.128l.63,1.205a5.923,5.923,0,0,0-.685,1.793l-1.271.478a.112.112,0,0,0-.073.108l.047,1.63a.112.112,0,0,0,.078.1l1.3.407a5.922,5.922,0,0,0,.785,1.745l-.561,1.239a.112.112,0,0,0,.025.128Z" transform="translate(-85.632 -329.48)" fill="#b9bcc5"/>
        <path id="Path_13218" data-name="Path 13218" d="M193.315,452.713a1.671,1.671,0,1,1,.243-.049,1.672,1.672,0,0,1-.243.049m-.369-2.873a1.227,1.227,0,1,0,1.369,1.013,1.239,1.239,0,0,0-1.369-1.013" transform="translate(-180.975 -424.833)" fill="#d7d9e0"/>
        <path id="Path_13219" data-name="Path 13219" d="M151.019,411.652a3.994,3.994,0,0,1-.422.033,4.189,4.189,0,0,1-.845-.061h-.038a.222.222,0,0,1,.081-.436,3.724,3.724,0,0,0,.788.061h.044a3.676,3.676,0,0,0,1.745-.513,3.731,3.731,0,0,0,.784-.622h0l.017-.019a3.69,3.69,0,0,0,1.018-2.656,3.768,3.768,0,0,0-.031-.381,3.714,3.714,0,1,0-6.814,2.48.221.221,0,0,1-.372.237A4.155,4.155,0,1,1,154.6,407a4.232,4.232,0,0,1,.033.426,4.161,4.161,0,0,1-3.616,4.238" transform="translate(-138.329 -381.334)" fill="#d7d9e0"/>
        <path id="Path_13220" data-name="Path 13220" d="M538.332,510.535l-2.7,4.148a9.149,9.149,0,0,0,4.042,4.434,7.459,7.459,0,0,1,1.791-3.537c-2.486-1.415-3.136-5.045-3.136-5.045" transform="translate(-506.366 -482.637)" fill="#5c5e61"/>
      </g>
    </g>
    <g id="Group_1418" data-name="Group 1418" transform="translate(33.311 32.199)">
      <g id="Group_1417" data-name="Group 1417" transform="translate(0 0)" clip-path="url(#clip-path-7)">
        <rect id="Rectangle_640" data-name="Rectangle 640" width="10.807" height="10.654" transform="translate(-3.149 2.892) rotate(-42.56)" fill="url(#linear-gradient)"/>
      </g>
    </g>
    <g id="Group_1420" data-name="Group 1420" transform="translate(41.132 30.073)">
      <g id="Group_1419" data-name="Group 1419" transform="translate(0 0)" clip-path="url(#clip-path-8)">
        <rect id="Rectangle_641" data-name="Rectangle 641" width="5.932" height="5.904" transform="translate(-2.469 1.811) rotate(-42.56)" fill="url(#linear-gradient-2)"/>
      </g>
    </g>
    <g id="Group_1422" data-name="Group 1422" transform="translate(41.918 30.884)">
      <g id="Group_1421" data-name="Group 1421" transform="translate(0 0)" clip-path="url(#clip-path-9)">
        <rect id="Rectangle_642" data-name="Rectangle 642" width="1.096" height="1.294" transform="translate(-0.009 0.007)" fill="url(#linear-gradient-3)"/>
      </g>
    </g>
    <g id="Group_1424" data-name="Group 1424">
      <g id="Group_1423" data-name="Group 1423" clip-path="url(#clip-path)">
        <path id="Path_13224" data-name="Path 13224" d="M33.97,1099.062a.712.712,0,0,0-.305.745,12.876,12.876,0,0,0,2.762,6.106.269.269,0,0,0,.4,0,10.282,10.282,0,0,1-1.679-2.66,9.264,9.264,0,0,1-1.173-4.193" transform="translate(-31.813 -1039.004)" fill="#333435"/>
        <path id="Path_13225" data-name="Path 13225" d="M41.77,1093.6a2.513,2.513,0,0,0-2.313.038h-.009a9.266,9.266,0,0,0,1.173,4.193,10.3,10.3,0,0,0,1.679,2.66.313.313,0,0,0,.076-.132c.337-1.173,1.05-4.431-.606-6.765" transform="translate(-37.29 -1033.587)" fill="#333435"/>
      </g>
    </g>
    <g id="Group_1426" data-name="Group 1426" transform="translate(3.843 58.576)">
      <g id="Group_1425" data-name="Group 1425" transform="translate(0 0)" clip-path="url(#clip-path-11)">
        <rect id="Rectangle_644" data-name="Rectangle 644" width="3.614" height="3.662" transform="matrix(0.855, -0.519, 0.519, 0.855, -1.25, 0.737)" fill="url(#linear-gradient-4)"/>
      </g>
    </g>
    <g id="Group_1428" data-name="Group 1428">
      <g id="Group_1427" data-name="Group 1427" clip-path="url(#clip-path)">
        <path id="Path_13227" data-name="Path 13227" d="M733.646,905.624a.714.714,0,0,0,.8-.1,12.878,12.878,0,0,0,3.943-5.419.27.27,0,0,0-.195-.344,10.294,10.294,0,0,1-1.483,2.774,9.264,9.264,0,0,1-3.065,3.092" transform="translate(-693.556 -850.591)" fill="#333435"/>
        <path id="Path_13228" data-name="Path 13228" d="M711.961,903.469a2.514,2.514,0,0,0,1.176,1.992h.009a9.267,9.267,0,0,0,3.065-3.092,10.294,10.294,0,0,0,1.483-2.774.321.321,0,0,0-.145,0c-1.186.291-4.372,1.277-5.581,3.872" transform="translate(-673.055 -850.432)" fill="#333435"/>
      </g>
    </g>
    <g id="Group_1430" data-name="Group 1430" transform="translate(37.384 50.72)">
      <g id="Group_1429" data-name="Group 1429" transform="translate(0 0)" clip-path="url(#clip-path-13)">
        <rect id="Rectangle_646" data-name="Rectangle 646" width="3.763" height="3.763" transform="translate(-1.306 1.228) rotate(-45)" fill="url(#linear-gradient-5)"/>
      </g>
    </g>
    <g id="Group_1432" data-name="Group 1432">
      <g id="Group_1431" data-name="Group 1431" clip-path="url(#clip-path)">
        <path id="Path_13230" data-name="Path 13230" d="M97.157,753.6s-2.142,7.294-3.526,10.5a13.459,13.459,0,0,0-3.917,1.244c-1.5.872-4.724,5.726-4.724,5.726s.842,1.6,1.859,1.845l9.183-6.362,7.329-8.523-.347-3.953Z" transform="translate(-80.347 -712.418)" fill="#333435"/>
        <path id="Path_13231" data-name="Path 13231" d="M299.2,742.71l-.627,2s.573,5.234,7.175,4.353,7.431-1.961,7.431-1.961-.573,3.344,6.646,7.365a4.056,4.056,0,0,0,1.339-1.769l-5.058-8.338a2.232,2.232,0,0,0-2.64-1.181,69.407,69.407,0,0,1-8.966.885Z" transform="translate(-282.258 -702.125)" fill="#333435"/>
        <path id="Path_13232" data-name="Path 13232" d="M284.515,470.685a12.134,12.134,0,0,0-6.929,2.821,23.7,23.7,0,0,1,2.226,2.82,6.067,6.067,0,0,1,2.762-1.375,81.7,81.7,0,0,1-3.917,11.471.419.419,0,0,0,.244.564c1.205.42,4.76,1.421,7.611-.19l6.32-9.05a7.744,7.744,0,0,0,1.308-3.264l.25-1.633s-5.67-2.379-9.869-2.165" transform="translate(-262.418 -444.951)" fill="#5c5e61"/>
      </g>
    </g>
    <g id="Group_1434" data-name="Group 1434" transform="translate(13.263 28.555)">
      <g id="Group_1433" data-name="Group 1433" transform="translate(0 0)" clip-path="url(#clip-path-15)">
        <rect id="Rectangle_648" data-name="Rectangle 648" width="14.438" height="11.898" transform="translate(-6.279 10.106) rotate(-63.256)" fill="url(#linear-gradient-6)"/>
      </g>
    </g>
    <g id="Group_1436" data-name="Group 1436" transform="translate(24.655 23.329)">
      <g id="Group_1435" data-name="Group 1435" transform="translate(0 0)" clip-path="url(#clip-path-16)">
        <rect id="Rectangle_649" data-name="Rectangle 649" width="6.02" height="5.368" transform="translate(-1.603 4.453) rotate(-70.677)" fill="url(#linear-gradient-7)"/>
      </g>
    </g>
    <g id="Group_1438" data-name="Group 1438" transform="translate(25.235 19.576)">
      <g id="Group_1437" data-name="Group 1437" transform="translate(0 0)" clip-path="url(#clip-path-17)">
        <rect id="Rectangle_650" data-name="Rectangle 650" width="6.743" height="7.002" transform="matrix(0.965, -0.261, 0.261, 0.965, -1.643, 0.394)" fill="url(#linear-gradient-8)"/>
      </g>
    </g>
    <g id="Group_1440" data-name="Group 1440">
      <g id="Group_1439" data-name="Group 1439" clip-path="url(#clip-path)">
        <path id="Path_13236" data-name="Path 13236" d="M432.989,319.348l.077-.033a.186.186,0,0,0,.09-.254c-.19-.368-.561-1.211-.081-1.407.618-.253,3.066-.753,3.594-1.621a1.617,1.617,0,0,0-.618-2.219.093.093,0,0,0-.122.039l-.057.106a.092.092,0,0,1-.169-.017.092.092,0,0,0-.166-.023,2.481,2.481,0,0,1-1.772.9c-1.666.307-2.762.981-2.794,2.133a.092.092,0,0,1-.145.076c-.124-.076-.32-.11-.582.111-.458.385-.27,1.383.727,2.2a.092.092,0,0,1,0,.145c-.182.118-.452.4.25.775a2.364,2.364,0,0,0,1.477.321.092.092,0,0,0,.074-.11l-.223-1.018a.092.092,0,0,1,.09-.112Z" transform="translate(-406.512 -296.656)" fill="#333435"/>
      </g>
    </g>
    <g id="Group_1442" data-name="Group 1442" transform="translate(25.304 21.812)">
      <g id="Group_1441" data-name="Group 1441" transform="translate(0 0)" clip-path="url(#clip-path-19)">
        <rect id="Rectangle_652" data-name="Rectangle 652" width="2.035" height="2.086" transform="translate(-0.86 0.116) rotate(-15.134)" fill="url(#linear-gradient-9)"/>
      </g>
    </g>
  </g>
</svg>
