<svg id="Team_work" data-name="Team work" xmlns="http://www.w3.org/2000/svg" xmlns:xlink="http://www.w3.org/1999/xlink" width="92.36" height="84.332" viewBox="0 0 92.36 84.332">
  <defs>
    <clipPath id="clip-path">
      <rect id="Rectangle_733" data-name="Rectangle 733" width="92.36" height="84.332" fill="none"/>
    </clipPath>
  </defs>
  <path id="Path_13350" data-name="Path 13350" d="M88.683,27.143V17.02l23.476,13.555-8.545,5.185Zm33.8,23.735.142-15.119-8.545-5.185.052,15.461v.009Z" transform="translate(-66.511 -12.507)" fill="#b41a64"/>
  <g id="Group_1610" data-name="Group 1610">
    <g id="Group_1609" data-name="Group 1609" clip-path="url(#clip-path)">
      <path id="Path_13351" data-name="Path 13351" d="M158.3,1.281a7.37,7.37,0,0,1,0,12.18Zm0,18.073,5.009,3.04,14.373-8.3V4.349L158.29,15.544ZM154.147,0a7.333,7.333,0,0,1,4.15,1.279V13.461A7.37,7.37,0,1,1,154.147,0m4.15,15.54v3.812l-3.22-1.957ZM145.134,36.95,145,22.39l8.229-4.993-.05,14.889Z" transform="translate(-107.968 -0.002)" fill="#d31e76"/>
      <path id="Path_13352" data-name="Path 13352" d="M222.717,156.006l12.678,7.16.21,9.624-12.87-7.487Zm3.519,39.622,8.439,4.878V174.4l-8.439,4.625Zm23.97-13.341a7.37,7.37,0,1,0-10.067,2.7,7.37,7.37,0,0,0,10.067-2.7" transform="translate(-165.851 -116.174)" fill="#fb952f"/>
      <path id="Path_13353" data-name="Path 13353" d="M223.454,151.55l8.444,4.869-22.606,13.053-.21-9.624Zm-36.072,16.764.018.011,12.523,7.389,8.439-4.625-12.918-7.4Z" transform="translate(-139.539 -112.855)" fill="#ed7b09"/>
      <path id="Path_13354" data-name="Path 13354" d="M101.429,156.006l-12.678,7.16-.21,9.624,12.87-7.487Zm-3.517,39.622-8.439,4.878V174.4l8.439,4.625Z" transform="translate(-65.935 -116.174)" fill="#008594"/>
      <path id="Path_13355" data-name="Path 13355" d="M14.387,167.921a7.37,7.37,0,1,1,0,14.74Zm0-3.2,8.22,4.746.21-9.624-8.43-4.867Zm30.128,3.588-12.541,7.4-8.439-4.625,12.927-7.407ZM8,178.976a7.37,7.37,0,0,1,6.383-11.054v14.74A7.367,7.367,0,0,1,8,178.975m6.383-23.993v9.745L0,156.419l8.444-4.869Z" transform="translate(0 -112.855)" fill="#00a2b4"/>
    </g>
  </g>
</svg>
