<svg xmlns="http://www.w3.org/2000/svg" xmlns:xlink="http://www.w3.org/1999/xlink" width="181.241" height="181.241" viewBox="0 0 181.241 181.241">
  <defs>
    <filter id="Ellipse_94" x="0" y="0" width="181.241" height="181.241" filterUnits="userSpaceOnUse">
      <feOffset dy="3" input="SourceAlpha"/>
      <feGaussianBlur stdDeviation="18" result="blur"/>
      <feFlood flood-color="#96c32e"/>
      <feComposite operator="in" in2="blur"/>
    </filter>
    <linearGradient id="linear-gradient" x1="0.079" y1="0.144" x2="1.024" y2="0.944" gradientUnits="objectBoundingBox">
      <stop offset="0" stop-color="#f2e500"/>
      <stop offset="1" stop-color="#72b641"/>
    </linearGradient>
  </defs>
  <g id="Group_1393" data-name="Group 1393" transform="translate(-1878.123 10.887)">
    <g transform="matrix(1, 0, 0, 1, 1878.12, -10.89)" filter="url(#Ellipse_94)" style="mix-blend-mode: multiply;isolation: isolate">
      <circle id="Ellipse_94-2" data-name="Ellipse 94" cx="36.621" cy="36.621" r="36.621" transform="translate(54 51)" fill="#fff"/>
    </g>
    <g id="Group_1392" data-name="Group 1392" transform="translate(0 -10)">
      <g id="Group_300" data-name="Group 300" transform="translate(-0.468)">
        <circle id="Ellipse_8" data-name="Ellipse 8" cx="42.628" cy="42.628" r="42.628" transform="translate(1925.508 39.792)" fill="url(#linear-gradient)"/>
        <g id="Group_299" data-name="Group 299">
          <path id="Path_1339" data-name="Path 1339" d="M1968.136,127.087A44.667,44.667,0,1,1,2012.8,82.42,44.718,44.718,0,0,1,1968.136,127.087Zm0-85.255a40.588,40.588,0,1,0,40.588,40.588A40.633,40.633,0,0,0,1968.136,41.832Z" fill="#fff"/>
        </g>
      </g>
      <g id="Group_304" data-name="Group 304">
        <g id="Group_301" data-name="Group 301">
          <path id="Path_1340" data-name="Path 1340" d="M2043.3,82.76h-25.748v-.34a49.418,49.418,0,0,0-98.837,0v.34h-24.732v-.68h24.054a50.1,50.1,0,0,1,100.193,0h25.07Z" fill="#9c9b9b"/>
        </g>
        <g id="Group_302" data-name="Group 302">
          <path id="Path_1341" data-name="Path 1341" d="M1894.113,84.976a2.556,2.556,0,1,1,2.556-2.556A2.556,2.556,0,0,1,1894.113,84.976Z" fill="#9c9b9b"/>
        </g>
        <g id="Group_303" data-name="Group 303">
          <path id="Path_1342" data-name="Path 1342" d="M2043.174,84.976a2.556,2.556,0,1,0-2.557-2.556A2.557,2.557,0,0,0,2043.174,84.976Z" fill="#9c9b9b"/>
        </g>
      </g>
      <g id="Group_8619" data-name="Group 8619" transform="translate(0)">
        <text id="THOUGHT" transform="translate(1953 104.994)" fill="#fff" font-size="6" font-family="Roboto-Bold, Roboto" font-weight="700" letter-spacing="0.03em"><tspan x="0" y="0">THOUGHT</tspan></text>
        <g id="Group_306" data-name="Group 306" transform="translate(-0.785)">
          <g id="Group_305" data-name="Group 305">
            <path id="Path_1343" data-name="Path 1343" d="M1964.742,91.515q-.193-1.56-.386-3.118c-.1-.78-.194-1.559-.284-2.339-.015-.128-.05-.162-.185-.148-.717.072-1.437.13-2.155.2-.689.063-1.378.132-2.068.2-.538.051-1.077.1-1.616.149-.153.015-.2-.043-.21-.194-.06-.818-.132-1.635-.2-2.453-.053-.661-.1-1.323-.152-1.984-.064-.807-.133-1.612-.2-2.418-.015-.186-.042-.372-.039-.557,0-.166-.063-.207-.218-.206-1,0-1.993,0-2.99,0-.035,0-.07,0-.1,0-.147.008-.183-.046-.133-.189.2-.572.392-1.147.588-1.72q1.122-3.282,2.247-6.564a1.489,1.489,0,0,0,.082-.495c0-.723-.025-1.446.039-2.167a12.9,12.9,0,0,1,1.009-4.032,12.954,12.954,0,0,1,9.69-7.62,12.336,12.336,0,0,1,2.908-.159,12.937,12.937,0,0,1,11.652,9.339,12.854,12.854,0,0,1,.467,2.713,14,14,0,0,1-.732,5.241c-.887,2.817-1.728,5.648-2.589,8.473a.505.505,0,0,0-.016.239q.477,2.857.947,5.718c.2,1.246.4,2.493.613,3.738.026.153-.026.2-.156.219-.27.043-.539.091-.808.138h-.21l-.8-4.857q-.375-2.272-.748-4.547c-.006-.034-.01-.069-.019-.1a1.685,1.685,0,0,1,.047-.955q1.414-4.583,2.8-9.172a11.191,11.191,0,0,0,.465-2.87,11.694,11.694,0,0,0-7.71-11.429,11.121,11.121,0,0,0-3.134-.657,11.713,11.713,0,0,0-12.324,9.595,12.133,12.133,0,0,0-.18,2.7,4.739,4.739,0,0,1-.293,1.79c-.72,2.044-1.409,4.1-2.109,6.149-.013.039-.025.078-.04.116-.046.111,0,.143.108.142.385,0,.769,0,1.154,0,.461,0,.921.006,1.381,0,.163,0,.233.053.244.214q.086,1.21.181,2.42c.075.94.158,1.878.233,2.818.053.667.1,1.334.149,2,.018.272.027.279.3.251.55-.056,1.1-.1,1.651-.151l2.154-.2q.964-.088,1.929-.179c.105-.01.147.037.159.136q.1.883.213,1.767.166,1.352.338,2.7c.083.669.165,1.339.25,2.009.015.125-.028.176-.157.19-.312.033-.622.083-.932.126Z" fill="#fff" stroke="#fff" stroke-width="0.4"/>
            <path id="Path_1344" data-name="Path 1344" d="M1975.481,67.965c.169,0,.338,0,.507,0,.121,0,.166.05.165.167,0,.292,0,.583,0,.875,0,.129-.052.174-.178.172-.326-.005-.652,0-.979,0-.112,0-.163.028-.18.151a4.8,4.8,0,0,1-.322,1.194.142.142,0,0,0,.073.212c.29.162.575.334.864.5.1.055.136.109.07.219-.157.259-.31.521-.456.786-.062.114-.124.109-.222.049-.28-.167-.568-.322-.846-.492-.105-.064-.169-.061-.247.041a4.585,4.585,0,0,1-.864.863.137.137,0,0,0-.044.216c.172.284.329.577.5.86.074.121.048.181-.07.245-.255.139-.507.286-.756.437-.1.061-.161.054-.222-.056-.16-.291-.333-.575-.494-.865a.152.152,0,0,0-.225-.08,4.48,4.48,0,0,1-1.161.31c-.122.014-.166.078-.164.2.005.315,0,.63,0,.944,0,.149-.052.212-.2.209q-.411-.011-.822,0c-.159,0-.214-.061-.209-.219.008-.308,0-.617,0-.926a.172.172,0,0,0-.176-.206,4.449,4.449,0,0,1-1.143-.31c-.119-.049-.176-.021-.235.085-.155.281-.324.554-.476.836-.07.129-.135.143-.258.066-.242-.152-.491-.292-.742-.428-.113-.062-.131-.124-.064-.235.169-.279.326-.565.493-.845.061-.1.066-.167-.042-.246a4.209,4.209,0,0,1-.841-.835c-.095-.125-.167-.121-.288-.047-.267.166-.545.315-.813.479-.109.066-.173.057-.236-.058-.14-.256-.284-.509-.437-.757-.074-.12-.045-.183.07-.247.281-.155.554-.322.835-.477.1-.057.141-.109.09-.232a4.587,4.587,0,0,1-.322-1.212c-.015-.118-.081-.122-.169-.121-.326,0-.653,0-.979,0-.133,0-.189-.042-.186-.181q.01-.418,0-.839c0-.142.043-.2.19-.195.326.008.653,0,.979,0,.106,0,.152-.029.168-.144a4.729,4.729,0,0,1,.321-1.195c.042-.1.029-.155-.069-.209-.285-.158-.563-.329-.85-.485-.124-.068-.152-.134-.074-.26.148-.237.29-.479.419-.726.074-.142.147-.146.273-.068.262.162.535.307.8.468.115.071.19.07.277-.046a4.186,4.186,0,0,1,.84-.836.157.157,0,0,0,.049-.247c-.16-.264-.311-.533-.466-.8-.113-.195-.113-.195.09-.312.237-.137.476-.27.71-.414.105-.064.162-.045.221.06.161.29.334.574.494.865a.151.151,0,0,0,.225.079,4.533,4.533,0,0,1,1.177-.314c.112-.014.145-.073.145-.176,0-.321,0-.641,0-.962,0-.141.044-.2.192-.194.285.009.571.008.856,0,.138,0,.188.051.186.184,0,.308,0,.618,0,.926,0,.154.051.209.207.23a4.2,4.2,0,0,1,1.093.3c.126.053.195.036.262-.091.154-.288.328-.565.486-.85.056-.1.11-.115.207-.057q.39.234.787.454c.108.06.116.121.055.223-.171.285-.33.577-.5.861a.147.147,0,0,0,.045.231,4.669,4.669,0,0,1,.864.862.152.152,0,0,0,.236.042c.285-.171.577-.33.861-.5.106-.064.161-.044.219.061.143.26.293.517.447.771.062.1.047.164-.059.223-.29.163-.573.336-.863.5-.1.056-.127.112-.08.223a4.8,4.8,0,0,1,.322,1.194c.017.118.071.141.173.138.163,0,.326,0,.49,0Zm-5.869-3.421a4.032,4.032,0,1,0,4.045,3.956A4.044,4.044,0,0,0,1969.612,64.544Z" fill="#fff" stroke="#fff" stroke-width="0.4"/>
            <path id="Path_1345" data-name="Path 1345" d="M1979.126,68.522c.14,0,.28,0,.419,0,.123-.006.179.033.18.167,0,.385-.041.766-.077,1.148-.008.086-.049.124-.138.112l-.951-.126c-.093-.012-.124-.072-.115-.161.034-.341.065-.683.07-1.026,0-.1.063-.113.141-.113Z" fill="#fff" stroke="#fff" stroke-width="0.4"/>
            <path id="Path_1346" data-name="Path 1346" d="M1976.5,75.917a.126.126,0,0,1-.059.11,10.691,10.691,0,0,1-.907.739c-.072.053-.122.048-.174-.026q-.274-.393-.555-.784c-.049-.068-.054-.123.02-.177a8.438,8.438,0,0,0,.8-.652.094.094,0,0,1,.151,0c.231.246.463.492.693.738A.315.315,0,0,1,1976.5,75.917Z" fill="#fff" stroke="#fff" stroke-width="0.4"/>
            <path id="Path_1347" data-name="Path 1347" d="M1965.495,60.631c0,.068-.047.087-.087.108a7.688,7.688,0,0,0-.832.51c-.1.067-.154.043-.214-.045-.176-.253-.353-.5-.534-.754-.058-.079-.052-.129.03-.185q.476-.324.98-.6c.094-.051.146-.034.193.06.139.275.284.547.426.82C1965.472,60.575,1965.484,60.608,1965.495,60.631Z" fill="#fff" stroke="#fff" stroke-width="0.4"/>
            <path id="Path_1348" data-name="Path 1348" d="M1971.721,58.688a8.4,8.4,0,0,1,1.177.324c.071.026.077.079.055.142-.108.308-.218.616-.322.924-.031.092-.087.1-.163.07a8.852,8.852,0,0,0-.959-.268c-.1-.022-.122-.066-.1-.159.065-.308.124-.616.187-.924C1971.607,58.731,1971.631,58.67,1971.721,58.688Z" fill="#fff" stroke="#fff" stroke-width="0.4"/>
            <path id="Path_1349" data-name="Path 1349" d="M1978.226,73.859c-.011.021-.027.052-.045.082a10.682,10.682,0,0,1-.644.91c-.064.083-.118.093-.2.025q-.361-.3-.731-.593c-.075-.06-.084-.113-.023-.188a8,8,0,0,0,.574-.81c.042-.069.09-.1.17-.054l.847.52C1978.209,73.772,1978.244,73.8,1978.226,73.859Z" fill="#fff" stroke="#fff" stroke-width="0.4"/>
            <path id="Path_1350" data-name="Path 1350" d="M1964.482,75.889c-.013.021-.028.053-.047.081-.177.252-.358.5-.531.756-.064.094-.12.1-.211.035-.3-.22-.586-.456-.866-.7-.082-.072-.093-.13-.012-.214q.318-.334.626-.679a.123.123,0,0,1,.2-.009,7.862,7.862,0,0,0,.77.627A.116.116,0,0,1,1964.482,75.889Z" fill="#fff" stroke="#fff" stroke-width="0.4"/>
            <path id="Path_1351" data-name="Path 1351" d="M1977.414,62.154c.006.061-.03.084-.061.11-.243.2-.488.4-.728.6-.089.076-.148.053-.217-.029a5.949,5.949,0,0,0-.634-.674c-.092-.081-.105-.148-.012-.244.208-.213.406-.435.6-.655.072-.08.131-.1.217-.015.273.264.532.539.778.828A.691.691,0,0,1,1977.414,62.154Z" fill="#fff" stroke="#fff" stroke-width="0.4"/>
            <path id="Path_1352" data-name="Path 1352" d="M1979.328,71.38a9.454,9.454,0,0,1-.411,1.147c-.032.072-.082.068-.143.041-.3-.13-.6-.261-.9-.388-.087-.037-.091-.094-.059-.168a8.6,8.6,0,0,0,.328-.92c.032-.108.091-.132.2-.1.29.085.582.164.873.246C1979.285,71.257,1979.354,71.281,1979.328,71.38Z" fill="#fff" stroke="#fff" stroke-width="0.4"/>
            <path id="Path_1353" data-name="Path 1353" d="M1969.572,59.694c-.152,0-.3,0-.455,0-.1,0-.152-.025-.158-.134-.018-.308-.043-.615-.066-.922-.009-.114.046-.15.155-.156a6.94,6.94,0,0,1,1.1,0c.1.009.145.037.138.146-.02.3-.032.6-.046.906-.006.115-.058.166-.177.161C1969.9,59.689,1969.735,59.694,1969.572,59.694Z" fill="#fff" stroke="#fff" stroke-width="0.4"/>
            <path id="Path_1354" data-name="Path 1354" d="M1960.123,68.562c.146,0,.292,0,.437,0,.116,0,.172.04.17.163a6.056,6.056,0,0,0,.065.922c.016.117-.014.182-.15.2-.294.033-.587.083-.88.127-.106.016-.163-.014-.176-.131-.038-.354-.069-.707-.075-1.062,0-.173.062-.229.224-.217C1959.866,68.57,1959.995,68.562,1960.123,68.562Z" fill="#fff" stroke="#fff" stroke-width="0.4"/>
            <path id="Path_1355" data-name="Path 1355" d="M1959.915,71.4c-.016-.091.035-.12.094-.136.308-.087.617-.17.925-.259.087-.025.126,0,.152.087a8.422,8.422,0,0,0,.337.936c.038.087.022.139-.069.177q-.435.183-.864.378c-.1.045-.147.017-.187-.078a9.2,9.2,0,0,1-.373-1.052Z" fill="#fff" stroke="#fff" stroke-width="0.4"/>
            <path id="Path_1356" data-name="Path 1356" d="M1967.782,59.754c.012.109-.054.129-.116.143a7.773,7.773,0,0,0-.938.265.118.118,0,0,1-.176-.081c-.1-.3-.21-.592-.319-.886-.032-.088-.017-.142.076-.174a9.968,9.968,0,0,1,1.123-.318c.062-.014.124-.006.14.066C1967.646,59.1,1967.715,59.439,1967.782,59.754Z" fill="#fff" stroke="#fff" stroke-width="0.4"/>
            <path id="Path_1357" data-name="Path 1357" d="M1975.4,60.346c-.014.023-.03.055-.049.083-.177.253-.356.5-.529.758-.059.088-.112.1-.2.038a7.792,7.792,0,0,0-.835-.506c-.092-.048-.111-.1-.062-.2q.216-.408.422-.821c.051-.1.109-.115.206-.061.326.18.646.37.954.579C1975.352,60.249,1975.406,60.272,1975.4,60.346Z" fill="#fff" stroke="#fff" stroke-width="0.4"/>
            <path id="Path_1358" data-name="Path 1358" d="M1961.984,64c-.011.022-.027.053-.044.083a7.821,7.821,0,0,0-.431.839c-.05.115-.11.128-.216.081-.276-.125-.553-.246-.833-.362-.1-.041-.119-.089-.075-.187a10.329,10.329,0,0,1,.523-1.007c.044-.076.091-.117.18-.062.278.172.557.34.836.51C1961.959,63.916,1961.994,63.939,1961.984,64Z" fill="#fff" stroke="#fff" stroke-width="0.4"/>
            <path id="Path_1359" data-name="Path 1359" d="M1961.972,73.223c.061-.008.086.035.11.073a9.386,9.386,0,0,0,.576.809.115.115,0,0,1-.02.19q-.373.3-.742.607a.1.1,0,0,1-.173-.018c-.239-.308-.468-.623-.675-.953-.037-.059-.062-.115.015-.162l.864-.527A.289.289,0,0,1,1961.972,73.223Z" fill="#fff" stroke="#fff" stroke-width="0.4"/>
            <path id="Path_1360" data-name="Path 1360" d="M1978.543,67.33c-.077.023-.122-.011-.138-.12a7,7,0,0,0-.2-.939c-.034-.116,0-.168.119-.2.287-.075.572-.157.856-.244.117-.035.166,0,.2.114.093.355.165.714.23,1.075.021.122-.031.174-.142.189Z" fill="#fff" stroke="#fff" stroke-width="0.4"/>
            <path id="Path_1361" data-name="Path 1361" d="M1965.56,76.5c.035.014.073.028.11.046a6.991,6.991,0,0,0,.835.358c.13.045.156.107.107.235-.105.271-.2.547-.293.823-.038.112-.092.142-.207.1q-.522-.2-1.025-.447c-.094-.046-.117-.1-.067-.19.145-.273.285-.549.428-.822C1965.471,76.549,1965.491,76.5,1965.56,76.5Z" fill="#fff" stroke="#fff" stroke-width="0.4"/>
            <path id="Path_1362" data-name="Path 1362" d="M1959.612,67.155a9.04,9.04,0,0,1,.24-1.187.111.111,0,0,1,.157-.088c.307.087.614.173.923.256.1.026.109.08.086.169a7.9,7.9,0,0,0-.191.938c-.013.1-.06.158-.174.14-.3-.046-.609-.09-.914-.129C1959.645,67.243,1959.593,67.214,1959.612,67.155Z" fill="#fff" stroke="#fff" stroke-width="0.4"/>
            <path id="Path_1363" data-name="Path 1363" d="M1969.02,77.757c-.014.244-.03.488-.042.731-.006.127-.066.176-.19.162-.364-.043-.728-.081-1.087-.155-.106-.021-.146-.068-.12-.181.068-.3.132-.6.187-.905.019-.1.07-.123.157-.106.331.068.666.1,1,.138.081.01.113.043.1.125-.008.063-.008.127-.012.191Z" fill="#fff" stroke="#fff" stroke-width="0.4"/>
            <path id="Path_1364" data-name="Path 1364" d="M1970.217,77.62c-.025-.108.035-.179.2-.2.3-.029.6-.077.9-.124a.126.126,0,0,1,.169.118q.091.453.189.906c.021.1-.012.149-.116.169-.366.069-.736.113-1.106.155-.106.012-.159-.024-.166-.141C1970.272,78.228,1970.245,77.95,1970.217,77.62Z" fill="#fff" stroke="#fff" stroke-width="0.4"/>
            <path id="Path_1365" data-name="Path 1365" d="M1973.676,76.5c.069-.014.09.032.111.072.148.283.294.568.444.85.046.088.02.139-.063.18a9.95,9.95,0,0,1-1.037.454c-.09.033-.15.03-.187-.078-.1-.3-.207-.591-.315-.886a.115.115,0,0,1,.08-.174c.312-.113.61-.256.911-.4Z" fill="#fff" stroke="#fff" stroke-width="0.4"/>
            <path id="Path_1366" data-name="Path 1366" d="M1978.174,63.309c.073-.01.093.037.117.075a10.855,10.855,0,0,1,.543,1.036c.039.083.013.129-.067.163q-.433.188-.863.38c-.092.041-.151.027-.192-.071a7.212,7.212,0,0,0-.452-.867.117.117,0,0,1,.044-.187c.27-.163.537-.329.805-.493C1978.133,63.33,1978.159,63.317,1978.174,63.309Z" fill="#fff" stroke="#fff" stroke-width="0.4"/>
            <path id="Path_1367" data-name="Path 1367" d="M1963.511,62.052a.132.132,0,0,1-.06.109,8.995,8.995,0,0,0-.674.733c-.062.076-.117.076-.19.015-.242-.2-.487-.4-.732-.594a.112.112,0,0,1-.021-.188,9.948,9.948,0,0,1,.8-.855c.048-.046.1-.066.15-.009l.7.737A.249.249,0,0,1,1963.511,62.052Z" fill="#fff" stroke="#fff" stroke-width="0.4"/>
            <path id="Path_1368" data-name="Path 1368" d="M1969.608,70.889a2.3,2.3,0,0,1-2.317-2.305,2.328,2.328,0,1,1,4.656-.016A2.309,2.309,0,0,1,1969.608,70.889Zm1.111-2.318a1.1,1.1,0,0,0-1.1-1.111,1.11,1.11,0,1,0,0,2.219A1.089,1.089,0,0,0,1970.719,68.571Z" fill="#fff" stroke="#fff" stroke-width="0.4"/>
          </g>
        </g>
      </g>
    </g>
  </g>
</svg>
