<svg xmlns="http://www.w3.org/2000/svg" width="127.501" height="128.475" viewBox="0 0 127.501 128.475">
  <g id="Group_315" data-name="Group 315" transform="translate(-2330.295 -39.334)" opacity="0.7">
    <g id="Group_308" data-name="Group 308" opacity="0.62" style="mix-blend-mode: multiply;isolation: isolate">
      <path id="Path_1369" data-name="Path 1369" d="M2347.182,120.937a7.2,7.2,0,1,0,7.205,7.205A7.212,7.212,0,0,0,2347.182,120.937Zm0,12.04a4.836,4.836,0,1,1,4.836-4.835A4.841,4.841,0,0,1,2347.182,132.977Z" fill="#e5eceb"/>
      <path id="Path_1370" data-name="Path 1370" d="M2360.909,129.326v-2.368h-2.5a11.259,11.259,0,0,0-.88-3.424l2.131-1.23-1.185-2.052-2.144,1.238a11.427,11.427,0,0,0-2.5-2.5l1.237-2.144-2.049-1.184-1.23,2.131a11.246,11.246,0,0,0-3.426-.88v-2.5H2346v2.5a11.241,11.241,0,0,0-3.424.88l-1.23-2.131-2.049,1.184,1.238,2.144a11.393,11.393,0,0,0-2.5,2.5l-2.144-1.239L2334.7,122.3l2.13,1.23a11.222,11.222,0,0,0-.879,3.424h-2.5v2.368h2.5a11.243,11.243,0,0,0,.878,3.423l-2.129,1.23,1.184,2.052,2.143-1.238a11.431,11.431,0,0,0,2.5,2.5l-1.237,2.144,2.049,1.184,1.23-2.131a11.234,11.234,0,0,0,3.424.88v2.5h2.369v-2.5a11.246,11.246,0,0,0,3.426-.88l1.23,2.131,2.049-1.184-1.237-2.144a11.431,11.431,0,0,0,2.5-2.5l2.143,1.238,1.185-2.052-2.13-1.229a11.293,11.293,0,0,0,.879-3.424Zm-13.727,7.8a8.98,8.98,0,1,1,8.981-8.98A8.989,8.989,0,0,1,2347.182,137.122Z" fill="#e5eceb"/>
    </g>
    <g id="Group_309" data-name="Group 309" opacity="0.62" style="mix-blend-mode: multiply;isolation: isolate">
      <path id="Path_1371" data-name="Path 1371" d="M2421.665,87.071a7.2,7.2,0,1,0,7.205,7.205A7.212,7.212,0,0,0,2421.665,87.071Zm0,12.04a4.835,4.835,0,1,1,4.836-4.835A4.84,4.84,0,0,1,2421.665,99.111Z" fill="#e5eceb"/>
      <path id="Path_1372" data-name="Path 1372" d="M2435.393,95.46V93.092h-2.5a11.224,11.224,0,0,0-.88-3.424l2.131-1.23-1.184-2.052-2.145,1.238a11.427,11.427,0,0,0-2.5-2.5l1.237-2.144-2.049-1.184-1.23,2.131a11.239,11.239,0,0,0-3.426-.88v-2.5h-2.369v2.5a11.23,11.23,0,0,0-3.423.88l-1.23-2.131-2.05,1.184,1.238,2.144a11.393,11.393,0,0,0-2.5,2.5l-2.144-1.239-1.184,2.052,2.13,1.23a11.257,11.257,0,0,0-.879,3.424h-2.5V95.46h2.5a11.223,11.223,0,0,0,.879,3.423l-2.13,1.23,1.184,2.052,2.143-1.238a11.414,11.414,0,0,0,2.5,2.5l-1.238,2.144,2.05,1.184,1.229-2.131a11.236,11.236,0,0,0,3.424.88V108h2.369v-2.5a11.239,11.239,0,0,0,3.426-.88l1.23,2.131,2.049-1.184-1.237-2.144a11.411,11.411,0,0,0,2.5-2.5l2.144,1.238,1.184-2.052-2.13-1.229a11.265,11.265,0,0,0,.879-3.424Zm-13.728,7.8a8.98,8.98,0,1,1,8.981-8.98A8.989,8.989,0,0,1,2421.665,103.256Z" fill="#e5eceb"/>
    </g>
    <g id="Group_310" data-name="Group 310" opacity="0.62" style="mix-blend-mode: multiply;isolation: isolate">
      <path id="Path_1373" data-name="Path 1373" d="M2375.646,137.814a10.324,10.324,0,1,0,10.325,10.325A10.336,10.336,0,0,0,2375.646,137.814Zm0,17.254a6.93,6.93,0,1,1,6.931-6.929A6.937,6.937,0,0,1,2375.646,155.068Z" fill="#e5eceb"/>
      <path id="Path_1374" data-name="Path 1374" d="M2395.318,149.836v-3.394h-3.579a16.133,16.133,0,0,0-1.261-4.907l3.053-1.762-1.7-2.94-3.072,1.774a16.348,16.348,0,0,0-3.584-3.583l1.774-3.073-2.937-1.7-1.763,3.054a16.132,16.132,0,0,0-4.909-1.262v-3.579h-3.394v3.579a16.119,16.119,0,0,0-4.906,1.261l-1.763-3.053-2.937,1.7,1.774,3.072a16.314,16.314,0,0,0-3.584,3.585l-3.072-1.775-1.7,2.94,3.052,1.763a16.161,16.161,0,0,0-1.26,4.906h-3.582v3.394h3.582a16.141,16.141,0,0,0,1.26,4.9l-3.052,1.763,1.7,2.94,3.071-1.774a16.379,16.379,0,0,0,3.584,3.585l-1.773,3.071,2.937,1.7,1.762-3.054a16.1,16.1,0,0,0,4.907,1.261v3.579h3.394V164.23a16.1,16.1,0,0,0,4.909-1.261l1.763,3.054,2.937-1.7-1.773-3.072a16.323,16.323,0,0,0,3.583-3.583l3.072,1.773,1.7-2.94-3.052-1.761a16.161,16.161,0,0,0,1.26-4.906Zm-19.672,11.172a12.869,12.869,0,1,1,12.87-12.869A12.882,12.882,0,0,1,2375.646,161.008Z" fill="#e5eceb"/>
    </g>
    <g id="Group_311" data-name="Group 311" opacity="0.62" style="mix-blend-mode: multiply;isolation: isolate">
      <path id="Path_1375" data-name="Path 1375" d="M2381.188,95.867a10.324,10.324,0,1,0,10.325,10.325A10.335,10.335,0,0,0,2381.188,95.867Zm0,17.254a6.93,6.93,0,1,1,6.931-6.929A6.937,6.937,0,0,1,2381.188,113.121Z" fill="#e5eceb"/>
      <path id="Path_1376" data-name="Path 1376" d="M2400.86,107.889V104.5h-3.579a16.125,16.125,0,0,0-1.26-4.907l3.052-1.762-1.7-2.94-3.072,1.773a16.345,16.345,0,0,0-3.583-3.583L2392.494,90l-2.936-1.7-1.763,3.054a16.146,16.146,0,0,0-4.909-1.262V86.52h-3.4V90.1a16.127,16.127,0,0,0-4.906,1.261l-1.762-3.053-2.937,1.7,1.773,3.072a16.353,16.353,0,0,0-3.584,3.584L2365,94.886l-1.7,2.94,3.053,1.763a16.083,16.083,0,0,0-1.26,4.906h-3.582v3.394h3.582a16.1,16.1,0,0,0,1.259,4.9l-3.052,1.763,1.7,2.94,3.072-1.774a16.332,16.332,0,0,0,3.584,3.584l-1.773,3.072,2.937,1.7,1.762-3.053a16.127,16.127,0,0,0,4.906,1.261v3.579h3.4v-3.579a16.117,16.117,0,0,0,4.909-1.262l1.763,3.054,2.936-1.7-1.773-3.072a16.344,16.344,0,0,0,3.583-3.583l3.072,1.773,1.7-2.94-3.052-1.762a16.084,16.084,0,0,0,1.26-4.9Zm-19.672,11.171a12.869,12.869,0,1,1,12.871-12.868A12.881,12.881,0,0,1,2381.188,119.06Z" fill="#e5eceb"/>
    </g>
    <g id="Group_312" data-name="Group 312" opacity="0.62" style="mix-blend-mode: multiply;isolation: isolate">
      <path id="Path_1377" data-name="Path 1377" d="M2438.124,48.68a10.324,10.324,0,1,0,10.325,10.325A10.335,10.335,0,0,0,2438.124,48.68Zm0,17.254a6.93,6.93,0,1,1,6.931-6.929A6.937,6.937,0,0,1,2438.124,65.934Z" fill="#e5eceb"/>
      <path id="Path_1378" data-name="Path 1378" d="M2457.8,60.7V57.308h-3.579a16.139,16.139,0,0,0-1.26-4.907l3.052-1.762-1.7-2.94-3.072,1.774a16.323,16.323,0,0,0-3.583-3.583l1.773-3.073-2.936-1.7-1.763,3.054a16.146,16.146,0,0,0-4.909-1.262V39.334h-3.4v3.579a16.126,16.126,0,0,0-4.906,1.26l-1.763-3.053-2.936,1.7,1.773,3.072a16.357,16.357,0,0,0-3.584,3.585l-3.072-1.775-1.7,2.94,3.053,1.763a16.1,16.1,0,0,0-1.26,4.906h-3.582V60.7h3.582a16.118,16.118,0,0,0,1.259,4.905l-3.052,1.762,1.7,2.94,3.072-1.774a16.336,16.336,0,0,0,3.584,3.585l-1.773,3.072,2.936,1.7,1.763-3.053a16.126,16.126,0,0,0,4.906,1.26v3.579h3.4V75.1a16.116,16.116,0,0,0,4.909-1.261l1.763,3.054,2.936-1.7-1.773-3.073a16.323,16.323,0,0,0,3.583-3.583l3.072,1.773,1.7-2.94-3.052-1.761a16.1,16.1,0,0,0,1.26-4.906Zm-19.672,11.172a12.87,12.87,0,1,1,12.87-12.869A12.881,12.881,0,0,1,2438.124,71.874Z" fill="#e5eceb"/>
    </g>
    <g id="Group_313" data-name="Group 313" opacity="0.62" style="mix-blend-mode: multiply;isolation: isolate">
      <path id="Path_1379" data-name="Path 1379" d="M2431.455,122.9a12.643,12.643,0,1,0,12.644,12.645A12.657,12.657,0,0,0,2431.455,122.9Zm0,21.13a8.486,8.486,0,1,1,8.488-8.485A8.5,8.5,0,0,1,2431.455,144.026Z" fill="#e5eceb"/>
      <path id="Path_1380" data-name="Path 1380" d="M2455.547,137.619v-4.157h-4.383a19.759,19.759,0,0,0-1.544-6.009l3.738-2.158-2.078-3.6-3.763,2.172a20.009,20.009,0,0,0-4.388-4.389l2.172-3.763-3.6-2.078-2.159,3.74a19.774,19.774,0,0,0-6.012-1.545v-4.383h-4.157v4.383a19.754,19.754,0,0,0-6.009,1.544l-2.158-3.739-3.6,2.078,2.172,3.763a19.979,19.979,0,0,0-4.389,4.39l-3.762-2.173-2.078,3.6,3.737,2.159a19.75,19.75,0,0,0-1.542,6.008h-4.387v4.157h4.387a19.738,19.738,0,0,0,1.542,6.006l-3.737,2.159,2.078,3.6,3.761-2.172a20.048,20.048,0,0,0,4.39,4.39l-2.172,3.762,3.6,2.078,2.158-3.739a19.776,19.776,0,0,0,6.009,1.544v4.383h4.157v-4.383a19.773,19.773,0,0,0,6.012-1.545l2.159,3.74,3.6-2.078-2.172-3.763a20.03,20.03,0,0,0,4.389-4.388l3.762,2.171,2.078-3.6-3.737-2.158a19.766,19.766,0,0,0,1.543-6.007ZM2431.455,151.3a15.761,15.761,0,1,1,15.762-15.759A15.775,15.775,0,0,1,2431.455,151.3Z" fill="#e5eceb"/>
    </g>
    <g id="Group_314" data-name="Group 314" opacity="0.62" style="mix-blend-mode: multiply;isolation: isolate">
      <path id="Path_1381" data-name="Path 1381" d="M2354.386,53.479a12.643,12.643,0,1,0,12.645,12.644A12.657,12.657,0,0,0,2354.386,53.479Zm0,21.13a8.487,8.487,0,1,1,8.488-8.486A8.5,8.5,0,0,1,2354.386,74.609Z" fill="#e5eceb"/>
      <path id="Path_1382" data-name="Path 1382" d="M2378.478,68.2V64.045h-4.383a19.744,19.744,0,0,0-1.544-6.009l3.739-2.158-2.079-3.6-3.762,2.172a20.034,20.034,0,0,0-4.389-4.388l2.172-3.763-3.6-2.078-2.159,3.74a19.737,19.737,0,0,0-6.012-1.545V42.032h-4.157v4.383a19.712,19.712,0,0,0-6.008,1.544l-2.159-3.739-3.6,2.078,2.171,3.762a20.06,20.06,0,0,0-4.389,4.39l-3.762-2.173-2.078,3.6,3.738,2.159a19.752,19.752,0,0,0-1.543,6.008h-4.387V68.2h4.387a19.731,19.731,0,0,0,1.542,6.006l-3.737,2.159,2.078,3.6,3.762-2.173a19.975,19.975,0,0,0,4.389,4.39l-2.171,3.762,3.6,2.079,2.158-3.739a19.746,19.746,0,0,0,6.009,1.543v4.384h4.157V85.83a19.766,19.766,0,0,0,6.012-1.545l2.159,3.74,3.6-2.079-2.171-3.762a19.986,19.986,0,0,0,4.388-4.389l3.762,2.172,2.079-3.6-3.738-2.158a19.738,19.738,0,0,0,1.543-6.007Zm-24.092,13.681a15.761,15.761,0,1,1,15.762-15.76A15.775,15.775,0,0,1,2354.386,81.883Z" fill="#e5eceb"/>
    </g>
  </g>
</svg>
