<svg xmlns="http://www.w3.org/2000/svg" xmlns:xlink="http://www.w3.org/1999/xlink" width="536.385" height="325.043" viewBox="0 0 536.385 325.043">
  <defs>
    <linearGradient id="linear-gradient" y1="0.5" x2="1" y2="0.5" gradientUnits="objectBoundingBox">
      <stop offset="0" stop-color="#f2e500"/>
      <stop offset="1" stop-color="#72b641"/>
    </linearGradient>
    <linearGradient id="linear-gradient-2" y1="0.5" x2="1" y2="0.5" gradientUnits="objectBoundingBox">
      <stop offset="0" stop-color="#5fc4eb"/>
      <stop offset="1" stop-color="#514896"/>
    </linearGradient>
    <linearGradient id="linear-gradient-3" y1="0.5" x2="1" y2="0.5" gradientUnits="objectBoundingBox">
      <stop offset="0" stop-color="#ffd334"/>
      <stop offset="1" stop-color="#ec6a4a"/>
    </linearGradient>
  </defs>
  <g id="Group_1679" data-name="Group 1679" transform="translate(-645.276 -353.711)">
    <g id="Continuously_Raise_the_Bar" data-name="Continuously Raise the Bar" transform="translate(-0.037 34.884)">
      <line id="Line_22" data-name="Line 22" x1="57.5" transform="translate(1100.313 432.809)" fill="none" stroke="#676767" stroke-width="1"/>
      <path id="Rectangle_297" data-name="Rectangle 297" d="M0,0H395.3a21.919,21.919,0,0,1,21.919,21.919V91.491a21.935,21.935,0,0,1-21.935,21.935H0a0,0,0,0,1,0,0V0A0,0,0,0,1,0,0Z" transform="translate(763.666 319.116)" opacity="0.1" fill="url(#linear-gradient)"/>
      <path id="Path_2013" data-name="Path 2013" d="M777.965,375.051,764.19,385.956v6.913l23-18.209-23-15.238v6.5l13.775,9.126" fill="#f9d71c"/>
      <path id="Path_2014" data-name="Path 2014" d="M764.19,319.405V366.02l13.775,9.126L764.19,386.052v46.835" fill="none" stroke="#676767" stroke-width="1"/>
      <text id="Improvement-focused_aligning_with_Quality_Cost_Delivery_and_Service_framework_they_are_meticulous_and_thorough_in_their_approach_to_work_and_ensure_accuracy_while_getting_the_work_done._They_critically_assess_the_situation_through_a_factual_and_ration" data-name="Improvement-focused (aligning with Quality, Cost, Delivery, and Service framework) they are meticulous and thorough in their approach to work and ensure accuracy while getting the work done. They critically assess the situation through a factual and ration" transform="translate(800.2 349.635)" fill="#4c4c4c" font-size="9" font-family="Roboto-Regular, Roboto"><tspan x="0" y="9">Improvement-focused (aligning with Quality, Cost, Delivery, and Service framework) they </tspan><tspan x="0" y="19.8">are meticulous and thorough in their approach to work and ensure accuracy while getting </tspan><tspan x="0" y="30.6">the work done. They critically assess the situation through a factual and rational approach </tspan><tspan x="0" y="41.4">and are able to break down the problem into tangible parts to identify underlying problem </tspan><tspan x="0" y="52.2">areas. They employ divergent approaches to deal with problem situations and come up </tspan><tspan x="0" y="63" xml:space="preserve">with an effective solutions. They  showcase engagement and go above the call of duty.</tspan></text>
      <text id="Continuously_RAISE_THE_BAR-2" data-name="Continuously RAISE THE BAR" transform="translate(800.217 334.136)" font-size="10.842" font-family="Montserrat-Bold, Montserrat" font-weight="700"><tspan x="0" y="10">CONTINUOUSLY RAISE THE BAR</tspan></text>
      <path id="Path_2019" data-name="Path 2019" d="M648.661,390.149V342.828a23.5,23.5,0,0,1,23.5-23.5H1157.7a23.5,23.5,0,0,1,23.5,23.5v66.479a23.5,23.5,0,0,1-23.5,23.5" fill="none" stroke="#676767" stroke-width="1"/>
      <circle id="Ellipse_13" data-name="Ellipse 13" cx="3.348" cy="3.348" r="3.348" transform="translate(645.313 386.801)" fill="#4c4c4c"/>
      <g id="Group_1649" data-name="Group 1649" transform="translate(680.195 347.297)">
        <path id="Path_13443" data-name="Path 13443" d="M85.783,65.43h-.129q0-9.38,0-18.76c0-1.78-.633-2.407-2.434-2.413-1.551-.006-3.1,0-4.651,0-1.786,0-2.424.628-2.419,2.43q.049,18.8.109,37.6c.005,1.553.723,2.263,2.294,2.274,1.6.012,3.2.008,4.806,0,1.76-.007,2.425-.679,2.426-2.447q0-9.341,0-18.681m-25.76-25.6c-.033.22.6.259.568.325-.092.213-.189.424-.3.628a26.837,26.837,0,0,1-6.54,7.683,36.375,36.375,0,0,1-14.194,7.5,32.007,32.007,0,0,1-7.411,1.079c-.266.006-.526.3-.788.46.166.236.285.546.51.691a5.534,5.534,0,0,0,1.265.573,18.112,18.112,0,0,0,9.107.215,38.649,38.649,0,0,0,12.307-4.69,33.372,33.372,0,0,0,11.18-9.97c.71-1.042.872-1.061,1.722-.1.785.89,1.539,1.809,2.3,2.718.363.434.748.811,1.383.573a1.259,1.259,0,0,0,.825-1.338c.042-3.541.1-7.082.164-10.623.027-1.524.074-3.048.108-4.572a1.933,1.933,0,0,0-2.512-1.87,5.55,5.55,0,0,0-1.05.491q-3.771,2.064-7.536,4.141c-1.762.968-3.534,1.917-5.283,2.906a1.07,1.07,0,0,0-.238,1.891,2.563,2.563,0,0,0,.924.354c1.351.308,3.643,1.249,4.054,1.177m.619,30.154h.133q0,7.02,0,14.039c0,1.586.685,2.27,2.268,2.288,1.6.018,3.206.008,4.808,0,1.762,0,2.42-.665,2.42-2.451,0-2.068-.016-4.136-.024-6.2q-.038-10.665-.075-21.329c-.008-2.007-.571-2.567-2.593-2.572q-2.211-.007-4.421,0c-1.9,0-2.516.612-2.518,2.5q-.006,6.863,0,13.728M46.3,75.041c0,3.076-.006,6.154,0,9.231,0,1.579.7,2.274,2.274,2.285q2.443.018,4.887,0c1.673-.01,2.352-.691,2.359-2.368.009-2.068,0-4.137,0-6.205,0-4.034.008-8.067,0-12.1,0-1.577-.641-2.266-2.168-2.3-1.706-.041-3.413-.038-5.119-.018-1.562.018-2.237.744-2.237,2.324q0,4.577,0,9.153M31.249,79.773c0,1.525-.012,3.05,0,4.574a1.964,1.964,0,0,0,2.205,2.206q2.559.03,5.117,0a1.958,1.958,0,0,0,2.2-2.212q.02-4.458,0-8.917c-.008-1.511-.664-2.2-2.164-2.227-1.756-.033-3.515-.025-5.271.014a1.891,1.891,0,0,0-2.082,2.139c-.014,1.473,0,2.946-.005,4.419" transform="translate(-31.244 -29.029)" fill="#f9d71c" stroke="#686969" stroke-width="1"/>
        <path id="Path_13444" data-name="Path 13444" d="M110.342,73.756q0,9.341,0,18.681c0,1.767-.666,2.44-2.425,2.447-1.6.006-3.2.01-4.806,0-1.57-.011-2.288-.721-2.294-2.274q-.059-18.8-.108-37.6c-.005-1.8.632-2.428,2.418-2.43,1.55,0,3.1,0,4.651,0,1.8.006,2.434.634,2.434,2.413,0,6.253.13,12.737.13,18.991Z" transform="translate(-55.802 -37.355)" fill="#fff" stroke="#686969" stroke-width="1"/>
        <path id="Path_13446" data-name="Path 13446" d="M77.6,83.884q0-6.863,0-13.728c0-1.887.619-2.494,2.518-2.5q2.211,0,4.421,0c2.022.006,2.586.566,2.593,2.573Q87.169,80.9,87.2,91.56c.008,2.069.025,4.137.024,6.2,0,1.785-.657,2.446-2.419,2.451-1.6,0-3.206.014-4.809,0-1.584-.018-2.265-.7-2.268-2.288q-.014-7.02,0-14.038H77.6" transform="translate(-47.631 -42.685)" fill="#fff" stroke="#686969" stroke-width="1"/>
        <path id="Path_13447" data-name="Path 13447" d="M54.525,93.919q0-4.577,0-9.153c0-1.58.675-2.305,2.237-2.324,1.706-.02,3.413-.023,5.119.018,1.527.037,2.164.726,2.168,2.3.011,4.033,0,8.067,0,12.1,0,2.069,0,4.137,0,6.205-.008,1.677-.687,2.358-2.359,2.369q-2.444.014-4.887,0c-1.574-.012-2.269-.707-2.273-2.286-.009-3.077,0-6.154,0-9.231" transform="translate(-39.474 -47.908)" fill="#fff" stroke="#686969" stroke-width="1"/>
        <path id="Path_13448" data-name="Path 13448" d="M31.25,103.919c0-1.473-.012-2.947,0-4.419a1.891,1.891,0,0,1,2.082-2.139c1.756-.039,3.515-.047,5.271-.014,1.5.028,2.155.716,2.164,2.227q.024,4.459,0,8.917a1.957,1.957,0,0,1-2.2,2.212q-2.558.028-5.117,0a1.965,1.965,0,0,1-2.206-2.206c-.016-1.524,0-3.049,0-4.574" transform="translate(-31.244 -53.175)" fill="#fff" stroke="#686969" stroke-width="1"/>
      </g>
    </g>
    <g id="Ensure_Results_with_speed" data-name="Ensure Results with speed" transform="translate(-0.037 34.884)">
      <path id="Rectangle_296" data-name="Rectangle 296" d="M0,0H395.282a21.935,21.935,0,0,1,21.935,21.935V83.143A21.919,21.919,0,0,1,395.3,105.063H0a0,0,0,0,1,0,0V0A0,0,0,0,1,0,0Z" transform="translate(1065.771 538.179) rotate(-180)" opacity="0.1" fill="url(#linear-gradient-2)"/>
      <path id="Path_2011" data-name="Path 2011" d="M1051.408,494.029l13.775,10.906v6.914l-23-18.209,23-15.238v6.5l-13.775,9.126" transform="translate(0 -9.284)" fill="#f9d71c"/>
      <path id="Path_2015" data-name="Path 2015" d="M1065.669,432.808l-.018,43.316-13.757,8.583,13.723,10.949.052,42.631" transform="translate(0 -0.192)" fill="none" stroke="#676767" stroke-width="1"/>
      <path id="Path_2020" data-name="Path 2020" d="M1100.49,432.808H672.162c-12.979,0-23.5,8.862-23.5,19.793V518.7c0,10.931,10.522,19.792,23.5,19.792h37.175" fill="none" stroke="#676767" stroke-width="1"/>
      <text id="The_individual_s_ability_to_be_driven_and_goal_focused_and_in_the_process_ensures_that_they_effectively_handle_and_build_strong_working_relationship_Collaboratively_and_proactively_resolve_problems_drive_to_close_the_gaps_through_effective_learning_and_t" data-name="The individual’s ability to be driven and goal focused and in the process ensures that they effectively handle and build strong working relationship, Collaboratively and proactively resolve problems, drive to close the gaps through effective learning and t" transform="translate(665.357 463.172)" fill="#4c4c4c" font-size="9" font-family="Roboto-Regular, Roboto"><tspan x="0" y="9">The individual’s ability to be driven and goal focused and in the process ensures that they </tspan><tspan x="0" y="19.8">effectively handle and build strong working relationship, Collaboratively and proactively </tspan><tspan x="0" y="30.6">resolve problems, drive to close the gaps through effective learning and training. They are </tspan><tspan x="0" y="41.4">open to feedback and are adept in effectively managing time and deflect any unnecessary </tspan><tspan x="0" y="52.2">distraction, hence effectively achieving the desired results.</tspan></text>
      <text id="Ensure_Results_With_Speed-2" data-name="Ensure Results With Speed" transform="translate(831.243 447.674)" font-size="10.842" font-family="Montserrat-Bold, Montserrat" font-weight="700"><tspan x="20" y="10">ENSURE RESULTS WITH SPEED</tspan></text>
      <line id="Line_21" data-name="Line 21" x2="449.328" transform="translate(709.313 538.489)" fill="none" stroke="#676767" stroke-width="1"/>
      <g id="Group_1659" data-name="Group 1659" transform="translate(1092.302 461.116)">
        <path id="Path_13462" data-name="Path 13462" d="M71.547,3.5c-.1.8-.184,1.609-.29,2.412a40.792,40.792,0,0,1-5.2,15.007A41.234,41.234,0,0,1,58.1,30.977a1.566,1.566,0,0,0-.522,1.193A28.437,28.437,0,0,1,50.29,49.994c-.315.357-.643.706-.988,1.034a1.145,1.145,0,0,1-1.263.3,1.174,1.174,0,0,1-.774-1.04c-.391-2.8-.8-5.591-1.215-8.518-.364.323-.67.593-.974.864a1.223,1.223,0,0,1-2.009-.061Q36.018,35.53,28.973,28.482a1.22,1.22,0,0,1-.057-2.008l.861-.969c-1.388-.2-2.671-.4-3.955-.579-1.555-.223-3.111-.436-4.666-.658a1.122,1.122,0,0,1-.99-.77,1.153,1.153,0,0,1,.347-1.251A28.056,28.056,0,0,1,33.94,14.763a49.748,49.748,0,0,1,5.438-.787A1.816,1.816,0,0,0,40.6,13.4,42.677,42.677,0,0,1,62.263.938c1.8-.424,3.656-.571,5.486-.848.136-.021.27-.06.4-.09H70.7l.848.848Zm-27.341,36.9c.631-.579,1.287-1.194,1.958-1.792,3.429-3.054,6.93-6.03,10.279-9.169A39.851,39.851,0,0,0,69.067,5.295c.138-.985.158-1.987.246-3.159-1.981.262-3.854.389-5.673.771a39.636,39.636,0,0,0-20.563,11.21c-2.952,3.011-5.666,6.256-8.484,9.4-1.155,1.287-2.3,2.581-3.423,3.84l13.037,13.04M23.825,22.359c2.513.361,4.956.721,7.4,1.05a.832.832,0,0,0,.625-.241c1.954-2.162,3.889-4.341,5.826-6.518a2.66,2.66,0,0,0,.2-.3,25.829,25.829,0,0,0-14.051,6M49.192,47.743c2.984-3.126,6.308-11.036,5.938-14.067-.118.1-.226.186-.329.278-1.792,1.6-3.536,3.256-5.4,4.772-1,.818-1.584,1.629-1.086,2.927a.5.5,0,0,1,.011.105l.862,5.984" transform="translate(-17.789)" fill="#fff" stroke="#686867" stroke-width="1"/>
        <path id="Path_13463" data-name="Path 13463" d="M0,269.569c.373-1.112.738-2.228,1.122-3.336a49.755,49.755,0,0,1,3-7.281A5.66,5.66,0,0,1,14.73,261.66a5.337,5.337,0,0,1-2.794,4.924,34.806,34.806,0,0,1-5.885,2.545c-1.5.529-3.024,1.007-4.536,1.511a3.178,3.178,0,0,0-.306.138H0v-1.209m2.305-1.089" transform="translate(0 -217.02)" fill="#f9d71c" stroke="#686867" stroke-width="1"/>
        <path id="Path_13464" data-name="Path 13464" d="M378.691.691,378,0h.691Z" transform="translate(-324.933)" fill="#fff" stroke="#686867" stroke-width="1"/>
        <path id="Path_13469" data-name="Path 13469" d="M243.331,74.448a4.608,4.608,0,1,1-4.634-4.591,4.629,4.629,0,0,1,4.634,4.591m-1.852.021" transform="translate(-199.811 -59.62)" fill="#f9d71c" stroke="#686867" stroke-width="1"/>
      </g>
    </g>
    <g id="Customer_Orientation" data-name="Customer Orientation" transform="translate(-0.037 15.081)">
      <path id="Rectangle_295" data-name="Rectangle 295" d="M0,0H395.3a21.919,21.919,0,0,1,21.919,21.919V82.984a21.935,21.935,0,0,1-21.935,21.935H0a0,0,0,0,1,0,0V0A0,0,0,0,1,0,0Z" transform="translate(763.666 558.056)" opacity="0.1" fill="url(#linear-gradient-3)"/>
      <g id="Group_480" data-name="Group 480">
        <path id="Path_2016" data-name="Path 2016" d="M777.965,612.7,764.19,623.6v6.914l23-18.209-23-15.238v6.5l13.775,9.126" fill="#f9d71c"/>
        <path id="Path_2017" data-name="Path 2017" d="M764.19,558v45.615l13.775,9.126L764.19,623.648v38.835" fill="none" stroke="#676767" stroke-width="1"/>
      </g>
      <text id="The_individuals_ability_to_accountable_and_demonstrates_strong_skillsets_in_effectively_empathizing_and_managing_relationship_with_both_external_and_external_customers_stakeholders._The_ability_to_build_authentic_and_effective_relationship_with_your_custom" data-name="The individuals ability to accountable and demonstrates strong skillsets in effectively empathizing and managing relationship with both external and external customers/stakeholders. The ability to build authentic and effective relationship with your custom" transform="translate(800.2 588.635)" fill="#4c4c4c" font-size="9" font-family="Roboto-Regular, Roboto"><tspan x="0" y="9">The individuals ability to accountable and demonstrates strong skillsets in effectively </tspan><tspan x="0" y="19.8">empathizing and managing relationship with both external and external customers/</tspan><tspan x="0" y="30.6">stakeholders. The ability to build authentic and effective relationship with your customer/</tspan><tspan x="0" y="41.4">clients/stakeholders, over time and consistently, and delighting them by exceeding their </tspan><tspan x="0" y="52.2">expectations.</tspan></text>
      <text id="Customer_Orientation-2" data-name="Customer Orientation" transform="translate(800.217 573.136)" font-size="10.842" font-family="Montserrat-Bold, Montserrat" font-weight="700"><tspan x="0" y="10">CUSTOMER ORIENTATION</tspan></text>
      <path id="Path_2021" data-name="Path 2021" d="M1157.7,558.29a23.407,23.407,0,0,1,23.5,23.312v58.01a23.407,23.407,0,0,1-23.5,23.312" fill="none" stroke="#676767" stroke-width="1"/>
      <line id="Line_23" data-name="Line 23" x1="394.276" transform="translate(763.693 662.922)" fill="none" stroke="#676767" stroke-width="1"/>
      <g id="Group_1656" data-name="Group 1656" transform="translate(683.888 584.466)">
        <path id="Path_13452" data-name="Path 13452" d="M5.389,172.158a1.748,1.748,0,0,1-1-1.846c.062-2.135-.066-4.284.113-6.407a22.437,22.437,0,0,1,9.957-17.4,21.418,21.418,0,0,1,15.584-3.595,22.543,22.543,0,0,1,18.794,17.823,25.456,25.456,0,0,1,.537,5.362c-.011,1.4-.035,2.811.01,4.214a1.743,1.743,0,0,1-1,1.846H46.134q0-3.114,0-6.228a20.013,20.013,0,0,0-3.685-11.739A18.984,18.984,0,0,0,21.1,146.875,19.6,19.6,0,0,0,7.639,165.563c-.013,2.2,0,4.4,0,6.595Z" transform="translate(-4.387 -125.243)" fill="#fff" stroke="#686867" stroke-width="1"/>
        <path id="Path_13453" data-name="Path 13453" d="M86.743,215.577H83.526c0-2.3.007-4.609-.006-6.913a10.887,10.887,0,0,0-.119-1.55A13.269,13.269,0,0,0,68.283,195.6a13.475,13.475,0,0,0-11.2,13.068c-.025,2.3,0,4.609,0,6.913H53.867c0-2.152-.052-4.306.019-6.456a21.455,21.455,0,0,1,.443-3.987,16.362,16.362,0,0,1,19.449-12.6,16.7,16.7,0,0,1,12.964,16.636q0,3.205,0,6.411" transform="translate(-47.806 -168.662)" fill="#fff" stroke="#686867" stroke-width="1"/>
        <path id="Path_13457" data-name="Path 13457" d="M103.47,259c0-2.213-.014-4.426,0-6.639a10.813,10.813,0,0,1,21.624-.092c.02,2.244,0,4.487,0,6.731h-3.3c0-2.258.022-4.517,0-6.775a7.514,7.514,0,0,0-14.945-.91,6.948,6.948,0,0,0-.079.91c-.006,2.258,0,4.517,0,6.775Z" transform="translate(-91.785 -212.084)" fill="#fff" stroke="#686867" stroke-width="1"/>
        <path id="Path_13458" data-name="Path 13458" d="M142.8,7.211a7.133,7.133,0,0,1,4.93,2.783,7.708,7.708,0,0,1,1.343,5.608,26.1,26.1,0,0,0-13.7-.005,7.09,7.09,0,0,1,6.293-8.4C140.487,6.955,144.484,6.794,142.8,7.211Z" transform="translate(-119.696)" fill="#fff" stroke="#686867" stroke-width="1"/>
        <path id="Path_13459" data-name="Path 13459" d="M31.357,43.28c-2.57.335,2.9-2.451,1.127-.673a7.094,7.094,0,0,1,5.1-.274,14.57,14.57,0,0,0-.457,2.008c-.1,1.183-.108,2.375-.137,3.563a.475.475,0,0,1-.315.523,25.143,25.143,0,0,0-6.843,4.263.377.377,0,0,1-.081.042,6.893,6.893,0,0,1,1.608-9.453" transform="translate(-23.723 -31.726)" fill="#fff" stroke="#686867" stroke-width="1"/>
        <path id="Path_13460" data-name="Path 13460" d="M274.071,52.765a25.6,25.6,0,0,0-5.158-3.522,12.75,12.75,0,0,0-1.573-.734c-.444-.156-.54-.4-.542-.841,0-1.127-.03-2.258-.134-3.38a14.525,14.525,0,0,0-.455-1.962,7.039,7.039,0,0,1,5.1.262c-.737-.739,3.519,1.06,1.072.659a7.012,7.012,0,0,1,2.773,4.442,6.818,6.818,0,0,1-1.085,5.076" transform="translate(-235.072 -31.711)" fill="#fff" stroke="#686867" stroke-width="1"/>
        <g id="Ellipse_103" data-name="Ellipse 103" transform="translate(1.847 3.453)" fill="#f9d61b" stroke="#686867" stroke-width="1">
          <circle cx="4.5" cy="4.5" r="4.5" stroke="none"/>
          <circle cx="4.5" cy="4.5" r="4" fill="none"/>
        </g>
        <g id="Ellipse_104" data-name="Ellipse 104" transform="translate(17.847 -0.547)" fill="#f9d61b" stroke="#686867" stroke-width="1">
          <circle cx="4.5" cy="4.5" r="4.5" stroke="none"/>
          <circle cx="4.5" cy="4.5" r="4" fill="none"/>
        </g>
        <g id="Ellipse_105" data-name="Ellipse 105" transform="translate(34.847 4.453)" fill="#f9d61b" stroke="#686867" stroke-width="1">
          <circle cx="4.5" cy="4.5" r="4.5" stroke="none"/>
          <circle cx="4.5" cy="4.5" r="4" fill="none"/>
        </g>
      </g>
      <g id="Group_481" data-name="Group 481" transform="translate(645.385 599.844)">
        <path id="Path_2026" data-name="Path 2026" d="M1154.348,733.753a23.5,23.5,0,0,0,23.5,23.5" transform="translate(-1151 -693.925)" fill="none" stroke="#676767" stroke-width="1"/>
        <line id="Line_25" data-name="Line 25" y2="36.479" transform="translate(3.348 3.348)" fill="none" stroke="#676767" stroke-width="1"/>
        <circle id="Ellipse_14" data-name="Ellipse 14" cx="3.348" cy="3.348" r="3.348" transform="translate(0 0)" fill="#4c4c4c"/>
        <path id="Path_13473" data-name="Path 13473" d="M.473.5,93.193.247" transform="translate(25.928 62.827)" fill="none" stroke="#676767" stroke-width="1"/>
      </g>
    </g>
  </g>
</svg>
