<svg xmlns="http://www.w3.org/2000/svg" width="15.743" height="10.5" viewBox="0 0 15.743 10.5">
  <path id="Icon_ionic-ios-arrow-round-forward" data-name="Icon ionic-ios-arrow-round-forward" d="M17.915,11.453a.715.715,0,0,0-.005,1.006l3.325,3.33H8.58a.711.711,0,0,0,0,1.422H21.229L17.9,20.541a.72.72,0,0,0,.005,1.006.708.708,0,0,0,1-.005L23.416,17h0a.8.8,0,0,0,.148-.224.678.678,0,0,0,.055-.273.713.713,0,0,0-.2-.5L18.91,11.469A.7.7,0,0,0,17.915,11.453Z" transform="translate(-7.875 -11.252)" fill="#fff"/>
</svg>
