<svg id="Group_20304" data-name="Group 20304" xmlns="http://www.w3.org/2000/svg" xmlns:xlink="http://www.w3.org/1999/xlink" width="278.552" height="148.002" viewBox="0 0 278.552 148.002">
  <defs>
    <clipPath id="clip-path">
      <path id="Path_28770" data-name="Path 28770" d="M0,0H278.552V148H0Z" fill="none"/>
    </clipPath>
    <clipPath id="clip-path-2">
      <rect id="Rectangle_7068" data-name="Rectangle 7068" width="278.552" height="148.001" fill="none"/>
    </clipPath>
    <clipPath id="clip-path-3">
      <rect id="Rectangle_7067" data-name="Rectangle 7067" width="37.158" height="21.239" fill="none"/>
    </clipPath>
    <clipPath id="clip-path-4">
      <path id="Path_28680" data-name="Path 28680" d="M2201.04,1181.857l.239,23.9-1.258.6a7.592,7.592,0,0,0,7.1,1.324l2.432-25.827Z" transform="translate(-2200.022 -1181.857)" fill="none"/>
    </clipPath>
    <clipPath id="clip-path-6">
      <path id="Path_28687" data-name="Path 28687" d="M2343.027,1129.974l8.872,22.194-.955,1.016a7.592,7.592,0,0,0,7.1-1.334l-7.079-24.957Z" transform="translate(-2343.027 -1126.894)" fill="none"/>
    </clipPath>
    <clipPath id="clip-path-8">
      <path id="Path_28696" data-name="Path 28696" d="M2230.926,460.991c0,2.71,1.412,4.906,3.154,4.906v3.65l4.025.013-.614-3.362a15.691,15.691,0,0,1-.256-2.823v-2.163a.568.568,0,0,0,.1.029c.444.083.9-.372,1.023-1.017s-.14-1.235-.584-1.318a.778.778,0,0,0-.738.358c-.449-1.858-1.6-3.18-2.953-3.18-1.742,0-3.154,2.2-3.154,4.906" transform="translate(-2230.926 -456.085)" fill="none"/>
    </clipPath>
    <clipPath id="clip-path-10">
      <path id="Path_28702" data-name="Path 28702" d="M1925.312,595.784l-19.769,2.487.586,3.112s19.127,1.132,21.54,1.132,9.808-6.462,9.808-6.462l.618-8.424Z" transform="translate(-1905.543 -587.628)" fill="none"/>
    </clipPath>
    <clipPath id="clip-path-12">
      <path id="Path_28706" data-name="Path 28706" d="M2190.8,575.9a5.159,5.159,0,0,0-5.128,4.593l-2.377,24.138,21.9-2.618-3.575-21.789a5.159,5.159,0,0,0-5.091-4.324Z" transform="translate(-2183.297 -575.899)" fill="none"/>
    </clipPath>
    <clipPath id="clip-path-14">
      <path id="Path_28711" data-name="Path 28711" d="M2143.2,590.755l-16.094,3.141a20.2,20.2,0,0,0-3.493-.795c-1.042-.08-1.968,1.2-2.43,1.969a.439.439,0,0,0,.319.659,48.807,48.807,0,0,0,5.263.485s21.146,1.606,23.336-.408c1.791-1.647-.219-6.512-.219-6.512l-3.449-9.219a6.43,6.43,0,0,0-5.941-4.176h0s2.043,12.448,2.712,14.856" transform="translate(-2121.122 -575.899)" fill="none"/>
    </clipPath>
    <clipPath id="clip-path-16">
      <path id="Path_28716" data-name="Path 28716" d="M599.013,1366.965l.126,6.886H606.6v-6.886Z" transform="translate(-599.013 -1366.965)" fill="none"/>
    </clipPath>
    <clipPath id="clip-path-18">
      <path id="Path_28731" data-name="Path 28731" d="M680.684,377.467c-2.113.487-3.211,3.547-2.453,6.834l.667,2.892a19.561,19.561,0,0,1,.479,3.5l.2,4.25,4.878-1.142-1.021-4.428c2.113-.487,3.211-3.547,2.453-6.834-.689-2.987-2.675-5.134-4.617-5.135a2.576,2.576,0,0,0-.581.066" transform="translate(-677.991 -377.401)" fill="none"/>
    </clipPath>
    <clipPath id="clip-path-20">
      <path id="Path_28748" data-name="Path 28748" d="M659.162,1310.5l4.522,14.488a.5.5,0,0,0,.936.051l6.056-13.917.174-3.213-11.513-.622Z" transform="translate(-659.162 -1307.288)" fill="none"/>
    </clipPath>
    <clipPath id="clip-path-22">
      <path id="Path_28766" data-name="Path 28766" d="M2612.073,1352.249l1.453,12.809a.972.972,0,0,0,.966.862h9.1a.972.972,0,0,0,.968-.882l1.184-12.789Z" transform="translate(-2612.073 -1352.249)" fill="none"/>
    </clipPath>
  </defs>
  <g id="Mask_Group_9" data-name="Mask Group 9" clip-path="url(#clip-path)">
    <g id="Group_20262" data-name="Group 20262" transform="translate(0 0)">
      <g id="Group_20261" data-name="Group 20261" clip-path="url(#clip-path-2)">
        <path id="Path_28665" data-name="Path 28665" d="M140.149,786.011a10.719,10.719,0,1,1,10.719-10.719,10.731,10.731,0,0,1-10.719,10.719m18.7-13.648h-2.92a15.865,15.865,0,0,0-2.552-6.162l2.065-2.065a.666.666,0,0,0,0-.941l-3.2-3.2a.666.666,0,0,0-.941,0l-2.065,2.065a15.861,15.861,0,0,0-6.162-2.552v-2.92a.666.666,0,0,0-.666-.666h-4.526a.666.666,0,0,0-.666.666v2.92a15.861,15.861,0,0,0-6.162,2.552L128.994,760a.666.666,0,0,0-.941,0l-3.2,3.2a.666.666,0,0,0,0,.941l2.065,2.065a15.868,15.868,0,0,0-2.552,6.162h-2.92a.666.666,0,0,0-.666.666v4.526a.666.666,0,0,0,.666.666h2.92a15.867,15.867,0,0,0,2.552,6.162l-2.065,2.065a.666.666,0,0,0,0,.941l3.2,3.2a.666.666,0,0,0,.941,0l2.065-2.065a15.864,15.864,0,0,0,6.162,2.552V794a.666.666,0,0,0,.666.666h4.526a.666.666,0,0,0,.666-.666v-2.92a15.863,15.863,0,0,0,6.162-2.552l2.065,2.065a.666.666,0,0,0,.941,0l3.2-3.2a.666.666,0,0,0,0-.941l-2.065-2.065a15.864,15.864,0,0,0,2.552-6.162h2.92a.666.666,0,0,0,.666-.666v-4.526a.666.666,0,0,0-.666-.666" transform="translate(-108.861 -681.333)" fill="#eaab81"/>
        <path id="Path_28666" data-name="Path 28666" d="M273.549,903.341a5.352,5.352,0,1,1-5.352-5.352,5.352,5.352,0,0,1,5.352,5.352" transform="translate(-236.91 -809.382)" fill="#eaab81"/>
        <path id="Path_28667" data-name="Path 28667" d="M1216.851,1060.857v17.327h-17.327a17.327,17.327,0,1,0,17.327-17.327" transform="translate(-1081.163 -956.179)" fill="#eaab81"/>
        <path id="Path_28668" data-name="Path 28668" d="M1193.348,1039.1a17.327,17.327,0,0,0-17.327,17.327h17.327Z" transform="translate(-1059.979 -936.566)" fill="#fe6d60"/>
        <path id="Path_28669" data-name="Path 28669" d="M971.5,345.9H866.577a7.089,7.089,0,0,1-7.089-7.089v-54.23a7.089,7.089,0,0,1,7.089-7.089H971.5a7.089,7.089,0,0,1,7.089,7.089v54.23A7.089,7.089,0,0,1,971.5,345.9" transform="translate(-774.679 -250.11)" fill="#d1d1d1"/>
        <path id="Path_28670" data-name="Path 28670" d="M868.793,202.44H755.266a6.5,6.5,0,0,1-6.5-6.5V128.68a6.5,6.5,0,0,1,6.5-6.5H868.793a6.5,6.5,0,0,1,6.5,6.5v67.262a6.5,6.5,0,0,1-6.5,6.5" transform="translate(-674.885 -110.127)" fill="#fff"/>
        <rect id="Rectangle_7054" data-name="Rectangle 7054" width="126.522" height="0.208" transform="translate(73.884 22.044)" fill="#373660"/>
        <path id="Path_28671" data-name="Path 28671" d="M820.524,162.616a1.734,1.734,0,1,1-1.734-1.734,1.734,1.734,0,0,1,1.734,1.734" transform="translate(-736.433 -145.008)" fill="#373660"/>
        <path id="Path_28672" data-name="Path 28672" d="M883.162,162.616a1.734,1.734,0,1,1-1.734-1.734,1.734,1.734,0,0,1,1.734,1.734" transform="translate(-792.891 -145.008)" fill="#fe6d60"/>
        <path id="Path_28673" data-name="Path 28673" d="M945.8,162.616a1.734,1.734,0,1,1-1.734-1.734,1.734,1.734,0,0,1,1.734,1.734" transform="translate(-849.348 -145.008)" fill="#fff"/>
        <rect id="Rectangle_7055" data-name="Rectangle 7055" width="14.223" height="14.223" transform="translate(130.134 37.239)" fill="#f2f2f2"/>
        <rect id="Rectangle_7056" data-name="Rectangle 7056" width="40.98" height="2.354" transform="translate(148.02 37.239)" fill="#f2f2f2"/>
        <rect id="Rectangle_7057" data-name="Rectangle 7057" width="40.98" height="2.354" transform="translate(148.02 43.173)" fill="#f2f2f2"/>
        <rect id="Rectangle_7058" data-name="Rectangle 7058" width="24.212" height="2.354" transform="translate(148.02 49.108)" fill="#f2f2f2"/>
        <path id="Path_28674" data-name="Path 28674" d="M1328.623,353.075l9.736-9.736,2.682,2.682-9.736,9.736-2.682,2.682-2.682-2.682-3.716-3.716,2.682-2.682Z" transform="translate(-1191.757 -309.461)" fill="#fe6d60"/>
        <rect id="Rectangle_7059" data-name="Rectangle 7059" width="14.223" height="14.223" transform="translate(130.134 60.407)" fill="#f2f2f2"/>
        <rect id="Rectangle_7060" data-name="Rectangle 7060" width="40.98" height="2.354" transform="translate(148.02 60.407)" fill="#f2f2f2"/>
        <rect id="Rectangle_7061" data-name="Rectangle 7061" width="40.98" height="2.354" transform="translate(148.02 66.341)" fill="#f2f2f2"/>
        <rect id="Rectangle_7062" data-name="Rectangle 7062" width="24.212" height="2.354" transform="translate(148.02 72.276)" fill="#f2f2f2"/>
        <path id="Path_28675" data-name="Path 28675" d="M1328.623,584.458l9.736-9.736,2.682,2.682-9.736,9.736-2.682,2.682-2.682-2.682-3.716-3.716,2.682-2.682Z" transform="translate(-1191.757 -518.012)" fill="#fe6d60"/>
        <rect id="Rectangle_7063" data-name="Rectangle 7063" width="8.098" height="8.098" transform="translate(130.134 79.025)" fill="#e63e36"/>
        <rect id="Rectangle_7064" data-name="Rectangle 7064" width="8.098" height="8.098" transform="translate(141.481 79.025)" fill="#fe6d60"/>
        <rect id="Rectangle_7065" data-name="Rectangle 7065" width="8.098" height="8.098" transform="translate(152.827 79.025)" fill="#d1d1d1"/>
        <rect id="Rectangle_7066" data-name="Rectangle 7066" width="8.098" height="8.098" transform="translate(164.173 79.025)" fill="#f2f2f2"/>
        <path id="Path_28676" data-name="Path 28676" d="M914.386,414.494H882.9a3.21,3.21,0,0,1-3.21-3.21V368.158a3.21,3.21,0,0,1,3.21-3.21h31.484a3.21,3.21,0,0,1,3.21,3.21v43.126a3.21,3.21,0,0,1-3.21,3.21" transform="translate(-792.891 -328.938)" fill="#f2f2f2"/>
        <g id="Group_20260" data-name="Group 20260" transform="translate(155.784 48.979)" opacity="0.57">
          <g id="Group_20259" data-name="Group 20259">
            <g id="Group_20258" data-name="Group 20258" clip-path="url(#clip-path-3)">
              <path id="Path_28677" data-name="Path 28677" d="M1578.892,496.377s-2.5,16.447,15.69,20.867c0,0,13.191,3.041,21.352-8.261L1612.8,507s-6.444,7.329-15.878,6.806-17.448-12.892-18.033-17.426" transform="translate(-1578.777 -496.377)" fill="#d1d1d1"/>
            </g>
          </g>
        </g>
        <path id="Path_28678" data-name="Path 28678" d="M2201.041,1181.857l.239,23.9-1.258.6a7.592,7.592,0,0,0,7.1,1.324l2.432-25.827Z" transform="translate(-1982.938 -1065.239)" fill="#ffd1c1"/>
      </g>
    </g>
    <g id="Group_20264" data-name="Group 20264" transform="translate(217.084 116.618)">
      <g id="Group_20263" data-name="Group 20263" clip-path="url(#clip-path-4)">
        <path id="Path_28679" data-name="Path 28679" d="M2182.243,1157.731s13.414-1.941,13.846-3.6l-.361-5.193-13.384,1.082Z" transform="translate(-2183.997 -1152.187)" fill="#ffb2a0"/>
      </g>
    </g>
    <g id="Group_20266" data-name="Group 20266" transform="translate(0 0)">
      <g id="Group_20265" data-name="Group 20265" clip-path="url(#clip-path-2)">
        <path id="Path_28681" data-name="Path 28681" d="M2133.805,1431.272v3.721h-15.083a2.774,2.774,0,0,1,1.753-2.579l6.232-2.467a7.808,7.808,0,0,0,7.1,1.324" transform="translate(-1909.661 -1288.85)" fill="#4f5285"/>
        <path id="Path_28682" data-name="Path 28682" d="M2184.133,1432.961l.509,1.029a.443.443,0,0,1-.787.406l-.587-1.092Z" transform="translate(-1967.837 -1291.566)" fill="#373660"/>
        <path id="Path_28683" data-name="Path 28683" d="M2168.719,1439.09l.509,1.029a.443.443,0,0,1-.787.406l-.587-1.092Z" transform="translate(-1953.944 -1297.09)" fill="#373660"/>
        <path id="Path_28684" data-name="Path 28684" d="M2151.292,1445.979l.509,1.029a.443.443,0,0,1-.787.406l-.587-1.092Z" transform="translate(-1938.236 -1303.299)" fill="#373660"/>
        <rect id="Rectangle_7069" data-name="Rectangle 7069" width="15.082" height="1.119" transform="translate(209.062 146.144)" fill="#373660"/>
        <path id="Path_28685" data-name="Path 28685" d="M2343.027,1129.975l8.872,22.194-.955,1.016a7.592,7.592,0,0,0,7.1-1.334l-7.079-24.957Z" transform="translate(-2111.832 -1015.701)" fill="#ffd1c1"/>
      </g>
    </g>
    <g id="Group_20268" data-name="Group 20268" transform="translate(231.195 111.195)">
      <g id="Group_20267" data-name="Group 20267" clip-path="url(#clip-path-6)">
        <path id="Path_28686" data-name="Path 28686" d="M2329.239,1122.963c.006.016,5.986-2.326,7.9-3.778l-1.217-4.477-9.956,3.143Z" transform="translate(-2327.651 -1115.911)" fill="#ffb2a0"/>
      </g>
    </g>
    <g id="Group_20270" data-name="Group 20270" transform="translate(0 0)">
      <g id="Group_20269" data-name="Group 20269" clip-path="url(#clip-path-2)">
        <path id="Path_28688" data-name="Path 28688" d="M2376.9,1379.739l1.347,3.469-14.06,5.458a2.774,2.774,0,0,1,.7-3.039l4.917-4.555a7.809,7.809,0,0,0,7.1-1.334" transform="translate(-2130.731 -1243.596)" fill="#4f5285"/>
        <path id="Path_28689" data-name="Path 28689" d="M2410.594,1398.818l.847.775a.442.442,0,0,1-.586.663l-.943-.806Z" transform="translate(-2172.117 -1260.792)" fill="#373660"/>
        <path id="Path_28690" data-name="Path 28690" d="M2398.443,1410.11l.847.775a.442.442,0,0,1-.586.663l-.943-.806Z" transform="translate(-2161.164 -1270.97)" fill="#373660"/>
        <path id="Path_28691" data-name="Path 28691" d="M2384.69,1422.839l.847.775a.442.442,0,0,1-.586.663l-.943-.806Z" transform="translate(-2148.768 -1282.443)" fill="#373660"/>
        <rect id="Rectangle_7071" data-name="Rectangle 7071" width="15.082" height="1.119" transform="translate(233.452 145.07) rotate(-21.213)" fill="#373660"/>
        <path id="Path_28692" data-name="Path 28692" d="M2182.375,844.26s-1.966,15.589-1.1,21.129,1.383,11.08,1.383,11.08,15.885.386,30.36-6.571c0,0-9.429-16.1-9.845-16.62s-1.132-11.369-1.132-11.369Z" transform="translate(-1965.842 -758.835)" fill="#373660"/>
        <path id="Path_28693" data-name="Path 28693" d="M2221.46,453.331a3.358,3.358,0,0,0-3.225,1.821c-.732,1.4.582,4.29,1.359,6.231a3,3,0,0,0,3.57,1.8,2.426,2.426,0,0,0,.306-.107Z" transform="translate(-1999.161 -408.591)" fill="#373660"/>
        <path id="Path_28694" data-name="Path 28694" d="M2237.332,461.242c.444.083.9-.372,1.023-1.017s-.14-1.235-.584-1.319a.778.778,0,0,0-.738.358c-.449-1.858-1.6-3.18-2.953-3.18-1.742,0-3.154,2.2-3.154,4.906s1.412,4.906,3.154,4.906v3.65l4.025.013-.614-3.362a15.69,15.69,0,0,1-.256-2.824v-2.162a.576.576,0,0,0,.1.029" transform="translate(-2010.792 -411.082)" fill="#ffd1c1"/>
      </g>
    </g>
    <g id="Group_20272" data-name="Group 20272" transform="translate(220.134 45.004)">
      <g id="Group_20271" data-name="Group 20271" clip-path="url(#clip-path-8)">
        <path id="Path_28695" data-name="Path 28695" d="M2230.953,452.51s.389,3.043-1.244,4.26c-1.336,1-3.633.463-3.633.463s1.239-4.725,2.252-5.029a5.224,5.224,0,0,1,2.625.307" transform="translate(-2226.554 -452.51)" fill="#ffb2a0"/>
      </g>
    </g>
    <g id="Group_20274" data-name="Group 20274" transform="translate(0 0)">
      <g id="Group_20273" data-name="Group 20273" clip-path="url(#clip-path-2)">
        <path id="Path_28697" data-name="Path 28697" d="M2262.892,538.528a3.036,3.036,0,0,0,2.045-1.862s-.256,2.335-2.045,2.483Z" transform="translate(-2039.604 -483.712)" fill="#ffb2a0"/>
        <path id="Path_28698" data-name="Path 28698" d="M2248.721,444.428s-.555,3.433,4.261,2.737c0,0,.7-.787,1.2,0a1.335,1.335,0,0,1-1,1.944,21.715,21.715,0,0,0,.333,5.41,12.114,12.114,0,0,1,1.383-2.791,5.8,5.8,0,0,0-.081-6.612,5.58,5.58,0,0,0-2.744-2.023c-4.355-1.5-3.354,1.33-3.354,1.33" transform="translate(-2026.742 -398.982)" fill="#373660"/>
        <path id="Path_28699" data-name="Path 28699" d="M2294.259,427.374s.329-3.471,4.812-2.739.426,11.243,5.015,14.159c0,0-7.778.6-7.445-5.983l.5-4.08a1.012,1.012,0,0,0-1.18-1.119l-.941.166Z" transform="translate(-2067.876 -382.644)" fill="#373660"/>
        <path id="Path_28700" data-name="Path 28700" d="M1938.095,587.628l-12.783,8.156-19.769,2.487.586,3.112s19.127,1.132,21.54,1.132,9.808-6.462,9.808-6.462Z" transform="translate(-1717.516 -529.645)" fill="#ffd1c1"/>
      </g>
    </g>
    <g id="Group_20276" data-name="Group 20276" transform="translate(188.027 57.983)">
      <g id="Group_20275" data-name="Group 20275" clip-path="url(#clip-path-10)">
        <path id="Path_28701" data-name="Path 28701" d="M1961.66,646.286s13.984-1.209,15.306-1.714,9.667-7.445,9.667-7.445l.286,7.746s-7.76,4.114-10.88,3.968-14.379-2.556-14.379-2.556" transform="translate(-1956.123 -632.244)" fill="#ffb2a0"/>
      </g>
    </g>
    <g id="Group_20278" data-name="Group 20278" transform="translate(0 0)">
      <g id="Group_20277" data-name="Group 20277" clip-path="url(#clip-path-2)">
        <path id="Path_28703" data-name="Path 28703" d="M1842.379,686.058a26.609,26.609,0,0,0-4.088-1.032c-.357.139,1.665,1.209,1.367,1.328s-4.812,1.249-4.844,1.546.8,2.607,2.525,2.552a22.71,22.71,0,0,0,5.039-1.293Z" transform="translate(-1653.766 -617.422)" fill="#ffd1c1"/>
        <path id="Path_28704" data-name="Path 28704" d="M2183.3,604.629l2.377-24.138a5.159,5.159,0,0,1,5.128-4.593h5.727a5.159,5.159,0,0,1,5.091,4.324l3.575,21.789Z" transform="translate(-1967.862 -519.073)" fill="#fe6d60"/>
      </g>
    </g>
    <g id="Group_20280" data-name="Group 20280" transform="translate(215.434 56.826)">
      <g id="Group_20279" data-name="Group 20279" clip-path="url(#clip-path-12)">
        <path id="Path_28705" data-name="Path 28705" d="M2178.588,651.988s3.172,16.4,17.887,16.006h3.378l.784,3.483-23.74,2.871Z" transform="translate(-2177.529 -644.48)" fill="#e63e36"/>
      </g>
    </g>
    <g id="Group_20282" data-name="Group 20282" transform="translate(0 0)">
      <g id="Group_20281" data-name="Group 20281" clip-path="url(#clip-path-2)">
        <path id="Path_28707" data-name="Path 28707" d="M1615.328,308.649a19.857,19.857,0,1,1,3.2-14.856,19.727,19.727,0,0,1-3.2,14.856m-31.033-21.467a17.878,17.878,0,1,0,11.5-7.418,17.76,17.76,0,0,0-11.5,7.418" transform="translate(-1423.316 -250.11)" fill="#4f5285"/>
        <path id="Path_28708" data-name="Path 28708" d="M1974.953,596.945l-2.344,3.388a2.069,2.069,0,0,1-2.879.525l-38.512-26.641a2.069,2.069,0,0,1-.524-2.879l2.344-3.388a2.069,2.069,0,0,1,2.879-.525l38.512,26.641a2.069,2.069,0,0,1,.525,2.879" transform="translate(-1739.853 -511.105)" fill="#4f5285"/>
        <path id="Path_28709" data-name="Path 28709" d="M2149.885,589.294l-3.449-9.219a6.43,6.43,0,0,0-5.941-4.176h0s2.043,12.448,2.712,14.856l-16.094,3.141a20.207,20.207,0,0,0-3.494-.795c-1.042-.08-1.968,1.2-2.43,1.969a.439.439,0,0,0,.32.659,48.818,48.818,0,0,0,5.262.485s21.146,1.606,23.336-.408c1.791-1.647-.218-6.512-.218-6.512" transform="translate(-1911.824 -519.073)" fill="#ffd1c1"/>
      </g>
    </g>
    <g id="Group_20284" data-name="Group 20284" transform="translate(209.299 56.826)">
      <g id="Group_20283" data-name="Group 20283" clip-path="url(#clip-path-14)">
        <path id="Path_28710" data-name="Path 28710" d="M2315.914,589.4l3.825-.581s-2.776-.611-2.966-1.219-2.538-12.722-3.572-13.057h0s2.006,14.181,2.712,14.856" transform="translate(-2293.834 -574.543)" fill="#ffb2a0"/>
      </g>
    </g>
    <g id="Group_20286" data-name="Group 20286" transform="translate(0 0)">
      <g id="Group_20285" data-name="Group 20285" clip-path="url(#clip-path-2)">
        <path id="Path_28712" data-name="Path 28712" d="M1026.624,463.751s1.337-3.52,1.908-3.734,7.495-.464,7.53.214-4.719,1.178-4.719,1.178,1.293.54,1.507,1.5-.5,2.46-1.107,2.5-2.592.477-2.592.477Z" transform="translate(-925.323 -414.42)" fill="#ffd1c1"/>
        <path id="Path_28713" data-name="Path 28713" d="M1048.18,477.514s2.328.9,2.376,1.5-2.376.946-2.376.946l.7,1.115s2.473-1.139,2.206-1.94-2.91-1.624-2.91-1.624" transform="translate(-944.752 -430.396)" fill="#ffb2a0"/>
        <path id="Path_28714" data-name="Path 28714" d="M599.013,1366.965l.126,6.886H606.6v-6.886Z" transform="translate(-539.906 -1232.082)" fill="#ffd1c1"/>
      </g>
    </g>
    <g id="Group_20288" data-name="Group 20288" transform="translate(59.107 134.883)">
      <g id="Group_20287" data-name="Group 20287" clip-path="url(#clip-path-16)">
        <path id="Path_28715" data-name="Path 28715" d="M589.208,1365.762l9.156-.425.1-3.424-8.942-.1Z" transform="translate(-590.176 -1362.32)" fill="#ffa18a"/>
      </g>
    </g>
    <g id="Group_20290" data-name="Group 20290" transform="translate(0 0)">
      <g id="Group_20289" data-name="Group 20289" clip-path="url(#clip-path-2)">
        <path id="Path_28717" data-name="Path 28717" d="M725.138,1334.884l-1.616,6.695-7.281-1.617,1.493-6.722Z" transform="translate(-645.567 -1201.685)" fill="#ffa18a"/>
        <path id="Path_28718" data-name="Path 28718" d="M717.457,1384.628l8.5,5.213a3.538,3.538,0,0,1,1.4,3.723l-18.7-4.522,1.085-4.487s2.146,1.855,7.718.072" transform="translate(-638.729 -1247.937)" fill="#4f5285"/>
        <rect id="Rectangle_7077" data-name="Rectangle 7077" width="1.428" height="19.237" transform="matrix(0.235, -0.972, 0.972, 0.235, 69.59, 142.493)" fill="#373660"/>
        <path id="Path_28719" data-name="Path 28719" d="M500.157,1410.773v4.927H480.92a3.538,3.538,0,0,1,2.236-3.29l9.417-3.251s2.644,3.108,7.585,1.613" transform="translate(-433.466 -1270.114)" fill="#4f5285"/>
        <rect id="Rectangle_7078" data-name="Rectangle 7078" width="19.237" height="1.428" transform="translate(47.454 145.587)" fill="#373660"/>
        <path id="Path_28720" data-name="Path 28720" d="M808.652,1397.546l-.861,1.184a.564.564,0,0,0,.9.679l.973-1.247Z" transform="translate(-727.986 -1259.646)" fill="#373660"/>
        <path id="Path_28721" data-name="Path 28721" d="M826.715,1408.565l-.861,1.184a.564.564,0,0,0,.9.679l.973-1.247Z" transform="translate(-744.267 -1269.577)" fill="#373660"/>
        <path id="Path_28722" data-name="Path 28722" d="M847.144,1420.971l-.861,1.184a.564.564,0,0,0,.9.679l.973-1.247Z" transform="translate(-762.68 -1280.759)" fill="#373660"/>
        <path id="Path_28723" data-name="Path 28723" d="M569.715,1415.871l.57,1.348a.564.564,0,0,1-1.032.457l-.666-1.435Z" transform="translate(-512.483 -1276.162)" fill="#373660"/>
        <path id="Path_28724" data-name="Path 28724" d="M549.627,1422.838l.57,1.349a.564.564,0,0,1-1.032.457l-.666-1.435Z" transform="translate(-494.378 -1282.442)" fill="#373660"/>
        <path id="Path_28725" data-name="Path 28725" d="M527.317,1430.57l.57,1.349a.564.564,0,0,1-1.032.457l-.666-1.435Z" transform="translate(-474.269 -1289.411)" fill="#373660"/>
        <path id="Path_28726" data-name="Path 28726" d="M579.7,793.916H560.132l-6.815,58.82h13.689l3.307-51.749,4.938,24.691-5.656,24.092,12.3,2.966,4.552-23.432a12.794,12.794,0,0,0-.068-5.205Z" transform="translate(-498.719 -715.578)" fill="#373660"/>
        <path id="Path_28727" data-name="Path 28727" d="M560.956,1365.019h-14.4a.4.4,0,0,1-.395-.395v-1.948a.4.4,0,0,1,.395-.4h14.4a.4.4,0,0,1,.395.4v1.948a.4.4,0,0,1-.395.395" transform="translate(-492.271 -1227.86)" fill="#4f5285"/>
        <path id="Path_28728" data-name="Path 28728" d="M719.564,1337.794l-14.007-3.333a.4.4,0,0,1-.293-.476l.451-1.9a.4.4,0,0,1,.476-.293l14.007,3.333a.4.4,0,0,1,.293.476l-.451,1.895a.4.4,0,0,1-.476.293" transform="translate(-635.663 -1200.375)" fill="#4f5285"/>
        <path id="Path_28729" data-name="Path 28729" d="M680.684,377.467c-2.113.487-3.211,3.547-2.453,6.834l.667,2.892a19.551,19.551,0,0,1,.479,3.5l.2,4.25,4.878-1.142-1.021-4.428c2.113-.487,3.211-3.547,2.453-6.834s-3.085-5.556-5.2-5.069" transform="translate(-611.091 -340.162)" fill="#ffd1c1"/>
      </g>
    </g>
    <g id="Group_20292" data-name="Group 20292" transform="translate(66.9 37.24)">
      <g id="Group_20291" data-name="Group 20291" clip-path="url(#clip-path-18)">
        <path id="Path_28730" data-name="Path 28730" d="M703.882,406.264s-3.208-2.287-5.839-1.681l-.283-1.731,6.017.562s.642,2.341.105,2.849" transform="translate(-695.809 -400.342)" fill="#ffb2a0"/>
      </g>
    </g>
    <g id="Group_20294" data-name="Group 20294" transform="translate(0 0)">
      <g id="Group_20293" data-name="Group 20293" clip-path="url(#clip-path-2)">
        <path id="Path_28732" data-name="Path 28732" d="M705.687,483.294a3.778,3.778,0,0,1-3-1.686s.963,2.761,3.175,2.439Z" transform="translate(-633.349 -434.086)" fill="#ffb2a0"/>
        <path id="Path_28733" data-name="Path 28733" d="M659.483,353.473c-1.5-.707-2.364-.3-2.838.223-.507.555-2.066-.6-3.732.5a3.538,3.538,0,0,0-1.558,4.414c.439,1.2,3.317,6.75,3.317,6.75l.236-2.905a1.461,1.461,0,0,1-.418-.753c-.144-.623.084-1.208.509-1.306s.886.328,1.03.951c.012.052.021.1.027.156l.03-.021c.4-.288.253-2.886.253-2.886l3.073.494a2.2,2.2,0,0,0,2.4-2.972,4.7,4.7,0,0,0-2.326-2.647" transform="translate(-586.847 -318.255)" fill="#373660"/>
        <path id="Path_28734" data-name="Path 28734" d="M607.078,548.687l3.815-23.873a3.531,3.531,0,0,1,3.486-2.974h8.156a3.531,3.531,0,0,1,3.492,3.009l3.564,23.838Z" transform="translate(-547.175 -470.349)" fill="#fff"/>
        <path id="Path_28735" data-name="Path 28735" d="M683.618,521.841h-9.471a3.12,3.12,0,0,0,.573,1.282,1.754,1.754,0,0,0,2.71.245l1.452-1.482,1.452,1.482a1.754,1.754,0,0,0,2.71-.245,3.119,3.119,0,0,0,.573-1.282" transform="translate(-607.626 -470.35)" fill="#eaab81"/>
        <path id="Path_28736" data-name="Path 28736" d="M705.369,524.732l.879-.948L704.8,522.3l-1.452,1.482.692.852-1.139,17.65,1.8,2.393,1.8-2.393Z" transform="translate(-633.54 -470.765)" fill="#373660"/>
        <path id="Path_28737" data-name="Path 28737" d="M594.608,521.841l-1.463,28.52-7.245-1.38,3.663-22.8A5.164,5.164,0,0,1,594.608,521.841Z" transform="translate(-528.087 -470.35)" fill="#ffc967"/>
        <path id="Path_28738" data-name="Path 28738" d="M766.808,522.3l1.463,28.52,7.245-1.38-3.663-22.8A5.164,5.164,0,0,0,766.808,522.3Z" transform="translate(-691.144 -470.766)" fill="#ffc967"/>
        <path id="Path_28739" data-name="Path 28739" d="M519.626,536.174,506.589,547.5l6.833,6.429,7.119-6.651Z" transform="translate(-456.602 -483.268)" fill="#ffc967"/>
        <path id="Path_28740" data-name="Path 28740" d="M600.142,619.645l3.524-5.848-1.318,5.186,4.31,1.067a7.487,7.487,0,0,1,0,1.136l-6.516-1.541" transform="translate(-540.924 -553.232)" fill="#ffa648"/>
        <path id="Path_28741" data-name="Path 28741" d="M590.125,754.1l6.682,1-1.411,1.7-5.561-.9Z" transform="translate(-531.634 -679.695)" fill="#ffa648"/>
        <path id="Path_28742" data-name="Path 28742" d="M719.511,423.324a1.371,1.371,0,1,1,1.371-1.371,1.372,1.372,0,0,1-1.371,1.371m0-2.533a1.163,1.163,0,1,0,1.163,1.163,1.164,1.164,0,0,0-1.163-1.163" transform="translate(-647.279 -379.083)" fill="#373660"/>
        <path id="Path_28743" data-name="Path 28743" d="M747.878,419.942a1.371,1.371,0,1,1,1.371-1.371,1.372,1.372,0,0,1-1.371,1.371m0-2.533a1.163,1.163,0,1,0,1.163,1.163,1.164,1.164,0,0,0-1.163-1.163" transform="translate(-672.846 -376.035)" fill="#373660"/>
        <path id="Path_28744" data-name="Path 28744" d="M807.7,491.163l9.519,8.914,10.891-14.554,5.11,4.309s-9.3,20.944-14.628,20.687-8.933-7.152-8.933-7.152Z" transform="translate(-727.997 -437.616)" fill="#ffc967"/>
        <path id="Path_28745" data-name="Path 28745" d="M825.949,616.218l-1.133-7.049s4.436,12.027,9.826,12.8c0,0-2.3.425-5.492-2.124s-3.2-3.625-3.2-3.625" transform="translate(-743.428 -549.061)" fill="#ffa648"/>
        <path id="Path_28746" data-name="Path 28746" d="M704.462,626.144l1.063.057a4.822,4.822,0,0,1,4.555,5.075l-10.693-.578a4.822,4.822,0,0,1,5.075-4.555" transform="translate(-630.376 -564.354)" fill="#4f5285"/>
        <rect id="Rectangle_7080" data-name="Rectangle 7080" width="1.62" height="10.709" transform="translate(68.826 69.773) rotate(-86.908)" fill="#4f5285"/>
        <path id="Path_28747" data-name="Path 28747" d="M670.675,1311.122l-6.056,13.917a.5.5,0,0,1-.936-.05l-4.522-14.488.174-3.213,11.513.622Z" transform="translate(-594.12 -1178.293)" fill="#ffc967"/>
      </g>
    </g>
    <g id="Group_20296" data-name="Group 20296" transform="translate(65.042 128.995)">
      <g id="Group_20295" data-name="Group 20295" clip-path="url(#clip-path-20)">
        <rect id="Rectangle_7082" data-name="Rectangle 7082" width="3.858" height="4.264" transform="translate(2.876 18.468) rotate(-86.908)" fill="#373660"/>
      </g>
    </g>
    <g id="Group_20298" data-name="Group 20298" transform="translate(0 0)">
      <g id="Group_20297" data-name="Group 20297" clip-path="url(#clip-path-2)">
        <path id="Path_28749" data-name="Path 28749" d="M662.287,785.808l2.632,2.566,3-2.5,2.759,2.812,3.263-60.408-11.513-.622-3.263,60.408Z" transform="translate(-594.12 -655.855)" fill="#fe6d60"/>
        <path id="Path_28750" data-name="Path 28750" d="M685.525,706.977l11.158.6a1,1,0,0,1,.942,1.05l0,.057a1,1,0,0,1-1.05.942l-11.158-.6a1,1,0,0,1-.942-1.05l0-.057a1,1,0,0,1,1.05-.942" transform="translate(-616.932 -637.217)" fill="#373660"/>
        <path id="Path_28751" data-name="Path 28751" d="M687.4,672.231l11.158.6a1,1,0,0,1,.942,1.05l0,.057a1,1,0,0,1-1.05.942l-11.158-.6a1,1,0,0,1-.942-1.05l0-.057a1,1,0,0,1,1.05-.942" transform="translate(-618.623 -605.898)" fill="#373660"/>
        <path id="Path_28752" data-name="Path 28752" d="M690.833,787.285l3.133-57.991,5.678.307-3.12,57.753-3.06,2.5Z" transform="translate(-622.666 -657.332)" fill="#e63e36"/>
        <path id="Path_28753" data-name="Path 28753" d="M481.4,650.946l22.535,5.329-1.982,6.656-19.46-2.916a4.588,4.588,0,0,1-3.706-3.332q-.022-.081-.041-.162a4.249,4.249,0,0,1,1.04-3.814Z" transform="translate(-431.415 -586.715)" fill="#ffc967"/>
        <path id="Path_28754" data-name="Path 28754" d="M721.617,716.1a18.6,18.6,0,0,1,3.437.765,15.726,15.726,0,0,1,2.233,3.487c.379.888-2.046,4.519-2.643,4.1s-2.339-3.721-2.539-3.81-1.452-.293-1.407-.79.919-3.75.919-3.75" transform="translate(-649.584 -645.438)" fill="#ffd1c1"/>
        <path id="Path_28755" data-name="Path 28755" d="M269.414,77.54a19.3,19.3,0,1,1-19.3-19.3,19.3,19.3,0,0,1,19.3,19.3" transform="translate(-208.034 -52.492)" fill="#d1d1d1"/>
        <path id="Path_28756" data-name="Path 28756" d="M285.912,97.924a17.206,17.206,0,1,1-17.206-17.206,17.206,17.206,0,0,1,17.206,17.206" transform="translate(-226.684 -72.754)" fill="#fff"/>
        <path id="Path_28757" data-name="Path 28757" d="M421.638,179.5h-1.121v-6.558l.561-1.465.561,1.465Z" transform="translate(-379.023 -154.556)" fill="#eaab81"/>
        <path id="Path_28758" data-name="Path 28758" d="M343.628,250.764l.793.793-8.256,8.256-1.177.335.384-1.128Z" transform="translate(-301.933 -226.021)" fill="#eaab81"/>
        <path id="Path_28759" data-name="Path 28759" d="M414.547,242.01a1.432,1.432,0,1,1-1.432-1.432,1.432,1.432,0,0,1,1.432,1.432" transform="translate(-371.061 -216.84)" fill="#d1d1d1"/>
        <rect id="Rectangle_7083" data-name="Rectangle 7083" width="0.994" height="1.817" transform="translate(41.526 9.001)" fill="#eaab81"/>
        <rect id="Rectangle_7084" data-name="Rectangle 7084" width="0.994" height="1.817" transform="translate(41.558 39.31)" fill="#eaab81"/>
        <rect id="Rectangle_7085" data-name="Rectangle 7085" width="1.817" height="0.994" transform="translate(51.749 14.628) rotate(-45)" fill="#eaab81"/>
        <rect id="Rectangle_7086" data-name="Rectangle 7086" width="1.817" height="0.994" transform="translate(30.34 36.083) rotate(-45)" fill="#eaab81"/>
        <rect id="Rectangle_7087" data-name="Rectangle 7087" width="1.817" height="0.994" transform="translate(25.975 24.583)" fill="#eaab81"/>
        <rect id="Rectangle_7088" data-name="Rectangle 7088" width="1.817" height="0.994" transform="translate(56.284 24.552)" fill="#eaab81"/>
        <rect id="Rectangle_7089" data-name="Rectangle 7089" width="0.994" height="1.817" transform="translate(30.318 14.069) rotate(-45)" fill="#eaab81"/>
        <rect id="Rectangle_7090" data-name="Rectangle 7090" width="0.994" height="1.817" transform="translate(51.772 35.478) rotate(-45)" fill="#eaab81"/>
        <rect id="Rectangle_7091" data-name="Rectangle 7091" width="13.467" height="13.467" transform="translate(208.813 21.916)" fill="#eaab81"/>
        <rect id="Rectangle_7092" data-name="Rectangle 7092" width="11" height="11" transform="translate(210.046 23.149)" fill="#f7f7f7"/>
        <rect id="Rectangle_7093" data-name="Rectangle 7093" width="7.67" height="7.67" transform="translate(223.785 20.263)" fill="#eaab81"/>
        <rect id="Rectangle_7094" data-name="Rectangle 7094" width="6.265" height="6.265" transform="translate(224.487 20.966)" fill="#f7f7f7"/>
        <rect id="Rectangle_7095" data-name="Rectangle 7095" width="7.67" height="7.67" transform="translate(223.785 29.706)" fill="#eaab81"/>
        <rect id="Rectangle_7096" data-name="Rectangle 7096" width="6.265" height="6.265" transform="translate(224.487 30.408)" fill="#f7f7f7"/>
        <rect id="Rectangle_7097" data-name="Rectangle 7097" width="3.278" height="3.278" transform="translate(213.907 26.784)" fill="#d1d1d1"/>
        <rect id="Rectangle_7098" data-name="Rectangle 7098" width="3.278" height="3.278" transform="translate(225.981 22.459)" fill="#d1d1d1"/>
        <rect id="Rectangle_7099" data-name="Rectangle 7099" width="3.278" height="3.278" transform="translate(225.981 31.901)" fill="#d1d1d1"/>
        <path id="Path_28760" data-name="Path 28760" d="M1687.909,1053.767h-41.13a1.54,1.54,0,0,1-1.54-1.541v-14.536a1.54,1.54,0,0,1,1.54-1.54h41.13a1.54,1.54,0,0,1,1.541,1.54v14.536a1.541,1.541,0,0,1-1.541,1.541" transform="translate(-1482.897 -933.909)" fill="#eaab81"/>
        <path id="Path_28761" data-name="Path 28761" d="M1707.37,1068.858h-38.432a.626.626,0,0,1-.626-.626v-1.165a.626.626,0,0,1,.626-.626h38.432a.626.626,0,0,1,.626.626v1.165a.626.626,0,0,1-.626.626" transform="translate(-1503.694 -961.211)" fill="#fff"/>
        <path id="Path_28762" data-name="Path 28762" d="M1707.232,1115.587H1668.8a.626.626,0,0,1-.626-.626V1113.8a.626.626,0,0,1,.626-.626h38.432a.626.626,0,0,1,.626.626v1.165a.626.626,0,0,1-.626.626" transform="translate(-1503.569 -1003.329)" fill="#fff"/>
        <path id="Path_28763" data-name="Path 28763" d="M1689.691,1162.315H1668.5a.467.467,0,0,1-.467-.468v-1.483a.467.467,0,0,1,.467-.468h21.187a.468.468,0,0,1,.468.468v1.483a.468.468,0,0,1-.468.468" transform="translate(-1503.446 -1045.446)" fill="#fff"/>
        <rect id="Rectangle_7100" data-name="Rectangle 7100" width="278.552" height="0.541" transform="translate(0 147.025)" fill="#373660"/>
        <path id="Path_28764" data-name="Path 28764" d="M2623.593,1365.92h-9.1a.972.972,0,0,1-.965-.862l-1.453-12.809h13.671l-1.184,12.789a.972.972,0,0,1-.968.882" transform="translate(-2354.33 -1218.818)" fill="#4f5285"/>
      </g>
    </g>
    <g id="Group_20300" data-name="Group 20300" transform="translate(257.743 133.431)">
      <g id="Group_20299" data-name="Group 20299" clip-path="url(#clip-path-22)">
        <path id="Path_28765" data-name="Path 28765" d="M2592.231,1389.879a49.9,49.9,0,0,0,16.358-8.383v11.684h-16.732Z" transform="translate(-2593.852 -1378.61)" fill="#373660"/>
      </g>
    </g>
    <g id="Group_20302" data-name="Group 20302" transform="translate(0 0)">
      <g id="Group_20301" data-name="Group 20301" clip-path="url(#clip-path-2)">
        <path id="Path_28767" data-name="Path 28767" d="M2577.071,1129.135a20.011,20.011,0,0,1-5.891-18.654s5.971,3.428,9.28,15.855c0,0-2.26-13.8,5.326-21.626,0,0,3.228,11.217,0,18.963,0,0,.081-2.905,7.828-4.277,0,0-1.775,8.1-7.1,9.739Z" transform="translate(-2317.074 -995.705)" fill="#4f5285"/>
        <path id="Path_28768" data-name="Path 28768" d="M2617.133,1157.532s-4.929-13-.863-21.317c0,0,6.224,12.5,4.745,21.317Z" transform="translate(-2356.664 -1024.101)" fill="#ffc967"/>
        <path id="Path_28769" data-name="Path 28769" d="M2686.651,1219.857s.017-10.027,8.08-14.494c0,0-2.32,12.514-4.931,14.494Z" transform="translate(-2421.549 -1086.426)" fill="#ffc967"/>
      </g>
    </g>
  </g>
</svg>
