<svg xmlns="http://www.w3.org/2000/svg" width="16" height="15" viewBox="0 0 16 15">
  <g id="Group_20403" data-name="Group 20403" transform="translate(-4 -4.136)">
    <g id="Group_20454" data-name="Group 20454">
      <g id="Group_20455" data-name="Group 20455" transform="translate(4 3.136)">
        <path id="Path_28939" data-name="Path 28939" d="M15.5,16.813h-1V15.337a.5.5,0,0,0-1,0v1.477h-3V5.984h3v7.383a.5.5,0,0,0,1,0V5.492A.5.5,0,0,0,14,5H10a.5.5,0,0,0-.5.492V7.953H6a.5.5,0,0,0-.5.492v2.461H2a.5.5,0,0,0-.5.492v5.414H.5a.492.492,0,1,0,0,.984h15a.492.492,0,1,0,0-.984Zm-13-4.922h3v4.922h-3Zm4-2.953h3v7.876h-3Z" transform="translate(0 -1.798)" fill="#08558c"/>
        <path id="Path_28940" data-name="Path 28940" d="M3.976,8.709H.5a.554.554,0,0,1,0-1.1H3.479V4.854a.526.526,0,0,1,.5-.551H7.456V1.551A.526.526,0,0,1,7.953,1h5.965a.526.526,0,0,1,.5.551.526.526,0,0,1-.5.551H8.45V4.854a.526.526,0,0,1-.5.551H4.473V8.158A.526.526,0,0,1,3.976,8.709Z" fill="#08558c"/>
      </g>
    </g>
  </g>
</svg>
