<svg xmlns="http://www.w3.org/2000/svg" width="25" height="25" viewBox="0 0 25 25">
  <g id="Group_20410" data-name="Group 20410" transform="translate(-3 -3)">
    <rect id="Rectangle_7164" data-name="Rectangle 7164" width="20.455" height="23.485" rx="1" transform="translate(3.758 3.758)" fill="#e6e6e6"/>
    <path id="Path_29003" data-name="Path 29003" d="M18.274,4A38.488,38.488,0,0,1,9.125,27.81H4.6a.6.6,0,0,1-.6-.6V4.6A.6.6,0,0,1,4.6,4Z" transform="translate(-0.405 -0.405)" fill="#f2f2f2"/>
    <path id="Path_29004" data-name="Path 29004" d="M24.238,4.6V7.571H4V4.6A.6.6,0,0,1,4.6,4H23.643A.6.6,0,0,1,24.238,4.6Z" transform="translate(-0.405 -0.405)" fill="#1a1a1a"/>
    <path id="Path_29005" data-name="Path 29005" d="M18.274,4Q18.22,5.8,18,7.571H4V4.6A.6.6,0,0,1,4.6,4Z" transform="translate(-0.405 -0.405)" fill="#333"/>
    <ellipse id="Ellipse_507" data-name="Ellipse 507" cx="0.379" cy="0.758" rx="0.379" ry="0.758" transform="translate(6.788 4.515)" fill="#ff5543"/>
    <ellipse id="Ellipse_508" data-name="Ellipse 508" cx="0.379" cy="0.758" rx="0.379" ry="0.758" transform="translate(9.061 4.515)" fill="#ffc239"/>
    <circle id="Ellipse_509" data-name="Ellipse 509" cx="0.758" cy="0.758" r="0.758" transform="translate(11.333 4.515)" fill="#34d143"/>
    <path id="Path_29006" data-name="Path 29006" d="M39.143,17.571a3.574,3.574,0,0,1-3.571,3.571,3.524,3.524,0,0,1-1.81-.494A3.57,3.57,0,0,1,35.571,14a3.511,3.511,0,0,1,1.542.351A3.571,3.571,0,0,1,39.143,17.571Z" transform="translate(-11.738 -4.452)" fill="#ffc239"/>
    <path id="Path_29007" data-name="Path 29007" d="M37.132,14.821a6.726,6.726,0,0,1-3.368,5.827A3.57,3.57,0,0,1,35.573,14a3.511,3.511,0,0,1,1.542.351C37.126,14.506,37.132,14.661,37.132,14.821Z" transform="translate(-11.739 -4.452)" fill="#ffe266"/>
    <path id="Path_29008" data-name="Path 29008" d="M38.786,19.381H37.6a.6.6,0,0,1-.6-.6V17.6a.6.6,0,1,1,1.19,0v.6h.6a.6.6,0,1,1,0,1.19Z" transform="translate(-13.762 -5.667)" fill="#333"/>
    <rect id="Rectangle_7165" data-name="Rectangle 7165" width="3.788" height="3.03" rx="1" transform="translate(6.03 9.818)" fill="#02bfe2"/>
    <path id="Path_29009" data-name="Path 29009" d="M10.4,14a5.967,5.967,0,0,1-1.738,3.571H8.6a.6.6,0,0,1-.6-.6V14.6a.6.6,0,0,1,.6-.6Z" transform="translate(-2.024 -4.452)" fill="#4fd7f7"/>
    <path id="Path_29010" data-name="Path 29010" d="M24.738,15.19H17.6a.6.6,0,0,1,0-1.19h7.143a.6.6,0,1,1,0,1.19Zm-1.19,2.381H17.6a.6.6,0,0,1,0-1.19h5.952a.6.6,0,0,1,0,1.19Z" transform="translate(-5.667 -4.452)" fill="#333"/>
    <rect id="Rectangle_7166" data-name="Rectangle 7166" width="3.788" height="3.03" rx="1" transform="translate(6.03 15.879)" fill="#02bfe2"/>
    <path id="Path_29011" data-name="Path 29011" d="M10.4,24a5.967,5.967,0,0,1-1.738,3.571H8.6a.6.6,0,0,1-.6-.6V24.6a.6.6,0,0,1,.6-.6Z" transform="translate(-2.024 -8.5)" fill="#4fd7f7"/>
    <path id="Path_29012" data-name="Path 29012" d="M24.738,25.19H17.6a.6.6,0,0,1,0-1.19h7.143a.6.6,0,0,1,0,1.19Zm0,2.381H17.6a.6.6,0,0,1,0-1.19h7.143a.6.6,0,0,1,0,1.19Z" transform="translate(-5.667 -8.5)" fill="#333"/>
    <rect id="Rectangle_7167" data-name="Rectangle 7167" width="3.788" height="3.788" rx="1" transform="translate(6.03 21.182)" fill="#02bfe2"/>
    <path id="Path_29013" data-name="Path 29013" d="M10.4,34a5.967,5.967,0,0,1-1.738,3.571H8.6a.6.6,0,0,1-.6-.6V34.6a.6.6,0,0,1,.6-.6Z" transform="translate(-2.024 -12.548)" fill="#4fd7f7"/>
    <path id="Path_29014" data-name="Path 29014" d="M24.738,35.19H17.6a.6.6,0,0,1,0-1.19h7.143a.6.6,0,1,1,0,1.19Zm0,2.381H17.6a.6.6,0,1,1,0-1.19h7.143a.6.6,0,1,1,0,1.19Z" transform="translate(-5.667 -12.548)" fill="#333"/>
    <path id="Path_29015" data-name="Path 29015" d="M23.238,28H4.19A1.192,1.192,0,0,1,3,26.81V4.19A1.192,1.192,0,0,1,4.19,3H23.238a1.192,1.192,0,0,1,1.19,1.19V9.548a.6.6,0,0,1-1.19,0V4.19H4.19V26.81H23.238V16.69a.6.6,0,1,1,1.19,0V26.81A1.192,1.192,0,0,1,23.238,28Z" transform="translate(0 0)"/>
    <path id="Path_29016" data-name="Path 29016" d="M23.833,10.19H3.6A.6.6,0,1,1,3.6,9H23.833a.6.6,0,1,1,0,1.19Z" transform="translate(0 -2.429)"/>
    <ellipse id="Ellipse_510" data-name="Ellipse 510" cx="0.379" cy="0.758" rx="0.379" ry="0.758" transform="translate(6.788 4.515)"/>
    <ellipse id="Ellipse_511" data-name="Ellipse 511" cx="0.379" cy="0.758" rx="0.379" ry="0.758" transform="translate(9.061 4.515)"/>
    <circle id="Ellipse_512" data-name="Ellipse 512" cx="0.758" cy="0.758" r="0.758" transform="translate(11.333 4.515)"/>
    <path id="Path_29017" data-name="Path 29017" d="M35.167,21.333a4.167,4.167,0,1,1,4.167-4.167,4.167,4.167,0,0,1-4.167,4.167Zm0-7.143a2.976,2.976,0,1,0,2.976,2.976A2.976,2.976,0,0,0,35.167,14.19Z" transform="translate(-11.333 -4.048)"/>
    <path id="Path_29018" data-name="Path 29018" d="M26.643,17.762h-1.19a.6.6,0,0,1-.6-.6v-1.19a.6.6,0,1,1,1.19,0v.6h.6a.6.6,0,0,1,0,1.19Zm-16.071,0H8.19A1.192,1.192,0,0,1,7,16.571V14.19A1.192,1.192,0,0,1,8.19,13h2.381a1.192,1.192,0,0,1,1.19,1.19v2.381A1.192,1.192,0,0,1,10.571,17.762ZM8.19,14.19v2.381h2.382V14.19Zm12.5.6H13.548a.6.6,0,1,1,0-1.19H20.69a.6.6,0,0,1,0,1.19ZM19.5,17.167H13.548a.6.6,0,1,1,0-1.19H19.5a.6.6,0,1,1,0,1.19Zm-8.929,6.548H8.19A1.192,1.192,0,0,1,7,22.524V20.143a1.192,1.192,0,0,1,1.19-1.19h2.381a1.192,1.192,0,0,1,1.19,1.19v2.381A1.192,1.192,0,0,1,10.571,23.714ZM8.19,20.143v2.381h2.382V20.143Zm12.5.6H13.548a.6.6,0,1,1,0-1.19H20.69a.6.6,0,0,1,0,1.19Zm0,2.381H13.548a.6.6,0,1,1,0-1.19H20.69a.6.6,0,0,1,0,1.19ZM10.571,29.667H8.19A1.192,1.192,0,0,1,7,28.476V26.1A1.192,1.192,0,0,1,8.19,24.9h2.381a1.192,1.192,0,0,1,1.19,1.19v2.381a1.192,1.192,0,0,1-1.19,1.19ZM8.19,26.1v2.381h2.382V26.1Zm12.5.6H13.548a.6.6,0,1,1,0-1.19H20.69a.6.6,0,0,1,0,1.19Zm0,2.381H13.548a.6.6,0,1,1,0-1.19H20.69a.6.6,0,1,1,0,1.19Z" transform="translate(-1.619 -4.048)"/>
  </g>
</svg>
