<svg xmlns="http://www.w3.org/2000/svg" width="12.793" height="10.081" viewBox="0 0 12.793 10.081">
  <path id="Path_28662" data-name="Path 28662" d="M18.846,20.929a.779.779,0,0,1-.458.152H7.4a.779.779,0,0,1-.458-.152l3.665-4.493.9,1.109a1.8,1.8,0,0,0,2.76,0l.9-1.109Zm.323-.4L15.5,16.041l3.665-4.493a1.3,1.3,0,0,1,.124.561v7.864A1.3,1.3,0,0,1,19.169,20.533Zm-12.545,0a1.3,1.3,0,0,1-.124-.561V12.109a1.3,1.3,0,0,1,.124-.561l3.665,4.493Zm12.222-9.381-4.893,6a1.407,1.407,0,0,1-2.114,0l-4.893-6A.779.779,0,0,1,7.4,11H18.389A.779.779,0,0,1,18.846,11.152Z" transform="translate(-6.5 -11)" fill="#fff" fill-rule="evenodd"/>
</svg>
