<svg xmlns="http://www.w3.org/2000/svg" width="11.402" height="10.264" viewBox="0 0 11.402 10.264">
  <g id="Layer_2" data-name="Layer 2" transform="translate(-1.003 -1.509)">
    <g id="eye-off" transform="translate(1.003 1.509)">
      <circle id="Ellipse_489" data-name="Ellipse 489" cx="0.855" cy="0.855" r="0.855" transform="translate(4.846 4.277)" fill="#7c7c7c"/>
      <path id="Path_28784" data-name="Path 28784" d="M9.572,11.615l-.735-.764-.04-.04-.724-.724a2.32,2.32,0,0,1-.348.034A1.995,1.995,0,0,1,5.7,8.127a2.32,2.32,0,0,1,.034-.348L4.6,6.64l-.889-.866A9.056,9.056,0,0,0,2.072,7.842a.57.57,0,0,0,0,.57c.359.621,2.28,3.7,5.636,3.7h.142a5.4,5.4,0,0,0,1.841-.382ZM5.754,4.571l1.6,1.6A2.32,2.32,0,0,1,7.7,6.133,2,2,0,0,1,9.692,8.127a2.32,2.32,0,0,1-.034.348L11.185,10l.479.479a9.056,9.056,0,0,0,1.658-2.069.57.57,0,0,0,0-.57c-.365-.633-2.371-3.807-5.779-3.7A5.4,5.4,0,0,0,5.7,4.52Zm6.907,7.711-.741-.735-1.14-1.14L5.355,4.976l-.838-.838-.975-.975a.572.572,0,1,0-.809.809L4.01,5.278l1,.969,4.166,4.16.04.04.764.764.336.336,1.539,1.544a.572.572,0,1,0,.809-.809Z" transform="translate(-1.996 -2.996)" fill="#d3d3d3"/>
    </g>
  </g>
</svg>
