<svg xmlns="http://www.w3.org/2000/svg" width="10.021" height="10.067" viewBox="0 0 10.021 10.067">
  <path id="Path_28663" data-name="Path 28663" d="M14.9,15.546a.509.509,0,0,1-.481.035,8.4,8.4,0,0,1-1.657-1.367,9.152,9.152,0,0,1-1.4-1.694.511.511,0,0,1,.035-.482l.45-.79a.591.591,0,0,0,.022-.73L10.705,8.746c-.329-.521-.5-.5-.781-.367C8.45,9.051,7.873,10,9.966,13.313a15.745,15.745,0,0,0,3.761,3.738c3.151,2.049,4.188,1.433,4.8,0,.13-.289.187-.457-.308-.782l-1.79-1.14c-.272-.175-.4-.22-.686-.057Z" transform="translate(-8.6 -8.3)" fill="#fff" fill-rule="evenodd"/>
</svg>
