<svg xmlns="http://www.w3.org/2000/svg" width="18.5" height="18.5" viewBox="0 0 18.5 18.5">
  <g id="Group_20318" data-name="Group 20318" transform="translate(-2 -2)">
    <path id="Path_28772" data-name="Path 28772" d="M11.25,2a9.25,9.25,0,1,0,9.25,9.25A9.25,9.25,0,0,0,11.25,2ZM17.3,16.364l-.436-.443a.663.663,0,1,0-.938.938l.443.436a7.862,7.862,0,0,1-4.453,1.883v-.661a.661.661,0,0,0-1.321,0v.661a7.863,7.863,0,0,1-4.453-1.85l.443-.436a.663.663,0,1,0-.938-.938L5.2,16.4a7.862,7.862,0,0,1-1.85-4.486h.628a.661.661,0,1,0,0-1.321H3.321a7.863,7.863,0,0,1,1.85-4.453l.436.443a.663.663,0,1,0,.938-.938L6.1,5.2a7.863,7.863,0,0,1,4.486-1.85v.628a.661.661,0,1,0,1.321,0V3.321a7.863,7.863,0,0,1,4.453,1.85l-.443.436a.663.663,0,0,0,.938.938L17.3,6.1a7.862,7.862,0,0,1,1.883,4.486h-.661a.661.661,0,0,0,0,1.321h.661A7.862,7.862,0,0,1,17.3,16.364Z"/>
    <path id="Path_28773" data-name="Path 28773" d="M18.6,14.358l-2.279-1.143V9.661a.661.661,0,1,0-1.321,0v3.964a.661.661,0,0,0,.363.588l2.643,1.321a.614.614,0,0,0,.3.073.66.66,0,0,0,.3-1.249Z" transform="translate(-4.411 -2.375)"/>
  </g>
</svg>
