<svg xmlns="http://www.w3.org/2000/svg" width="23.999" height="21.298" viewBox="0 0 23.999 21.298">
  <g id="Layer_2" data-name="Layer 2" transform="translate(0.031 0.006)">
    <path id="Path_29930" data-name="Path 29930" d="M21.241,9.754h2.727l-3.545,5.325L16.877,9.761H19.5c-.055-.327-.089-.634-.15-.934A8.863,8.863,0,1,0,8.914,19.34a8.665,8.665,0,0,0,7.438-1.929.907.907,0,0,1,1.425.232.873.873,0,0,1-.225,1.084A10.649,10.649,0,1,1,20.961,8.1c.123.5.177,1.009.259,1.52C21.227,9.659,21.234,9.7,21.241,9.754Z" transform="translate(0 0)" fill="#858585"/>
    <path id="Path_29931" data-name="Path 29931" d="M9.093,12.685a.849.849,0,0,1,.266-.679.944.944,0,0,1,.714-.253h5.39V9.975a1.765,1.765,0,0,0-1.555-1.559,1.826,1.826,0,0,0-1.945,1.093.906.906,0,0,1-.938.566.916.916,0,0,1-.709-.427.829.829,0,0,1-.04-.8,3.662,3.662,0,0,1,3.893-2.16,3.537,3.537,0,0,1,3.107,3.106c.042.6,0,1.205,0,1.811v.147h0a1.013,1.013,0,0,1,.707.337.914.914,0,0,1,.224.721v4.062a.841.841,0,0,1-.258.691.937.937,0,0,1-.722.255H10.066a.943.943,0,0,1-.715-.26.848.848,0,0,1-.258-.685Z" transform="translate(-3.001 -1.998)" fill="none" stroke="#858585" stroke-width="1"/>
  </g>
</svg>
